<?xml version="1.0" encoding="utf-8"?>
<!-- Generator: Adobe Illustrator 22.0.1, SVG Export Plug-In . SVG Version: 6.00 Build 0)  -->
<svg version="1.1" id="Layer_1" xmlns="http://www.w3.org/2000/svg" xmlns:xlink="http://www.w3.org/1999/xlink" x="0px" y="0px"
	 viewBox="0 0 64 64" style="enable-background:new 0 0 64 64;" xml:space="preserve">
<g>
	<path d="M60.5,8.2H39l3-5.2c0.1-0.2,0-0.4-0.1-0.5c-0.2-0.1-0.4,0-0.5,0.1l-3.2,5.6H3.9c-1.8,0-3.2,1.4-3.2,3.2v38
		c0,1.8,1.4,3.2,3.2,3.2H13L10,57.8c-0.1,0.2,0,0.4,0.1,0.5c0.1,0,0.1,0.1,0.2,0.1c0.1,0,0.3-0.1,0.3-0.2l3.1-5.6h23.8l1.1,1.1
		l-0.2,0.2c-0.1,0.1-0.2,0.3-0.2,0.6s0.1,0.4,0.2,0.6c1.2,1.2,2.7,1.8,4.3,1.8c1.6,0,3.2-0.6,4.3-1.8c0.4-0.4,0.9-0.6,1.4-0.6
		c0.5,0,1.1,0.2,1.4,0.6l5.6,5.6c0.7,0.7,1.5,1,2.5,1c0.9,0,1.8-0.4,2.5-1c0.7-0.7,1-1.5,1-2.5s-0.4-1.8-1-2.5l-2.9-2.9h2.7
		c1.8,0,3.2-1.4,3.2-3.2v-38C63.7,9.6,62.2,8.2,60.5,8.2z M13.9,51.1h-10c-0.9,0-1.6-0.7-1.6-1.6v-38c0-0.9,0.7-1.6,1.6-1.6h33.3
		l-3.8,6.8h-23v5.7h19.7l-3,5.2h-17v5.7h13.7l-3,5.2H10.2v5.7h7.5L13.9,51.1z M37.7,51.5l-10-10l1.2-1.2l5.8,5.8
		c0.1,0.1,0.2,0.1,0.3,0.1c0.1,0,0.2,0,0.3-0.1c0.2-0.2,0.2-0.4,0-0.6l-5.8-5.8l1.7-1.7l5.1,5.1c0.1,0.1,0.2,0.1,0.3,0.1
		c0.1,0,0.2,0,0.3-0.1c0.2-0.2,0.2-0.4,0-0.6l-5.1-5.1l1.7-1.7l7.5,7.5c0.1,0.1,0.2,0.1,0.3,0.1s0.2,0,0.3-0.1
		c0.2-0.2,0.2-0.4,0-0.6l-7.5-7.5l1.7-1.7l6.7,6.7c0.1,0.1,0.2,0.1,0.3,0.1s0.2,0,0.3-0.1c0.2-0.2,0.2-0.4,0-0.6L36,33.1l1.7-1.7
		l5.2,5.2c0.1,0.1,0.2,0.1,0.3,0.1c0.1,0,0.2,0,0.3-0.1c0.2-0.2,0.2-0.4,0-0.6l-5.2-5.2l1.7-1.7l8.6,8.6c0.1,0.1,0.2,0.1,0.3,0.1
		s0.2,0,0.3-0.1c0.2-0.2,0.2-0.4,0-0.6l-8.6-8.6l1.1-1.1l10,10L37.7,51.5z M43.6,28.5h10.1v5h-5.1L43.6,28.5z M38.2,52l13.9-13.9
		l1.4,1.4L39.6,53.4L38.2,52z M59.6,56.7c0.4,0.4,0.6,0.9,0.6,1.4s-0.2,1-0.6,1.4c-0.4,0.4-0.9,0.6-1.4,0.6s-1-0.2-1.4-0.6l-5.6-5.6
		c-0.7-0.7-1.6-1.1-2.5-1.1c-1,0-1.9,0.4-2.5,1.1c-0.9,0.9-2,1.3-3.2,1.3c-1,0-1.9-0.3-2.6-0.8l14.2-14.2c1.3,1.8,1.1,4.3-0.5,5.9
		c-0.7,0.7-1.1,1.6-1.1,2.5c0,1,0.4,1.9,1.1,2.5L59.6,56.7z M62.1,49.4c0,0.9-0.7,1.6-1.6,1.6h-4.2L55.1,50
		c-0.4-0.4-0.6-0.9-0.6-1.4c0-0.5,0.2-1.1,0.6-1.4c2.4-2.4,2.4-6.3,0-8.7c-0.1-0.1-0.3-0.2-0.6-0.2s-0.4,0.1-0.6,0.2l-0.2,0.2
		l-4.5-4.5h4.7c0.2,0,0.4-0.2,0.4-0.4v-5.7c0-0.2-0.2-0.4-0.4-0.4H42.8l-0.9-0.9c-0.2-0.2-0.4-0.2-0.6,0l-0.9,0.9h-8
		c-0.2,0-0.4,0.2-0.4,0.4c0,0.2,0.1,0.3,0.2,0.4c0.1,0,0.1,0,0.2,0h7.2l-5,5h-4.8h-0.2c-0.2,0-0.4,0.2-0.4,0.4
		c0,0.2,0.2,0.4,0.4,0.4h4.2l-7,7c-0.1,0.1-0.1,0.2-0.1,0.3c0,0.1,0,0.2,0.1,0.3l9.3,9.3H14.8L38.1,9.7h22.4c0.9,0,1.6,0.7,1.6,1.6
		V49.4L62.1,49.4z"/>
	<path d="M58.2,62c-1,0-2-0.4-2.8-1.1l-5.6-5.6c-0.3-0.3-0.7-0.5-1.2-0.5c-0.4,0-0.9,0.2-1.2,0.5c-1.2,1.2-2.9,1.9-4.6,1.9
		c-1.7,0-3.4-0.7-4.6-1.9C38.1,55,38,54.7,38,54.4c0-0.3,0.1-0.5,0.2-0.7L37.5,53H14.1l-3,5.4c-0.1,0.2-0.4,0.4-0.7,0.4
		c-0.1,0-0.3,0-0.4-0.1c-0.4-0.2-0.5-0.7-0.3-1.1l2.6-4.6H3.9c-2,0-3.6-1.6-3.6-3.6v-38c0-2,1.6-3.6,3.6-3.6h34l3.1-5.4
		C41.1,2.1,41.3,2,41.6,2c0.1,0,0.3,0,0.4,0.1c0.4,0.2,0.5,0.7,0.3,1.1l-2.6,4.7h20.8c2,0,3.6,1.6,3.6,3.6v38c0,2-1.6,3.6-3.6,3.6
		h-1.8l2.3,2.3c0.7,0.7,1.1,1.7,1.1,2.8s-0.4,2-1.1,2.8C60.3,61.6,59.3,62,58.2,62z M48.7,54c0.6,0,1.3,0.3,1.7,0.7l5.6,5.6
		c0.6,0.6,1.4,0.9,2.2,0.9c0.8,0,1.6-0.3,2.2-0.9c0.6-0.6,0.9-1.4,0.9-2.2c0-0.8-0.3-1.6-0.9-2.2l-3.6-3.6h3.6
		c1.6,0,2.8-1.3,2.8-2.8v-38c0-1.6-1.3-2.8-2.8-2.8H38.3l3.3-5.8l-3.3,5.8H3.9C2.3,8.6,1,9.8,1,11.4v38c0,1.6,1.3,2.8,2.8,2.8h9.8
		L10.4,58l3.3-5.8h24.2l1.4,1.4l-0.4,0.4c-0.1,0.1-0.1,0.2-0.1,0.3c0,0.1,0,0.2,0.1,0.3c1.1,1.1,2.5,1.7,4.1,1.7s3-0.6,4.1-1.7
		C47.5,54.2,48.1,54,48.7,54z M58.2,60.4c-0.6,0-1.2-0.2-1.7-0.7L51,54.1c-0.6-0.6-1.4-0.9-2.3-0.9c-0.9,0-1.7,0.3-2.3,0.9
		c-0.9,0.9-2.2,1.5-3.5,1.5c-1,0-2-0.3-2.8-0.9l-0.4-0.3l14.9-14.9l0.3,0.4c1.4,2,1.2,4.6-0.5,6.3c-0.6,0.6-0.9,1.4-0.9,2.3
		c0,0.9,0.3,1.7,0.9,2.3l5.6,5.6c0.4,0.4,0.7,1,0.7,1.7s-0.2,1.2-0.7,1.7C59.4,60.2,58.9,60.4,58.2,60.4z M48.7,52.4
		c1.1,0,2.1,0.4,2.8,1.2l5.6,5.6c0.3,0.3,0.7,0.5,1.1,0.5s0.8-0.2,1.1-0.5s0.5-0.7,0.5-1.1c0-0.4-0.2-0.8-0.5-1.1l-5.6-5.6
		c-0.8-0.8-1.2-1.8-1.2-2.8c0-1.1,0.4-2.1,1.2-2.8c1.3-1.3,1.6-3.4,0.7-5L40.9,54.3c0.6,0.3,1.3,0.5,2,0.5c1.1,0,2.2-0.4,3-1.2
		C46.6,52.8,47.6,52.4,48.7,52.4z M39.6,54L37.7,52l14.5-14.5l1.9,1.9L39.6,54z M38.8,52l0.8,0.8L53,39.5l-0.8-0.8L38.8,52z
		 M37.7,52L27.1,41.5l1.7-1.7l6,6l-6-6l2.2-2.2l5.4,5.4l-5.4-5.4l2.2-2.2l7.8,7.8l-7.7-7.8l2.2-2.2l6.9,6.9l-6.9-6.9l2.2-2.2
		l5.5,5.5l-5.5-5.5l2.2-2.2l8.8,8.8l-8.8-8.9l1.7-1.7l10.5,10.5L37.7,52z M28.2,41.5l9.5,9.5L51,37.6l-9.5-9.4L41,28.7l8.3,8.3
		c0.3,0.3,0.3,0.8,0,1.1c-0.3,0.3-0.8,0.3-1.1,0l-8.3-8.3l-1.1,1.1l5,5c0.1,0.1,0.2,0.3,0.2,0.5c0,0.2-0.1,0.4-0.2,0.5
		c-0.3,0.3-0.8,0.3-1.1,0l-5-5l-1.1,1.1l6.4,6.4c0.1,0.1,0.2,0.3,0.2,0.5c0,0.2-0.1,0.4-0.2,0.5c-0.3,0.3-0.8,0.3-1.1,0l-6.4-6.4
		l-1.1,1.1l7.2,7.2c0.3,0.3,0.3,0.8,0,1.1c-0.3,0.3-0.8,0.3-1.1,0l-7.2-7.2l-1.1,1.1l4.8,4.8c0.3,0.3,0.3,0.8,0,1.1
		c-0.3,0.3-0.8,0.3-1.1,0L31,38.7l-1.1,1.1l5.5,5.5c0.1,0.1,0.2,0.3,0.2,0.6c0,0.2-0.1,0.4-0.2,0.5c-0.1,0.1-0.3,0.2-0.5,0.2
		c-0.2,0-0.4-0.1-0.5-0.2l-5.5-5.5L28.2,41.5z M60.5,51.5h-4.4l-1.2-1.2c-0.5-0.5-0.7-1.1-0.7-1.7c0-0.6,0.3-1.3,0.7-1.7
		c1.1-1.1,1.7-2.5,1.7-4.1c0-1.5-0.6-3-1.7-4.1c-0.1-0.1-0.4-0.1-0.6,0l-0.5,0.5l-5.4-5.4h5.7l0-5.7l-11.4,0l-1-1l-1.1,1h-8.1l8.1,0
		l-5.7,5.7h-5.1l5.1,0l-7.7,7.7l10,10h-23L37.9,9.4h22.6c1.1,0,2,0.9,2,2v38C62.5,50.5,61.6,51.5,60.5,51.5z M56.4,50.7h4.1
		c0.7,0,1.3-0.6,1.3-1.3v-38c0-0.7-0.6-1.3-1.3-1.3H38.3L15.4,50.7h19.8L26.6,42c-0.1-0.1-0.2-0.3-0.2-0.5c0-0.2,0.1-0.4,0.2-0.5
		l6.4-6.4h-3.3c-0.4,0-0.8-0.3-0.8-0.8s0.3-0.8,0.8-0.8h4.8l4.2-4.2h-6.3c-0.1,0-0.2,0-0.3-0.1c-0.3-0.1-0.4-0.4-0.4-0.7
		c0-0.4,0.3-0.8,0.8-0.8h7.8l0.8-0.8c0.1-0.1,0.3-0.2,0.5-0.2c0.2,0,0.4,0.1,0.5,0.2l0.8,0.8h11.1c0.4,0,0.8,0.3,0.8,0.8v5.7
		c0,0.4-0.3,0.8-0.8,0.8h-3.8l3.5,3.5c0.2-0.2,0.5-0.3,0.8-0.3c0.3,0,0.6,0.1,0.8,0.3c1.2,1.2,1.9,2.9,1.9,4.6
		c0,1.7-0.7,3.4-1.9,4.6c-0.3,0.3-0.5,0.7-0.5,1.2c0,0.4,0.2,0.9,0.5,1.2L56.4,50.7z M14.1,51.5H3.9c-1.1,0-2-0.9-2-2v-38
		c0-1.1,0.9-2,2-2h34l-4.3,7.6H10.8v5h20l-3.4,6H10.6v5h14l-3.4,6H10.6v5h7.8L14.1,51.5z M3.9,10.1c-0.7,0-1.3,0.6-1.3,1.3v38
		c0,0.7,0.6,1.3,1.3,1.3h9.8l3.4-6H9.8v-6.5h10.9l2.5-4.5H9.8v-6.5h17.1l2.5-4.5H10v-6.5h23.1l3.4-6L3.9,10.1L3.9,10.1z M54.1,33.8
		h-5.7l-5.7-5.7h11.4L54.1,33.8L54.1,33.8z M48.7,33h4.6v-4.2h-8.8L48.7,33z"/>
</g>
</svg>
