<?xml version="1.0" encoding="utf-8"?>
<!-- Generator: Adobe Illustrator 22.0.1, SVG Export Plug-In . SVG Version: 6.00 Build 0)  -->
<svg version="1.1" id="Layer_1" xmlns="http://www.w3.org/2000/svg" xmlns:xlink="http://www.w3.org/1999/xlink" x="0px" y="0px"
	 viewBox="0 0 64 64" style="enable-background:new 0 0 64 64;" xml:space="preserve">
<g>
	<path d="M25.2,15.3c0.1,0,0.3,0,0.4-0.1c2.1-0.6,4.2-1,6.3-1c2.4,0,4.8,0.4,7,1.2c0.2,0.1,0.3,0.1,0.5,0.1c0.6,0,1.1-0.4,1.3-0.9
		c0.3-0.7-0.1-1.5-0.8-1.8c-2.5-0.9-5.2-1.4-7.9-1.4c-2.4,0-4.8,0.4-7.1,1.1c-0.7,0.2-1.1,1-0.9,1.7C24.1,14.9,24.6,15.3,25.2,15.3z
		"/>
	<path d="M18,39.7c0.2,0.6,0.4,1.1,0.6,1.7c0.2,0.5,0.7,0.8,1.2,0.8c0.2,0,0.4,0,0.6-0.1c0.7-0.3,1-1.1,0.7-1.8
		c-0.2-0.4-0.4-0.9-0.5-1.4c-0.2-0.6-0.7-1-1.3-1c-0.1,0-0.3,0-0.4,0.1C18.1,38.3,17.7,39,18,39.7z"/>
	<path d="M31.9,47.4c-1.7,0-3.3-0.3-4.8-1c-0.2-0.1-0.4-0.1-0.5-0.1c-0.5,0-1,0.3-1.3,0.8c-0.3,0.7,0,1.5,0.7,1.8
		c1.9,0.8,3.9,1.3,5.9,1.3c1.8,0,3.6-0.3,5.3-1c3.6-1.4,6.5-4.2,8.1-7.7c0.3-0.7,0-1.5-0.7-1.8c-0.2-0.1-0.4-0.1-0.6-0.1
		c-0.5,0-1,0.3-1.3,0.8C40.9,44.6,36.6,47.4,31.9,47.4z"/>
	<path d="M30.4,23.7c0.5-0.1,1-0.1,1.5-0.1c1.7,0,3.3,0.3,4.8,1c0.2,0.1,0.4,0.1,0.6,0.1c0.5,0,1-0.3,1.2-0.8c0.1-0.3,0.2-0.7,0-1
		c-0.1-0.3-0.4-0.6-0.7-0.8c-1.9-0.8-3.9-1.2-5.9-1.2c-0.6,0-1.3,0-1.9,0.1c-0.4,0-0.7,0.2-0.9,0.5c-0.2,0.3-0.3,0.6-0.3,1
		c0.1,0.7,0.7,1.2,1.4,1.2C30.3,23.7,30.4,23.7,30.4,23.7z"/>
	<path d="M18.6,14.4c0-0.8-0.6-1.4-1.4-1.4c-0.8,0-1.4,0.6-1.4,1.4v10.4c0,3.1-2.2,5.8-5.2,6.4V14.4c0-0.8-0.6-1.4-1.4-1.4
		s-1.4,0.6-1.4,1.4v16.8c-3-0.6-5.2-3.3-5.2-6.4V14.4c0-0.8-0.6-1.4-1.4-1.4C0.6,13,0,13.6,0,14.4v10.4c0,4.6,3.4,8.5,7.9,9.2v22.6
		c0,0.8,0.6,1.4,1.4,1.4c0.8,0,1.4-0.6,1.4-1.4V34c4.6-0.7,7.9-4.6,7.9-9.2C18.6,24.8,18.6,14.4,18.6,14.4z"/>
	<path d="M54.6,13c-5.1,0-9.3,4.2-9.3,9.3v3.2c0,4.6,3.4,8.5,8,9.2v21.9c0,0.8,0.6,1.4,1.4,1.4c0.8,0,1.4-0.6,1.4-1.4V34.8
		c4.6-0.7,7.9-4.6,7.9-9.2v-3.2C63.9,17.2,59.7,13,54.6,13z M54.6,15.7c3.6,0,6.6,3,6.6,6.6v3.2c0,3.6-3,6.6-6.6,6.6s-6.6-3-6.6-6.6
		v-3.2C48,18.7,50.9,15.7,54.6,15.7z"/>
	<path d="M46.6,51.4c-0.3,0-0.6,0.1-0.9,0.3c-3.8,3.3-8.7,5.1-13.8,5.1c-5.1,0-9.9-1.8-13.8-5.1c-0.2-0.2-0.6-0.3-0.9-0.3
		c-0.4,0-0.8,0.2-1,0.5c-0.5,0.6-0.4,1.4,0.1,1.9c4.3,3.7,9.9,5.7,15.6,5.7c5.7,0,11.2-2,15.6-5.7c0.3-0.2,0.4-0.6,0.5-0.9
		c0-0.4-0.1-0.7-0.3-1C47.4,51.5,47,51.4,46.6,51.4z"/>
</g>
</svg>
