<?xml version="1.0" encoding="utf-8"?>
<!-- Generator: Adobe Illustrator 22.0.1, SVG Export Plug-In . SVG Version: 6.00 Build 0)  -->
<svg version="1.1" id="Layer_1" xmlns="http://www.w3.org/2000/svg" xmlns:xlink="http://www.w3.org/1999/xlink" x="0px" y="0px"
	 viewBox="0 0 64 64" style="enable-background:new 0 0 64 64;" xml:space="preserve">
<g>
	<path d="M4.7,37c0.4,0.4,0.9,0.6,1.4,0.6c0.4,0,0.8-0.1,1.2-0.4l2.9-2.2c0.8-0.6,1-1.6,0.6-2.4c-1-1.9-0.6-4.2,0.9-5.7
		c0.1-0.1,0.2-0.2,0.3-0.3c0.8-0.6,1.7-1,2.7-1c1.3,0,2.5,0.6,3.4,1.6l2,2.3l0,0c0.3,0.3,0.7,0.5,1.1,0.5c0.3,0,0.7-0.1,0.9-0.3
		c0.7-0.5,0.8-1.5,0.3-2.2l-2-2.3c-1.4-1.7-3.5-2.6-5.7-2.6c-1.7,0-3.4,0.6-4.8,1.7c-0.2,0.1-0.3,0.3-0.5,0.4
		c-2.2,2.2-2.9,5.5-1.9,8.4l-1.4,1c-4.4-5.1-4.1-12.8,0.7-17.6l5.9-5.9l1.3,0.3c0.3,0.1,0.5,0.1,0.8,0.1c1,0,1.9-0.4,2.6-1.1
		c0.9-0.9,1.3-2.2,1-3.5l-0.3-1.2l2-2c0.1-0.1,0.1-0.1,0.2,0l8.3,8.2c0.1,0.1,0.1,0.2,0,0.2l-2,2l-1.5-0.3c-0.2,0-0.4-0.1-0.7-0.1
		c-1,0-2,0.5-2.6,1.3c-0.7,1.1-1,2.3-0.8,3.6c0.3,1.4,1.1,2.7,2.2,3.7l2.5,2.2c0.1,0.1,0.2,0.2,0.3,0.2c0.3,0.2,0.6,0.3,0.9,0.3
		c0.5,0,1-0.3,1.3-0.7c0.5-0.7,0.3-1.7-0.4-2.2l-2.5-2.2c-0.6-0.5-1-1.2-1.2-1.9c0-0.4,0-0.8,0.2-1.1c0,0,0,0,0.1,0c0,0,0,0,0,0
		l2.4,0.5c0.1,0,0.2,0,0.3,0c0.4,0,0.8-0.2,1.1-0.5l2.5-2.6c1.3-1.3,1.3-3.3,0-4.6L22.6,1l0,0C21.9,0.3,21.1,0,20.3,0
		c-0.9,0-1.7,0.3-2.3,1l-2.6,2.6C15,3.9,14.9,4.4,15,4.9L15.4,7c0,0.2,0,0.4-0.2,0.6c-0.1,0.1-0.3,0.2-0.5,0.1l-2.1-0.5
		c-0.2,0-0.4,0-0.7,0c-0.3,0.1-0.6,0.2-0.8,0.4l-6.5,6.5C-1.5,20.5-1.6,30.6,4.7,37L4.7,37z"/>
	<path d="M54.7,46.6l-10.8-9.5c-0.3-0.3-0.7-0.4-1-0.4c-0.4,0-0.9,0.2-1.2,0.5c-0.3,0.3-0.4,0.7-0.4,1.1c0,0.4,0.2,0.8,0.5,1.1
		L52.6,49c0.8,0.7,1.2,1.6,1.2,2.7c0,1-0.3,2-1,2.8c-0.7,0.8-1.8,1.2-2.8,1.2l-0.2,0l0,0c-1-0.1-2-0.5-2.6-1.2l-9.6-10.8
		c-0.3-0.3-0.7-0.5-1.2-0.5c-0.4,0-0.8,0.1-1,0.4c-0.6,0.6-0.7,1.6-0.1,2.2l9.6,10.7c1.3,1.4,3.1,2.2,5,2.3H50c3.8,0,7-3.1,6.9-7
		C57,49.8,56.1,47.9,54.7,46.6z"/>
	<path d="M60.6,14.5c-0.5-0.5-1.2-0.8-2-0.8c-0.8,0-1.5,0.3-2,0.8l-3.7,3.7c-0.3,0.3-0.8,0.5-1.2,0.5c-0.5,0-0.9-0.2-1.2-0.5
		l-2.8-2.8c-0.7-0.7-0.7-1.8,0-2.4l3.7-3.7c0.8-0.8,1-1.9,0.7-2.9c-0.4-1-1.3-1.7-2.3-1.8c-0.8-0.1-1.5-0.1-2.3,0
		c-3.5,0.3-6.6,1.9-8.9,4.5s-3.4,6-3.1,9.5c0.1,1.5-0.4,3-1.5,4.1l-13,13.1c-1,1-2.3,1.5-3.7,1.5c-0.1,0-0.3,0-0.4,0
		c-0.4,0-0.7,0-1,0c-0.4,0-0.8,0-1.3,0.1C7.3,37.9,2.1,44.3,2.8,51.5c0.1,0.7,0.4,1.3,0.8,1.7c0.5,0.5,1.2,0.8,2,0.8
		c0.8,0,1.5-0.3,2-0.8l3.7-3.7c0.3-0.3,0.8-0.5,1.2-0.5s0.9,0.2,1.2,0.5l2.8,2.8c0.7,0.7,0.7,1.8,0,2.4l-3.7,3.7
		c-0.8,0.8-1,1.9-0.7,2.9c0.4,1,1.3,1.7,2.3,1.8c0.4,0.1,0.9,0.1,1.3,0.1h0c0.3,0,0.7,0,1,0c7.2-0.6,12.5-6.8,12-14
		c-0.1-1.5,0.4-3.1,1.5-4.1l13-13c1-1,2.3-1.5,3.7-1.5c0.1,0,0.3,0,0.4,0c0.4,0,0.7,0,1,0h0c0.4,0,0.9,0,1.3-0.1
		c7.1-0.7,12.4-7.1,11.7-14.2C61.4,15.6,61.1,15,60.6,14.5z M25.6,49.5c0,0.3,0,0.5,0,0.8c0,5.5-4.4,9.9-9.9,9.9c-0.1,0-0.2,0-0.2,0
		l3.2-3.2c1.9-1.9,1.9-5,0-6.9l-2.8-2.8l0,0l0,0c-0.9-0.9-2.1-1.4-3.4-1.4c-1.3,0-2.5,0.5-3.4,1.4l-3.2,3.3c0-0.3,0-0.7,0-1
		c0.4-5.1,4.7-9.2,9.9-9.2c0.3,0,0.5,0,0.8,0c0.2,0,0.5,0,0.7,0c2.2,0,4.3-0.9,5.9-2.5l13-13c1.7-1.7,2.6-4.1,2.4-6.6
		c0-0.5,0-1.1,0-1.6c0.2-2.5,1.3-4.8,3.2-6.5c1.8-1.7,4.2-2.6,6.7-2.6c0.1,0,0.2,0,0.3,0l-3.2,3.2c-1.9,1.9-1.9,5,0,6.9l2.7,2.8v0
		l0.1,0.1c0.9,0.9,2.1,1.4,3.4,1.4c1.3,0,2.5-0.5,3.4-1.4l3.2-3.2c0,0.1,0,0.2,0,0.2c0,5.5-4.4,9.9-9.9,9.9h-0.8c-0.2,0-0.4,0-0.7,0
		c-2.2,0-4.3,0.9-5.9,2.5l-13.1,13C26.3,44.6,25.4,47,25.6,49.5z"/>
</g>
</svg>
