<?xml version="1.0" encoding="utf-8"?>
<!-- Generator: Adobe Illustrator 22.0.1, SVG Export Plug-In . SVG Version: 6.00 Build 0)  -->
<svg version="1.1" id="Layer_1" xmlns="http://www.w3.org/2000/svg" xmlns:xlink="http://www.w3.org/1999/xlink" x="0px" y="0px"
	 viewBox="0 0 64 64" style="enable-background:new 0 0 64 64;" xml:space="preserve">
<g>
	<path d="M62.7,49.2c0-1.5-1.2-2.7-2.7-2.7h-5.8V44H61c1,0,1.9-0.9,1.9-1.9c-0.3-17.1-13.3-30.7-29.8-31.4V9.7h4
		c0.9,0,1.6-0.7,1.6-1.6c0-0.9-0.7-1.6-1.6-1.6H25.8c-0.9,0-1.6,0.7-1.6,1.6s0.7,1.6,1.6,1.6h4v0.9C13.6,11.5,0.3,25.2,0,42
		c0,1,0.9,1.9,1.9,1.9h6.7v2.5h-6c-1.5,0-2.7,1.2-2.7,2.7v3.7c0,1.5,1.2,2.7,2.7,2.7h57.5c0.9,0,1.6-0.3,2.1-1
		c0.4-0.6,0.6-1.2,0.4-1.9C62.7,52.6,62.7,49.2,62.7,49.2z M31.4,13.7c15.1,0,27.1,11.8,28.2,27h-7H10.3h-7
		C4.3,25.7,16.7,13.7,31.4,13.7z M51,44v1.6h-39V44H51z M59.5,52.3H3.3v-2.5h56.2L59.5,52.3L59.5,52.3z"/>
	<path d="M24,20.3c0.9-0.3,1.3-1.2,1-2.1c-0.3-0.9-1.2-1.3-2.1-1c-8.5,2.5-15.4,9.7-17.3,18C5.5,36.1,6,37,6.9,37.1
		c0.1,0,0.3,0,0.3,0c0.7,0,1.5-0.4,1.6-1.3C10.7,28.6,16.5,22.5,24,20.3z"/>
</g>
</svg>
