<?xml version="1.0" encoding="utf-8"?>
<!-- Generator: Adobe Illustrator 22.0.1, SVG Export Plug-In . SVG Version: 6.00 Build 0)  -->
<svg version="1.1" id="Layer_1" xmlns="http://www.w3.org/2000/svg" xmlns:xlink="http://www.w3.org/1999/xlink" x="0px" y="0px"
	 viewBox="0 0 64 64" style="enable-background:new 0 0 64 64;" xml:space="preserve">
<g>
	<path d="M31.1,37.2c2.7-0.2,3.8-1.5,3.6-3.9c0-0.3-0.1-0.7-0.1-1.1c-1.3,0-2.6,0-3.9,0c-0.1,1.3-0.9,1.9-2,1.9
		c-1.8,0-3.6,0-5.5-0.1c-0.6,0-1-0.2-1.3-0.6s-0.4-0.8-0.4-1.3c0-1.1,0-2.2,0-3.3c0-1.1,0.6-1.8,1.7-1.8c1.8-0.1,3.6-0.1,5.3,0
		c0.6,0.1,1.1,0.5,1.7,0.8c0.2,0.1,0.4,0.2,0.5,0.3c0,0,0,0,0,0c-0.1,0.1-0.1,0.2-0.2,0.3c1.3,0,2.5,0,3.9,0c0.1-0.8,0.1-1.5,0-2.1
		c-0.3-1.8-1.4-2.7-3.6-2.8c-3.2-0.1-6.4-0.1-9.6,0c-2.2,0.1-3.5,1.2-3.7,3.3c-0.1,1.2-0.2,2.4-0.2,3.6c0,1.2,0,2.4,0.1,3.6
		c0.2,2.1,1.3,3.2,3.4,3.3C24.4,37.4,27.8,37.4,31.1,37.2z"/>
	<path d="M51.8,10.1c-1.1-0.6-2.2-1.2-3.3-1.6C60.8,15.1,65.2,30.9,58,43c-0.5,0.8-1,1.5-1.5,2.2c-4.8,6.3-12.4,10.2-20.5,10.2
		c-5.4,0-10.9-1.7-16-5.6c6.1,6.5,17.1,9.4,27,5.8c1.7-0.6,3.3-1.4,4.9-2.4c6.7-4.3,11.8-11.9,11.9-21.1
		C64,23.1,59.2,14.5,51.8,10.1z"/>
	<path d="M41.3,37.4c3.1,0.1,6.1,0.1,9.2,0c0.1,0,0.3,0,0.4,0c1-0.1,2.2-0.5,2.8-1.2c1.3-1.5,1.1-3.5,0.5-5.3
		c-0.5-1.6-2.1-1.7-3.5-1.8c-2.5-0.1-5-0.2-7.5-0.3c-0.7,0-1.5-0.1-1.5-1.1c0-0.5,0.2-0.8,0.5-0.9c0,0,0.1,0,0.2-0.1c0,0,0,0,0.1,0
		c0,0,0.1,0,0.2,0c0,0,0.1,0,0.1,0c0,0,0,0,0,0c0.2,0,0.3,0,0.5,0c0,0,0,0,0,0c1.5,0,3,0,4.6,0c1.1,0,2.4-0.2,2.3,1.5
		c1.5,0,2.8,0,4.1,0c0,0,0,0,0,0c0.2-2.7-0.6-3.9-3.2-4.2c-2.9-0.3-5.8-0.2-8.7-0.2c-1.9,0-3.2,0.3-3.9,1.1s-1,2.1-0.8,4
		c0,0,0,0.1,0,0.1c0.2,1.9,0.8,2.7,2.7,2.9c2.7,0.2,5.4,0.3,8.1,0.5c0.5,0,1,0.1,1.5,0.4c0.8,0.4,0.7,1.3-0.1,1.7
		c-0.5,0.2-1,0.3-1.5,0.3c-1.5,0-3,0-4.5,0c-1.1,0-2-0.1-2.3-1.2c0-0.1-0.1-0.3-0.1-0.5c-1.4,0-2.7,0-4,0c0,0,0,0,0,0l0,0
		C37.2,36.1,38.2,37.4,41.3,37.4z"/>
	<path d="M0.9,37.3c1.4,0,2.7,0,4.2,0c0-1.6,0-3.1,0-4.7c3.3,0,6.4,0,9.6,0c0-1.1,0-2.1,0-3.2c-3.3,0-6.4,0-9.5,0c0-1,0-1.8,0-2.7
		c3.4,0,6.8,0,10.2,0c0-1.1,0-2.1,0-3.1c-4.8,0-9.5,0-14.3,0C0.9,28.2,0.9,32.7,0.9,37.3z"/>
</g>
</svg>
