<?xml version="1.0" encoding="utf-8"?>
<!-- Generator: Adobe Illustrator 22.0.1, SVG Export Plug-In . SVG Version: 6.00 Build 0)  -->
<svg version="1.1" xmlns="http://www.w3.org/2000/svg" xmlns:xlink="http://www.w3.org/1999/xlink" x="0px" y="0px"
	 viewBox="0 0 64 64" style="enable-background:new 0 0 64 64;" xml:space="preserve">
<style type="text/css">
	.st0{fill:#231F20;}
	.st1{fill-rule:evenodd;clip-rule:evenodd;fill:#231F20;}
	.st2{fill:none;stroke:#000000;stroke-width:1.4;stroke-miterlimit:10;}
	.st3{fill:none;stroke:#231F20;stroke-width:2.2;stroke-miterlimit:10;}
	.st4{fill:none;stroke:#231F20;stroke-width:3;stroke-linecap:round;stroke-miterlimit:10;}
	.st5{fill:none;stroke:#231F20;stroke-width:2.2;stroke-linecap:round;stroke-linejoin:round;stroke-miterlimit:10;}
	.st6{fill:none;stroke:#000000;stroke-width:2.2;stroke-linecap:round;stroke-linejoin:round;stroke-miterlimit:10;}
	.st7{fill:none;stroke:#231F20;stroke-width:2.2;stroke-linecap:round;stroke-miterlimit:10;}
	.st8{fill:none;stroke:#000000;stroke-width:2.2;stroke-miterlimit:10;}
	.st9{fill:none;stroke:#000000;stroke-width:2;stroke-linecap:round;stroke-linejoin:round;stroke-miterlimit:10;}
	.st10{fill:none;stroke:#000000;stroke-width:1.8;stroke-linejoin:round;stroke-miterlimit:10;}
	
		.st11{fill-rule:evenodd;clip-rule:evenodd;fill:none;stroke:#000000;stroke-width:2.2;stroke-linecap:round;stroke-linejoin:round;stroke-miterlimit:10;}
	.st12{fill:#221F1F;}
	.st13{fill:none;stroke:#000000;stroke-width:1.8;stroke-miterlimit:10;}
	.st14{fill:none;stroke:#000000;stroke-width:1.7;stroke-linecap:round;stroke-linejoin:round;stroke-miterlimit:10;}
	.st15{fill:none;stroke:#000000;stroke-width:3;stroke-linecap:round;stroke-linejoin:round;stroke-miterlimit:10;}
	.st16{fill:none;stroke:#000000;stroke-width:1.8;stroke-linecap:round;stroke-linejoin:round;stroke-miterlimit:10;}
	.st17{fill:none;stroke:#000000;stroke-width:1.6;stroke-linecap:round;stroke-linejoin:round;stroke-miterlimit:10;}
	.st18{fill:none;stroke:#231F20;stroke-width:2;stroke-miterlimit:10;}
	.st19{fill:#0A1423;}
	.st20{fill:#F4831F;}
	.st21{fill:none;stroke:#000000;stroke-width:0.4736;stroke-miterlimit:10;}
	.st22{fill:none;stroke:#000000;stroke-width:0.431;stroke-miterlimit:10;}
	.st23{fill-rule:evenodd;clip-rule:evenodd;fill:none;stroke:#000000;stroke-width:0.6314;stroke-miterlimit:10;}
	.st24{fill-rule:evenodd;clip-rule:evenodd;fill:none;stroke:#231F20;stroke-width:0.4567;stroke-miterlimit:10;}
	.st25{fill-rule:evenodd;clip-rule:evenodd;fill:none;stroke:#231F20;stroke-width:0.2284;stroke-miterlimit:10;}
	.st26{fill:none;stroke:#000000;stroke-width:0.419;stroke-miterlimit:10;}
	.st27{fill:none;stroke:#000000;stroke-width:0.3813;stroke-miterlimit:10;}
	.st28{fill:#FFFFFF;stroke:#000000;stroke-width:0.419;stroke-miterlimit:10;}
	.st29{fill-rule:evenodd;clip-rule:evenodd;fill:none;stroke:#000000;stroke-width:0.5586;stroke-miterlimit:10;}
	.st30{fill-rule:evenodd;clip-rule:evenodd;fill:#FFFFFF;}
	.st31{fill-rule:evenodd;clip-rule:evenodd;fill:#FFFFFF;stroke:#231F20;stroke-width:0.2682;stroke-miterlimit:10;}
	.st32{fill-rule:evenodd;clip-rule:evenodd;}
	.st33{fill:none;stroke:#000000;stroke-width:2;stroke-miterlimit:10;}
	.st34{fill:#FFFFFF;}
	.st35{opacity:0.85;}
</style>
<g id="Layer_1">
	<path id="Dribbble" class="st0" d="M52.3,24.6c-0.5-1.3-1.2-2.6-2-3.7c-0.8-1.2-1.7-2.3-2.7-3.3c-1-1-2.1-1.9-3.3-2.7
		c-1.2-0.8-2.4-1.5-3.7-2c-1.3-0.6-2.7-1-4.1-1.3c-1.4-0.3-2.9-0.5-4.4-0.5c-1.5,0-3,0.2-4.4,0.5c-1.4,0.3-2.8,0.7-4.1,1.3
		c-1.3,0.6-2.6,1.2-3.7,2c-1.2,0.8-2.3,1.7-3.3,2.7c-1,1-1.9,2.1-2.7,3.3c-0.8,1.2-1.5,2.4-2,3.7c-0.6,1.3-1,2.7-1.3,4.1
		c-0.3,1.4-0.4,2.9-0.4,4.4c0,1.5,0.2,3,0.4,4.4c0.3,1.4,0.7,2.8,1.3,4.1c0.5,1.3,1.2,2.6,2,3.7c0.8,1.2,1.7,2.3,2.7,3.3
		c1,1,2.1,1.9,3.3,2.7c1.2,0.8,2.4,1.5,3.7,2c1.3,0.6,2.7,1,4.1,1.3c1.4,0.3,2.9,0.5,4.4,0.5c1.5,0,3-0.2,4.4-0.5
		c1.4-0.3,2.8-0.7,4.1-1.3c1.3-0.6,2.6-1.2,3.7-2c1.2-0.8,2.3-1.7,3.3-2.7c1-1,1.9-2.1,2.7-3.3c0.8-1.2,1.5-2.4,2-3.7
		c0.6-1.3,1-2.7,1.3-4.1c0.3-1.4,0.4-2.9,0.4-4.4c0-1.5-0.2-3-0.4-4.4C53.3,27.3,52.8,26,52.3,24.6z M32,14.4
		c4.8,0,9.1,1.8,12.4,4.7c0,0.1-2.7,4.1-9.8,6.8c-3.2-5.9-6.7-10.6-7-11C29,14.6,30.5,14.4,32,14.4z M27.5,14.9
		C27.5,14.9,27.5,14.9,27.5,14.9C27.5,14.9,27.5,15,27.5,14.9C27.5,15,27.5,14.9,27.5,14.9z M24,16.2c0.3,0.3,3.7,5,7,10.8
		c-9,2.4-16.9,2.3-17.4,2.3C14.8,23.5,18.7,18.7,24,16.2z M18,45.7c-3-3.3-4.8-7.7-4.8-12.6c0-0.2,0-0.4,0-0.6
		c0.3,0,9.6,0.2,19.3-2.7c0.5,1.1,1.1,2.1,1.5,3.2c-0.2,0.1-0.5,0.1-0.7,0.2C23.2,36.6,18,45.7,18,45.7C18,45.7,18,45.7,18,45.7z
		 M32,52c-4.4,0-8.5-1.5-11.7-4.1c-0.1-0.1-0.1-0.1-0.2-0.2c0.1,0.1,0.2,0.1,0.2,0.2c0.1,0.1,0.2,0.1,0.2,0.1s3.6-7.9,14.7-11.7
		c0,0,0.1,0,0.1,0c2.6,6.9,3.7,12.6,4,14.3C37.1,51.4,34.6,52,32,52z M42.5,48.8c-0.2-1.1-1.2-6.6-3.7-13.4c6.1-1,11.3,0.7,11.7,0.8
		C49.7,41.4,46.7,45.9,42.5,48.8z M37.7,32.4c-0.1-0.3-0.3-0.6-0.4-1c-0.4-0.9-0.8-1.8-1.2-2.7c7.4-3,10.4-7.4,10.5-7.4
		c2.6,3.2,4.2,7.3,4.3,11.7C50.5,32.9,44.2,31.6,37.7,32.4z"/>
</g>
<g id="Layer_2">
</g>
</svg>
