<?xml version="1.0" encoding="utf-8"?>
<!-- Generator: Adobe Illustrator 22.0.1, SVG Export Plug-In . SVG Version: 6.00 Build 0)  -->
<svg version="1.1" xmlns="http://www.w3.org/2000/svg" xmlns:xlink="http://www.w3.org/1999/xlink" x="0px" y="0px"
	 viewBox="0 0 64 64" style="enable-background:new 0 0 64 64;" xml:space="preserve">
<style type="text/css">
	.st0{fill:#231F20;}
	.st1{fill-rule:evenodd;clip-rule:evenodd;fill:#231F20;}
	.st2{fill:none;stroke:#000000;stroke-width:1.4;stroke-miterlimit:10;}
	.st3{fill:none;stroke:#231F20;stroke-width:2.2;stroke-miterlimit:10;}
	.st4{fill:none;stroke:#231F20;stroke-width:3;stroke-linecap:round;stroke-miterlimit:10;}
	.st5{fill:none;stroke:#231F20;stroke-width:2.2;stroke-linecap:round;stroke-linejoin:round;stroke-miterlimit:10;}
	.st6{fill:none;stroke:#000000;stroke-width:2.2;stroke-linecap:round;stroke-linejoin:round;stroke-miterlimit:10;}
	.st7{fill:none;stroke:#231F20;stroke-width:2.2;stroke-linecap:round;stroke-miterlimit:10;}
	.st8{fill:none;stroke:#000000;stroke-width:2.2;stroke-miterlimit:10;}
	.st9{fill:none;stroke:#000000;stroke-width:2;stroke-linecap:round;stroke-linejoin:round;stroke-miterlimit:10;}
	.st10{fill:none;stroke:#000000;stroke-width:1.8;stroke-linejoin:round;stroke-miterlimit:10;}
	
		.st11{fill-rule:evenodd;clip-rule:evenodd;fill:none;stroke:#000000;stroke-width:2.2;stroke-linecap:round;stroke-linejoin:round;stroke-miterlimit:10;}
	.st12{fill:#221F1F;}
	.st13{fill:none;stroke:#000000;stroke-width:1.8;stroke-miterlimit:10;}
	.st14{fill:none;stroke:#000000;stroke-width:1.7;stroke-linecap:round;stroke-linejoin:round;stroke-miterlimit:10;}
	.st15{fill:none;stroke:#000000;stroke-width:3;stroke-linecap:round;stroke-linejoin:round;stroke-miterlimit:10;}
	.st16{fill:none;stroke:#000000;stroke-width:1.8;stroke-linecap:round;stroke-linejoin:round;stroke-miterlimit:10;}
	.st17{fill:none;stroke:#000000;stroke-width:1.6;stroke-linecap:round;stroke-linejoin:round;stroke-miterlimit:10;}
	.st18{fill:none;stroke:#231F20;stroke-width:2;stroke-miterlimit:10;}
	.st19{fill:#0A1423;}
	.st20{fill:#F4831F;}
	.st21{fill:none;stroke:#000000;stroke-width:0.4736;stroke-miterlimit:10;}
	.st22{fill:none;stroke:#000000;stroke-width:0.431;stroke-miterlimit:10;}
	.st23{fill-rule:evenodd;clip-rule:evenodd;fill:none;stroke:#000000;stroke-width:0.6314;stroke-miterlimit:10;}
	.st24{fill-rule:evenodd;clip-rule:evenodd;fill:none;stroke:#231F20;stroke-width:0.4567;stroke-miterlimit:10;}
	.st25{fill-rule:evenodd;clip-rule:evenodd;fill:none;stroke:#231F20;stroke-width:0.2284;stroke-miterlimit:10;}
	.st26{fill:none;stroke:#000000;stroke-width:0.419;stroke-miterlimit:10;}
	.st27{fill:none;stroke:#000000;stroke-width:0.3813;stroke-miterlimit:10;}
	.st28{fill:#FFFFFF;stroke:#000000;stroke-width:0.419;stroke-miterlimit:10;}
	.st29{fill-rule:evenodd;clip-rule:evenodd;fill:none;stroke:#000000;stroke-width:0.5586;stroke-miterlimit:10;}
	.st30{fill-rule:evenodd;clip-rule:evenodd;fill:#FFFFFF;}
	.st31{fill-rule:evenodd;clip-rule:evenodd;fill:#FFFFFF;stroke:#231F20;stroke-width:0.2682;stroke-miterlimit:10;}
	.st32{fill-rule:evenodd;clip-rule:evenodd;}
	.st33{fill:none;stroke:#000000;stroke-width:2;stroke-miterlimit:10;}
	.st34{fill:#FFFFFF;}
	.st35{opacity:0.85;}
</style>
<g id="Layer_1">
	<g id="Dribbble_7_">
		<g>
			<path id="Dribbble_1_" class="st0" d="M45.7,26.1c-0.4-0.9-0.8-1.7-1.4-2.5c-0.5-0.8-1.1-1.5-1.8-2.2c-0.7-0.7-1.4-1.3-2.2-1.8
				c-0.8-0.5-1.6-1-2.5-1.4c-0.9-0.4-1.8-0.7-2.8-0.9c-1-0.2-2-0.3-3-0.3c-1,0-2,0.1-3,0.3c-1,0.2-1.9,0.5-2.8,0.9
				c-0.9,0.4-1.7,0.8-2.5,1.4c-0.8,0.5-1.5,1.1-2.2,1.8c-0.7,0.7-1.3,1.4-1.8,2.2c-0.5,0.8-1,1.6-1.4,2.5c-0.4,0.9-0.7,1.8-0.9,2.8
				c-0.2,1-0.3,2-0.3,3c0,1,0.1,2,0.3,3c0.2,1,0.5,1.9,0.9,2.8c0.4,0.9,0.8,1.7,1.4,2.5c0.5,0.8,1.1,1.5,1.8,2.2
				c0.7,0.7,1.4,1.3,2.2,1.8c0.8,0.5,1.6,1,2.5,1.4c0.9,0.4,1.8,0.7,2.8,0.9c1,0.2,2,0.3,3,0.3c1,0,2-0.1,3-0.3
				c1-0.2,1.9-0.5,2.8-0.9c0.9-0.4,1.7-0.8,2.5-1.4c0.8-0.5,1.5-1.1,2.2-1.8c0.7-0.7,1.3-1.4,1.8-2.2c0.5-0.8,1-1.6,1.4-2.5
				c0.4-0.9,0.7-1.8,0.9-2.8c0.2-1,0.3-2,0.3-3c0-1-0.1-2-0.3-3C46.4,28,46.1,27,45.7,26.1z M32,19.2c3.2,0,6.1,1.2,8.4,3.2
				c0,0-1.8,2.8-6.6,4.6c-2.2-4-4.6-7.2-4.7-7.4C30,19.3,31,19.2,32,19.2z M29,19.6C29,19.6,29,19.6,29,19.6
				C29,19.6,28.9,19.6,29,19.6C28.9,19.6,28.9,19.6,29,19.6z M26.6,20.4c0.2,0.2,2.5,3.4,4.7,7.3c-6.1,1.6-11.4,1.6-11.7,1.6
				C20.4,25.4,23,22.1,26.6,20.4z M22.6,40.4c-2-2.3-3.3-5.2-3.3-8.5c0-0.1,0-0.3,0-0.4c0.2,0,6.5,0.1,13-1.8c0.4,0.7,0.7,1.4,1,2.2
				c-0.2,0-0.3,0.1-0.5,0.2C26,34.2,22.6,40.4,22.6,40.4C22.6,40.4,22.6,40.4,22.6,40.4z M32,44.6c-3,0-5.8-1-7.9-2.8
				c0,0-0.1-0.1-0.2-0.1c0.1,0.1,0.1,0.1,0.2,0.1c0.1,0.1,0.1,0.1,0.1,0.1s2.4-5.3,10-7.9c0,0,0.1,0,0.1,0c1.8,4.6,2.5,8.5,2.7,9.6
				C35.4,44.3,33.8,44.6,32,44.6z M39.1,42.4c-0.1-0.8-0.8-4.5-2.5-9.1c4.1-0.7,7.7,0.5,7.9,0.6C44,37.5,41.9,40.5,39.1,42.4z
				 M35.9,31.4c-0.1-0.2-0.2-0.4-0.3-0.7c-0.3-0.6-0.5-1.2-0.8-1.8c5-2,7-5,7.1-5c1.8,2.2,2.9,4.9,2.9,7.9
				C44.5,31.8,40.2,30.8,35.9,31.4z"/>
		</g>
		<path class="st0" d="M32,64C14.4,64,0,49.6,0,32S14.4,0,32,0s32,14.4,32,32S49.6,64,32,64z M32,2.4C15.7,2.4,2.4,15.7,2.4,32
			S15.7,61.6,32,61.6S61.6,48.3,61.6,32S48.3,2.4,32,2.4z"/>
	</g>
</g>
<g id="Layer_2">
</g>
</svg>
