<?xml version="1.0" encoding="utf-8"?>
<!-- Generator: Adobe Illustrator 22.0.1, SVG Export Plug-In . SVG Version: 6.00 Build 0)  -->
<svg version="1.1" id="Layer_1" xmlns="http://www.w3.org/2000/svg" xmlns:xlink="http://www.w3.org/1999/xlink" x="0px" y="0px"
	 viewBox="0 0 64 64" style="enable-background:new 0 0 64 64;" xml:space="preserve">
<g>
	<path d="M32,0C14.4,0,0,14.4,0,32s14.4,32,32,32s32-14.4,32-32S49.6,0,32,0z M32,61.6C15.7,61.6,2.4,48.3,2.4,32S15.7,2.4,32,2.4
		S61.6,15.7,61.6,32S48.3,61.6,32,61.6z"/>
	<path d="M48.6,22c-0.1-0.7-0.8-1.2-1.4-1.2H23.9v-0.6h3.3c1,0,1.8-0.8,1.8-1.8v-2.7c0-1-0.8-1.8-1.8-1.8h-8.8c-1,0-1.8,0.8-1.8,1.8
		v2.7c0,1,0.8,1.8,1.8,1.8h3.3v0.6h-4.8c-0.7,0-1.3,0.5-1.4,1.2l-2.8,19.3l0,0.2c0,0.2,0,0.3,0.1,0.5c-0.1,0.2-0.1,0.3-0.1,0.5v5.9
		c0,1,0.8,1.8,1.8,1.8h35c0.9,0,1.6-0.6,1.9-1.5l0-6.2c0-0.2,0-0.4-0.1-0.6l0.1-0.3L48.6,22z M18.8,16.1h8V18h-8V16.1z M17.6,23
		h28.9l2.6,17.6H15L17.6,23z M49.2,47.9H14.9v-5.1h34.3V47.9z"/>
	<path d="M43,24.8H20.9c-1.3,0-2.4,1.1-2.4,2.4v1.5c0,1.3,1.1,2.4,2.4,2.4h22.2c1.3,0,2.3-1.1,2.3-2.4v-1.5
		C45.4,25.9,44.3,24.8,43,24.8z M43.2,28.7c0,0.1,0,0.2-0.1,0.2H20.9c-0.1,0-0.2-0.1-0.2-0.2v-1.5c0-0.1,0.1-0.2,0.2-0.2H43
		c0.1,0,0.2,0.1,0.2,0.2V28.7z"/>
	<path d="M27.9,46.5h9.6c0.6,0,1.1-0.5,1.1-1.1s-0.5-1.1-1.1-1.1h-9.6c-0.6,0-1.1,0.5-1.1,1.1S27.3,46.5,27.9,46.5z"/>
</g>
<g id="Layer_2_1_">
</g>
</svg>
