<?xml version="1.0" encoding="utf-8"?>
<!-- Generator: Adobe Illustrator 22.0.1, SVG Export Plug-In . SVG Version: 6.00 Build 0)  -->
<svg version="1.1" xmlns="http://www.w3.org/2000/svg" xmlns:xlink="http://www.w3.org/1999/xlink" x="0px" y="0px"
	 viewBox="0 0 64 64" style="enable-background:new 0 0 64 64;" xml:space="preserve">
<style type="text/css">
	.st0{fill:#231F20;}
	.st1{fill-rule:evenodd;clip-rule:evenodd;fill:#231F20;}
	.st2{fill:none;stroke:#000000;stroke-width:1.4;stroke-miterlimit:10;}
	.st3{fill:none;stroke:#231F20;stroke-width:2.2;stroke-miterlimit:10;}
	.st4{fill:none;stroke:#231F20;stroke-width:3;stroke-linecap:round;stroke-miterlimit:10;}
	.st5{fill:none;stroke:#231F20;stroke-width:2.2;stroke-linecap:round;stroke-linejoin:round;stroke-miterlimit:10;}
	.st6{fill:none;stroke:#000000;stroke-width:2.2;stroke-linecap:round;stroke-linejoin:round;stroke-miterlimit:10;}
	.st7{fill:none;stroke:#231F20;stroke-width:2.2;stroke-linecap:round;stroke-miterlimit:10;}
	.st8{fill:none;stroke:#000000;stroke-width:2.2;stroke-miterlimit:10;}
	.st9{fill:none;stroke:#000000;stroke-width:2;stroke-linecap:round;stroke-linejoin:round;stroke-miterlimit:10;}
	.st10{fill:none;stroke:#000000;stroke-width:1.8;stroke-linejoin:round;stroke-miterlimit:10;}
	
		.st11{fill-rule:evenodd;clip-rule:evenodd;fill:none;stroke:#000000;stroke-width:2.2;stroke-linecap:round;stroke-linejoin:round;stroke-miterlimit:10;}
	.st12{fill:#221F1F;}
	.st13{fill:none;stroke:#000000;stroke-width:1.8;stroke-miterlimit:10;}
	.st14{fill:none;stroke:#000000;stroke-width:1.7;stroke-linecap:round;stroke-linejoin:round;stroke-miterlimit:10;}
	.st15{fill:none;stroke:#000000;stroke-width:3;stroke-linecap:round;stroke-linejoin:round;stroke-miterlimit:10;}
	.st16{fill:none;stroke:#000000;stroke-width:1.8;stroke-linecap:round;stroke-linejoin:round;stroke-miterlimit:10;}
	.st17{fill:none;stroke:#000000;stroke-width:1.6;stroke-linecap:round;stroke-linejoin:round;stroke-miterlimit:10;}
	.st18{fill:none;stroke:#231F20;stroke-width:2;stroke-miterlimit:10;}
	.st19{fill:#0A1423;}
	.st20{fill:#F4831F;}
	.st21{fill:none;stroke:#000000;stroke-width:0.4736;stroke-miterlimit:10;}
	.st22{fill:none;stroke:#000000;stroke-width:0.431;stroke-miterlimit:10;}
	.st23{fill-rule:evenodd;clip-rule:evenodd;fill:none;stroke:#000000;stroke-width:0.6314;stroke-miterlimit:10;}
	.st24{fill-rule:evenodd;clip-rule:evenodd;fill:none;stroke:#231F20;stroke-width:0.4567;stroke-miterlimit:10;}
	.st25{fill-rule:evenodd;clip-rule:evenodd;fill:none;stroke:#231F20;stroke-width:0.2284;stroke-miterlimit:10;}
	.st26{fill:none;stroke:#000000;stroke-width:0.419;stroke-miterlimit:10;}
	.st27{fill:none;stroke:#000000;stroke-width:0.3813;stroke-miterlimit:10;}
	.st28{fill:#FFFFFF;stroke:#000000;stroke-width:0.419;stroke-miterlimit:10;}
	.st29{fill-rule:evenodd;clip-rule:evenodd;fill:none;stroke:#000000;stroke-width:0.5586;stroke-miterlimit:10;}
	.st30{fill-rule:evenodd;clip-rule:evenodd;fill:#FFFFFF;}
	.st31{fill-rule:evenodd;clip-rule:evenodd;fill:#FFFFFF;stroke:#231F20;stroke-width:0.2682;stroke-miterlimit:10;}
	.st32{fill-rule:evenodd;clip-rule:evenodd;}
	.st33{fill:none;stroke:#000000;stroke-width:2;stroke-miterlimit:10;}
	.st34{fill:#FFFFFF;}
	.st35{opacity:0.85;}
</style>
<g id="Layer_1">
	<g id="Behance_5_">
		<path class="st0" d="M25.5,30.2h-4.9V26H25c0.9,0,1.7-0.1,2.3,0.1c0.7,0.3,1,0.8,1,1.7c0,0.8-0.3,1.5-0.8,1.8
			C27,29.9,26.3,30.2,25.5,30.2z"/>
		<path class="st0" d="M28.6,35.3c0,1.2-0.4,1.9-1.3,2.3c-0.5,0.2-1.1,0.3-1.9,0.3h-4.9v-5.1h4.9c0.8,0,1.5,0.2,1.9,0.4
			C28.2,33.5,28.6,34.3,28.6,35.3z"/>
		<path class="st0" d="M32,0C14.3,0,0,14.3,0,32c0,17.7,14.3,32,32,32c17.7,0,32-14.3,32-32C64,14.3,49.7,0,32,0z M36.6,23.5H45V26
			h-8.4V23.5z M31.8,38.6c-0.4,0.6-0.8,1.1-1.3,1.5c-0.6,0.5-1.3,0.8-2.2,0.9c-0.8,0.2-1.7,0.2-2.7,0.2h-8.4V22.6h9
			c2.3,0,4,0.6,4.9,1.9c0.6,0.8,0.9,1.7,0.9,2.8c0,1.1-0.3,2-0.9,2.7c-0.3,0.4-0.8,0.7-1.4,1.1c1,0.4,1.7,0.9,2.2,1.7
			c0.5,0.8,0.7,1.7,0.7,2.7C32.7,36.7,32.4,37.7,31.8,38.6z M47.9,35.3H37.6c0.1,1.7,0.5,2.4,1.5,2.9c0.6,0.4,1.2,0.5,2,0.5
			c0.8,0,1.5-0.3,2-0.7c0.3-0.2,0.5-0.2,0.8-1.1h3.8c-0.1,0.8-0.6,1.8-1.4,2.6c-1.3,1.3-3,2.1-5.3,2.1c-1.9,0-3.5-0.6-5-1.7
			c-1.4-1.1-2.2-3-2.2-5.6c0-2.4,0.6-4.3,1.9-5.5c1.3-1.3,3-1.9,5-1.9c1.2,0,2.3,0.2,3.3,0.6c1,0.4,1.8,1.1,2.4,2.1
			c0.6,0.8,1,1.8,1.1,2.9C47.9,33.2,47.9,34.4,47.9,35.3z M40.9,29.9c-0.9,0-1.7,0.2-2.2,0.8c-0.5,0.5-0.9,1.2-1,2.1h6.4
			c-0.1-0.8-0.4-1.6-1-2.1C42.5,30.1,41.8,29.9,40.9,29.9z"/>
	</g>
</g>
<g id="Layer_2">
</g>
</svg>
