<?xml version="1.0" encoding="utf-8"?>
<!-- Generator: Adobe Illustrator 22.0.1, SVG Export Plug-In . SVG Version: 6.00 Build 0)  -->
<svg version="1.1" id="Layer_1" xmlns="http://www.w3.org/2000/svg" xmlns:xlink="http://www.w3.org/1999/xlink" x="0px" y="0px"
	 viewBox="0 0 64 64" style="enable-background:new 0 0 64 64;" xml:space="preserve">
<g>
	<path d="M32,0C14.4,0,0,14.4,0,32s14.4,32,32,32s32-14.4,32-32S49.6,0,32,0z M32,61.6C15.7,61.6,2.4,48.3,2.4,32S15.7,2.4,32,2.4
		S61.6,15.7,61.6,32S48.3,61.6,32,61.6z"/>
	<path d="M31,12.3c-7,0.4-12.6,6.1-13,13.2c-0.2,3.7,1,7.3,3.3,10c1.1,1.3,2.4,4,2.9,9.1c0,0.7,0.6,1.3,1.4,1.3h13.1
		c0.7,0,1.4-0.6,1.4-1.4c0-0.5,0-0.9,0.1-1.3c0,0,0-0.1,0-0.1c0.1-1.4,0.3-2.7,0.7-3.8c0.2-0.7,0.5-1.4,0.7-2
		c0.3-0.7,0.7-1.3,1.1-1.9c0,0,0,0,0-0.1c0.2-0.3,0.4-0.6,0.6-0.8c0.3-0.4,0.7-0.9,0.9-1.4c0.6-0.9,0.9-1.9,1.2-2.8
		c0.5-1.5,0.6-2.9,0.6-4c0-3.9-1.6-7.6-4.5-10.2C38.7,13.4,34.9,12,31,12.3z M43.4,29.7c-0.3,0.9-0.6,1.7-1,2.4c0,0,0,0.1-0.1,0.1
		c-0.2,0.4-0.4,0.7-0.7,1.1c-0.2,0.3-0.5,0.6-0.7,1c-0.5,0.7-0.9,1.4-1.3,2.2c-0.3,0.7-0.6,1.5-0.8,2.3c-0.4,1.2-0.6,2.6-0.7,4.2
		c-0.1,0.3-0.1,0.6-0.1,0.8H26.3c-0.4-4.2-1.5-7.5-3.3-9.6c-2-2.3-3-5.3-2.8-8.4c0.4-6,5.1-10.8,11-11.2c3.3-0.2,6.4,0.9,8.9,3.2
		c2.4,2.2,3.8,5.4,3.8,8.6C43.8,27.7,43.7,28.7,43.4,29.7z"/>
	<path d="M37.4,46.7H26.2c-0.6,0-1.1,0.5-1.1,1.1s0.5,1.1,1.1,1.1h11.2c0.6,0,1.1-0.5,1.1-1.1S38,46.7,37.4,46.7z"/>
	<path d="M35,49.5h-6.3c-0.6,0-1.1,0.5-1.1,1.1s0.5,1.1,1.1,1.1H35c0.6,0,1.1-0.5,1.1-1.1S35.6,49.5,35,49.5z"/>
	<path d="M33.7,16.8c-0.6-0.1-1.2,0.2-1.3,0.8c-0.1,0.6,0.2,1.2,0.8,1.3c1.7,0.4,3.3,1.2,4.4,2.5c0.9,1,1.6,2.1,1.8,3.4
		c0.1,0.5,0.6,0.9,1.1,0.9c0.1,0,0.2,0,0.2,0c0.6-0.1,1-0.7,0.8-1.3c-0.4-1.6-1.2-3.1-2.4-4.4C37.8,18.4,35.9,17.3,33.7,16.8z"/>
</g>
<g id="Layer_2_1_">
</g>
</svg>
