<?xml version="1.0" encoding="utf-8"?>
<!-- Generator: Adobe Illustrator 22.0.1, SVG Export Plug-In . SVG Version: 6.00 Build 0)  -->
<svg version="1.1" id="Layer_1" xmlns="http://www.w3.org/2000/svg" xmlns:xlink="http://www.w3.org/1999/xlink" x="0px" y="0px"
	 viewBox="0 0 64 64" style="enable-background:new 0 0 64 64;" xml:space="preserve">
<g>
	<path d="M32,0C14.4,0,0,14.4,0,32s14.4,32,32,32s32-14.4,32-32S49.6,0,32,0z M32,61.6C15.7,61.6,2.4,48.3,2.4,32S15.7,2.4,32,2.4
		S61.6,15.7,61.6,32S48.3,61.6,32,61.6z"/>
	<path d="M49.5,19.1c-2.3,0-4.2,1.9-4.2,4.2c0,1,0.4,2,1,2.7l-4.8,7.7c-0.6-0.3-1.3-0.5-2-0.5c-1.4,0-2.7,0.7-3.4,1.8l-6.8-3.4
		c0.1-0.4,0.2-0.8,0.2-1.3c0-2.3-1.9-4.2-4.2-4.2c-2.3,0-4.2,1.9-4.2,4.2c0,0.6,0.1,1.2,0.4,1.7l-5,5c-0.6-0.3-1.2-0.5-1.9-0.5
		c-2.3,0-4.2,1.9-4.2,4.2c0,2.3,1.9,4.2,4.2,4.2s4.2-1.9,4.2-4.2c0-0.8-0.2-1.6-0.6-2.2l4.8-4.8c0.7,0.5,1.5,0.8,2.4,0.8
		c1.1,0,2-0.4,2.7-1l7.3,3.6c0,0.1,0,0.2,0,0.3c0,2.3,1.9,4.2,4.2,4.2s4.2-1.9,4.2-4.2c0-0.8-0.2-1.5-0.6-2.1l5-8
		c0.4,0.2,0.9,0.3,1.4,0.3c2.3,0,4.2-1.9,4.2-4.2C53.7,21,51.8,19.1,49.5,19.1z M14.5,42.7c-1.1,0-2-0.9-2-2c0-1.1,0.9-2,2-2
		s2,0.9,2,2C16.5,41.8,15.6,42.7,14.5,42.7z M25.3,32.3c-1.1,0-2-0.9-2-2c0-1.1,0.9-2,2-2c1.1,0,2,0.9,2,2
		C27.3,31.4,26.4,32.3,25.3,32.3z M39.5,39.4c-1.1,0-2-0.9-2-2c0-1.1,0.9-2,2-2s2,0.9,2,2C41.5,38.5,40.6,39.4,39.5,39.4z
		 M49.5,25.3c-1.1,0-2-0.9-2-2c0-1.1,0.9-2,2-2s2,0.9,2,2C51.5,24.4,50.6,25.3,49.5,25.3z"/>
</g>
<g id="Layer_2_1_">
</g>
</svg>
