<?xml version="1.0" encoding="utf-8"?>
<!-- Generator: Adobe Illustrator 22.0.1, SVG Export Plug-In . SVG Version: 6.00 Build 0)  -->
<svg version="1.1" id="Layer_1" xmlns="http://www.w3.org/2000/svg" xmlns:xlink="http://www.w3.org/1999/xlink" x="0px" y="0px"
	 viewBox="0 0 64 64" style="enable-background:new 0 0 64 64;" xml:space="preserve">
<path d="M62.8,13.4l-8.7,1.4c-0.8,0.1-1.1,1.1-0.6,1.7l2.2,2.6c0,0,0,0-0.1,0L32.2,42.2l-9.6-11c-0.2-0.2-0.5-0.4-0.8-0.4
	c-0.3,0-0.6,0.1-0.8,0.3L0.3,50.5c-0.4,0.4-0.5,1.1,0,1.6c0.2,0.2,0.5,0.3,0.8,0.3c0.3,0,0.5-0.1,0.8-0.3l19.8-18.6l9.6,11
	c0.2,0.2,0.5,0.4,0.8,0.4c0.3,0,0.6-0.1,0.8-0.3l24.2-23.8l2.3,2.7c0.5,0.6,1.5,0.4,1.7-0.3l2.8-8.3C64.2,14,63.6,13.2,62.8,13.4z"
	/>
<g id="Layer_2_1_">
</g>
</svg>
