<?xml version="1.0" encoding="utf-8"?>
<!-- Generator: Adobe Illustrator 22.0.1, SVG Export Plug-In . SVG Version: 6.00 Build 0)  -->
<svg version="1.1" id="Layer_1" xmlns="http://www.w3.org/2000/svg" xmlns:xlink="http://www.w3.org/1999/xlink" x="0px" y="0px"
	 viewBox="0 0 64 64" style="enable-background:new 0 0 64 64;" xml:space="preserve">
<g>
	<path d="M32.1,0C14.4,0,0,14.2,0,31.9C0,49.6,14.3,64,31.9,64C49.6,64,64,49.8,64,32.1C64,14.4,49.8,0,32.1,0z M31.9,61.5
		c-16.3,0-29.6-13.3-29.5-29.6C2.5,15.6,15.8,2.4,32.1,2.4C48.4,2.5,61.6,15.8,61.5,32C61.5,48.3,48.2,61.5,31.9,61.5z"/>
	<path d="M54.4,29.2l-6.5-10.4c-0.2-0.2-0.4-0.4-0.7-0.5c-0.3-0.1-0.6,0-0.8,0.1l-4.4,2.8c-0.5,0.3-0.7,1-0.4,1.5L40.7,23
		c-1-0.3-4.1-1.1-6.4-1.1c-2.2,0-6.3,0.7-7.7,1.9c0,0-0.1,0-0.1,0c-2.2,0.3-3.8-1-3.8-1c-0.1,0-0.1-0.1-0.2-0.1l0.1-0.1
		c0.3-0.5,0.2-1.2-0.3-1.5L18,18.4c-0.2-0.2-0.5-0.2-0.8-0.1c-0.3,0.1-0.5,0.2-0.7,0.5l-7,11.1c-0.2,0.2-0.2,0.5-0.1,0.8
		c0.1,0.3,0.2,0.5,0.5,0.7L14,34c0.2,0.1,0.4,0.2,0.6,0.2c0.4,0,0.7-0.2,0.9-0.5l0.2-0.3l2.4,3.1c0,0.1,0.1,0.1,0.2,0.1l-0.6,1
		c-0.6,1-0.3,2.4,0.6,3c0,0,0,0,0,0c0.4,0.2,0.8,0.4,1.2,0.4c0,0,0,0,0,0c0,0.2,0,0.3,0,0.5c0.1,0.6,0.5,1.1,0.9,1.3l0.4,0.3
		c0,0,0,0,0,0c0.4,0.2,0.8,0.4,1.2,0.4c0.2,0,0.3,0,0.5-0.1c0,0,0,0,0,0c0.2,0.4,0.4,0.7,0.7,0.9l0.4,0.3c0,0,0.1,0,0.1,0.1
		c0.4,0.2,0.8,0.3,1.2,0.3c0.4,0,0.7-0.1,1-0.2c0.2,0.3,0.4,0.6,0.7,0.8c0,0,0,0,0,0c0.4,0.2,0.8,0.3,1.2,0.3c0.6,0,1.1-0.2,1.6-0.7
		c0.1,0,0.1,0.1,0.2,0.1l4.7,0.5c0.1,0,0.1,0,0.2,0c0.5,0,1.3-0.2,2.3-1.2h0.4c0,0,0,0,0.1,0c0,0,0,0,0,0c0,0,0,0,0,0
		c0.2,0,1.5-0.1,2.4-1.2c0.3-0.4,0.5-0.9,0.6-1.4c0.5,0,1.1-0.1,1.6-0.5c0.4-0.3,0.9-0.9,1.1-2c0.5-0.1,1.5-0.3,2.2-1.1
		c0.3-0.3,0.6-0.9,0.6-1.7l2.8-3.2c0.1,0,0.2,0.1,0.3,0.1c0.1,0,0.2,0,0.2,0c0.2,0,0.4-0.1,0.6-0.2l4.4-2.8
		C54.6,30.4,54.7,29.7,54.4,29.2z M14.3,31.6L12,30.1l5.8-9.2l2.3,1.4L14.3,31.6z M19.1,39.2c-0.2-0.2-0.3-0.6-0.2-0.8l1.6-2.4
		c0.1-0.1,0.2-0.2,0.4-0.2c0.2,0,0.3,0,0.4,0.1c0.1,0.1,0.2,0.2,0.2,0.4c0,0.2,0,0.3-0.1,0.4l-1.6,2.4c-0.1,0.1-0.2,0.2-0.3,0.2
		C19.5,39.4,19.3,39.3,19.1,39.2z M22.2,41.8c-0.2,0-0.3,0-0.5-0.1l-0.4-0.3c-0.1-0.1-0.2-0.2-0.2-0.4c0-0.2,0-0.3,0.1-0.4l3-4.5
		c0.2-0.2,0.6-0.3,0.8-0.2l0.4,0.3c0.2,0.2,0.3,0.6,0.2,0.8l-2.7,4.1l-0.1,0.1c0,0,0,0,0,0l-0.2,0.3C22.4,41.7,22.3,41.8,22.2,41.8z
		 M24.6,43.2l-0.4-0.3c-0.1-0.1-0.2-0.2-0.2-0.4c0-0.2,0-0.3,0.1-0.4l0,0l2.4-3.5c0.2-0.2,0.6-0.3,0.8-0.2l0.4,0.3
		c0.2,0.2,0.3,0.6,0.2,0.8l-2.4,3.5C25.3,43.3,24.9,43.4,24.6,43.2z M27.5,44.1c-0.1-0.1-0.2-0.2-0.2-0.4c0-0.2,0-0.3,0.1-0.4
		l1.1-1.6c0.2-0.2,0.6-0.3,0.8-0.2c0.1,0.1,0.2,0.2,0.2,0.4c0,0.2,0,0.3-0.1,0.4L28.3,44C28.2,44.2,27.8,44.3,27.5,44.1z M43.8,37.2
		c-0.2,0.3-0.6,0.4-0.9,0.4L36,33.7c-0.4-0.2-1-0.1-1.2,0.3c-0.2,0.4-0.1,1,0.3,1.2l6.2,3.6c-0.1,0.1-0.1,0.2-0.1,0.4
		c0,0.4-0.1,0.6-0.3,0.8c-0.2,0.2-0.6,0.2-0.8,0.1l0,0c-0.1-0.2-0.4-0.3-0.6-0.3l-5-2.6c-0.4-0.2-1-0.1-1.2,0.4s-0.1,1,0.4,1.2
		l4.9,2.6c0,0.3-0.1,0.6-0.2,0.8c-0.3,0.3-0.7,0.4-1,0.5l-4.3-2c-0.5-0.2-1,0-1.2,0.4c-0.2,0.5,0,1,0.4,1.2l2.8,1.3
		c-0.3,0.2-0.5,0.3-0.6,0.3c0,0,0,0,0,0c0,0,0,0,0,0l-3.9-0.4l0.2-0.2c0.3-0.5,0.4-1.1,0.3-1.6c-0.1-0.6-0.5-1.1-0.9-1.4
		c-0.2-0.2-0.5-0.2-0.7-0.3c0.3-0.9,0-2-0.8-2.5l-0.4-0.3c-0.3-0.2-0.6-0.3-0.9-0.3c0-0.7-0.3-1.5-0.9-1.9l-0.4-0.3
		c-0.9-0.6-2.3-0.4-3,0.6c-0.2-0.3-0.4-0.5-0.6-0.7c-0.5-0.3-1.1-0.4-1.6-0.3c-0.4,0.1-0.7,0.3-1,0.5l-2.4-3.2
		c-0.1-0.1-0.1-0.1-0.2-0.2l4.3-6.8c0.4,0.3,1.6,1.2,3.5,1.5c-0.8,1-1.6,2.1-1.6,2.1c-0.2,0.2-0.3,0.5-0.2,0.8
		c0.1,0.4,0.3,1.6,0.8,2.3c0.8,1,2.5,0.4,3.4,0l4.8-2.5l12,7.8C43.9,37,43.8,37.2,43.8,37.2z M44.7,34.5l-12.1-7.9
		c-0.3-0.2-0.8-0.2-1.1-0.1l-5.4,2.8c-0.2,0.1-0.6,0.2-0.8,0.3c-0.1-0.2-0.1-0.3-0.2-0.5c0.7-0.9,2.2-3,2.8-3.6
		c0.5-0.5,3.7-1.4,6.3-1.4c2.4,0,6.1,1,6.1,1.1c0.2,0.1,0.4,0.1,0.7,0l1.5-0.5c0.1,0,0.1-0.1,0.2-0.1l4.4,7.1c0,0,0,0,0,0L44.7,34.5
		z M49.4,31L44,22.4l2.5-1.6l5.3,8.6L49.4,31z"/>
</g>
<g id="Layer_2_1_">
</g>
</svg>
