<?xml version="1.0" encoding="utf-8"?>
<!-- Generator: Adobe Illustrator 22.0.1, SVG Export Plug-In . SVG Version: 6.00 Build 0)  -->
<svg version="1.1" xmlns="http://www.w3.org/2000/svg" xmlns:xlink="http://www.w3.org/1999/xlink" x="0px" y="0px"
	 viewBox="0 0 64 64" style="enable-background:new 0 0 64 64;" xml:space="preserve">
<style type="text/css">
	.st0{fill:#231F20;}
	.st1{fill-rule:evenodd;clip-rule:evenodd;fill:#231F20;}
	.st2{fill:none;stroke:#231F20;stroke-width:2.2;stroke-miterlimit:10;}
	.st3{fill:none;stroke:#231F20;stroke-width:3;stroke-linecap:round;stroke-miterlimit:10;}
	.st4{fill:none;stroke:#231F20;stroke-width:2.2;stroke-linecap:round;stroke-linejoin:round;stroke-miterlimit:10;}
	.st5{fill:none;stroke:#000000;stroke-width:2.2;stroke-linecap:round;stroke-linejoin:round;stroke-miterlimit:10;}
	.st6{fill:none;stroke:#231F20;stroke-width:2.2;stroke-linecap:round;stroke-miterlimit:10;}
	.st7{fill:none;stroke:#000000;stroke-width:2.2;stroke-miterlimit:10;}
	.st8{fill:none;stroke:#000000;stroke-width:2;stroke-linecap:round;stroke-linejoin:round;stroke-miterlimit:10;}
	
		.st9{fill-rule:evenodd;clip-rule:evenodd;fill:none;stroke:#000000;stroke-width:2.2;stroke-linecap:round;stroke-linejoin:round;stroke-miterlimit:10;}
	.st10{fill:#221F1F;}
	.st11{fill:none;stroke:#000000;stroke-width:1.8;stroke-miterlimit:10;}
	.st12{fill:none;stroke:#000000;stroke-width:1.7;stroke-linecap:round;stroke-linejoin:round;stroke-miterlimit:10;}
	.st13{fill:none;stroke:#000000;stroke-width:1.8;stroke-linecap:round;stroke-linejoin:round;stroke-miterlimit:10;}
	.st14{fill:none;stroke:#000000;stroke-width:1.6;stroke-linecap:round;stroke-linejoin:round;stroke-miterlimit:10;}
	.st15{fill:#0A1423;}
	.st16{fill:#F4831F;}
	.st17{fill:none;stroke:#000000;stroke-width:0.4736;stroke-miterlimit:10;}
	.st18{fill:none;stroke:#000000;stroke-width:0.431;stroke-miterlimit:10;}
	.st19{fill-rule:evenodd;clip-rule:evenodd;fill:none;stroke:#000000;stroke-width:0.6314;stroke-miterlimit:10;}
	.st20{fill-rule:evenodd;clip-rule:evenodd;fill:none;stroke:#231F20;stroke-width:0.4567;stroke-miterlimit:10;}
	.st21{fill-rule:evenodd;clip-rule:evenodd;fill:none;stroke:#231F20;stroke-width:0.2284;stroke-miterlimit:10;}
	.st22{fill:none;stroke:#000000;stroke-width:0.419;stroke-miterlimit:10;}
	.st23{fill:none;stroke:#000000;stroke-width:0.3813;stroke-miterlimit:10;}
	.st24{fill:#FFFFFF;stroke:#000000;stroke-width:0.419;stroke-miterlimit:10;}
	.st25{fill-rule:evenodd;clip-rule:evenodd;fill:none;stroke:#000000;stroke-width:0.5586;stroke-miterlimit:10;}
	.st26{fill-rule:evenodd;clip-rule:evenodd;fill:#FFFFFF;}
	.st27{fill-rule:evenodd;clip-rule:evenodd;fill:#FFFFFF;stroke:#231F20;stroke-width:0.2682;stroke-miterlimit:10;}
	.st28{fill-rule:evenodd;clip-rule:evenodd;}
	.st29{fill:none;stroke:#000000;stroke-width:2;stroke-miterlimit:10;}
	.st30{fill:#FFFFFF;}
	.st31{opacity:0.85;}
</style>
<g id="Layer_1">
	<g>
		<path d="M32,0C14.4,0,0,14.4,0,32s14.4,32,32,32s32-14.4,32-32S49.6,0,32,0z M32,61.6C15.7,61.6,2.4,48.3,2.4,32S15.7,2.4,32,2.4
			S61.6,15.7,61.6,32S48.3,61.6,32,61.6z"/>
		<path d="M48,33.1c-0.1-0.1-0.2-0.1-0.3-0.2c0.7-0.8,1.1-1.8,1.1-2.8c0-1.1-0.5-2.2-1.3-3.1c-0.9-0.9-2.1-1.4-3.3-1.4h-8.3
			c0.4-1.5,0.6-3.4-0.1-5.6c-0.4-1.1-1.2-3.1-2.8-4.5c-1.1-1-2.6-1.3-3.9-0.8c-2.3,0.8-1.9,3.2-1.7,4.4c0,0.2,0.1,0.4,0.1,0.6
			c0.3,3.1,0.5,5.3-1,7.5c-0.5,0.8-1.3,1.6-2.1,2.3c-0.1,0.1-0.3,0.2-0.4,0.3c0,0-0.1,0-0.1,0.1c-0.2-0.8-0.9-1.4-1.8-1.4h-5.8
			c-1,0-1.8,0.8-1.8,1.8v16.1c0,1,0.8,1.8,1.8,1.8H22c0.9,0,1.6-0.6,1.8-1.4c0.3,0.3,0.7,0.6,1,0.8c2.8,1.9,5.8,1.8,8.7,1.8
			c0.5,0,0.9,0,1.4,0h4.5c0.4,0,0.9,0,1.4,0c0.5,0,1.1,0,1.6,0c0.5,0,1,0,1.5-0.1c1-0.1,2-0.6,2.6-1.3c0.5-0.6,0.7-1.4,0.6-2.2
			c-0.1-0.4-0.2-0.9-0.5-1.3c0.4-0.2,0.8-0.4,1.1-0.7c0.5-0.5,1.1-1.3,0.9-2.7c-0.1-0.7-0.4-1.3-0.8-1.7c0.4-0.2,0.8-0.5,1-0.9
			c0.6-0.8,0.8-1.8,0.6-2.8C49.4,34.6,48.8,33.7,48,33.1z M16.6,46V30.7h5v10.1l-0.1,3.1c0,0.1,0,0.2,0.1,0.3V46H16.6z M47.2,37.1
			c-0.5,0.6-2,0.6-2.9,0.6l-0.2,0c0,0,0,0,0,0h0c0,0,0,0,0,0c-0.6,0-1.1,0.5-1.1,1.1c0,0.6,0.5,1.1,1.1,1.1c0,0,0,0,0,0l0,0
			c0.9,0,2.3,0.4,2.5,1.4c0.1,0.5-0.1,0.7-0.2,0.9c-0.4,0.4-1.4,0.6-2.3,0.4c-0.6-0.1-1.2,0.3-1.3,0.9s0.3,1.2,0.9,1.3c0,0,0,0,0,0
			h0c0.6,0.1,1.2,0.7,1.3,1.2c0,0.2,0,0.4-0.2,0.6c-0.2,0.3-0.6,0.5-1.1,0.5c-0.8,0.1-1.8,0.1-2.7,0c-0.5,0-1,0-1.5,0h-4.5
			c-0.5,0-1,0-1.5,0c-2.8,0.1-5.2,0.1-7.4-1.4c-0.9-0.6-1.6-1.3-2.2-2.1v-2.8l0.1-8.4c0.2-0.2,0.8-0.5,1-0.7
			c0.3-0.2,0.5-0.3,0.6-0.4c1.1-0.8,2-1.8,2.6-2.8c2-3.1,1.6-6.2,1.3-9c0-0.2-0.1-0.4-0.1-0.7c-0.2-1.6-0.1-1.9,0.3-2
			c0.6-0.2,1.3,0.1,1.7,0.4c0.9,0.8,1.7,2,2.2,3.5c0.8,2.3,0.1,4.5-0.4,5.5c-0.1,0.3-0.1,0.7,0.1,1s0.5,0.5,0.9,0.5h9.9
			c0.6,0,1.3,0.3,1.8,0.8c0.4,0.4,0.7,1,0.7,1.5c0,0.6-0.3,1.1-0.8,1.6c-0.5,0.5-1.3,0.7-2,0.6c0,0,0,0,0,0c-0.6-0.1-1.1,0.4-1.2,1
			s0.4,1.1,1,1.2c0,0,0,0,0,0c0.4,0,0.7,0.1,1.1,0.1c0.8,0,1.5,0.1,2.1,0.4c0.3,0.2,0.5,0.5,0.6,1C47.5,36.4,47.4,36.8,47.2,37.1z"
			/>
	</g>
</g>
<g id="Layer_2">
</g>
</svg>
