<?xml version="1.0" encoding="utf-8"?>
<!-- Generator: Adobe Illustrator 22.1.0, SVG Export Plug-In . SVG Version: 6.00 Build 0)  -->
<svg version="1.1" id="Layer_1" xmlns="http://www.w3.org/2000/svg" xmlns:xlink="http://www.w3.org/1999/xlink" x="0px" y="0px"
	 viewBox="0 0 64 64" style="enable-background:new 0 0 64 64;" xml:space="preserve">
<g id="Layer_1_1_">
</g>
<g>
	<path d="M62.4,30.5l-30-29.9C32,0.2,31.5,0,31,0c-0.5,0-1,0.2-1.5,0.6l-3.2,3.2c-0.4,0.4-0.6,0.9-0.6,1.5s0.2,1,0.6,1.5L51.5,32
		L26.3,57.2c-0.4,0.4-0.6,0.9-0.6,1.5c0,0.6,0.2,1,0.6,1.5l3.2,3.2c0.4,0.4,0.9,0.6,1.5,0.6c0.6,0,1-0.2,1.5-0.6l29.9-29.9
		C62.8,33,63,32.6,63,32C63,31.4,62.8,31,62.4,30.5z"/>
	<path d="M38.3,32c0-0.6-0.2-1-0.6-1.5L7.8,0.6C7.4,0.2,6.9,0,6.3,0s-1,0.2-1.5,0.6L1.7,3.8C1.2,4.3,1,4.8,1,5.3
		c0,0.6,0.2,1,0.6,1.5L26.9,32L1.7,57.2C1.2,57.6,1,58.1,1,58.7c0,0.6,0.2,1,0.6,1.5l3.2,3.2c0.5,0.4,1,0.6,1.5,0.6s1-0.2,1.5-0.6
		l29.9-29.9C38.1,33.1,38.3,32.6,38.3,32z"/>
</g>
</svg>
