<?xml version="1.0" encoding="utf-8"?>
<!-- Generator: Adobe Illustrator 22.1.0, SVG Export Plug-In . SVG Version: 6.00 Build 0)  -->
<svg version="1.1" id="Layer_1" xmlns="http://www.w3.org/2000/svg" xmlns:xlink="http://www.w3.org/1999/xlink" x="0px" y="0px"
	 viewBox="0 0 64 64" style="enable-background:new 0 0 64 64;" xml:space="preserve">
<g id="Layer_1_1_">
</g>
<path d="M60.5,7.1c-4.6-4.6-12.1-4.6-16.7,0L11.7,38.7c-1.4,1.4-2.1,3.1-2.1,5c0,1.9,0.8,3.7,2.1,5c2.7,2.7,7.2,2.7,9.9,0l28-27.8
	c0.9-0.9,0.9-2.3,0-3.2c-0.9-0.9-2.3-0.9-3.2,0l-28,27.8c-0.9,1-2.5,1-3.5,0c-0.4-0.4-0.7-1.1-0.7-1.7c0-0.6,0.2-1.2,0.7-1.7
	L47,10.3c2.9-2.8,7.5-2.8,10.3,0c1.3,1.4,2.1,3.2,2.1,5.1s-0.7,3.7-2.1,5.1l-32,31.9c-4.8,4.7-12.5,4.7-17.2,0
	C5.9,50,4.6,47,4.6,43.8c0-3.2,1.2-6.2,3.5-8.5L35.7,7.8c0.9-0.9,0.9-2.3,0-3.2s-2.3-0.9-3.2,0L4.9,32.1C1.7,35.2,0,39.4,0,43.8
	c0,4.5,1.7,8.6,4.9,11.8c3.3,3.2,7.5,4.8,11.8,4.8c4.2,0,8.5-1.6,11.7-4.8l32.1-32c2.3-2.2,3.5-5.2,3.5-8.3S62.7,9.3,60.5,7.1z"/>
</svg>
