<?xml version="1.0" encoding="utf-8"?>
<!-- Generator: Adobe Illustrator 16.0.0, SVG Export Plug-In . SVG Version: 6.00 Build 0)  -->
<!DOCTYPE svg PUBLIC "-//W3C//DTD SVG 1.1//EN" "http://www.w3.org/Graphics/SVG/1.1/DTD/svg11.dtd">
<svg version="1.1" id="Layer_1" xmlns="http://www.w3.org/2000/svg" xmlns:xlink="http://www.w3.org/1999/xlink" x="0px" y="0px"
	 width="595.279px" height="841.891px" viewBox="0 0 595.279 841.891" enable-background="new 0 0 595.279 841.891"
	 xml:space="preserve">
<g id="Layer_1_1_">
</g>
<path d="M563.656,188.414c-42.785-42.786-112.545-42.786-155.331,0l-299.5,294.85c-13.021,13.021-19.532,28.834-19.532,46.506
	c0,17.673,7.44,34.415,19.532,46.507c25.113,25.113,66.97,25.113,92.083,0l260.435-258.575c8.371-8.371,8.371-21.393,0-29.764
	s-21.393-8.371-29.764,0L171.143,546.512c-8.371,9.302-23.253,9.302-32.554,0c-3.721-3.721-6.512-10.231-6.512-15.812
	c0-5.581,1.86-11.162,6.512-15.812l299.5-296.71c26.974-26.043,69.759-26.043,95.803,0c12.092,13.021,19.532,29.764,19.532,47.437
	s-6.511,34.415-19.532,47.437l-298.57,296.71c-44.646,43.716-116.266,43.716-159.981,0c-20.463-21.394-32.555-49.297-32.555-79.061
	c0-29.765,11.162-57.668,32.555-79.061l257.645-256.715c8.371-8.371,8.371-21.393,0-29.764s-21.393-8.371-29.764,0L45.576,421.875
	C15.812,450.709,0,489.774,0,530.7c0,41.855,15.812,79.99,45.576,109.755c30.694,29.764,69.759,44.646,109.755,44.646
	c39.064,0,79.061-14.882,108.824-44.646l299.5-297.641c21.394-20.463,32.555-48.366,32.555-77.2S584.118,208.876,563.656,188.414z"
	/>
</svg>
