<?xml version="1.0" encoding="utf-8"?>
<!-- Generator: Adobe Illustrator 16.0.0, SVG Export Plug-In . SVG Version: 6.00 Build 0)  -->
<!DOCTYPE svg PUBLIC "-//W3C//DTD SVG 1.1//EN" "http://www.w3.org/Graphics/SVG/1.1/DTD/svg11.dtd">
<svg version="1.1" id="Layer_1" xmlns="http://www.w3.org/2000/svg" xmlns:xlink="http://www.w3.org/1999/xlink" x="0px" y="0px"
	 width="595.279px" height="841.891px" viewBox="0 0 595.279 841.891" enable-background="new 0 0 595.279 841.891"
	 xml:space="preserve">
<g id="Layer_1_1_">
</g>
<g>
	<path d="M580.398,406.993L301.361,128.886c-3.721-3.721-8.371-5.581-13.021-5.581s-9.302,1.86-13.952,5.581l-29.764,29.764
		c-3.721,3.72-5.581,8.371-5.581,13.952s1.86,9.301,5.581,13.952l234.391,234.392L244.623,655.337
		c-3.721,3.721-5.581,8.371-5.581,13.952c0,5.58,1.86,9.301,5.581,13.951l29.764,29.765c3.721,3.72,8.371,5.58,13.952,5.58
		c5.58,0,9.301-1.86,13.951-5.58l278.107-278.108c3.721-4.65,5.581-8.371,5.581-13.951
		C585.979,415.364,584.118,411.644,580.398,406.993z"/>
	<path d="M356.238,420.945c0-5.581-1.86-9.302-5.58-13.952L72.55,128.886c-3.721-3.721-8.371-5.581-13.952-5.581
		s-9.301,1.86-13.952,5.581L15.812,158.65c-4.65,4.65-6.511,9.301-6.511,13.952c0,5.581,1.86,9.301,5.581,13.952l235.321,234.392
		L15.812,655.337c-4.65,3.721-6.511,8.371-6.511,13.952c0,5.58,1.86,9.301,5.581,13.951l29.764,29.765
		c4.651,3.72,9.302,5.58,13.952,5.58s9.301-1.86,13.952-5.58l278.107-278.108C354.377,431.177,356.238,426.525,356.238,420.945z"/>
</g>
</svg>
