<?xml version="1.0" encoding="utf-8"?>
<!-- Generator: Adobe Illustrator 22.0.1, SVG Export Plug-In . SVG Version: 6.00 Build 0)  -->
<svg version="1.1" xmlns="http://www.w3.org/2000/svg" xmlns:xlink="http://www.w3.org/1999/xlink" x="0px" y="0px"
	 viewBox="0 0 64 64" style="enable-background:new 0 0 64 64;" xml:space="preserve">
<style type="text/css">
	.st0{fill:#231F20;}
	.st1{fill-rule:evenodd;clip-rule:evenodd;fill:#231F20;}
	.st2{fill:none;stroke:#000000;stroke-width:1.4;stroke-miterlimit:10;}
	.st3{fill:none;stroke:#231F20;stroke-width:2.2;stroke-miterlimit:10;}
	.st4{fill:none;stroke:#231F20;stroke-width:3;stroke-linecap:round;stroke-miterlimit:10;}
	.st5{fill:none;stroke:#231F20;stroke-width:2.2;stroke-linecap:round;stroke-linejoin:round;stroke-miterlimit:10;}
	.st6{fill:none;stroke:#000000;stroke-width:2.2;stroke-linecap:round;stroke-linejoin:round;stroke-miterlimit:10;}
	.st7{fill:none;stroke:#231F20;stroke-width:2.2;stroke-linecap:round;stroke-miterlimit:10;}
	.st8{fill:none;stroke:#000000;stroke-width:2.2;stroke-miterlimit:10;}
	.st9{fill:none;stroke:#000000;stroke-width:2;stroke-linecap:round;stroke-linejoin:round;stroke-miterlimit:10;}
	.st10{fill:none;stroke:#000000;stroke-width:1.8;stroke-linejoin:round;stroke-miterlimit:10;}
	
		.st11{fill-rule:evenodd;clip-rule:evenodd;fill:none;stroke:#000000;stroke-width:2.2;stroke-linecap:round;stroke-linejoin:round;stroke-miterlimit:10;}
	.st12{fill:#221F1F;}
	.st13{fill:none;stroke:#000000;stroke-width:1.8;stroke-miterlimit:10;}
	.st14{fill:none;stroke:#000000;stroke-width:1.7;stroke-linecap:round;stroke-linejoin:round;stroke-miterlimit:10;}
	.st15{fill:none;stroke:#000000;stroke-width:3;stroke-linecap:round;stroke-linejoin:round;stroke-miterlimit:10;}
	.st16{fill:none;stroke:#000000;stroke-width:1.8;stroke-linecap:round;stroke-linejoin:round;stroke-miterlimit:10;}
	.st17{fill:none;stroke:#000000;stroke-width:1.6;stroke-linecap:round;stroke-linejoin:round;stroke-miterlimit:10;}
	.st18{fill:none;stroke:#231F20;stroke-width:2;stroke-miterlimit:10;}
	.st19{fill:#0A1423;}
	.st20{fill:#F4831F;}
	.st21{fill:none;stroke:#000000;stroke-width:0.4736;stroke-miterlimit:10;}
	.st22{fill:none;stroke:#000000;stroke-width:0.431;stroke-miterlimit:10;}
	.st23{fill-rule:evenodd;clip-rule:evenodd;fill:none;stroke:#000000;stroke-width:0.6314;stroke-miterlimit:10;}
	.st24{fill-rule:evenodd;clip-rule:evenodd;fill:none;stroke:#231F20;stroke-width:0.4567;stroke-miterlimit:10;}
	.st25{fill-rule:evenodd;clip-rule:evenodd;fill:none;stroke:#231F20;stroke-width:0.2284;stroke-miterlimit:10;}
	.st26{fill:none;stroke:#000000;stroke-width:0.419;stroke-miterlimit:10;}
	.st27{fill:none;stroke:#000000;stroke-width:0.3813;stroke-miterlimit:10;}
	.st28{fill:#FFFFFF;stroke:#000000;stroke-width:0.419;stroke-miterlimit:10;}
	.st29{fill-rule:evenodd;clip-rule:evenodd;fill:none;stroke:#000000;stroke-width:0.5586;stroke-miterlimit:10;}
	.st30{fill-rule:evenodd;clip-rule:evenodd;fill:#FFFFFF;}
	.st31{fill-rule:evenodd;clip-rule:evenodd;fill:#FFFFFF;stroke:#231F20;stroke-width:0.2682;stroke-miterlimit:10;}
	.st32{fill-rule:evenodd;clip-rule:evenodd;}
	.st33{fill:none;stroke:#000000;stroke-width:2;stroke-miterlimit:10;}
	.st34{fill:#FFFFFF;}
	.st35{opacity:0.85;}
</style>
<g id="Layer_1">
	<path class="st0" d="M32.3,0C14.6-0.1,0.1,14.1,0,31.7S14.1,63.9,31.7,64S63.9,49.9,64,32.3S49.9,0.1,32.3,0z M31.8,61.6
		C15.4,61.4,2.3,48.1,2.4,31.8S15.9,2.3,32.2,2.4s29.5,13.5,29.3,29.8C61.4,48.6,48.1,61.7,31.8,61.6z"/>
	<path class="st0" d="M44.4,22l-6-0.1c-0.2-2.5-2.3-4.5-4.9-4.6l-3.4,0c-2.6,0-4.7,2-5,4.5l-5.4,0c-2,0-3.7,1.6-3.7,3.7l-0.1,17.3
		c0,2,1.6,3.7,3.7,3.7l24.6,0.2c2,0,3.7-1.6,3.7-3.7L48,25.8C48.1,23.7,46.4,22,44.4,22z M30.1,19.6l3.4,0c1.4,0,2.5,1,2.7,2.3
		l-8.8-0.1C27.6,20.6,28.7,19.6,30.1,19.6z M19.8,24l24.6,0.2c0.6,0,1.1,0.4,1.3,0.9c-0.8,3.7-5,6.6-10.5,7.4l0-1.3
		c0-0.9-0.7-1.6-1.6-1.6l-3.2,0c-0.9,0-1.6,0.7-1.6,1.6l0,1.3c-5.4-0.9-9.5-3.8-10.3-7.4c0,0-0.1,0.1-0.1,0.1
		C18.5,24.5,19.1,24,19.8,24z M33,31.7l0,4.2l-2,0l0-4.2L33,31.7z M45.7,43c0,0.8-0.7,1.5-1.5,1.5l-24.6-0.2c-0.8,0-1.5-0.7-1.5-1.5
		l0.1-13.5c2.2,2.7,6,4.7,10.5,5.4l0,1.8c0,0.9,0.7,1.6,1.6,1.6l3.2,0c0.9,0,1.6-0.7,1.6-1.6l0-1.8c4.5-0.6,8.4-2.5,10.7-5.2
		L45.7,43z"/>
</g>
<g id="Layer_2">
</g>
</svg>
