<?xml version="1.0" encoding="utf-8"?>
<!-- Generator: Adobe Illustrator 22.0.1, SVG Export Plug-In . SVG Version: 6.00 Build 0)  -->
<svg version="1.1" xmlns="http://www.w3.org/2000/svg" xmlns:xlink="http://www.w3.org/1999/xlink" x="0px" y="0px"
	 viewBox="0 0 64 64" style="enable-background:new 0 0 64 64;" xml:space="preserve">
<style type="text/css">
	.st0{fill:#231F20;}
	.st1{fill-rule:evenodd;clip-rule:evenodd;fill:#231F20;}
	.st2{fill:none;stroke:#000000;stroke-width:1.4;stroke-miterlimit:10;}
	.st3{fill:none;stroke:#231F20;stroke-width:2.2;stroke-miterlimit:10;}
	.st4{fill:none;stroke:#231F20;stroke-width:3;stroke-linecap:round;stroke-miterlimit:10;}
	.st5{fill:none;stroke:#231F20;stroke-width:2.2;stroke-linecap:round;stroke-linejoin:round;stroke-miterlimit:10;}
	.st6{fill:none;stroke:#000000;stroke-width:2.2;stroke-linecap:round;stroke-linejoin:round;stroke-miterlimit:10;}
	.st7{fill:none;stroke:#231F20;stroke-width:2.2;stroke-linecap:round;stroke-miterlimit:10;}
	.st8{fill:none;stroke:#000000;stroke-width:2.2;stroke-miterlimit:10;}
	.st9{fill:none;stroke:#000000;stroke-width:2;stroke-linecap:round;stroke-linejoin:round;stroke-miterlimit:10;}
	.st10{fill:none;stroke:#000000;stroke-width:1.8;stroke-linejoin:round;stroke-miterlimit:10;}
	
		.st11{fill-rule:evenodd;clip-rule:evenodd;fill:none;stroke:#000000;stroke-width:2.2;stroke-linecap:round;stroke-linejoin:round;stroke-miterlimit:10;}
	.st12{fill:#221F1F;}
	.st13{fill:none;stroke:#000000;stroke-width:1.8;stroke-miterlimit:10;}
	.st14{fill:none;stroke:#000000;stroke-width:1.7;stroke-linecap:round;stroke-linejoin:round;stroke-miterlimit:10;}
	.st15{fill:none;stroke:#000000;stroke-width:3;stroke-linecap:round;stroke-linejoin:round;stroke-miterlimit:10;}
	.st16{fill:none;stroke:#000000;stroke-width:1.8;stroke-linecap:round;stroke-linejoin:round;stroke-miterlimit:10;}
	.st17{fill:none;stroke:#000000;stroke-width:1.6;stroke-linecap:round;stroke-linejoin:round;stroke-miterlimit:10;}
	.st18{fill:none;stroke:#231F20;stroke-width:2;stroke-miterlimit:10;}
	.st19{fill:#0A1423;}
	.st20{fill:#F4831F;}
	.st21{fill:none;stroke:#000000;stroke-width:0.4736;stroke-miterlimit:10;}
	.st22{fill:none;stroke:#000000;stroke-width:0.431;stroke-miterlimit:10;}
	.st23{fill-rule:evenodd;clip-rule:evenodd;fill:none;stroke:#000000;stroke-width:0.6314;stroke-miterlimit:10;}
	.st24{fill-rule:evenodd;clip-rule:evenodd;fill:none;stroke:#231F20;stroke-width:0.4567;stroke-miterlimit:10;}
	.st25{fill-rule:evenodd;clip-rule:evenodd;fill:none;stroke:#231F20;stroke-width:0.2284;stroke-miterlimit:10;}
	.st26{fill:none;stroke:#000000;stroke-width:0.419;stroke-miterlimit:10;}
	.st27{fill:none;stroke:#000000;stroke-width:0.3813;stroke-miterlimit:10;}
	.st28{fill:#FFFFFF;stroke:#000000;stroke-width:0.419;stroke-miterlimit:10;}
	.st29{fill-rule:evenodd;clip-rule:evenodd;fill:none;stroke:#000000;stroke-width:0.5586;stroke-miterlimit:10;}
	.st30{fill-rule:evenodd;clip-rule:evenodd;fill:#FFFFFF;}
	.st31{fill-rule:evenodd;clip-rule:evenodd;fill:#FFFFFF;stroke:#231F20;stroke-width:0.2682;stroke-miterlimit:10;}
	.st32{fill-rule:evenodd;clip-rule:evenodd;}
	.st33{fill:none;stroke:#000000;stroke-width:2;stroke-miterlimit:10;}
	.st34{fill:#FFFFFF;}
	.st35{opacity:0.85;}
</style>
<g id="Layer_1">
	<g>
		<path class="st0" d="M32,0C14.4,0,0,14.4,0,32s14.4,32,32,32s32-14.4,32-32S49.6,0,32,0z M32,61.6C15.7,61.6,2.4,48.3,2.4,32
			S15.7,2.4,32,2.4S61.6,15.7,61.6,32S48.3,61.6,32,61.6z"/>
		<path class="st0" d="M39.2,19.5c-0.2,0-0.4,0-0.6,0.1c-0.2,0-0.3,0-0.5,0l-18.3,6.4c-0.3-0.1-0.5-0.1-0.8-0.1h-2.3
			c-1.5,0-2.7,1.2-2.7,2.7v4.8c0,1.5,1.2,2.7,2.7,2.7h1l-1.3,6.5c-0.1,0.6,0.3,1.2,0.9,1.3l2.8,0.6c0.1,0,0.1,0,0.2,0
			c0.2,0,0.4-0.1,0.6-0.2c0.2-0.2,0.4-0.4,0.5-0.7l1.3-6.6L38,42.4c0.1,0,0.2,0.1,0.4,0.1c0.1,0,0.1,0,0.2,0
			c0.2,0.1,0.4,0.1,0.6,0.1c3.2,0,4-7.2,4-11.5S42.3,19.5,39.2,19.5z M16.6,33.9c-0.3,0-0.5-0.2-0.5-0.5v-4.8c0-0.3,0.2-0.5,0.5-0.5
			h2.3c0.3,0,0.5,0.2,0.5,0.5v4.8c0,0.3-0.2,0.5-0.5,0.5H16.6z M19.3,42.1l-0.6-0.1l1.1-5.6l0.6,0.1L19.3,42.1z M21.4,34.3
			c0.1-0.3,0.2-0.6,0.2-0.9v-4.8c0-0.3-0.1-0.5-0.1-0.8l14.8-5.2c-0.8,2.5-1.1,5.9-1.1,8.4c0,2.5,0.3,6,1.1,8.4L21.4,34.3z
			 M39.2,40.3c-0.5-0.4-1.3-2.5-1.7-6.1c1.1-0.1,1.8-1.4,1.8-3.3c0-1.9-0.7-3.1-1.8-3.3c0.3-3.5,1.2-5.5,1.6-5.9
			c0.6,0.5,1.8,3.6,1.8,9.3C41,36.7,39.8,39.8,39.2,40.3z"/>
		<path class="st0" d="M44.9,25.5l4.2-2.9c0.5-0.3,0.6-1,0.3-1.5s-1-0.6-1.5-0.3l-4.2,2.9c-0.5,0.3-0.6,1-0.3,1.5
			c0.2,0.3,0.6,0.5,0.9,0.5C44.5,25.7,44.7,25.6,44.9,25.5z"/>
		<path class="st0" d="M48.9,29.8h-3.6c-0.6,0-1.1,0.5-1.1,1.1s0.5,1.1,1.1,1.1h3.6c0.6,0,1.1-0.5,1.1-1.1S49.5,29.8,48.9,29.8z"/>
		<path class="st0" d="M45.6,36.7c-0.5-0.4-1.2-0.3-1.6,0.1s-0.3,1.2,0.1,1.5l3.1,2.6c0.2,0.2,0.5,0.3,0.7,0.3
			c0.3,0,0.6-0.1,0.8-0.4c0.4-0.5,0.3-1.2-0.1-1.6L45.6,36.7z"/>
	</g>
</g>
<g id="Layer_2">
</g>
</svg>
