<?xml version="1.0" encoding="utf-8"?>
<!-- Generator: Adobe Illustrator 16.0.0, SVG Export Plug-In . SVG Version: 6.00 Build 0)  -->
<!DOCTYPE svg PUBLIC "-//W3C//DTD SVG 1.1//EN" "http://www.w3.org/Graphics/SVG/1.1/DTD/svg11.dtd">
<svg version="1.1" id="Layer_1" xmlns="http://www.w3.org/2000/svg" xmlns:xlink="http://www.w3.org/1999/xlink" x="0px" y="0px"
	 width="595.279px" height="841.891px" viewBox="0 0 595.279 841.891" enable-background="new 0 0 595.279 841.891"
	 xml:space="preserve">
<g id="Layer_1_1_">
</g>
<g>
	<path fill="#231F20" d="M565.516,315.841h-91.152c-3.721,0-7.44,0.93-10.231,1.86V230.27c0-9.301-7.44-18.603-15.812-21.393
		L309.732,160.51c-9.301-2.79-25.113-2.79-34.415,0l-134.868,47.437c-8.371,2.791-15.812,13.022-15.812,22.323v87.432
		c-2.791-0.93-6.511-1.86-10.231-1.86H29.764C13.022,315.841,0,328.863,0,345.605v307.872c0,16.742,13.021,29.764,29.764,29.764
		h85.571c5.581,0,10.231-1.86,14.883-3.721c2.79,2.791,6.511,3.721,10.23,3.721H449.25c3.721,0,7.441-1.86,10.231-3.721
		c4.65,2.791,9.302,3.721,14.882,3.721h91.152c16.742,0,29.764-13.021,29.764-29.764V345.605
		C595.28,329.793,582.258,315.841,565.516,315.841z M124.637,653.477c0,4.65-3.721,9.301-9.302,9.301H29.764
		c-4.65,0-9.301-3.72-9.301-9.301V345.605c0-4.651,3.72-9.301,9.301-9.301h85.571c4.651,0,9.302,3.721,9.302,9.301V653.477z
		 M443.669,662.777H332.055v-82.781h-67.899v82.781H146.03V230.27c0-0.93,0.931-2.791,1.86-2.791l134.868-47.437
		c4.65-1.86,15.812-1.86,20.463,0l138.588,47.437c0.931,0,1.86,1.86,1.86,2.791V662.777z M574.818,653.477
		c0,4.65-3.721,9.301-9.302,9.301h-91.152c-4.65,0-9.301-3.72-9.301-9.301V345.605c0-4.651,3.721-9.301,9.301-9.301h91.152
		c4.65,0,9.302,3.721,9.302,9.301V653.477z"/>
	<rect x="191.606" y="247.942" fill="#231F20" width="46.507" height="46.506"/>
	<rect x="274.387" y="247.942" fill="#231F20" width="46.506" height="46.506"/>
	<rect x="357.168" y="247.942" fill="#231F20" width="46.506" height="46.506"/>
	<rect x="191.606" y="330.723" fill="#231F20" width="46.507" height="46.506"/>
	<rect x="274.387" y="330.723" fill="#231F20" width="46.506" height="46.506"/>
	<rect x="357.168" y="330.723" fill="#231F20" width="46.506" height="46.506"/>
	<rect x="191.606" y="414.435" fill="#231F20" width="46.507" height="46.506"/>
	<rect x="274.387" y="414.435" fill="#231F20" width="46.506" height="46.506"/>
	<rect x="357.168" y="414.435" fill="#231F20" width="46.506" height="46.506"/>
	<rect x="191.606" y="497.216" fill="#231F20" width="46.507" height="46.506"/>
	<rect x="274.387" y="497.216" fill="#231F20" width="46.506" height="46.506"/>
	<rect x="357.168" y="497.216" fill="#231F20" width="46.506" height="46.506"/>
	<rect x="47.437" y="436.757" fill="#231F20" width="46.506" height="46.507"/>
	<rect x="47.437" y="358.626" fill="#231F20" width="46.506" height="46.506"/>
	<rect x="47.437" y="514.888" fill="#231F20" width="46.506" height="46.506"/>
	<rect x="499.477" y="436.757" fill="#231F20" width="46.507" height="46.507"/>
	<rect x="499.477" y="358.626" fill="#231F20" width="46.507" height="46.506"/>
	<rect x="499.477" y="514.888" fill="#231F20" width="46.507" height="46.506"/>
</g>
</svg>
