<?xml version="1.0" encoding="utf-8"?>
<!-- Generator: Adobe Illustrator 22.1.0, SVG Export Plug-In . SVG Version: 6.00 Build 0)  -->
<svg version="1.1" id="Layer_1" xmlns="http://www.w3.org/2000/svg" xmlns:xlink="http://www.w3.org/1999/xlink" x="0px" y="0px"
	 viewBox="0 0 64 64" style="enable-background:new 0 0 64 64;" xml:space="preserve">
<style type="text/css">
	.st0{fill:#010101;}
</style>
<path class="st0" d="M64,5.3c0-0.5-0.3-1-0.7-1.5l-3.2-3.2C59.6,0.2,59.2,0,58.6,0c-0.5,0-1,0.2-1.4,0.6L32,25.8L0.6,57.2
	C0.2,57.7,0,58.1,0,58.7c0,0.5,0.3,1,0.7,1.5l3.2,3.2C4.4,63.8,4.8,64,5.4,64c0.5,0,1-0.2,1.4-0.6L32,38.2L63.4,6.8
	C63.8,6.3,64,5.9,64,5.3z"/>
<path class="st0" d="M58.7,64c0.5,0,1-0.3,1.5-0.7l3.2-3.2c0.4-0.5,0.6-0.9,0.6-1.5c0-0.5-0.2-1-0.6-1.4L38.2,32L6.8,0.6
	C6.3,0.2,5.9,0,5.3,0c-0.5,0-1,0.3-1.5,0.7L0.6,3.9C0.2,4.4,0,4.8,0,5.4c0,0.5,0.2,1,0.6,1.4L25.8,32l31.4,31.4
	C57.7,63.8,58.1,64,58.7,64z"/>
</svg>
