<?xml version="1.0" encoding="utf-8"?>
<!-- Generator: Adobe Illustrator 22.0.1, SVG Export Plug-In . SVG Version: 6.00 Build 0)  -->
<svg version="1.1" xmlns="http://www.w3.org/2000/svg" xmlns:xlink="http://www.w3.org/1999/xlink" x="0px" y="0px"
	 viewBox="0 0 64 64" style="enable-background:new 0 0 64 64;" xml:space="preserve">
<style type="text/css">
	.st0{fill:#231F20;}
	.st1{fill-rule:evenodd;clip-rule:evenodd;fill:#231F20;}
	.st2{fill:none;stroke:#000000;stroke-width:1.4;stroke-miterlimit:10;}
	.st3{fill:none;stroke:#231F20;stroke-width:2.2;stroke-miterlimit:10;}
	.st4{fill:none;stroke:#231F20;stroke-width:3;stroke-linecap:round;stroke-miterlimit:10;}
	.st5{fill:none;stroke:#231F20;stroke-width:2.2;stroke-linecap:round;stroke-linejoin:round;stroke-miterlimit:10;}
	.st6{fill:none;stroke:#000000;stroke-width:2.2;stroke-linecap:round;stroke-linejoin:round;stroke-miterlimit:10;}
	.st7{fill:none;stroke:#231F20;stroke-width:2.2;stroke-linecap:round;stroke-miterlimit:10;}
	.st8{fill:none;stroke:#000000;stroke-width:2.2;stroke-miterlimit:10;}
	.st9{fill:none;stroke:#000000;stroke-width:2;stroke-linecap:round;stroke-linejoin:round;stroke-miterlimit:10;}
	.st10{fill:none;stroke:#000000;stroke-width:1.8;stroke-linejoin:round;stroke-miterlimit:10;}
	
		.st11{fill-rule:evenodd;clip-rule:evenodd;fill:none;stroke:#000000;stroke-width:2.2;stroke-linecap:round;stroke-linejoin:round;stroke-miterlimit:10;}
	.st12{fill:#221F1F;}
	.st13{fill:none;stroke:#000000;stroke-width:1.8;stroke-miterlimit:10;}
	.st14{fill:none;stroke:#000000;stroke-width:1.7;stroke-linecap:round;stroke-linejoin:round;stroke-miterlimit:10;}
	.st15{fill:none;stroke:#000000;stroke-width:3;stroke-linecap:round;stroke-linejoin:round;stroke-miterlimit:10;}
	.st16{fill:none;stroke:#000000;stroke-width:1.8;stroke-linecap:round;stroke-linejoin:round;stroke-miterlimit:10;}
	.st17{fill:none;stroke:#000000;stroke-width:1.6;stroke-linecap:round;stroke-linejoin:round;stroke-miterlimit:10;}
	.st18{fill:none;stroke:#231F20;stroke-width:2;stroke-miterlimit:10;}
	.st19{fill:#0A1423;}
	.st20{fill:#F4831F;}
	.st21{fill:none;stroke:#000000;stroke-width:0.4736;stroke-miterlimit:10;}
	.st22{fill:none;stroke:#000000;stroke-width:0.431;stroke-miterlimit:10;}
	.st23{fill-rule:evenodd;clip-rule:evenodd;fill:none;stroke:#000000;stroke-width:0.6314;stroke-miterlimit:10;}
	.st24{fill-rule:evenodd;clip-rule:evenodd;fill:none;stroke:#231F20;stroke-width:0.4567;stroke-miterlimit:10;}
	.st25{fill-rule:evenodd;clip-rule:evenodd;fill:none;stroke:#231F20;stroke-width:0.2284;stroke-miterlimit:10;}
	.st26{fill:none;stroke:#000000;stroke-width:0.419;stroke-miterlimit:10;}
	.st27{fill:none;stroke:#000000;stroke-width:0.3813;stroke-miterlimit:10;}
	.st28{fill:#FFFFFF;stroke:#000000;stroke-width:0.419;stroke-miterlimit:10;}
	.st29{fill-rule:evenodd;clip-rule:evenodd;fill:none;stroke:#000000;stroke-width:0.5586;stroke-miterlimit:10;}
	.st30{fill-rule:evenodd;clip-rule:evenodd;fill:#FFFFFF;}
	.st31{fill-rule:evenodd;clip-rule:evenodd;fill:#FFFFFF;stroke:#231F20;stroke-width:0.2682;stroke-miterlimit:10;}
	.st32{fill-rule:evenodd;clip-rule:evenodd;}
	.st33{fill:none;stroke:#000000;stroke-width:2;stroke-miterlimit:10;}
	.st34{fill:#FFFFFF;}
	.st35{opacity:0.85;}
</style>
<g id="Layer_1">
</g>
<g id="Layer_2">
	<g>
		<path class="st0" d="M42.1,13H21.9V9.3c0-3,2.4-5.4,5.4-5.4h9.4c3,0,5.4,2.4,5.4,5.4V13z M23.9,11h16.3V9.3c0-1.9-1.5-3.4-3.4-3.4
			h-9.4c-1.9,0-3.4,1.5-3.4,3.4V11z"/>
		<g>
			<path class="st0" d="M42.5,60.1c-2.2,0-4.1-1.8-4.1-4.1v-1h8.2v1C46.5,58.3,44.7,60.1,42.5,60.1z M40.6,57c0.4,0.6,1,1.1,1.8,1.1
				s1.5-0.4,1.8-1.1H40.6z"/>
			<path class="st0" d="M21.5,60.1c-2.2,0-4.1-1.8-4.1-4.1v-1h8.2v1C25.6,58.3,23.8,60.1,21.5,60.1z M19.7,57c0.4,0.6,1,1.1,1.8,1.1
				s1.5-0.4,1.8-1.1H19.7z"/>
		</g>
		<path class="st0" d="M45.4,57H18.6c-2.9,0-5.2-2.3-5.2-5.2V16.2c0-2.9,2.3-5.2,5.2-5.2h26.9c2.9,0,5.2,2.3,5.2,5.2v35.6
			C50.7,54.7,48.3,57,45.4,57z M18.6,13c-1.8,0-3.2,1.4-3.2,3.2v35.6c0,1.8,1.4,3.2,3.2,3.2h26.9c1.8,0,3.2-1.4,3.2-3.2V16.2
			c0-1.8-1.4-3.2-3.2-3.2H18.6z"/>
		<g>
			<g>
				<path class="st0" d="M45.2,20.3c-3.6,0-6.4-2.9-6.4-6.4h2c0,2.8,2.6,5.1,5.6,4.3l0.5,1.9C46.3,20.2,45.8,20.3,45.2,20.3z"/>
				<path class="st0" d="M18.8,20.3c-0.5,0-1.1-0.1-1.6-0.2l0.5-1.9c2.9,0.8,5.6-1.5,5.6-4.3h2C25.2,17.4,22.3,20.3,18.8,20.3z"/>
			</g>
			<g>
				<path class="st0" d="M40.8,54.2h-2c0-4.1,3.9-7.3,8.1-6.2l-0.5,1.9C43.4,49.1,40.8,51.4,40.8,54.2z"/>
				<path class="st0" d="M25.2,54.2h-2c0-2.8-2.6-5.1-5.6-4.3L17.1,48C21.3,46.9,25.2,50.1,25.2,54.2z"/>
			</g>
		</g>
		<path d="M25.5,31.8c-0.4,0.1-0.6,0.5-0.4,0.9c0.1,0.3,0.2,0.6,0.2,0.9c0,1.5-1.2,2.8-2.8,2.8s-2.8-1.2-2.8-2.8
			c0-1.5,1.2-2.8,2.8-2.8c0.4,0,0.7,0.1,1,0.2c0.4,0.1,0.8,0,0.9-0.4c0.1-0.4,0-0.8-0.4-0.9c-0.5-0.2-1-0.3-1.6-0.3
			c-2.3,0-4.2,1.9-4.2,4.2c0,2.3,1.9,4.2,4.2,4.2c2.3,0,4.2-1.9,4.2-4.2c0-0.5-0.1-0.9-0.2-1.4C26.3,31.9,25.9,31.7,25.5,31.8z"/>
		<path d="M32.9,39.3c-0.1-0.4-0.5-0.5-0.9-0.4l-1.3,0.5c-0.4,0.1-0.5,0.5-0.4,0.9c0.1,0.4,0.5,0.5,0.9,0.4l0.6-0.3l1.6,3.9L27,47
			l-1.6-3.9l3.2-1.3c0.4-0.1,0.5-0.5,0.4-0.9c-0.1-0.4-0.5-0.5-0.9-0.4L24.2,42c-0.2,0.1-0.3,0.2-0.4,0.4c-0.1,0.2-0.1,0.4,0,0.5
			l2.1,5.2c0.1,0.3,0.4,0.4,0.6,0.4c0.1,0,0.2,0,0.3-0.1l7.8-3.1c0.4-0.1,0.5-0.5,0.4-0.9L32.9,39.3z"/>
		<path d="M39.4,25l-9.8-5.2c-0.1,0-0.2-0.1-0.2-0.1c-0.1,0-0.2,0-0.3,0c-0.2,0.1-0.3,0.2-0.4,0.3l-2,3.7c-0.1,0.2-0.1,0.4-0.1,0.5
			c0.1,0.2,0.2,0.3,0.3,0.4l1.2,0.7c0.3,0.2,0.8,0.1,0.9-0.3c0.2-0.3,0.1-0.8-0.3-0.9l-0.6-0.3l1.3-2.5l8.6,4.6l-1.3,2.5l-5.5-2.9
			c-0.3-0.2-0.8-0.1-0.9,0.3c-0.2,0.3-0.1,0.8,0.3,0.9l6.2,3.3c0.2,0.1,0.4,0.1,0.5,0.1c0.2-0.1,0.3-0.2,0.4-0.3l2-3.7
			c0.1-0.2,0.1-0.4,0.1-0.5C39.7,25.2,39.5,25.1,39.4,25z"/>
		<path d="M42.4,42c0-0.4-0.3-0.7-0.7-0.7c-0.3,0-0.6,0-0.9-0.1c-1.5-0.5-2.3-2-1.8-3.5c0.5-1.5,2-2.3,3.5-1.8
			c1.5,0.5,2.3,2,1.8,3.5c-0.1,0.3-0.3,0.7-0.5,0.9c-0.2,0.3-0.2,0.7,0.1,1c0.3,0.2,0.7,0.2,1-0.1c0.3-0.4,0.6-0.9,0.8-1.4
			c0.7-2.2-0.5-4.5-2.7-5.2c-2.2-0.7-4.5,0.5-5.2,2.7c-0.7,2.2,0.5,4.5,2.7,5.2c0.4,0.1,0.9,0.2,1.4,0.2
			C42.1,42.7,42.4,42.4,42.4,42z"/>
	</g>
</g>
</svg>
