<?xml version="1.0" encoding="utf-8"?>
<!-- Generator: Adobe Illustrator 22.0.1, SVG Export Plug-In . SVG Version: 6.00 Build 0)  -->
<svg version="1.1" xmlns="http://www.w3.org/2000/svg" xmlns:xlink="http://www.w3.org/1999/xlink" x="0px" y="0px"
	 viewBox="0 0 64 64" style="enable-background:new 0 0 64 64;" xml:space="preserve">
<style type="text/css">
	.st0{opacity:0.85;}
	.st1{fill:#231F20;}
	.st2{fill:none;stroke:#231F20;stroke-width:2.2;stroke-linecap:round;stroke-linejoin:round;stroke-miterlimit:10;}
	.st3{fill:#000F23;}
	.st4{clip-path:url(#SVGID_2_);enable-background:new    ;}
	.st5{fill-rule:evenodd;clip-rule:evenodd;fill:#000F23;}
	.st6{fill:none;stroke:#000000;stroke-width:3;stroke-linecap:round;stroke-linejoin:round;stroke-miterlimit:10;}
	.st7{stroke:#000000;stroke-miterlimit:10;}
	.st8{fill:#333333;}
	.st9{fill-rule:evenodd;clip-rule:evenodd;}
</style>
<g id="Layer_1">
</g>
<g id="Layer_2">
	<g>
		<path class="st1" d="M60.8,20.7H51c-0.4,0-0.8,0.1-1.1,0.2v-9.4c0-1-0.8-2-1.7-2.3L33.3,4c-1-0.3-2.7-0.3-3.7,0L15.1,9.1
			c-0.9,0.3-1.7,1.4-1.7,2.4v9.4c-0.3-0.1-0.7-0.2-1.1-0.2H3.2c-1.8,0-3.2,1.4-3.2,3.2V57c0,1.8,1.4,3.2,3.2,3.2h9.2
			c0.6,0,1.1-0.2,1.6-0.4c0.3,0.3,0.7,0.4,1.1,0.4h33.2c0.4,0,0.8-0.2,1.1-0.4c0.5,0.3,1,0.4,1.6,0.4h9.8c1.8,0,3.2-1.4,3.2-3.2
			V23.9C64,22.2,62.6,20.7,60.8,20.7z M13.4,57c0,0.5-0.4,1-1,1H3.2c-0.5,0-1-0.4-1-1V23.9c0-0.5,0.4-1,1-1h9.2c0.5,0,1,0.4,1,1V57z
			 M47.7,58H35.7v-8.9h-7.3V58H15.7V11.5c0-0.1,0.1-0.3,0.2-0.3l14.5-5.1c0.5-0.2,1.7-0.2,2.2,0l14.9,5.1c0.1,0,0.2,0.2,0.2,0.3V58z
			 M61.8,57c0,0.5-0.4,1-1,1H51c-0.5,0-1-0.4-1-1V23.9c0-0.5,0.4-1,1-1h9.8c0.5,0,1,0.4,1,1V57z"/>
		<rect x="20.6" y="13.4" class="st1" width="5" height="5"/>
		<rect x="29.5" y="13.4" class="st1" width="5" height="5"/>
		<rect x="38.4" y="13.4" class="st1" width="5" height="5"/>
		<rect x="20.6" y="22.3" class="st1" width="5" height="5"/>
		<rect x="29.5" y="22.3" class="st1" width="5" height="5"/>
		<rect x="38.4" y="22.3" class="st1" width="5" height="5"/>
		<rect x="20.6" y="31.3" class="st1" width="5" height="5"/>
		<rect x="29.5" y="31.3" class="st1" width="5" height="5"/>
		<rect x="38.4" y="31.3" class="st1" width="5" height="5"/>
		<rect x="20.6" y="40.2" class="st1" width="5" height="5"/>
		<rect x="29.5" y="40.2" class="st1" width="5" height="5"/>
		<rect x="38.4" y="40.2" class="st1" width="5" height="5"/>
		<rect x="5.1" y="33.7" class="st1" width="5" height="5"/>
		<rect x="5.1" y="25.3" class="st1" width="5" height="5"/>
		<rect x="5.1" y="42.1" class="st1" width="5" height="5"/>
		<rect x="53.7" y="33.7" class="st1" width="5" height="5"/>
		<rect x="53.7" y="25.3" class="st1" width="5" height="5"/>
		<rect x="53.7" y="42.1" class="st1" width="5" height="5"/>
	</g>
	<g>
		<g>
			<defs>
				<rect id="SVGID_1_" x="-2848" y="-1480" width="5760" height="3600"/>
			</defs>
			<clipPath id="SVGID_2_">
				<use xlink:href="#SVGID_1_"  style="overflow:visible;"/>
			</clipPath>
		</g>
	</g>
</g>
</svg>
