<?xml version="1.0" encoding="utf-8"?>
<!-- Generator: Adobe Illustrator 22.0.1, SVG Export Plug-In . SVG Version: 6.00 Build 0)  -->
<svg version="1.1" id="Layer_1" xmlns="http://www.w3.org/2000/svg" xmlns:xlink="http://www.w3.org/1999/xlink" x="0px" y="0px"
	 viewBox="0 0 64 64" style="enable-background:new 0 0 64 64;" xml:space="preserve">
<g>
	<path d="M32,0C14.4,0,0,14.4,0,32s14.4,32,32,32s32-14.4,32-32S49.6,0,32,0z M32,61.6C15.7,61.6,2.4,48.3,2.4,32S15.7,2.4,32,2.4
		S61.6,15.7,61.6,32S48.3,61.6,32,61.6z"/>
	<path d="M24.2,25.1c-0.6-0.1-1.2,0.2-1.3,0.8L21,33.7l-2.4-7.9c-0.1-0.5-0.6-0.8-1-0.8c0,0,0,0,0,0c-0.5,0-0.9,0.3-1,0.8l-2.5,8
		l-2-8.1c-0.1-0.6-0.8-0.9-1.3-0.8c-0.6,0.1-0.9,0.7-0.8,1.3l3,11.8c0.1,0.5,0.5,0.8,1,0.8c0,0,0,0,0,0c0.5,0,0.9-0.3,1-0.8l2.6-8.3
		l2.6,8.3c0.1,0.5,0.6,0.8,1.1,0.8c0.5,0,0.9-0.4,1-0.8L25,26.5C25.1,25.9,24.7,25.3,24.2,25.1z"/>
	<path d="M53.5,25.1c-0.6-0.1-1.2,0.2-1.3,0.8l-1.9,7.8l-2.4-7.9c-0.1-0.5-0.6-0.8-1-0.8c0,0,0,0,0,0c-0.5,0-0.9,0.3-1,0.8l-2.5,8
		l-2-8.1c-0.2-0.6-0.7-0.9-1.3-0.8c-0.6,0.1-0.9,0.7-0.8,1.3l3,11.8c0.1,0.5,0.5,0.8,1,0.8c0,0,0,0,0,0c0.5,0,0.9-0.3,1-0.8l2.6-8.3
		l2.6,8.3c0.1,0.5,0.6,0.8,1.1,0.8c0.5,0,0.9-0.4,1-0.8l2.8-11.7C54.4,25.9,54,25.3,53.5,25.1z"/>
	<path d="M32,25.8c-3.4,0-6.2,3-6.2,6.6S28.6,39,32,39s6.2-3,6.2-6.6S35.4,25.8,32,25.8z M32,36.8c-2.2,0-4-2-4-4.4s1.8-4.4,4-4.4
		c2.2,0,4,2,4,4.4S34.2,36.8,32,36.8z"/>
</g>
<g id="Layer_2_1_">
</g>
</svg>
