<?xml version="1.0" encoding="utf-8"?>
<!-- Generator: Adobe Illustrator 22.0.1, SVG Export Plug-In . SVG Version: 6.00 Build 0)  -->
<svg version="1.1" id="Layer_1" xmlns="http://www.w3.org/2000/svg" xmlns:xlink="http://www.w3.org/1999/xlink" x="0px" y="0px"
	 viewBox="0 0 64 64" style="enable-background:new 0 0 64 64;" xml:space="preserve">
<g>
	<path d="M16.6,28.2c-0.6-0.1-1.2,0.2-1.3,0.8L13,38.9L10,29c-0.1-0.5-0.6-0.8-1.1-0.8S8,28.5,7.8,29L4.7,39L2.2,28.9
		C2,28.3,1.4,28,0.8,28.1c-0.6,0.1-0.9,0.7-0.8,1.3l3.5,13.9c0.1,0.5,0.5,0.8,1,0.8c0,0,0,0,0,0c0.5,0,0.9-0.3,1-0.8L8.9,33
		l3.2,10.4c0.1,0.5,0.6,0.8,1.1,0.8c0.5,0,0.9-0.4,1-0.9l3.2-13.8C17.6,29,17.2,28.4,16.6,28.2z"/>
	<path d="M51.3,28.2c-0.6-0.1-1.2,0.2-1.3,0.8L47.6,39l-3.1-10c-0.1-0.5-0.6-0.8-1-0.8s-0.9,0.3-1,0.8L39.2,39l-2.5-10.1
		c-0.1-0.6-0.7-0.9-1.3-0.8c-0.6,0.1-0.9,0.7-0.8,1.3L38,43.4c0.1,0.5,0.5,0.8,1,0.8c0.5,0,0.9-0.3,1.1-0.8L43.4,33l3.2,10.4
		c0.1,0.5,0.6,0.8,1,0.8c0,0,0,0,0,0c0.5,0,0.9-0.4,1-0.8l3.3-13.8C52.2,29,51.8,28.4,51.3,28.2z"/>
	<path d="M26,29.2c-3.9,0-7.1,3.4-7.1,7.5c0,4.1,3.2,7.5,7.1,7.5s7.1-3.4,7.1-7.5C33.1,32.6,29.9,29.2,26,29.2z M26,42
		c-2.7,0-4.9-2.4-4.9-5.3c0-2.9,2.2-5.3,4.9-5.3s4.9,2.4,4.9,5.3C30.9,39.6,28.7,42,26,42z"/>
	<path d="M63.6,20c-0.4-0.3-1-0.2-1.3,0.2l-5.3,7.6c-0.3,0.4-0.2,1,0.2,1.3c0.2,0.1,0.3,0.2,0.5,0.2c0.3,0,0.6-0.1,0.7-0.4l5.3-7.6
		C64.1,20.8,64,20.2,63.6,20z"/>
	<path d="M56.2,29.7c-0.5,0-0.9,0.4-0.9,0.9c0,0.5,0.4,0.9,0.9,0.9s0.9-0.4,0.9-0.9C57.1,30.1,56.7,29.7,56.2,29.7z"/>
</g>
<g id="Layer_2_1_">
</g>
</svg>
