<?xml version="1.0" encoding="utf-8"?>
<!-- Generator: Adobe Illustrator 22.0.1, SVG Export Plug-In . SVG Version: 6.00 Build 0)  -->
<svg version="1.1" xmlns="http://www.w3.org/2000/svg" xmlns:xlink="http://www.w3.org/1999/xlink" x="0px" y="0px"
	 viewBox="0 0 64 64" style="enable-background:new 0 0 64 64;" xml:space="preserve">
<style type="text/css">
	.st0{fill:#231F20;}
	.st1{fill-rule:evenodd;clip-rule:evenodd;fill:#231F20;}
	.st2{fill:none;stroke:#000000;stroke-width:1.4;stroke-miterlimit:10;}
	.st3{fill:none;stroke:#231F20;stroke-width:2.2;stroke-miterlimit:10;}
	.st4{fill:none;stroke:#231F20;stroke-width:3;stroke-linecap:round;stroke-miterlimit:10;}
	.st5{fill:none;stroke:#231F20;stroke-width:2.2;stroke-linecap:round;stroke-linejoin:round;stroke-miterlimit:10;}
	.st6{fill:none;stroke:#000000;stroke-width:2.2;stroke-linecap:round;stroke-linejoin:round;stroke-miterlimit:10;}
	.st7{fill:none;stroke:#231F20;stroke-width:2.2;stroke-linecap:round;stroke-miterlimit:10;}
	.st8{fill:none;stroke:#000000;stroke-width:2.2;stroke-miterlimit:10;}
	.st9{fill:none;stroke:#000000;stroke-width:2;stroke-linecap:round;stroke-linejoin:round;stroke-miterlimit:10;}
	.st10{fill:none;stroke:#000000;stroke-width:1.8;stroke-linejoin:round;stroke-miterlimit:10;}
	
		.st11{fill-rule:evenodd;clip-rule:evenodd;fill:none;stroke:#000000;stroke-width:2.2;stroke-linecap:round;stroke-linejoin:round;stroke-miterlimit:10;}
	.st12{fill:#221F1F;}
	.st13{fill:none;stroke:#000000;stroke-width:1.8;stroke-miterlimit:10;}
	.st14{fill:none;stroke:#000000;stroke-width:1.7;stroke-linecap:round;stroke-linejoin:round;stroke-miterlimit:10;}
	.st15{fill:none;stroke:#000000;stroke-width:1.8;stroke-linecap:round;stroke-linejoin:round;stroke-miterlimit:10;}
	.st16{fill:none;stroke:#000000;stroke-width:1.6;stroke-linecap:round;stroke-linejoin:round;stroke-miterlimit:10;}
	.st17{fill:none;stroke:#231F20;stroke-width:2;stroke-miterlimit:10;}
	.st18{fill:#0A1423;}
	.st19{fill:#F4831F;}
	.st20{fill:none;stroke:#000000;stroke-width:0.4736;stroke-miterlimit:10;}
	.st21{fill:none;stroke:#000000;stroke-width:0.431;stroke-miterlimit:10;}
	.st22{fill-rule:evenodd;clip-rule:evenodd;fill:none;stroke:#000000;stroke-width:0.6314;stroke-miterlimit:10;}
	.st23{fill-rule:evenodd;clip-rule:evenodd;fill:none;stroke:#231F20;stroke-width:0.4567;stroke-miterlimit:10;}
	.st24{fill-rule:evenodd;clip-rule:evenodd;fill:none;stroke:#231F20;stroke-width:0.2284;stroke-miterlimit:10;}
	.st25{fill:none;stroke:#000000;stroke-width:0.419;stroke-miterlimit:10;}
	.st26{fill:none;stroke:#000000;stroke-width:0.3813;stroke-miterlimit:10;}
	.st27{fill:#FFFFFF;stroke:#000000;stroke-width:0.419;stroke-miterlimit:10;}
	.st28{fill-rule:evenodd;clip-rule:evenodd;fill:none;stroke:#000000;stroke-width:0.5586;stroke-miterlimit:10;}
	.st29{fill-rule:evenodd;clip-rule:evenodd;fill:#FFFFFF;}
	.st30{fill-rule:evenodd;clip-rule:evenodd;fill:#FFFFFF;stroke:#231F20;stroke-width:0.2682;stroke-miterlimit:10;}
	.st31{fill-rule:evenodd;clip-rule:evenodd;}
	.st32{fill:none;stroke:#000000;stroke-width:2;stroke-miterlimit:10;}
	.st33{fill:#FFFFFF;}
	.st34{opacity:0.85;}
</style>
<g id="Layer_1">
	<g>
		<path d="M32,0C14.4,0,0,14.4,0,32s14.4,32,32,32s32-14.4,32-32S49.6,0,32,0z M32,61.6C15.7,61.6,2.4,48.3,2.4,32S15.7,2.4,32,2.4
			S61.6,15.7,61.6,32S48.3,61.6,32,61.6z"/>
		<path d="M49.5,22.5c-18.3-14.3-35,0.3-35.1,0.5c-0.6,0.6-0.7,1.5-0.1,2.1c0.3,0.3,0.7,0.5,1.1,0.5c0.4,0,0.7-0.1,1-0.4
			c0.6-0.5,14.9-13.1,31.3-0.4c0.7,0.5,1.6,0.4,2.1-0.3C50.3,23.9,50.2,23,49.5,22.5z"/>
		<path d="M20,29.8c-0.6,0.6-0.6,1.5,0,2.1c0.3,0.3,0.7,0.5,1.1,0.5c0.4,0,0.8-0.1,1-0.4c0.4-0.4,9.3-8.9,19.8-0.2
			c0.6,0.5,1.6,0.4,2.1-0.2c0.5-0.6,0.4-1.6-0.2-2.1C33.8,21.1,23.9,26.1,20,29.8z"/>
		<path d="M39.5,36.5C33,31.4,26.7,34.6,24.3,37c-0.6,0.6-0.6,1.5,0,2.1c0.3,0.3,0.7,0.4,1.1,0.4c0.4,0,0.8-0.1,1.1-0.4
			c0.2-0.2,5.1-5.1,11.2-0.3c0.7,0.5,1.6,0.4,2.1-0.3C40.3,38,40.2,37,39.5,36.5z"/>
		<path d="M32,41.5c-1.7,0-3.2,1.4-3.2,3.2s1.4,3.2,3.2,3.2s3.2-1.4,3.2-3.2S33.7,41.5,32,41.5z"/>
	</g>
</g>
<g id="Layer_2">
</g>
</svg>
