<?xml version="1.0" encoding="utf-8"?>
<!-- Generator: Adobe Illustrator 22.0.1, SVG Export Plug-In . SVG Version: 6.00 Build 0)  -->
<svg version="1.1" xmlns="http://www.w3.org/2000/svg" xmlns:xlink="http://www.w3.org/1999/xlink" x="0px" y="0px"
	 viewBox="0 0 64 64" style="enable-background:new 0 0 64 64;" xml:space="preserve">
<style type="text/css">
	.st0{fill:#231F20;}
	.st1{fill-rule:evenodd;clip-rule:evenodd;fill:#231F20;}
	.st2{fill:none;stroke:#000000;stroke-width:1.4;stroke-miterlimit:10;}
	.st3{fill:none;stroke:#231F20;stroke-width:2.2;stroke-miterlimit:10;}
	.st4{fill:none;stroke:#231F20;stroke-width:3;stroke-linecap:round;stroke-miterlimit:10;}
	.st5{fill:none;stroke:#231F20;stroke-width:2.2;stroke-linecap:round;stroke-linejoin:round;stroke-miterlimit:10;}
	.st6{fill:none;stroke:#000000;stroke-width:2.2;stroke-linecap:round;stroke-linejoin:round;stroke-miterlimit:10;}
	.st7{fill:none;stroke:#231F20;stroke-width:2.2;stroke-linecap:round;stroke-miterlimit:10;}
	.st8{fill:none;stroke:#000000;stroke-width:2.2;stroke-miterlimit:10;}
	.st9{fill:none;stroke:#000000;stroke-width:2;stroke-linecap:round;stroke-linejoin:round;stroke-miterlimit:10;}
	.st10{fill:none;stroke:#000000;stroke-width:1.8;stroke-linejoin:round;stroke-miterlimit:10;}
	
		.st11{fill-rule:evenodd;clip-rule:evenodd;fill:none;stroke:#000000;stroke-width:2.2;stroke-linecap:round;stroke-linejoin:round;stroke-miterlimit:10;}
	.st12{fill:#221F1F;}
	.st13{fill:none;stroke:#000000;stroke-width:1.8;stroke-miterlimit:10;}
	.st14{fill:none;stroke:#000000;stroke-width:1.7;stroke-linecap:round;stroke-linejoin:round;stroke-miterlimit:10;}
	.st15{fill:none;stroke:#000000;stroke-width:1.8;stroke-linecap:round;stroke-linejoin:round;stroke-miterlimit:10;}
	.st16{fill:none;stroke:#000000;stroke-width:1.6;stroke-linecap:round;stroke-linejoin:round;stroke-miterlimit:10;}
	.st17{fill:#0A1423;}
	.st18{fill:#F4831F;}
	.st19{fill:none;stroke:#000000;stroke-width:0.4736;stroke-miterlimit:10;}
	.st20{fill:none;stroke:#000000;stroke-width:0.431;stroke-miterlimit:10;}
	.st21{fill-rule:evenodd;clip-rule:evenodd;fill:none;stroke:#000000;stroke-width:0.6314;stroke-miterlimit:10;}
	.st22{fill-rule:evenodd;clip-rule:evenodd;fill:none;stroke:#231F20;stroke-width:0.4567;stroke-miterlimit:10;}
	.st23{fill-rule:evenodd;clip-rule:evenodd;fill:none;stroke:#231F20;stroke-width:0.2284;stroke-miterlimit:10;}
	.st24{fill:none;stroke:#000000;stroke-width:0.419;stroke-miterlimit:10;}
	.st25{fill:none;stroke:#000000;stroke-width:0.3813;stroke-miterlimit:10;}
	.st26{fill:#FFFFFF;stroke:#000000;stroke-width:0.419;stroke-miterlimit:10;}
	.st27{fill-rule:evenodd;clip-rule:evenodd;fill:none;stroke:#000000;stroke-width:0.5586;stroke-miterlimit:10;}
	.st28{fill-rule:evenodd;clip-rule:evenodd;fill:#FFFFFF;}
	.st29{fill-rule:evenodd;clip-rule:evenodd;fill:#FFFFFF;stroke:#231F20;stroke-width:0.2682;stroke-miterlimit:10;}
	.st30{fill-rule:evenodd;clip-rule:evenodd;}
	.st31{fill:none;stroke:#000000;stroke-width:2;stroke-miterlimit:10;}
	.st32{fill:#FFFFFF;}
	.st33{opacity:0.85;}
</style>
<g id="Layer_1">
	<g>
		<path class="st0" d="M41.3,17.9c-0.6-0.5-1.4-0.8-2.3-0.7c-0.8,0.1-1.6,0.5-2.1,1.1l-5,6.3l0,0L8.4,54c-0.5,0.6-0.8,1.5-0.7,2.3
			c0.1,0.8,0.5,1.6,1.1,2.1c0.6,0.4,1.2,0.7,1.9,0.7c0.1,0,0.2,0,0.3,0c0.8-0.1,1.6-0.5,2.1-1.1l28.6-35.6l0,0l0,0
			c0.5-0.6,0.8-1.5,0.7-2.3C42.4,19.2,42,18.4,41.3,17.9z M11.7,56.6C11.5,56.9,11.3,57,11,57c-0.3,0-0.6,0-0.8-0.2
			c-0.2-0.2-0.4-0.4-0.4-0.7c0-0.3,0-0.6,0.2-0.8l21.7-27.1c0.1,0.1,0.1,0.2,0.2,0.3c0,0.1,0.1,0.1,0.1,0.2c0.1,0.2,0.3,0.3,0.4,0.4
			c0.1,0.1,0.3,0.2,0.5,0.3c0,0,0.1,0,0.2,0.1c0.1,0.1,0.2,0.1,0.3,0.1c0,0,0,0,0,0L11.7,56.6z M35.2,27.3L35.2,27.3
			c-0.2,0.2-0.4,0.4-0.7,0.4c-0.3,0-0.6,0-0.8-0.2c-0.2-0.2-0.4-0.5-0.4-0.7c0-0.3,0-0.6,0.2-0.8l5-6.3c0.2-0.2,0.4-0.4,0.7-0.4
			c0,0,0.1,0,0.1,0c0.2,0,0.5,0.1,0.7,0.2h0c0.5,0.4,0.5,1.1,0.2,1.5L35.2,27.3z"/>
		<rect x="30.8" y="7.7" transform="matrix(0.7072 -0.707 0.707 0.7072 1.0397 25.9128)" class="st0" width="2" height="8"/>
		<rect x="24.1" y="18.2" class="st0" width="8" height="2"/>
		<rect x="38.7" y="28.9" class="st0" width="2" height="8"/>
		<rect x="45.2" y="24.2" transform="matrix(0.7072 -0.707 0.707 0.7072 -6.3784 40.949)" class="st0" width="2" height="8"/>
		<rect x="45.9" y="19.7" class="st0" width="8" height="2"/>
		<rect x="43.3" y="11.7" transform="matrix(0.7071 -0.7071 0.7071 0.7071 4.851 37.1439)" class="st0" width="8" height="2"/>
		<rect x="38.7" y="5" class="st0" width="2" height="8"/>
	</g>
</g>
<g id="Layer_2">
</g>
</svg>
