<?xml version="1.0" encoding="utf-8"?>
<!-- Generator: Adobe Illustrator 22.1.0, SVG Export Plug-In . SVG Version: 6.00 Build 0)  -->
<svg version="1.1" id="Layer_1" xmlns="http://www.w3.org/2000/svg" xmlns:xlink="http://www.w3.org/1999/xlink" x="0px" y="0px"
	 viewBox="0 0 64 64" style="enable-background:new 0 0 64 64;" xml:space="preserve">
<style type="text/css">
	.st0{fill:#231F20;}
</style>
<g id="Layer_1_1_">
	<g>
		<path class="st0" d="M44.4,15.3c-0.7-0.6-1.7-0.9-2.7-0.8c-0.9,0.1-1.9,0.6-2.5,1.3l-5.9,7.5l0,0L5.5,58c-0.6,0.7-0.9,1.8-0.8,2.7
			c0.1,0.9,0.6,1.9,1.3,2.5C6.7,63.6,7.4,64,8.2,64c0.1,0,0.2,0,0.4,0c0.9-0.1,1.9-0.6,2.5-1.3l33.8-42.1l0,0l0,0
			c0.6-0.7,0.9-1.8,0.8-2.7C45.7,16.8,45.3,15.9,44.4,15.3z M9.4,61c-0.2,0.4-0.5,0.5-0.8,0.5s-0.7,0-0.9-0.2
			c-0.2-0.2-0.5-0.5-0.5-0.8c0-0.4,0-0.7,0.2-0.9l25.7-32.1c0.1,0.1,0.1,0.2,0.2,0.4c0,0.1,0.1,0.1,0.1,0.2c0.1,0.2,0.4,0.4,0.5,0.5
			c0.1,0.1,0.4,0.2,0.6,0.4c0,0,0.1,0,0.2,0.1c0.1,0.1,0.2,0.1,0.4,0.1l0,0L9.4,61z M37.2,26.4L37.2,26.4c-0.2,0.2-0.5,0.5-0.8,0.5
			s-0.7,0-0.9-0.2C35.2,26.4,35,26,35,25.8c0-0.4,0-0.7,0.2-0.9l5.9-7.5c0.2-0.2,0.5-0.5,0.8-0.5h0.1c0.2,0,0.6,0.1,0.8,0.2l0,0
			c0.6,0.5,0.6,1.3,0.2,1.8L37.2,26.4z"/>
		<rect x="32" y="3.2" transform="matrix(0.7072 -0.707 0.707 0.7072 4.1118 25.7913)" class="st0" width="2.4" height="9.5"/>
		<rect x="24.1" y="15.6" class="st0" width="9.5" height="2.4"/>
		<rect x="41.4" y="28.3" class="st0" width="2.4" height="9.5"/>
		<rect x="49.1" y="22.7" transform="matrix(0.7072 -0.707 0.707 0.7072 -4.7103 43.5848)" class="st0" width="2.4" height="9.5"/>
		<rect x="49.9" y="17.4" class="st0" width="9.5" height="2.4"/>
		<rect x="46.8" y="7.9" transform="matrix(0.7071 -0.7071 0.7071 0.7071 8.6622 39.0789)" class="st0" width="9.5" height="2.4"/>
		<rect x="41.4" class="st0" width="2.4" height="9.5"/>
	</g>
</g>
<g id="Layer_2_1_">
</g>
</svg>
