<?xml version="1.0" encoding="utf-8"?>
<!-- Generator: Adobe Illustrator 22.1.0, SVG Export Plug-In . SVG Version: 6.00 Build 0)  -->
<svg version="1.1" id="Layer_1" xmlns="http://www.w3.org/2000/svg" xmlns:xlink="http://www.w3.org/1999/xlink" x="0px" y="0px"
	 viewBox="0 0 64 64" style="enable-background:new 0 0 64 64;" xml:space="preserve">
<style type="text/css">
	.st0{fill:#000F23;}
</style>
<g id="Layer_1_1_">
</g>
<g>
	<path class="st0" d="M61.2,48H2.7c-0.7,0-1.3,0.3-1.9,0.8C0.3,49.3,0,49.9,0,50.7V56c0,0.7,0.3,1.3,0.8,1.9
		c0.5,0.5,1.2,0.8,1.9,0.8h58.6c0.7,0,1.3-0.3,1.9-0.8c0.5-0.5,0.8-1.2,0.8-1.9v-5.3c0-0.7-0.3-1.3-0.8-1.9C62.6,48.3,62,48,61.2,48
		z"/>
	<path class="st0" d="M61.2,26.7H2.7c-0.7,0-1.3,0.3-1.9,0.8C0.3,28,0,28.6,0,29.3v5.3c0,0.7,0.3,1.3,0.8,1.9
		C1.3,37,2,37.3,2.7,37.3h58.6c0.7,0,1.3-0.3,1.9-0.8c0.5-0.5,0.8-1.2,0.8-1.9v-5.3c0-0.7-0.3-1.3-0.8-1.9
		C62.6,26.9,62,26.7,61.2,26.7z"/>
	<path class="st0" d="M63.1,6.1c-0.5-0.5-1.2-0.8-1.9-0.8H2.7C2,5.3,1.4,5.6,0.8,6.1C0.3,6.7,0,7.3,0,8v5.3c0,0.7,0.3,1.3,0.8,1.9
		C1.3,15.7,1.9,16,2.7,16h58.6c0.7,0,1.3-0.3,1.9-0.8c0.5-0.5,0.8-1.2,0.8-1.9V8C63.9,7.3,63.6,6.7,63.1,6.1z"/>
</g>
</svg>
