<?xml version="1.0" encoding="utf-8"?>
<!-- Generator: Adobe Illustrator 22.0.1, SVG Export Plug-In . SVG Version: 6.00 Build 0)  -->
<svg version="1.1" id="Layer_1" xmlns="http://www.w3.org/2000/svg" xmlns:xlink="http://www.w3.org/1999/xlink" x="0px" y="0px"
	 viewBox="0 0 64 64" style="enable-background:new 0 0 64 64;" xml:space="preserve">
<g id="Layer_1_1_">
</g>
<g id="Layer_2_1_">
</g>
<g>
	<path d="M60.2,26.3c-0.4-0.4-0.9-0.6-1.5-0.6c-0.6,0-1,0.2-1.5,0.6L32,51.5L6.8,26.3c-0.4-0.4-0.9-0.6-1.5-0.6
		c-0.6,0-1,0.2-1.5,0.6l-3.2,3.2C0.2,29.9,0,30.4,0,31s0.2,1,0.6,1.5l29.9,29.9C31,62.8,31.4,63,32,63s1-0.2,1.5-0.6l29.9-29.9
		c0.4-0.5,0.6-1,0.6-1.5s-0.2-1-0.6-1.5L60.2,26.3z"/>
	<path d="M30.5,37.7c0.4,0.4,0.9,0.6,1.5,0.6s1-0.2,1.5-0.6L63.4,7.8C63.8,7.4,64,6.9,64,6.3c0-0.6-0.2-1-0.6-1.5l-3.2-3.2
		c-0.5-0.4-1-0.6-1.5-0.6c-0.6,0-1,0.2-1.5,0.6L32,26.9L6.8,1.7C6.4,1.2,5.9,1,5.3,1c-0.6,0-1,0.2-1.5,0.6L0.6,4.9
		C0.2,5.3,0,5.8,0,6.3s0.2,1,0.6,1.5L30.5,37.7z"/>
</g>
</svg>
