<?xml version="1.0" encoding="utf-8"?>
<!-- Generator: Adobe Illustrator 22.0.1, SVG Export Plug-In . SVG Version: 6.00 Build 0)  -->
<svg version="1.1" xmlns="http://www.w3.org/2000/svg" xmlns:xlink="http://www.w3.org/1999/xlink" x="0px" y="0px"
	 viewBox="0 0 64 64" style="enable-background:new 0 0 64 64;" xml:space="preserve">
<style type="text/css">
	.st0{opacity:0.85;}
	.st1{fill:#231F20;}
	.st2{fill:none;stroke:#231F20;stroke-width:2.2;stroke-linecap:round;stroke-linejoin:round;stroke-miterlimit:10;}
	.st3{fill:#000F23;}
	.st4{clip-path:url(#SVGID_2_);enable-background:new    ;}
	.st5{fill-rule:evenodd;clip-rule:evenodd;fill:#000F23;}
	.st6{fill:none;stroke:#000000;stroke-width:3;stroke-linecap:round;stroke-linejoin:round;stroke-miterlimit:10;}
	.st7{stroke:#000000;stroke-miterlimit:10;}
	.st8{fill:#333333;}
	.st9{fill-rule:evenodd;clip-rule:evenodd;}
</style>
<g id="Layer_1">
</g>
<g id="Layer_2">
	<g>
		<path class="st1" d="M51.9,55.3c0,2.5-2.1,4.6-4.6,4.6H6.8c-2.5,0-4.6-2.1-4.6-4.6V12.8c0-1.3,1-2.4,2.3-2.4h29.7V8.3H4.5
			C2,8.3,0,10.3,0,12.8v42.4c0,3.8,3.1,6.8,6.8,6.8h40.5c3.7,0,6.8-3,6.8-6.8V31.8h-2.2V55.3z"/>
		<path class="st1" d="M61.7,11.3l-6.9-7c-1.3-1.3-3.5-1.3-4.8,0L22.5,31.9c-0.7,0.7-1.3,2-1.4,3l-0.7,7.4c-0.1,1,0.3,2,1,2.7
			c0.6,0.6,1.5,1,2.3,1c0.1,0,0.3,0,0.4,0l7.9-0.9c0.5-0.1,1.2-0.4,1.6-0.8l28-28.2C62.9,14.7,62.9,12.6,61.7,11.3z M60.1,14.5
			l-28,28.2c-0.1,0.1-0.3,0.2-0.3,0.2L24,43.7c-0.3,0-0.7-0.1-0.9-0.3c-0.2-0.2-0.4-0.6-0.3-0.9l0.7-7.4c0-0.5,0.4-1.3,0.8-1.6
			L51.5,5.9c0.2-0.2,0.5-0.3,0.8-0.3s0.6,0.1,0.8,0.3l6.9,7C60.5,13.3,60.5,14,60.1,14.5z"/>
	</g>
	<g>
		<g>
			<defs>
				<rect id="SVGID_1_" x="-2944" y="-1384" width="5760" height="3600"/>
			</defs>
			<clipPath id="SVGID_2_">
				<use xlink:href="#SVGID_1_"  style="overflow:visible;"/>
			</clipPath>
		</g>
	</g>
</g>
</svg>
