<?xml version="1.0" encoding="utf-8"?>
<!-- Generator: Adobe Illustrator 16.0.0, SVG Export Plug-In . SVG Version: 6.00 Build 0)  -->
<!DOCTYPE svg PUBLIC "-//W3C//DTD SVG 1.1//EN" "http://www.w3.org/Graphics/SVG/1.1/DTD/svg11.dtd">
<svg version="1.1" id="Layer_1" xmlns="http://www.w3.org/2000/svg" xmlns:xlink="http://www.w3.org/1999/xlink" x="0px" y="0px"
	 width="595.279px" height="841.891px" viewBox="0 0 595.279 841.891" enable-background="new 0 0 595.279 841.891"
	 xml:space="preserve">
<g id="Layer_1_1_">
</g>
<g>
	<path fill="#000F23" d="M297.64,123.305C133.008,123.305,0,256.313,0,420.945c0,164.632,133.008,297.64,297.64,297.64
		s297.64-133.008,297.64-297.64C595.28,256.313,462.272,123.305,297.64,123.305z M297.64,653.477
		c-128.357,0-232.531-104.174-232.531-232.531S169.282,188.414,297.64,188.414s232.531,104.174,232.531,232.532
		S425.997,653.477,297.64,653.477z"/>
	<path fill="#000F23" d="M279.037,431.177h37.205c14.882,0,26.974-12.092,26.974-26.974V276.775
		c0-14.882-12.092-26.043-26.974-26.974h-37.205c-14.882,0-26.043,12.092-26.974,26.974v128.357
		C252.994,419.085,264.156,431.177,279.037,431.177z"/>
	<path fill="#000F23" d="M297.64,484.193c-29.764,0-53.947,24.184-53.947,53.947c0,29.765,24.184,53.947,53.947,53.947
		c14.882,0,27.903-5.58,38.135-15.812c9.302-9.302,15.812-23.254,15.812-38.136C351.587,508.377,327.404,484.193,297.64,484.193z"/>
</g>
</svg>
