<?xml version="1.0" encoding="utf-8"?>
<!-- Generator: Adobe Illustrator 22.0.1, SVG Export Plug-In . SVG Version: 6.00 Build 0)  -->
<svg version="1.1" id="Layer_1" xmlns="http://www.w3.org/2000/svg" xmlns:xlink="http://www.w3.org/1999/xlink" x="0px" y="0px"
	 viewBox="0 0 64 64" style="enable-background:new 0 0 64 64;" xml:space="preserve">
<style type="text/css">
	.st0{fill:#333333;}
</style>
<g id="Layer_1_1_">
</g>
<g>
	<path class="st0" d="M56.5,0.2c-16.3,0-32.7,0-49,0C2.8,0.2,0,3,0,7.6c0,16.2,0,32.5,0,48.7c0,4.7,2.8,7.5,7.5,7.5
		c8.2,0,16.3,0,24.5,0s16.4,0,24.6,0c4.6,0,7.4-2.8,7.4-7.4c0-16.3,0-32.6,0-48.8C64,3,61.2,0.2,56.5,0.2z M56.5,59.3
		c-8.2,0-16.4,0-24.6,0c-8.2,0-16.4,0-24.6,0c-2.1,0-2.9-0.8-2.9-2.9c0-16.3,0-32.6,0-48.8c0-2,0.8-2.8,2.8-2.8
		c16.4,0,32.8,0,49.2,0c2,0,2.8,0.8,2.8,2.8c0.2,16.2,0.2,32.5,0.2,48.8C59.4,58.5,58.6,59.3,56.5,59.3z"/>
	<path class="st0" d="M44,19.3c-4.2,0-8.3,0-12.5,0c-4.1,0-8.2,0-12.4,0c-1.5,0-2.5,1-2.5,2.3c0,1.3,1,2.2,2.4,2.2
		c8.3,0,16.6,0,24.8,0c0.5,0,1.1-0.2,1.5-0.5c0.8-0.5,1.1-1.5,0.8-2.4C46,19.9,45.2,19.3,44,19.3z"/>
	<path class="st0" d="M12,16.7c7.5,0,15,0,22.5,0c0.5,0,1.1-0.2,1.5-0.5c0.8-0.5,1.1-1.5,0.8-2.4c-0.3-1-1.1-1.6-2.3-1.6
		c-3.7,0-7.5,0-11.2,0c-3.8,0-7.5,0-11.3,0c-1.5,0-2.5,1-2.5,2.3C9.5,15.7,10.6,16.6,12,16.7z"/>
	<path class="st0" d="M11.9,33.3c3.8,0,7.5,0,11.3,0c3.7,0,7.5,0,11.2,0c1.5,0,2.5-1,2.5-2.3s-1-2.3-2.5-2.3c-7.5,0-14.9,0-22.4,0
		c-0.5,0-1,0.1-1.4,0.4c-0.8,0.5-1.2,1.6-1,2.5C9.9,32.6,10.7,33.3,11.9,33.3z"/>
	<path class="st0" d="M34.6,47.9c-5.9,0-11.8,0-17.7,0c-1.6,0-2.6,0.9-2.6,2.3c0,1.4,1.1,2.3,2.7,2.3c2.9,0,5.8,0,8.8,0
		c2.9,0,5.9,0,8.8,0c0.5,0,1.1-0.2,1.6-0.4c0.9-0.5,1.2-1.6,0.9-2.5C36.7,48.4,35.9,47.9,34.6,47.9z"/>
	<path class="st0" d="M20.7,42.9c1.5,0,2.6-1,2.6-2.3c0-1.3-1.1-2.2-2.5-2.2c-2.9,0-5.8,0-8.6,0c-1.5,0-2.5,1-2.5,2.3s1,2.3,2.5,2.3
		s2.9,0,4.4,0C17.8,42.9,19.3,42.9,20.7,42.9z"/>
</g>
</svg>
