<?xml version="1.0" encoding="utf-8"?>
<!-- Generator: Adobe Illustrator 22.1.0, SVG Export Plug-In . SVG Version: 6.00 Build 0)  -->
<svg version="1.1" id="Layer_1" xmlns="http://www.w3.org/2000/svg" xmlns:xlink="http://www.w3.org/1999/xlink" x="0px" y="0px"
	 viewBox="0 0 64 64" style="enable-background:new 0 0 64 64;" xml:space="preserve">
<style type="text/css">
	.st0{fill:#000F23;}
</style>
<g id="Layer_1_1_">
</g>
<g>
	<path class="st0" d="M32,0C14.3,0,0,14.3,0,32s14.3,32,32,32s32-14.3,32-32S49.7,0,32,0z M32,57C18.2,57,7,45.8,7,32S18.2,7,32,7
		s25,11.2,25,25S45.8,57,32,57z"/>
	<path class="st0" d="M34.7,40h-6c-0.3,0-0.5,0.1-0.7,0.3c-0.2,0.2-0.3,0.4-0.3,0.7v6c0,0.3,0.1,0.5,0.3,0.7s0.4,0.3,0.7,0.3h6
		c0.3,0,0.5-0.1,0.7-0.3c0.2-0.2,0.3-0.4,0.3-0.7v-6c0-0.2-0.1-0.5-0.3-0.7C35.2,40.1,35,40,34.7,40z"/>
	<path class="st0" d="M39.9,18.9c-1.1-0.9-2.3-1.6-3.7-2.1c-1.3-0.5-2.7-0.8-4-0.8c-5.1,0-9,2.2-11.7,6.7c-0.1,0.2-0.1,0.4-0.1,0.7
		c0.1,0.2,0.2,0.4,0.4,0.6l4.1,3.1c0.2,0.1,0.4,0.2,0.6,0.2c0.3,0,0.6-0.1,0.8-0.4c1.2-1.5,2.1-2.5,2.7-2.9c0.7-0.5,1.6-0.7,2.7-0.7
		c1,0,1.9,0.3,2.7,0.8c0.8,0.6,1.2,1.2,1.2,1.9c0,0.8-0.2,1.4-0.6,1.9c-0.4,0.5-1.1,0.9-2.1,1.4c-1.3,0.6-2.5,1.5-3.6,2.7
		c-1.1,1.2-1.6,2.5-1.6,3.9V37c0,0.3,0.1,0.6,0.3,0.9c0.1,0.3,0.3,0.5,0.6,0.5h6c0.3,0,0.5-0.1,0.7-0.4c0.2-0.2,0.3-0.5,0.3-0.8
		c0-0.4,0.2-1,0.7-1.7c0.4-0.7,1-1.2,1.7-1.6c0.6-0.4,1.1-0.7,1.5-0.9c0.3-0.2,0.8-0.6,1.4-1.1c0.6-0.5,1.1-1,1.4-1.5
		c0.3-0.5,0.6-1.1,0.9-1.9c0.3-0.8,0.4-1.6,0.4-2.5c0-1.4-0.3-2.7-1-3.9C41.9,20.8,41,19.8,39.9,18.9z"/>
</g>
</svg>
