<?xml version="1.0" encoding="utf-8"?>
<!-- Generator: Adobe Illustrator 22.1.0, SVG Export Plug-In . SVG Version: 6.00 Build 0)  -->
<svg version="1.1" id="Layer_1" xmlns="http://www.w3.org/2000/svg" xmlns:xlink="http://www.w3.org/1999/xlink" x="0px" y="0px"
	 viewBox="0 0 64 64" style="enable-background:new 0 0 64 64;" xml:space="preserve">
<style type="text/css">
	.st0{fill:#231F20;}
</style>
<g id="Layer_1_1_">
</g>
<g>
	<path class="st0" d="M48.1,53.5c0,3-2.4,5.4-5.4,5.4h-32c-3,0-5.4-2.4-5.4-5.4V21.6c0-3,2.4-5.4,5.4-5.4h24.9v-5.1H10.7
		C5,11.1,0.3,15.8,0.3,21.6v31.9C0.3,59.3,5,64,10.7,64h31.9c5.8,0,10.5-4.7,10.5-10.5V28.7h-5V53.5z"/>
	<polygon class="st0" points="36.3,0 36.3,5.1 55.2,5.1 21.1,39.1 24.7,42.6 58.7,8.7 58.7,27.2 63.7,27.2 63.7,5.1 63.7,2.5 
		63.7,0 	"/>
</g>
</svg>
