<?xml version="1.0" encoding="utf-8"?>
<!-- Generator: Adobe Illustrator 22.0.1, SVG Export Plug-In . SVG Version: 6.00 Build 0)  -->
<svg version="1.1" xmlns="http://www.w3.org/2000/svg" xmlns:xlink="http://www.w3.org/1999/xlink" x="0px" y="0px"
	 viewBox="0 0 64 64" style="enable-background:new 0 0 64 64;" xml:space="preserve">
<style type="text/css">
	.st0{opacity:0.85;}
	.st1{fill:#231F20;}
	.st2{fill:none;stroke:#231F20;stroke-width:2.2;stroke-linecap:round;stroke-linejoin:round;stroke-miterlimit:10;}
	.st3{fill:#000F23;}
	.st4{clip-path:url(#SVGID_2_);enable-background:new    ;}
	.st5{fill-rule:evenodd;clip-rule:evenodd;fill:#000F23;}
	.st6{fill:none;stroke:#000000;stroke-width:3;stroke-linecap:round;stroke-linejoin:round;stroke-miterlimit:10;}
	.st7{stroke:#000000;stroke-miterlimit:10;}
	.st8{fill:#333333;}
	.st9{fill-rule:evenodd;clip-rule:evenodd;}
</style>
<g id="Layer_1">
</g>
<g id="Layer_2">
	<g>
		<g>
			<defs>
				<rect id="SVGID_1_" x="-3232" y="-1768" width="5760" height="3600"/>
			</defs>
			<clipPath id="SVGID_2_">
				<use xlink:href="#SVGID_1_"  style="overflow:visible;"/>
			</clipPath>
		</g>
	</g>
	<g>
		<path class="st3" d="M61.3,48H2.7c-0.7,0-1.3,0.3-1.9,0.8C0.3,49.3,0,49.9,0,50.7V56c0,0.7,0.3,1.3,0.8,1.9
			c0.5,0.5,1.2,0.8,1.9,0.8h58.7c0.7,0,1.3-0.3,1.9-0.8c0.5-0.5,0.8-1.2,0.8-1.9v-5.3c0-0.7-0.3-1.3-0.8-1.9
			C62.7,48.3,62.1,48,61.3,48z"/>
		<path class="st3" d="M61.3,26.7H2.7c-0.7,0-1.3,0.3-1.9,0.8C0.3,28,0,28.6,0,29.3v5.3c0,0.7,0.3,1.3,0.8,1.9
			c0.5,0.5,1.2,0.8,1.9,0.8h58.7c0.7,0,1.3-0.3,1.9-0.8c0.5-0.5,0.8-1.2,0.8-1.9v-5.3c0-0.7-0.3-1.3-0.8-1.9
			C62.7,26.9,62.1,26.7,61.3,26.7z"/>
		<path class="st3" d="M63.2,6.1c-0.5-0.5-1.2-0.8-1.9-0.8H2.7c-0.7,0-1.3,0.3-1.9,0.8C0.3,6.7,0,7.3,0,8v5.3c0,0.7,0.3,1.3,0.8,1.9
			C1.3,15.7,1.9,16,2.7,16h58.7c0.7,0,1.3-0.3,1.9-0.8c0.5-0.5,0.8-1.2,0.8-1.9V8C64,7.3,63.7,6.7,63.2,6.1z"/>
	</g>
</g>
</svg>
