<?xml version="1.0" encoding="utf-8"?>
<!-- Generator: Adobe Illustrator 22.0.1, SVG Export Plug-In . SVG Version: 6.00 Build 0)  -->
<svg version="1.1" xmlns="http://www.w3.org/2000/svg" xmlns:xlink="http://www.w3.org/1999/xlink" x="0px" y="0px"
	 viewBox="0 0 64 64" style="enable-background:new 0 0 64 64;" xml:space="preserve">
<style type="text/css">
	.st0{opacity:0.85;}
	.st1{fill:#231F20;}
	.st2{fill:none;stroke:#231F20;stroke-width:2.2;stroke-linecap:round;stroke-linejoin:round;stroke-miterlimit:10;}
	.st3{fill:#000F23;}
	.st4{clip-path:url(#SVGID_2_);enable-background:new    ;}
	.st5{fill-rule:evenodd;clip-rule:evenodd;fill:#000F23;}
	.st6{fill:none;stroke:#000000;stroke-width:3;stroke-linecap:round;stroke-linejoin:round;stroke-miterlimit:10;}
	.st7{stroke:#000000;stroke-miterlimit:10;}
	.st8{fill:#333333;}
	.st9{fill-rule:evenodd;clip-rule:evenodd;}
</style>
<g id="Layer_1">
</g>
<g id="Layer_2">
	<g>
		<path class="st1" d="M48.1,28.7v24.8c0,3-2.4,5.4-5.4,5.4H10.7c-3,0-5.4-2.4-5.4-5.4V21.6c0-3,2.4-5.4,5.4-5.4h24.9v-5.1H10.7
			C5,11.1,0.3,15.8,0.3,21.6v31.9C0.3,59.3,5,64,10.7,64h31.9c5.8,0,10.5-4.7,10.5-10.5V28.7H48.1z"/>
		<polygon class="st1" points="36.3,0 36.3,5.1 55.2,5.1 21.1,39.1 24.7,42.6 58.7,8.7 58.7,27.2 63.7,27.2 63.7,5.1 63.7,2.5 
			63.7,0 		"/>
	</g>
	<g>
		<g>
			<defs>
				<rect id="SVGID_1_" x="-2656" y="-1768" width="5760" height="3600"/>
			</defs>
			<clipPath id="SVGID_2_">
				<use xlink:href="#SVGID_1_"  style="overflow:visible;"/>
			</clipPath>
		</g>
	</g>
</g>
</svg>
