<?xml version="1.0" encoding="utf-8"?>
<!-- Generator: Adobe Illustrator 22.1.0, SVG Export Plug-In . SVG Version: 6.00 Build 0)  -->
<svg version="1.1" id="Layer_1" xmlns="http://www.w3.org/2000/svg" xmlns:xlink="http://www.w3.org/1999/xlink" x="0px" y="0px"
	 viewBox="0 0 64 64" style="enable-background:new 0 0 64 64;" xml:space="preserve">
<style type="text/css">
	.st0{fill:#000F23;}
</style>
<g id="Layer_1_1_">
</g>
<g>
	<path class="st0" d="M32,0C14.3,0,0,14.3,0,32s14.3,32,32,32s32-14.3,32-32S49.7,0,32,0z M32,57C18.2,57,7,45.8,7,32S18.2,7,32,7
		s25,11.2,25,25S45.8,57,32,57z"/>
	<path class="st0" d="M30,33.1h4c1.6,0,2.9-1.3,2.9-2.9V16.5c0-1.6-1.3-2.8-2.9-2.9h-4c-1.6,0-2.8,1.3-2.9,2.9v13.8
		C27.2,31.8,28.4,33.1,30,33.1z"/>
	<path class="st0" d="M32,38.8c-3.2,0-5.8,2.6-5.8,5.8c0,3.2,2.6,5.8,5.8,5.8c1.6,0,3-0.6,4.1-1.7c1-1,1.7-2.5,1.7-4.1
		C37.8,41.4,35.2,38.8,32,38.8z"/>
</g>
</svg>
