<?xml version="1.0" encoding="utf-8"?>
<!-- Generator: Adobe Illustrator 22.1.0, SVG Export Plug-In . SVG Version: 6.00 Build 0)  -->
<svg version="1.1" id="Layer_1" xmlns="http://www.w3.org/2000/svg" xmlns:xlink="http://www.w3.org/1999/xlink" x="0px" y="0px"
	 viewBox="0 0 64 64" style="enable-background:new 0 0 64 64;" xml:space="preserve">
<g id="Layer_1_1_">
</g>
<path d="M50,30.5L20.1,0.6C19.7,0.2,19.2,0,18.7,0c-0.5,0-1,0.2-1.5,0.6L14,3.8c-0.4,0.4-0.6,0.9-0.6,1.5s0.2,1,0.6,1.5L39.2,32
	L14,57.2c-0.4,0.4-0.6,0.9-0.6,1.5c0,0.6,0.2,1,0.6,1.5l3.2,3.2c0.4,0.4,0.9,0.6,1.5,0.6c0.6,0,1-0.2,1.5-0.6L50,33.5
	c0.4-0.4,0.6-0.9,0.6-1.5C50.6,31.4,50.4,31,50,30.5z"/>
</svg>
