<?xml version="1.0" encoding="utf-8"?>
<!-- Generator: Adobe Illustrator 16.0.0, SVG Export Plug-In . SVG Version: 6.00 Build 0)  -->
<!DOCTYPE svg PUBLIC "-//W3C//DTD SVG 1.1//EN" "http://www.w3.org/Graphics/SVG/1.1/DTD/svg11.dtd">
<svg version="1.1" id="Layer_1" xmlns="http://www.w3.org/2000/svg" xmlns:xlink="http://www.w3.org/1999/xlink" x="0px" y="0px"
	 width="595.279px" height="841.891px" viewBox="0 0 595.279 841.891" enable-background="new 0 0 595.279 841.891"
	 xml:space="preserve">
<g id="Layer_1_1_">
</g>
<g>
	<path fill="#000F23" d="M297.64,123.305C133.008,123.305,0,256.313,0,420.945c0,164.632,133.008,297.64,297.64,297.64
		s297.64-133.008,297.64-297.64C595.28,256.313,462.272,123.305,297.64,123.305z M297.64,653.477
		c-128.357,0-232.531-104.174-232.531-232.531S169.282,188.414,297.64,188.414s232.531,104.174,232.531,232.532
		S425.997,653.477,297.64,653.477z"/>
	<path fill="#000F23" d="M322.753,495.355h-55.808c-2.79,0-4.65,0.93-6.511,2.79s-2.79,3.721-2.79,6.511v55.808
		c0,2.79,0.93,4.65,2.79,6.511s3.721,2.791,6.511,2.791h55.808c2.79,0,4.65-0.931,6.511-2.791s2.791-3.721,2.791-6.511v-55.808
		c0-1.86-0.931-4.65-2.791-6.511S325.543,495.355,322.753,495.355z"/>
	<path fill="#000F23" d="M371.119,299.099c-10.231-8.371-21.393-14.882-34.414-19.533c-12.092-4.65-25.113-7.441-37.205-7.441
		c-47.437,0-83.711,20.463-108.824,62.318c-0.931,1.86-0.931,3.721-0.931,6.511c0.931,1.86,1.86,3.721,3.721,5.581l38.135,28.834
		c1.86,0.93,3.721,1.86,5.581,1.86c2.79,0,5.581-0.93,7.441-3.72c11.161-13.952,19.532-23.253,25.113-26.974
		c6.511-4.651,14.882-6.511,25.113-6.511c9.301,0,17.672,2.79,25.113,7.441c7.44,5.581,11.161,11.161,11.161,17.672
		c0,7.441-1.86,13.021-5.581,17.672c-3.72,4.65-10.231,8.371-19.532,13.021c-12.092,5.581-23.253,13.952-33.484,25.114
		c-10.231,11.161-14.882,23.253-14.882,36.274v10.231c0,2.791,0.93,5.581,2.79,8.371c0.931,2.791,2.791,4.65,5.581,4.65h55.808
		c2.79,0,4.65-0.93,6.511-3.72c1.86-1.86,2.79-4.651,2.79-7.441c0-3.721,1.86-9.301,6.511-15.812
		c3.721-6.511,9.302-11.161,15.812-14.882c5.58-3.721,10.231-6.511,13.952-8.371c2.79-1.86,7.44-5.58,13.021-10.231
		c5.581-4.65,10.231-9.301,13.021-13.951c2.791-4.651,5.581-10.232,8.371-17.673c2.791-7.441,3.721-14.882,3.721-23.253
		c0-13.022-2.79-25.113-9.302-36.275C389.722,316.771,381.351,307.47,371.119,299.099z"/>
</g>
</svg>
