<?xml version="1.0" encoding="utf-8"?>
<!-- Generator: Adobe Illustrator 22.0.1, SVG Export Plug-In . SVG Version: 6.00 Build 0)  -->
<svg version="1.1" xmlns="http://www.w3.org/2000/svg" xmlns:xlink="http://www.w3.org/1999/xlink" x="0px" y="0px"
	 viewBox="0 0 64 64" style="enable-background:new 0 0 64 64;" xml:space="preserve">
<style type="text/css">
	.st0{opacity:0.85;}
	.st1{fill:#231F20;}
	.st2{fill:none;stroke:#231F20;stroke-width:2.2;stroke-linecap:round;stroke-linejoin:round;stroke-miterlimit:10;}
	.st3{fill:#000F23;}
	.st4{clip-path:url(#SVGID_2_);enable-background:new    ;}
	.st5{fill-rule:evenodd;clip-rule:evenodd;fill:#000F23;}
	.st6{fill:none;stroke:#000000;stroke-width:3;stroke-linecap:round;stroke-linejoin:round;stroke-miterlimit:10;}
	.st7{stroke:#000000;stroke-miterlimit:10;}
	.st8{fill:#333333;}
	.st9{fill-rule:evenodd;clip-rule:evenodd;}
</style>
<g id="Layer_1">
</g>
<g id="Layer_2">
	<g>
		<path d="M60.2,26.3c-0.4-0.4-0.9-0.6-1.5-0.6c-0.6,0-1,0.2-1.5,0.6L32,51.5L6.8,26.3c-0.4-0.4-0.9-0.6-1.5-0.6
			c-0.6,0-1,0.2-1.5,0.6l-3.2,3.2C0.2,29.9,0,30.4,0,31s0.2,1,0.6,1.5l29.9,29.9C31,62.8,31.4,63,32,63s1-0.2,1.5-0.6l29.9-29.9
			C63.8,32,64,31.5,64,31s-0.2-1-0.6-1.5L60.2,26.3z"/>
		<path d="M30.5,37.7c0.4,0.4,0.9,0.6,1.5,0.6s1-0.2,1.5-0.6L63.4,7.8C63.8,7.4,64,6.9,64,6.3s-0.2-1-0.6-1.5l-3.2-3.2
			C59.7,1.2,59.2,1,58.7,1c-0.6,0-1,0.2-1.5,0.6L32,26.9L6.8,1.7C6.4,1.2,5.9,1,5.3,1c-0.6,0-1,0.2-1.5,0.6L0.6,4.9
			C0.2,5.3,0,5.8,0,6.3s0.2,1,0.6,1.5L30.5,37.7z"/>
	</g>
	<g>
		<g>
			<defs>
				<rect id="SVGID_1_" x="-2752" y="-1672" width="5760" height="3600"/>
			</defs>
			<clipPath id="SVGID_2_">
				<use xlink:href="#SVGID_1_"  style="overflow:visible;"/>
			</clipPath>
		</g>
	</g>
</g>
</svg>
