<?xml version="1.0" encoding="utf-8"?>
<!-- Generator: Adobe Illustrator 16.0.0, SVG Export Plug-In . SVG Version: 6.00 Build 0)  -->
<!DOCTYPE svg PUBLIC "-//W3C//DTD SVG 1.1//EN" "http://www.w3.org/Graphics/SVG/1.1/DTD/svg11.dtd">
<svg version="1.1" id="Layer_1" xmlns="http://www.w3.org/2000/svg" xmlns:xlink="http://www.w3.org/1999/xlink" x="0px" y="0px"
	 width="595.279px" height="841.891px" viewBox="0 0 595.279 841.891" enable-background="new 0 0 595.279 841.891"
	 xml:space="preserve">
<g id="Layer_1_1_">
</g>
<g>
	<path fill="#231F20" d="M447.39,620.922c0,27.904-22.323,50.227-50.227,50.227H99.524c-27.904,0-50.227-22.322-50.227-50.227
		v-296.71c0-27.904,22.322-50.227,50.227-50.227h231.601v-47.437H99.524c-53.018,0-96.733,43.716-96.733,97.663v296.71
		c0,53.947,43.716,97.663,96.733,97.663h296.71c53.947,0,97.663-43.716,97.663-97.663V390.251H447.39V620.922z"/>
	<polygon fill="#231F20" points="337.635,123.305 337.635,170.741 513.429,170.741 196.256,486.984 229.741,519.538 
		545.984,204.226 545.984,376.299 592.49,376.299 592.49,170.741 592.49,146.558 592.49,123.305 	"/>
</g>
</svg>
