<?xml version="1.0" encoding="utf-8"?>
<!-- Generator: Adobe Illustrator 16.0.0, SVG Export Plug-In . SVG Version: 6.00 Build 0)  -->
<!DOCTYPE svg PUBLIC "-//W3C//DTD SVG 1.1//EN" "http://www.w3.org/Graphics/SVG/1.1/DTD/svg11.dtd">
<svg version="1.1" id="Layer_1" xmlns="http://www.w3.org/2000/svg" xmlns:xlink="http://www.w3.org/1999/xlink" x="0px" y="0px"
	 width="595.279px" height="841.891px" viewBox="0 0 595.279 841.891" enable-background="new 0 0 595.279 841.891"
	 xml:space="preserve">
<g id="Layer_1_1_">
</g>
<path fill="#000F23" d="M569.237,446.059c-17.673-21.393-39.065-35.345-66.039-41.855c8.371-13.022,13.021-26.974,13.021-42.786
	c0-22.323-7.44-40.925-23.253-55.808c-15.812-14.882-34.414-23.253-55.808-23.253c-19.532,0-37.205,6.511-51.156,19.533
	c-12.092-29.764-31.625-53.947-58.599-71.62c-26.973-17.672-55.807-26.974-88.361-26.974c-43.716,0-80.921,15.812-112.545,46.506
	c-30.694,30.694-46.507,68.83-46.507,112.545c0,2.791,0,7.441,0.931,13.022c-24.184,11.161-43.716,28.834-58.598,51.156
	C7.441,448.849,0,473.032,0,500.006c0,38.135,13.951,70.689,40.925,97.663s59.528,40.926,97.664,40.926h337.635
	c32.555,0,60.458-11.162,83.711-35.345c23.254-23.254,35.345-51.157,35.345-84.642C595.28,492.564,586.908,467.451,569.237,446.059z
	 M394.373,437.688c-1.86,1.86-4.651,2.79-7.441,2.79h-69.76v108.825c0,2.79-0.93,4.65-2.79,7.44c-1.86,2.791-4.65,2.791-7.44,2.791
	h-59.528c-2.79,0-4.65-0.931-7.441-2.791c-2.79-1.86-2.79-4.65-2.79-7.44V440.478h-69.759c-2.791,0-5.581-0.93-7.441-2.79
	s-2.79-4.65-2.79-7.441c0-2.79,0.93-4.65,2.79-7.44L268.806,313.98c1.86-1.86,4.651-2.79,7.441-2.79s5.581,0.93,7.441,2.79
	l108.824,108.825c1.86,1.86,2.79,4.65,2.79,7.44C397.163,433.967,396.234,435.827,394.373,437.688z"/>
</svg>
