<?xml version="1.0" encoding="utf-8"?>
<!-- Generator: Adobe Illustrator 22.0.1, SVG Export Plug-In . SVG Version: 6.00 Build 0)  -->
<svg version="1.1" xmlns="http://www.w3.org/2000/svg" xmlns:xlink="http://www.w3.org/1999/xlink" x="0px" y="0px"
	 viewBox="0 0 64 64" style="enable-background:new 0 0 64 64;" xml:space="preserve">
<style type="text/css">
	.st0{opacity:0.85;}
	.st1{fill:#231F20;}
	.st2{fill:none;stroke:#231F20;stroke-width:2.2;stroke-linecap:round;stroke-linejoin:round;stroke-miterlimit:10;}
	.st3{fill:#000F23;}
	.st4{clip-path:url(#SVGID_2_);enable-background:new    ;}
	.st5{fill-rule:evenodd;clip-rule:evenodd;fill:#000F23;}
	.st6{fill:none;stroke:#000000;stroke-width:3;stroke-linecap:round;stroke-linejoin:round;stroke-miterlimit:10;}
	.st7{stroke:#000000;stroke-miterlimit:10;}
	.st8{fill:#333333;}
	.st9{fill-rule:evenodd;clip-rule:evenodd;}
</style>
<g id="Layer_1">
</g>
<g id="Layer_2">
	<g>
		<g>
			<defs>
				<rect id="SVGID_1_" x="-2944" y="-1768" width="5760" height="3600"/>
			</defs>
			<clipPath id="SVGID_2_">
				<use xlink:href="#SVGID_1_"  style="overflow:visible;"/>
			</clipPath>
		</g>
	</g>
	<path class="st3" d="M32,7c13.8,0,25,11.2,25,25S45.8,57,32,57S7,45.8,7,32S18.2,7,32,7 M32,0C14.3,0,0,14.3,0,32s14.3,32,32,32
		s32-14.3,32-32S49.7,0,32,0L32,0z"/>
	<g>
		<path class="st5" d="M35.7,41v6c0,0.3-0.1,0.5-0.3,0.7s-0.4,0.3-0.7,0.3h-6c-0.3,0-0.5-0.1-0.7-0.3s-0.3-0.4-0.3-0.7v-6
			c0-0.3,0.1-0.5,0.3-0.7c0.2-0.2,0.4-0.3,0.7-0.3h6c0.3,0,0.5,0.1,0.7,0.3C35.6,40.5,35.7,40.8,35.7,41z"/>
		<path class="st5" d="M43.6,26c0,0.9-0.1,1.7-0.4,2.5c-0.3,0.8-0.6,1.4-0.9,1.9c-0.3,0.5-0.8,1-1.4,1.5c-0.6,0.5-1.1,0.9-1.4,1.1
			c-0.4,0.2-0.9,0.5-1.5,0.9c-0.7,0.4-1.3,0.9-1.7,1.6c-0.5,0.7-0.7,1.3-0.7,1.7c0,0.3-0.1,0.6-0.3,0.8c-0.2,0.3-0.4,0.4-0.7,0.4h-6
			c-0.3,0-0.5-0.2-0.6-0.5c-0.2-0.3-0.3-0.6-0.3-0.9v-1.1c0-1.4,0.5-2.7,1.6-3.9c1.1-1.2,2.3-2.1,3.6-2.7c1-0.5,1.7-0.9,2.1-1.4
			c0.4-0.5,0.6-1.1,0.6-1.9c0-0.7-0.4-1.3-1.2-1.9c-0.8-0.5-1.7-0.8-2.7-0.8c-1.1,0-2,0.2-2.7,0.7c-0.6,0.4-1.5,1.4-2.7,2.9
			c-0.2,0.3-0.5,0.4-0.8,0.4c-0.2,0-0.4-0.1-0.6-0.2l-4.1-3.1c-0.2-0.2-0.3-0.4-0.4-0.6c0-0.3,0-0.5,0.1-0.7
			c2.7-4.5,6.6-6.7,11.7-6.7c1.3,0,2.7,0.3,4,0.8c1.4,0.5,2.6,1.2,3.7,2.1c1.1,0.9,2,1.9,2.7,3.2C43.3,23.3,43.6,24.6,43.6,26z"/>
	</g>
</g>
</svg>
