<?xml version="1.0" encoding="utf-8"?>
<!-- Generator: Adobe Illustrator 16.0.0, SVG Export Plug-In . SVG Version: 6.00 Build 0)  -->
<!DOCTYPE svg PUBLIC "-//W3C//DTD SVG 1.1//EN" "http://www.w3.org/Graphics/SVG/1.1/DTD/svg11.dtd">
<svg version="1.1" id="Layer_1" xmlns="http://www.w3.org/2000/svg" xmlns:xlink="http://www.w3.org/1999/xlink" x="0px" y="0px"
	 width="595.279px" height="841.891px" viewBox="0 0 595.279 841.891" enable-background="new 0 0 595.279 841.891"
	 xml:space="preserve">
<g id="Layer_1_1_">
</g>
<g>
	<path fill="#231F20" d="M494.826,533.49h-5.581V384.67c0-92.082-58.598-169.283-137.658-193.466c0.93-3.721,0.93-6.511,0.93-10.231
		c-0.93-31.624-25.113-57.668-54.877-57.668s-53.947,26.044-53.947,57.668c0,3.721,0,6.511,0.931,10.231
		c-79.991,25.113-137.659,102.314-137.659,193.466v148.82h-5.58c-34.415,0-62.318,26.044-62.318,58.598
		c0,32.555,27.903,58.598,62.318,58.598h127.427c0,1.86-0.93,4.651-0.93,6.512c0,33.484,31.624,60.458,69.759,60.458
		c39.065,0,69.76-26.974,69.76-60.458c0-1.86,0-4.651-0.931-6.512h127.428c34.414,0,62.318-26.043,62.318-58.598
		C556.215,559.534,529.241,533.49,494.826,533.49z M265.086,180.973c0-20.463,14.882-37.205,33.484-37.205
		c18.602,0,33.484,16.742,33.484,37.205c0,1.86,0,3.721,0,5.581c-0.931,0-2.791,0-3.721-0.93c-3.721-0.93-8.371-0.93-12.092-1.86
		c-5.581-0.93-11.161-0.93-17.672-0.93c-5.581,0-11.162,0-17.673,0.93c-3.721,0-7.44,0.93-12.092,1.86
		c-1.86,0.93-2.79,0.93-3.72,0.93C265.086,184.693,265.086,182.833,265.086,180.973z M127.427,384.67
		c0-85.571,56.738-158.121,132.078-175.793c2.79-0.93,5.581-0.93,7.44-1.86c3.721-0.93,7.441-0.93,11.162-1.86c1.86,0,2.79,0,4.65,0
		c4.65,0,9.302-0.931,13.952-0.931c0.93,0,0.93,0,1.86,0c4.65,0,9.301,0,13.951,0.931c1.86,0,3.721,0,4.65,0.93
		c3.721,0,7.441,0.93,10.231,1.86c2.791,0.93,5.581,0.93,7.441,1.86c75.34,18.603,132.078,90.222,132.078,175.793v148.82H127.427
		V384.67z M346.937,658.127c0,22.323-22.323,39.995-49.297,39.995s-49.297-17.672-49.297-39.995c0-1.86,0-4.65,0.931-6.511h97.663
		C346.937,653.477,346.937,655.337,346.937,658.127z M494.826,631.153H360.889H234.392H100.453
		c-23.253,0-41.855-16.742-41.855-38.135c0-21.394,18.603-38.136,41.855-38.136h5.581v0.931h382.281v-0.931h5.581
		c23.253,0,41.855,16.742,41.855,38.136C535.752,614.411,518.079,631.153,494.826,631.153z"/>
	<path fill="#231F20" d="M297.64,433.967c5.581,0,10.231-4.65,10.231-10.231V300.029c0-5.581-4.65-10.231-10.231-10.231
		c-5.58,0-10.231,4.651-10.231,10.231v122.777C287.408,429.316,292.06,433.967,297.64,433.967z"/>
	<path fill="#231F20" d="M297.64,448.849c-6.511,0-11.161,4.65-11.161,11.162c0,6.511,4.65,11.161,11.161,11.161
		s11.161-4.65,11.161-11.161C308.801,453.499,304.151,448.849,297.64,448.849z"/>
</g>
</svg>
