<?xml version="1.0" encoding="utf-8"?>
<!-- Generator: Adobe Illustrator 22.0.1, SVG Export Plug-In . SVG Version: 6.00 Build 0)  -->
<svg version="1.1" id="Layer_1" xmlns="http://www.w3.org/2000/svg" xmlns:xlink="http://www.w3.org/1999/xlink" x="0px" y="0px"
	 viewBox="0 0 595.3 841.9" style="enable-background:new 0 0 595.3 841.9;" xml:space="preserve">
<style type="text/css">
	.st0{fill:#231F20;}
</style>
<g id="Layer_1_1_">
</g>
<g>
	<path class="st0" d="M482.7,637.7L482.7,637.7c0,23.3-19.5,42.8-42.8,42.8H63.2c-23.3,0-42.8-19.5-42.8-42.8V242.4
		c0-12.1,9.3-22.3,21.4-22.3h276.2v-19.5H41.9C18.6,200.5,0,219.1,0,242.4v394.4C0,672.1,28.8,700,63.2,700h376.7
		c34.4,0,63.2-27.9,63.2-63.2V419.1h-20.5V637.7z"/>
	<path class="st0" d="M573.9,228.4l-64.2-65.1c-12.1-12.1-32.6-12.1-44.6,0L209.3,420c-6.5,6.5-12.1,18.6-13,27.9l-6.5,68.8
		c-0.9,9.3,2.8,18.6,9.3,25.1c5.6,5.6,14,9.3,21.4,9.3c0.9,0,2.8,0,3.7,0l73.5-8.4c4.7-0.9,11.2-3.7,14.9-7.4L573,273.1
		C585,260,585,240.5,573.9,228.4z M559,258.2L298.6,520.5c-0.9,0.9-2.8,1.9-2.8,1.9l-72.5,7.4c-2.8,0-6.5-0.9-8.4-2.8
		c-1.9-1.9-3.7-5.6-2.8-8.4l6.5-68.8c0-4.7,3.7-12.1,7.4-14.9l253-256.7c1.9-1.9,4.7-2.8,7.4-2.8c2.8,0,5.6,0.9,7.4,2.8l64.2,65.1
		C562.7,247,562.7,253.5,559,258.2z"/>
</g>
</svg>
