<?xml version="1.0" encoding="utf-8"?>
<!-- Generator: Adobe Illustrator 22.1.0, SVG Export Plug-In . SVG Version: 6.00 Build 0)  -->
<svg version="1.1" id="Layer_1" xmlns="http://www.w3.org/2000/svg" xmlns:xlink="http://www.w3.org/1999/xlink" x="0px" y="0px"
	 viewBox="0 0 64 64" style="enable-background:new 0 0 64 64;" xml:space="preserve">
<style type="text/css">
	.st0{fill:#000F23;}
</style>
<g id="Layer_1_1_">
</g>
<path class="st0" d="M61.2,34.7c-1.9-2.3-4.2-3.8-7.1-4.5c0.9-1.4,1.4-2.9,1.4-4.6c0-2.4-0.8-4.4-2.5-6c-1.7-1.6-3.7-2.5-6-2.5
	c-2.1,0-4,0.7-5.5,2.1c-1.3-3.2-3.4-5.8-6.3-7.7c-2.9-1.9-6-2.9-9.5-2.9c-4.7,0-8.7,1.7-12.1,5c-3.3,3.3-5,7.4-5,12.1
	c0,0.3,0,0.8,0.1,1.4c-2.6,1.2-4.7,3.1-6.3,5.5C0.8,35,0,37.6,0,40.5c0,4.1,1.5,7.6,4.4,10.5c2.9,2.9,6.4,4.4,10.5,4.4h36.3
	c3.5,0,6.5-1.2,9-3.8c2.5-2.5,3.8-5.5,3.8-9.1C64,39.7,63.1,37,61.2,34.7z M42.4,33.8c-0.2,0.2-0.5,0.3-0.8,0.3h-7.5v11.7
	c0,0.3-0.1,0.5-0.3,0.8c-0.2,0.3-0.5,0.3-0.8,0.3h-6.4c-0.3,0-0.5-0.1-0.8-0.3c-0.3-0.2-0.3-0.5-0.3-0.8V34.1H18
	c-0.3,0-0.6-0.1-0.8-0.3c-0.2-0.2-0.3-0.5-0.3-0.8c0-0.3,0.1-0.5,0.3-0.8l11.7-11.7c0.2-0.2,0.5-0.3,0.8-0.3c0.3,0,0.6,0.1,0.8,0.3
	l11.7,11.7c0.2,0.2,0.3,0.5,0.3,0.8C42.7,33.4,42.6,33.6,42.4,33.8z"/>
</svg>
