<?xml version="1.0" encoding="utf-8"?>
<!-- Generator: Adobe Illustrator 22.1.0, SVG Export Plug-In . SVG Version: 6.00 Build 0)  -->
<svg version="1.1" id="Layer_1" xmlns="http://www.w3.org/2000/svg" xmlns:xlink="http://www.w3.org/1999/xlink" x="0px" y="0px"
	 viewBox="0 0 64 64" style="enable-background:new 0 0 64 64;" xml:space="preserve">
<style type="text/css">
	.st0{fill:#231F20;}
</style>
<g id="Layer_1_1_">
</g>
<g>
	<path class="st0" d="M53.1,55.2L53.1,55.2c0,2.6-2.1,4.7-4.7,4.7H6.9c-2.6,0-4.7-2.1-4.7-4.7V11.7c0-1.3,1-2.5,2.4-2.5H35V7.1H4.6
		C2,7.1,0,9.1,0,11.7v43.4C0,58.9,3.2,62,6.9,62h41.4c3.8,0,6.9-3.1,6.9-6.9V31.1h-2.3L53.1,55.2L53.1,55.2z"/>
	<path class="st0" d="M63.1,10.2L56,3c-1.3-1.3-3.6-1.3-4.9,0L23,31.2c-0.7,0.7-1.3,2-1.4,3.1l-0.7,7.6c-0.1,1,0.3,2,1,2.8
		c0.6,0.6,1.5,1,2.4,1c0.1,0,0.3,0,0.4,0l8.1-0.9c0.5-0.1,1.2-0.4,1.6-0.8L63,15.1C64.3,13.6,64.3,11.5,63.1,10.2z M61.5,13.4
		L32.8,42.3c-0.1,0.1-0.3,0.2-0.3,0.2l-8,0.8c-0.3,0-0.7-0.1-0.9-0.3c-0.2-0.2-0.4-0.6-0.3-0.9l0.7-7.6c0-0.5,0.4-1.3,0.8-1.6
		L52.7,4.6c0.2-0.2,0.5-0.3,0.8-0.3c0.3,0,0.6,0.1,0.8,0.3l7.1,7.2C61.9,12.2,61.9,12.9,61.5,13.4z"/>
</g>
</svg>
