<?xml version="1.0" encoding="utf-8"?>
<!-- Generator: Adobe Illustrator 16.0.0, SVG Export Plug-In . SVG Version: 6.00 Build 0)  -->
<!DOCTYPE svg PUBLIC "-//W3C//DTD SVG 1.1//EN" "http://www.w3.org/Graphics/SVG/1.1/DTD/svg11.dtd">
<svg version="1.1" id="Layer_1" xmlns="http://www.w3.org/2000/svg" xmlns:xlink="http://www.w3.org/1999/xlink" x="0px" y="0px"
	 width="595.279px" height="841.891px" viewBox="0 0 595.279 841.891" enable-background="new 0 0 595.279 841.891"
	 xml:space="preserve">
<g id="Layer_1_1_">
</g>
<g>
	<path fill="#000F23" d="M570.166,569.766H25.114c-6.511,0-12.092,2.79-17.673,7.44C2.79,581.856,0,587.438,0,594.879v49.296
		c0,6.511,2.79,12.092,7.44,17.673c4.651,4.65,11.162,7.441,17.673,7.441h545.983c6.511,0,12.092-2.791,17.672-7.441
		c4.651-4.65,7.441-11.162,7.441-17.673v-49.296c0-6.512-2.79-12.092-7.441-17.673C583.189,572.556,577.608,569.766,570.166,569.766
		z"/>
	<path fill="#000F23" d="M570.166,371.648H25.114c-6.511,0-12.092,2.791-17.673,7.441C2.79,383.74,0,389.321,0,395.832v49.296
		c0,6.512,2.79,12.092,7.44,17.673c4.651,4.65,11.162,7.441,17.673,7.441h545.983c6.511,0,12.092-2.791,17.672-7.441
		c4.651-4.65,7.441-11.161,7.441-17.673v-49.296c0-6.511-2.79-12.091-7.441-17.672C583.189,373.509,577.608,371.648,570.166,371.648
		z"/>
	<path fill="#000F23" d="M587.839,180.042c-4.65-4.65-11.161-7.441-17.673-7.441H25.114c-6.511,0-12.092,2.791-17.673,7.441
		C2.79,185.624,0,191.204,0,197.715v49.297c0,6.511,2.79,12.092,7.44,17.672c4.651,4.65,10.231,7.441,17.673,7.441h545.983
		c6.511,0,12.092-2.791,17.672-7.441c4.651-4.651,7.441-11.162,7.441-17.672v-49.297C595.28,191.204,592.49,185.624,587.839,180.042
		z"/>
</g>
</svg>
