<?xml version="1.0" encoding="utf-8"?>
<!-- Generator: Adobe Illustrator 22.1.0, SVG Export Plug-In . SVG Version: 6.00 Build 0)  -->
<svg version="1.1" id="Layer_1" xmlns="http://www.w3.org/2000/svg" xmlns:xlink="http://www.w3.org/1999/xlink" x="0px" y="0px"
	 viewBox="0 0 64 64" style="enable-background:new 0 0 64 64;" xml:space="preserve">
<style type="text/css">
	.st0{fill:#231F20;}
</style>
<g id="Layer_1_1_">
</g>
<g>
	<path class="st0" d="M53.2,44.2h-0.6v-16c0-9.9-6.3-18.2-14.8-20.8c0.1-0.4,0.1-0.7,0.1-1.1C37.8,2.8,35.2,0,32,0s-5.8,2.8-5.8,6.2
		c0,0.4,0,0.7,0.1,1.1c-8.6,2.7-14.8,11-14.8,20.8v16h-0.6c-3.7,0-6.7,2.8-6.7,6.3c0,3.5,3,6.3,6.7,6.3h13.7c0,0.2-0.1,0.5-0.1,0.7
		c0,3.6,3.4,6.5,7.5,6.5c4.2,0,7.5-2.9,7.5-6.5c0-0.2,0-0.5-0.1-0.7h13.7c3.7,0,6.7-2.8,6.7-6.3C59.8,47,56.9,44.2,53.2,44.2z
		 M28.5,6.2c0-2.2,1.6-4,3.6-4s3.6,1.8,3.6,4c0,0.2,0,0.4,0,0.6c-0.1,0-0.3,0-0.4-0.1c-0.4-0.1-0.9-0.1-1.3-0.2
		c-0.6-0.1-1.2-0.1-1.9-0.1c-0.6,0-1.2,0-1.9,0.1c-0.4,0-0.8,0.1-1.3,0.2c-0.2,0.1-0.3,0.1-0.4,0.1C28.5,6.6,28.5,6.4,28.5,6.2z
		 M13.7,28.1c0-9.2,6.1-17,14.2-18.9c0.3-0.1,0.6-0.1,0.8-0.2c0.4-0.1,0.8-0.1,1.2-0.2c0.2,0,0.3,0,0.5,0c0.5,0,1-0.1,1.5-0.1
		c0.1,0,0.1,0,0.2,0c0.5,0,1,0,1.5,0.1c0.2,0,0.4,0,0.5,0.1c0.4,0,0.8,0.1,1.1,0.2c0.3,0.1,0.6,0.1,0.8,0.2
		c8.1,2,14.2,9.7,14.2,18.9v16H13.7V28.1z M37.3,57.6c0,2.4-2.4,4.3-5.3,4.3c-2.9,0-5.3-1.9-5.3-4.3c0-0.2,0-0.5,0.1-0.7h10.5
		C37.3,57.1,37.3,57.3,37.3,57.6z M53.2,54.7H38.8H25.2H10.8c-2.5,0-4.5-1.8-4.5-4.1c0-2.3,2-4.1,4.5-4.1h0.6v0.1h41.2v-0.1h0.6
		c2.5,0,4.5,1.8,4.5,4.1C57.6,52.9,55.7,54.7,53.2,54.7z"/>
	<path class="st0" d="M32,33.5c0.6,0,1.1-0.5,1.1-1.1V19c0-0.6-0.5-1.1-1.1-1.1c-0.6,0-1.1,0.5-1.1,1.1v13.2
		C30.9,33,31.4,33.5,32,33.5z"/>
	<path class="st0" d="M32,35.1c-0.7,0-1.2,0.5-1.2,1.2c0,0.7,0.5,1.2,1.2,1.2c0.7,0,1.2-0.5,1.2-1.2C33.2,35.6,32.7,35.1,32,35.1z"
		/>
</g>
</svg>
