<?xml version="1.0" encoding="utf-8"?>
<!-- Generator: Adobe Illustrator 22.0.1, SVG Export Plug-In . SVG Version: 6.00 Build 0)  -->
<svg version="1.1" xmlns="http://www.w3.org/2000/svg" xmlns:xlink="http://www.w3.org/1999/xlink" x="0px" y="0px"
	 viewBox="0 0 64 64" style="enable-background:new 0 0 64 64;" xml:space="preserve">
<style type="text/css">
	.st0{opacity:0.85;}
	.st1{fill:#231F20;}
	.st2{fill:none;stroke:#231F20;stroke-width:2.2;stroke-linecap:round;stroke-linejoin:round;stroke-miterlimit:10;}
	.st3{fill:#000F23;}
	.st4{clip-path:url(#SVGID_2_);enable-background:new    ;}
	.st5{fill-rule:evenodd;clip-rule:evenodd;fill:#000F23;}
	.st6{fill:none;stroke:#000000;stroke-width:3;stroke-linecap:round;stroke-linejoin:round;stroke-miterlimit:10;}
	.st7{stroke:#000000;stroke-miterlimit:10;}
	.st8{fill:#333333;}
	.st9{fill-rule:evenodd;clip-rule:evenodd;}
</style>
<g id="Layer_1">
</g>
<g id="Layer_2">
	<path class="st1" d="M53.2,44.1h-0.6v-16c0-9.9-6.3-18.2-14.8-20.8c0.1-0.4,0.1-0.7,0.1-1.1C37.8,2.8,35.2,0,32,0s-5.8,2.8-5.8,6.2
		c0,0.4,0,0.7,0.1,1.1C17.7,10,11.5,18.3,11.5,28.1v16h-0.6c-3.7,0-6.7,2.8-6.7,6.3s3,6.3,6.7,6.3h13.7c0,0.2-0.1,0.5-0.1,0.7
		c0,3.6,3.4,6.5,7.5,6.5c4.2,0,7.5-2.9,7.5-6.5c0-0.2,0-0.5-0.1-0.7h13.7c3.7,0,6.7-2.8,6.7-6.3S56.9,44.1,53.2,44.1z M28.5,6.8
		c0-0.2,0-0.4,0-0.6c0-2.2,1.6-4,3.6-4s3.6,1.8,3.6,4c0,0.2,0,0.4,0,0.6c-0.1,0-0.3,0-0.4-0.1c-0.4-0.1-0.9-0.1-1.3-0.2
		c-0.6-0.1-1.2-0.1-1.9-0.1c-0.6,0-1.2,0-1.9,0.1c-0.4,0-0.8,0.1-1.3,0.2C28.7,6.8,28.6,6.8,28.5,6.8z M13.7,28.1
		c0-9.2,6.1-17,14.2-18.9c0.3-0.1,0.6-0.1,0.8-0.2c0.4-0.1,0.8-0.1,1.2-0.2c0.2,0,0.3,0,0.5,0c0.5,0,1-0.1,1.5-0.1
		c0.1,0,0.1,0,0.2,0c0.5,0,1,0,1.5,0.1c0.2,0,0.4,0,0.5,0.1c0.4,0,0.8,0.1,1.1,0.2c0.3,0.1,0.6,0.1,0.8,0.2
		c8.1,2,14.2,9.7,14.2,18.9v16H13.7V28.1z M37.3,57.5c0,2.4-2.4,4.3-5.3,4.3c-2.9,0-5.3-1.9-5.3-4.3c0-0.2,0-0.5,0.1-0.7h10.5
		C37.3,57,37.3,57.2,37.3,57.5z M53.2,54.6H38.8H25.2H10.8c-2.5,0-4.5-1.8-4.5-4.1s2-4.1,4.5-4.1h0.6v0.1h41.1v-0.1h0.6
		c2.5,0,4.5,1.8,4.5,4.1S55.7,54.6,53.2,54.6z"/>
	<g>
		<path class="st1" d="M32,33.4c0.6,0,1.1-0.5,1.1-1.1V19c0-0.6-0.5-1.1-1.1-1.1c-0.6,0-1.1,0.5-1.1,1.1v13.2
			C30.9,32.9,31.4,33.4,32,33.4z"/>
		<path class="st1" d="M32,35c-0.7,0-1.2,0.5-1.2,1.2c0,0.7,0.5,1.2,1.2,1.2c0.7,0,1.2-0.5,1.2-1.2C33.2,35.5,32.7,35,32,35z"/>
	</g>
	<g>
		<g>
			<defs>
				<rect id="SVGID_1_" x="-2656" y="-1480" width="5760" height="3600"/>
			</defs>
			<clipPath id="SVGID_2_">
				<use xlink:href="#SVGID_1_"  style="overflow:visible;"/>
			</clipPath>
		</g>
	</g>
</g>
</svg>
