<?xml version="1.0" encoding="utf-8"?>
<!-- Generator: Adobe Illustrator 22.0.1, SVG Export Plug-In . SVG Version: 6.00 Build 0)  -->
<svg version="1.1" xmlns="http://www.w3.org/2000/svg" xmlns:xlink="http://www.w3.org/1999/xlink" x="0px" y="0px"
	 viewBox="0 0 64 64" style="enable-background:new 0 0 64 64;" xml:space="preserve">
<style type="text/css">
	.st0{opacity:0.85;}
	.st1{fill:#231F20;}
	.st2{fill:none;stroke:#231F20;stroke-width:2.2;stroke-linecap:round;stroke-linejoin:round;stroke-miterlimit:10;}
	.st3{fill:#000F23;}
	.st4{clip-path:url(#SVGID_2_);enable-background:new    ;}
	.st5{fill-rule:evenodd;clip-rule:evenodd;fill:#000F23;}
	.st6{fill:none;stroke:#000000;stroke-width:3;stroke-linecap:round;stroke-linejoin:round;stroke-miterlimit:10;}
	.st7{stroke:#000000;stroke-miterlimit:10;}
	.st8{fill:#333333;}
	.st9{fill-rule:evenodd;clip-rule:evenodd;}
</style>
<g id="Layer_1">
</g>
<g id="Layer_2">
	<g>
		<g>
			<defs>
				<rect id="SVGID_1_" x="-2560" y="-1864" width="5760" height="3600"/>
			</defs>
			<clipPath id="SVGID_2_">
				<use xlink:href="#SVGID_1_"  style="overflow:visible;"/>
			</clipPath>
		</g>
	</g>
	<path class="st1" d="M61.5,22.1c0-0.1,0-0.1,0-0.2c0,0,0-0.1,0-0.1c0,0,0-0.1,0-0.1c0,0,0-0.1-0.1-0.1c0,0,0-0.1-0.1-0.1
		c0,0-0.1-0.1-0.1-0.1c0,0-0.1-0.1-0.1-0.1c0,0-0.1-0.1-0.1-0.1c0,0,0,0-0.1-0.1L33.7,0.3c0,0-0.1-0.1-0.1-0.1c0,0,0,0-0.1,0
		c-0.1,0-0.1-0.1-0.2-0.1c0,0-0.1,0-0.1,0c-0.1,0-0.1,0-0.2,0C33,0,33,0,33,0c0,0-0.1,0-0.1,0c-0.1,0-0.1,0-0.1,0c0,0-0.1,0-0.1,0
		c-0.1,0-0.1,0-0.2,0c0,0-0.1,0-0.1,0c-0.1,0-0.1,0.1-0.2,0.1c0,0,0,0-0.1,0c0,0-0.1,0-0.1,0.1l-28.8,22c0,0,0,0-0.1,0.1
		c0,0-0.1,0.1-0.1,0.1c0,0-0.1,0.1-0.1,0.1c0,0-0.1,0.1-0.1,0.1c0,0,0,0.1-0.1,0.1c0,0,0,0.1-0.1,0.1c0,0,0,0.1,0,0.1
		c0,0,0,0.1,0,0.1c0,0.1,0,0.1,0,0.2c0,0,0,0.1,0,0.1v39.1C2.5,63.3,3.2,64,4,64h20.1c0.8,0,1.5-0.7,1.5-1.5V44.4h14v18.1
		c0,0.8,0.7,1.5,1.5,1.5H60c0.8,0,1.5-0.7,1.5-1.5L61.5,22.1C61.5,22.2,61.5,22.1,61.5,22.1z M42.6,61V42.9c0-0.8-0.7-1.5-1.5-1.5
		h-17c-0.8,0-1.5,0.7-1.5,1.5V61H5.5V24.2L32.8,3.3l25.7,19.6V61H42.6z"/>
</g>
</svg>
