<?xml version="1.0" encoding="utf-8"?>
<!-- Generator: Adobe Illustrator 16.0.0, SVG Export Plug-In . SVG Version: 6.00 Build 0)  -->
<!DOCTYPE svg PUBLIC "-//W3C//DTD SVG 1.1//EN" "http://www.w3.org/Graphics/SVG/1.1/DTD/svg11.dtd">
<svg version="1.1" id="Layer_1" xmlns="http://www.w3.org/2000/svg" xmlns:xlink="http://www.w3.org/1999/xlink" x="0px" y="0px"
	 width="595.279px" height="841.891px" viewBox="0 0 595.279 841.891" enable-background="new 0 0 595.279 841.891"
	 xml:space="preserve">
<g id="Layer_1_1_">
</g>
<path d="M473.434,123.305H121.846C54.877,123.305,0,178.182,0,245.151v351.588c0,66.969,54.877,121.846,121.846,121.846h351.588
	c66.969,0,121.846-54.877,121.846-121.846V245.151C595.28,178.182,540.403,123.305,473.434,123.305z M585.979,596.739
	c0,62.318-50.227,112.545-112.545,112.545H121.846c-62.318,0-112.545-50.227-112.545-112.545V245.151
	c0-62.318,50.227-112.545,112.545-112.545h351.588c62.318,0,112.545,50.227,112.545,112.545V596.739z"/>
</svg>
