<?xml version="1.0" encoding="utf-8"?>
<!-- Generator: Adobe Illustrator 16.0.0, SVG Export Plug-In . SVG Version: 6.00 Build 0)  -->
<!DOCTYPE svg PUBLIC "-//W3C//DTD SVG 1.1//EN" "http://www.w3.org/Graphics/SVG/1.1/DTD/svg11.dtd">
<svg version="1.1" id="Layer_1" xmlns="http://www.w3.org/2000/svg" xmlns:xlink="http://www.w3.org/1999/xlink" x="0px" y="0px"
	 width="595.279px" height="841.891px" viewBox="0 0 595.279 841.891" enable-background="new 0 0 595.279 841.891"
	 xml:space="preserve">
<g id="Layer_1_1_">
</g>
<path d="M526.45,568.835l-98.593-98.593l-146.029-145.1c14.882-19.533,24.183-44.646,24.183-71.62
	c0-66.039-53.947-119.986-120.916-119.986S65.109,187.483,65.109,254.453c0,66.039,53.947,119.986,120.916,119.986
	c29.765,0,56.738-11.162,77.201-27.904l134.867,134.868l-88.361,87.432c-5.581,5.581-5.581,13.952,0,19.532
	c2.79,2.791,6.511,3.721,10.231,3.721s7.44-0.93,10.231-3.721l88.361-87.432l79.061,78.131L390.653,684.171
	c-5.581,5.58-5.581,13.951,0,19.532c2.79,2.79,6.511,3.721,10.231,3.721s7.44-0.931,10.231-3.721L526.45,588.367
	c2.791-2.79,3.721-6.511,3.721-10.23C530.171,574.416,528.311,570.695,526.45,568.835z M186.025,346.535
	c-51.156,0-93.012-41.856-93.012-92.083c0-51.157,41.855-92.083,93.012-92.083c51.157,0,93.013,40.926,93.013,92.083
	S237.182,346.535,186.025,346.535z"/>
</svg>
