<?xml version="1.0" encoding="utf-8"?>
<!-- Generator: Adobe Illustrator 22.0.1, SVG Export Plug-In . SVG Version: 6.00 Build 0)  -->
<svg version="1.1" xmlns="http://www.w3.org/2000/svg" xmlns:xlink="http://www.w3.org/1999/xlink" x="0px" y="0px"
	 viewBox="0 0 64 64" style="enable-background:new 0 0 64 64;" xml:space="preserve">
<style type="text/css">
	.st0{opacity:0.85;}
	.st1{fill:#231F20;}
	.st2{fill:none;stroke:#231F20;stroke-width:2.2;stroke-linecap:round;stroke-linejoin:round;stroke-miterlimit:10;}
	.st3{fill:#000F23;}
	.st4{clip-path:url(#SVGID_2_);enable-background:new    ;}
	.st5{fill-rule:evenodd;clip-rule:evenodd;fill:#000F23;}
	.st6{fill:none;stroke:#000000;stroke-width:3;stroke-linecap:round;stroke-linejoin:round;stroke-miterlimit:10;}
	.st7{stroke:#000000;stroke-miterlimit:10;}
	.st8{fill:#333333;}
	.st9{fill-rule:evenodd;clip-rule:evenodd;}
</style>
<g id="Layer_1">
</g>
<g id="Layer_2">
	<g>
		<g>
			<defs>
				<rect id="SVGID_1_" x="-2944" y="-1864" width="5760" height="3600"/>
			</defs>
			<clipPath id="SVGID_2_">
				<use xlink:href="#SVGID_1_"  style="overflow:visible;"/>
			</clipPath>
		</g>
	</g>
	<g>
		<path class="st1" d="M61.1,10.8H2.9c-1.6,0-2.9,1.3-2.9,2.9v36.8c0,1.6,1.3,2.9,2.9,2.9h58.3c1.6,0,2.9-1.3,2.9-2.9V13.6
			C64,12.1,62.7,10.8,61.1,10.8z M3.2,13.9h14.6v36.1H3.2V13.9z M60.8,50.1H19V13.9h41.8V50.1z"/>
		<circle class="st1" cx="6.7" cy="19.3" r="1.9"/>
		<circle class="st1" cx="6.7" cy="25.7" r="1.9"/>
		<path class="st1" d="M10.5,20.3H13c0.2,0,0.3-0.1,0.3-0.3s-0.1-0.3-0.3-0.3h-2.5c-0.2,0-0.3,0.1-0.3,0.3S10.3,20.3,10.5,20.3z"/>
		<path class="st1" d="M14.6,25.7h-4.1c-0.2,0-0.3,0.1-0.3,0.3s0.1,0.3,0.3,0.3h4.1c0.2,0,0.3-0.1,0.3-0.3S14.7,25.7,14.6,25.7z"/>
		<circle class="st1" cx="24.1" cy="19" r="2.2"/>
		<path class="st1" d="M22.8,25.7c0,0.2,0.1,0.3,0.3,0.3h12.4c0.2,0,0.3-0.1,0.3-0.3s-0.1-0.3-0.3-0.3H23.1
			C23,25.3,22.8,25.5,22.8,25.7z"/>
		<path class="st1" d="M32.3,27.9h-9.2c-0.2,0-0.3,0.1-0.3,0.3c0,0.2,0.1,0.3,0.3,0.3h9.2c0.2,0,0.3-0.1,0.3-0.3
			C32.6,28,32.5,27.9,32.3,27.9z"/>
		<path class="st1" d="M49.1,33h9.2c0.2,0,0.3-0.1,0.3-0.3s-0.1-0.3-0.3-0.3h-9.2c-0.2,0-0.3,0.1-0.3,0.3S48.9,33,49.1,33z"/>
		<path class="st1" d="M45.6,35.5h12.7c0.2,0,0.3-0.1,0.3-0.3c0-0.2-0.1-0.3-0.3-0.3H45.6c-0.2,0-0.3,0.1-0.3,0.3
			C45.3,35.3,45.4,35.5,45.6,35.5z"/>
		<path class="st1" d="M29.1,39.3h-5.7c-0.2,0-0.3,0.1-0.3,0.3c0,0.2,0.1,0.3,0.3,0.3h5.7c0.2,0,0.3-0.1,0.3-0.3
			C29.5,39.4,29.3,39.3,29.1,39.3z"/>
		<path class="st1" d="M58.3,43.7h-9.5c-0.2,0-0.3,0.1-0.3,0.3s0.1,0.3,0.3,0.3h9.5c0.2,0,0.3-0.1,0.3-0.3S58.5,43.7,58.3,43.7z"/>
	</g>
</g>
</svg>
