<?xml version="1.0" encoding="utf-8"?>
<!-- Generator: Adobe Illustrator 22.1.0, SVG Export Plug-In . SVG Version: 6.00 Build 0)  -->
<svg version="1.1" id="Layer_1" xmlns="http://www.w3.org/2000/svg" xmlns:xlink="http://www.w3.org/1999/xlink" x="0px" y="0px"
	 viewBox="0 0 64 64" style="enable-background:new 0 0 64 64;" xml:space="preserve">
<style type="text/css">
	.st0{fill:#231F20;}
</style>
<g id="Layer_1_1_">
</g>
<path class="st0" d="M54.8,32.1h-0.3V20.1C54.4,9.4,44.4,0.8,32,0.8C19.6,0.8,9.6,9.4,9.6,20.1v12.2H9.2c-5,0-9.2,4.1-9.2,9.1v0.4
	c0,5,4.1,9.1,9.2,9.1h5.9c0.8,0,1.4-0.6,1.4-1.4V33.5c0-0.8-0.6-1.4-1.4-1.4h-2.7V20.1C12.4,11,21.1,3.6,32,3.6S51.6,11,51.6,20.1
	v12.2h-2.7c-0.8,0-1.4,0.6-1.4,1.4v15.9c0,0.8,0.6,1.4,1.4,1.4h4c-0.2,0.9-0.8,2.2-1.9,3.3c-1.9,2-5,3.1-9.1,3.3
	c-0.3-2.6-2.5-4.7-5.1-4.7c-2.9,0-5.2,2.3-5.2,5.2c0,2.9,2.3,5.2,5.2,5.2c2,0,3.8-1.2,4.7-2.9c5.1-0.1,9-1.5,11.6-4.1
	c1.9-1.9,2.5-4,2.8-5.4c4.5-0.5,8.1-4.4,8.1-9.1v-0.4C63.9,36.3,59.8,32.1,54.8,32.1z M13.6,34.8V48H9.2c-3.5,0-6.3-2.8-6.3-6.4
	v-0.4c0-3.5,2.8-6.4,6.3-6.4L13.6,34.8L13.6,34.8z M36.9,60.3c-1.3,0-2.4-1.1-2.4-2.4c0-1.3,1.1-2.4,2.4-2.4c1.3,0,2.4,1.1,2.4,2.4
	C39.3,59.2,38.2,60.3,36.9,60.3z M61.1,41.7c0,3.5-2.8,6.4-6.3,6.4h-4.4V34.9h4.4c3.5,0,6.3,2.8,6.3,6.4V41.7z"/>
</svg>
