<?xml version="1.0" encoding="utf-8"?>
<!-- Generator: Adobe Illustrator 16.0.0, SVG Export Plug-In . SVG Version: 6.00 Build 0)  -->
<!DOCTYPE svg PUBLIC "-//W3C//DTD SVG 1.1//EN" "http://www.w3.org/Graphics/SVG/1.1/DTD/svg11.dtd">
<svg version="1.1" id="Layer_1" xmlns="http://www.w3.org/2000/svg" xmlns:xlink="http://www.w3.org/1999/xlink" x="0px" y="0px"
	 width="595.279px" height="841.891px" viewBox="0 0 595.279 841.891" enable-background="new 0 0 595.279 841.891"
	 xml:space="preserve">
<g id="Layer_1_1_">
</g>
<path d="M524.59,215.387c-38.135,0-67.898,30.694-67.898,67.899c0,24.183,13.021,45.576,31.624,57.667l-75.34,96.733
	c-6.512-1.86-13.952-3.721-21.394-3.721c-9.301,0-18.603,1.86-26.974,5.581l-94.872-60.458
	c8.371-11.162,13.021-25.113,13.021-39.995c0-38.135-30.694-67.899-67.899-67.899s-67.898,30.694-67.898,67.899
	c0,22.323,10.231,41.855,26.974,54.877L98.593,497.216c-9.301-4.651-19.532-7.441-30.694-7.441C30.695,489.774,0,520.469,0,557.674
	c0,38.135,30.694,67.898,67.898,67.898c38.136,0,67.899-30.693,67.899-67.898c0-17.673-6.511-32.555-16.742-44.646l78.131-108.824
	c5.58,0.93,10.231,1.86,16.742,1.86c13.021,0,24.184-3.721,34.414-9.302l92.083,59.528c-11.162,12.092-17.673,28.834-17.673,46.506
	c0,38.136,30.694,67.899,67.899,67.899c38.135,0,67.899-30.694,67.899-67.899c0-20.463-9.302-39.065-23.254-51.156l79.061-100.454
	c3.721,0.93,6.512,0.93,10.231,0.93c38.136,0,67.899-30.694,67.899-67.899C595.28,246.082,562.726,215.387,524.59,215.387z
	 M67.899,599.529c-23.253,0-41.855-18.603-41.855-41.855c0-23.254,18.603-41.855,41.855-41.855c8.372,0,16.743,2.79,22.323,6.511
	c0.931,0.93,1.86,1.86,2.791,2.79c0.93,0.93,0.93,0.93,1.859,0.93c8.372,7.441,13.022,18.603,13.022,30.694
	C109.755,580.927,91.153,599.529,67.899,599.529z M213.929,380.02c-23.253,0-41.855-18.603-41.855-41.855
	c0-23.253,18.603-41.856,41.855-41.856s41.855,18.603,41.855,41.856C255.784,361.417,237.182,380.02,213.929,380.02z
	 M390.653,544.651c-23.253,0-41.855-18.603-41.855-41.855s18.603-41.855,41.855-41.855s41.855,18.603,41.855,41.855
	S413.906,544.651,390.653,544.651z M524.59,325.142c-23.253,0-41.855-18.603-41.855-41.855c0-23.253,18.603-41.856,41.855-41.856
	c23.254,0,41.856,18.603,41.856,41.856C566.447,306.54,547.844,325.142,524.59,325.142z"/>
</svg>
