<?xml version="1.0" encoding="utf-8"?>
<!-- Generator: Adobe Illustrator 22.1.0, SVG Export Plug-In . SVG Version: 6.00 Build 0)  -->
<svg version="1.1" id="Layer_1" xmlns="http://www.w3.org/2000/svg" xmlns:xlink="http://www.w3.org/1999/xlink" x="0px" y="0px"
	 viewBox="0 0 64 64" style="enable-background:new 0 0 64 64;" xml:space="preserve">
<g id="Layer_1_1_">
</g>
<path d="M56.6,9.9c-4.1,0-7.3,3.3-7.3,7.3c0,2.6,1.4,4.9,3.4,6.2l-8.1,10.4c-0.7-0.2-1.5-0.4-2.3-0.4c-1,0-2,0.2-2.9,0.6l-10.2-6.5
	c0.9-1.2,1.4-2.7,1.4-4.3c0-4.1-3.3-7.3-7.3-7.3s-7.3,3.3-7.3,7.3c0,2.4,1.1,4.5,2.9,5.9l-8.1,11.1c-1-0.5-2.1-0.8-3.3-0.8
	c-4,0-7.3,3.3-7.3,7.3c0,4.1,3.3,7.3,7.3,7.3c4.1,0,7.3-3.3,7.3-7.3c0-1.9-0.7-3.5-1.8-4.8l8.4-11.8c0.6,0.1,1.1,0.2,1.8,0.2
	c1.4,0,2.6-0.4,3.7-1l9.9,6.4c-1.2,1.3-1.9,3.1-1.9,5c0,4.1,3.3,7.3,7.3,7.3c4.1,0,7.3-3.3,7.3-7.3c0-2.2-1-4.2-2.5-5.5l8.5-10.8
	c0.4,0.1,0.7,0.1,1.1,0.1c4.1,0,7.3-3.3,7.3-7.3C64.3,13.2,60.8,9.9,56.6,9.9z M7.3,51.3c-2.5,0-4.5-2-4.5-4.5c0-2.5,2-4.5,4.5-4.5
	c0.9,0,1.8,0.3,2.4,0.7c0.1,0.1,0.2,0.2,0.3,0.3c0.1,0.1,0.1,0.1,0.2,0.1c0.9,0.8,1.4,2,1.4,3.3C11.9,49.3,9.8,51.3,7.3,51.3z
	 M23.1,27.6c-2.5,0-4.5-2-4.5-4.5c0-2.5,2-4.5,4.5-4.5s4.5,2,4.5,4.5C27.6,25.6,25.6,27.6,23.1,27.6z M42.2,45.4
	c-2.5,0-4.5-2-4.5-4.5s2-4.5,4.5-4.5s4.5,2,4.5,4.5C46.7,43.4,44.7,45.4,42.2,45.4z M56.6,21.7c-2.5,0-4.5-2-4.5-4.5
	c0-2.5,2-4.5,4.5-4.5c2.5,0,4.5,2,4.5,4.5C61.2,19.7,59.2,21.7,56.6,21.7z"/>
</svg>
