<?xml version="1.0" encoding="utf-8"?>
<!-- Generator: Adobe Illustrator 16.0.0, SVG Export Plug-In . SVG Version: 6.00 Build 0)  -->
<!DOCTYPE svg PUBLIC "-//W3C//DTD SVG 1.1//EN" "http://www.w3.org/Graphics/SVG/1.1/DTD/svg11.dtd">
<svg version="1.1" id="Layer_1" xmlns="http://www.w3.org/2000/svg" xmlns:xlink="http://www.w3.org/1999/xlink" x="0px" y="0px"
	 width="595.279px" height="841.891px" viewBox="0 0 595.279 841.891" enable-background="new 0 0 595.279 841.891"
	 xml:space="preserve">
<g id="Layer_1_1_">
</g>
<g>
	<path fill="#231F20" d="M568.307,223.758H26.974C12.092,223.758,0,235.85,0,250.732v342.287c0,14.882,12.092,26.974,26.974,26.974
		h542.263c14.882,0,26.974-12.092,26.974-26.974V249.802C595.28,235.85,583.189,223.758,568.307,223.758z M29.764,252.592h535.752
		V308.4H29.764V252.592z M566.447,588.367H29.764V320.492h536.683V588.367z"/>
	<path fill="#231F20" d="M130.218,276.775h-71.62c-3.721,0-5.581,2.791-5.581,5.581c0,3.721,2.791,5.581,5.581,5.581h71.62
		c3.72,0,5.58-2.79,5.58-5.581S133.008,276.775,130.218,276.775z"/>
	<circle fill="#231F20" cx="479.945" cy="509.307" r="47.436"/>
</g>
</svg>
