<?xml version="1.0" encoding="utf-8"?>
<!-- Generator: Adobe Illustrator 22.0.1, SVG Export Plug-In . SVG Version: 6.00 Build 0)  -->
<svg version="1.1" xmlns="http://www.w3.org/2000/svg" xmlns:xlink="http://www.w3.org/1999/xlink" x="0px" y="0px"
	 viewBox="0 0 64 64" style="enable-background:new 0 0 64 64;" xml:space="preserve">
<style type="text/css">
	.st0{opacity:0.85;}
	.st1{fill:#231F20;}
	.st2{fill:none;stroke:#231F20;stroke-width:2.2;stroke-linecap:round;stroke-linejoin:round;stroke-miterlimit:10;}
	.st3{fill:#000F23;}
	.st4{clip-path:url(#SVGID_2_);enable-background:new    ;}
	.st5{fill-rule:evenodd;clip-rule:evenodd;fill:#000F23;}
	.st6{fill:none;stroke:#000000;stroke-width:3;stroke-linecap:round;stroke-linejoin:round;stroke-miterlimit:10;}
	.st7{stroke:#000000;stroke-miterlimit:10;}
	.st8{fill:#333333;}
	.st9{fill-rule:evenodd;clip-rule:evenodd;}
</style>
<g id="Layer_1">
</g>
<g id="Layer_2">
	<g id="Layer_2_1_">
		<path d="M32.5,13c3.5,0,6.3-2.8,6.3-6.3S36,0.4,32.5,0.4s-6.3,2.8-6.3,6.3C26.1,10.2,29,13,32.5,13z M32.5,3.7c1.7,0,3,1.3,3,3
			c0,1.7-1.4,3-3.1,3c-1.7,0-3.1-1.4-3.1-3C29.4,5,30.7,3.7,32.5,3.7C32.4,3.7,32.4,3.7,32.5,3.7z"/>
		<path d="M53.5,31.9c3.5,0,6.3-2.8,6.3-6.3s-2.8-6.3-6.3-6.3c-3.5,0-6.3,2.8-6.3,6.3C47.2,29.1,50,31.9,53.5,31.9z M53.5,28.7
			c-1.7,0-3-1.3-3-3s1.4-3,3-3c1.7,0,3.1,1.4,3.1,3S55.2,28.8,53.5,28.7L53.5,28.7z"/>
		<path d="M11.3,31.9c3.5,0,6.3-2.8,6.4-6.2c0-3.5-2.8-6.3-6.3-6.3c-3.5,0-6.3,2.8-6.4,6.2c0,0,0,0,0,0C5,29.1,7.8,31.9,11.3,31.9z
			 M11.3,22.6c1.7,0,3,1.3,3,3s-1.4,3-3,3s-3-1.3-3-3C8.3,24,9.6,22.6,11.3,22.6L11.3,22.6z"/>
		<path d="M32.5,47.9c3.5,0,6.3-2.8,6.3-6.3s-2.8-6.3-6.3-6.3s-6.3,2.8-6.3,6.3C26.1,45.1,29,47.9,32.5,47.9z M32.5,38.6
			c1.7,0,3,1.3,3,3s-1.4,3-3,3c-1.7,0-3-1.3-3-3C29.4,39.9,30.8,38.6,32.5,38.6L32.5,38.6z"/>
		<path d="M16.5,35.6c0-0.9-0.7-1.6-1.5-1.6c0,0-0.1,0-0.1,0c-0.3,0-0.6,0-0.8-0.1h-0.1c-0.6,0-1.5-0.1-2.3-0.1
			c-3.4,0-5.9,0.9-7.6,2.7c-2.4,2.4-2.4,7.7-2.1,13v0.5c0,0.9,0.7,1.5,1.6,1.5c0,0,0,0,0,0h0.1c0.5,0,0.9-0.2,1.2-0.5
			c0.3-0.3,0.4-0.8,0.4-1.2v-0.5c-0.4-5.6,0-9.5,1.2-10.7S9,37,11.3,37c0.8,0,1.6,0.1,2.3,0.1c0.2,0,0.3,0,0.5,0c0.2,0,0.4,0,0.6,0
			h0.2c0.4,0,0.8-0.2,1.1-0.4C16.3,36.4,16.4,36,16.5,35.6z"/>
		<path d="M60.7,36.4c-1.7-1.8-4.1-2.6-7.4-2.6c-0.9,0-1.7,0.1-2.4,0.1h-0.1c-0.2,0-0.4,0-0.7,0c-0.1,0-0.2,0-0.3,0
			c-0.9,0-1.7,0.8-1.6,1.7s0.8,1.6,1.7,1.6c0.4,0,0.8,0,1.1-0.1c0.6,0,1.5-0.1,2.3-0.1c2.3,0,4,0.5,5,1.6c1.2,1.3,1.5,5.2,1.1,10.8
			v0.5c0,0.8,0.6,1.6,1.4,1.7h0.2c0.9,0,1.6-0.6,1.6-1.5c0,0,0,0,0,0v-0.4C63,44.2,63,38.8,60.7,36.4z"/>
		<path d="M45.4,26.9c-0.1-0.8-0.8-1.4-1.6-1.4H21.2c-0.8,0-1.5,0.6-1.6,1.3L15,53.5c-0.1,0.4,0,0.9,0.3,1.2c0.2,0.3,0.6,0.6,1,0.7
			h0.3c0.8,0,1.5-0.6,1.6-1.3l4.2-25.2h19.9l4.3,26c0.2,0.8,0.8,1.3,1.6,1.3h0.3c0.4-0.1,0.8-0.3,1.1-0.7c0.2-0.4,0.3-0.8,0.3-1.2
			L45.4,26.9z"/>
		<path d="M23.7,24.7H24c0.8,0,1.4-0.5,1.6-1.2c0.4-2,1.8-3.9,2.6-4.2c1.6-0.4,3.2-0.6,4.8-0.5c1.3,0,2.5,0.1,3.7,0.4
			c1.2,0.5,2,2.9,2.3,4.2c0.1,0.8,0.8,1.3,1.6,1.4h0.3c0.9-0.1,1.5-0.9,1.3-1.8c0,0,0-0.1,0-0.1c-0.3-1.7-1.3-5.8-4.4-6.8
			c-1.6-0.4-3.3-0.6-5-0.6c-2-0.1-4.1,0.2-6.1,0.8c-2.1,1-3.8,4-4.4,6.5v0.1v0.1C22.3,23.7,22.9,24.5,23.7,24.7z"/>
		<path d="M42.5,61.6c0-0.1-0.1-0.6-0.2-1c-0.4-2.6-1.2-7.9-3.8-9.6c-1.8-0.9-3.8-1.3-5.8-1.2c-2.1,0-5,0.4-6.4,1.5
			c-2,1.7-3.4,6.6-3.8,10.5c-0.1,0.5,0.1,0.9,0.4,1.3c0.3,0.3,0.7,0.5,1.2,0.5h0.1c0.8,0,1.5-0.6,1.6-1.5c0.5-4.4,2-7.7,2.8-8.5
			c1.3-0.6,2.8-0.8,4.2-0.7c1.4-0.1,2.8,0.2,4.1,0.8c1.2,0.7,2.1,4.8,2.3,8.2c0,0.9,0.8,1.6,1.7,1.6c0.9,0,1.7-0.8,1.6-1.7v-0.1
			L42.5,61.6z"/>
	</g>
	<g>
		<g>
			<defs>
				<rect id="SVGID_1_" x="-2656" y="-1576" width="5760" height="3600"/>
			</defs>
			<clipPath id="SVGID_2_">
				<use xlink:href="#SVGID_1_"  style="overflow:visible;"/>
			</clipPath>
		</g>
	</g>
</g>
</svg>
