<?xml version="1.0" encoding="utf-8"?>
<!-- Generator: Adobe Illustrator 22.0.1, SVG Export Plug-In . SVG Version: 6.00 Build 0)  -->
<svg version="1.1" xmlns="http://www.w3.org/2000/svg" xmlns:xlink="http://www.w3.org/1999/xlink" x="0px" y="0px"
	 viewBox="0 0 64 64" style="enable-background:new 0 0 64 64;" xml:space="preserve">
<style type="text/css">
	.st0{opacity:0.85;}
	.st1{fill:#231F20;}
	.st2{fill:none;stroke:#231F20;stroke-width:2.2;stroke-linecap:round;stroke-linejoin:round;stroke-miterlimit:10;}
	.st3{fill:#000F23;}
	.st4{clip-path:url(#SVGID_2_);enable-background:new    ;}
	.st5{fill-rule:evenodd;clip-rule:evenodd;fill:#000F23;}
	.st6{fill:none;stroke:#000000;stroke-width:3;stroke-linecap:round;stroke-linejoin:round;stroke-miterlimit:10;}
	.st7{stroke:#000000;stroke-miterlimit:10;}
	.st8{fill:#333333;}
	.st9{fill-rule:evenodd;clip-rule:evenodd;}
</style>
<g id="Layer_1">
</g>
<g id="Layer_2">
	<g>
		<path d="M64,32.1c0-0.1,0-0.2,0-0.3c0,0,0-0.1,0-0.1c0-0.1-0.1-0.2-0.1-0.2c0,0,0-0.1-0.1-0.1c0-0.1-0.1-0.1-0.1-0.2
			c0,0-0.1-0.1-0.1-0.1c-0.1-0.1-0.1-0.1-0.2-0.2l-8.5-5.8c-0.8-0.5-1.9-0.3-2.4,0.4c-0.3,0.4-0.4,0.9-0.3,1.3s0.3,0.9,0.7,1.1
			l3.8,2.6H23.1c-1,0-1.8,0.8-1.8,1.8c0,1,0.8,1.8,1.8,1.8h33.4l-3.8,2.6c-0.4,0.3-0.6,0.7-0.7,1.1c-0.1,0.5,0,0.9,0.3,1.3
			c0.3,0.5,0.9,0.8,1.5,0.8c0.4,0,0.7-0.1,1-0.3l8.5-5.8l0,0c0.1-0.1,0.2-0.1,0.2-0.2c0,0,0.1-0.1,0.1-0.1c0-0.1,0.1-0.1,0.1-0.2
			c0,0,0-0.1,0.1-0.1c0-0.1,0.1-0.1,0.1-0.3c0,0,0-0.1,0-0.1c0-0.1,0-0.2,0-0.3C64,32.2,64,32.2,64,32.1L64,32.1z"/>
		<path d="M43.9,38.4c-1,0-1.8,0.8-1.8,1.8v13.3c0,2.1-1.7,3.7-3.7,3.7H7.3c-2.1,0-3.7-1.7-3.7-3.7V10.8C3.5,8.7,5.2,7,7.3,7h31.1
			c2.1,0,3.7,1.7,3.7,3.7v13c0,1,0.8,1.8,1.8,1.8c1,0,1.8-0.8,1.8-1.8v-13c0-4-3.3-7.2-7.3-7.2H7.3c-4,0-7.3,3.2-7.3,7.2v42.8
			c0,4,3.3,7.2,7.3,7.2h31.1c4,0,7.3-3.2,7.3-7.2V40.2C45.7,39.2,44.9,38.4,43.9,38.4z"/>
	</g>
	<g>
		<g>
			<defs>
				<rect id="SVGID_1_" x="-2560" y="-1576" width="5760" height="3600"/>
			</defs>
			<clipPath id="SVGID_2_">
				<use xlink:href="#SVGID_1_"  style="overflow:visible;"/>
			</clipPath>
		</g>
	</g>
</g>
</svg>
