<?xml version="1.0" encoding="utf-8"?>
<!-- Generator: Adobe Illustrator 16.0.0, SVG Export Plug-In . SVG Version: 6.00 Build 0)  -->
<!DOCTYPE svg PUBLIC "-//W3C//DTD SVG 1.1//EN" "http://www.w3.org/Graphics/SVG/1.1/DTD/svg11.dtd">
<svg version="1.1" id="Layer_1" xmlns="http://www.w3.org/2000/svg" xmlns:xlink="http://www.w3.org/1999/xlink" x="0px" y="0px"
	 width="595.279px" height="841.891px" viewBox="0 0 595.279 841.891" enable-background="new 0 0 595.279 841.891"
	 xml:space="preserve">
<g id="Layer_1_1_">
</g>
<path fill="#231F20" d="M510.639,422.806h-2.791V310.26c-0.93-99.523-94.872-179.514-210.208-179.514
	c-115.335,0-209.278,79.991-209.278,179.514v113.475h-3.72c-46.507,0-85.572,38.135-85.572,84.642v3.721
	c0,46.506,38.136,84.642,85.572,84.642h54.877c7.441,0,13.021-5.581,13.021-13.022v-147.89c0-7.441-5.58-13.021-13.021-13.021
	h-25.113V310.26c0-84.642,81.851-153.471,183.234-153.471s183.234,68.829,183.234,153.471v113.475h-25.113
	c-7.44,0-13.021,5.581-13.021,13.021v147.891c0,7.44,5.581,13.021,13.021,13.021h37.205c-1.86,8.371-7.44,20.463-17.672,30.694
	c-17.673,18.603-46.507,28.834-84.642,30.694c-2.791-24.184-23.253-43.717-47.437-43.717c-26.974,0-48.366,21.394-48.366,48.367
	s21.393,48.366,48.366,48.366c18.603,0,35.345-11.161,43.716-26.974c47.437-0.93,83.711-13.952,107.895-38.135
	c17.673-17.673,23.253-37.205,26.044-50.228c41.855-4.65,75.34-40.925,75.34-84.641v-3.721
	C595.28,461.871,557.145,422.806,510.639,422.806z M125.567,447.919v122.776H84.642c-32.555,0-58.599-26.044-58.599-59.528v-3.721
	c0-32.554,26.044-59.527,58.599-59.527H125.567z M343.216,685.101c-12.092,0-22.323-10.231-22.323-22.323
	s10.231-22.322,22.323-22.322s22.323,10.23,22.323,22.322S355.308,685.101,343.216,685.101z M569.237,512.098
	c0,32.554-26.044,59.527-58.598,59.527h-40.926V448.849h40.926c32.554,0,58.598,26.044,58.598,59.528V512.098z"/>
</svg>
