<?xml version="1.0" encoding="utf-8"?>
<!-- Generator: Adobe Illustrator 22.0.1, SVG Export Plug-In . SVG Version: 6.00 Build 0)  -->
<svg version="1.1" xmlns="http://www.w3.org/2000/svg" xmlns:xlink="http://www.w3.org/1999/xlink" x="0px" y="0px"
	 viewBox="0 0 64 64" style="enable-background:new 0 0 64 64;" xml:space="preserve">
<style type="text/css">
	.st0{opacity:0.85;}
	.st1{fill:#231F20;}
	.st2{fill:none;stroke:#231F20;stroke-width:2.2;stroke-linecap:round;stroke-linejoin:round;stroke-miterlimit:10;}
	.st3{fill:#000F23;}
	.st4{clip-path:url(#SVGID_2_);enable-background:new    ;}
	.st5{fill-rule:evenodd;clip-rule:evenodd;fill:#000F23;}
	.st6{fill:none;stroke:#000000;stroke-width:3;stroke-linecap:round;stroke-linejoin:round;stroke-miterlimit:10;}
	.st7{stroke:#000000;stroke-miterlimit:10;}
	.st8{fill:#333333;}
	.st9{fill-rule:evenodd;clip-rule:evenodd;}
</style>
<g id="Layer_1">
</g>
<g id="Layer_2">
	<path d="M56.4,9.9c-4.1,0-7.3,3.3-7.3,7.3c0,2.6,1.4,4.9,3.4,6.2l-8.1,10.4c-0.7-0.2-1.5-0.4-2.3-0.4c-1,0-2,0.2-2.9,0.6L29,27.5
		c0.9-1.2,1.4-2.7,1.4-4.3c0-4.1-3.3-7.3-7.3-7.3s-7.3,3.3-7.3,7.3c0,2.4,1.1,4.5,2.9,5.9l-8.1,11.1c-1-0.5-2.1-0.8-3.3-0.8
		c-4,0-7.3,3.3-7.3,7.3c0,4.1,3.3,7.3,7.3,7.3c4.1,0,7.3-3.3,7.3-7.3c0-1.9-0.7-3.5-1.8-4.8l8.4-11.7c0.6,0.1,1.1,0.2,1.8,0.2
		c1.4,0,2.6-0.4,3.7-1l9.9,6.4c-1.2,1.3-1.9,3.1-1.9,5c0,4.1,3.3,7.3,7.3,7.3c4.1,0,7.3-3.3,7.3-7.3c0-2.2-1-4.2-2.5-5.5l8.5-10.8
		c0.4,0.1,0.7,0.1,1.1,0.1c4.1,0,7.3-3.3,7.3-7.3C64,13.2,60.5,9.9,56.4,9.9z M7.3,51.2c-2.5,0-4.5-2-4.5-4.5c0-2.5,2-4.5,4.5-4.5
		c0.9,0,1.8,0.3,2.4,0.7c0.1,0.1,0.2,0.2,0.3,0.3c0.1,0.1,0.1,0.1,0.2,0.1c0.9,0.8,1.4,2,1.4,3.3C11.8,49.2,9.8,51.2,7.3,51.2z
		 M23,27.6c-2.5,0-4.5-2-4.5-4.5c0-2.5,2-4.5,4.5-4.5c2.5,0,4.5,2,4.5,4.5C27.5,25.6,25.5,27.6,23,27.6z M42,45.3
		c-2.5,0-4.5-2-4.5-4.5c0-2.5,2-4.5,4.5-4.5c2.5,0,4.5,2,4.5,4.5C46.5,43.3,44.5,45.3,42,45.3z M56.4,21.7c-2.5,0-4.5-2-4.5-4.5
		c0-2.5,2-4.5,4.5-4.5c2.5,0,4.5,2,4.5,4.5C60.9,19.7,58.9,21.7,56.4,21.7z"/>
	<g>
		<g>
			<defs>
				<rect id="SVGID_1_" x="-3136" y="-1480" width="5760" height="3600"/>
			</defs>
			<clipPath id="SVGID_2_">
				<use xlink:href="#SVGID_1_"  style="overflow:visible;"/>
			</clipPath>
		</g>
	</g>
</g>
</svg>
