<?xml version="1.0" encoding="utf-8"?>
<!-- Generator: Adobe Illustrator 22.0.1, SVG Export Plug-In . SVG Version: 6.00 Build 0)  -->
<svg version="1.1" id="Layer_1" xmlns="http://www.w3.org/2000/svg" xmlns:xlink="http://www.w3.org/1999/xlink" x="0px" y="0px"
	 viewBox="0 0 64 64" style="enable-background:new 0 0 64 64;" xml:space="preserve">
<style type="text/css">
	.st0{fill:#231F20;}
</style>
<g id="Layer_1_1_">
</g>
<path class="st0" d="M61.4,21.6c0,0,0-0.1-0.1-0.1l-0.1-0.1l-0.1-0.1L61,21.2c0,0,0,0-0.1-0.1L33.7,0.3l-0.1-0.1c0,0,0,0-0.1,0
	s-0.1-0.1-0.2-0.1h-0.1c-0.1,0-0.1,0-0.2,0C33,0,33,0,33,0h-0.1c-0.1,0-0.1,0-0.1,0h-0.1c-0.1,0-0.1,0-0.2,0h-0.1
	c-0.1,0-0.1,0.1-0.2,0.1c0,0,0,0-0.1,0c0,0-0.1,0-0.1,0.1l-28.8,22c0,0,0,0-0.1,0.1L3,22.4l-0.1,0.1l-0.1,0.1c0,0,0,0.1-0.1,0.1
	c0,0,0,0.1-0.1,0.1v0.1V23c0,0.1,0,0.1,0,0.2v0.1v39.1C2.5,63.3,3.2,64,4,64h20.1c0.8,0,1.5-0.7,1.5-1.5V44.4h14v18.1
	c0,0.8,0.7,1.5,1.5,1.5H60c0.8,0,1.5-0.7,1.5-1.5V22.1v0c0-0.1,0-0.1,0-0.2v-0.1v-0.1C61.5,21.7,61.5,21.6,61.4,21.6z M58.5,61H42.6
	V42.9c0-0.8-0.7-1.5-1.5-1.5h-17c-0.8,0-1.5,0.7-1.5,1.5V61H5.5V24.2L32.8,3.3l25.7,19.6V61z"/>
</svg>
