<?xml version="1.0" encoding="utf-8"?>
<!-- Generator: Adobe Illustrator 22.0.1, SVG Export Plug-In . SVG Version: 6.00 Build 0)  -->
<svg version="1.1" xmlns="http://www.w3.org/2000/svg" xmlns:xlink="http://www.w3.org/1999/xlink" x="0px" y="0px"
	 viewBox="0 0 64 64" style="enable-background:new 0 0 64 64;" xml:space="preserve">
<style type="text/css">
	.st0{opacity:0.85;}
	.st1{fill:#231F20;}
	.st2{fill:none;stroke:#231F20;stroke-width:2.2;stroke-linecap:round;stroke-linejoin:round;stroke-miterlimit:10;}
	.st3{fill:#000F23;}
	.st4{clip-path:url(#SVGID_2_);enable-background:new    ;}
	.st5{fill-rule:evenodd;clip-rule:evenodd;fill:#000F23;}
	.st6{fill:none;stroke:#000000;stroke-width:3;stroke-linecap:round;stroke-linejoin:round;stroke-miterlimit:10;}
	.st7{stroke:#000000;stroke-miterlimit:10;}
	.st8{fill:#333333;}
	.st9{fill-rule:evenodd;clip-rule:evenodd;}
</style>
<g id="Layer_1">
</g>
<g id="Layer_2">
	<g>
		<g>
			<defs>
				<rect id="SVGID_1_" x="-2656" y="-1864" width="5760" height="3600"/>
			</defs>
			<clipPath id="SVGID_2_">
				<use xlink:href="#SVGID_1_"  style="overflow:visible;"/>
			</clipPath>
		</g>
	</g>
	<g>
		<path class="st1" d="M61.1,10.8H2.9c-1.6,0-2.9,1.3-2.9,2.9v36.8c0,1.6,1.3,2.9,2.9,2.9h58.3c1.6,0,2.9-1.3,2.9-2.9V13.6
			C64,12.1,62.7,10.8,61.1,10.8z M60.8,13.9v6H3.2v-6H60.8z M3.2,50.1V21.2h57.7v28.8H3.2z"/>
		<path class="st1" d="M6.3,17.7H14c0.4,0,0.6-0.3,0.6-0.6c0-0.3-0.3-0.6-0.6-0.6H6.3c-0.4,0-0.6,0.3-0.6,0.6
			C5.7,17.5,6,17.7,6.3,17.7z"/>
		<circle class="st1" cx="51.6" cy="41.5" r="5.1"/>
	</g>
</g>
</svg>
