<?xml version="1.0" encoding="utf-8"?>
<!-- Generator: Adobe Illustrator 22.1.0, SVG Export Plug-In . SVG Version: 6.00 Build 0)  -->
<svg version="1.1" id="Layer_1" xmlns="http://www.w3.org/2000/svg" xmlns:xlink="http://www.w3.org/1999/xlink" x="0px" y="0px"
	 viewBox="0 0 64 64" style="enable-background:new 0 0 64 64;" xml:space="preserve">
<g id="Layer_1_1_">
</g>
<path d="M63.8,28.1l-9.5-15.4c-0.2-0.3-0.4-0.4-0.7-0.5c-0.3-0.1-0.6,0-0.8,0.1l-6.3,4.1c-0.5,0.3-0.7,1-0.3,1.5l0.4,0.6
	c-0.1,0-0.2,0-0.3,0l-1.8,0.6c-1.3-0.3-5.8-1.5-9.2-1.6c-3.6-0.1-9.4,1.2-11.1,2.9c-0.1,0-0.1,0-0.2,0c-3.5,0.5-5.7-1.6-5.8-1.7
	c-0.2-0.2-0.4-0.3-0.7-0.3l0.5-0.7c0.3-0.5,0.2-1.2-0.3-1.5l-6-3.8c-0.2-0.2-0.6-0.2-0.8-0.1c-0.3,0.1-0.5,0.2-0.7,0.5l-10,16.4
	c-0.3,0.5-0.2,1.2,0.3,1.5l6,3.8c0.2,0.1,0.4,0.2,0.6,0.2c0.1,0,0.2,0,0.2,0c0.3-0.1,0.5-0.2,0.7-0.5l0.6-1l3.7,5.1
	c0.1,0.2,0.3,0.3,0.4,0.3l-1.2,1.8c-0.9,1.3-0.5,3.1,0.8,3.9c0.5,0.3,1,0.5,1.6,0.5c0.2,0,0.3,0,0.5,0c-0.2,1.1,0.2,2.2,1.2,2.8
	l0.6,0.4c0.5,0.3,1,0.5,1.6,0.5c0.2,0,0.4,0,0.5-0.1c0.2,0,0.3-0.1,0.5-0.2c0.2,0.6,0.5,1.1,1.1,1.5l0.6,0.4c0.5,0.3,1,0.5,1.6,0.5
	c0.2,0,0.4,0,0.5-0.1c0.4-0.1,0.7-0.2,1-0.4c0.2,0.5,0.5,1,1,1.3c0.5,0.3,1,0.5,1.6,0.5c0.2,0,0.4,0,0.5-0.1c0.6-0.1,1.2-0.5,1.6-1
	c0.1,0.1,0.2,0.1,0.4,0.1l6.7,0.7c0.1,0,0.2,0,0.3,0c0.6,0,1.7-0.3,3.2-1.9h0.8c0.1,0,1.9-0.1,3.1-1.5c0.5-0.6,0.8-1.4,0.9-2.4
	c0.1,0,0.3,0,0.4,0c0.6,0,1.5-0.1,2.2-0.7c0.8-0.6,1.3-1.5,1.4-2.8v-0.1c0.5,0,2.1-0.3,3-1.5c0.6-0.7,0.8-1.6,0.7-2.7l4.4-5
	c0.2,0.2,0.4,0.4,0.6,0.4c0.1,0,0.2,0,0.2,0c0.2,0,0.4-0.1,0.6-0.2l6.3-4.1C64,29.3,64.2,28.6,63.8,28.1z M6.7,32.1l-4.1-2.6
	L11.4,15l4.1,2.6L6.7,32.1z M15,42.7c-0.2,0.3-0.5,0.5-0.8,0.5c-0.4,0.1-0.7,0-0.9-0.2c-0.6-0.4-0.7-1.2-0.3-1.7l2.3-3.5
	c0.2-0.3,0.5-0.5,0.8-0.5c0.1,0,0.2,0,0.2,0c0.2,0,0.5,0.1,0.7,0.2c0.6,0.4,0.7,1.2,0.3,1.7L15,42.7z M18.8,46.4
	c-0.3,0.3-0.5,0.4-0.8,0.5c-0.3,0.1-0.6,0-0.9-0.2l-0.6-0.4c-0.6-0.4-0.7-1.2-0.3-1.7l4.4-6.6c0.2-0.3,0.5-0.5,0.8-0.5
	c0.3-0.1,0.6,0,0.9,0.2l0.6,0.4c0.6,0.4,0.7,1.2,0.3,1.7L18.8,46.4z M23,48.5c-0.2,0.3-0.5,0.5-0.8,0.6c-0.3,0.1-0.6,0-0.9-0.2
	l-0.6-0.4c-0.6-0.4-0.7-1.2-0.3-1.7l3.4-5.2c0.2-0.3,0.5-0.5,0.8-0.5c0.3-0.1,0.6,0,0.9,0.2l0.6,0.4c0.6,0.4,0.7,1.2,0.3,1.7
	L23,48.5z M28.7,47.6l-1.5,2.3c-0.3,0.2-0.5,0.4-0.8,0.5c-0.3,0.1-0.6,0-0.9-0.2c-0.6-0.4-0.7-1.2-0.3-1.7l1.5-2.3
	c0.2-0.3,0.5-0.5,0.8-0.5c0.3-0.1,0.6,0,0.9,0.2C29,46.3,29.1,47.1,28.7,47.6z M49.2,40c-0.4,0.6-1.2,0.7-1.6,0.8L37.7,35
	c-0.4-0.2-1-0.1-1.2,0.3c-0.3,0.4-0.1,1,0.3,1.2l9.3,5.4c-0.2,0.1-0.3,0.3-0.3,0.6c-0.1,0.7-0.3,1.2-0.7,1.5
	c-0.5,0.4-1.3,0.3-1.5,0.3l-8.1-4.2c-0.4-0.2-1-0.1-1.2,0.4c-0.2,0.4-0.1,1,0.4,1.2l7.1,3.7c0.1,0.8-0.1,1.5-0.4,2
	c-0.5,0.6-1.2,0.7-1.5,0.8l-6.3-3c-0.5-0.2-1,0-1.2,0.4c-0.2,0.4,0,1,0.4,1.2l4.6,2.2c-1,1-1.6,1.1-1.7,1.1l-6.2-0.6l0.6-1
	c0.9-1.3,0.5-3.1-0.8-3.9c-0.4-0.3-0.9-0.4-1.4-0.5c0.7-1.3,0.3-2.9-0.9-3.7L26.4,40c-0.5-0.3-1-0.5-1.5-0.5c0.1-1-0.3-2.1-1.2-2.7
	l-0.6-0.4C22.5,36,21.7,35.8,21,36c-0.7,0.1-1.4,0.6-1.8,1.2l-0.3,0.5c-0.2-0.6-0.5-1.1-1.1-1.4c-0.6-0.4-1.4-0.6-2.1-0.4
	C15,36,14.4,36.4,14,37l-3.7-5c-0.2-0.2-0.4-0.3-0.6-0.4l6.8-11.1c0,0.1,0.1,0.2,0.2,0.2c0.1,0.1,2.3,2.1,5.7,2.3
	c-1.3,1.8-2.8,3.8-2.9,3.9c-0.2,0.2-0.2,0.5-0.2,0.8c0,0.4,0.3,2.2,1.1,3.1c1.1,1.3,3.3,0.3,4.2-0.2l7.2-3.8l17.7,11.7
	C49.6,39,49.5,39.6,49.2,40z M54.3,32l-4,4.2L32.5,24.4c-0.3-0.2-0.8-0.2-1.1-0.1l-7.8,4.1C23,28.7,22.3,28.9,22,29
	c-0.2-0.3-0.3-0.9-0.4-1.4c0.8-1.1,3.3-4.5,4.2-5.5c0.9-0.9,5.7-2.3,9.4-2.2c3.5,0.1,8.9,1.6,9,1.6c0.2,0.1,0.4,0.1,0.7,0l2.2-0.7
	c0.3-0.1,0.5-0.3,0.6-0.5l7,11.4C54.6,31.8,54.4,31.9,54.3,32z M56.9,31.2l-8.3-13.5l4.5-2.9l8.3,13.5L56.9,31.2z"/>
</svg>
