<?xml version="1.0" encoding="utf-8"?>
<!-- Generator: Adobe Illustrator 16.0.0, SVG Export Plug-In . SVG Version: 6.00 Build 0)  -->
<!DOCTYPE svg PUBLIC "-//W3C//DTD SVG 1.1//EN" "http://www.w3.org/Graphics/SVG/1.1/DTD/svg11.dtd">
<svg version="1.1" id="Layer_1" xmlns="http://www.w3.org/2000/svg" xmlns:xlink="http://www.w3.org/1999/xlink" x="0px" y="0px"
	 width="595.279px" height="841.891px" viewBox="0 0 595.279 841.891" enable-background="new 0 0 595.279 841.891"
	 xml:space="preserve">
<g id="Layer_1_1_">
</g>
<g>
	<path fill="#231F20" d="M568.307,223.758H26.974C12.092,223.758,0,235.85,0,250.732v342.287c0,14.882,12.092,26.974,26.974,26.974
		h542.263c14.882,0,26.974-12.092,26.974-26.974V249.802C595.28,235.85,583.189,223.758,568.307,223.758z M165.563,588.367H29.764
		V252.592h135.799V588.367z M565.516,589.298H176.724V252.592h388.792V589.298z"/>
	<circle fill="#231F20" cx="62.319" cy="302.819" r="17.673"/>
	<circle fill="#231F20" cx="62.319" cy="362.347" r="17.672"/>
	<path fill="#231F20" d="M97.663,312.121h23.253c1.86,0,2.79-0.93,2.79-2.791s-0.93-2.791-2.79-2.791H97.663
		c-1.86,0-2.791,0.93-2.791,2.791S95.803,312.121,97.663,312.121z"/>
	<path fill="#231F20" d="M97.663,367.928h38.135c1.86,0,2.791-0.93,2.791-2.79s-1.86-2.791-2.791-2.791H97.663
		c-1.86,0-2.791,0.93-2.791,2.791S95.803,367.928,97.663,367.928z"/>
	<circle fill="#231F20" cx="224.16" cy="300.029" r="20.463"/>
	<path fill="#231F20" d="M212.069,362.347c0,1.86,0.93,2.791,2.79,2.791h115.336c1.86,0,2.79-0.93,2.79-2.791
		s-0.93-2.791-2.79-2.791H214.859C213.929,358.626,212.069,360.487,212.069,362.347z"/>
	<path fill="#231F20" d="M300.431,382.81h-85.572c-1.86,0-2.79,0.93-2.79,2.79c0,1.86,0.93,2.791,2.79,2.791h85.572
		c1.859,0,2.79-0.93,2.79-2.791C303.221,383.74,302.29,382.81,300.431,382.81z"/>
	<path fill="#231F20" d="M456.692,430.246h85.571c1.86,0,2.79-0.93,2.79-2.79s-0.93-2.79-2.79-2.79h-85.571
		c-1.86,0-2.791,0.93-2.791,2.79S454.831,430.246,456.692,430.246z"/>
	<path fill="#231F20" d="M424.137,453.499h118.126c1.86,0,2.79-0.93,2.79-2.79s-0.93-2.79-2.79-2.79H424.137
		c-1.86,0-2.79,0.93-2.79,2.79C421.347,451.64,422.277,453.499,424.137,453.499z"/>
	<path fill="#231F20" d="M270.666,488.844H217.65c-1.86,0-2.791,0.931-2.791,2.791s0.931,2.79,2.791,2.79h53.017
		c1.86,0,2.791-0.93,2.791-2.79C274.387,489.774,272.527,488.844,270.666,488.844z"/>
	<path fill="#231F20" d="M542.263,529.77h-88.362c-1.86,0-2.79,0.931-2.79,2.791c0,1.859,0.93,2.79,2.79,2.79h88.362
		c1.86,0,2.79-0.931,2.79-2.79C545.053,530.7,544.123,529.77,542.263,529.77z"/>
</g>
</svg>
