<?xml version="1.0" encoding="utf-8"?>
<!-- Generator: Adobe Illustrator 22.1.0, SVG Export Plug-In . SVG Version: 6.00 Build 0)  -->
<svg version="1.1" id="Layer_1" xmlns="http://www.w3.org/2000/svg" xmlns:xlink="http://www.w3.org/1999/xlink" x="0px" y="0px"
	 viewBox="0 0 64 64" style="enable-background:new 0 0 64 64;" xml:space="preserve">
<style type="text/css">
	.st0{fill:#231F20;}
</style>
<g id="Layer_1_1_">
</g>
<g>
	<path class="st0" d="M61,10.7H2.9C1.3,10.7,0,12,0,13.6v36.7c0,1.6,1.3,2.9,2.9,2.9h58.2c1.6,0,2.9-1.3,2.9-2.9V13.5
		C63.9,12,62.6,10.7,61,10.7z M3.2,13.8h57.5v6H3.2V13.8z M60.8,49.9H3.2V21.1h57.6L60.8,49.9L60.8,49.9z"/>
	<path class="st0" d="M14,16.4H6.3c-0.4,0-0.6,0.3-0.6,0.6c0,0.4,0.3,0.6,0.6,0.6H14c0.4,0,0.6-0.3,0.6-0.6S14.3,16.4,14,16.4z"/>
	<circle class="st0" cx="51.5" cy="41.4" r="5.1"/>
</g>
</svg>
