<?xml version="1.0" encoding="utf-8"?>
<!-- Generator: Adobe Illustrator 22.1.0, SVG Export Plug-In . SVG Version: 6.00 Build 0)  -->
<svg version="1.1" id="Layer_1" xmlns="http://www.w3.org/2000/svg" xmlns:xlink="http://www.w3.org/1999/xlink" x="0px" y="0px"
	 viewBox="0 0 64 64" style="enable-background:new 0 0 64 64;" xml:space="preserve">
<g id="Layer_1_1_">
</g>
<g>
	<path d="M63.9,31.4c0,0,0-0.1-0.1-0.1c0-0.1-0.1-0.1-0.1-0.2L63.6,31c-0.1-0.1-0.1-0.1-0.2-0.2L54.9,25c-0.8-0.5-1.9-0.3-2.4,0.4
		c-0.3,0.4-0.4,0.9-0.3,1.3c0.1,0.4,0.3,0.9,0.7,1.1l3.8,2.6H23.1c-1,0-1.8,0.8-1.8,1.8c0,1,0.8,1.8,1.8,1.8h33.4l-3.8,2.6
		c-0.4,0.3-0.6,0.7-0.7,1.1c-0.1,0.5,0,0.9,0.3,1.3c0.3,0.5,0.9,0.8,1.5,0.8c0.4,0,0.7-0.1,1-0.3l8.5-5.8c0.1-0.1,0.2-0.1,0.2-0.2
		l0.1-0.1c0-0.1,0.1-0.1,0.1-0.2c0,0,0-0.1,0.1-0.1c0-0.1,0.1-0.1,0.1-0.3v-0.1c0-0.1,0-0.2,0-0.3C64,32.1,64,32.1,64,32
		c0-0.1,0-0.2,0-0.3v-0.1C64,31.5,63.9,31.4,63.9,31.4z"/>
	<path d="M43.9,38.3c-1,0-1.8,0.8-1.8,1.8v13.3c0,2.1-1.7,3.7-3.7,3.7H7.3c-2.1,0-3.7-1.7-3.7-3.7V10.7C3.5,8.6,5.2,6.9,7.3,6.9
		h31.1c2.1,0,3.7,1.7,3.7,3.7v13c0,1,0.8,1.8,1.8,1.8c1,0,1.8-0.8,1.8-1.8v-13c0-4-3.3-7.2-7.3-7.2H7.3c-4,0-7.3,3.2-7.3,7.2v42.8
		c0,4,3.3,7.2,7.3,7.2h31.1c4,0,7.3-3.2,7.3-7.2V40.1C45.7,39.1,44.9,38.3,43.9,38.3z"/>
</g>
</svg>
