<?xml version="1.0" encoding="utf-8"?>
<!-- Generator: Adobe Illustrator 16.0.0, SVG Export Plug-In . SVG Version: 6.00 Build 0)  -->
<!DOCTYPE svg PUBLIC "-//W3C//DTD SVG 1.1//EN" "http://www.w3.org/Graphics/SVG/1.1/DTD/svg11.dtd">
<svg version="1.1" id="Layer_1" xmlns="http://www.w3.org/2000/svg" xmlns:xlink="http://www.w3.org/1999/xlink" x="0px" y="0px"
	 width="595.279px" height="841.891px" viewBox="0 0 595.279 841.891" enable-background="new 0 0 595.279 841.891"
	 xml:space="preserve">
<g id="Layer_1_1_">
</g>
<path d="M483.665,123.305h-372.05C50.227,123.305,0,173.532,0,234.92v372.05c0,61.389,50.227,111.615,111.615,111.615h372.05
	c61.388,0,111.614-50.227,111.614-111.615V234.92C595.28,173.532,545.053,123.305,483.665,123.305z M458.552,364.208
	L298.571,523.259c-6.511,6.511-13.952,9.302-22.323,9.302s-16.742-2.791-22.323-9.302l-95.803-95.803
	c-12.092-12.092-12.092-32.555,0-44.646c12.092-12.092,32.555-12.092,44.646,0l73.48,73.48l136.729-137.659
	c12.091-12.092,32.554-12.092,44.646,0C469.713,330.723,470.643,351.186,458.552,364.208z"/>
</svg>
