<?xml version="1.0" encoding="utf-8"?>
<!-- Generator: Adobe Illustrator 22.0.1, SVG Export Plug-In . SVG Version: 6.00 Build 0)  -->
<svg version="1.1" xmlns="http://www.w3.org/2000/svg" xmlns:xlink="http://www.w3.org/1999/xlink" x="0px" y="0px"
	 viewBox="0 0 64 64" style="enable-background:new 0 0 64 64;" xml:space="preserve">
<style type="text/css">
	.st0{opacity:0.85;}
	.st1{fill:#231F20;}
	.st2{fill:none;stroke:#231F20;stroke-width:2.2;stroke-linecap:round;stroke-linejoin:round;stroke-miterlimit:10;}
	.st3{fill:#000F23;}
	.st4{clip-path:url(#SVGID_2_);enable-background:new    ;}
	.st5{fill-rule:evenodd;clip-rule:evenodd;fill:#000F23;}
	.st6{fill:none;stroke:#000000;stroke-width:3;stroke-linecap:round;stroke-linejoin:round;stroke-miterlimit:10;}
	.st7{stroke:#000000;stroke-miterlimit:10;}
	.st8{fill:#333333;}
	.st9{fill-rule:evenodd;clip-rule:evenodd;}
</style>
<g id="Layer_1">
</g>
<g id="Layer_2">
	<path d="M63.8,28l-9.5-15.4c-0.2-0.3-0.4-0.4-0.7-0.5s-0.6,0-0.8,0.1l-6.3,4.1c-0.5,0.3-0.7,1-0.3,1.5l0.4,0.6c-0.1,0-0.2,0-0.3,0
		l-1.8,0.6c-1.3-0.3-5.8-1.5-9.2-1.6c-3.6-0.1-9.4,1.2-11.1,2.9c-0.1,0-0.1,0-0.2,0c-3.5,0.5-5.7-1.6-5.8-1.7
		c-0.2-0.2-0.4-0.3-0.7-0.3l0.5-0.7c0.3-0.5,0.2-1.2-0.3-1.5l-6-3.8c-0.2-0.2-0.6-0.2-0.8-0.1c-0.3,0.1-0.5,0.2-0.7,0.5l-10,16.4
		c-0.3,0.5-0.2,1.2,0.3,1.5l6,3.8c0.2,0.1,0.4,0.2,0.6,0.2c0.1,0,0.2,0,0.2,0c0.3-0.1,0.5-0.2,0.7-0.5l0.6-1l3.7,5.1
		c0.1,0.2,0.3,0.3,0.4,0.3l-1.2,1.8c-0.9,1.3-0.5,3.1,0.8,3.9c0.5,0.3,1,0.5,1.6,0.5c0.2,0,0.3,0,0.5,0c-0.2,1.1,0.2,2.2,1.2,2.8
		l0.6,0.4c0,0,0,0,0,0c0.5,0.3,1,0.5,1.6,0.5c0.2,0,0.4,0,0.5-0.1c0.2,0,0.3-0.1,0.5-0.2c0.2,0.6,0.5,1.1,1.1,1.5l0.6,0.4
		c0,0,0,0,0,0c0.5,0.3,1,0.5,1.6,0.5c0.2,0,0.4,0,0.5-0.1c0.4-0.1,0.7-0.2,1-0.4c0.2,0.5,0.5,1,1,1.3c0,0,0,0,0,0
		c0.5,0.3,1,0.5,1.6,0.5c0.2,0,0.4,0,0.5-0.1c0.6-0.1,1.2-0.5,1.6-1c0.1,0.1,0.2,0.1,0.4,0.1l6.7,0.7c0.1,0,0.2,0,0.3,0
		c0.6,0,1.7-0.3,3.2-1.9h0.8c0,0,0,0,0,0c0.1,0,1.9-0.1,3.1-1.5c0.5-0.6,0.8-1.4,0.9-2.4c0.1,0,0.3,0,0.4,0c0.6,0,1.5-0.1,2.2-0.7
		c0.8-0.6,1.3-1.5,1.4-2.8c0,0,0-0.1,0-0.1c0.5,0,2.1-0.3,3-1.5c0.6-0.7,0.8-1.6,0.7-2.7c0,0,0,0,0,0l4.4-5c0.2,0.2,0.4,0.4,0.6,0.4
		c0.1,0,0.2,0,0.2,0c0.2,0,0.4-0.1,0.6-0.2l6.3-4.1C64,29.2,64.2,28.5,63.8,28z M6.7,32l-4.1-2.6l8.8-14.5l4.1,2.6L6.7,32z
		 M13.3,42.9c-0.6-0.4-0.7-1.2-0.3-1.7l2.3-3.5c0.2-0.3,0.5-0.5,0.8-0.5c0.1,0,0.2,0,0.2,0c0.2,0,0.5,0.1,0.7,0.2
		c0.6,0.4,0.7,1.2,0.3,1.7l-2.3,3.5c-0.2,0.3-0.5,0.5-0.8,0.5C13.8,43.2,13.5,43.1,13.3,42.9z M18,46.8c-0.3,0.1-0.6,0-0.9-0.2
		l-0.6-0.4c-0.6-0.4-0.7-1.2-0.3-1.7l4.4-6.6c0.2-0.3,0.5-0.5,0.8-0.5c0.3-0.1,0.6,0,0.9,0.2l0.6,0.4c0.6,0.4,0.7,1.2,0.3,1.7
		l-4.4,6.6C18.5,46.6,18.3,46.7,18,46.8z M22.2,49c-0.3,0.1-0.6,0-0.9-0.2l-0.6-0.4c-0.6-0.4-0.7-1.2-0.3-1.7l3.4-5.2
		c0.2-0.3,0.5-0.5,0.8-0.5c0.3-0.1,0.6,0,0.9,0.2l0.6,0.4c0.6,0.4,0.7,1.2,0.3,1.7L23,48.4C22.8,48.7,22.5,48.9,22.2,49z M26.4,50.3
		c-0.3,0.1-0.6,0-0.9-0.2c-0.6-0.4-0.7-1.2-0.3-1.7l1.5-2.3c0.2-0.3,0.5-0.5,0.8-0.5c0.3-0.1,0.6,0,0.9,0.2c0.6,0.4,0.7,1.2,0.3,1.7
		l-1.5,2.3C26.9,50,26.7,50.2,26.4,50.3z M49.2,39.9c-0.4,0.6-1.2,0.7-1.6,0.8l-9.9-5.8c-0.4-0.2-1-0.1-1.2,0.3
		c-0.3,0.4-0.1,1,0.3,1.2l9.3,5.4c-0.2,0.1-0.3,0.3-0.3,0.6c-0.1,0.7-0.3,1.2-0.7,1.5c-0.5,0.4-1.3,0.3-1.5,0.3L35.5,40
		c-0.4-0.2-1-0.1-1.2,0.4c-0.2,0.4-0.1,1,0.4,1.2l7.1,3.7c0.1,0.8-0.1,1.5-0.4,2c-0.5,0.6-1.2,0.7-1.5,0.8l-6.3-3
		c-0.5-0.2-1,0-1.2,0.4c-0.2,0.4,0,1,0.4,1.2l4.6,2.2c-1,1-1.6,1.1-1.7,1.1c0,0,0,0,0,0c0,0,0,0,0,0l-6.2-0.6l0.6-1
		c0.9-1.3,0.5-3.1-0.8-3.9c-0.4-0.3-0.9-0.4-1.4-0.5c0.7-1.3,0.3-2.9-0.9-3.7l-0.6-0.4c-0.5-0.3-1-0.5-1.5-0.5
		c0.1-1-0.3-2.1-1.2-2.7l-0.6-0.4c-0.6-0.4-1.4-0.6-2.1-0.4c-0.7,0.1-1.4,0.6-1.8,1.2l-0.3,0.5c-0.2-0.6-0.5-1.1-1.1-1.4
		c-0.6-0.4-1.4-0.6-2.1-0.4c-0.7,0.1-1.3,0.5-1.7,1.1l-3.7-5c-0.2-0.2-0.4-0.3-0.6-0.4l6.8-11.1c0,0.1,0.1,0.2,0.2,0.2
		c0.1,0.1,2.3,2.1,5.7,2.3c-1.3,1.8-2.8,3.8-2.9,3.9c-0.2,0.2-0.2,0.5-0.2,0.8c0,0.4,0.3,2.2,1.1,3.1c1.1,1.3,3.3,0.3,4.2-0.2
		l7.2-3.8l17.7,11.7C49.6,38.9,49.5,39.5,49.2,39.9z M50.3,36.1L32.5,24.3c-0.3-0.2-0.8-0.2-1.1-0.1l-7.8,4.1
		c-0.6,0.3-1.3,0.5-1.6,0.6c-0.2-0.3-0.3-0.9-0.4-1.4c0.8-1.1,3.3-4.5,4.2-5.5c0.9-0.9,5.7-2.3,9.4-2.2c3.5,0.1,8.9,1.6,9,1.6
		c0.2,0.1,0.4,0.1,0.7,0l2.2-0.7c0.3-0.1,0.5-0.3,0.6-0.5l7,11.4c-0.1,0.1-0.3,0.2-0.4,0.3L50.3,36.1z M56.9,31.1l-8.3-13.5l4.5-2.9
		l8.3,13.5L56.9,31.1z"/>
	<g>
		<g>
			<defs>
				<rect id="SVGID_1_" x="-3136" y="-1384" width="5760" height="3600"/>
			</defs>
			<clipPath id="SVGID_2_">
				<use xlink:href="#SVGID_1_"  style="overflow:visible;"/>
			</clipPath>
		</g>
	</g>
</g>
</svg>
