<?xml version="1.0" encoding="utf-8"?>
<!-- Generator: Adobe Illustrator 22.1.0, SVG Export Plug-In . SVG Version: 6.00 Build 0)  -->
<svg version="1.1" id="Layer_1" xmlns="http://www.w3.org/2000/svg" xmlns:xlink="http://www.w3.org/1999/xlink" x="0px" y="0px"
	 viewBox="0 0 64 64" style="enable-background:new 0 0 64 64;" xml:space="preserve">
<g id="Layer_1_1_">
</g>
<g>
	<path d="M32.2,12.8c3.5,0,6.4-2.8,6.4-6.4S35.7,0,32.2,0c-3.5,0-6.4,2.8-6.4,6.4C25.7,9.9,28.6,12.8,32.2,12.8z M32.2,3.3
		c1.7,0,3,1.3,3,3c0,1.7-1.4,3-3.1,3c-1.7,0-3.1-1.4-3.1-3C29,4.7,30.3,3.3,32.2,3.3z"/>
	<path d="M53.4,31.9c3.5,0,6.4-2.8,6.4-6.4c0-3.5-2.8-6.4-6.4-6.4c-3.5,0-6.4,2.8-6.4,6.4C47.1,29.1,49.9,31.9,53.4,31.9z
		 M53.4,22.6c1.7,0,3.1,1.4,3.1,3s-1.4,3.1-3.1,3c-1.7,0-3-1.3-3-3S51.8,22.6,53.4,22.6z"/>
	<path d="M10.7,31.9c3.5,0,6.4-2.8,6.5-6.3c0-3.5-2.8-6.4-6.4-6.4s-6.4,2.8-6.5,6.3C4.3,29.1,7.2,31.9,10.7,31.9z M10.7,22.5
		c1.7,0,3,1.3,3,3s-1.4,3-3,3c-1.6,0-3-1.3-3-3C7.7,23.9,9,22.5,10.7,22.5z"/>
	<path d="M32.2,48.1c3.5,0,6.4-2.8,6.4-6.4c0-3.5-2.8-6.4-6.4-6.4c-3.5,0-6.4,2.8-6.4,6.4C25.7,45.3,28.6,48.1,32.2,48.1z
		 M32.2,38.7c1.7,0,3,1.3,3,3c0,1.7-1.4,3-3,3c-1.7,0-3-1.3-3-3C29,40,30.4,38.7,32.2,38.7z"/>
	<path d="M16,35.6c0-0.9-0.7-1.6-1.5-1.6h-0.1c-0.3,0-0.6,0-0.8-0.1h-0.1c-0.6,0-1.5-0.1-2.3-0.1c-3.4,0-6,0.9-7.7,2.7
		C1,39,1,44.4,1.3,49.7v0.5c0,0.9,0.7,1.5,1.6,1.5H3c0.5,0,0.9-0.2,1.2-0.5c0.3-0.3,0.4-0.8,0.4-1.2v-0.5c-0.4-5.7,0-9.6,1.2-10.8
		c1.2-1.2,2.5-1.6,4.9-1.6c0.8,0,1.6,0.1,2.3,0.1c0.2,0,0.3,0,0.5,0c0.2,0,0.4,0,0.6,0h0.2c0.4,0,0.8-0.2,1.1-0.4
		C15.8,36.5,15.9,36.1,16,35.6z"/>
	<path d="M60.7,36.5c-1.7-1.8-4.2-2.6-7.5-2.6c-0.9,0-1.7,0.1-2.4,0.1h-0.1c-0.2,0-0.4,0-0.7,0c-0.1,0-0.2,0-0.3,0
		c-0.9,0-1.7,0.8-1.6,1.7c0.1,0.9,0.8,1.6,1.7,1.6c0.4,0,0.8,0,1.1-0.1c0.6,0,1.5-0.1,2.3-0.1c2.3,0,4.1,0.5,5.1,1.6
		c1.2,1.3,1.5,5.3,1.1,10.9v0.5c0,0.8,0.6,1.6,1.4,1.7H61c0.9,0,1.6-0.6,1.6-1.5v-0.4C63.1,44.4,63.1,38.9,60.7,36.5z"/>
	<path d="M43.6,25.4H20.7c-0.8,0-1.5,0.6-1.6,1.3l-4.7,27c-0.1,0.4,0,0.9,0.3,1.2c0.2,0.3,0.6,0.6,1,0.7h0.3c0.8,0,1.5-0.6,1.6-1.3
		l4.3-25.5h20.2l4.4,26.3c0.2,0.8,0.8,1.3,1.6,1.3h0.3c0.4-0.1,0.8-0.3,1.1-0.7c0.2-0.4,0.3-0.8,0.3-1.2l-4.6-27.7
		C45.1,26,44.4,25.4,43.6,25.4z"/>
	<path d="M23.3,24.6h0.3c0.8,0,1.4-0.5,1.6-1.2c0.4-2,1.8-3.9,2.6-4.3c1.6-0.4,3.2-0.6,4.9-0.5c1.3,0,2.5,0.1,3.7,0.4
		c1.2,0.5,2,2.9,2.3,4.3c0.1,0.8,0.8,1.3,1.6,1.4h0.3c0.9-0.1,1.5-0.9,1.3-1.8v-0.1c-0.3-1.7-1.3-5.9-4.5-6.9
		c-1.6-0.4-3.3-0.6-5.1-0.6c-2-0.1-4.2,0.2-6.2,0.8c-2.1,1-3.8,4.1-4.5,6.6v0.1v0.1C21.8,23.6,22.4,24.4,23.3,24.6z"/>
	<path d="M42.3,62.1V62c0-0.1-0.1-0.6-0.2-1c-0.4-2.6-1.2-8-3.8-9.7c-1.8-0.9-3.8-1.3-5.9-1.2c-2.1,0-5.1,0.4-6.5,1.5
		c-2,1.7-3.4,6.7-3.8,10.6c-0.1,0.5,0.1,0.9,0.4,1.3c0.3,0.3,0.7,0.5,1.2,0.5h0.1c0.8,0,1.5-0.6,1.6-1.5c0.5-4.5,2-7.8,2.8-8.6
		c1.3-0.6,2.8-0.8,4.3-0.7c1.4-0.1,2.8,0.2,4.2,0.8c1.2,0.7,2.1,4.9,2.3,8.3c0,0.9,0.8,1.6,1.7,1.6c0.9,0,1.7-0.8,1.6-1.7L42.3,62.1
		L42.3,62.1z"/>
</g>
</svg>
