<?xml version="1.0" encoding="utf-8"?>
<!-- Generator: Adobe Illustrator 16.0.0, SVG Export Plug-In . SVG Version: 6.00 Build 0)  -->
<!DOCTYPE svg PUBLIC "-//W3C//DTD SVG 1.1//EN" "http://www.w3.org/Graphics/SVG/1.1/DTD/svg11.dtd">
<svg version="1.1" id="Layer_1" xmlns="http://www.w3.org/2000/svg" xmlns:xlink="http://www.w3.org/1999/xlink" x="0px" y="0px"
	 width="595.279px" height="841.891px" viewBox="0 0 595.279 841.891" enable-background="new 0 0 595.279 841.891"
	 xml:space="preserve">
<g id="Layer_1_1_">
</g>
<path d="M593.42,383.74l-88.362-143.239c-1.86-2.791-3.721-3.721-6.511-4.651c-2.791-0.93-5.581,0-7.441,0.93l-58.598,38.135
	c-4.65,2.79-6.511,9.301-2.79,13.952l3.72,5.581c-0.93,0-1.859,0-2.79,0l-16.742,5.581c-12.092-2.791-53.947-13.952-85.571-14.882
	c-33.484-0.93-87.432,11.161-103.244,26.974c-0.93,0-0.93,0-1.86,0c-32.554,4.65-53.017-14.882-53.947-15.812
	c-1.86-1.86-3.72-2.79-6.511-2.79l4.65-6.511c2.791-4.65,1.86-11.161-2.79-13.952l-55.808-35.345c-1.86-1.86-5.58-1.86-7.44-0.93
	c-2.791,0.93-4.651,1.86-6.512,4.65L1.861,393.971c-2.791,4.651-1.86,11.162,2.79,13.952l55.808,35.345
	c1.86,0.931,3.721,1.86,5.581,1.86c0.93,0,1.859,0,1.859,0c2.791-0.93,4.651-1.86,6.512-4.65l5.58-9.301l34.415,47.437
	c0.93,1.859,2.79,2.79,3.721,2.79l-11.162,16.742c-8.371,12.092-4.65,28.834,7.441,36.274c4.65,2.791,9.301,4.651,14.882,4.651
	c1.86,0,2.79,0,4.65,0c-1.86,10.231,1.86,20.463,11.162,26.043l5.58,3.721c4.651,2.79,9.302,4.65,14.883,4.65
	c1.859,0,3.72,0,4.65-0.93c1.86,0,2.79-0.931,4.65-1.86c1.86,5.581,4.65,10.231,10.231,13.952l5.581,3.72
	c4.65,2.791,9.301,4.651,14.882,4.651c1.86,0,3.721,0,4.65-0.931c3.721-0.93,6.511-1.86,9.302-3.721
	c1.859,4.651,4.65,9.302,9.301,12.092c4.65,2.791,9.302,4.651,14.882,4.651c1.86,0,3.721,0,4.651-0.931
	c5.58-0.93,11.161-4.65,14.882-9.301c0.93,0.93,1.86,0.93,3.72,0.93l62.318,6.511c0.931,0,1.86,0,2.791,0
	c5.58,0,15.812-2.79,29.764-17.672h7.441c0.93,0,17.672-0.931,28.833-13.952c4.651-5.581,7.441-13.021,8.371-22.323
	c0.931,0,2.791,0,3.721,0c5.581,0,13.952-0.93,20.463-6.511c7.441-5.581,12.092-13.952,13.021-26.044v-0.93
	c4.651,0,19.533-2.79,27.904-13.952c5.581-6.511,7.44-14.882,6.511-25.113l40.926-46.506c1.86,1.86,3.721,3.721,5.58,3.721
	c0.931,0,1.86,0,1.86,0c1.86,0,3.721-0.931,5.581-1.86l58.598-38.135C595.28,394.901,597.14,388.391,593.42,383.74z M62.319,420.945
	l-38.136-24.184l81.852-134.868l38.135,24.184L62.319,420.945z M139.519,519.538c-1.86,2.791-4.65,4.651-7.441,4.651
	c-3.72,0.93-6.511,0-8.371-1.86c-5.58-3.721-6.511-11.162-2.79-15.812l21.393-32.555c1.86-2.79,4.651-4.65,7.441-4.65
	c0.93,0,1.86,0,1.86,0c1.86,0,4.65,0.931,6.511,1.86c5.581,3.721,6.511,11.161,2.79,15.812L139.519,519.538z M174.864,553.953
	c-2.79,2.79-4.65,3.721-7.441,4.65c-2.79,0.931-5.58,0-8.371-1.86l-5.58-3.721c-5.581-3.72-6.511-11.161-2.791-15.812l40.926-61.389
	c1.86-2.79,4.65-4.65,7.441-4.65c2.79-0.93,5.58,0,8.371,1.86l5.58,3.721c5.581,3.72,6.512,11.161,2.791,15.812L174.864,553.953z
	 M213.929,573.485c-1.86,2.791-4.65,4.651-7.441,5.581c-2.79,0.93-5.58,0-8.371-1.86l-5.58-3.721
	c-5.581-3.721-6.512-11.161-2.791-15.812l31.624-48.367c1.86-2.79,4.651-4.65,7.441-4.65c2.79-0.93,5.581,0,8.371,1.86l5.581,3.721
	c5.58,3.721,6.511,11.161,2.79,15.812L213.929,573.485z M266.946,565.114l-13.951,21.394c-2.791,1.859-4.651,3.72-7.441,4.65
	c-2.79,0.93-5.581,0-8.371-1.86c-5.581-3.721-6.511-11.161-2.79-15.812l13.951-21.393c1.86-2.79,4.651-4.65,7.441-4.65
	c2.79-0.931,5.581,0,8.371,1.86C269.737,553.022,270.666,560.464,266.946,565.114z M457.621,494.425
	c-3.721,5.581-11.161,6.511-14.882,7.441l-92.082-53.947c-3.721-1.86-9.302-0.931-11.162,2.79c-2.79,3.721-0.93,9.302,2.791,11.162
	l86.501,50.227c-1.86,0.93-2.79,2.79-2.79,5.58c-0.931,6.512-2.79,11.162-6.511,13.952c-4.65,3.721-12.092,2.79-13.952,2.79
	l-75.34-39.064c-3.721-1.86-9.302-0.931-11.162,3.72c-1.86,3.721-0.93,9.302,3.721,11.162l66.039,34.414
	c0.93,7.441-0.931,13.952-3.721,18.603c-4.65,5.581-11.161,6.512-13.952,7.441l-58.598-27.903c-4.65-1.86-9.301,0-11.161,3.72
	c-1.86,3.721,0,9.302,3.721,11.162l42.785,20.463c-9.301,9.301-14.882,10.23-15.812,10.23l-57.668-5.58l5.581-9.302
	c8.371-12.091,4.65-28.834-7.441-36.274c-3.721-2.791-8.371-3.721-13.021-4.65c6.511-12.092,2.79-26.974-8.371-34.415l-5.581-3.721
	c-4.65-2.79-9.301-4.65-13.952-4.65c0.931-9.302-2.79-19.532-11.161-25.113l-5.581-3.721c-5.58-3.721-13.021-5.581-19.532-3.721
	c-6.511,0.931-13.021,5.581-16.742,11.162l-2.791,4.65c-1.859-5.581-4.65-10.231-10.23-13.021
	c-5.581-3.721-13.022-5.581-19.533-3.721c-6.511,0.93-12.092,4.65-15.812,10.231l-34.414-46.507c-1.86-1.86-3.721-2.79-5.581-3.721
	l63.249-103.244c0,0.93,0.93,1.86,1.86,1.86c0.93,0.93,21.393,19.533,53.017,21.393c-12.092,16.742-26.043,35.345-26.974,36.275
	c-1.86,1.86-1.86,4.65-1.86,7.441c0,3.721,2.791,20.463,10.231,28.834c10.231,12.092,30.694,2.79,39.065-1.86l66.969-35.345
	l164.632,108.824C461.342,485.124,460.411,490.704,457.621,494.425z M505.058,420.015l-37.205,39.065L302.29,349.325
	c-2.79-1.86-7.44-1.86-10.23-0.93l-72.55,38.135c-5.581,2.791-12.092,4.651-14.883,5.581c-1.86-2.791-2.79-8.371-3.72-13.022
	c7.44-10.231,30.693-41.855,39.064-51.157c8.371-8.371,53.018-21.393,87.432-20.463c32.555,0.93,82.781,14.882,83.712,14.882
	c1.86,0.93,3.721,0.93,6.511,0l20.463-6.511c2.79-0.93,4.65-2.79,5.58-4.65l65.109,106.034
	C507.848,418.154,505.988,419.085,505.058,420.015z M529.241,412.574L452.04,287.007l41.856-26.974l77.2,125.567L529.241,412.574z"
	/>
</svg>
