<?xml version="1.0" encoding="utf-8"?>
<!-- Generator: Adobe Illustrator 22.0.1, SVG Export Plug-In . SVG Version: 6.00 Build 0)  -->
<svg version="1.1" xmlns="http://www.w3.org/2000/svg" xmlns:xlink="http://www.w3.org/1999/xlink" x="0px" y="0px"
	 viewBox="0 0 64 64" style="enable-background:new 0 0 64 64;" xml:space="preserve">
<style type="text/css">
	.st0{opacity:0.85;}
	.st1{fill:#231F20;}
	.st2{fill:none;stroke:#231F20;stroke-width:2.2;stroke-linecap:round;stroke-linejoin:round;stroke-miterlimit:10;}
	.st3{fill:#000F23;}
	.st4{clip-path:url(#SVGID_2_);enable-background:new    ;}
	.st5{fill-rule:evenodd;clip-rule:evenodd;fill:#000F23;}
	.st6{fill:none;stroke:#000000;stroke-width:3;stroke-linecap:round;stroke-linejoin:round;stroke-miterlimit:10;}
	.st7{stroke:#000000;stroke-miterlimit:10;}
	.st8{fill:#333333;}
	.st9{fill-rule:evenodd;clip-rule:evenodd;}
</style>
<g id="Layer_1">
</g>
<g id="Layer_2">
	<g>
		<g>
			<defs>
				<rect id="SVGID_1_" x="-3136" y="-1960" width="5760" height="3600"/>
			</defs>
			<clipPath id="SVGID_2_">
				<use xlink:href="#SVGID_1_"  style="overflow:visible;"/>
			</clipPath>
		</g>
	</g>
	<path class="st1" d="M54.9,32.2h-0.3V20.1C54.5,9.4,44.4,0.8,32,0.8S9.5,9.4,9.5,20.1v12.2H9.1c-5,0-9.2,4.1-9.2,9.1v0.4
		c0,5,4.1,9.1,9.2,9.1H15c0.8,0,1.4-0.6,1.4-1.4V33.6c0-0.8-0.6-1.4-1.4-1.4h-2.7V20.1C12.3,11,21.1,3.6,32,3.6S51.7,11,51.7,20.1
		v12.2H49c-0.8,0-1.4,0.6-1.4,1.4v15.9c0,0.8,0.6,1.4,1.4,1.4h4c-0.2,0.9-0.8,2.2-1.9,3.3c-1.9,2-5,3.1-9.1,3.3
		c-0.3-2.6-2.5-4.7-5.1-4.7c-2.9,0-5.2,2.3-5.2,5.2s2.3,5.2,5.2,5.2c2,0,3.8-1.2,4.7-2.9c5.1-0.1,9-1.5,11.6-4.1
		c1.9-1.9,2.5-4,2.8-5.4c4.5-0.5,8.1-4.4,8.1-9.1v-0.4C64,36.4,59.9,32.2,54.9,32.2z M13.6,48.1H9.1c-3.5,0-6.3-2.8-6.3-6.4v-0.4
		c0-3.5,2.8-6.4,6.3-6.4h4.4V48.1z M36.9,60.4c-1.3,0-2.4-1.1-2.4-2.4s1.1-2.4,2.4-2.4s2.4,1.1,2.4,2.4S38.2,60.4,36.9,60.4z
		 M61.2,41.8c0,3.5-2.8,6.4-6.3,6.4h-4.4V35h4.4c3.5,0,6.3,2.8,6.3,6.4V41.8z"/>
</g>
</svg>
