<?xml version="1.0" encoding="utf-8"?>
<!-- Generator: Adobe Illustrator 22.1.0, SVG Export Plug-In . SVG Version: 6.00 Build 0)  -->
<svg version="1.1" id="Layer_1" xmlns="http://www.w3.org/2000/svg" xmlns:xlink="http://www.w3.org/1999/xlink" x="0px" y="0px"
	 viewBox="0 0 64 64" style="enable-background:new 0 0 64 64;" xml:space="preserve">
<g id="Layer_1_1_">
</g>
<path d="M50.9,0H13.1C5.9,0,0,5.9,0,13.1v37.8C0,58.1,5.9,64,13.1,64h37.8C58.1,64,64,58.1,64,50.9V13.1C64,5.9,58.1,0,50.9,0z
	 M63,50.9C63,57.6,57.6,63,50.9,63H13.1C6.4,63,1,57.6,1,50.9V13.1C1,6.4,6.4,1,13.1,1h37.8C57.6,1,63,6.4,63,13.1V50.9z"/>
</svg>
