<?xml version="1.0" encoding="utf-8"?>
<!-- Generator: Adobe Illustrator 16.0.0, SVG Export Plug-In . SVG Version: 6.00 Build 0)  -->
<!DOCTYPE svg PUBLIC "-//W3C//DTD SVG 1.1//EN" "http://www.w3.org/Graphics/SVG/1.1/DTD/svg11.dtd">
<svg version="1.1" id="Layer_1" xmlns="http://www.w3.org/2000/svg" xmlns:xlink="http://www.w3.org/1999/xlink" x="0px" y="0px"
	 width="595.279px" height="841.891px" viewBox="0 0 595.279 841.891" enable-background="new 0 0 595.279 841.891"
	 xml:space="preserve">
<g id="Layer_1_1_">
</g>
<g>
	<path d="M594.35,416.295c0,0,0-0.931-0.93-0.931c0-0.93-0.931-0.93-0.931-1.86l-0.93-0.93c-0.931-0.931-0.931-0.931-1.86-1.86
		l-79.061-53.947c-7.441-4.651-17.673-2.791-22.323,3.72c-2.79,3.721-3.721,8.371-2.79,12.092c0.93,3.72,2.79,8.371,6.511,10.231
		l35.345,24.183H214.859c-9.301,0-16.742,7.441-16.742,16.742c0,9.302,7.441,16.742,16.742,16.742h310.662l-35.345,24.184
		c-3.721,2.79-5.581,6.511-6.511,10.231c-0.931,4.65,0,8.371,2.79,12.092c2.79,4.65,8.371,7.44,13.952,7.44
		c3.721,0,6.511-0.93,9.301-2.79l79.061-53.947c0.931-0.931,1.86-0.931,1.86-1.86l0.931-0.931c0-0.93,0.93-0.93,0.93-1.859
		c0,0,0-0.931,0.931-0.931c0-0.93,0.93-0.93,0.93-2.79v-0.931c0-0.93,0-1.86,0-2.79c0.93-2.79,0.93-2.79,0.93-3.721
		c0-0.93,0-1.86,0-2.79v-0.931C595.28,417.225,594.35,416.295,594.35,416.295z"/>
	<path d="M408.324,480.473c-9.301,0-16.742,7.441-16.742,16.743v123.706c0,19.533-15.812,34.415-34.414,34.415H67.899
		c-19.532,0-34.414-15.812-34.414-34.415V223.758c-0.931-19.533,14.882-35.345,34.414-35.345h289.27
		c19.532,0,34.414,15.812,34.414,34.415v120.917c0,9.301,7.441,16.742,16.742,16.742c9.302,0,16.742-7.441,16.742-16.742V222.828
		c0-37.205-30.693-66.969-67.898-66.969H67.899C30.695,155.859,0,185.624,0,222.828v398.094c0,37.205,30.694,66.969,67.898,66.969
		h289.27c37.205,0,67.898-29.764,67.898-66.969V497.216C425.067,487.914,417.626,480.473,408.324,480.473z"/>
</g>
</svg>
