<?xml version="1.0" encoding="utf-8"?>
<!-- Generator: Adobe Illustrator 16.0.0, SVG Export Plug-In . SVG Version: 6.00 Build 0)  -->
<!DOCTYPE svg PUBLIC "-//W3C//DTD SVG 1.1//EN" "http://www.w3.org/Graphics/SVG/1.1/DTD/svg11.dtd">
<svg version="1.1" id="Layer_1" xmlns="http://www.w3.org/2000/svg" xmlns:xlink="http://www.w3.org/1999/xlink" x="0px" y="0px"
	 width="595.279px" height="841.891px" viewBox="0 0 595.279 841.891" enable-background="new 0 0 595.279 841.891"
	 xml:space="preserve">
<g id="Layer_1_1_">
</g>
<g>
	<path d="M302.29,244.221c32.555,0,58.599-26.043,58.599-58.598c0-32.555-26.044-58.598-58.599-58.598
		c-32.554,0-58.598,26.043-58.598,58.598C242.763,218.178,269.737,244.221,302.29,244.221z M302.29,157.72
		c15.812,0,27.904,12.091,27.904,27.904c0,15.812-13.022,27.904-28.834,27.904c-15.812,0-28.834-13.022-28.834-27.904
		C273.457,169.811,285.548,157.72,302.29,157.72z"/>
	<path d="M497.616,420.015c32.555,0,58.599-26.043,58.599-58.598c0-32.554-26.044-58.598-58.599-58.598
		c-32.554,0-58.598,26.043-58.598,58.598C439.019,393.972,465.063,420.015,497.616,420.015z M497.616,334.443
		c15.812,0,28.834,13.022,28.834,27.904s-13.021,28.834-28.834,27.904c-15.812,0-27.903-12.092-27.903-27.904
		S482.735,334.443,497.616,334.443z"/>
	<path d="M105.104,420.015c32.555,0,58.599-26.043,59.528-57.667c0-32.554-26.043-58.598-58.598-58.598
		s-58.598,26.044-59.528,57.668C46.506,393.972,72.55,420.015,105.104,420.015z M105.104,333.513
		c15.812,0,27.904,12.092,27.904,27.904s-13.021,27.904-27.904,27.904c-14.882,0-27.903-12.092-27.903-27.904
		C77.2,346.535,89.292,333.513,105.104,333.513z"/>
	<path d="M302.29,568.835c32.555,0,58.599-26.043,58.599-58.598s-26.044-58.598-58.599-58.598
		c-32.554,0-58.598,26.043-58.598,58.598C242.763,542.791,269.737,568.835,302.29,568.835z M302.29,482.333
		c15.812,0,27.904,12.092,27.904,27.904c0,15.812-13.022,27.903-27.904,27.903c-15.812,0-27.903-12.092-27.903-27.903
		C273.457,494.425,286.479,482.333,302.29,482.333z"/>
	<path d="M153.471,454.43c0-8.371-6.511-14.882-13.952-14.882h-0.93c-2.791,0-5.581,0-7.441-0.931h-0.93
		c-5.581,0-13.952-0.93-21.394-0.93c-31.624,0-54.877,8.371-70.689,25.113c-22.323,22.323-22.323,71.619-19.532,120.916v4.65
		c0,8.372,6.511,13.952,14.882,13.952h0.93c4.651,0,8.371-1.86,11.162-4.65c2.79-2.79,3.721-7.441,3.721-11.161v-4.651
		c-3.721-52.087,0-88.361,11.161-99.523c11.161-11.161,23.253-14.882,44.646-14.882c7.441,0,14.883,0.931,21.394,0.931
		c1.86,0,2.79,0,4.65,0s3.721,0,5.581,0h1.86c3.72,0,7.44-1.86,10.23-3.721C151.611,461.871,152.54,458.15,153.471,454.43z"/>
	<path d="M564.586,461.871c-15.812-16.743-38.136-24.184-68.83-24.184c-8.371,0-15.812,0.93-22.322,0.93h-0.931
		c-1.86,0-3.72,0-6.511,0c-0.93,0-1.86,0-2.79,0c-8.371,0-15.812,7.441-14.882,15.812c0.93,8.371,7.44,14.882,15.812,14.882
		c3.721,0,7.441,0,10.231-0.93c5.581,0,13.952-0.931,21.393-0.931c21.394,0,37.205,4.65,46.507,14.882
		c11.161,12.092,13.952,48.367,10.231,100.454v4.65c0,7.441,5.58,14.882,13.021,15.812h1.86c8.371,0,14.882-5.581,14.882-13.952
		v-3.721C585.979,534.42,585.979,484.193,564.586,461.871z"/>
	<path d="M407.395,360.487H197.187c-7.441,0-13.952,5.581-14.882,12.092l-42.786,248.343c-0.93,3.721,0,8.371,2.79,11.162
		c1.86,2.79,5.581,5.58,9.302,6.511h2.79c7.441,0,13.952-5.581,14.882-12.092l39.065-234.392h185.095l39.995,241.832
		c1.86,7.441,7.441,12.092,14.883,12.092h2.79c3.721-0.93,7.44-2.79,10.231-6.511c1.86-3.721,2.79-7.44,2.79-11.161l-41.855-254.854
		C421.347,366.068,414.836,360.487,407.395,360.487z"/>
	<path d="M220.44,353.046h2.79c7.441,0,13.022-4.65,14.883-11.162c3.72-18.603,16.742-36.275,24.183-39.065
		c14.882-3.721,29.765-5.581,44.646-4.651c12.091,0,23.253,0.93,34.414,3.721c11.161,4.65,18.603,26.974,21.393,39.065
		c0.931,7.441,7.441,12.092,14.883,13.022h2.79c8.371-0.93,13.952-8.371,12.092-16.742v-0.93
		c-2.791-15.812-12.092-53.947-40.926-63.249c-14.882-3.721-30.694-5.581-46.506-5.581c-18.603-0.931-38.136,1.86-56.738,7.441
		c-19.532,9.301-35.345,37.205-40.925,60.458v0.93v0.93C207.418,343.745,212.998,351.186,220.44,353.046z"/>
	<path d="M395.303,697.192v-0.931c0-0.93-0.93-5.58-1.86-9.301c-3.721-24.184-11.161-73.479-35.345-89.292
		c-16.742-8.371-35.345-12.092-53.947-11.161c-19.532,0-46.506,3.72-59.527,13.951c-18.603,15.812-31.625,61.389-35.345,97.663
		c-0.931,4.651,0.93,8.371,3.72,12.092c2.791,2.791,6.512,4.65,11.162,4.65h0.93c7.441,0,13.952-5.58,14.882-13.951
		c4.651-40.926,18.603-71.62,26.044-79.061c12.092-5.581,26.044-7.441,39.065-6.512c13.021-0.93,26.043,1.86,38.135,7.441
		c11.161,6.511,19.532,44.646,21.393,76.271c0,8.371,7.441,14.882,15.812,14.882s15.812-7.441,14.882-15.812V697.192z"/>
</g>
</svg>
