<?xml version="1.0" encoding="utf-8"?>
<!-- Generator: Adobe Illustrator 22.1.0, SVG Export Plug-In . SVG Version: 6.00 Build 0)  -->
<svg version="1.1" id="Layer_1" xmlns="http://www.w3.org/2000/svg" xmlns:xlink="http://www.w3.org/1999/xlink" x="0px" y="0px"
	 viewBox="0 0 64 64" style="enable-background:new 0 0 64 64;" xml:space="preserve">
<g id="Layer_1_1_">
</g>
<path d="M57.5,48.5l-11-11L30.2,21.4c1.7-2.2,2.7-5,2.7-8C32.9,6,26.9,0,19.4,0S6.1,6,6.1,13.5c0,7.4,6,13.4,13.5,13.4
	c3.3,0,6.3-1.2,8.6-3.1l15,15l-9.9,9.8c-0.6,0.6-0.6,1.6,0,2.2c0.3,0.3,0.7,0.4,1.1,0.4c0.4,0,0.8-0.1,1.1-0.4l9.9-9.8l8.8,8.7
	L42.4,61.4c-0.6,0.6-0.6,1.6,0,2.2c0.3,0.3,0.7,0.4,1.1,0.4c0.4,0,0.8-0.1,1.1-0.4l12.9-12.9c0.3-0.3,0.4-0.7,0.4-1.1
	C57.9,49.2,57.7,48.8,57.5,48.5z M19.6,23.8c-5.7,0-10.4-4.7-10.4-10.3c0-5.7,4.7-10.3,10.4-10.3s10.4,4.6,10.4,10.3
	S25.3,23.8,19.6,23.8z"/>
</svg>
