<?xml version="1.0" encoding="utf-8"?>
<!-- Generator: Adobe Illustrator 22.0.1, SVG Export Plug-In . SVG Version: 6.00 Build 0)  -->
<svg version="1.1" xmlns="http://www.w3.org/2000/svg" xmlns:xlink="http://www.w3.org/1999/xlink" x="0px" y="0px"
	 viewBox="0 0 64 64" style="enable-background:new 0 0 64 64;" xml:space="preserve">
<style type="text/css">
	.st0{opacity:0.85;}
	.st1{fill:#231F20;}
	.st2{fill:none;stroke:#231F20;stroke-width:2.2;stroke-linecap:round;stroke-linejoin:round;stroke-miterlimit:10;}
	.st3{fill:#000F23;}
	.st4{clip-path:url(#SVGID_2_);enable-background:new    ;}
	.st5{fill-rule:evenodd;clip-rule:evenodd;fill:#000F23;}
	.st6{fill:none;stroke:#000000;stroke-width:3;stroke-linecap:round;stroke-linejoin:round;stroke-miterlimit:10;}
	.st7{stroke:#000000;stroke-miterlimit:10;}
	.st8{fill:#333333;}
	.st9{fill-rule:evenodd;clip-rule:evenodd;}
</style>
<g id="Layer_1">
</g>
<g id="Layer_2">
	<g>
		<g>
			<defs>
				<rect id="SVGID_1_" x="-2848" y="-1864" width="5760" height="3600"/>
			</defs>
			<clipPath id="SVGID_2_">
				<use xlink:href="#SVGID_1_"  style="overflow:visible;"/>
			</clipPath>
		</g>
	</g>
	<g>
		<path class="st1" d="M14.2,39.7c0.1,0,0.2,0,0.3,0c0.4,0,0.9-0.3,1-0.7c1.2-3.9,3.3-8.4,10.6-11.9c0.5-0.2,0.7-0.9,0.5-1.4
			c-0.2-0.5-0.9-0.7-1.4-0.5c-8,3.9-10.4,8.8-11.7,13.2C13.3,39,13.6,39.5,14.2,39.7z"/>
		<path class="st1" d="M62.3,42h-5.4c-0.2-6.5-2.9-12.7-7.6-17.5C46,21.2,42,19,37.8,17.9c-0.2-3.4-3-6.2-6.5-6.2
			c-3.4,0-6.2,2.6-6.5,6c-4.5,1.1-8.7,3.4-12.2,6.9C7.8,29.2,5.2,35.5,5,42H1.7c-1,0-1.7,0.8-1.7,1.7s0.8,1.7,1.7,1.7h4.7l5.3,6.3
			c0.3,0.4,0.8,0.6,1.3,0.6h36.5c0.5,0,1-0.2,1.3-0.6l5.3-6.3h6.1c1,0,1.7-0.8,1.7-1.7S63.2,42,62.3,42z M31.3,15.1
			c1.3,0,2.4,0.8,2.9,2c-1.9-0.2-3.8-0.3-5.7-0.1C28.9,15.9,30,15.1,31.3,15.1z M15,27c8.8-8.8,23-8.8,31.8,0
			c4.1,4.1,6.3,9.4,6.6,15h-45C8.6,36.4,10.9,31,15,27z M48.8,48.9H13.9l-2.9-3.4h40.7L48.8,48.9z"/>
	</g>
</g>
</svg>
