<?xml version="1.0" encoding="utf-8"?>
<!-- Generator: Adobe Illustrator 22.1.0, SVG Export Plug-In . SVG Version: 6.00 Build 0)  -->
<svg version="1.1" id="Layer_1" xmlns="http://www.w3.org/2000/svg" xmlns:xlink="http://www.w3.org/1999/xlink" x="0px" y="0px"
	 viewBox="0 0 64 64" style="enable-background:new 0 0 64 64;" xml:space="preserve">
<style type="text/css">
	.st0{fill:#231F20;}
</style>
<g id="Layer_1_1_">
</g>
<g>
	<circle class="st0" cx="20.4" cy="25.2" r="4.8"/>
	<circle class="st0" cx="43.6" cy="25.2" r="4.8"/>
	<path class="st0" d="M46.2,41.4c0,0.1-4.5,7.5-14,7.5c-9.4,0-13.8-7.2-14-7.5l-0.7-1.2L15,41.6l0.7,1.3c0.2,0.4,5.4,9,16.5,9
		s16.3-8.6,16.5-9l0.7-1.3l-2.5-1.5L46.2,41.4z"/>
	<path class="st0" d="M32,0C14.4,0,0,14.4,0,32s14.4,32,32,32s32-14.4,32-32S49.6,0,32,0z M32,61.9C15.5,61.9,2.1,48.5,2.1,32
		S15.5,2.1,32,2.1S61.9,15.5,61.9,32S48.5,61.9,32,61.9z"/>
</g>
</svg>
