<?xml version="1.0" encoding="utf-8"?>
<!-- Generator: Adobe Illustrator 22.0.1, SVG Export Plug-In . SVG Version: 6.00 Build 0)  -->
<svg version="1.1" id="Layer_1" xmlns="http://www.w3.org/2000/svg" xmlns:xlink="http://www.w3.org/1999/xlink" x="0px" y="0px"
	 viewBox="0 0 595.3 841.9" style="enable-background:new 0 0 595.3 841.9;" xml:space="preserve">
<style type="text/css">
	.st0{fill:#231F20;}
</style>
<g id="Layer_1_1_">
</g>
<g>
	<path class="st0" d="M452,123.3H143.2c-16.7,0-31.6,14-31.6,31.6v532c0,17.7,14,31.6,31.6,31.6h307.9c17.7,0,31.6-14,31.6-31.6
		v-532C483.7,137.3,468.8,123.3,452,123.3z M147,683.2V158.6h301.4v524.6H147z"/>
	<path class="st0" d="M423.2,190.3H171.1v111.6h252.1V190.3z M178.6,294.4v-97.7h238.1v97.7H178.6z"/>
	<path class="st0" d="M353.4,399.6h69.8v-69.8h-69.8V399.6z M360.9,337.2h55.8V393h-55.8V337.2z"/>
	<path class="st0" d="M329.3,396.8v-67h-67v67H329.3z M269.7,336.3h53v53h-53V336.3z"/>
	<path class="st0" d="M241.8,399.6v-69.8h-69.8v69.8H241.8z M178.6,337.2h55.8V393h-55.8V337.2z"/>
	<path class="st0" d="M171.1,540h252.1V428.4H171.1V540z M178.6,434.9h238.1v97.7H178.6V434.9z"/>
</g>
</svg>
