<?xml version="1.0" encoding="utf-8"?>
<!-- Generator: Adobe Illustrator 16.0.0, SVG Export Plug-In . SVG Version: 6.00 Build 0)  -->
<!DOCTYPE svg PUBLIC "-//W3C//DTD SVG 1.1//EN" "http://www.w3.org/Graphics/SVG/1.1/DTD/svg11.dtd">
<svg version="1.1" id="Layer_1" xmlns="http://www.w3.org/2000/svg" xmlns:xlink="http://www.w3.org/1999/xlink" x="0px" y="0px"
	 width="595.279px" height="841.891px" viewBox="0 0 595.279 841.891" enable-background="new 0 0 595.279 841.891"
	 xml:space="preserve">
<g id="Layer_1_1_">
</g>
<g>
	<path fill="#231F20" d="M572.027,617.201H46.506V201.436c0-13.022-10.231-23.253-23.253-23.253S0,188.414,0,201.436v439.02
		c0,13.021,10.231,23.253,23.253,23.253h548.773c13.022,0,23.253-10.231,23.253-23.253
		C595.28,627.433,585.049,617.201,572.027,617.201z"/>
	<path fill="#231F20" d="M367.4,446.988c15.812,0,27.903-11.161,29.764-25.113l66.039-13.021
		c5.58,8.371,14.882,13.952,26.043,13.952c16.742,0,30.694-13.022,30.694-28.834s-13.952-28.833-30.694-28.833
		c-15.812,0-28.834,12.091-29.764,26.043l-65.108,12.091c-5.581-8.371-14.883-14.882-26.044-14.882
		c-16.742,0-30.694,13.021-30.694,28.834c0,5.58,1.86,11.161,4.65,15.812l-98.593,113.476c-3.721-1.86-8.371-2.79-13.021-2.79
		c-7.441,0-14.882,2.79-20.463,7.441l-79.061-53.947c1.86-3.721,2.79-7.441,2.79-12.092c0-15.812-13.951-28.834-30.693-28.834
		c-16.743,0-30.694,13.021-30.694,28.834c0.93,16.742,14.882,29.764,31.624,29.764c4.65,0,10.231-0.93,13.952-3.721l82.781,56.738
		c0,1.859-0.931,3.72-0.931,5.58c0,15.812,13.952,28.834,30.694,28.834s30.694-13.021,30.694-28.834
		c0-4.65-0.931-9.301-3.721-13.021l98.593-115.336C359.958,446.059,363.679,446.988,367.4,446.988z"/>
	<path fill="#231F20" d="M104.174,353.976c5.581,0,11.161-1.86,15.812-4.651l85.571,39.065c0,15.812,13.952,28.834,30.694,28.834
		s30.693-13.021,30.693-28.834c0-1.86,0-4.65-0.93-6.511l84.642-52.087c4.65,2.79,11.161,4.65,16.742,4.65
		c15.812,0,28.833-12.092,29.764-26.974l67.899-27.904c5.58,6.511,13.951,11.162,23.253,11.162
		c16.742,0,30.694-13.022,30.694-28.834s-13.952-28.834-30.694-28.834s-30.694,13.022-30.694,28.834v0.93l-66.039,26.974
		c-5.58-7.441-14.882-13.022-25.113-13.022c-16.742,0-30.694,13.022-30.694,28.834c0,3.721,0.931,6.511,1.86,9.301l-83.711,51.157
		c-5.581-4.651-12.092-7.441-19.532-7.441c-10.231,0-18.603,4.651-24.184,11.162l-79.061-36.275c0.93-2.79,1.86-6.511,1.86-10.231
		c0-15.812-13.952-28.833-30.694-28.833s-30.694,13.021-30.694,28.833C73.48,340.954,87.432,353.976,104.174,353.976z"/>
</g>
</svg>
