<?xml version="1.0" encoding="utf-8"?>
<!-- Generator: Adobe Illustrator 22.0.1, SVG Export Plug-In . SVG Version: 6.00 Build 0)  -->
<svg version="1.1" xmlns="http://www.w3.org/2000/svg" xmlns:xlink="http://www.w3.org/1999/xlink" x="0px" y="0px"
	 viewBox="0 0 64 64" style="enable-background:new 0 0 64 64;" xml:space="preserve">
<style type="text/css">
	.st0{fill:#231F20;}
	.st1{fill-rule:evenodd;clip-rule:evenodd;fill:#231F20;}
	.st2{fill:none;stroke:#000000;stroke-width:1.4;stroke-miterlimit:10;}
	.st3{fill:none;stroke:#231F20;stroke-width:2.2;stroke-miterlimit:10;}
	.st4{fill:none;stroke:#231F20;stroke-width:3;stroke-linecap:round;stroke-miterlimit:10;}
	.st5{fill:none;stroke:#231F20;stroke-width:2.2;stroke-linecap:round;stroke-linejoin:round;stroke-miterlimit:10;}
	.st6{fill:none;stroke:#000000;stroke-width:2.2;stroke-linecap:round;stroke-linejoin:round;stroke-miterlimit:10;}
	.st7{fill:none;stroke:#231F20;stroke-width:2.2;stroke-linecap:round;stroke-miterlimit:10;}
	.st8{fill:none;stroke:#000000;stroke-width:2.2;stroke-miterlimit:10;}
	.st9{fill:none;stroke:#000000;stroke-width:2;stroke-linecap:round;stroke-linejoin:round;stroke-miterlimit:10;}
	.st10{fill:none;stroke:#000000;stroke-width:1.8;stroke-linejoin:round;stroke-miterlimit:10;}
	
		.st11{fill-rule:evenodd;clip-rule:evenodd;fill:none;stroke:#000000;stroke-width:2.2;stroke-linecap:round;stroke-linejoin:round;stroke-miterlimit:10;}
	.st12{fill:#221F1F;}
	.st13{fill:none;stroke:#000000;stroke-width:1.8;stroke-miterlimit:10;}
	.st14{fill:none;stroke:#000000;stroke-width:1.7;stroke-linecap:round;stroke-linejoin:round;stroke-miterlimit:10;}
	.st15{fill:none;stroke:#000000;stroke-width:3;stroke-linecap:round;stroke-linejoin:round;stroke-miterlimit:10;}
	.st16{fill:none;stroke:#000000;stroke-width:1.8;stroke-linecap:round;stroke-linejoin:round;stroke-miterlimit:10;}
	.st17{fill:none;stroke:#000000;stroke-width:1.6;stroke-linecap:round;stroke-linejoin:round;stroke-miterlimit:10;}
	.st18{fill:none;stroke:#231F20;stroke-width:2;stroke-miterlimit:10;}
	.st19{fill:#0A1423;}
	.st20{fill:#F4831F;}
	.st21{fill:none;stroke:#000000;stroke-width:0.4736;stroke-miterlimit:10;}
	.st22{fill:none;stroke:#000000;stroke-width:0.431;stroke-miterlimit:10;}
	.st23{fill-rule:evenodd;clip-rule:evenodd;fill:none;stroke:#000000;stroke-width:0.6314;stroke-miterlimit:10;}
	.st24{fill-rule:evenodd;clip-rule:evenodd;fill:none;stroke:#231F20;stroke-width:0.4567;stroke-miterlimit:10;}
	.st25{fill-rule:evenodd;clip-rule:evenodd;fill:none;stroke:#231F20;stroke-width:0.2284;stroke-miterlimit:10;}
	.st26{fill:none;stroke:#000000;stroke-width:0.419;stroke-miterlimit:10;}
	.st27{fill:none;stroke:#000000;stroke-width:0.3813;stroke-miterlimit:10;}
	.st28{fill:#FFFFFF;stroke:#000000;stroke-width:0.419;stroke-miterlimit:10;}
	.st29{fill-rule:evenodd;clip-rule:evenodd;fill:none;stroke:#000000;stroke-width:0.5586;stroke-miterlimit:10;}
	.st30{fill-rule:evenodd;clip-rule:evenodd;fill:#FFFFFF;}
	.st31{fill-rule:evenodd;clip-rule:evenodd;fill:#FFFFFF;stroke:#231F20;stroke-width:0.2682;stroke-miterlimit:10;}
	.st32{fill-rule:evenodd;clip-rule:evenodd;}
	.st33{fill:none;stroke:#000000;stroke-width:2;stroke-miterlimit:10;}
	.st34{fill:#FFFFFF;}
	.st35{opacity:0.85;}
</style>
<g id="Layer_1">
</g>
<g id="Layer_2">
	<g id="Find-handy-Search-result_3_">
		<g id="Find-handy---search-results-_x28_desktop_x29_" transform="translate(-533.000000, -1890.000000)">
			<g id="Group-5" transform="translate(0.000000, 200.000000)">
				<g id="Featured-hotel-blade" transform="translate(0.000000, 1359.000000)">
					<g id="hotelvagabond0915" transform="translate(470.000000, 147.000000)">
						<g id="text_1_" transform="translate(14.000000, 143.000000)">
							<g id="handy-Icon-font_heart_1_" transform="translate(3.000000, 42.000000)">
								<g id="Layer_1_2_">
									<g id="Shape">
										<path class="st0" d="M78.1,59.7c-0.5,0-1-0.2-1.4-0.6c0,0-10.2-10.6-14.1-14.7L51.4,32.1c-4-4.2-5.1-8.4-5.3-11.3
											C45.4,13.3,50,7.9,51.6,6.7c3.5-3.3,8.4-4.8,13.9-4.1c6.2,0.9,10.3,4.8,12.6,7.7c2.1-2.8,6.1-6.8,12.5-7.7
											c5.4-0.7,10.4,0.8,14,4.3c1.5,1.2,6,6.6,5.4,14.1c-0.2,2.8-1.3,7.1-5.3,11.2c-4.1,4.5-8.4,9-12.6,13.5
											c-4.2,4.5-8.5,9-12.6,13.5C79.1,59.4,78.6,59.6,78.1,59.7C78.1,59.7,78.1,59.7,78.1,59.7z M62.9,6.2
											c-3.4,0-6.4,1.2-8.8,3.4c-0.2,0.2-4.8,4.2-4.2,11c0.3,3.2,1.7,6.2,4.2,8.8l11.3,12.3c3,3.1,9.7,10.1,12.6,13.1
											c3.7-4,7.5-8,11.2-12c4.2-4.5,8.4-8.9,12.5-13.4c2.6-2.7,4-5.7,4.3-8.9c0.6-6.7-4-10.8-4.1-10.9C99.1,7,95.2,5.8,91,6.4
											c-7.6,1.1-11.2,8.1-11.2,8.2c-0.3,0.7-1,1.1-1.7,1.1c-0.7,0.1-1.4-0.4-1.8-1c-1-1.7-4.7-7.4-11.4-8.3
											C64.3,6.3,63.6,6.2,62.9,6.2z"/>
									</g>
								</g>
							</g>
						</g>
					</g>
				</g>
			</g>
		</g>
	</g>
</g>
</svg>
