<?xml version="1.0" encoding="utf-8"?>
<!-- Generator: Adobe Illustrator 16.0.0, SVG Export Plug-In . SVG Version: 6.00 Build 0)  -->
<!DOCTYPE svg PUBLIC "-//W3C//DTD SVG 1.1//EN" "http://www.w3.org/Graphics/SVG/1.1/DTD/svg11.dtd">
<svg version="1.1" id="Layer_1" xmlns="http://www.w3.org/2000/svg" xmlns:xlink="http://www.w3.org/1999/xlink" x="0px" y="0px"
	 width="595.279px" height="841.891px" viewBox="0 0 595.279 841.891" enable-background="new 0 0 595.279 841.891"
	 xml:space="preserve">
<g id="Layer_1_1_">
</g>
<g>
	<path fill="#231F20" d="M566.447,174.462H28.834C13.022,174.462,0,187.483,0,203.296v353.447c0,9.302,7.44,15.812,15.812,15.812
		h86.502l26.044,83.711c1.86,5.581,5.58,9.302,11.161,11.162c0.93,0,2.79,0.93,3.721,0.93c4.65,0,8.371-1.86,11.161-4.65
		l90.223-90.223h320.893c15.812,0,28.834-13.021,28.834-28.834V203.296C595.28,187.483,582.258,174.462,566.447,174.462z
		 M239.042,540.932c-4.65,0-8.371,1.86-11.161,4.65l-76.271,76.271l-21.393-69.76c-1.86-6.511-8.372-11.161-14.883-11.161H31.624
		V206.086h531.102v334.846H239.042z"/>
	<path fill="#231F20" d="M502.268,287.007H93.013c-5.581,0-9.302,4.651-9.302,9.301c0,4.651,3.721,9.301,9.302,9.301h409.255
		c5.58,0,9.301-4.65,9.301-9.301C511.569,291.658,506.918,287.007,502.268,287.007z"/>
	<path fill="#231F20" d="M502.268,370.718H93.013c-5.581,0-9.302,4.651-9.302,9.301s3.721,9.301,9.302,9.301h409.255
		c5.58,0,9.301-4.651,9.301-9.301S506.918,370.718,502.268,370.718z"/>
	<path fill="#231F20" d="M297.64,450.709H93.013c-5.581,0-9.302,4.65-9.302,9.302c0,4.65,3.721,9.301,9.302,9.301H297.64
		c5.581,0,9.302-4.65,9.302-9.301C306.942,455.359,302.29,450.709,297.64,450.709z"/>
</g>
</svg>
