<?xml version="1.0" encoding="utf-8"?>
<!-- Generator: Adobe Illustrator 22.1.0, SVG Export Plug-In . SVG Version: 6.00 Build 0)  -->
<svg version="1.1" id="Layer_1" xmlns="http://www.w3.org/2000/svg" xmlns:xlink="http://www.w3.org/1999/xlink" x="0px" y="0px"
	 viewBox="0 0 64 64" style="enable-background:new 0 0 64 64;" xml:space="preserve">
<style type="text/css">
	.st0{fill:#231F20;}
</style>
<g id="Layer_1_1_">
</g>
<g>
	<path class="st0" d="M61.5,53.1H5V8.4C5,7,3.9,5.9,2.5,5.9S0,7,0,8.4v47.2c0,1.4,1.1,2.5,2.5,2.5h59c1.4,0,2.5-1.1,2.5-2.5
		C64,54.2,62.9,53.1,61.5,53.1z"/>
	<path class="st0" d="M39.5,34.8c1.7,0,3-1.2,3.2-2.7l7.1-1.4c0.6,0.9,1.6,1.5,2.8,1.5c1.8,0,3.3-1.4,3.3-3.1c0-1.7-1.5-3.1-3.3-3.1
		c-1.7,0-3.1,1.3-3.2,2.8l-7,1.3c-0.6-0.9-1.6-1.6-2.8-1.6c-1.8,0-3.3,1.4-3.3,3.1c0,0.6,0.2,1.2,0.5,1.7L26.2,45.5
		c-0.4-0.2-0.9-0.3-1.4-0.3c-0.8,0-1.6,0.3-2.2,0.8l-8.5-5.8c0.2-0.4,0.3-0.8,0.3-1.3c0-1.7-1.5-3.1-3.3-3.1c-1.8,0-3.3,1.4-3.3,3.1
		c0.1,1.8,1.6,3.2,3.4,3.2c0.5,0,1.1-0.1,1.5-0.4l8.9,6.1c0,0.2-0.1,0.4-0.1,0.6c0,1.7,1.5,3.1,3.3,3.1s3.3-1.4,3.3-3.1
		c0-0.5-0.1-1-0.4-1.4l10.6-12.4C38.7,34.7,39.1,34.8,39.5,34.8z"/>
	<path class="st0" d="M11.2,24.8c0.6,0,1.2-0.2,1.7-0.5l9.2,4.2c0,1.7,1.5,3.1,3.3,3.1s3.3-1.4,3.3-3.1c0-0.2,0-0.5-0.1-0.7l9.1-5.6
		c0.5,0.3,1.2,0.5,1.8,0.5c1.7,0,3.1-1.3,3.2-2.9l7.3-3c0.6,0.7,1.5,1.2,2.5,1.2c1.8,0,3.3-1.4,3.3-3.1s-1.5-3.1-3.3-3.1
		s-3.3,1.4-3.3,3.1V15l-7.1,2.9c-0.6-0.8-1.6-1.4-2.7-1.4c-1.8,0-3.3,1.4-3.3,3.1c0,0.4,0.1,0.7,0.2,1l-9,5.5
		c-0.6-0.5-1.3-0.8-2.1-0.8c-1.1,0-2,0.5-2.6,1.2l-8.5-3.9c0.1-0.3,0.2-0.7,0.2-1.1c0-1.7-1.5-3.1-3.3-3.1s-3.3,1.4-3.3,3.1
		C7.9,23.4,9.4,24.8,11.2,24.8z"/>
</g>
</svg>
