<?xml version="1.0" encoding="utf-8"?>
<!-- Generator: Adobe Illustrator 22.1.0, SVG Export Plug-In . SVG Version: 6.00 Build 0)  -->
<svg version="1.1" id="Layer_1" xmlns="http://www.w3.org/2000/svg" xmlns:xlink="http://www.w3.org/1999/xlink" x="0px" y="0px"
	 viewBox="0 0 64 64" style="enable-background:new 0 0 64 64;" xml:space="preserve">
<g id="Layer_1_1_">
</g>
<g>
	<path d="M32,0C14.3,0,0,14.3,0,32c0,17.7,14.3,32,32,32s32-14.3,32-32C64,14.3,49.7,0,32,0z M32,61C16,61,3,48,3,32S16,3,32,3
		s29,13,29,29C61,48,48,61,32,61z"/>
	<path d="M9.5,32.1c0,12.4,10.1,22.5,22.5,22.5v-45C19.6,9.6,9.5,19.7,9.5,32.1z"/>
</g>
</svg>
