<?xml version="1.0" encoding="utf-8"?>
<!-- Generator: Adobe Illustrator 16.0.0, SVG Export Plug-In . SVG Version: 6.00 Build 0)  -->
<!DOCTYPE svg PUBLIC "-//W3C//DTD SVG 1.1//EN" "http://www.w3.org/Graphics/SVG/1.1/DTD/svg11.dtd">
<svg version="1.1" id="Layer_1" xmlns="http://www.w3.org/2000/svg" xmlns:xlink="http://www.w3.org/1999/xlink" x="0px" y="0px"
	 width="595.279px" height="841.891px" viewBox="0 0 595.279 841.891" enable-background="new 0 0 595.279 841.891"
	 xml:space="preserve">
<g id="Layer_1_1_">
</g>
<g>
	<circle fill="#231F20" cx="189.745" cy="357.697" r="44.646"/>
	<circle fill="#231F20" cx="405.534" cy="357.697" r="44.646"/>
	<path fill="#231F20" d="M429.718,508.377c0,0.93-41.856,69.76-130.218,69.76c-87.432,0-128.357-66.97-130.218-69.76l-6.511-11.161
		l-23.253,13.021l6.511,12.092c1.86,3.72,50.227,83.711,153.471,83.711s151.61-79.991,153.471-83.711l6.511-12.092l-23.253-13.952
		L429.718,508.377z"/>
	<path fill="#231F20" d="M297.64,123.305C133.938,123.305,0,257.243,0,420.945s133.938,297.64,297.64,297.64
		s297.64-133.938,297.64-297.64S461.342,123.305,297.64,123.305z M297.64,699.053c-153.471,0-278.107-124.637-278.107-278.107
		S144.169,142.837,297.64,142.837s278.107,124.637,278.107,278.108S451.111,699.053,297.64,699.053z"/>
</g>
</svg>
