<?xml version="1.0" encoding="utf-8"?>
<!-- Generator: Adobe Illustrator 22.1.0, SVG Export Plug-In . SVG Version: 6.00 Build 0)  -->
<svg version="1.1" id="Layer_1" xmlns="http://www.w3.org/2000/svg" xmlns:xlink="http://www.w3.org/1999/xlink" x="0px" y="0px"
	 viewBox="0 0 64 64" style="enable-background:new 0 0 64 64;" xml:space="preserve">
<style type="text/css">
	.st0{fill:#231F20;}
</style>
<g id="Layer_1_1_">
</g>
<g>
	<path class="st0" d="M25.2,25.2c-8,3.9-10.4,8.8-11.7,13.2c-0.2,0.6,0.1,1.1,0.7,1.3c0.1,0,0.2,0,0.3,0c0.4,0,0.9-0.3,1-0.7
		c1.2-3.9,3.3-8.4,10.6-11.9c0.5-0.2,0.7-0.9,0.5-1.4C26.4,25.2,25.7,25,25.2,25.2z"/>
	<path class="st0" d="M62.4,42H57c-0.2-6.5-2.9-12.7-7.6-17.5c-3.3-3.3-7.3-5.5-11.5-6.6c-0.2-3.4-3-6.2-6.5-6.2
		c-3.4,0-6.2,2.6-6.5,6c-4.5,1.1-8.7,3.4-12.2,6.9C7.8,29.2,5.2,35.5,5,42H1.7c-1,0-1.7,0.8-1.7,1.7s0.8,1.7,1.7,1.7h4.7l5.3,6.3
		c0.3,0.4,0.8,0.6,1.3,0.6h36.6c0.5,0,1-0.2,1.3-0.6l5.3-6.3h6.1c1,0,1.7-0.8,1.7-1.7S63.3,42,62.4,42z M31.3,15.1
		c1.3,0,2.4,0.8,2.9,2c-1.9-0.2-3.8-0.3-5.7-0.1C28.9,15.9,30,15.1,31.3,15.1z M48.9,48.9h-35L11,45.5h40.8L48.9,48.9z M8.4,42
		c0.2-5.6,2.5-11,6.6-15c8.8-8.8,23-8.8,31.8,0c4.1,4.1,6.3,9.4,6.6,15H8.4z"/>
</g>
</svg>
