<?xml version="1.0" encoding="utf-8"?>
<!-- Generator: Adobe Illustrator 22.0.1, SVG Export Plug-In . SVG Version: 6.00 Build 0)  -->
<svg version="1.1" xmlns="http://www.w3.org/2000/svg" xmlns:xlink="http://www.w3.org/1999/xlink" x="0px" y="0px"
	 viewBox="0 0 64 64" style="enable-background:new 0 0 64 64;" xml:space="preserve">
<style type="text/css">
	.st0{opacity:0.85;}
	.st1{fill:#231F20;}
	.st2{fill:none;stroke:#231F20;stroke-width:2.2;stroke-linecap:round;stroke-linejoin:round;stroke-miterlimit:10;}
	.st3{fill:#000F23;}
	.st4{clip-path:url(#SVGID_2_);enable-background:new    ;}
	.st5{fill-rule:evenodd;clip-rule:evenodd;fill:#000F23;}
	.st6{fill:none;stroke:#000000;stroke-width:3;stroke-linecap:round;stroke-linejoin:round;stroke-miterlimit:10;}
	.st7{stroke:#000000;stroke-miterlimit:10;}
	.st8{fill:#333333;}
	.st9{fill-rule:evenodd;clip-rule:evenodd;}
</style>
<g id="Layer_1">
</g>
<g id="Layer_2">
	<g>
		<path d="M32-0.1c-17.7,0-32,14.3-32,32c0,17.7,14.3,32,32,32s32-14.3,32-32C64,14.2,49.7-0.1,32-0.1z M32,60.9c-16,0-29-13-29-29
			s13-29,29-29s29,13,29,29S48,60.9,32,60.9z"/>
		<path d="M35.8,20.4c-1.1-0.8-2.3-1.2-3.6-1.1c-2.1,0.1-4.4,1.3-6.4,2.9l-0.2,2.5c1.8-0.8,3.7-0.8,4.2,1.1
			c1.4,4.6-3.3,12.6-4.6,16.8c-3.4,11.4,4.8,12.7,10.7,8l0.2-2.7c-3.2,1.1-5.5-0.3-3.6-6.2C33.5,38.9,41,24.4,35.8,20.4z"/>
		<path d="M36.2,10.8c-1.8,0-3.3,1.5-3.3,3.3c0,1.8,1.5,3.3,3.3,3.3s3.3-1.5,3.3-3.3C39.5,12.3,38,10.8,36.2,10.8z"/>
	</g>
	<g>
		<g>
			<defs>
				<rect id="SVGID_1_" x="-2944" y="-1480" width="5760" height="3600"/>
			</defs>
			<clipPath id="SVGID_2_">
				<use xlink:href="#SVGID_1_"  style="overflow:visible;"/>
			</clipPath>
		</g>
	</g>
</g>
</svg>
