<?xml version="1.0" encoding="utf-8"?>
<!-- Generator: Adobe Illustrator 16.0.0, SVG Export Plug-In . SVG Version: 6.00 Build 0)  -->
<!DOCTYPE svg PUBLIC "-//W3C//DTD SVG 1.1//EN" "http://www.w3.org/Graphics/SVG/1.1/DTD/svg11.dtd">
<svg version="1.1" id="Layer_1" xmlns="http://www.w3.org/2000/svg" xmlns:xlink="http://www.w3.org/1999/xlink" x="0px" y="0px"
	 width="595.279px" height="841.891px" viewBox="0 0 595.279 841.891" enable-background="new 0 0 595.279 841.891"
	 xml:space="preserve">
<g id="Layer_1_1_">
</g>
<g>
	<path fill="none" d="M297.64,150.278c-148.82,0-269.736,120.917-269.736,269.736c0,148.82,120.916,269.736,269.736,269.736
		s269.736-120.916,269.736-269.736C567.376,271.195,446.46,150.278,297.64,150.278z M335.775,568.835l-1.86,25.113
		c-54.877,43.716-131.147,31.624-99.522-74.41c12.092-39.065,55.808-113.475,42.785-156.261
		c-4.65-17.672-22.322-17.672-39.064-10.231l1.859-23.253c18.603-14.882,39.996-26.044,59.528-26.974
		c12.092-0.93,23.253,2.79,33.484,10.231c48.366,37.205-21.393,172.073-30.694,198.116
		C284.618,566.045,306.011,579.066,335.775,568.835z M336.705,285.146c-16.742,0-30.694-13.952-30.694-30.694
		s13.952-30.694,30.694-30.694S367.4,237.71,367.4,254.453S353.448,285.146,336.705,285.146z"/>
	<path d="M297.64,122.375C133.008,122.375,0,255.383,0,420.015c0,164.633,133.008,297.641,297.64,297.641
		s297.64-133.008,297.64-297.641C595.28,255.383,462.272,122.375,297.64,122.375z M297.64,689.751
		c-148.82,0-269.736-120.916-269.736-269.736c0-148.82,120.916-269.736,269.736-269.736s269.736,120.917,269.736,269.736
		C567.376,568.835,446.46,689.751,297.64,689.751z"/>
	<path d="M332.985,313.051c-10.231-7.441-21.393-11.162-33.484-10.231c-19.532,0.93-40.926,12.091-59.528,26.974l-1.859,23.253
		c16.742-7.441,34.414-7.441,39.064,10.231c13.022,42.786-30.693,117.195-42.785,156.261
		c-31.625,106.034,44.646,118.126,99.522,74.41l1.86-25.113c-29.764,10.231-51.156-2.79-33.484-57.668
		C311.592,485.124,381.351,350.255,332.985,313.051z"/>
	<path d="M336.705,223.758c-16.742,0-30.694,13.952-30.694,30.694s13.952,30.694,30.694,30.694s30.694-13.952,30.694-30.694
		S353.448,223.758,336.705,223.758z"/>
</g>
</svg>
