<?xml version="1.0" encoding="utf-8"?>
<!-- Generator: Adobe Illustrator 22.0.1, SVG Export Plug-In . SVG Version: 6.00 Build 0)  -->
<svg version="1.1" xmlns="http://www.w3.org/2000/svg" xmlns:xlink="http://www.w3.org/1999/xlink" x="0px" y="0px"
	 viewBox="0 0 64 64" style="enable-background:new 0 0 64 64;" xml:space="preserve">
<style type="text/css">
	.st0{opacity:0.85;}
	.st1{fill:#231F20;}
	.st2{fill:none;stroke:#231F20;stroke-width:2.2;stroke-linecap:round;stroke-linejoin:round;stroke-miterlimit:10;}
	.st3{fill:#000F23;}
	.st4{clip-path:url(#SVGID_2_);enable-background:new    ;}
	.st5{fill-rule:evenodd;clip-rule:evenodd;fill:#000F23;}
	.st6{fill:none;stroke:#000000;stroke-width:3;stroke-linecap:round;stroke-linejoin:round;stroke-miterlimit:10;}
	.st7{stroke:#000000;stroke-miterlimit:10;}
	.st8{fill:#333333;}
	.st9{fill-rule:evenodd;clip-rule:evenodd;}
</style>
<g id="Layer_1">
</g>
<g id="Layer_2">
	<path id="Shape" class="st1" d="M46.9,0c-5.1-0.3-10.2,1.4-14.1,5.3c-4.8,4.9-6.3,11.8-4.5,18L2.6,49.1c-3.4,3.4-3.4,8.9,0,12.3
		c3.4,3.4,8.9,3.4,12.3,0l25.8-25.8c6.2,1.8,13.1,0.4,18-4.5c5.1-5.1,6.5-12.6,4.2-19c-0.3-1-1.8-1.3-2.6-0.6l-7.8,7.8
		c-2.2,2.2-5.7,2.2-7.9,0s-2.2-5.7,0-7.9l7.8-7.8c0.7-0.8,0.4-2.2-0.6-2.6C50.3,0.5,48.6,0.1,46.9,0z M46.7,3.2c0.5,0,1,0.2,1.5,0.3
		l-5.8,5.8c-3.4,3.4-3.4,8.9,0,12.3c3.4,3.4,8.9,3.4,12.3,0l5.8-5.8c0.8,4.6-0.5,9.5-4.1,13.1c-4.2,4.3-10.4,5.4-15.7,3.5
		c-0.6-0.2-1.2-0.1-1.7,0.4L12.7,59.2c-2.2,2.2-5.7,2.2-7.9,0c-2.2-2.2-2.2-5.7,0-7.9l26.4-26.4c0.4-0.4,0.6-1.1,0.4-1.6
		c-1.9-5.3-0.8-11.5,3.5-15.7C38.3,4.3,42.5,2.9,46.7,3.2z"/>
	<g>
		<g>
			<defs>
				<rect id="SVGID_1_" x="-2752" y="-1576" width="5760" height="3600"/>
			</defs>
			<clipPath id="SVGID_2_">
				<use xlink:href="#SVGID_1_"  style="overflow:visible;"/>
			</clipPath>
		</g>
	</g>
</g>
</svg>
