<?xml version="1.0" encoding="utf-8"?>
<!-- Generator: Adobe Illustrator 22.1.0, SVG Export Plug-In . SVG Version: 6.00 Build 0)  -->
<svg version="1.1" id="Layer_1" xmlns="http://www.w3.org/2000/svg" xmlns:xlink="http://www.w3.org/1999/xlink" x="0px" y="0px"
	 viewBox="0 0 64 64" style="enable-background:new 0 0 64 64;" xml:space="preserve">
<style type="text/css">
	.st0{fill:none;}
</style>
<g id="Layer_1_1_">
</g>
<g>
	<path class="st0" d="M32,3C16,3,3,16,3,32c0,16,13,29,29,29s29-13,29-29C61,16,48,3,32,3z M36.1,48l-0.2,2.7
		c-5.9,4.7-14.1,3.4-10.7-8c1.3-4.2,6-12.2,4.6-16.8c-0.5-1.9-2.4-1.9-4.2-1.1l0.2-2.5c2-1.6,4.3-2.8,6.4-2.9
		c1.3-0.1,2.5,0.3,3.6,1.1c5.2,4-2.3,18.5-3.3,21.3C30.6,47.7,32.9,49.1,36.1,48z M36.2,17.5c-1.8,0-3.3-1.5-3.3-3.3
		s1.5-3.3,3.3-3.3s3.3,1.5,3.3,3.3C39.5,16,38,17.5,36.2,17.5z"/>
	<path d="M32,0C14.3,0,0,14.3,0,32c0,17.7,14.3,32,32,32s32-14.3,32-32C64,14.3,49.7,0,32,0z M32,61C16,61,3,48,3,32S16,3,32,3
		s29,13,29,29C61,48,48,61,32,61z"/>
	<path d="M35.8,20.5c-1.1-0.8-2.3-1.2-3.6-1.1c-2.1,0.1-4.4,1.3-6.4,2.9l-0.2,2.5c1.8-0.8,3.7-0.8,4.2,1.1
		c1.4,4.6-3.3,12.6-4.6,16.8c-3.4,11.4,4.8,12.7,10.7,8l0.2-2.7c-3.2,1.1-5.5-0.3-3.6-6.2C33.5,39,41,24.5,35.8,20.5z"/>
	<path d="M36.2,10.9c-1.8,0-3.3,1.5-3.3,3.3s1.5,3.3,3.3,3.3s3.3-1.5,3.3-3.3S38,10.9,36.2,10.9z"/>
</g>
</svg>
