<?xml version="1.0" encoding="utf-8"?>
<!-- Generator: Adobe Illustrator 22.0.1, SVG Export Plug-In . SVG Version: 6.00 Build 0)  -->
<svg version="1.1" xmlns="http://www.w3.org/2000/svg" xmlns:xlink="http://www.w3.org/1999/xlink" x="0px" y="0px"
	 viewBox="0 0 64 64" style="enable-background:new 0 0 64 64;" xml:space="preserve">
<style type="text/css">
	.st0{fill:#231F20;}
	.st1{fill-rule:evenodd;clip-rule:evenodd;fill:#231F20;}
	.st2{fill:none;stroke:#000000;stroke-width:1.4;stroke-miterlimit:10;}
	.st3{fill:none;stroke:#231F20;stroke-width:2.2;stroke-miterlimit:10;}
	.st4{fill:none;stroke:#231F20;stroke-width:3;stroke-linecap:round;stroke-miterlimit:10;}
	.st5{fill:none;stroke:#231F20;stroke-width:2.2;stroke-linecap:round;stroke-linejoin:round;stroke-miterlimit:10;}
	.st6{fill:none;stroke:#000000;stroke-width:2.2;stroke-linecap:round;stroke-linejoin:round;stroke-miterlimit:10;}
	.st7{fill:none;stroke:#231F20;stroke-width:2.2;stroke-linecap:round;stroke-miterlimit:10;}
	.st8{fill:none;stroke:#000000;stroke-width:2.2;stroke-miterlimit:10;}
	.st9{fill:none;stroke:#000000;stroke-width:2;stroke-linecap:round;stroke-linejoin:round;stroke-miterlimit:10;}
	.st10{fill:none;stroke:#000000;stroke-width:1.8;stroke-linejoin:round;stroke-miterlimit:10;}
	
		.st11{fill-rule:evenodd;clip-rule:evenodd;fill:none;stroke:#000000;stroke-width:2.2;stroke-linecap:round;stroke-linejoin:round;stroke-miterlimit:10;}
	.st12{fill:#221F1F;}
	.st13{fill:none;stroke:#000000;stroke-width:1.8;stroke-miterlimit:10;}
	.st14{fill:none;stroke:#000000;stroke-width:1.7;stroke-linecap:round;stroke-linejoin:round;stroke-miterlimit:10;}
	.st15{fill:none;stroke:#000000;stroke-width:3;stroke-linecap:round;stroke-linejoin:round;stroke-miterlimit:10;}
	.st16{fill:none;stroke:#000000;stroke-width:1.8;stroke-linecap:round;stroke-linejoin:round;stroke-miterlimit:10;}
	.st17{fill:none;stroke:#000000;stroke-width:1.6;stroke-linecap:round;stroke-linejoin:round;stroke-miterlimit:10;}
	.st18{fill:none;stroke:#231F20;stroke-width:2;stroke-miterlimit:10;}
	.st19{fill:#0A1423;}
	.st20{fill:#F4831F;}
	.st21{fill:none;stroke:#000000;stroke-width:0.4736;stroke-miterlimit:10;}
	.st22{fill:none;stroke:#000000;stroke-width:0.431;stroke-miterlimit:10;}
	.st23{fill-rule:evenodd;clip-rule:evenodd;fill:none;stroke:#000000;stroke-width:0.6314;stroke-miterlimit:10;}
	.st24{fill-rule:evenodd;clip-rule:evenodd;fill:none;stroke:#231F20;stroke-width:0.4567;stroke-miterlimit:10;}
	.st25{fill-rule:evenodd;clip-rule:evenodd;fill:none;stroke:#231F20;stroke-width:0.2284;stroke-miterlimit:10;}
	.st26{fill:none;stroke:#000000;stroke-width:0.419;stroke-miterlimit:10;}
	.st27{fill:none;stroke:#000000;stroke-width:0.3813;stroke-miterlimit:10;}
	.st28{fill:#FFFFFF;stroke:#000000;stroke-width:0.419;stroke-miterlimit:10;}
	.st29{fill-rule:evenodd;clip-rule:evenodd;fill:none;stroke:#000000;stroke-width:0.5586;stroke-miterlimit:10;}
	.st30{fill-rule:evenodd;clip-rule:evenodd;fill:#FFFFFF;}
	.st31{fill-rule:evenodd;clip-rule:evenodd;fill:#FFFFFF;stroke:#231F20;stroke-width:0.2682;stroke-miterlimit:10;}
	.st32{fill-rule:evenodd;clip-rule:evenodd;}
	.st33{fill:none;stroke:#000000;stroke-width:2;stroke-miterlimit:10;}
	.st34{fill:#FFFFFF;}
	.st35{opacity:0.85;}
</style>
<g id="Layer_1">
</g>
<g id="Layer_2">
	<path class="st0" d="M51.3,16.8h-6.1v-1.1c0-2.5-3-4.4-6.9-4.4H25.7c-3.9,0-6.9,1.9-6.9,4.4v1.1h-6.1c-2.9,0-5.3,2.4-5.3,5.3v25.3
		c0,2.9,2.4,5.3,5.3,5.3h38.6c2.9,0,5.3-2.4,5.3-5.3V22.1C56.6,19.2,54.2,16.8,51.3,16.8z M20.8,15.8c0-1.1,2.1-2.4,4.9-2.4h12.5
		c2.8,0,4.9,1.3,4.9,2.4v1.1H20.8V15.8z M18.8,18.8h26.4h6.1c0.6,0,1.1,0.2,1.6,0.4c-0.7,11-9.8,19.6-20.9,19.6s-20.2-8.6-20.9-19.6
		c0.5-0.3,1-0.4,1.6-0.4H18.8z M36.9,40.4c-0.2,1.1-1.2,1.9-2.3,1.9h-5.2c-1.1,0-2.1-0.8-2.3-1.9c1.6,0.3,3.2,0.5,4.9,0.5
		C33.7,40.9,35.3,40.7,36.9,40.4z M54.6,47.4c0,1.8-1.5,3.3-3.3,3.3H12.7c-1.8,0-3.3-1.5-3.3-3.3V22.1c0,0,0-0.1,0-0.1
		c1.5,8.6,7.7,15.4,15.8,17.9h-0.2c0,2.4,1.9,4.3,4.3,4.3h5.2c2.4,0,4.3-1.9,4.3-4.3h-0.2C46.9,37.4,53,30.6,54.6,22
		c0,0,0,0.1,0,0.1V47.4z"/>
</g>
</svg>
