<?xml version="1.0" encoding="utf-8"?>
<!-- Generator: Adobe Illustrator 22.1.0, SVG Export Plug-In . SVG Version: 6.00 Build 0)  -->
<svg version="1.1" id="Layer_1" xmlns="http://www.w3.org/2000/svg" xmlns:xlink="http://www.w3.org/1999/xlink" x="0px" y="0px"
	 viewBox="0 0 64 64" style="enable-background:new 0 0 64 64;" xml:space="preserve">
<style type="text/css">
	.st0{fill:#231F20;}
</style>
<g id="Layer_1_1_">
</g>
<g>
	<path class="st0" d="M60.8,20.7H51c-0.4,0-0.8,0.1-1.1,0.2v-9.4c0-1-0.8-2-1.7-2.3L33.3,4c-1-0.3-2.7-0.3-3.7,0L15.1,9.1
		c-0.9,0.3-1.7,1.4-1.7,2.4v9.4c-0.3-0.1-0.7-0.2-1.1-0.2H3.2c-1.8,0-3.2,1.4-3.2,3.2V57c0,1.8,1.4,3.2,3.2,3.2h9.2
		c0.6,0,1.1-0.2,1.6-0.4c0.3,0.3,0.7,0.4,1.1,0.4h33.2c0.4,0,0.8-0.2,1.1-0.4c0.5,0.3,1,0.4,1.6,0.4h9.8c1.8,0,3.2-1.4,3.2-3.2V23.9
		C64,22.2,62.6,20.7,60.8,20.7z M13.4,57c0,0.5-0.4,1-1,1H3.2c-0.5,0-1-0.4-1-1V23.9c0-0.5,0.4-1,1-1h9.2c0.5,0,1,0.4,1,1V57z
		 M47.7,58h-32V11.5c0-0.1,0.1-0.3,0.2-0.3l14.5-5.1c0.5-0.2,1.7-0.2,2.2,0l14.9,5.1c0.1,0,0.2,0.2,0.2,0.3V58z M61.8,57
		c0,0.5-0.4,1-1,1H51c-0.5,0-1-0.4-1-1V23.9c0-0.5,0.4-1,1-1h9.8c0.5,0,1,0.4,1,1V57z"/>
	<path class="st0" d="M38.2,30.6c-1.1-0.8-2.4-1.3-3.6-1.8c-1.3-0.6-2.7-1-4-1.6c-0.6-0.3-1.3-1.1-1.3-1.8c-0.1-1,0.9-1.5,1.7-1.5
		c1.7,0,3.5,0,5.2,0.3c2.6,0.6,2.6,0.7,3.7-1.8c0.1-0.1,0.1-0.3,0.2-0.5c0.3-0.8,0.1-1.4-0.7-1.7c-1.1-0.4-2.3-0.9-3.4-1
		c-1.1-0.1-1.4-0.5-1.4-1.6c0.1-1.9-0.2-2.1-2-2.1c-2.8,0-2.8,0-2.8,2.8c0,0.7-0.2,1.1-0.9,1.3c-0.9,0.2-1.7,0.6-2.5,1.1
		c-3.9,2.3-4.2,7.5-0.4,10c1.6,1.1,3.5,1.7,5.3,2.5c1.1,0.5,2.3,1,3.3,1.7c1.1,0.8,1,2.2-0.2,3c-0.4,0.3-0.9,0.4-1.3,0.6
		C31,39.1,29,38.6,27,38c-2.5-0.9-2.5-0.9-3.6,1.6c-0.6,1.5-0.5,2,1,2.6c1.6,0.6,3.4,1,5.1,1.5c0.2,3.5-0.5,3.4,3.5,3.4
		c1.1,0,1.6-0.5,1.6-1.6c0-0.4,0-0.8,0-1.2c-0.1-0.7,0.2-1,0.9-1.3c1-0.3,2-0.8,2.9-1.4C42.2,38.6,42.2,33.4,38.2,30.6z"/>
</g>
</svg>
