<?xml version="1.0" encoding="utf-8"?>
<!-- Generator: Adobe Illustrator 22.1.0, SVG Export Plug-In . SVG Version: 6.00 Build 0)  -->
<svg version="1.1" id="Layer_1" xmlns="http://www.w3.org/2000/svg" xmlns:xlink="http://www.w3.org/1999/xlink" x="0px" y="0px"
	 viewBox="0 0 64 64" style="enable-background:new 0 0 64 64;" xml:space="preserve">
<style type="text/css">
	.st0{fill:#231F20;}
</style>
<g id="Layer_1_1_">
</g>
<g>
	<path class="st0" d="M48.6,0H15.4C13.6,0,12,1.5,12,3.4v57.2c0,1.9,1.5,3.4,3.4,3.4h33.1c1.9,0,3.4-1.5,3.4-3.4V3.4
		C52.1,1.5,50.5,0,48.6,0z M15.9,60.2V3.8h32.4v56.4L15.9,60.2L15.9,60.2z"/>
	<path class="st0" d="M45.6,7.2H18.4v12h27.1V7.2z M19.3,18.4V7.9h25.6v10.5H19.3z"/>
	<path class="st0" d="M38,29.7h7.5v-7.5H38L38,29.7L38,29.7z M38.9,23h6v6h-6V23z"/>
	<path class="st0" d="M35.5,29.4v-7.2h-7.2v7.2H35.5z M29,22.9h5.7v5.7H29V22.9z"/>
	<path class="st0" d="M26,29.7v-7.5h-7.5v7.5L26,29.7L26,29.7z M19.3,23h6v6h-6V23z"/>
	<path class="st0" d="M18.4,44.8h27.1v-12H18.4V44.8z M19.3,33.5h25.6V44H19.3V33.5z"/>
</g>
</svg>
