<?xml version="1.0" encoding="utf-8"?>
<!-- Generator: Adobe Illustrator 22.1.0, SVG Export Plug-In . SVG Version: 6.00 Build 0)  -->
<svg version="1.1" id="Layer_1" xmlns="http://www.w3.org/2000/svg" xmlns:xlink="http://www.w3.org/1999/xlink" x="0px" y="0px"
	 viewBox="0 0 64 64" style="enable-background:new 0 0 64 64;" xml:space="preserve">
<style type="text/css">
	.st0{fill:#231F20;}
</style>
<g id="Layer_1_1_">
</g>
<g>
	<path class="st0" d="M61,5.4H3.1C1.4,5.4,0,6.8,0,8.5v38.1c0,1,0.8,1.7,1.7,1.7H11l2.8,9c0.2,0.6,0.6,1,1.2,1.2
		c0.1,0,0.3,0.1,0.4,0.1c0.5,0,0.9-0.2,1.2-0.5l9.7-9.7h34.6c1.7,0,3.1-1.4,3.1-3.1V8.5C64.1,6.8,62.7,5.4,61,5.4z M25.7,44.9
		c-0.5,0-0.9,0.2-1.2,0.5l-8.2,8.2L14,46.1c-0.2-0.7-0.9-1.2-1.6-1.2h-9V8.8h57.2v36.1H25.7z"/>
	<path class="st0" d="M54.1,17.5H10c-0.6,0-1,0.5-1,1c0,0.5,0.4,1,1,1h44.1c0.6,0,1-0.5,1-1C55.1,18,54.6,17.5,54.1,17.5z"/>
	<path class="st0" d="M54.1,26.5H10c-0.6,0-1,0.5-1,1c0,0.5,0.4,1,1,1h44.1c0.6,0,1-0.5,1-1C55.1,27,54.6,26.5,54.1,26.5z"/>
	<path class="st0" d="M32,35.2H10c-0.6,0-1,0.5-1,1c0,0.5,0.4,1,1,1h22c0.6,0,1-0.5,1-1C33,35.7,32.5,35.2,32,35.2z"/>
</g>
</svg>
