<?xml version="1.0" encoding="utf-8"?>
<!-- Generator: Adobe Illustrator 22.0.1, SVG Export Plug-In . SVG Version: 6.00 Build 0)  -->
<svg version="1.1" xmlns="http://www.w3.org/2000/svg" xmlns:xlink="http://www.w3.org/1999/xlink" x="0px" y="0px"
	 viewBox="0 0 64 64" style="enable-background:new 0 0 64 64;" xml:space="preserve">
<style type="text/css">
	.st0{opacity:0.85;}
	.st1{fill:#231F20;}
	.st2{fill:none;stroke:#231F20;stroke-width:2.2;stroke-linecap:round;stroke-linejoin:round;stroke-miterlimit:10;}
	.st3{fill:#000F23;}
	.st4{clip-path:url(#SVGID_2_);enable-background:new    ;}
	.st5{fill-rule:evenodd;clip-rule:evenodd;fill:#000F23;}
	.st6{fill:none;stroke:#000000;stroke-width:3;stroke-linecap:round;stroke-linejoin:round;stroke-miterlimit:10;}
	.st7{stroke:#000000;stroke-miterlimit:10;}
	.st8{fill:#333333;}
	.st9{fill-rule:evenodd;clip-rule:evenodd;}
</style>
<g id="Layer_1">
</g>
<g id="Layer_2">
	<g>
		<g>
			<defs>
				<rect id="SVGID_1_" x="-2752" y="-1864" width="5760" height="3600"/>
			</defs>
			<clipPath id="SVGID_2_">
				<use xlink:href="#SVGID_1_"  style="overflow:visible;"/>
			</clipPath>
		</g>
	</g>
	<g>
		<path class="st1" d="M60.9,5.5H3.1C1.4,5.5,0,6.9,0,8.6v38c0,1,0.8,1.7,1.7,1.7H11l2.8,9c0.2,0.6,0.6,1,1.2,1.2
			c0.1,0,0.3,0.1,0.4,0.1c0.5,0,0.9-0.2,1.2-0.5l9.7-9.7h34.5c1.7,0,3.1-1.4,3.1-3.1V8.6C64,6.9,62.6,5.5,60.9,5.5z M60.6,44.9H25.7
			c-0.5,0-0.9,0.2-1.2,0.5l-8.2,8.2l-2.3-7.5c-0.2-0.7-0.9-1.2-1.6-1.2H3.4V8.9h57.1V44.9z"/>
		<path class="st1" d="M10,19.6h44c0.6,0,1-0.5,1-1s-0.5-1-1-1H10c-0.6,0-1,0.5-1,1S9.4,19.6,10,19.6z"/>
		<path class="st1" d="M10,28.6h44c0.6,0,1-0.5,1-1s-0.5-1-1-1H10c-0.6,0-1,0.5-1,1S9.4,28.6,10,28.6z"/>
		<path class="st1" d="M10,37.2h22c0.6,0,1-0.5,1-1s-0.5-1-1-1H10c-0.6,0-1,0.5-1,1S9.4,37.2,10,37.2z"/>
	</g>
</g>
</svg>
