<?xml version="1.0" encoding="utf-8"?>
<!-- Generator: Adobe Illustrator 16.0.0, SVG Export Plug-In . SVG Version: 6.00 Build 0)  -->
<!DOCTYPE svg PUBLIC "-//W3C//DTD SVG 1.1//EN" "http://www.w3.org/Graphics/SVG/1.1/DTD/svg11.dtd">
<svg version="1.1" id="Layer_1" xmlns="http://www.w3.org/2000/svg" xmlns:xlink="http://www.w3.org/1999/xlink" x="0px" y="0px"
	 width="595.279px" height="841.891px" viewBox="0 0 595.279 841.891" enable-background="new 0 0 595.279 841.891"
	 xml:space="preserve">
<g id="Layer_1_1_">
</g>
<g>
	<path fill="#231F20" d="M565.516,315.841h-91.152c-3.721,0-7.44,0.93-10.231,1.86V230.27c0-9.301-7.44-18.603-15.812-21.393
		L309.732,160.51c-9.301-2.79-25.113-2.79-34.415,0l-134.868,47.437c-8.371,2.791-15.812,13.022-15.812,22.323v87.432
		c-2.791-0.93-6.511-1.86-10.231-1.86H29.764C13.022,315.841,0,328.863,0,345.605v307.872c0,16.742,13.021,29.764,29.764,29.764
		h85.571c5.581,0,10.231-1.86,14.883-3.721c2.79,2.791,6.511,3.721,10.23,3.721H449.25c3.721,0,7.441-1.86,10.231-3.721
		c4.65,2.791,9.302,3.721,14.882,3.721h91.152c16.742,0,29.764-13.021,29.764-29.764V345.605
		C595.28,329.793,582.258,315.841,565.516,315.841z M124.637,653.477c0,4.65-3.721,9.301-9.302,9.301H29.764
		c-4.65,0-9.301-3.72-9.301-9.301V345.605c0-4.651,3.72-9.301,9.301-9.301h85.571c4.651,0,9.302,3.721,9.302,9.301V653.477z
		 M443.669,662.777H146.03V230.27c0-0.93,0.931-2.791,1.86-2.791l134.868-47.437c4.65-1.86,15.812-1.86,20.463,0l138.588,47.437
		c0.931,0,1.86,1.86,1.86,2.791V662.777z M574.818,653.477c0,4.65-3.721,9.301-9.302,9.301h-91.152c-4.65,0-9.301-3.72-9.301-9.301
		V345.605c0-4.651,3.721-9.301,9.301-9.301h91.152c4.65,0,9.302,3.721,9.302,9.301V653.477z"/>
	<path fill="#231F20" d="M355.308,407.923c-10.231-7.44-22.323-12.091-33.484-16.742c-12.092-5.581-25.113-9.301-37.205-14.882
		c-5.581-2.79-12.092-10.231-12.092-16.742c-0.93-9.301,8.371-13.952,15.812-13.952c15.812,0,32.554,0,48.366,2.791
		c24.184,5.581,24.184,6.511,34.414-16.743c0.931-0.93,0.931-2.79,1.86-4.65c2.791-7.441,0.931-13.022-6.511-15.812
		c-10.231-3.721-21.393-8.371-31.624-9.301s-13.021-4.651-13.021-14.882c0.93-17.672-1.86-19.532-18.603-19.532
		c-26.044,0-26.044,0-26.044,26.043c0,6.511-1.86,10.231-8.371,12.091c-8.371,1.86-15.812,5.581-23.253,10.231
		c-36.274,21.393-39.065,69.759-3.721,93.013c14.883,10.231,32.555,15.812,49.297,23.253c10.231,4.65,21.393,9.302,30.694,15.812
		c10.231,7.44,9.301,20.463-1.86,27.903c-3.721,2.791-8.371,3.721-12.092,5.581c-19.532,5.581-38.135,0.93-56.737-4.65
		c-23.253-8.371-23.253-8.371-33.484,14.882c-5.581,13.951-4.651,18.603,9.301,24.183c14.882,5.581,31.624,9.302,47.437,13.952
		c1.86,32.555-4.65,31.624,32.555,31.624c10.23,0,14.882-4.65,14.882-14.882c0-3.721,0-7.44,0-11.161
		c-0.931-6.511,1.86-9.302,8.371-12.092c9.301-2.79,18.603-7.441,26.974-13.021C392.513,482.333,392.513,433.967,355.308,407.923z"
		/>
</g>
</svg>
