<?xml version="1.0" encoding="utf-8"?>
<!-- Generator: Adobe Illustrator 16.0.0, SVG Export Plug-In . SVG Version: 6.00 Build 0)  -->
<!DOCTYPE svg PUBLIC "-//W3C//DTD SVG 1.1//EN" "http://www.w3.org/Graphics/SVG/1.1/DTD/svg11.dtd">
<svg version="1.1" id="Layer_1" xmlns="http://www.w3.org/2000/svg" xmlns:xlink="http://www.w3.org/1999/xlink" x="0px" y="0px"
	 width="595.279px" height="841.891px" viewBox="0 0 595.279 841.891" enable-background="new 0 0 595.279 841.891"
	 xml:space="preserve">
<g id="Layer_1_1_">
</g>
<g>
	<path d="M297.64,122.375C133.008,122.375,0,255.383,0,420.015c0,164.633,133.008,297.641,297.64,297.641
		s297.64-133.008,297.64-297.641C595.28,255.383,462.272,122.375,297.64,122.375z M297.64,689.751
		c-148.82,0-269.736-120.916-269.736-269.736c0-148.82,120.916-269.736,269.736-269.736s269.736,120.917,269.736,269.736
		C567.376,568.835,446.46,689.751,297.64,689.751z"/>
	<path d="M88.362,420.945c0,115.335,93.943,209.278,209.278,209.278V211.667C182.305,211.667,88.362,305.609,88.362,420.945z"/>
</g>
</svg>
