<?xml version="1.0" encoding="utf-8"?>
<!-- Generator: Adobe Illustrator 16.0.0, SVG Export Plug-In . SVG Version: 6.00 Build 0)  -->
<!DOCTYPE svg PUBLIC "-//W3C//DTD SVG 1.1//EN" "http://www.w3.org/Graphics/SVG/1.1/DTD/svg11.dtd">
<svg version="1.1" id="Layer_1" xmlns="http://www.w3.org/2000/svg" xmlns:xlink="http://www.w3.org/1999/xlink" x="0px" y="0px"
	 width="595.279px" height="841.891px" viewBox="0 0 595.279 841.891" enable-background="new 0 0 595.279 841.891"
	 xml:space="preserve">
<g id="Layer_1_1_">
</g>
<path fill="#231F20" d="M585.049,235.85c-2.791-9.301-16.742-12.092-24.184-5.581l-72.55,72.55
	c-20.463,20.462-53.018,20.462-73.479,0c-20.463-20.463-20.463-53.018,0-73.48l72.549-72.55c6.512-7.441,3.721-20.463-5.58-24.183
	c-13.952-4.651-29.765-8.372-45.576-9.302c-47.437-2.79-94.873,13.022-131.147,49.297c-44.646,45.576-58.598,109.755-41.855,167.423
	L24.183,579.996c-31.624,31.625-31.624,82.781,0,114.406c31.625,31.624,82.781,31.624,114.406,0L378.561,454.43
	c57.668,16.742,121.847,3.721,167.423-41.855C593.42,365.138,606.442,295.378,585.049,235.85z M524.59,392.111
	c-39.064,39.995-96.732,50.227-146.029,32.555c-5.581-1.86-11.161-0.931-15.812,3.72L118.126,673.939
	c-20.463,20.463-53.018,20.463-73.48,0s-20.463-53.018,0-73.48l245.554-245.553c3.72-3.721,5.58-10.231,3.72-14.882
	c-17.672-49.297-7.44-106.965,32.555-146.03c29.764-30.694,68.829-43.716,107.895-40.926c4.65,0,9.301,1.86,13.952,2.791
	l-53.947,53.947c-31.625,31.624-31.625,82.781,0,114.405c31.624,31.625,82.781,31.625,114.405,0l53.947-53.947
	C570.166,313.051,558.075,358.626,524.59,392.111z"/>
</svg>
