<?xml version="1.0" encoding="utf-8"?>
<!-- Generator: Adobe Illustrator 22.0.1, SVG Export Plug-In . SVG Version: 6.00 Build 0)  -->
<svg version="1.1" id="Layer_1" xmlns="http://www.w3.org/2000/svg" xmlns:xlink="http://www.w3.org/1999/xlink" x="0px" y="0px"
	 viewBox="0 0 64 64" style="enable-background:new 0 0 64 64;" xml:space="preserve">
<g id="Layer_1_1_">
</g>
<path d="M63.4,43.9L33.5,14c-0.5-0.4-0.9-0.6-1.5-0.6s-1.1,0.2-1.5,0.6L0.6,43.8C0.2,44.3,0,44.7,0,45.3c0,0.6,0.2,1.1,0.6,1.5
	L3.8,50c0.5,0.4,0.9,0.6,1.5,0.6c0.6,0,1.1-0.2,1.5-0.6L32,24.8L57.2,50c0.5,0.4,0.9,0.6,1.5,0.6c0.6,0,1.1-0.2,1.5-0.6l3.2-3.2
	c0.4-0.5,0.6-0.9,0.6-1.5C64,44.8,63.8,44.3,63.4,43.9z"/>
</svg>
