<?xml version="1.0" encoding="utf-8"?>
<!-- Generator: Adobe Illustrator 22.0.1, SVG Export Plug-In . SVG Version: 6.00 Build 0)  -->
<svg version="1.1" id="Layer_1" xmlns="http://www.w3.org/2000/svg" xmlns:xlink="http://www.w3.org/1999/xlink" x="0px" y="0px"
	 viewBox="0 0 600 600" style="enable-background:new 0 0 600 600;" xml:space="preserve">
<g id="Layer_1_1_">
</g>
<path d="M464.5,286.3L191.3,13.1c-3.7-3.7-8.2-5.5-12.8-5.5c-4.6,0-9.1,1.8-13.7,5.5l-29.2,29.2C131.9,46,130,50.5,130,56
	s1.8,9.1,5.5,13.7L365.8,300L135.5,530.3c-3.7,3.7-5.5,8.2-5.5,13.7c0,5.5,1.8,9.1,5.5,13.7l29.2,29.2c3.7,3.7,8.2,5.5,13.7,5.5
	c5.5,0,9.1-1.8,13.7-5.5l272.3-273.2c3.7-3.7,5.5-8.2,5.5-13.7C470,294.5,468.1,290.9,464.5,286.3z"/>
</svg>
