<?xml version="1.0" encoding="utf-8"?>
<!-- Generator: Adobe Illustrator 22.1.0, SVG Export Plug-In . SVG Version: 6.00 Build 0)  -->
<svg version="1.1" id="Layer_1" xmlns="http://www.w3.org/2000/svg" xmlns:xlink="http://www.w3.org/1999/xlink" x="0px" y="0px"
	 viewBox="0 0 64 64" style="enable-background:new 0 0 64 64;" xml:space="preserve">
<g id="Layer_1_1_">
</g>
<path d="M24.8,32L50,6.8c0.4-0.5,0.6-0.9,0.6-1.5c0-0.5-0.3-1-0.7-1.5l-3.2-3.2C46.2,0.2,45.8,0,45.2,0c-0.5,0-1,0.2-1.4,0.6
	L14,30.5c-0.4,0.5-0.6,0.9-0.6,1.5c0,0.6,0.2,1.1,0.6,1.5l29.8,29.9c0.5,0.4,0.9,0.6,1.5,0.6c0.6,0,1.1-0.2,1.5-0.6l3.2-3.2
	c0.4-0.5,0.6-0.9,0.6-1.5c0-0.6-0.2-1.1-0.6-1.5L24.8,32z"/>
</svg>
