<?xml version="1.0" encoding="utf-8"?>
<!-- Generator: Adobe Illustrator 22.0.1, SVG Export Plug-In . SVG Version: 6.00 Build 0)  -->
<svg version="1.1" xmlns="http://www.w3.org/2000/svg" xmlns:xlink="http://www.w3.org/1999/xlink" x="0px" y="0px"
	 viewBox="0 0 64 64" style="enable-background:new 0 0 64 64;" xml:space="preserve">
<style type="text/css">
	.st0{opacity:0.85;}
	.st1{fill:#231F20;}
	.st2{fill:none;stroke:#231F20;stroke-width:2.2;stroke-linecap:round;stroke-linejoin:round;stroke-miterlimit:10;}
	.st3{fill:#000F23;}
	.st4{clip-path:url(#SVGID_2_);enable-background:new    ;}
	.st5{fill-rule:evenodd;clip-rule:evenodd;fill:#000F23;}
	.st6{fill:none;stroke:#000000;stroke-width:3;stroke-linecap:round;stroke-linejoin:round;stroke-miterlimit:10;}
	.st7{stroke:#000000;stroke-miterlimit:10;}
	.st8{fill:#333333;}
	.st9{fill-rule:evenodd;clip-rule:evenodd;}
</style>
<g id="Layer_1">
</g>
<g id="Layer_2">
	<g>
		<g>
			<defs>
				<rect id="SVGID_1_" x="-2560" y="-2056" width="5760" height="3600"/>
			</defs>
			<clipPath id="SVGID_2_">
				<use xlink:href="#SVGID_1_"  style="overflow:visible;"/>
			</clipPath>
		</g>
	</g>
	<g id="Layer_2_3_">
		<g>
			<path class="st8" d="M56.5,0.2c-16.3,0-32.7,0-49,0C2.8,0.2,0,3,0,7.6c0,16.2,0,32.5,0,48.7c0,4.7,2.8,7.5,7.5,7.5
				c8.2,0,16.3,0,24.5,0s16.4,0,24.6,0c4.6,0,7.4-2.8,7.4-7.4c0-16.3,0-32.6,0-48.8C64,3,61.2,0.2,56.5,0.2z M59.4,56.4
				c0,2.1-0.8,2.9-2.9,2.9c-8.2,0-16.4,0-24.6,0s-16.4,0-24.6,0c-2.1,0-2.9-0.8-2.9-2.9c0-16.3,0-32.6,0-48.8c0-2,0.8-2.8,2.8-2.8
				c16.4,0,32.8,0,49.2,0c2,0,2.8,0.8,2.8,2.8C59.4,23.8,59.4,40.1,59.4,56.4z"/>
			<path class="st8" d="M44,19.3c-4.2,0-8.3,0-12.5,0c-4.1,0-8.2,0-12.4,0c-1.5,0-2.5,1-2.5,2.3s1,2.2,2.4,2.2c8.3,0,16.6,0,24.8,0
				c0.5,0,1.1-0.2,1.5-0.5c0.8-0.5,1.1-1.5,0.8-2.4C46,19.9,45.2,19.3,44,19.3z"/>
			<path class="st8" d="M12,16.7c7.5,0,15,0,22.5,0c0.5,0,1.1-0.2,1.5-0.5c0.8-0.5,1.1-1.5,0.8-2.4c-0.3-1-1.1-1.6-2.3-1.6
				c-3.7,0-7.5,0-11.2,0c-3.8,0-7.5,0-11.3,0c-1.5,0-2.5,1-2.5,2.3C9.5,15.7,10.6,16.6,12,16.7z"/>
			<path class="st8" d="M9.6,31.6c0.3,1,1.1,1.7,2.3,1.7c3.8,0,7.5,0,11.3,0c3.7,0,7.5,0,11.2,0c1.5,0,2.5-1,2.5-2.3s-1-2.3-2.5-2.3
				c-7.5,0-14.9,0-22.4,0c-0.5,0-1,0.1-1.4,0.4C9.8,29.6,9.4,30.7,9.6,31.6z"/>
			<path class="st8" d="M34.6,47.9c-5.9,0-11.8,0-17.7,0c-1.6,0-2.6,0.9-2.6,2.3c0,1.4,1.1,2.3,2.7,2.3c2.9,0,5.8,0,8.8,0
				c2.9,0,5.9,0,8.8,0c0.5,0,1.1-0.2,1.6-0.4c0.9-0.5,1.2-1.6,0.9-2.5C36.7,48.4,35.9,47.9,34.6,47.9z"/>
			<path class="st8" d="M20.7,42.9c1.5,0,2.6-1,2.6-2.3s-1.1-2.2-2.5-2.2c-2.9,0-5.8,0-8.6,0c-1.5,0-2.5,1-2.5,2.3s1,2.3,2.5,2.3
				s2.9,0,4.4,0C17.8,42.9,19.3,42.9,20.7,42.9z"/>
		</g>
	</g>
</g>
</svg>
