<?xml version="1.0" encoding="utf-8"?>
<!-- Generator: Adobe Illustrator 16.0.0, SVG Export Plug-In . SVG Version: 6.00 Build 0)  -->
<!DOCTYPE svg PUBLIC "-//W3C//DTD SVG 1.1//EN" "http://www.w3.org/Graphics/SVG/1.1/DTD/svg11.dtd">
<svg version="1.1" id="Layer_1" xmlns="http://www.w3.org/2000/svg" xmlns:xlink="http://www.w3.org/1999/xlink" x="0px" y="0px"
	 width="595.279px" height="841.891px" viewBox="0 0 595.279 841.891" enable-background="new 0 0 595.279 841.891"
	 xml:space="preserve">
<g id="Layer_1_1_">
</g>
<path d="M230.671,420.945l235.321-234.392c3.721-4.651,5.581-8.372,5.581-13.952c0-4.65-2.79-9.301-6.511-13.952l-29.765-29.764
	c-4.65-3.721-8.371-5.581-13.951-5.581c-4.651,0-9.302,1.86-13.022,5.581L130.218,406.993c-3.721,4.65-5.581,8.371-5.581,13.952
	c0,5.58,1.86,10.231,5.581,13.951l277.177,278.108c4.65,3.72,8.371,5.58,13.952,5.58c5.58,0,10.231-1.86,13.951-5.58l29.765-29.765
	c3.721-4.65,5.58-8.371,5.58-13.951c0-5.581-1.859-10.231-5.58-13.952L230.671,420.945z"/>
</svg>
