<?xml version="1.0" encoding="utf-8"?>
<!-- Generator: Adobe Illustrator 22.0.1, SVG Export Plug-In . SVG Version: 6.00 Build 0)  -->
<svg version="1.1" xmlns="http://www.w3.org/2000/svg" xmlns:xlink="http://www.w3.org/1999/xlink" x="0px" y="0px"
	 viewBox="0 0 64 64" style="enable-background:new 0 0 64 64;" xml:space="preserve">
<style type="text/css">
	.st0{fill:#231F20;}
	.st1{fill-rule:evenodd;clip-rule:evenodd;fill:#231F20;}
	.st2{fill:none;stroke:#000000;stroke-width:1.4;stroke-miterlimit:10;}
	.st3{fill:none;stroke:#231F20;stroke-width:2.2;stroke-miterlimit:10;}
	.st4{fill:none;stroke:#231F20;stroke-width:3;stroke-linecap:round;stroke-miterlimit:10;}
	.st5{fill:none;stroke:#231F20;stroke-width:2.2;stroke-linecap:round;stroke-linejoin:round;stroke-miterlimit:10;}
	.st6{fill:none;stroke:#000000;stroke-width:2.2;stroke-linecap:round;stroke-linejoin:round;stroke-miterlimit:10;}
	.st7{fill:none;stroke:#231F20;stroke-width:2.2;stroke-linecap:round;stroke-miterlimit:10;}
	.st8{fill:none;stroke:#000000;stroke-width:2.2;stroke-miterlimit:10;}
	.st9{fill:none;stroke:#000000;stroke-width:2;stroke-linecap:round;stroke-linejoin:round;stroke-miterlimit:10;}
	.st10{fill:none;stroke:#000000;stroke-width:1.8;stroke-linejoin:round;stroke-miterlimit:10;}
	
		.st11{fill-rule:evenodd;clip-rule:evenodd;fill:none;stroke:#000000;stroke-width:2.2;stroke-linecap:round;stroke-linejoin:round;stroke-miterlimit:10;}
	.st12{fill:#221F1F;}
	.st13{fill:none;stroke:#000000;stroke-width:1.8;stroke-miterlimit:10;}
	.st14{fill:none;stroke:#000000;stroke-width:1.7;stroke-linecap:round;stroke-linejoin:round;stroke-miterlimit:10;}
	.st15{fill:none;stroke:#000000;stroke-width:3;stroke-linecap:round;stroke-linejoin:round;stroke-miterlimit:10;}
	.st16{fill:none;stroke:#000000;stroke-width:1.8;stroke-linecap:round;stroke-linejoin:round;stroke-miterlimit:10;}
	.st17{fill:none;stroke:#000000;stroke-width:1.6;stroke-linecap:round;stroke-linejoin:round;stroke-miterlimit:10;}
	.st18{fill:none;stroke:#231F20;stroke-width:2;stroke-miterlimit:10;}
	.st19{fill:#0A1423;}
	.st20{fill:#F4831F;}
	.st21{fill:none;stroke:#000000;stroke-width:0.4736;stroke-miterlimit:10;}
	.st22{fill:none;stroke:#000000;stroke-width:0.431;stroke-miterlimit:10;}
	.st23{fill-rule:evenodd;clip-rule:evenodd;fill:none;stroke:#000000;stroke-width:0.6314;stroke-miterlimit:10;}
	.st24{fill-rule:evenodd;clip-rule:evenodd;fill:none;stroke:#231F20;stroke-width:0.4567;stroke-miterlimit:10;}
	.st25{fill-rule:evenodd;clip-rule:evenodd;fill:none;stroke:#231F20;stroke-width:0.2284;stroke-miterlimit:10;}
	.st26{fill:none;stroke:#000000;stroke-width:0.419;stroke-miterlimit:10;}
	.st27{fill:none;stroke:#000000;stroke-width:0.3813;stroke-miterlimit:10;}
	.st28{fill:#FFFFFF;stroke:#000000;stroke-width:0.419;stroke-miterlimit:10;}
	.st29{fill-rule:evenodd;clip-rule:evenodd;fill:none;stroke:#000000;stroke-width:0.5586;stroke-miterlimit:10;}
	.st30{fill-rule:evenodd;clip-rule:evenodd;fill:#FFFFFF;}
	.st31{fill-rule:evenodd;clip-rule:evenodd;fill:#FFFFFF;stroke:#231F20;stroke-width:0.2682;stroke-miterlimit:10;}
	.st32{fill-rule:evenodd;clip-rule:evenodd;}
	.st33{fill:none;stroke:#000000;stroke-width:2;stroke-miterlimit:10;}
	.st34{fill:#FFFFFF;}
	.st35{opacity:0.85;}
</style>
<g id="Layer_1">
</g>
<g id="Layer_2">
	<g>
		<g>
			<path d="M21.1,41.8c-0.3,0-0.7-0.1-1-0.2c-0.6-0.3-1-0.7-1.2-1.3c-0.1-0.1-0.1-0.3-0.1-0.4l1.5-0.3c0,0.1,0,0.1,0,0.2
				c0.1,0.2,0.2,0.4,0.4,0.5c0.2,0.1,0.4,0.1,0.6,0c0.4-0.2,0.7-0.7,0.5-1.1c-0.1-0.2-0.2-0.4-0.4-0.5c-0.2-0.1-0.4-0.1-0.6,0
				l-0.5-1.4c0.6-0.2,1.2-0.2,1.8,0c0.6,0.3,1,0.7,1.3,1.3c0.2,0.6,0.2,1.2,0,1.8c-0.3,0.6-0.7,1-1.3,1.3
				C21.6,41.7,21.4,41.8,21.1,41.8z"/>
		</g>
		<g>
			<path d="M18.6,48.1c-0.1,0-0.2,0-0.3,0c-1.3-0.1-2.2-1.3-2.1-2.6c0.1-1.3,1.3-2.2,2.6-2.1c0.6,0.1,1.2,0.4,1.6,0.9
				c0.4,0.5,0.6,1.1,0.5,1.7l-1.5-0.2c0-0.2,0-0.4-0.2-0.6c-0.1-0.2-0.3-0.3-0.6-0.3c-0.5-0.1-0.9,0.3-0.9,0.7
				c-0.1,0.5,0.3,0.9,0.7,0.9c0.1,0,0.1,0,0.2,0l0.1,1.5C18.7,48.1,18.7,48.1,18.6,48.1z"/>
		</g>
		<path d="M27.5,26.7c-0.3,0-0.6-0.1-0.7-0.4c-0.2-0.4-0.1-0.9,0.3-1.2c1.9-1.1,6.2-4.2,5.8-7.7c-0.1-0.4-0.3-0.9-0.5-1.4
			c-0.4-0.7-0.8-1.5-0.7-2.5c0.2-3.4,4.7-4.2,6.2-4.4c0.5-0.1,0.9,0.2,1,0.7c0.1,0.5-0.2,0.9-0.7,1c-3.1,0.5-4.7,1.5-4.8,2.9
			c0,0.5,0.2,1,0.5,1.6c0.3,0.6,0.6,1.2,0.7,1.9c0.5,4.3-3.9,7.7-6.6,9.3C27.8,26.6,27.7,26.7,27.5,26.7z"/>
		<path d="M34.4,28c-0.3,0-0.6-0.2-0.7-0.5c-0.2-0.4,0-0.9,0.4-1.1c2.8-1.4,3.8-5,2.3-8c-0.2-0.4,0-0.9,0.4-1.1
			c0.4-0.2,0.9,0,1.1,0.4c1.9,3.8,0.6,8.4-3,10.2C34.6,28,34.5,28,34.4,28z"/>
		<path d="M35.8,34.5c-0.1,0-0.2,0-0.3,0c-0.4-0.2-0.7-0.6-0.5-1.1c1.1-3.2,3.8-8.7,8.5-8.7c0,0,0,0,0,0c0.8,0,1.5,0.3,2.2,0.5
			c0.7,0.3,1.3,0.5,1.8,0.4c1.4-0.3,2.1-2.3,2-5.9c0-0.5,0.3-0.9,0.8-0.9c0.5,0,0.9,0.3,0.9,0.8c0.1,1.7,0.3,6.9-3.3,7.6
			c-1,0.2-1.9-0.1-2.8-0.5c-0.6-0.2-1.1-0.4-1.6-0.4c0,0,0,0,0,0c-3.8,0-6.1,5.3-6.9,7.6C36.5,34.3,36.2,34.5,35.8,34.5z"/>
		<circle cx="42.1" cy="19.7" r="1"/>
		<circle cx="39" cy="13.4" r="1"/>
		<circle cx="46.3" cy="15.9" r="1"/>
		<circle cx="47.3" cy="20.9" r="1"/>
		<circle cx="43.8" cy="10" r="1"/>
		<circle cx="29.3" cy="19.2" r="1"/>
		<circle cx="51.4" cy="14.4" r="1"/>
		<circle cx="28" cy="12.7" r="1"/>
		<path class="st0" d="M32,40.3c-0.5,0-1-0.1-1.6-0.2c-1.9-0.4-4-1.4-5.9-2.9c-4.3-3.3-6.2-7.4-4.5-9.7c0.9-1.1,2.5-1.5,4.6-1.1
			c1.9,0.4,4,1.4,5.9,2.9c1.9,1.5,3.5,3.2,4.4,4.9c1,1.9,1,3.6,0.2,4.7l0,0C34.4,39.8,33.4,40.3,32,40.3z M23,27.9
			c-0.8,0-1.3,0.2-1.6,0.6c-0.9,1.2,0.6,4.5,4.2,7.3c1.7,1.3,3.6,2.3,5.2,2.6c1.4,0.3,2.5,0.1,2.9-0.4l0,0c0.4-0.6,0.3-1.7-0.3-2.9
			c-0.8-1.5-2.2-3.1-3.9-4.4c-1.7-1.3-3.6-2.3-5.2-2.6C23.8,28,23.3,27.9,23,27.9z"/>
		<path class="st0" d="M12.4,55c-0.2,0-0.3,0-0.5-0.1c-0.3-0.2-0.4-0.6-0.3-0.9l4.6-18.6c0.1-0.4,0.6-0.7,1-0.6
			c0.4,0.1,0.7,0.6,0.6,1l-4.1,16.4l20.1-14.4c0.4-0.3,0.9-0.2,1.2,0.2c0.3,0.4,0.2,0.9-0.2,1.2L12.9,54.9C12.8,55,12.6,55,12.4,55z
			"/>
	</g>
</g>
</svg>
