<?xml version="1.0" encoding="utf-8"?>
<!-- Generator: Adobe Illustrator 16.0.0, SVG Export Plug-In . SVG Version: 6.00 Build 0)  -->
<!DOCTYPE svg PUBLIC "-//W3C//DTD SVG 1.1//EN" "http://www.w3.org/Graphics/SVG/1.1/DTD/svg11.dtd">
<svg version="1.1" id="Layer_1" xmlns="http://www.w3.org/2000/svg" xmlns:xlink="http://www.w3.org/1999/xlink" x="0px" y="0px"
	 width="595.279px" height="841.891px" viewBox="0 0 595.279 841.891" enable-background="new 0 0 595.279 841.891"
	 xml:space="preserve">
<g id="Layer_1_1_">
</g>
<g>
	<path fill="#231F20" d="M373.91,326.072c-10.231-7.441-21.394-8.371-33.484-9.301c-9.302-0.93-16.742,1.86-22.323,10.231
		c-6.511,9.301-13.952,17.672-21.393,26.974c-9.302-11.162-17.673-20.463-25.113-30.694c-3.721-4.65-7.441-6.511-13.022-6.511
		c-3.72,0-6.511,0-10.231,0c-27.903-0.93-52.087,24.183-47.436,53.947c3.72,28.833,7.44,57.667,11.161,86.501
		c1.86,17.673,7.441,32.555,24.184,41.855c1.86,0.931,2.79,4.651,2.79,6.512c6.511,45.576,13.021,91.151,20.463,136.728
		c1.86,13.952,9.301,20.463,24.184,20.463c8.371,0,17.672,0,26.043,0c14.882,0,23.253-7.44,25.113-22.322
		c6.511-43.717,13.021-88.362,19.532-132.078c0.931-3.721,3.721-8.371,7.441-10.231c10.231-6.511,16.742-15.812,18.603-27.903
		c4.65-34.415,9.301-68.83,13.021-103.244C395.303,350.255,387.862,336.304,373.91,326.072z"/>
	<path fill="#231F20" d="M297.64,301.889c29.764,0,54.877-25.114,54.877-54.877c0-30.694-25.113-56.738-54.877-56.738
		c-30.694,0-54.877,25.113-54.877,54.877C242.763,276.775,266.946,301.889,297.64,301.889z"/>
	<path fill="#231F20" d="M81.851,244.221c9.302,9.301,17.673,17.672,26.974,26.974c-1.86,1.86-2.79,2.791-3.721,4.651
		c-1.859,4.65-5.58,9.301-4.65,13.021c0.931,3.721,7.441,6.511,11.162,7.441c18.603,3.721,37.204,6.511,55.807,9.301
		c8.371,0.93,13.952-4.65,13.022-13.021c-2.791-19.533-6.511-39.065-9.302-59.528c-1.86-9.301-10.231-12.091-17.672-6.511
		c-1.86,1.86-3.721,3.721-6.511,6.511c-16.742-16.742-32.555-32.554-48.367-49.296c-9.301-7.441-14.882-7.441-23.253,0.93
		c-5.581,4.65-10.231,10.231-15.812,15.812c-6.511,7.441-7.44,13.952,0,21.393C66.969,229.339,74.41,236.78,81.851,244.221z"/>
	<path fill="#231F20" d="M167.422,501.866c-3.72,0-7.44,0.93-11.161,1.86c-14.882,2.79-30.694,4.65-45.576,7.44
		c-12.092,1.86-14.882,10.231-7.44,19.533c1.859,1.86,2.79,3.72,4.65,5.58c-1.86,1.86-3.721,4.651-5.581,6.511
		c-13.952,13.952-27.903,27.904-41.855,42.786c-8.371,8.371-8.371,14.882,0,23.253c4.65,5.581,10.231,10.231,14.882,14.882
		c7.441,6.512,13.952,6.512,21.393,0c2.791-2.79,5.581-5.58,8.371-7.44c13.952-13.952,27.904-27.904,41.856-41.855
		c1.859,1.86,3.72,3.721,4.65,4.65c4.65,1.86,9.301,4.65,13.021,3.721c2.79-0.931,5.581-6.511,7.441-10.231
		c0.93-1.86,0.93-4.65,0.93-7.441c2.79-16.742,5.581-32.554,7.441-49.296C181.374,505.587,176.724,500.936,167.422,501.866z"/>
	<path fill="#231F20" d="M426.927,305.609c20.463-2.79,39.996-6.511,60.458-10.231c7.441-1.86,10.231-9.301,5.581-15.812
		c-1.86-2.791-4.65-5.581-6.511-8.371c1.86-1.86,3.721-3.72,5.581-5.581c13.951-13.952,28.834-28.834,42.785-42.786
		c8.371-8.371,7.441-14.882,0-23.253c-4.65-5.581-10.231-11.162-15.812-15.812c-6.511-5.581-12.092-5.581-18.603-0.93
		c-2.791,2.791-5.581,4.65-8.371,7.441c-13.952,13.952-28.834,28.834-42.786,42.786c-1.86-1.86-3.721-3.72-5.581-5.581
		c-8.371-7.441-16.742-4.651-19.532,5.581c-0.93,2.791-0.93,6.511-1.86,9.301c-2.79,15.812-5.581,31.625-7.44,48.367
		C413.906,300.959,418.556,306.54,426.927,305.609z"/>
	<path fill="#231F20" d="M486.455,536.28c1.86-1.86,2.79-2.79,2.79-3.72c1.86-4.651,6.511-10.231,4.651-13.022
		c-1.86-3.721-7.441-7.44-12.092-8.371c-17.673-3.721-35.345-6.511-53.947-9.301c-9.302-1.86-14.882,3.721-13.952,13.021
		c2.79,18.603,5.581,37.205,9.302,55.808c0.93,3.721,3.72,9.301,6.511,10.231c3.72,0.93,8.371-1.86,13.021-3.721
		c1.86-0.93,2.79-2.79,5.581-4.65c14.882,14.882,27.903,28.834,41.855,42.785c16.742,16.742,19.532,16.742,35.345,0
		c18.603-18.603,18.603-19.532,0-39.064C513.429,564.185,499.477,550.232,486.455,536.28z"/>
	<path fill="#231F20" d="M574.818,378.159c-21.394,0-41.856,0-63.249,0c0-3.72-0.93-6.511-0.93-10.231
		c-0.931-9.301-8.371-13.021-15.812-8.371c-16.742,11.162-33.484,23.253-49.297,35.345c-6.511,4.65-6.511,12.092-0.93,15.812
		c16.742,13.021,33.484,25.113,51.157,37.205c6.511,4.65,13.951,0,14.882-8.371c0.93-3.721,0.93-6.511,0.93-10.231
		c23.253,0,45.576,0,67.899,0c12.092,0,16.742-4.65,16.742-16.742c0-4.65,0-9.302,0-13.952
		C595.28,380.95,592.49,378.159,574.818,378.159z"/>
	<path fill="#231F20" d="M85.572,436.757c0.93,13.022,8.371,16.742,18.603,9.302c14.882-10.231,29.764-21.393,44.646-31.624
		c9.302-6.512,9.302-13.952,0-20.463c-13.021-9.302-25.113-18.603-38.135-27.904c-18.603-13.022-22.323-12.092-26.043,12.091H75.34
		c-19.532,0-39.065,0-57.668,0c-13.021,0-16.742,4.651-16.742,16.742c0,5.581,0,12.092,0,17.673
		C0,425.596,4.651,430.246,17.672,430.246c19.533,0,39.996,0,59.528,0C82.781,430.246,84.642,431.177,85.572,436.757z"/>
</g>
</svg>
