<?xml version="1.0" encoding="utf-8"?>
<!-- Generator: Adobe Illustrator 22.0.1, SVG Export Plug-In . SVG Version: 6.00 Build 0)  -->
<svg version="1.1" id="Layer_1" xmlns="http://www.w3.org/2000/svg" xmlns:xlink="http://www.w3.org/1999/xlink" x="0px" y="0px"
	 viewBox="0 0 64 64" style="enable-background:new 0 0 64 64;" xml:space="preserve">
<g>
	<path d="M62.2,12.7H12.1L9.9,6.8c-0.2-0.6-0.8-1-1.5-1H1.6C0.6,5.8,0,6.4,0,7.3s0.6,1.5,1.6,1.5h5.6l12.9,35.2c0.2,0.6,0.8,1,1.5,1
		h34.8c1,0,1.6-0.6,1.6-1.5c0-0.9-0.7-1.5-1.6-1.5H22.8l-1.4-3.9h32.6c0.8,0,1.4-0.4,1.6-1l8.2-22.5c0.2-0.4,0.1-0.9-0.1-1.3
		C63.3,12.9,62.8,12.7,62.2,12.7z M56.3,25.5l-3.5,9.6H52v-9.6H56.3z M60,15.6l-2.5,7H52v-7C52,15.6,60,15.6,60,15.6z M48.8,25.5
		v9.6h-9.9v-9.6H48.8z M48.8,15.6v6.8h-9.9v-6.8C38.9,15.6,48.8,15.6,48.8,15.6z M35.7,25.5v9.6h-9.9v-9.6H35.7z M35.7,15.6v6.8
		h-9.9v-6.8C25.8,15.6,35.7,15.6,35.7,15.6z M22.6,25.5v9.6h-2.2l-3.5-9.6H22.6z M22.6,15.5v7h-6.8l-2.5-7H22.6z"/>
	<path d="M28.4,47.8c-4,0-7.3,3.1-7.3,6.9c0,3.9,3.2,6.9,7.3,6.9s7.3-3,7.3-6.9C35.7,50.8,32.5,47.8,28.4,47.8z M28.4,58.6
		c-2.3,0-4.2-1.7-4.2-3.9s1.8-3.9,4.2-3.9c2.3,0,4.2,1.8,4.2,3.9C32.5,56.9,30.7,58.6,28.4,58.6z"/>
	<path d="M52.2,47.8c-4.1,0-7.3,3-7.3,6.9c0,3.9,3.2,6.9,7.3,6.9s7.3-3,7.3-6.9C59.5,50.9,56.2,47.8,52.2,47.8z M52.2,50.8
		c2.3,0,4.2,1.7,4.2,3.9s-1.8,3.9-4.2,3.9S48,56.9,48,54.7S49.8,50.8,52.2,50.8z"/>
</g>
</svg>
