<?xml version="1.0" encoding="utf-8"?>
<!-- Generator: Adobe Illustrator 22.0.1, SVG Export Plug-In . SVG Version: 6.00 Build 0)  -->
<svg version="1.1" xmlns="http://www.w3.org/2000/svg" xmlns:xlink="http://www.w3.org/1999/xlink" x="0px" y="0px"
	 viewBox="0 0 64 64" style="enable-background:new 0 0 64 64;" xml:space="preserve">
<style type="text/css">
	.st0{fill:#231F20;}
	.st1{fill-rule:evenodd;clip-rule:evenodd;fill:#231F20;}
	.st2{fill:none;stroke:#000000;stroke-width:1.4;stroke-miterlimit:10;}
	.st3{fill:none;stroke:#231F20;stroke-width:2.2;stroke-miterlimit:10;}
	.st4{fill:none;stroke:#231F20;stroke-width:3;stroke-linecap:round;stroke-miterlimit:10;}
	.st5{fill:none;stroke:#231F20;stroke-width:2.2;stroke-linecap:round;stroke-linejoin:round;stroke-miterlimit:10;}
	.st6{fill:none;stroke:#000000;stroke-width:2.2;stroke-linecap:round;stroke-linejoin:round;stroke-miterlimit:10;}
	.st7{fill:none;stroke:#231F20;stroke-width:2.2;stroke-linecap:round;stroke-miterlimit:10;}
	.st8{fill:none;stroke:#000000;stroke-width:2.2;stroke-miterlimit:10;}
	.st9{fill:none;stroke:#000000;stroke-width:2;stroke-linecap:round;stroke-linejoin:round;stroke-miterlimit:10;}
	.st10{fill:none;stroke:#000000;stroke-width:1.8;stroke-linejoin:round;stroke-miterlimit:10;}
	
		.st11{fill-rule:evenodd;clip-rule:evenodd;fill:none;stroke:#000000;stroke-width:2.2;stroke-linecap:round;stroke-linejoin:round;stroke-miterlimit:10;}
	.st12{fill:#221F1F;}
	.st13{fill:none;stroke:#000000;stroke-width:1.8;stroke-miterlimit:10;}
	.st14{fill:none;stroke:#000000;stroke-width:1.7;stroke-linecap:round;stroke-linejoin:round;stroke-miterlimit:10;}
	.st15{fill:none;stroke:#000000;stroke-width:3;stroke-linecap:round;stroke-linejoin:round;stroke-miterlimit:10;}
	.st16{fill:none;stroke:#000000;stroke-width:1.8;stroke-linecap:round;stroke-linejoin:round;stroke-miterlimit:10;}
	.st17{fill:none;stroke:#000000;stroke-width:1.6;stroke-linecap:round;stroke-linejoin:round;stroke-miterlimit:10;}
	.st18{fill:none;stroke:#231F20;stroke-width:2;stroke-miterlimit:10;}
	.st19{fill:#0A1423;}
	.st20{fill:#F4831F;}
	.st21{fill:none;stroke:#000000;stroke-width:0.4736;stroke-miterlimit:10;}
	.st22{fill:none;stroke:#000000;stroke-width:0.431;stroke-miterlimit:10;}
	.st23{fill-rule:evenodd;clip-rule:evenodd;fill:none;stroke:#000000;stroke-width:0.6314;stroke-miterlimit:10;}
	.st24{fill-rule:evenodd;clip-rule:evenodd;fill:none;stroke:#231F20;stroke-width:0.4567;stroke-miterlimit:10;}
	.st25{fill-rule:evenodd;clip-rule:evenodd;fill:none;stroke:#231F20;stroke-width:0.2284;stroke-miterlimit:10;}
	.st26{fill:none;stroke:#000000;stroke-width:0.419;stroke-miterlimit:10;}
	.st27{fill:none;stroke:#000000;stroke-width:0.3813;stroke-miterlimit:10;}
	.st28{fill:#FFFFFF;stroke:#000000;stroke-width:0.419;stroke-miterlimit:10;}
	.st29{fill-rule:evenodd;clip-rule:evenodd;fill:none;stroke:#000000;stroke-width:0.5586;stroke-miterlimit:10;}
	.st30{fill-rule:evenodd;clip-rule:evenodd;fill:#FFFFFF;}
	.st31{fill-rule:evenodd;clip-rule:evenodd;fill:#FFFFFF;stroke:#231F20;stroke-width:0.2682;stroke-miterlimit:10;}
	.st32{fill-rule:evenodd;clip-rule:evenodd;}
	.st33{fill:none;stroke:#000000;stroke-width:2;stroke-miterlimit:10;}
	.st34{fill:#FFFFFF;}
	.st35{opacity:0.85;}
</style>
<g id="Layer_1">
	<g id="Behance_7_">
		<g id="Behance_1_">
			<path class="st0" d="M29.8,31.2c0.6-0.3,1.1-0.7,1.4-1c0.6-0.7,0.8-1.6,0.8-2.7c0-1.1-0.3-2-0.8-2.8c-0.9-1.3-2.5-1.9-4.8-1.9
				h-8.9v18.1h8.3c0.9,0,1.8-0.1,2.6-0.2c0.8-0.2,1.5-0.5,2.1-0.9c0.5-0.4,1-0.9,1.3-1.4c0.5-0.9,0.8-1.8,0.8-2.9
				c0-1-0.2-1.9-0.7-2.7C31.5,32,30.7,31.5,29.8,31.2z M21.2,25.9h4c0.9,0,1.6,0.1,2.2,0.3c0.7,0.3,1,0.8,1,1.7
				c0,0.8-0.2,1.3-0.7,1.6c-0.5,0.3-1.1,0.4-1.9,0.4h-4.5V25.9z M27.6,37.4c-0.4,0.2-1.1,0.3-1.9,0.3h-4.5v-4.8h4.5
				c0.8,0,1.4,0.1,1.8,0.3c0.8,0.4,1.2,1,1.2,1.9C28.8,36.3,28.4,37,27.6,37.4z"/>
			<rect x="36.6" y="23.6" class="st0" width="7.9" height="2.3"/>
			<path class="st0" d="M46.1,29.7c-0.6-0.9-1.4-1.6-2.3-2c-0.9-0.4-2-0.6-3.2-0.6c-2,0-3.6,0.6-4.9,1.9c-1.2,1.2-1.9,3-1.9,5.3
				c0,2.5,0.7,4.3,2.1,5.4c1.4,1.1,3,1.6,4.8,1.6c2.2,0,3.9-0.7,5.1-2c0.8-0.8,1.2-1.6,1.3-2.4h-3.6c-0.2,0.4-0.5,0.7-0.7,0.9
				c-0.5,0.4-1.2,0.6-2,0.6c-0.8,0-1.4-0.2-2-0.5c-0.9-0.5-1.4-1.5-1.4-2.8h9.9c0-1.2,0-2-0.1-2.7C47,31.5,46.6,30.5,46.1,29.7z
				 M37.5,32.9c0.1-0.9,0.4-1.6,0.9-2.1c0.5-0.5,1.2-0.8,2.1-0.8c0.8,0,1.5,0.2,2.1,0.7c0.6,0.5,0.9,1.2,0.9,2.1H37.5z"/>
		</g>
		<path class="st0" d="M32,64C14.4,64,0,49.6,0,32S14.4,0,32,0s32,14.4,32,32S49.6,64,32,64z M32,2.4C15.7,2.4,2.4,15.7,2.4,32
			S15.7,61.6,32,61.6S61.6,48.3,61.6,32S48.3,2.4,32,2.4z"/>
	</g>
</g>
<g id="Layer_2">
</g>
</svg>
