<?xml version="1.0" encoding="utf-8"?>
<!-- Generator: Adobe Illustrator 22.0.1, SVG Export Plug-In . SVG Version: 6.00 Build 0)  -->
<svg version="1.1" id="Layer_1" xmlns="http://www.w3.org/2000/svg" xmlns:xlink="http://www.w3.org/1999/xlink" x="0px" y="0px"
	 viewBox="0 0 64 64" style="enable-background:new 0 0 64 64;" xml:space="preserve">
<path d="M1.8,62.7c-1,0-1.8-0.8-1.8-1.8c0-11,5.6-21.1,15-27c0.8-0.5,1.9-0.3,2.4,0.6c0.5,0.8,0.3,1.9-0.6,2.4
	C8.5,42.2,3.5,51.1,3.5,61C3.5,61.9,2.7,62.7,1.8,62.7z M63.5,61c0-13.8-8.8-25.9-21.9-30.2c-0.6-0.3-1.3-0.3-1.9,0.1
	c-2.4,1.6-5.1,2.4-8,2.4c-7.9,0-14.4-6.5-14.4-14.4c0-7.9,6.5-14.4,14.4-14.4c7.9,0,14.4,6.5,14.4,14.4c0,2.6-0.7,5.1-2,7.3
	c-0.5,0.8-0.2,1.9,0.6,2.4c0.8,0.5,1.9,0.2,2.4-0.6c1.6-2.7,2.5-5.9,2.5-9.1c0-9.9-8-17.9-17.9-17.9S13.8,9.1,13.8,19
	s8,17.9,17.9,17.9c3.3,0,6.4-0.9,9.2-2.5C52.4,38.2,60,48.9,60,61c0,1,0.8,1.8,1.8,1.8C62.7,62.8,63.5,62,63.5,61z"/>
</svg>
