<?xml version="1.0" encoding="utf-8"?>
<!-- Generator: Adobe Illustrator 22.0.1, SVG Export Plug-In . SVG Version: 6.00 Build 0)  -->
<svg version="1.1" id="Layer_1" xmlns="http://www.w3.org/2000/svg" xmlns:xlink="http://www.w3.org/1999/xlink" x="0px" y="0px"
	 viewBox="0 0 64 64" style="enable-background:new 0 0 64 64;" xml:space="preserve">
<g id="Layer_1_1_">
</g>
<g>
	<path d="M41.6,2.7H22.4c-4.3,0-7.7,3.4-7.7,7.7v43.2c0,4.3,3.4,7.7,7.7,7.7h19.2c4.3,0,7.7-3.4,7.7-7.7V10.4
		C49.3,6.2,45.8,2.7,41.6,2.7z M17.5,49.7V13.4h28.8v36.3H17.5z M46.3,52.5v0.9c0,1.4-0.4,2.4-1.2,3.4c-0.9,0.9-2.2,1.5-3.5,1.5
		H22.4c-2.7,0-4.9-2.2-4.9-4.9v-0.9H46.3z M46.5,10.4H17.5c0-2.7,2.2-4.9,4.9-4.9h19.2C44.3,5.5,46.5,7.7,46.5,10.4z"/>
	<path d="M30.1,56.7h3.8c0.8,0,1.5-0.7,1.5-1.5s-0.7-1.5-1.5-1.5h-3.8c-0.8,0-1.5,0.7-1.5,1.5C28.6,56,29.3,56.7,30.1,56.7z"/>
</g>
</svg>
