<?xml version="1.0" encoding="utf-8"?>
<!-- Generator: Adobe Illustrator 22.0.1, SVG Export Plug-In . SVG Version: 6.00 Build 0)  -->
<svg version="1.1" id="Layer_1" xmlns="http://www.w3.org/2000/svg" xmlns:xlink="http://www.w3.org/1999/xlink" x="0px" y="0px"
	 viewBox="0 0 64 64" style="enable-background:new 0 0 64 64;" xml:space="preserve">
<g>
	<rect x="22" y="59.5" width="37.5" height="4.5"/>
	<polygon points="24.7,35.4 24.7,35.4 0.2,35.4 0.2,39.9 24.7,39.9 	"/>
	<rect x="0.2" y="59.5" width="17.2" height="4.5"/>
	<path d="M29.5,27.5l0.1,12l11.6-4.5L59.5,7.3L47.8-0.2L29.5,27.5z M37.8,31.4l-3.4,1.3v-3.6l0.9-1.3l3.4,2.2L37.8,31.4z M40.9,26.5
		l-3.5-2.2L46.1,11l3.5,2.2L40.9,26.5z M49.5,6l3.5,2.3l-1,1.5l-3.5-2.2L49.5,6z"/>
	<rect x="0.2" y="47.4" width="59.4" height="4.5"/>
</g>
</svg>
