<svg xmlns="http://www.w3.org/2000/svg" viewBox="0 0 512 512"><path d="M446 134h-47c1-6 1-12 1-18 0-79-64-144-144-144S112 36 112 116c0 6 1 12 1 18H67c-34 0-61 27-61 61v219c0 35 27 62 61 62h378c34 0 61-27 61-62V195c1-34-26-61-60-61zM340 305l139-92v182zM142 116C142 52 194 0 258 0c63 0 115 52 115 115 0 6-1 12-2 18-1 9-5 20-9 28-17 41-58 69-104 69-48 0-88-28-105-69-4-9-7-19-9-28-1-6-2-11-2-17zm-72 46h52c20 57 73 98 136 98 62 0 116-41 135-98h53c13 0 24 8 30 20L306 294l-48 31L39 181c5-11 17-19 31-19zm-34 51l130 86-130 95zm410 235H70c-14 0-26-9-31-20l152-111h1l66 43 56-37 163 106c-6 10-17 19-31 19zM258 130c7 0 14-7 14-15V51c0-7-6-14-14-14s-15 6-15 14v64c0 8 7 15 15 15zm0 59c8 0 16-7 16-16 0-5-2-9-5-11-3-4-7-5-11-5-5 0-9 1-12 5-3 3-4 6-4 11 0 8 7 16 16 16z"/></svg>