<svg xmlns="http://www.w3.org/2000/svg" viewBox="0 0 47.02 61.16"><title>locate</title><path d="M17.08,23.42c-.61-.65-1.21-1.28-1.78-1.93-1.5-1.7-3-3.38-4.48-5.14a10.18,10.18,0,0,1-2.35-5.63A8.71,8.71,0,0,1,15.79,1.5a8.6,8.6,0,0,1,9.93,8.06,6.65,6.65,0,0,1-.82,3.82A26.84,26.84,0,0,1,22.53,17c-1.62,2.05-3.35,4-5,6A5.15,5.15,0,0,1,17.08,23.42ZM17.14,6a4.28,4.28,0,0,0-.1,8.55,4.32,4.32,0,0,0,4.35-4.23A4.26,4.26,0,0,0,17.14,6Z" transform="translate(-8.44 -1.42)"/><path d="M46.76,62.45c-2.4-2.83-4.81-5.36-6.85-8.17a8.72,8.72,0,0,1,8.93-13.81A8.65,8.65,0,0,1,55.38,48a7.87,7.87,0,0,1-.81,4.25,7.08,7.08,0,0,1-.77,1.37C51.52,56.51,49.21,59.39,46.76,62.45Zm0-17.67A4.27,4.27,0,0,0,42.48,49a4.29,4.29,0,1,0,8.58.09A4.27,4.27,0,0,0,46.79,44.78Z" transform="translate(-8.44 -1.42)"/><path d="M28.54,60.53c-.8-.22-1.86-.48-2.89-.83A1.09,1.09,0,0,1,25,58.33a1.12,1.12,0,0,1,1.29-.84c1,.21,2,.47,2.93.77A1.12,1.12,0,0,1,30,59.58C29.85,60.16,29.4,60.53,28.54,60.53Z" transform="translate(-8.44 -1.42)"/><path d="M43.24,38.1c-.87,0-1.34-.37-1.46-.94a1.12,1.12,0,0,1,.66-1.3c1-.33,2-.62,3-.87a1.16,1.16,0,0,1,.74,2.16C45.12,37.55,44,37.85,43.24,38.1Z" transform="translate(-8.44 -1.42)"/><path d="M16.57,44.9a1.2,1.2,0,0,1-1.08-.76,1,1,0,0,1,.32-1.31A23.91,23.91,0,0,1,19,41.44a1,1,0,0,1,1.21.71,1.1,1.1,0,0,1-.43,1.39c-1,.48-1.95.89-2.93,1.33A.93.93,0,0,1,16.57,44.9Z" transform="translate(-8.44 -1.42)"/><path d="M35.16,61.86c-.74-.14-1.72-.29-2.68-.51A1.14,1.14,0,0,1,31.65,60a1.11,1.11,0,0,1,1.22-.94c1,.13,2,.3,3,.52a1.15,1.15,0,0,1,.82,1.32C36.56,61.5,36.07,61.88,35.16,61.86Z" transform="translate(-8.44 -1.42)"/><path d="M22.16,58.67C21.1,58.18,20,57.74,19,57.18a1.07,1.07,0,0,1-.25-1.42,1.15,1.15,0,0,1,1.41-.54c.91.34,1.8.72,2.69,1.12a1.12,1.12,0,0,1,.59,1.33C23.29,58.24,22.82,58.91,22.16,58.67Z" transform="translate(-8.44 -1.42)"/><path d="M36,23.66c-.32,0-.8,0-1.29-.07a1.16,1.16,0,0,1-1.14-1.23,1.14,1.14,0,0,1,1.26-1.11c.89,0,1.78.07,2.66.14a1.19,1.19,0,0,1,1.16,1.24,1.21,1.21,0,0,1-1.33,1.12C36.93,23.74,36.55,23.7,36,23.66Z" transform="translate(-8.44 -1.42)"/><path d="M55.27,27.61a4.52,4.52,0,0,1,.11,2.1c-.05.25-.1.48-.17.71a1.15,1.15,0,0,1-1.37.82,1.11,1.11,0,0,1-.9-1.3,4.24,4.24,0,0,0-.09-2.26,1.08,1.08,0,0,1,.7-1.32A1.13,1.13,0,0,1,55,26.9,6.09,6.09,0,0,1,55.27,27.61Z" transform="translate(-8.44 -1.42)"/><path d="M17.5,54.28c-.1.92-1.05,1.56-1.75,1a17.33,17.33,0,0,1-2.46-2.23,1.06,1.06,0,0,1,.17-1.53,1.17,1.17,0,0,1,1.6,0c.66.6,1.33,1.19,2,1.82A1.17,1.17,0,0,1,17.5,54.28Z" transform="translate(-8.44 -1.42)"/><path d="M32.06,38.12a1.24,1.24,0,0,1,1.37.91,1.1,1.1,0,0,1-.76,1.35,30.07,30.07,0,0,1-3,.61,1.08,1.08,0,0,1-1.23-.93,1.1,1.1,0,0,1,.73-1.31C30.2,38.49,31.22,38.3,32.06,38.12Z" transform="translate(-8.44 -1.42)"/><path d="M52.92,33.22a.83.83,0,0,1-.5.93c-.89.49-1.71,1.09-2.6,1.55a1.1,1.1,0,0,1-1.53-.56,1.17,1.17,0,0,1,.53-1.55c.73-.43,1.43-.92,2.2-1.28a1.72,1.72,0,0,1,1.24-.05C52.58,32.4,52.87,32.51,52.92,33.22Z" transform="translate(-8.44 -1.42)"/><path d="M25.37,39.53a1.29,1.29,0,0,1,1.39.9,1.11,1.11,0,0,1-.69,1.34c-1,.3-2,.55-3,.76a1.13,1.13,0,0,1-1.24-.86,1.08,1.08,0,0,1,.6-1.33C23.47,40,24.53,39.76,25.37,39.53Z" transform="translate(-8.44 -1.42)"/><path d="M50.77,26.22l-.47-.12L48,25.33a1.2,1.2,0,0,1-.9-1.49,1.15,1.15,0,0,1,1.48-.79,26.19,26.19,0,0,1,2.75.94A1.07,1.07,0,0,1,52,25.35,1.2,1.2,0,0,1,50.77,26.22Z" transform="translate(-8.44 -1.42)"/><path d="M36.56,39.65a1.26,1.26,0,0,1-1.4-.91,1.1,1.1,0,0,1,.75-1.35,30.19,30.19,0,0,1,3-.64,1.1,1.1,0,0,1,1.23.86A1.11,1.11,0,0,1,39.39,39C38.4,39.26,37.38,39.46,36.56,39.65Z" transform="translate(-8.44 -1.42)"/><path d="M41.87,21.79c.7.1,1.62.21,2.53.38a1.15,1.15,0,0,1,1,1.35,1.17,1.17,0,0,1-1.39,1c-.88-.1-1.77-.22-2.64-.36a1.14,1.14,0,0,1-1-1.3C40.44,22.18,41,21.76,41.87,21.79Z" transform="translate(-8.44 -1.42)"/><path d="M11.56,48.44a5.07,5.07,0,0,1,.82-2.7,1.21,1.21,0,0,1,1.71-.5A1.25,1.25,0,0,1,14.43,47a5.7,5.7,0,0,0-.49,1.6c-.12.93-.51,1.42-1.26,1.39S11.54,49.36,11.56,48.44Z" transform="translate(-8.44 -1.42)"/><path d="M29.31,23.41c-.47,0-.93,0-1.4,0a1.14,1.14,0,1,1,0-2.27c.95,0,1.91,0,2.86,0a1.15,1.15,0,0,1,0,2.29c-.47,0-.93,0-1.4,0Z" transform="translate(-8.44 -1.42)"/><path d="M23.27,23.49a8.24,8.24,0,0,1-.88,0,1.15,1.15,0,0,1-1.06-1.14,1.12,1.12,0,0,1,.94-1.17,9.21,9.21,0,0,1,1.82,0A1.12,1.12,0,0,1,25,22.25a1.15,1.15,0,0,1-.88,1.16A8.17,8.17,0,0,1,23.27,23.49Z" transform="translate(-8.44 -1.42)"/><path d="M40.43,62.57c-.22,0-.62-.06-1-.12a1.17,1.17,0,0,1-1-1.31,1.15,1.15,0,0,1,1.26-1,11,11,0,0,1,1.14.12c.9.12,1.36.62,1.27,1.37S41.48,62.63,40.43,62.57Z" transform="translate(-8.44 -1.42)"/></svg>