<?xml version="1.0" encoding="utf-8"?>
<!-- Generator: Adobe Illustrator 23.0.1, SVG Export Plug-In . SVG Version: 6.00 Build 0)  -->
<svg version="1.1" id="Capa_1" xmlns="http://www.w3.org/2000/svg" xmlns:xlink="http://www.w3.org/1999/xlink" x="0px" y="0px"
	 viewBox="0 0 64 64" style="enable-background:new 0 0 64 64;" xml:space="preserve">
<g>
	<g>
		<g>
			<rect x="19.5" y="35.1" width="2.1" height="2.1"/>
		</g>
	</g>
	<g>
		<g>
			<rect x="19.5" y="43.5" width="2.1" height="2.1"/>
		</g>
	</g>
	<g>
		<g>
			<rect x="19.5" y="26.8" width="2.1" height="2.1"/>
		</g>
	</g>
	<g>
		<g>
			<rect x="19.5" y="18.5" width="2.1" height="2.1"/>
		</g>
	</g>
	<g>
		<g>
			<rect x="4.9" y="18.5" width="2.1" height="2.1"/>
		</g>
	</g>
	<g>
		<g>
			<rect x="57" y="18.5" width="2.1" height="2.1"/>
		</g>
	</g>
	<g>
		<g>
			<rect x="57" y="43.5" width="2.1" height="2.1"/>
		</g>
	</g>
	<g>
		<g>
			<rect x="4.9" y="43.5" width="2.1" height="2.1"/>
		</g>
	</g>
	<g>
		<g>
			<path d="M62.2,26.8c0.6,0,1-0.5,1-1V15.3c0-0.6-0.5-1-1-1H1.8c-0.6,0-1,0.5-1,1v10.4c0,0.6,0.5,1,1,1C4.7,26.8,7,29.1,7,32
				s-2.3,5.2-5.2,5.2c-0.6,0-1,0.5-1,1v10.4c0,0.6,0.5,1,1,1h60.4c0.6,0,1-0.5,1-1V38.2c0-0.6-0.5-1-1-1c-2.9,0-5.2-2.3-5.2-5.2
				S59.3,26.8,62.2,26.8z M55,33c0.5,3.2,3,5.7,6.2,6.2v8.4H2.8v-8.4c4-0.6,6.8-4.3,6.2-8.3c-0.5-3.2-3-5.7-6.2-6.2v-8.4h58.3v8.4
				C57.2,25.4,54.4,29.1,55,33z"/>
		</g>
	</g>
	<g>
		<g>
			<path d="M32,21.6c-2.3,0-4.2,1.9-4.2,4.2s1.9,4.2,4.2,4.2s4.2-1.9,4.2-4.2S34.3,21.6,32,21.6z M32,27.8c-1.2,0-2.1-0.9-2.1-2.1
				s0.9-2.1,2.1-2.1c1.2,0,2.1,0.9,2.1,2.1S33.2,27.8,32,27.8z"/>
		</g>
	</g>
	<g>
		<g>
			<path d="M44.5,34.1c-2.3,0-4.2,1.9-4.2,4.2c0,2.3,1.9,4.2,4.2,4.2c2.3,0,4.2-1.9,4.2-4.2C48.7,35.9,46.8,34.1,44.5,34.1z
				 M44.5,40.3c-1.2,0-2.1-0.9-2.1-2.1s0.9-2.1,2.1-2.1c1.2,0,2.1,0.9,2.1,2.1S45.6,40.3,44.5,40.3z"/>
		</g>
	</g>
	<g>
		<g>
			<g>
				<path d="M30.7,41.1c-0.4,0-0.8-0.2-1.1-0.5c-0.3-0.3-0.5-0.7-0.5-1.1c0-0.4,0.2-0.8,0.5-1.1l15.2-15.2c0.6-0.6,1.6-0.6,2.2,0
					c0.6,0.6,0.6,1.6,0,2.2L31.7,40.7C31.5,41,31.1,41.1,30.7,41.1z"/>
			</g>
		</g>
	</g>
</g>
</svg>
