<?xml version="1.0" encoding="utf-8"?>
<!-- Generator: Adobe Illustrator 22.0.1, SVG Export Plug-In . SVG Version: 6.00 Build 0)  -->
<svg version="1.1" id="Layer_1" xmlns="http://www.w3.org/2000/svg" xmlns:xlink="http://www.w3.org/1999/xlink" x="0px" y="0px"
	 viewBox="0 0 64 64" style="enable-background:new 0 0 64 64;" xml:space="preserve">
<style type="text/css">
	.st0{fill:#231F20;}
</style>
<g>
	<path class="st0" d="M32,0C14.4,0,0,14.4,0,32s14.4,32,32,32s32-14.4,32-32S49.6,0,32,0z M32,61.6C15.7,61.6,2.4,48.3,2.4,32
		S15.7,2.4,32,2.4S61.6,15.7,61.6,32S48.3,61.6,32,61.6z"/>
	<path class="st0" d="M43.2,13.6H26.6c-0.3,0-0.6,0.1-0.8,0.4L20,20.6c-0.2,0.2-0.3,0.5-0.3,0.7v28c0,0.6,0.5,1.1,1.1,1.1h22.4
		c0.6,0,1.1-0.5,1.1-1.1V14.7C44.3,14.1,43.8,13.6,43.2,13.6z M42.1,48.2H21.9V21.7l5.2-5.9h15V48.2z"/>
	<path class="st0" d="M23.4,33.3V46c0,0.6,0.5,1.1,1.1,1.1h15.1c0.6,0,1.1-0.5,1.1-1.1V33.3c0-0.6-0.5-1.1-1.1-1.1H24.5
		C23.9,32.2,23.4,32.7,23.4,33.3z M25.6,34.4h12.9v10.5H25.6V34.4z"/>
</g>
<g id="Layer_2_1_">
</g>
</svg>
