<?xml version="1.0" encoding="utf-8"?>
<!-- Generator: Adobe Illustrator 22.0.1, SVG Export Plug-In . SVG Version: 6.00 Build 0)  -->
<svg version="1.1" xmlns="http://www.w3.org/2000/svg" xmlns:xlink="http://www.w3.org/1999/xlink" x="0px" y="0px"
	 viewBox="0 0 64 64" style="enable-background:new 0 0 64 64;" xml:space="preserve">
<style type="text/css">
	.st0{fill:#231F20;}
	.st1{fill-rule:evenodd;clip-rule:evenodd;fill:#231F20;}
	.st2{fill:none;stroke:#000000;stroke-width:1.4;stroke-miterlimit:10;}
	.st3{fill:none;stroke:#231F20;stroke-width:2.2;stroke-miterlimit:10;}
	.st4{fill:none;stroke:#231F20;stroke-width:3;stroke-linecap:round;stroke-miterlimit:10;}
	.st5{fill:none;stroke:#231F20;stroke-width:2.2;stroke-linecap:round;stroke-linejoin:round;stroke-miterlimit:10;}
	.st6{fill:none;stroke:#000000;stroke-width:2.2;stroke-linecap:round;stroke-linejoin:round;stroke-miterlimit:10;}
	.st7{fill:none;stroke:#231F20;stroke-width:2.2;stroke-linecap:round;stroke-miterlimit:10;}
	.st8{fill:none;stroke:#000000;stroke-width:2.2;stroke-miterlimit:10;}
	.st9{fill:none;stroke:#000000;stroke-width:2;stroke-linecap:round;stroke-linejoin:round;stroke-miterlimit:10;}
	.st10{fill:none;stroke:#000000;stroke-width:1.8;stroke-linejoin:round;stroke-miterlimit:10;}
	
		.st11{fill-rule:evenodd;clip-rule:evenodd;fill:none;stroke:#000000;stroke-width:2.2;stroke-linecap:round;stroke-linejoin:round;stroke-miterlimit:10;}
	.st12{fill:#221F1F;}
	.st13{fill:none;stroke:#000000;stroke-width:1.8;stroke-miterlimit:10;}
	.st14{fill:none;stroke:#000000;stroke-width:1.7;stroke-linecap:round;stroke-linejoin:round;stroke-miterlimit:10;}
	.st15{fill:none;stroke:#000000;stroke-width:3;stroke-linecap:round;stroke-linejoin:round;stroke-miterlimit:10;}
	.st16{fill:none;stroke:#000000;stroke-width:1.8;stroke-linecap:round;stroke-linejoin:round;stroke-miterlimit:10;}
	.st17{fill:none;stroke:#000000;stroke-width:1.6;stroke-linecap:round;stroke-linejoin:round;stroke-miterlimit:10;}
	.st18{fill:none;stroke:#231F20;stroke-width:2;stroke-miterlimit:10;}
	.st19{fill:#0A1423;}
	.st20{fill:#F4831F;}
	.st21{fill:none;stroke:#000000;stroke-width:0.4736;stroke-miterlimit:10;}
	.st22{fill:none;stroke:#000000;stroke-width:0.431;stroke-miterlimit:10;}
	.st23{fill-rule:evenodd;clip-rule:evenodd;fill:none;stroke:#000000;stroke-width:0.6314;stroke-miterlimit:10;}
	.st24{fill-rule:evenodd;clip-rule:evenodd;fill:none;stroke:#231F20;stroke-width:0.4567;stroke-miterlimit:10;}
	.st25{fill-rule:evenodd;clip-rule:evenodd;fill:none;stroke:#231F20;stroke-width:0.2284;stroke-miterlimit:10;}
	.st26{fill:none;stroke:#000000;stroke-width:0.419;stroke-miterlimit:10;}
	.st27{fill:none;stroke:#000000;stroke-width:0.3813;stroke-miterlimit:10;}
	.st28{fill:#FFFFFF;stroke:#000000;stroke-width:0.419;stroke-miterlimit:10;}
	.st29{fill-rule:evenodd;clip-rule:evenodd;fill:none;stroke:#000000;stroke-width:0.5586;stroke-miterlimit:10;}
	.st30{fill-rule:evenodd;clip-rule:evenodd;fill:#FFFFFF;}
	.st31{fill-rule:evenodd;clip-rule:evenodd;fill:#FFFFFF;stroke:#231F20;stroke-width:0.2682;stroke-miterlimit:10;}
	.st32{fill-rule:evenodd;clip-rule:evenodd;}
	.st33{fill:none;stroke:#000000;stroke-width:2;stroke-miterlimit:10;}
	.st34{fill:#FFFFFF;}
	.st35{opacity:0.85;}
</style>
<g id="Layer_1">
	<g id="Behance">
		<path class="st0" d="M29.4,31.9c0.9-0.5,1.6-1,2.1-1.5c0.8-1,1.3-2.3,1.3-3.9c0-1.6-0.4-3-1.2-4.1c-1.4-1.9-3.7-2.8-7-2.9H11.3
			v26.8h12.2c1.4,0,2.7-0.1,3.8-0.4c1.2-0.2,2.2-0.7,3.1-1.3c0.8-0.6,1.4-1.3,1.9-2.1c0.8-1.3,1.2-2.7,1.2-4.3
			c0-1.5-0.4-2.9-1.1-3.9C31.8,33.2,30.7,32.4,29.4,31.9z M16.7,24.1h5.9c1.3,0,2.4,0.1,3.2,0.4c1,0.4,1.5,1.2,1.5,2.5
			c0,1.1-0.4,1.9-1.1,2.4c-0.7,0.4-1.7,0.7-2.9,0.7h-6.6V24.1z M26,41.1c-0.7,0.3-1.6,0.5-2.8,0.5h-6.6v-7.1h6.7
			c1.2,0,2.1,0.2,2.7,0.5c1.2,0.5,1.7,1.5,1.7,2.9C27.8,39.4,27.2,40.5,26,41.1z"/>
		<rect x="39.4" y="20.7" class="st0" width="11.6" height="3.3"/>
		<path class="st0" d="M53.4,29.8c-0.9-1.3-2.1-2.3-3.5-2.9c-1.4-0.6-3-0.9-4.7-0.9c-2.9,0-5.3,0.9-7.2,2.7
			c-1.8,1.8-2.8,4.5-2.8,7.9c0,3.7,1,6.3,3.1,7.9c2,1.6,4.4,2.4,7.1,2.4c3.2,0,5.8-1,7.6-2.9c1.2-1.2,1.8-2.4,1.9-3.6h-5.4
			c-0.3,0.6-0.7,1-1.1,1.4c-0.7,0.6-1.7,0.9-2.9,0.9c-1.1,0-2.1-0.2-2.9-0.7c-1.3-0.8-2-2.2-2.1-4.2h14.6c0-1.7,0-3-0.2-3.9
			C54.8,32.3,54.3,30.9,53.4,29.8z M40.7,34.4c0.2-1.3,0.7-2.3,1.4-3.1c0.7-0.8,1.8-1.1,3.1-1.1c1.2,0,2.3,0.4,3.1,1.1
			c0.8,0.7,1.3,1.8,1.4,3.1H40.7z"/>
	</g>
</g>
<g id="Layer_2">
</g>
</svg>
