<?xml version="1.0" encoding="UTF-8"?>
<svg width="20px" height="19px" viewBox="0 0 20 19" version="1.1" xmlns="http://www.w3.org/2000/svg" xmlns:xlink="http://www.w3.org/1999/xlink">
    <!-- Generator: Sketch 53.2 (72643) - https://sketchapp.com -->
    <title>Combined Shape</title>
    <desc>Created with Sketch.</desc>
    <g id="1.-Dashboard" stroke="none" stroke-width="1" fill="none" fill-rule="evenodd">
        <g id="Artboard" transform="translate(-1345.000000, -250.000000)" fill="#8E8E8E" fill-rule="nonzero">
            <g id="noun_text_696477" transform="translate(1344.851679, 250.000000)">
                <path d="M7.76464739,6.11923641 C7.8547937,6.10183868 7.94650563,6.09292234 8.03867448,6.09292234 L9.21189331,6.09292234 L9.21189331,3.46647391 L12.8701716,3.46647391 L13.7428759,4.3518791 C13.8837883,4.49542102 14.0686083,4.56684692 14.254109,4.56684692 C14.438929,4.56684692 14.6244297,4.49542102 14.7653422,4.3525692 C15.0478479,4.06617548 15.0478479,3.60173456 14.7653422,3.31534083 L13.6809288,2.21496782 C13.614557,2.14768255 13.5338897,2.09350928 13.4457344,2.05658864 C13.357579,2.019668 13.2636373,2 13.1696957,2 L3.80888723,2 C3.71460521,2 3.62066357,2.019668 3.53216782,2.05658864 C3.44367206,2.09350928 3.36334515,2.14768255 3.29697333,2.21496782 L2.21187925,3.31534083 C1.92937358,3.60173456 1.92937358,4.06548537 2.21187925,4.3518791 C2.35279172,4.49542102 2.5376117,4.56684692 2.72311241,4.56684692 C2.90861313,4.56684692 3.0934331,4.49542102 3.23434557,4.3518791 L4.10773058,3.46647391 L7.76464739,3.46647391 L7.76464739,6.11923641 Z M7.76464739,9.91450309 L7.76464739,11.6568587 L5.82036018,11.6568587 L5.82036018,13.1233327 L11.2444346,13.1233327 L11.2444346,11.6568587 L9.21189331,11.6568587 L9.21189331,9.05939625 L8.65118405,9.05939625 L7.99934232,9.7202068 C7.92710786,9.79378917 7.84840019,9.85869867 7.76464739,9.91450309 Z M10.7118933,6.09292234 L17.3994829,6.09292234 C17.5934574,6.09292234 17.7857511,6.13255599 17.9652479,6.20773163 C18.1446557,6.28286997 18.3083849,6.39304804 18.4449059,6.53144814 L19.5290715,7.63156985 C20.0996544,8.21000554 20.0996544,9.14374918 19.5290715,9.72218487 C19.2497237,10.0053772 18.8732141,10.1597693 18.4838963,10.1597693 C18.093321,10.1597693 17.7169357,10.0049041 17.4385158,9.72128658 L16.7861201,9.05939625 L14.1916806,9.05939625 L14.1916806,15.7497811 L15.5231542,15.7497811 C15.9373678,15.7497811 16.2731542,16.0855675 16.2731542,16.4997811 L16.2731542,17.966255 C16.2731542,18.3804686 15.9373678,18.716255 15.5231542,18.716255 L10.0501474,18.716255 C9.63593387,18.716255 9.30014743,18.3804686 9.30014743,17.966255 L9.30014743,16.4997811 C9.30014743,16.0855675 9.63593387,15.7497811 10.0501474,15.7497811 L11.2444346,15.7497811 L11.2444346,14.6233327 L5.82036018,14.6233327 C4.99193305,14.6233327 4.32036018,13.9517598 4.32036018,13.1233327 L4.32036018,11.6568587 C4.32036018,10.8284316 4.99193305,10.1568587 5.82036018,10.1568587 L6.26464739,10.1568587 L6.26464739,9.98843197 C6.13447868,9.91916739 6.01394638,9.82970002 5.90772443,9.72149477 C5.33714152,9.14305907 5.33714152,8.21000554 5.90764185,7.63165358 L6.26464739,7.26962114 L6.26464739,4.96647391 L4.73506147,4.96647391 L4.30476457,5.40268981 C3.88290935,5.83241692 3.31314918,6.06684692 2.72311241,6.06684692 C2.13307564,6.06684692 1.56331547,5.83241692 1.1439951,5.40526575 C0.285334965,4.53478809 0.285334965,3.13243185 1.14382995,2.26212164 L2.22908918,1.16158117 C2.43573171,0.952094668 2.68287134,0.785607912 2.95461291,0.672236687 C3.22448304,0.559646231 3.51440578,0.5 3.80888723,0.5 L13.1696957,0.5 C13.4644446,0.5 13.7550673,0.559900243 14.025187,0.673029946 C14.2956306,0.786295281 14.5424768,0.952405179 14.7493085,1.16208377 L15.8332263,2.26195418 C16.6918865,3.13243185 16.6918865,4.53547819 15.8332263,5.40595586 C15.4115997,5.83338527 14.8422662,6.06684692 14.254109,6.06684692 C13.6640723,6.06684692 13.0943121,5.83241692 12.6745812,5.40484938 L12.2424941,4.96647391 L10.7118933,4.96647391 L10.7118933,6.09292234 Z M10.7118933,9.05939625 L10.7118933,10.1568587 L11.2444346,10.1568587 L11.2444346,9.05939625 L10.7118933,9.05939625 Z" id="Combined-Shape"></path>
            </g>
        </g>
    </g>
</svg>