<svg xmlns="http://www.w3.org/2000/svg" viewBox="0 0 64 64"><circle cx="35.49" cy="6.26" r="6.26"/><circle cx="16.84" cy="37.52" r="2.28"/><circle cx="48.88" cy="34.66" r="2.32"/><circle cx="15.66" cy="61.06" r="2.85"/><circle cx="43.8" cy="60.72" r="3.28"/><path d="M14.76,36,16,26.47s.17-2.4,1.11-3.06,8.84-7.31,8.84-7.31a5.67,5.67,0,0,1,3.47-1.18h3.23A2.88,2.88,0,0,1,35,16.23c.77,1.14,5.79,11.94,5.79,11.94l9.3,4.52-2.41,4-8.69-4a5.12,5.12,0,0,1-2-1.82c-.9-1.35-1.91-2.6-1.91-2.6l-2,8.57L46.77,59.31,41,62.51,25.33,38.43a6.92,6.92,0,0,1-1.24-4.19c0-2.61,1.9-10.93,1.9-10.93l-5.16,4L19.12,37.7l-4.56-.28Z"/><path d="M23.2,40.84,27.78,47a.14.14,0,0,1,0,.11,23,23,0,0,1-2.65,6.36c-1.5,2.09-6.39,8.22-7,9.06a.14.14,0,0,1-.18,0l-4.47-3a.12.12,0,0,1,0-.18l6-8.45h0A10.47,10.47,0,0,0,20.88,48c.67-2,1.8-6.08,2.09-7.14A.13.13,0,0,1,23.2,40.84Z"/></svg>