<svg xmlns="http://www.w3.org/2000/svg" viewBox="0 0 64 64"><path d="M22.58,60a5.85,5.85,0,0,1-3-1.93Q12.67,51,5.69,44.09a4,4,0,0,1,0-6.05Q19.09,24.86,32.44,11.67a6.52,6.52,0,0,1,3.24-2.1,11.09,11.09,0,0,1,2.06-.22c3.36,0,6.71.1,10.07.18a6.63,6.63,0,0,1,3,.74.5.5,0,0,0,.7-.13C53.37,8.31,55.19,6.5,57,4.68a1.48,1.48,0,0,1,2.22-.22,1.65,1.65,0,0,1-.11,2.36q-2.7,2.75-5.45,5.45a.65.65,0,0,0-.18.88,11.83,11.83,0,0,1,.81,4.32c.15,2.72.31,5.43.43,8.14a18.58,18.58,0,0,1-.11,2.89,5.7,5.7,0,0,1-1.71,3.41Q39.49,45.34,26.06,58.77A5.24,5.24,0,0,1,23.89,60ZM12.17,35.68c-1.58,1.59-3.16,3.13-4.7,4.71C7,40.9,7,41.35,7.63,42l14.7,14.7a1.14,1.14,0,0,0,1.77,0c.84-.83,1.67-1.68,2.51-2.51l2-2c-1.06-1.32-1.23-1.93-.61-2.55,1-1.05,1.9-.37,2.72.5.18-.21.29-.37.43-.52C37.58,43.1,44,36.6,50.43,30.16a5.7,5.7,0,0,0,1.7-4.54c-.12-2.84-.28-5.68-.46-8.52-.05-.77-.23-1.54-.37-2.46-.92.93-1.7,1.74-2.52,2.51-.38.36-.61.67-.25,1.18a1.59,1.59,0,0,1,.2.73,4.45,4.45,0,0,1-2.24,4.46,4.54,4.54,0,0,1-5-.47,4.36,4.36,0,0,1-1.41-4.78A4.29,4.29,0,0,1,45.7,15.5c.2.06.53.11.64,0,.95-.9,1.86-1.84,2.89-2.87a11.05,11.05,0,0,0-1.59-.31c-3.46-.09-6.92-.15-10.39-.21a3.85,3.85,0,0,0-3,1.24q-9.88,9.91-19.8,19.81l-.41.43c.87,1,1,1.81.35,2.42S13.18,36.51,12.17,35.68ZM45.63,20.05c-.83.56-1.35.64-1.9.22-.77-.61-.68-1.41-.34-2.27a1.73,1.73,0,0,0-.14,2.42A1.65,1.65,0,0,0,45.63,20.05Z"/><path d="M17,36.73a3.66,3.66,0,0,1,.86.5c1,1,1.86,2,2.77,3a1.42,1.42,0,0,1,0,2,1.37,1.37,0,0,1-2-.13c-1-1-1.91-1.91-2.86-2.87a1.37,1.37,0,0,1-.28-1.61A1.51,1.51,0,0,1,17,36.73Z"/><path d="M27.18,47.18a1.44,1.44,0,0,1-.77,1.39,1.24,1.24,0,0,1-1.47-.19q-1.57-1.52-3.08-3.09a1.43,1.43,0,0,1,2.07-2c1,1,1.94,2,2.87,3.07A2.51,2.51,0,0,1,27.18,47.18Z"/><path class="b" d="M32.94,31.7c1,2.27,1.37,3.69-.11,5.16s-3.37,1.18-4.94-.14l-1.12,1.11-.46-.47,1.1-1.1a8.81,8.81,0,0,1-1.94-2.55c-.12-.25,0-.43.27-.73l1.82-1.81.45.45-1,1.63a.86.86,0,0,0-.11.88A6.73,6.73,0,0,0,28,35.74l3.56-3.55c-1-2.24-1.19-3.51.25-4.94s3-1.32,4.68,0l1.13-1.12.46.47-1.1,1.1a8.84,8.84,0,0,1,1.6,2c.11.24,0,.4-.16.59L36.7,32l-.44-.44.82-1.33a.75.75,0,0,0,.1-.8,4.65,4.65,0,0,0-.77-1.19Zm3-3.9A2,2,0,0,0,33,28c-.9.89-.91,1.75-.35,3.1Zm-7.51,8.39a2.13,2.13,0,0,0,3.2-.11c.83-.82.89-1.69.21-3.28Z"/></svg>