<?xml version="1.0" encoding="utf-8"?>
<!-- Generator: Adobe Illustrator 22.0.1, SVG Export Plug-In . SVG Version: 6.00 Build 0)  -->
<svg version="1.1" id="Layer_1" xmlns="http://www.w3.org/2000/svg" xmlns:xlink="http://www.w3.org/1999/xlink" x="0px" y="0px"
	 viewBox="0 0 64 64" style="enable-background:new 0 0 64 64;" xml:space="preserve">
<g>
	<path d="M42.3,9c0.1,0.1,0.4,0.1,0.6,0.1c0.5,0,1-0.3,1.2-0.8c0.3-0.7,0-1.5-0.7-1.8c-0.7-0.3-1.5,0-1.8,0.7
		C41.3,7.8,41.6,8.7,42.3,9z"/>
	<path d="M37.4,7.4c0.1,0,0.2,0,0.3,0c0.6,0,1.2-0.4,1.3-1.1c0.1-0.7-0.3-1.5-1.1-1.6c-0.7-0.1-1.4,0.3-1.6,1.1
		C36.2,6.5,36.6,7.2,37.4,7.4z"/>
	<path d="M46.8,11.6c0.2,0.1,0.5,0.3,0.8,0.3c0.4,0,0.9-0.2,1.1-0.6c0.4-0.7,0.3-1.5-0.3-1.9c-0.7-0.4-1.4-0.3-1.9,0.3
		C46,10.3,46.2,11.1,46.8,11.6z"/>
	<path d="M54.9,20c0.2,0,0.5-0.1,0.7-0.2c0.6-0.4,0.9-1.2,0.5-1.9c-0.4-0.7-1.2-0.9-1.9-0.5c-0.6,0.4-0.9,1.2-0.5,1.9
		C54,19.7,54.5,20,54.9,20z"/>
	<path d="M51.7,15.5c0.4,0,0.7-0.1,0.9-0.4c0.6-0.5,0.6-1.4,0.1-2c-0.5-0.6-1.4-0.6-2-0.1c-0.6,0.5-0.6,1.4-0.1,2
		C51,15.4,51.3,15.5,51.7,15.5z"/>
	<path d="M55.9,24c0.2,0.6,0.7,1,1.3,1c0.1,0,0.3,0,0.4-0.1c0.7-0.2,1.1-1,0.9-1.8c-0.2-0.7-1-1.1-1.7-0.9
		C56.1,22.5,55.7,23.4,55.9,24z"/>
	<path d="M8.8,40.9c-0.3-0.7-1-1.1-1.7-0.8c-0.7,0.3-1.1,1-0.8,1.8c0.2,0.6,0.7,0.9,1.3,0.9c0.1,0,0.3,0,0.5-0.1
		C8.7,42.3,9.1,41.5,8.8,40.9z"/>
	<path d="M27.8,57c-0.7-0.1-1.4,0.4-1.6,1.1c-0.1,0.7,0.4,1.5,1.1,1.6c0.1,0,0.1,0,0.2,0c0.7,0,1.2-0.4,1.4-1.2
		C29,57.9,28.5,57.1,27.8,57z"/>
	<path d="M64,32.6l-4.6-4.7c-0.5-0.5-1.4-0.5-2,0l-4.6,4.7c-0.5,0.5-0.5,1.4,0,2c0.3,0.3,0.7,0.4,0.9,0.4s0.7-0.1,0.9-0.4l2.3-2.3
		c0,13.9-11.2,25.3-25,25.3c-0.7,0-1.4,0.6-1.4,1.4c0,0.8,0.6,1.4,1.4,1.4c15.3,0,27.7-12.5,27.7-28l2.2,2.3
		c0.3,0.3,0.6,0.4,0.9,0.4c0.3,0,0.7-0.1,0.9-0.4C64.5,34,64.5,33.1,64,32.6z"/>
	<path d="M9.2,45.1c-0.7,0.4-0.9,1.2-0.4,1.9c0.3,0.4,0.7,0.7,1.2,0.7c0.2,0,0.5-0.1,0.7-0.2c0.6-0.4,0.8-1.2,0.4-1.9
		C10.7,44.9,9.9,44.7,9.2,45.1z"/>
	<path d="M22.8,55.5c-0.7-0.3-1.5,0.1-1.8,0.7c-0.3,0.7,0.1,1.5,0.7,1.8c0.1,0.1,0.4,0.1,0.5,0.1c0.5,0,1.1-0.3,1.2-0.9
		C23.8,56.6,23.5,55.8,22.8,55.5z"/>
	<path d="M16.4,53.4c-0.4,0.7-0.3,1.5,0.4,1.9c0.2,0.1,0.5,0.2,0.8,0.2c0.4,0,0.9-0.2,1.2-0.6c0.4-0.6,0.1-1.5-0.4-1.9
		C17.6,52.6,16.8,52.8,16.4,53.4z"/>
	<path d="M12.3,49.7c-0.6,0.5-0.6,1.4-0.1,2c0.3,0.3,0.7,0.4,1,0.4c0.4,0,0.6-0.1,0.9-0.4c0.6-0.5,0.6-1.4,0-2
		C13.8,49.2,12.9,49.1,12.3,49.7z"/>
	<path d="M33.6,5.8c0.1-0.1,0.1-0.2,0.1-0.4C33.7,4.6,33,4,32.3,4C17,4,4.6,16.5,4.6,32l-2.2-2.3c-0.6-0.5-1.4-0.5-2,0
		c-0.5,0.6-0.5,1.5,0,2L5,36.4c0.2,0.3,0.7,0.4,0.9,0.4c0.3,0,0.7-0.1,0.9-0.4l4.6-4.7c0.6-0.5,0.6-1.4,0.1-2c-0.6-0.5-1.4-0.5-2,0
		l-2.3,2.3c0-13.9,11.2-25.3,25-25.3C32.9,6.8,33.4,6.3,33.6,5.8z"/>
</g>
</svg>
