<svg xmlns="http://www.w3.org/2000/svg" viewBox="0 0 64 64"><path d="M53.28,32A20.22,20.22,0,1,1,33.11,11.77,20.21,20.21,0,0,1,53.28,32Zm-3.81,0A16.42,16.42,0,1,0,33,48.44,16.4,16.4,0,0,0,49.47,32Z"/><path d="M7.66,28.34V47.81a2.36,2.36,0,0,1-1,2.14c-.79.54-2.51.29-2.76-1a9.61,9.61,0,0,1-.26-1.75c0-6,0-12,0-18a1.18,1.18,0,0,0-.91-1.29,2.2,2.2,0,0,1-1.56-2.16q0-5.55,0-11.11c0-.48.12-.85.69-.84s.74.35.73.88c0,2.43,0,4.86,0,7.29,0,.34-.11.74.48.74s.54-.37.54-.73c0-2.34,0-4.68,0-7a1.59,1.59,0,0,1,.31-1,.83.83,0,0,1,.76-.13.81.81,0,0,1,.31.64c0,2.19,0,4.37,0,6.56A2.88,2.88,0,0,0,5,22c.11.27.38.62.64.67s.6-.25.6-.68q0-3.69,0-7.36c0-.36-.09-.8.49-.84s.86.31.87,1c0,2.1,0,4.2,0,6.29,0,.34,0,.67,0,1s.1.63.57.62.48-.28.48-.62c0-2.5,0-5,0-7.49,0-.52.16-.83.72-.79a.65.65,0,0,1,.67.74c0,3.81,0,7.63,0,11.44A2.21,2.21,0,0,1,8.7,27.87C8.37,28,8,28.17,7.66,28.34Z"/><path d="M57,35.74c0-.3-.07-.58-.07-.86,0-5.75,0-11.5,0-17.25a6.26,6.26,0,0,1,.41-2.37A2.82,2.82,0,0,1,61,14a3,3,0,0,1,1.81,3q0,15.48,0,31A2,2,0,0,1,61,50.19a2,2,0,0,1-2-1.88c0-3.68,0-7.36,0-11,0-1.7.22-1.49-1.49-1.5C57.34,35.78,57.19,35.76,57,35.74Z"/><path d="M31.54,26q0-3.11,0-6.22A1.66,1.66,0,0,1,33,18c.73-.11,1.73.84,1.76,1.71s0,1.56,0,2.34q0,4.15,0,8.3a1,1,0,0,0,.65,1.06c1.7.8,3.32,1.74,5,2.63a1.62,1.62,0,0,1,.78,1.89,1.53,1.53,0,0,1-2,1c-1.1-.49-2.19-1-3.27-1.58S33.54,34,32.33,33.41a1.19,1.19,0,0,1-.8-1.25c0-2,0-4.1,0-6.16Z"/></svg>