<?xml version="1.0" encoding="utf-8"?>
<!-- Generator: Adobe Illustrator 22.0.1, SVG Export Plug-In . SVG Version: 6.00 Build 0)  -->
<svg version="1.1" id="Layer_1" xmlns="http://www.w3.org/2000/svg" xmlns:xlink="http://www.w3.org/1999/xlink" x="0px" y="0px"
	 viewBox="0 0 64 64" style="enable-background:new 0 0 64 64;" xml:space="preserve">
<g>
	<path d="M32,0C14.4,0,0,14.4,0,32s14.4,32,32,32s32-14.4,32-32S49.6,0,32,0z M32,61.6C15.7,61.6,2.4,48.3,2.4,32S15.7,2.4,32,2.4
		S61.6,15.7,61.6,32S48.3,61.6,32,61.6z"/>
	<path d="M53,43c0-1-0.8-1.8-1.8-1.8h-3.9v-1.7h4.5c0.7,0,1.3-0.6,1.3-1.3c-0.2-11.5-8.9-20.6-20-21.1v-0.6h2.7
		c0.6,0,1.1-0.5,1.1-1.1s-0.5-1.1-1.1-1.1h-7.6c-0.6,0-1.1,0.5-1.1,1.1s0.5,1.1,1.1,1.1h2.7v0.6c-10.9,0.6-19.8,9.8-20,21.1
		c0,0.7,0.6,1.3,1.3,1.3h4.5v1.7h-4c-1,0-1.8,0.8-1.8,1.8v2.5c0,1,0.8,1.8,1.8,1.8h38.6c0.6,0,1.1-0.2,1.4-0.7
		c0.3-0.4,0.4-0.8,0.3-1.3V43z M32,19.2c10.1,0,18.2,7.9,18.9,18.1h-4.7H17.8h-4.7C13.8,27.2,22.1,19.2,32,19.2z M45.1,39.5v1.1
		H18.9v-1.1H45.1z M50.8,45.1H13.1v-1.7h37.7V45.1z"/>
	<path d="M27,23.6c0.6-0.2,0.9-0.8,0.7-1.4c-0.2-0.6-0.8-0.9-1.4-0.7c-5.7,1.7-10.3,6.5-11.6,12.1c-0.1,0.6,0.2,1.2,0.8,1.3
		c0.1,0,0.2,0,0.2,0c0.5,0,1-0.3,1.1-0.9C18.1,29.2,22,25.1,27,23.6z"/>
</g>
<g id="Layer_2_1_">
</g>
</svg>
