<?xml version="1.0" encoding="utf-8"?>
<!-- Generator: Adobe Illustrator 23.0.1, SVG Export Plug-In . SVG Version: 6.00 Build 0)  -->
<svg version="1.1" id="レイヤー_1" xmlns="http://www.w3.org/2000/svg" xmlns:xlink="http://www.w3.org/1999/xlink" x="0px"
	 y="0px" viewBox="0 0 64 64" style="enable-background:new 0 0 64 64;" xml:space="preserve">
<g>

	<path d="M13.6,20.2c-7.2,0-13,5.8-13,13c0,5.6,8.5,17.9,13,23.7c4.5-5.8,13-18.1,13-23.7C26.6,26,20.8,20.2,13.6,20.2z M13.6,37.6
		c-3.2,0-5.8-2.6-5.8-5.8s2.6-5.8,5.8-5.8s5.8,2.6,5.8,5.8S16.8,37.6,13.6,37.6z"/>
	<path d="M53.6,21.9h1.1c0.6,0,1.1-0.5,1.1-1.1s-0.5-1.1-1.1-1.1h-1.1c-0.6,0-1.1,0.5-1.1,1.1S53,21.9,53.6,21.9z"/>
	<path d="M39.3,28.5h2.2c0.6,0,1.1-0.5,1.1-1.1c0-0.6-0.5-1.1-1.1-1.1h-2.3c-0.3,0-0.6,0.1-0.8,0.3c-0.2,0.2-0.3,0.5-0.3,0.8
		C38.2,28,38.7,28.5,39.3,28.5z"/>
	<path d="M51.6,27.4c0,0.6,0.5,1.1,1.1,1.1H55c0.6,0,1.1-0.5,1.1-1.1c0-0.6-0.5-1.1-1.1-1.1h-2.2C52.1,26.3,51.6,26.8,51.6,27.4z"/>
	<path d="M46.9,21.9h2.2c0.6,0,1.1-0.5,1.1-1.1s-0.5-1.1-1.1-1.1h-2.2c-0.6,0-1.1,0.5-1.1,1.1S46.3,21.9,46.9,21.9z"/>
	<path d="M17.4,58.3h-2.3c-0.6,0-1.1,0.5-1.1,1.1s0.5,1.1,1.1,1.1h2.3c0.6,0,1.1-0.5,1.1-1.1S18,58.3,17.4,58.3z"/>
	<path d="M36,25.9c0.1,0,0.2,0,0.2,0c0.6-0.1,1-0.7,0.9-1.3c0-0.2,0-0.3,0-0.5c0-0.3,0.1-0.7,0.2-1c0.3-0.5,0.1-1.2-0.5-1.5
		c-0.5-0.3-1.2-0.1-1.5,0.5C34.9,23,34.7,24,34.9,25C35.1,25.5,35.5,25.9,36,25.9z"/>
	<path d="M46,28.5h2.3c0.6,0,1.1-0.5,1.1-1.1c0-0.6-0.5-1.1-1.1-1.1H46c-0.6,0-1.1,0.5-1.1,1.1C44.9,28,45.4,28.5,46,28.5z"/>
	<path d="M40.1,21.9h2.3c0.6,0,1.1-0.5,1.1-1.1s-0.5-1.1-1.1-1.1h-2.3c-0.6,0-1.1,0.5-1.1,1.1S39.5,21.9,40.1,21.9z"/>
	<path d="M29.2,41c0.1,0,0.2,0,0.3,0c0.5,0,0.9-0.3,1.1-0.8c0.1-0.6,0.4-1.1,0.8-1.5c0.3-0.3,0.3-0.7,0.2-1.1
		c-0.1-0.4-0.5-0.7-0.9-0.7c-0.4-0.1-0.8,0.1-1,0.4c-0.6,0.7-1,1.5-1.2,2.4c-0.1,0.3,0,0.6,0.1,0.8C28.7,40.8,28.9,41,29.2,41z"/>
	<path d="M51,58.2c-0.2,0-0.5,0-0.7,0h-1.4c-0.6,0-1.1,0.5-1.1,1.1s0.5,1.1,1.1,1.1h1.4c0.3,0,0.7,0,1-0.1c0.6-0.1,1-0.6,1-1.2
		C52.2,58.6,51.6,58.2,51,58.2z"/>
	<polygon points="51,58.2 51,58.2 51,58.2 	"/>
	<path d="M52.6,45.4L52.6,45.4c-0.7-0.2-1.5-0.3-2.3-0.3H50c-0.6,0-1.1,0.5-1.1,1.1s0.5,1.1,1.1,1.1h0.3c0.5,0,1.1,0.1,1.6,0.2
		c0.1,0,0.2,0,0.3,0c0.5,0,1-0.4,1.1-0.9C53.4,46.1,53.1,45.5,52.6,45.4z"/>
	<path d="M50.2,37.3c0.6,0,1.1-0.5,1.1-1.1c0-0.6-0.5-1.1-1.1-1.1H48c-0.6,0-1.1,0.5-1.1,1.1c0,0.6,0.5,1.1,1.1,1.1H50.2z"/>
	<path d="M56.8,54.5c-0.6-0.3-1.2,0-1.5,0.6c-0.3,0.6-0.6,1.1-1,1.5c-0.3,0.3-0.4,0.7-0.3,1.1c0.1,0.4,0.4,0.7,0.8,0.8
		c0.4,0.1,0.8,0,1.1-0.3c0.6-0.6,1.1-1.4,1.5-2.2C57.6,55.4,57.4,54.7,56.8,54.5z"/>
	<path d="M63.2,32.5c-0.1-0.3-0.4-0.4-0.7-0.5c-0.3-0.1-0.6-0.1-0.8,0.1c-0.3,0.1-0.4,0.4-0.5,0.7c-0.2,0.5-0.5,1-0.9,1.4
		c-0.4,0.4-0.4,1.1,0,1.6s1.1,0.4,1.6,0c0.7-0.7,1.2-1.5,1.4-2.4C63.4,33.1,63.4,32.8,63.2,32.5z"/>
	<path d="M61.3,29.9c0.4,0,0.8-0.3,1-0.7c0.2-0.4,0.1-0.9-0.2-1.2c-0.6-0.7-1.4-1.2-2.3-1.5c-0.6-0.2-1.2,0.1-1.4,0.7
		s0.1,1.2,0.7,1.4c0.5,0.2,1,0.5,1.4,0.9C60.7,29.8,61,29.9,61.3,29.9z"/>
	<path d="M45.5,45h-2.2c-0.6,0-1.1,0.5-1.1,1.1s0.5,1.1,1.1,1.1h2.2c0.6,0,1.1-0.5,1.1-1.1S46.1,45,45.5,45z"/>
	<path d="M57,35.1h-2.3c-0.6,0-1.1,0.5-1.1,1.1c0,0.6,0.5,1.1,1.1,1.1H57c0.6,0,1.1-0.5,1.1-1.1C58.1,35.6,57.6,35.1,57,35.1z"/>
	<path d="M24.2,58.3h-2.2c-0.6,0-1.1,0.5-1.1,1.1s0.5,1.1,1.1,1.1h2.2c0.6,0,1.1-0.5,1.1-1.1S24.8,58.3,24.2,58.3z"/>
	<path d="M56.7,48.4c-0.3-0.5-1-0.6-1.5-0.3c-0.5,0.3-0.6,1-0.3,1.5c0.4,0.5,0.6,1.1,0.8,1.7c0.1,0.4,0.4,0.7,0.8,0.8
		c0.4,0.1,0.8,0,1.1-0.3c0.3-0.3,0.4-0.7,0.3-1.1C57.6,50,57.2,49.2,56.7,48.4z"/>
	<path d="M32.6,44.6c-0.5-0.3-1-0.6-1.3-1.1c-0.4-0.5-1.1-0.6-1.5-0.2c-0.5,0.4-0.6,1.1-0.2,1.5c0.6,0.7,1.3,1.3,2.1,1.7
		c0.5,0.3,1.2,0,1.5-0.5C33.3,45.6,33.1,44.9,32.6,44.6z"/>
	<path d="M30.9,58.3h-2.3c-0.6,0-1.1,0.5-1.1,1.1s0.5,1.1,1.1,1.1h2.3c0.6,0,1.1-0.5,1.1-1.1S31.5,58.3,30.9,58.3z"/>
	<path d="M44.4,58.3h-2.2c-0.6,0-1.1,0.5-1.1,1.1s0.5,1.1,1.1,1.1h2.2c0.6,0,1.1-0.5,1.1-1.1S45,58.3,44.4,58.3z"/>
	<path d="M36.7,37.3c0.6,0,1.1-0.5,1.1-1.1c0-0.6-0.5-1.1-1.1-1.1h-2.2c-0.6,0-1.1,0.5-1.1,1.1c0,0.6,0.5,1.1,1.1,1.1H36.7z"/>
	<path d="M43.5,37.3c0.6,0,1.1-0.5,1.1-1.1c0-0.6-0.5-1.1-1.1-1.1h-2.3c-0.6,0-1.1,0.5-1.1,1.1c0,0.6,0.5,1.1,1.1,1.1H43.5z"/>
	<path d="M38.8,45h-2.2c-0.6,0-1.1,0.5-1.1,1.1s0.5,1.1,1.1,1.1h2.2c0.6,0,1.1-0.5,1.1-1.1S39.4,45,38.8,45z"/>
	<path d="M37.7,58.3h-2.3c-0.6,0-1.1,0.5-1.1,1.1s0.5,1.1,1.1,1.1h2.3c0.6,0,1.1-0.5,1.1-1.1S38.3,58.3,37.7,58.3z"/>
	<path d="M60.9,8.7c0-2.9-2.4-5.3-5.3-5.3c-2.9,0-5.3,2.4-5.3,5.3c0,2.3,3.5,7.3,5.3,9.7C57.4,16,60.9,11,60.9,8.7z M53.2,8.1
		c0-1.3,1.1-2.4,2.4-2.4c1.3,0,2.4,1.1,2.4,2.4c0,1.3-1.1,2.4-2.4,2.4C54.3,10.4,53.2,9.4,53.2,8.1z"/>
</g>
</svg>
