<svg xmlns="http://www.w3.org/2000/svg" xmlns:xlink="http://www.w3.org/1999/xlink" viewBox="0 0 64 64"><g style="clip-path:url(#a)"><path d="M44.05,53.75H16.48c0-2,0-3.93,0-5.89q0-3.44,0-6.9h0a4.9,4.9,0,0,1,0-.74,5.49,5.49,0,0,1,.76,0h8.5a2.07,2.07,0,0,0,2.08-2.06V35.57l.56-.25a21.63,21.63,0,0,0,2.59,1.55Zm0,0V45.31c-.59-2.7-2.35-4.26-5.13-5.24h0c-2.69-.94-5.3-2.07-7.87-3.2Zm-31.53,0H1V45.31c.62-2.64,2.36-4.2,5.08-5.17h0c2.5-.9,5-1.92,7.39-2.93l.86-.36h0l.6-.29a9.9,9.9,0,0,0-1.27.83,4.2,4.2,0,0,0-1.15,3h0c0,3.49,0,7,0,10.47ZM16.3,35.82l.42.4a5.25,5.25,0,0,0-1.76.34C15.41,36.33,15.92,36,16.3,35.82Zm1.14,1.08h0m-2.28-9.51-.27-.84-.87.14h0a.77.77,0,0,1-.25-.17,3.59,3.59,0,0,1-1.12-3.1c.15-.56.33-.69.37-.71a.29.29,0,0,1,.21,0l1.17.22,0-1.19a6.62,6.62,0,0,1,.07-.8h16a6.94,6.94,0,0,1,.08.81l.05,1.18,1.16-.22a.29.29,0,0,1,.21,0s.22.15.37.71h0a3.59,3.59,0,0,1-1.12,3.1.86.86,0,0,1-.25.17h0l-.84-.11-.27.81a7.89,7.89,0,0,1-2.39,3.82,7.41,7.41,0,0,1-5,1.59,7.33,7.33,0,0,1-4.94-1.59A8.14,8.14,0,0,1,15.16,27.39ZM30.08,17h-15V12.77h15Z" style="fill:none;stroke:#000;stroke-miterlimit:10;stroke-width:1.5px"/></g><path d="M58.6,42.81l.93,2.95a.8.8,0,0,0,.76.57l2.92,0a.83.83,0,0,1,.48,1.48l-2.38,1.89a.83.83,0,0,0-.28.9l.89,2.88a.8.8,0,0,1-1.2.93L58.3,52.64a.75.75,0,0,0-.9,0L55,54.39a.8.8,0,0,1-1.2-.93l.88-2.88a.85.85,0,0,0-.27-.9L52,47.79a.83.83,0,0,1,.48-1.48l2.92,0a.8.8,0,0,0,.75-.57l.93-2.95A.78.78,0,0,1,58.6,42.81Z"/></svg>