<?xml version="1.0" encoding="utf-8"?>
<!-- Generator: Adobe Illustrator 22.0.1, SVG Export Plug-In . SVG Version: 6.00 Build 0)  -->
<svg version="1.1" xmlns="http://www.w3.org/2000/svg" xmlns:xlink="http://www.w3.org/1999/xlink" x="0px" y="0px"
	 viewBox="0 0 64 64" style="enable-background:new 0 0 64 64;" xml:space="preserve">
<style type="text/css">
	.st0{fill:#231F20;}
	.st1{fill-rule:evenodd;clip-rule:evenodd;fill:#231F20;}
	.st2{fill:none;stroke:#231F20;stroke-width:2.2;stroke-miterlimit:10;}
	.st3{fill:none;stroke:#231F20;stroke-width:3;stroke-linecap:round;stroke-miterlimit:10;}
	.st4{fill:none;stroke:#231F20;stroke-width:2.2;stroke-linecap:round;stroke-linejoin:round;stroke-miterlimit:10;}
	.st5{fill:none;stroke:#000000;stroke-width:2.2;stroke-linecap:round;stroke-linejoin:round;stroke-miterlimit:10;}
	.st6{fill:none;stroke:#231F20;stroke-width:2.2;stroke-linecap:round;stroke-miterlimit:10;}
	.st7{fill:none;stroke:#000000;stroke-width:2.2;stroke-miterlimit:10;}
	.st8{fill:none;stroke:#000000;stroke-width:2;stroke-linecap:round;stroke-linejoin:round;stroke-miterlimit:10;}
	.st9{fill:none;stroke:#000000;stroke-width:1.8;stroke-linejoin:round;stroke-miterlimit:10;}
	
		.st10{fill-rule:evenodd;clip-rule:evenodd;fill:none;stroke:#000000;stroke-width:2.2;stroke-linecap:round;stroke-linejoin:round;stroke-miterlimit:10;}
	.st11{fill:#221F1F;}
	.st12{fill:none;stroke:#000000;stroke-width:1.8;stroke-miterlimit:10;}
	.st13{fill:none;stroke:#000000;stroke-width:1.7;stroke-linecap:round;stroke-linejoin:round;stroke-miterlimit:10;}
	.st14{fill:none;stroke:#000000;stroke-width:1.8;stroke-linecap:round;stroke-linejoin:round;stroke-miterlimit:10;}
	.st15{fill:none;stroke:#000000;stroke-width:1.6;stroke-linecap:round;stroke-linejoin:round;stroke-miterlimit:10;}
	.st16{fill:#0A1423;}
	.st17{fill:#F4831F;}
	.st18{fill:none;stroke:#000000;stroke-width:0.4736;stroke-miterlimit:10;}
	.st19{fill:none;stroke:#000000;stroke-width:0.431;stroke-miterlimit:10;}
	.st20{fill-rule:evenodd;clip-rule:evenodd;fill:none;stroke:#000000;stroke-width:0.6314;stroke-miterlimit:10;}
	.st21{fill-rule:evenodd;clip-rule:evenodd;fill:none;stroke:#231F20;stroke-width:0.4567;stroke-miterlimit:10;}
	.st22{fill-rule:evenodd;clip-rule:evenodd;fill:none;stroke:#231F20;stroke-width:0.2284;stroke-miterlimit:10;}
	.st23{fill:none;stroke:#000000;stroke-width:0.419;stroke-miterlimit:10;}
	.st24{fill:none;stroke:#000000;stroke-width:0.3813;stroke-miterlimit:10;}
	.st25{fill:#FFFFFF;stroke:#000000;stroke-width:0.419;stroke-miterlimit:10;}
	.st26{fill-rule:evenodd;clip-rule:evenodd;fill:none;stroke:#000000;stroke-width:0.5586;stroke-miterlimit:10;}
	.st27{fill-rule:evenodd;clip-rule:evenodd;fill:#FFFFFF;}
	.st28{fill-rule:evenodd;clip-rule:evenodd;fill:#FFFFFF;stroke:#231F20;stroke-width:0.2682;stroke-miterlimit:10;}
	.st29{fill-rule:evenodd;clip-rule:evenodd;}
	.st30{fill:none;stroke:#000000;stroke-width:2;stroke-miterlimit:10;}
	.st31{fill:#FFFFFF;}
	.st32{opacity:0.85;}
</style>
<g id="Layer_1">
	<g>
		<path d="M27.1,22.3c-1.2-0.7-2.5-1-3.6-0.6c-0.3-0.9-0.9-2.2-1.7-3c-0.4-0.4-1-0.4-1.4,0c-0.2,0.2-0.3,0.4-0.3,0.7
			c0,0.3,0.1,0.5,0.3,0.7c0.7,0.8,1.3,2.2,1.5,3.2c0.2,0.9,0.3,2.8,0,3.6c-0.2,0.4-0.2,1,0.5,1.3l0.2,0.1h0.2c0.4,0,0.6-0.2,0.8-0.4
			l0.1-0.1l0.1-0.1c0.4-1,0.4-2.7,0.3-3.9c0.8-0.2,1.6,0.1,2.2,0.3c1.8,1,3.3,3.4,3.3,4.6c0,0.6,0.4,1,1,1s1-0.4,1-1
			C31.3,26.8,29.4,23.7,27.1,22.3z"/>
		<path d="M18.8,32.5c0.2-0.2,0.3-0.4,0.3-0.7c0-0.3-0.1-0.5-0.3-0.7c-0.4-0.4-1-0.4-1.4,0.1c0,0-3.4,4.3,0.5,8.8
			c0.2,0.2,0.4,0.3,0.7,0.3s0.5-0.1,0.7-0.3c0.2-0.2,0.3-0.4,0.3-0.7c0-0.3-0.1-0.5-0.2-0.7C16.6,35.5,18.7,32.7,18.8,32.5z"/>
		<path d="M46.5,33.5C46.2,33,45.7,33,45.6,33h-0.2l-0.1,0.1c-0.6,0.3-0.6,0.8-0.6,1l0,0.2c0,0,0.7,2.2-0.3,3.8
			c-0.7,1-2.1,1.6-4.1,1.6c-0.6,0-1,0.4-1,1c0,0.6,0.4,1,1,1c0,0,0,0,0,0c2.8-0.1,4.7-0.9,5.7-2.5c1.2-1.9,0.9-4.2,0.6-5.3
			C46.6,33.8,46.5,33.6,46.5,33.5z"/>
		<path d="M57,21.3c0.3-0.8,0.4-1.8,0.4-2.9c-0.1-3.3-2.2-6.3-5.5-7.9c-3.1-1.5-6.7-1.6-10.3-0.4C39.1,4.5,34.2,4.2,31.2,4l-0.2,0
			l-0.6,0C28,3.9,22.6,5.4,20.2,7.7c-0.5,0.4-0.9,0.9-1.1,1.5c-0.5-0.3-1-0.5-1.5-0.6c-3.2-1-6.8-0.4-8.2,0.7
			c-2,1.6-5.2,5.2-4.4,9.2C3.7,19.7-0.4,24,0,29.5c0.3,3.9,2.9,7.4,7.6,10.3l0.2,0.1h0.1c1.8,3.7,4.6,6.2,7.7,7.1
			c0.7,0.2,1.6,0.3,2.4,0.3c3.4,0,7-2,10.9-5.9c1.5,4.3,4.3,7.4,7.9,8.4c1.4,0.5,3.1,0.6,5,0.2C43,52.6,47.2,60,53.6,60
			c0.8,0,1.6-0.1,2.5-0.3c0.3,0,0.6-0.2,0.7-0.5l0,0c2.5-3.6,2.8-6.2,2.6-7.7c-0.2-1.3-0.7-2.3-1.6-3c0.4-1.5,0.2-3.2-0.3-5
			c3.2-1.7,5.3-3.8,6.1-6.3C65,32.8,62.8,27.4,57,21.3z M55.2,57.9c-3,0.8-5.9-0.5-8.7-3.8c-1.4-1.7-2.5-3.6-3-4.7
			c1.8-0.7,3.5-1.6,5-2.9l0.1,0c2.9-0.7,5.3-1.4,7.2-2.2c0.5,1.9,0.4,3.5-0.3,4.7c-0.9,1.6-2.9,2.1-3.2,2.1c-0.4,0-0.7,0.2-0.8,0.6
			c-0.1,0.2-0.1,0.5,0,0.7c0.2,0.4,0.5,0.7,0.9,0.7c0.3,0,2.9-0.5,4.4-2.7c0.3,0.4,0.4,0.8,0.5,1.3C57.6,52.9,57.3,54.8,55.2,57.9z
			 M61.8,36.6L61.8,36.6c-1,3.1-4.5,5.5-10.4,7.2c1-1.2,1.9-2.6,2.8-4.6c0.2-0.4,0.2-1-0.5-1.3c-0.4-0.2-1-0.2-1.3,0.5
			c-1.2,2.7-2.4,4.2-4,5.6c-3.8,3.6-7.8,5-11.3,4c-3.3-1-5.8-4-7-8.3c0.8-0.9,1.5-1.8,2.3-2.9c2.9-0.1,5.4-1.7,6.1-2.7l0,0
			c0.2-0.2,0.3-0.4,0.3-0.7c0-0.3-0.1-0.5-0.3-0.7c-0.4-0.4-1-0.4-1.4,0c0,0-3.6,3.8-8.9,0.9c-0.4-0.3-0.9-0.1-1.3,0.2
			c-0.2,0.2-0.3,0.6-0.2,0.9c0.1,0.2,0.2,0.3,0.3,0.5l0.1,0.1c0.9,0.5,2,0.9,2.9,1.2c-5.2,6.8-10.1,9.8-14.2,8.6
			c-4.9-1.3-7.9-8.1-8.2-11.5c0-0.6-0.5-1-1-1c-0.6,0-1,0.5-1,1c0.1,0.8,0.3,1.7,0.6,2.8c-2.8-2.2-4.3-4.7-4.5-7.3
			c-0.3-4,2.5-7.4,3.8-8.8c0.1,0.2,0.2,0.4,0.3,0.6c1,1.5,2.3,2.3,3.2,2.7c-0.3,0.5-0.4,1-0.4,1.5l-0.4,2.9c0,0.6,0.4,1,1,1
			c0.5,0,1-0.4,1-0.9l0.4-2.9c0.1-0.7,0.6-1.4,1-1.5l2.6-0.4c0.6,0,1-0.5,1-1c0-0.6-0.5-1-1.1-1l-2.8,0.4l-0.1,0
			c-0.2,0.1-0.4,0.2-0.6,0.3c0,0,0,0-0.1,0c-0.3-0.1-1.8-0.8-2.9-2.3c-2.5-3.5,0.8-7.5,2.8-9.2c0.7-0.6,3.5-1.2,6.4-0.4
			c2.3,0.8,3.8,2.2,4.4,4.4c0,0.3,0.2,0.5,0.4,0.7c0.2,0.2,0.5,0.2,0.8,0.1c0.3-0.1,0.7-0.3,0.7-1.1l0-0.2c-0.4-1.5-1.3-2.9-2.6-4
			c0.1-0.3,0.3-0.7,0.8-1.1c2-2,6.8-3.3,8.8-3.1l0.5,0l0.2,0c2.9,0.2,6.7,0.4,8.7,4.8c-1.1,0.5-2.3,1.2-3.4,1.9
			c-1.9-0.5-4.1-0.2-5,0.1c-0.3,0-0.5,0.2-0.7,0.4c-0.2,0.3-0.2,0.6,0,1c0.1,0.1,0.2,0.5,0.6,0.6c0.1,0,0.4,0.1,0.6,0
			c0.4-0.1,3.2-0.7,5.2,0.4c1,0.6,1.6,1.4,1.9,2.7c0.1,0.8,1.5,1,1.9,0.3c0.2-0.3,0.2-0.6,0.1-0.9c-0.4-1.5-1.2-2.7-2.4-3.5
			c4.3-2.6,9-3.1,12.6-1.4c2.6,1.2,4.2,3.6,4.4,6.2c0.1,3.1-2,6.1-5.9,8.4l-0.1,0.1c-0.4,0.4-0.5,1-0.1,1.4c0.3,0.3,0.6,0.3,0.8,0.3
			h0.4l0.2-0.1c2.5-1.5,4.4-3.3,5.6-5.3C58.5,25.9,63.3,31.7,61.8,36.6z M14,22C14.1,22,14.1,22,14,22C14.1,22,14.1,22,14,22L14,22z
			"/>
	</g>
</g>
<g id="Layer_2">
</g>
</svg>
