<?xml version="1.0" encoding="utf-8"?>
<!-- Generator: Adobe Illustrator 22.0.1, SVG Export Plug-In . SVG Version: 6.00 Build 0)  -->
<svg version="1.1" xmlns="http://www.w3.org/2000/svg" xmlns:xlink="http://www.w3.org/1999/xlink" x="0px" y="0px"
	 viewBox="0 0 64 64" style="enable-background:new 0 0 64 64;" xml:space="preserve">
<style type="text/css">
	.st0{fill:#231F20;}
	.st1{fill-rule:evenodd;clip-rule:evenodd;fill:#231F20;}
	.st2{fill:none;stroke:#000000;stroke-width:1.4;stroke-miterlimit:10;}
	.st3{fill:none;stroke:#231F20;stroke-width:2.2;stroke-miterlimit:10;}
	.st4{fill:none;stroke:#231F20;stroke-width:3;stroke-linecap:round;stroke-miterlimit:10;}
	.st5{fill:none;stroke:#231F20;stroke-width:2.2;stroke-linecap:round;stroke-linejoin:round;stroke-miterlimit:10;}
	.st6{fill:none;stroke:#000000;stroke-width:2.2;stroke-linecap:round;stroke-linejoin:round;stroke-miterlimit:10;}
	.st7{fill:none;stroke:#231F20;stroke-width:2.2;stroke-linecap:round;stroke-miterlimit:10;}
	.st8{fill:none;stroke:#000000;stroke-width:2.2;stroke-miterlimit:10;}
	.st9{fill:none;stroke:#000000;stroke-width:2;stroke-linecap:round;stroke-linejoin:round;stroke-miterlimit:10;}
	.st10{fill:none;stroke:#000000;stroke-width:1.8;stroke-linejoin:round;stroke-miterlimit:10;}
	
		.st11{fill-rule:evenodd;clip-rule:evenodd;fill:none;stroke:#000000;stroke-width:2.2;stroke-linecap:round;stroke-linejoin:round;stroke-miterlimit:10;}
	.st12{fill:#221F1F;}
	.st13{fill:none;stroke:#000000;stroke-width:1.8;stroke-miterlimit:10;}
	.st14{fill:none;stroke:#000000;stroke-width:1.7;stroke-linecap:round;stroke-linejoin:round;stroke-miterlimit:10;}
	.st15{fill:none;stroke:#000000;stroke-width:3;stroke-linecap:round;stroke-linejoin:round;stroke-miterlimit:10;}
	.st16{fill:none;stroke:#000000;stroke-width:1.8;stroke-linecap:round;stroke-linejoin:round;stroke-miterlimit:10;}
	.st17{fill:none;stroke:#000000;stroke-width:1.6;stroke-linecap:round;stroke-linejoin:round;stroke-miterlimit:10;}
	.st18{fill:none;stroke:#231F20;stroke-width:2;stroke-miterlimit:10;}
	.st19{fill:#0A1423;}
	.st20{fill:#F4831F;}
	.st21{fill:none;stroke:#000000;stroke-width:0.4736;stroke-miterlimit:10;}
	.st22{fill:none;stroke:#000000;stroke-width:0.431;stroke-miterlimit:10;}
	.st23{fill-rule:evenodd;clip-rule:evenodd;fill:none;stroke:#000000;stroke-width:0.6314;stroke-miterlimit:10;}
	.st24{fill-rule:evenodd;clip-rule:evenodd;fill:none;stroke:#231F20;stroke-width:0.4567;stroke-miterlimit:10;}
	.st25{fill-rule:evenodd;clip-rule:evenodd;fill:none;stroke:#231F20;stroke-width:0.2284;stroke-miterlimit:10;}
	.st26{fill:none;stroke:#000000;stroke-width:0.419;stroke-miterlimit:10;}
	.st27{fill:none;stroke:#000000;stroke-width:0.3813;stroke-miterlimit:10;}
	.st28{fill:#FFFFFF;stroke:#000000;stroke-width:0.419;stroke-miterlimit:10;}
	.st29{fill-rule:evenodd;clip-rule:evenodd;fill:none;stroke:#000000;stroke-width:0.5586;stroke-miterlimit:10;}
	.st30{fill-rule:evenodd;clip-rule:evenodd;fill:#FFFFFF;}
	.st31{fill-rule:evenodd;clip-rule:evenodd;fill:#FFFFFF;stroke:#231F20;stroke-width:0.2682;stroke-miterlimit:10;}
	.st32{fill-rule:evenodd;clip-rule:evenodd;}
	.st33{fill:none;stroke:#000000;stroke-width:2;stroke-miterlimit:10;}
	.st34{fill:#FFFFFF;}
	.st35{opacity:0.85;}
</style>
<g id="Layer_1">
	<g>
		<path class="st0" d="M32,0C14.4,0,0,14.4,0,32s14.4,32,32,32s32-14.4,32-32S49.6,0,32,0z M32,61.6C15.7,61.6,2.4,48.3,2.4,32
			S15.7,2.4,32,2.4S61.6,15.7,61.6,32S48.3,61.6,32,61.6z"/>
		<path class="st0" d="M48.9,16.6c-0.3-0.2-0.6-0.3-1-0.2L32,21.6l-15.9-5.1c-0.3-0.1-0.7,0-1,0.2c-0.3,0.2-0.5,0.5-0.5,0.9
			l-0.1,23.8c0,0.5,0.3,0.9,0.8,1.1l16.3,5.1c0.1,0,0.2,0.1,0.4,0.1c0,0,0,0,0,0c0,0,0,0,0,0c0.1,0,0.3,0,0.4-0.1l16.3-5.1
			c0.5-0.1,0.8-0.6,0.8-1.1l-0.1-23.8C49.3,17.1,49.2,16.8,48.9,16.6z M30.9,45l-14.1-4.5L16.9,19l14,4.5V45z M33.1,45V23.5l14-4.5
			l0.1,21.5L33.1,45z"/>
		<path class="st0" d="M29.4,37.4L19,34.2c-0.3-0.1-0.7,0-0.9,0.2c-0.3,0.2-0.4,0.5-0.4,0.8v3.6c0,0.5,0.3,0.9,0.7,1L28.8,43
			c0,0,0,0,0,0c0.1,0,0.2,0,0.3,0c0.2,0,0.4-0.1,0.6-0.2c0.3-0.2,0.4-0.5,0.4-0.8v-3.6C30.1,37.9,29.8,37.5,29.4,37.4z M28.9,41.8
			l-10.1-3.1v-3.2l10.1,3.1V41.8z"/>
		<path class="st0" d="M34.3,29.6c0.2,0.1,0.4,0.2,0.6,0.2c0.1,0,0.2,0,0.3,0l10.4-3.2c0.4-0.1,0.7-0.5,0.7-1V22
			c0-0.3-0.2-0.6-0.4-0.8c-0.3-0.2-0.6-0.3-0.9-0.2l-10.4,3.2c-0.4,0.1-0.7,0.5-0.7,1v3.6C33.9,29,34.1,29.4,34.3,29.6z M35.1,25.2
			l10.1-3.1v3.2l-10.1,3.1V25.2z"/>
		<path class="st0" d="M17.9,21.9l11.6,3.7c0.1,0,0.1,0,0.2,0c0.3,0,0.5-0.2,0.6-0.4c0.1-0.3-0.1-0.7-0.4-0.8l-11.6-3.7
			c-0.3-0.1-0.7,0.1-0.8,0.4C17.4,21.4,17.6,21.8,17.9,21.9z"/>
		<path class="st0" d="M29.8,27.1l-11.5-3.7c-0.3-0.1-0.7,0.1-0.8,0.4c-0.1,0.3,0.1,0.7,0.4,0.8l11.5,3.7c0.1,0,0.1,0,0.2,0
			c0.3,0,0.5-0.2,0.6-0.4C30.2,27.5,30.1,27.2,29.8,27.1z"/>
		<path class="st0" d="M29.7,29.9l-11.4-3.6c-0.3-0.1-0.7,0.1-0.8,0.4c-0.1,0.3,0.1,0.7,0.4,0.8l11.4,3.6c0.1,0,0.1,0,0.2,0
			c0.3,0,0.5-0.2,0.6-0.4C30.2,30.4,30,30,29.7,29.9z"/>
		<path class="st0" d="M29.7,34l-6.2-2c-0.3-0.1-0.7,0.1-0.8,0.4c-0.1,0.3,0.1,0.7,0.4,0.8l6.2,2c0.1,0,0.1,0,0.2,0
			c0.3,0,0.5-0.2,0.6-0.4C30.2,34.5,30,34.1,29.7,34z"/>
		<path class="st0" d="M40.6,30.3l-6.2,2c-0.3,0.1-0.5,0.4-0.4,0.8c0.1,0.3,0.3,0.4,0.6,0.4c0.1,0,0.1,0,0.2,0l6.2-2
			c0.3-0.1,0.5-0.4,0.4-0.8C41.2,30.4,40.9,30.2,40.6,30.3z"/>
		<path class="st0" d="M45.8,32.8l-11.6,3.7c-0.3,0.1-0.5,0.4-0.4,0.8c0.1,0.3,0.3,0.4,0.6,0.4c0.1,0,0.1,0,0.2,0L46.2,34
			c0.3-0.1,0.5-0.4,0.4-0.8C46.5,32.9,46.2,32.7,45.8,32.8z"/>
		<path class="st0" d="M45.9,35.5l-11.5,3.7c-0.3,0.1-0.5,0.4-0.4,0.8c0.1,0.3,0.3,0.4,0.6,0.4c0.1,0,0.1,0,0.2,0l11.5-3.7
			c0.3-0.1,0.5-0.4,0.4-0.8C46.5,35.6,46.2,35.4,45.9,35.5z"/>
		<path class="st0" d="M45.9,38.4L34.4,42c-0.3,0.1-0.5,0.4-0.4,0.8c0.1,0.3,0.3,0.4,0.6,0.4c0.1,0,0.1,0,0.2,0l11.4-3.6
			c0.3-0.1,0.5-0.4,0.4-0.8C46.5,38.5,46.2,38.3,45.9,38.4z"/>
	</g>
</g>
<g id="Layer_2">
</g>
</svg>
