<?xml version="1.0" encoding="utf-8"?>
<!-- Generator: Adobe Illustrator 22.0.1, SVG Export Plug-In . SVG Version: 6.00 Build 0)  -->
<svg version="1.1" xmlns="http://www.w3.org/2000/svg" xmlns:xlink="http://www.w3.org/1999/xlink" x="0px" y="0px"
	 viewBox="0 0 64 64" style="enable-background:new 0 0 64 64;" xml:space="preserve">
<style type="text/css">
	.st0{fill:#231F20;}
	.st1{fill-rule:evenodd;clip-rule:evenodd;fill:#231F20;}
	.st2{fill:none;stroke:#000000;stroke-width:1.4;stroke-miterlimit:10;}
	.st3{fill:none;stroke:#231F20;stroke-width:2.2;stroke-miterlimit:10;}
	.st4{fill:none;stroke:#231F20;stroke-width:3;stroke-linecap:round;stroke-miterlimit:10;}
	.st5{fill:none;stroke:#231F20;stroke-width:2.2;stroke-linecap:round;stroke-linejoin:round;stroke-miterlimit:10;}
	.st6{fill:none;stroke:#000000;stroke-width:2.2;stroke-linecap:round;stroke-linejoin:round;stroke-miterlimit:10;}
	.st7{fill:none;stroke:#231F20;stroke-width:2.2;stroke-linecap:round;stroke-miterlimit:10;}
	.st8{fill:none;stroke:#000000;stroke-width:2.2;stroke-miterlimit:10;}
	.st9{fill:none;stroke:#000000;stroke-width:2;stroke-linecap:round;stroke-linejoin:round;stroke-miterlimit:10;}
	.st10{fill:none;stroke:#000000;stroke-width:1.8;stroke-linejoin:round;stroke-miterlimit:10;}
	
		.st11{fill-rule:evenodd;clip-rule:evenodd;fill:none;stroke:#000000;stroke-width:2.2;stroke-linecap:round;stroke-linejoin:round;stroke-miterlimit:10;}
	.st12{fill:#221F1F;}
	.st13{fill:none;stroke:#000000;stroke-width:1.8;stroke-miterlimit:10;}
	.st14{fill:none;stroke:#000000;stroke-width:1.7;stroke-linecap:round;stroke-linejoin:round;stroke-miterlimit:10;}
	.st15{fill:none;stroke:#000000;stroke-width:3;stroke-linecap:round;stroke-linejoin:round;stroke-miterlimit:10;}
	.st16{fill:none;stroke:#000000;stroke-width:1.8;stroke-linecap:round;stroke-linejoin:round;stroke-miterlimit:10;}
	.st17{fill:none;stroke:#000000;stroke-width:1.6;stroke-linecap:round;stroke-linejoin:round;stroke-miterlimit:10;}
	.st18{fill:none;stroke:#231F20;stroke-width:2;stroke-miterlimit:10;}
	.st19{fill:#0A1423;}
	.st20{fill:#F4831F;}
	.st21{fill:none;stroke:#000000;stroke-width:0.4736;stroke-miterlimit:10;}
	.st22{fill:none;stroke:#000000;stroke-width:0.431;stroke-miterlimit:10;}
	.st23{fill-rule:evenodd;clip-rule:evenodd;fill:none;stroke:#000000;stroke-width:0.6314;stroke-miterlimit:10;}
	.st24{fill-rule:evenodd;clip-rule:evenodd;fill:none;stroke:#231F20;stroke-width:0.4567;stroke-miterlimit:10;}
	.st25{fill-rule:evenodd;clip-rule:evenodd;fill:none;stroke:#231F20;stroke-width:0.2284;stroke-miterlimit:10;}
	.st26{fill:none;stroke:#000000;stroke-width:0.419;stroke-miterlimit:10;}
	.st27{fill:none;stroke:#000000;stroke-width:0.3813;stroke-miterlimit:10;}
	.st28{fill:#FFFFFF;stroke:#000000;stroke-width:0.419;stroke-miterlimit:10;}
	.st29{fill-rule:evenodd;clip-rule:evenodd;fill:none;stroke:#000000;stroke-width:0.5586;stroke-miterlimit:10;}
	.st30{fill-rule:evenodd;clip-rule:evenodd;fill:#FFFFFF;}
	.st31{fill-rule:evenodd;clip-rule:evenodd;fill:#FFFFFF;stroke:#231F20;stroke-width:0.2682;stroke-miterlimit:10;}
	.st32{fill-rule:evenodd;clip-rule:evenodd;}
	.st33{fill:none;stroke:#000000;stroke-width:2;stroke-miterlimit:10;}
	.st34{fill:#FFFFFF;}
	.st35{opacity:0.85;}
</style>
<g id="Layer_1">
	<g>
		<path class="st0" d="M32,0C14.4,0,0,14.4,0,32s14.4,32,32,32s32-14.4,32-32S49.6,0,32,0z M32,61.6C15.7,61.6,2.4,48.3,2.4,32
			S15.7,2.4,32,2.4S61.6,15.7,61.6,32S48.3,61.6,32,61.6z"/>
		<path class="st0" d="M45,25.9h-0.8v-1.6c0-0.6-0.5-1.1-1.1-1.1S42,23.7,42,24.3v1.6h-0.8c-0.8,0-1.6,0.2-2.2,0.7v-4.2
			c0-1.9-1.3-3.5-3-4v-2.1c0-0.6-0.5-1.1-1.1-1.1s-1.1,0.5-1.1,1.1v1.9H30v-1.9c0-0.6-0.5-1.1-1.1-1.1s-1.1,0.5-1.1,1.1v2.1
			c-1.7,0.5-3,2.1-3,4v4.1c-0.6-0.3-1.2-0.5-1.9-0.5H22v-1.6c0-0.6-0.5-1.1-1.1-1.1s-1.1,0.5-1.1,1.1v1.6H19c-2.3,0-4.1,1.9-4.1,4.1
			v14.6c0,2.3,1.9,4.1,4.1,4.1h3.9c1.2,0,2.3-0.5,3-1.4c0.8,0.8,1.8,1.4,3,1.4h5.8c1.3,0,2.4-0.6,3.2-1.5c0.8,0.9,1.9,1.5,3.2,1.5
			H45c2.3,0,4.1-1.9,4.1-4.1V30C49.2,27.8,47.3,25.9,45,25.9z M24.8,44.7c0,1.1-0.9,1.9-1.9,1.9H19c-1.1,0-1.9-0.9-1.9-1.9V30
			c0-1.1,0.9-1.9,1.9-1.9h3.9c1.1,0,1.9,0.9,1.9,1.9V44.7z M36.7,44.7c0,1.1-0.9,1.9-1.9,1.9h-1.6v-3.7c0-0.7-0.6-1.4-1.4-1.4
			c-0.7,0-1.4,0.6-1.4,1.4v3.7h-1.6c-1.1,0-1.9-0.9-1.9-1.9V30v-7.7c0-1.1,0.9-1.9,1.9-1.9h5.8c1.1,0,1.9,0.9,1.9,1.9V44.7z
			 M47,44.7c0,1.1-0.9,1.9-1.9,1.9h-3.9c-1.1,0-1.9-0.9-1.9-1.9V30c0-1.1,0.9-1.9,1.9-1.9H45c1.1,0,1.9,0.9,1.9,1.9V44.7z"/>
		<path class="st0" d="M20.9,31.9c-0.7,0-1.4,0.6-1.4,1.4c0,0.7,0.6,1.4,1.4,1.4s1.4-0.6,1.4-1.4C22.3,32.5,21.7,31.9,20.9,31.9z"/>
		<path class="st0" d="M20.9,37.3c-0.7,0-1.4,0.6-1.4,1.4c0,0.7,0.6,1.4,1.4,1.4s1.4-0.6,1.4-1.4C22.3,38,21.7,37.3,20.9,37.3z"/>
		<path class="st0" d="M43.1,31.9c-0.7,0-1.4,0.6-1.4,1.4c0,0.7,0.6,1.4,1.4,1.4c0.7,0,1.4-0.6,1.4-1.4
			C44.4,32.5,43.8,31.9,43.1,31.9z"/>
		<path class="st0" d="M43.1,37.3c-0.7,0-1.4,0.6-1.4,1.4c0,0.7,0.6,1.4,1.4,1.4c0.7,0,1.4-0.6,1.4-1.4C44.4,38,43.8,37.3,43.1,37.3
			z"/>
		<path class="st0" d="M31.9,24.5c-0.7,0-1.4,0.6-1.4,1.4c0,0.7,0.6,1.4,1.4,1.4c0.7,0,1.4-0.6,1.4-1.4
			C33.2,25.1,32.6,24.5,31.9,24.5z"/>
		<path class="st0" d="M31.9,30c-0.7,0-1.4,0.6-1.4,1.4s0.6,1.4,1.4,1.4c0.7,0,1.4-0.6,1.4-1.4S32.6,30,31.9,30z"/>
		<path class="st0" d="M31.9,35.5c-0.7,0-1.4,0.6-1.4,1.4s0.6,1.4,1.4,1.4c0.7,0,1.4-0.6,1.4-1.4S32.6,35.5,31.9,35.5z"/>
	</g>
</g>
<g id="Layer_2">
</g>
</svg>
