<?xml version="1.0" encoding="utf-8"?>
<!-- Generator: Adobe Illustrator 22.0.1, SVG Export Plug-In . SVG Version: 6.00 Build 0)  -->
<svg version="1.1" id="Layer_1" xmlns="http://www.w3.org/2000/svg" xmlns:xlink="http://www.w3.org/1999/xlink" x="0px" y="0px"
	 viewBox="0 0 64 64" style="enable-background:new 0 0 64 64;" xml:space="preserve">
<g>
	<path d="M32,0C14.4,0,0,14.4,0,32s14.4,32,32,32s32-14.4,32-32S49.6,0,32,0z M32,61.6C15.7,61.6,2.4,48.3,2.4,32S15.7,2.4,32,2.4
		S61.6,15.7,61.6,32S48.3,61.6,32,61.6z"/>
	<path d="M44.7,28.9C44.7,20.7,38,14,29.8,14s-14.9,6.7-14.9,14.9c0,8.2,6.7,14.9,14.9,14.9S44.7,37.1,44.7,28.9z M17.1,28.9
		c0-7,5.7-12.7,12.7-12.7s12.7,5.7,12.7,12.7c0,7-5.7,12.7-12.7,12.7S17.1,35.9,17.1,28.9z"/>
	<path d="M38.1,12.5c-0.6-0.2-1.2,0-1.4,0.6c-0.2,0.6,0,1.2,0.6,1.4c5.8,2.4,9.6,8.3,9.6,14.6c0,8.5-7.1,15.5-15.8,15.5
		c-2.9,0-6.5-0.2-8.8-1.5c-0.5-0.3-1.2-0.1-1.5,0.4c-0.3,0.5-0.1,1.2,0.4,1.5c2.5,1.4,5.9,1.7,8.8,1.7v2.6h-3.9
		c-0.6,0-1.1,0.5-1.1,1.1s0.5,1.1,1.1,1.1h10c0.6,0,1.1-0.5,1.1-1.1s-0.5-1.1-1.1-1.1h-3.9v-2.7c9.4-0.6,16.8-8.3,16.8-17.6
		C49.1,21.9,44.7,15.2,38.1,12.5z"/>
</g>
<g id="Layer_2_1_">
</g>
</svg>
