<?xml version="1.0" encoding="utf-8"?>
<!-- Generator: Adobe Illustrator 22.0.1, SVG Export Plug-In . SVG Version: 6.00 Build 0)  -->
<svg version="1.1" xmlns="http://www.w3.org/2000/svg" xmlns:xlink="http://www.w3.org/1999/xlink" x="0px" y="0px"
	 viewBox="0 0 64 64" style="enable-background:new 0 0 64 64;" xml:space="preserve">
<style type="text/css">
	.st0{fill:#231F20;}
	.st1{fill-rule:evenodd;clip-rule:evenodd;fill:#231F20;}
	.st2{fill:none;stroke:#000000;stroke-width:1.4;stroke-miterlimit:10;}
	.st3{fill:none;stroke:#231F20;stroke-width:2.2;stroke-miterlimit:10;}
	.st4{fill:none;stroke:#231F20;stroke-width:3;stroke-linecap:round;stroke-miterlimit:10;}
	.st5{fill:none;stroke:#231F20;stroke-width:2.2;stroke-linecap:round;stroke-linejoin:round;stroke-miterlimit:10;}
	.st6{fill:none;stroke:#000000;stroke-width:2.2;stroke-linecap:round;stroke-linejoin:round;stroke-miterlimit:10;}
	.st7{fill:none;stroke:#231F20;stroke-width:2.2;stroke-linecap:round;stroke-miterlimit:10;}
	.st8{fill:none;stroke:#000000;stroke-width:2.2;stroke-miterlimit:10;}
	.st9{fill:none;stroke:#000000;stroke-width:2;stroke-linecap:round;stroke-linejoin:round;stroke-miterlimit:10;}
	.st10{fill:none;stroke:#000000;stroke-width:1.8;stroke-linejoin:round;stroke-miterlimit:10;}
	
		.st11{fill-rule:evenodd;clip-rule:evenodd;fill:none;stroke:#000000;stroke-width:2.2;stroke-linecap:round;stroke-linejoin:round;stroke-miterlimit:10;}
	.st12{fill:#221F1F;}
	.st13{fill:none;stroke:#000000;stroke-width:1.8;stroke-miterlimit:10;}
	.st14{fill:none;stroke:#000000;stroke-width:1.7;stroke-linecap:round;stroke-linejoin:round;stroke-miterlimit:10;}
	.st15{fill:none;stroke:#000000;stroke-width:3;stroke-linecap:round;stroke-linejoin:round;stroke-miterlimit:10;}
	.st16{fill:none;stroke:#000000;stroke-width:1.8;stroke-linecap:round;stroke-linejoin:round;stroke-miterlimit:10;}
	.st17{fill:none;stroke:#000000;stroke-width:1.6;stroke-linecap:round;stroke-linejoin:round;stroke-miterlimit:10;}
	.st18{fill:none;stroke:#231F20;stroke-width:2;stroke-miterlimit:10;}
	.st19{fill:#0A1423;}
	.st20{fill:#F4831F;}
	.st21{fill:none;stroke:#000000;stroke-width:0.4736;stroke-miterlimit:10;}
	.st22{fill:none;stroke:#000000;stroke-width:0.431;stroke-miterlimit:10;}
	.st23{fill-rule:evenodd;clip-rule:evenodd;fill:none;stroke:#000000;stroke-width:0.6314;stroke-miterlimit:10;}
	.st24{fill-rule:evenodd;clip-rule:evenodd;fill:none;stroke:#231F20;stroke-width:0.4567;stroke-miterlimit:10;}
	.st25{fill-rule:evenodd;clip-rule:evenodd;fill:none;stroke:#231F20;stroke-width:0.2284;stroke-miterlimit:10;}
	.st26{fill:none;stroke:#000000;stroke-width:0.419;stroke-miterlimit:10;}
	.st27{fill:none;stroke:#000000;stroke-width:0.3813;stroke-miterlimit:10;}
	.st28{fill:#FFFFFF;stroke:#000000;stroke-width:0.419;stroke-miterlimit:10;}
	.st29{fill-rule:evenodd;clip-rule:evenodd;fill:none;stroke:#000000;stroke-width:0.5586;stroke-miterlimit:10;}
	.st30{fill-rule:evenodd;clip-rule:evenodd;fill:#FFFFFF;}
	.st31{fill-rule:evenodd;clip-rule:evenodd;fill:#FFFFFF;stroke:#231F20;stroke-width:0.2682;stroke-miterlimit:10;}
	.st32{fill-rule:evenodd;clip-rule:evenodd;}
	.st33{fill:none;stroke:#000000;stroke-width:2;stroke-miterlimit:10;}
	.st34{fill:#FFFFFF;}
	.st35{opacity:0.85;}
</style>
<g id="Layer_1">
	<g>
		<path class="st2" d="M26.7,22.9c-1.3-0.8-2.6-0.9-3.7-0.3c-0.3-1.2-0.9-2.6-1.8-3.4c-0.1-0.1-0.3-0.1-0.4,0
			c-0.1,0.1-0.1,0.3,0,0.4c0.8,0.9,1.4,2.4,1.7,3.5c0.2,1,0.3,3-0.1,4c-0.1,0.2,0,0.3,0.2,0.4h0.1c0.1,0,0.2-0.1,0.3-0.2
			c0.4-1,0.4-3,0.2-4.1c1.3-0.6,2.5-0.2,3.3,0.2c2.1,1.2,3.6,3.7,3.6,5.2c0,0.2,0.1,0.3,0.3,0.3c0.2,0,0.3-0.1,0.3-0.3
			C30.7,27,28.9,24.2,26.7,22.9z"/>
		<path class="st2" d="M18.3,32.1c0.1-0.1,0.1-0.3,0-0.4s-0.3-0.1-0.4,0c0,0-3,3.8,0.5,7.8c0.1,0.1,0.1,0.1,0.2,0.1s0.1,0,0.2-0.1
			c0.1-0.1,0.1-0.3,0-0.4C15.6,35.5,18.2,32.1,18.3,32.1z"/>
		<path class="st2" d="M45.6,33.7c-0.2,0.1-0.2,0.2-0.2,0.4c0,0,0.9,2.6-0.4,4.4c-0.8,1.2-2.4,1.9-4.7,2c-0.2,0-0.3,0.1-0.3,0.3
			s0.1,0.3,0.3,0.3l0,0c2.5-0.1,4.2-0.8,5.1-2.2c1.4-2.1,0.5-4.8,0.4-4.9C46,33.7,45.8,33.7,45.6,33.7z"/>
		<path class="st2" d="M56.2,21.5L56.2,21.5c0.4-1,0.5-2.1,0.5-3c-0.1-3-2.1-5.8-5.1-7.3c-3-1.5-6.8-1.6-10.4-0.2
			c-2.3-5.9-7.3-6.1-10.2-6.3h-0.6C28.2,4.6,23,6,20.6,8.2c-0.7,0.6-1.1,1.3-1.2,2c-0.8-0.5-1.5-0.8-2.2-1C14.4,8.3,11,8.8,9.8,9.8
			c-2.2,1.7-5,5.3-4,8.9c-0.9,0.8-5.4,5.2-5,10.7C1,33,3.5,36.4,8,39.2c0,0,0.1,0,0.2,0h0.1c1.5,3.1,4,6.2,7.5,7.2
			c0.7,0.2,1.5,0.3,2.2,0.3c4,0,7.9-3,11.2-6.6c1.3,4.7,4.1,8,7.9,9.1c0.9,0.3,1.8,0.4,2.6,0.4c0.8,0,1.7-0.1,2.6-0.3
			c0.6,1.3,4.8,10,11.5,10c0.8,0,1.6-0.1,2.4-0.3l0,0c0.1,0,0.1,0,0.1-0.1c0.1-0.2,3-4,2.6-7.4c-0.2-1.2-0.7-2.2-1.7-2.8
			c0.5-1.6,0.4-3.4-0.4-5.6c3.4-1.7,5.5-3.7,6.3-6.2C64.9,30.8,58.3,23.7,56.2,21.5z M56.2,49.4c-1.2,2.1-3.7,2.5-3.7,2.5
			c-0.2,0-0.3,0.2-0.2,0.3c0,0.1,0.2,0.3,0.3,0.3l0,0c0.1,0,2.7-0.5,4.1-2.7c0.1-0.1,0.1-0.3,0.2-0.4c0.7,0.6,1.2,1.4,1.3,2.4
			c0.4,2.8-2.1,6.3-2.5,6.9c-3.4,1-6.7-0.4-9.7-3.9c-1.9-2.3-3.1-4.7-3.4-5.6c1.9-0.6,3.8-1.6,5.7-3.1h0.1c0,0,0,0,0.1,0
			c3-0.7,5.7-1.5,7.9-2.5C57.1,45.9,57.1,47.8,56.2,49.4z M62.4,36.8c-1.2,3.8-5.7,6.6-13.4,8.3c0.1-0.1,0.2-0.2,0.3-0.2
			c1.7-1.6,3-3.2,4.2-6.1c0.1-0.2,0-0.3-0.2-0.4s-0.3,0-0.4,0.2c-1.2,2.7-2.5,4.3-4.1,5.9c-4,3.7-8.2,5.2-12,4.1
			c-3.6-1.1-6.4-4.4-7.6-9.1c1-1.1,1.9-2.3,2.6-3.4c0.1,0,0.1,0,0.2,0c3.5,0,5.8-2.4,5.8-2.5c0.1-0.1,0.1-0.3,0-0.4s-0.3-0.1-0.4,0
			c0,0-3.9,4.3-9.8,1c-0.1-0.1-0.3,0-0.4,0.1c-0.1,0.1,0,0.3,0.1,0.4c1.4,0.8,2.7,1.2,3.8,1.3c-5.6,7.7-11,11.1-15.6,9.8
			c-5.5-1.5-8.4-8.8-8.7-12.2c0-0.2-0.2-0.3-0.3-0.3c-0.2,0-0.3,0.2-0.3,0.3c0.1,1.3,0.6,2.9,1.3,4.7c-4.1-2.6-6.4-5.8-6.6-9.1
			c-0.4-4.8,3.4-8.9,4.6-10c0.3,0.4,0.5,0.9,0.8,1.4c1.4,2.1,3.5,2.7,3.6,2.8l0,0c-0.5,0.5-0.8,1.3-0.8,1.9l-0.4,2.8
			c0,0.2,0.1,0.3,0.3,0.3l0,0c0.1,0,0.3-0.1,0.3-0.3l0.4-2.8c0.1-0.9,0.8-2,1.6-2.2l2.7-0.4c0.2,0,0.3-0.2,0.3-0.3
			c0-0.2-0.2-0.3-0.3-0.3l-2.8,0.4c-0.3,0.1-0.6,0.3-0.9,0.5c0-0.1-0.1-0.2-0.2-0.2c0,0-2-0.7-3.3-2.6C4.2,16.4,7.5,12,9.9,10.2
			c1-0.8,4-1.4,7.1-0.5c1.8,0.6,4,1.9,4.9,4.9c0,0.2,0.2,0.3,0.4,0.2c0.2,0,0.2-0.2,0.2-0.4c-0.5-1.8-1.6-3-2.6-3.9
			c0-0.6,0.4-1.3,1.1-1.9C23,6.5,28,5.1,30.2,5.3h0.6c3,0.2,7.7,0.4,9.7,5.9c-1.4,0.6-2.8,1.4-4.2,2.3c-2.4-0.7-4.9-0.1-5,0
			c-0.2,0-0.3,0.2-0.2,0.4c0.1,0.2,0.2,0.3,0.4,0.2c0,0,3.3-0.9,5.8,0.5c1.2,0.7,1.9,1.7,2.3,3.1c0,0.1,0.2,0.2,0.3,0.2h0.1
			c0.2,0,0.3-0.2,0.2-0.4c-0.4-1.6-1.3-2.7-2.6-3.4c-0.2-0.1-0.4-0.2-0.5-0.3c4.8-3.2,10.1-4,14.2-2.1c2.8,1.4,4.6,3.9,4.8,6.8
			c0.1,3.3-2.1,6.6-6.3,9c-0.1,0.1-0.2,0.3-0.1,0.4c0.1,0.1,0.2,0.1,0.3,0.1s0.1,0,0.2,0C53,26.3,55,24.2,56,22
			C58.1,24.4,64.2,31.1,62.4,36.8z"/>
	</g>
</g>
<g id="Layer_2">
</g>
</svg>
