<?xml version="1.0" encoding="utf-8"?>
<!-- Generator: Adobe Illustrator 22.0.1, SVG Export Plug-In . SVG Version: 6.00 Build 0)  -->
<svg version="1.1" xmlns="http://www.w3.org/2000/svg" xmlns:xlink="http://www.w3.org/1999/xlink" x="0px" y="0px"
	 viewBox="0 0 64 64" style="enable-background:new 0 0 64 64;" xml:space="preserve">
<style type="text/css">
	.st0{fill:#231F20;}
	.st1{fill-rule:evenodd;clip-rule:evenodd;fill:#231F20;}
	.st2{fill:none;stroke:#000000;stroke-width:1.4;stroke-miterlimit:10;}
	.st3{fill:none;stroke:#231F20;stroke-width:2.2;stroke-miterlimit:10;}
	.st4{fill:none;stroke:#231F20;stroke-width:3;stroke-linecap:round;stroke-miterlimit:10;}
	.st5{fill:none;stroke:#231F20;stroke-width:2.2;stroke-linecap:round;stroke-linejoin:round;stroke-miterlimit:10;}
	.st6{fill:none;stroke:#000000;stroke-width:2.2;stroke-linecap:round;stroke-linejoin:round;stroke-miterlimit:10;}
	.st7{fill:none;stroke:#231F20;stroke-width:2.2;stroke-linecap:round;stroke-miterlimit:10;}
	.st8{fill:none;stroke:#000000;stroke-width:2.2;stroke-miterlimit:10;}
	.st9{fill:none;stroke:#000000;stroke-width:2;stroke-linecap:round;stroke-linejoin:round;stroke-miterlimit:10;}
	.st10{fill:none;stroke:#000000;stroke-width:1.8;stroke-linejoin:round;stroke-miterlimit:10;}
	
		.st11{fill-rule:evenodd;clip-rule:evenodd;fill:none;stroke:#000000;stroke-width:2.2;stroke-linecap:round;stroke-linejoin:round;stroke-miterlimit:10;}
	.st12{fill:#221F1F;}
	.st13{fill:none;stroke:#000000;stroke-width:1.8;stroke-miterlimit:10;}
	.st14{fill:none;stroke:#000000;stroke-width:1.7;stroke-linecap:round;stroke-linejoin:round;stroke-miterlimit:10;}
	.st15{fill:none;stroke:#000000;stroke-width:3;stroke-linecap:round;stroke-linejoin:round;stroke-miterlimit:10;}
	.st16{fill:none;stroke:#000000;stroke-width:1.8;stroke-linecap:round;stroke-linejoin:round;stroke-miterlimit:10;}
	.st17{fill:none;stroke:#000000;stroke-width:1.6;stroke-linecap:round;stroke-linejoin:round;stroke-miterlimit:10;}
	.st18{fill:none;stroke:#231F20;stroke-width:2;stroke-miterlimit:10;}
	.st19{fill:#0A1423;}
	.st20{fill:#F4831F;}
	.st21{fill:none;stroke:#000000;stroke-width:0.4736;stroke-miterlimit:10;}
	.st22{fill:none;stroke:#000000;stroke-width:0.431;stroke-miterlimit:10;}
	.st23{fill-rule:evenodd;clip-rule:evenodd;fill:none;stroke:#000000;stroke-width:0.6314;stroke-miterlimit:10;}
	.st24{fill-rule:evenodd;clip-rule:evenodd;fill:none;stroke:#231F20;stroke-width:0.4567;stroke-miterlimit:10;}
	.st25{fill-rule:evenodd;clip-rule:evenodd;fill:none;stroke:#231F20;stroke-width:0.2284;stroke-miterlimit:10;}
	.st26{fill:none;stroke:#000000;stroke-width:0.419;stroke-miterlimit:10;}
	.st27{fill:none;stroke:#000000;stroke-width:0.3813;stroke-miterlimit:10;}
	.st28{fill:#FFFFFF;stroke:#000000;stroke-width:0.419;stroke-miterlimit:10;}
	.st29{fill-rule:evenodd;clip-rule:evenodd;fill:none;stroke:#000000;stroke-width:0.5586;stroke-miterlimit:10;}
	.st30{fill-rule:evenodd;clip-rule:evenodd;fill:#FFFFFF;}
	.st31{fill-rule:evenodd;clip-rule:evenodd;fill:#FFFFFF;stroke:#231F20;stroke-width:0.2682;stroke-miterlimit:10;}
	.st32{fill-rule:evenodd;clip-rule:evenodd;}
	.st33{fill:none;stroke:#000000;stroke-width:2;stroke-miterlimit:10;}
	.st34{fill:#FFFFFF;}
	.st35{opacity:0.85;}
</style>
<g id="Layer_1">
	<path class="st0" d="M31.9,64C14.3,64,0,49.6,0,31.9S14.4,0,32.1,0S64,14.4,64,32.1S49.6,64,31.9,64z M32.1,2.4
		C15.8,2.4,2.5,15.6,2.4,31.9s13.2,29.6,29.5,29.6c16.3,0,29.6-13.2,29.6-29.5C61.6,15.8,48.4,2.5,32.1,2.4z"/>
	<g>
		<rect x="13.6" y="19.7" transform="matrix(0.847 0.5316 -0.5316 0.847 16.3895 -4.5417)" class="st6" width="4.9" height="13.1"/>
		
			<rect x="45.4" y="19.8" transform="matrix(-0.8483 0.5295 -0.5295 -0.8483 102.4509 22.5215)" class="st6" width="5.2" height="12.3"/>
		<path class="st6" d="M26.6,24.9c-2.8,0.4-4.7-1.3-4.7-1.3"/>
		<path class="st6" d="M42.2,23.6l-1.5,0.5c0,0-3.8-1.1-6.4-1.1s-6.3,0.9-7.1,1.7c-0.8,0.9-3.2,4.1-3.2,4.1s0.2,1.3,0.6,1.8
			c0.4,0.5,2-0.3,2-0.3l5.4-2.8l12.9,8.4l3.1-3.5"/>
		<path class="st16" d="M42.7,38.6c0,0,2.5-0.1,2.1-2.5"/>
		<line class="st16" x1="35.6" y1="34.5" x2="42.7" y2="38.6"/>
		<path class="st16" d="M39.8,41c0,0,2.1,0.5,2.3-1.7"/>
		<line class="st16" x1="34.1" y1="38" x2="39.8" y2="41"/>
		<path class="st16" d="M37.3,43.6c0,0,2.6-0.1,2.1-2.9"/>
		<path class="st16" d="M34.4,44.8c0,0,0.8,0.2,2-1.2l0.8,0l-4.5-2.1"/>
		<line class="st16" x1="29.7" y1="44.3" x2="34.4" y2="44.8"/>
		<line class="st6" x1="16.3" y1="32.2" x2="19" y2="35.8"/>
		<path class="st17" d="M18.7,39.9L18.7,39.9c-0.6-0.4-0.8-1.3-0.4-1.9l1.6-2.4c0.4-0.6,1.3-0.8,1.9-0.4l0,0
			c0.6,0.4,0.8,1.3,0.4,1.9l-1.6,2.4C20.2,40.2,19.3,40.3,18.7,39.9z"/>
		<path class="st17" d="M27.1,44.8L27.1,44.8c-0.6-0.4-0.8-1.3-0.4-1.9l1.1-1.6c0.4-0.6,1.3-0.8,1.9-0.4h0c0.6,0.4,0.8,1.3,0.4,1.9
			L29,44.4C28.6,45,27.8,45.2,27.1,44.8z"/>
		<path class="st17" d="M21.3,42.4l-0.4-0.3c-0.6-0.4-0.8-1.3-0.4-1.9l3-4.5c0.4-0.6,1.3-0.8,1.9-0.4l0.4,0.3
			c0.6,0.4,0.8,1.3,0.4,1.9l-3,4.5C22.8,42.7,21.9,42.8,21.3,42.4z"/>
		<path class="st17" d="M24.2,43.9l-0.4-0.3c-0.6-0.4-0.8-1.3-0.4-1.9l2.4-3.5c0.4-0.6,1.3-0.8,1.9-0.4l0.4,0.3
			c0.6,0.4,0.8,1.3,0.4,1.9l-2.4,3.5C25.7,44.1,24.9,44.3,24.2,43.9z"/>
	</g>
</g>
<g id="Layer_2">
</g>
</svg>
