<?xml version="1.0" encoding="utf-8"?>
<!-- Generator: Adobe Illustrator 22.0.1, SVG Export Plug-In . SVG Version: 6.00 Build 0)  -->
<svg version="1.1" id="Layer_1" xmlns="http://www.w3.org/2000/svg" xmlns:xlink="http://www.w3.org/1999/xlink" x="0px" y="0px"
	 viewBox="0 0 64 64" style="enable-background:new 0 0 64 64;" xml:space="preserve">
<style type="text/css">
	.st0{fill:#231F20;}
</style>
<g>
	<path class="st0" d="M32,0C14.4,0,0,14.4,0,32s14.4,32,32,32s32-14.4,32-32S49.6,0,32,0z M32,61.6C15.7,61.6,2.4,48.3,2.4,32
		S15.7,2.4,32,2.4S61.6,15.7,61.6,32S48.3,61.6,32,61.6z"/>
	<path class="st0" d="M20.3,35c-0.8,0-1.5,0.7-1.5,1.5v8.7c0,0.8,0.7,1.5,1.5,1.5s1.5-0.7,1.5-1.5v-8.7C21.8,35.7,21.1,35,20.3,35z"
		/>
	<path class="st0" d="M28.1,29c-0.8,0-1.5,0.7-1.5,1.5v14.7c0,0.8,0.7,1.5,1.5,1.5s1.5-0.7,1.5-1.5V30.5C29.6,29.7,28.9,29,28.1,29z
		"/>
	<path class="st0" d="M35.9,23.2c-0.8,0-1.5,0.7-1.5,1.5v20.5c0,0.8,0.7,1.5,1.5,1.5s1.5-0.7,1.5-1.5V24.7
		C37.4,23.9,36.7,23.2,35.9,23.2z"/>
	<path class="st0" d="M43.7,17.3c-0.8,0-1.5,0.7-1.5,1.5v26.4c0,0.8,0.7,1.5,1.5,1.5s1.5-0.7,1.5-1.5V18.8
		C45.2,18,44.5,17.3,43.7,17.3z"/>
</g>
<g id="Layer_2_1_">
</g>
</svg>
