<?xml version="1.0" encoding="utf-8"?>
<!-- Generator: Adobe Illustrator 22.0.1, SVG Export Plug-In . SVG Version: 6.00 Build 0)  -->
<svg version="1.1" id="Layer_1" xmlns="http://www.w3.org/2000/svg" xmlns:xlink="http://www.w3.org/1999/xlink" x="0px" y="0px"
	 viewBox="0 0 64 64" style="enable-background:new 0 0 64 64;" xml:space="preserve">
<g>
	<path d="M20.1,17.8c0-0.1,0-0.1-0.1-0.2c-0.2,0.6-0.4,1.3-0.7,2c-0.5-1.2-1.1-2.3-2-3.2c-0.3,2.4-0.8,4.8-2.3,6.9
		c-0.3-0.8-0.5-1.5-0.8-2.2c0,0.1-0.1,0.1-0.1,0.2c-0.3,1.2-0.8,2.5-1,3.7c-0.4,1.8,0,3.4,1.2,4.8c1.1,1.3,2.4,1.9,4.1,1.5
		c1.6-0.3,2.6-1.4,3.3-2.9c0.6-1.4,0.6-2.8,0.2-4.2C21.3,22.1,20.7,20,20.1,17.8z"/>
	<path d="M58.7,9C58.7,9,58.7,8.9,58.7,9C53.4,4,46.8,4.6,45,4.9c-6.6,0.8-10.8,5.2-13,8.1c-1.8-2.5-6.1-7.3-13-8.1
		c-1.3-0.2-8.2-1.1-13.6,3.9C5.1,9.1-0.7,14,0.1,22.1c0.2,2.7,1.3,6.7,5.2,10.6l11.6,11.9c3.8,4,14.2,14.3,14.3,14.4
		c0.2,0.2,0.5,0.3,0.8,0.3c0,0,0,0,0,0c0.3,0,0.6-0.1,0.8-0.3c4.8-5,9.9-10.1,14.8-15c3.7-3.8,7.5-7.5,11-11.2
		c1.4-1.3,4.9-4.9,5.3-10.6C64.5,15.4,60.5,10.7,58.7,9z M61.7,21.9c-0.3,4.9-3.3,8-4.6,9.2c-3.6,3.7-7.4,7.5-11.1,11.2
		c-4.6,4.7-9.4,9.5-14,14.3C29.5,54.1,21.6,46.3,18.5,43l-11.7-12c-3.4-3.4-4.3-6.8-4.5-9.2C1.6,15,6.8,10.6,6.8,10.5
		c3.3-3,7.1-3.6,9.6-3.6c1.1,0,1.9,0.1,2.2,0.2c8,0.9,11.9,7.7,12.4,8.4c0.2,0.3,0.5,0.6,0.9,0.6c0.4,0,0.8-0.2,1-0.5l0.1-0.1
		c1.4-2.3,5.4-7.6,12.3-8.4c1.6-0.3,7.4-0.8,11.9,3.4c0,0,0.1,0.1,0.1,0.1C58.7,12,62.2,16.1,61.7,21.9z"/>
</g>
<g id="Layer_2_1_">
</g>
</svg>
