<?xml version="1.0" encoding="utf-8"?>
<!-- Generator: Adobe Illustrator 22.0.1, SVG Export Plug-In . SVG Version: 6.00 Build 0)  -->
<svg version="1.1" xmlns="http://www.w3.org/2000/svg" xmlns:xlink="http://www.w3.org/1999/xlink" x="0px" y="0px"
	 viewBox="0 0 64 64" style="enable-background:new 0 0 64 64;" xml:space="preserve">
<style type="text/css">
	.st0{fill:#231F20;}
	.st1{fill-rule:evenodd;clip-rule:evenodd;fill:#231F20;}
	.st2{fill:none;stroke:#231F20;stroke-width:2.2;stroke-miterlimit:10;}
	.st3{fill:none;stroke:#231F20;stroke-width:3;stroke-linecap:round;stroke-miterlimit:10;}
	.st4{fill:none;stroke:#231F20;stroke-width:2.2;stroke-linecap:round;stroke-linejoin:round;stroke-miterlimit:10;}
	.st5{fill:none;stroke:#000000;stroke-width:2.2;stroke-linecap:round;stroke-linejoin:round;stroke-miterlimit:10;}
	.st6{fill:none;stroke:#231F20;stroke-width:2.2;stroke-linecap:round;stroke-miterlimit:10;}
	.st7{fill:none;stroke:#000000;stroke-width:2.2;stroke-miterlimit:10;}
	.st8{fill:none;stroke:#000000;stroke-width:2;stroke-linecap:round;stroke-linejoin:round;stroke-miterlimit:10;}
	.st9{fill:none;stroke:#000000;stroke-width:1.8;stroke-linejoin:round;stroke-miterlimit:10;}
	
		.st10{fill-rule:evenodd;clip-rule:evenodd;fill:none;stroke:#000000;stroke-width:2.2;stroke-linecap:round;stroke-linejoin:round;stroke-miterlimit:10;}
	.st11{fill:#221F1F;}
	.st12{fill:none;stroke:#000000;stroke-width:1.8;stroke-miterlimit:10;}
	.st13{fill:none;stroke:#000000;stroke-width:1.7;stroke-linecap:round;stroke-linejoin:round;stroke-miterlimit:10;}
	.st14{fill:none;stroke:#000000;stroke-width:1.8;stroke-linecap:round;stroke-linejoin:round;stroke-miterlimit:10;}
	.st15{fill:none;stroke:#000000;stroke-width:1.6;stroke-linecap:round;stroke-linejoin:round;stroke-miterlimit:10;}
	.st16{fill:#0A1423;}
	.st17{fill:#F4831F;}
	.st18{fill:none;stroke:#000000;stroke-width:0.4736;stroke-miterlimit:10;}
	.st19{fill:none;stroke:#000000;stroke-width:0.431;stroke-miterlimit:10;}
	.st20{fill-rule:evenodd;clip-rule:evenodd;fill:none;stroke:#000000;stroke-width:0.6314;stroke-miterlimit:10;}
	.st21{fill-rule:evenodd;clip-rule:evenodd;fill:none;stroke:#231F20;stroke-width:0.4567;stroke-miterlimit:10;}
	.st22{fill-rule:evenodd;clip-rule:evenodd;fill:none;stroke:#231F20;stroke-width:0.2284;stroke-miterlimit:10;}
	.st23{fill:none;stroke:#000000;stroke-width:0.419;stroke-miterlimit:10;}
	.st24{fill:none;stroke:#000000;stroke-width:0.3813;stroke-miterlimit:10;}
	.st25{fill:#FFFFFF;stroke:#000000;stroke-width:0.419;stroke-miterlimit:10;}
	.st26{fill-rule:evenodd;clip-rule:evenodd;fill:none;stroke:#000000;stroke-width:0.5586;stroke-miterlimit:10;}
	.st27{fill-rule:evenodd;clip-rule:evenodd;fill:#FFFFFF;}
	.st28{fill-rule:evenodd;clip-rule:evenodd;fill:#FFFFFF;stroke:#231F20;stroke-width:0.2682;stroke-miterlimit:10;}
	.st29{fill-rule:evenodd;clip-rule:evenodd;}
	.st30{fill:none;stroke:#000000;stroke-width:2;stroke-miterlimit:10;}
	.st31{fill:#FFFFFF;}
	.st32{opacity:0.85;}
</style>
<g id="Layer_1">
	<g>
		<path d="M32,0C14.4,0,0,14.4,0,32s14.4,32,32,32s32-14.4,32-32S49.6,0,32,0z M32,61.6C15.7,61.6,2.4,48.3,2.4,32S15.7,2.4,32,2.4
			S61.6,15.7,61.6,32S48.3,61.6,32,61.6z"/>
		<path d="M48.2,15.3c-0.4-0.3-0.9-0.3-1.3-0.1l-9.6,4l-9.9-4c0,0,0,0,0,0c-0.3-0.2-0.8-0.2-1.1-0.1L16,19.3
			c-0.5,0.2-0.9,0.7-0.9,1.3v26.8c0,0.5,0.2,0.9,0.7,1.2c0.2,0.1,0.5,0.2,0.8,0.2c0.2,0,0.4,0,0.6-0.1l9.6-4.5l9.9,4.7
			c0.1,0,0.2,0.1,0.3,0.1c0.1,0,0.2,0.1,0.4,0.1c0.2,0,0.3,0,0.5-0.1L48,44c0,0,0,0,0,0c0.5-0.2,0.8-0.7,0.8-1.3V16.5
			C48.9,16,48.6,15.6,48.2,15.3z M25.6,42.3l-8.3,3.9v-25l8.3-3.5V42.3z M36.2,46.2l-8.3-3.9V17.8l8.3,3.4V46.2z M46.7,42.3
			l-8.3,3.9v-25l8.3-3.5V42.3z"/>
	</g>
</g>
<g id="Layer_2">
</g>
</svg>
