<?xml version="1.0" encoding="utf-8"?>
<!-- Generator: Adobe Illustrator 22.0.1, SVG Export Plug-In . SVG Version: 6.00 Build 0)  -->
<svg version="1.1" id="Layer_1" xmlns="http://www.w3.org/2000/svg" xmlns:xlink="http://www.w3.org/1999/xlink" x="0px" y="0px"
	 viewBox="0 0 64 64" style="enable-background:new 0 0 64 64;" xml:space="preserve">
<g>
	<path d="M32,0C14.4,0,0,14.4,0,32s14.4,32,32,32s32-14.4,32-32S49.6,0,32,0z M32,61.6C15.7,61.6,2.4,48.3,2.4,32S15.7,2.4,32,2.4
		S61.6,15.7,61.6,32S48.3,61.6,32,61.6z"/>
	<path d="M46.2,42.2h-0.5V27.3C45.6,20.9,41,15.8,34.9,15l0.5,0c0-0.1,0-1.4-0.9-2.4c-0.4-0.4-1.2-1-2.5-1c-2.6,0-3.5,2-3.5,3.4
		l0.1,0c-5.8,1-10.2,6.1-10.2,12.2v14.9h-0.5c-1.9,0-3.5,1.6-3.5,3.5c0,1.9,1.6,3.5,3.5,3.5h10.2c0.1,0.6,0.4,1.2,0.8,1.7
		c0.8,0.9,1.9,1.4,3.1,1.4c1.2,0,2.3-0.5,3.1-1.4c0.4-0.5,0.7-1.1,0.8-1.7h10.2c2,0,3.6-1.6,3.6-3.5C49.7,43.8,48.1,42.2,46.2,42.2z
		 M32,13.9c0.4,0,0.7,0.1,0.9,0.3c0.2,0.2,0.3,0.6,0.3,0.7h-2.4c0,0-0.1,0-0.1,0C30.8,14.5,31.1,13.9,32,13.9z M20.6,27.3
		c0-5.6,4.6-10.2,10.2-10.2h2.4c5.7,0,10.2,4.5,10.3,10.2v14.8H20.6V27.3z M33.4,49.4c-0.3,0.4-0.9,0.7-1.4,0.7
		c-0.5,0-1.1-0.3-1.4-0.7c-0.1-0.1-0.1-0.2-0.2-0.2h3.1C33.5,49.3,33.4,49.4,33.4,49.4z M46.1,47H17.9c-0.7,0-1.3-0.6-1.3-1.3
		s0.6-1.3,1.3-1.3h28.3c0.7,0,1.3,0.6,1.3,1.3C47.5,46.4,46.9,47,46.1,47z"/>
</g>
<g id="Layer_2_1_">
</g>
</svg>
