<?xml version="1.0" encoding="utf-8"?>
<!-- Generator: Adobe Illustrator 22.0.1, SVG Export Plug-In . SVG Version: 6.00 Build 0)  -->
<svg version="1.1" id="Layer_1" xmlns="http://www.w3.org/2000/svg" xmlns:xlink="http://www.w3.org/1999/xlink" x="0px" y="0px"
	 viewBox="0 0 64 64" style="enable-background:new 0 0 64 64;" xml:space="preserve">
<g>
	<path d="M32,0C14.4,0,0,14.4,0,32s14.4,32,32,32s32-14.4,32-32S49.6,0,32,0z M32,61.6C15.7,61.6,2.4,48.3,2.4,32S15.7,2.4,32,2.4
		S61.6,15.7,61.6,32S48.3,61.6,32,61.6z"/>
	<path d="M20.4,38.8h-3.9c-0.8,0-1.4,0.6-1.4,1.4v8.3c0,0.8,0.6,1.4,1.4,1.4h3.9c0.8,0,1.4-0.6,1.4-1.4v-8.3
		C21.8,39.4,21.2,38.8,20.4,38.8z M19.6,47.7h-2.3V41h2.3V47.7z"/>
	<path d="M29.3,29.9h-3.9c-0.7,0-1.4,0.6-1.4,1.4v17.3c0,0.8,0.6,1.4,1.4,1.4h3.9c0.8,0,1.4-0.6,1.4-1.4V31.3
		C30.7,30.5,30.1,29.9,29.3,29.9z M28.5,47.8h-2.3V32.1h2.3V47.8z"/>
	<path d="M38.3,34.4h-3.9c-0.8,0-1.4,0.6-1.4,1.4v12.9c0,0.8,0.6,1.4,1.4,1.4h3.9c0.8,0,1.4-0.6,1.4-1.4V35.8
		C39.7,35,39.1,34.4,38.3,34.4z M37.5,47.9h-2.3V36.6h2.3V47.9z"/>
	<path d="M47.2,24h-3.9c-0.8,0-1.4,0.6-1.4,1.4v23.2c0,0.8,0.6,1.4,1.4,1.4h3.9c0.8,0,1.4-0.6,1.4-1.4V25.4C48.6,24.6,48,24,47.2,24
		z M46.4,47.8h-2.3V26.2h2.3V47.8z"/>
	<path d="M47.6,13.9c-0.1,0-0.2,0-0.3,0l-2.5,0.6c-0.5,0.1-0.8,0.6-0.8,1.1v0.1c0,0.3,0.1,0.6,0.3,0.8l0.1,0.1l-8.6,7.9l-8.6-4
		c-0.4-0.2-0.9-0.1-1.2,0.2L17,29.1c-0.4,0.4-0.5,1.1,0,1.6c0.2,0.2,0.5,0.3,0.8,0.3c0.3,0,0.5-0.1,0.8-0.3l8.4-8l8.6,4
		c0.4,0.2,0.9,0.1,1.2-0.2l9.1-8.4l0.2,0.2c0.2,0.2,0.6,0.3,0.9,0.3c0.5,0,0.9-0.3,1.1-0.8l0.7-2.5c0-0.1,0-0.2,0-0.3
		C48.8,14.4,48.3,13.9,47.6,13.9z"/>
</g>
<g id="Layer_2_1_">
</g>
</svg>
