<?xml version="1.0" encoding="utf-8"?>
<!-- Generator: Adobe Illustrator 22.0.1, SVG Export Plug-In . SVG Version: 6.00 Build 0)  -->
<svg version="1.1" xmlns="http://www.w3.org/2000/svg" xmlns:xlink="http://www.w3.org/1999/xlink" x="0px" y="0px"
	 viewBox="0 0 64 64" style="enable-background:new 0 0 64 64;" xml:space="preserve">
<style type="text/css">
	.st0{fill:#231F20;}
	.st1{fill-rule:evenodd;clip-rule:evenodd;fill:#231F20;}
	.st2{fill:none;stroke:#231F20;stroke-width:2.2;stroke-miterlimit:10;}
	.st3{fill:none;stroke:#231F20;stroke-width:3;stroke-linecap:round;stroke-miterlimit:10;}
	.st4{fill:none;stroke:#231F20;stroke-width:2.2;stroke-linecap:round;stroke-linejoin:round;stroke-miterlimit:10;}
	.st5{fill:none;stroke:#000000;stroke-width:2.2;stroke-linecap:round;stroke-linejoin:round;stroke-miterlimit:10;}
	.st6{fill:none;stroke:#231F20;stroke-width:2.2;stroke-linecap:round;stroke-miterlimit:10;}
	.st7{fill:none;stroke:#000000;stroke-width:2.2;stroke-miterlimit:10;}
	.st8{fill:none;stroke:#000000;stroke-width:2;stroke-linecap:round;stroke-linejoin:round;stroke-miterlimit:10;}
	
		.st9{fill-rule:evenodd;clip-rule:evenodd;fill:none;stroke:#000000;stroke-width:2.2;stroke-linecap:round;stroke-linejoin:round;stroke-miterlimit:10;}
	.st10{fill:#221F1F;}
	.st11{fill:none;stroke:#000000;stroke-width:1.8;stroke-miterlimit:10;}
	.st12{fill:none;stroke:#000000;stroke-width:1.7;stroke-linecap:round;stroke-linejoin:round;stroke-miterlimit:10;}
	.st13{fill:none;stroke:#000000;stroke-width:1.8;stroke-linecap:round;stroke-linejoin:round;stroke-miterlimit:10;}
	.st14{fill:none;stroke:#000000;stroke-width:1.6;stroke-linecap:round;stroke-linejoin:round;stroke-miterlimit:10;}
	.st15{fill:#0A1423;}
	.st16{fill:#F4831F;}
	.st17{fill:none;stroke:#000000;stroke-width:0.4736;stroke-miterlimit:10;}
	.st18{fill:none;stroke:#000000;stroke-width:0.431;stroke-miterlimit:10;}
	.st19{fill-rule:evenodd;clip-rule:evenodd;fill:none;stroke:#000000;stroke-width:0.6314;stroke-miterlimit:10;}
	.st20{fill-rule:evenodd;clip-rule:evenodd;fill:none;stroke:#231F20;stroke-width:0.4567;stroke-miterlimit:10;}
	.st21{fill-rule:evenodd;clip-rule:evenodd;fill:none;stroke:#231F20;stroke-width:0.2284;stroke-miterlimit:10;}
	.st22{fill:none;stroke:#000000;stroke-width:0.419;stroke-miterlimit:10;}
	.st23{fill:none;stroke:#000000;stroke-width:0.3813;stroke-miterlimit:10;}
	.st24{fill:#FFFFFF;stroke:#000000;stroke-width:0.419;stroke-miterlimit:10;}
	.st25{fill-rule:evenodd;clip-rule:evenodd;fill:none;stroke:#000000;stroke-width:0.5586;stroke-miterlimit:10;}
	.st26{fill-rule:evenodd;clip-rule:evenodd;fill:#FFFFFF;}
	.st27{fill-rule:evenodd;clip-rule:evenodd;fill:#FFFFFF;stroke:#231F20;stroke-width:0.2682;stroke-miterlimit:10;}
	.st28{fill-rule:evenodd;clip-rule:evenodd;}
	.st29{fill:none;stroke:#000000;stroke-width:2;stroke-miterlimit:10;}
	.st30{fill:#FFFFFF;}
	.st31{opacity:0.85;}
</style>
<g id="Layer_1">
	<g>
		<path d="M32,0C14.4,0,0,14.4,0,32s14.4,32,32,32s32-14.4,32-32S49.6,0,32,0z M32,61.6C15.7,61.6,2.4,48.3,2.4,32S15.7,2.4,32,2.4
			S61.6,15.7,61.6,32S48.3,61.6,32,61.6z"/>
		<path d="M39.5,16.6h-2.5v-3c0-0.6-0.5-1.1-1.1-1.1h-7.5c-0.6,0-1.1,0.5-1.1,1.1v3h-2.9c-1.4,0-2.6,1.2-2.6,2.6V49
			c0,1.4,1.2,2.6,2.6,2.6h15.1c1.4,0,2.6-1.2,2.6-2.6V19.1C42.1,17.7,41,16.6,39.5,16.6z M29.5,14.6h5.3v1.9h-5.3V14.6z M39.9,49
			c0,0.2-0.2,0.4-0.4,0.4H24.5c-0.2,0-0.4-0.2-0.4-0.4V19.1c0-0.2,0.2-0.4,0.4-0.4h4H36h3.6c0.2,0,0.4,0.2,0.4,0.4V49z"/>
		<path d="M36.5,31.5h-2.1v-7.2c0-0.4-0.3-0.8-0.7-0.9c-0.4-0.1-0.8,0.1-1,0.4l-6.5,10.6c-0.2,0.3-0.2,0.6,0,0.9s0.5,0.5,0.8,0.5
			h2.9v7.6c0,0.4,0.3,0.8,0.7,0.9c0.1,0,0.1,0,0.2,0c0.3,0,0.6-0.2,0.8-0.5l5.8-11c0.1-0.3,0.1-0.6,0-0.9S36.8,31.5,36.5,31.5z
			 M31.6,39.7v-4.8c0-0.5-0.4-0.9-0.9-0.9h-2.2l4-6.5v4.9c0,0.5,0.4,0.9,0.9,0.9H35L31.6,39.7z"/>
	</g>
</g>
<g id="Layer_2">
</g>
</svg>
