<?xml version="1.0" encoding="utf-8"?>
<!-- Generator: Adobe Illustrator 22.0.1, SVG Export Plug-In . SVG Version: 6.00 Build 0)  -->
<svg version="1.1" xmlns="http://www.w3.org/2000/svg" xmlns:xlink="http://www.w3.org/1999/xlink" x="0px" y="0px"
	 viewBox="0 0 64 64" style="enable-background:new 0 0 64 64;" xml:space="preserve">
<style type="text/css">
	.st0{fill:#231F20;}
	.st1{fill-rule:evenodd;clip-rule:evenodd;fill:#231F20;}
	.st2{fill:none;stroke:#231F20;stroke-width:2.2;stroke-miterlimit:10;}
	.st3{fill:none;stroke:#231F20;stroke-width:3;stroke-linecap:round;stroke-miterlimit:10;}
	.st4{fill:none;stroke:#231F20;stroke-width:2.2;stroke-linecap:round;stroke-linejoin:round;stroke-miterlimit:10;}
	.st5{fill:none;stroke:#000000;stroke-width:2.2;stroke-linecap:round;stroke-linejoin:round;stroke-miterlimit:10;}
	.st6{fill:none;stroke:#231F20;stroke-width:2.2;stroke-linecap:round;stroke-miterlimit:10;}
	.st7{fill:none;stroke:#000000;stroke-width:2.2;stroke-miterlimit:10;}
	.st8{fill:none;stroke:#000000;stroke-width:2;stroke-linecap:round;stroke-linejoin:round;stroke-miterlimit:10;}
	
		.st9{fill-rule:evenodd;clip-rule:evenodd;fill:none;stroke:#000000;stroke-width:2.2;stroke-linecap:round;stroke-linejoin:round;stroke-miterlimit:10;}
	.st10{fill:#221F1F;}
	.st11{fill:none;stroke:#000000;stroke-width:1.8;stroke-miterlimit:10;}
	.st12{fill:none;stroke:#000000;stroke-width:1.7;stroke-linecap:round;stroke-linejoin:round;stroke-miterlimit:10;}
	.st13{fill:none;stroke:#000000;stroke-width:1.8;stroke-linecap:round;stroke-linejoin:round;stroke-miterlimit:10;}
	.st14{fill:none;stroke:#000000;stroke-width:1.6;stroke-linecap:round;stroke-linejoin:round;stroke-miterlimit:10;}
	.st15{fill:#0A1423;}
	.st16{fill:#F4831F;}
	.st17{fill:none;stroke:#000000;stroke-width:0.4736;stroke-miterlimit:10;}
	.st18{fill:none;stroke:#000000;stroke-width:0.431;stroke-miterlimit:10;}
	.st19{fill-rule:evenodd;clip-rule:evenodd;fill:none;stroke:#000000;stroke-width:0.6314;stroke-miterlimit:10;}
	.st20{fill-rule:evenodd;clip-rule:evenodd;fill:none;stroke:#231F20;stroke-width:0.4567;stroke-miterlimit:10;}
	.st21{fill-rule:evenodd;clip-rule:evenodd;fill:none;stroke:#231F20;stroke-width:0.2284;stroke-miterlimit:10;}
	.st22{fill:none;stroke:#000000;stroke-width:0.419;stroke-miterlimit:10;}
	.st23{fill:none;stroke:#000000;stroke-width:0.3813;stroke-miterlimit:10;}
	.st24{fill:#FFFFFF;stroke:#000000;stroke-width:0.419;stroke-miterlimit:10;}
	.st25{fill-rule:evenodd;clip-rule:evenodd;fill:none;stroke:#000000;stroke-width:0.5586;stroke-miterlimit:10;}
	.st26{fill-rule:evenodd;clip-rule:evenodd;fill:#FFFFFF;}
	.st27{fill-rule:evenodd;clip-rule:evenodd;fill:#FFFFFF;stroke:#231F20;stroke-width:0.2682;stroke-miterlimit:10;}
	.st28{fill-rule:evenodd;clip-rule:evenodd;}
	.st29{fill:none;stroke:#000000;stroke-width:2;stroke-miterlimit:10;}
	.st30{fill:#FFFFFF;}
	.st31{opacity:0.85;}
</style>
<g id="Layer_1">
	<g>
		<path d="M32,0C14.4,0,0,14.4,0,32s14.4,32,32,32s32-14.4,32-32S49.6,0,32,0z M32,61.6C15.7,61.6,2.4,48.3,2.4,32S15.7,2.4,32,2.4
			S61.6,15.7,61.6,32S48.3,61.6,32,61.6z"/>
		<path d="M48.8,20.8l-28.3-2c-0.1-0.4-0.2-0.7-0.2-0.9c-0.9-3.5-5.3-3.6-5.5-3.6c-0.6,0-1.1,0.5-1.1,1.1c0,0.6,0.5,1.1,1.1,1.1
			c0,0,2.9,0,3.4,1.9c0.6,2.4,4.6,15.9,5.6,19.2c-0.9,0.7-1.5,1.8-1.5,3.1c0,1.6,1,3,2.4,3.6c-0.6,0.6-1,1.4-1,2.3
			c0,1.7,1.4,3.2,3.2,3.2c1.7,0,3.2-1.4,3.2-3.2c0-0.8-0.3-1.4-0.7-2h12.9c-0.4,0.5-0.7,1.2-0.7,2c0,1.7,1.4,3.2,3.2,3.2
			s3.2-1.4,3.2-3.2c0-0.8-0.3-1.5-0.8-2c0.4-0.1,0.8-0.5,0.8-1c0-0.6-0.5-1.1-1.1-1.1H26c-0.9,0-1.7-0.7-1.7-1.7
			c0-0.8,0.6-1.5,1.4-1.6l23.5-3.7c0.7-0.1,1.2-0.7,1.1-1.4l-0.3-11.9C50,21.4,49.5,20.8,48.8,20.8z M26.7,47.5c-0.5,0-1-0.4-1-1
			s0.4-1,1-1c0.5,0,1,0.4,1,1S27.2,47.5,26.7,47.5z M44.5,47.5c-0.5,0-1-0.4-1-1s0.4-1,1-1s1,0.4,1,1S45,47.5,44.5,47.5z M25.8,36.8
			c-0.8-2.7-3.3-11-4.7-15.8l26.8,1.9l0.3,10.4L25.8,36.8z"/>
	</g>
</g>
<g id="Layer_2">
</g>
</svg>
