<?xml version="1.0" encoding="utf-8"?>
<!-- Generator: Adobe Illustrator 22.0.1, SVG Export Plug-In . SVG Version: 6.00 Build 0)  -->
<svg version="1.1" xmlns="http://www.w3.org/2000/svg" xmlns:xlink="http://www.w3.org/1999/xlink" x="0px" y="0px"
	 viewBox="0 0 64 64" style="enable-background:new 0 0 64 64;" xml:space="preserve">
<style type="text/css">
	.st0{opacity:0.85;}
	.st1{fill:#231F20;}
	.st2{fill:none;stroke:#231F20;stroke-width:2.2;stroke-linecap:round;stroke-linejoin:round;stroke-miterlimit:10;}
	.st3{fill:#000F23;}
	.st4{clip-path:url(#SVGID_2_);enable-background:new    ;}
	.st5{fill-rule:evenodd;clip-rule:evenodd;fill:#000F23;}
	.st6{fill:none;stroke:#000000;stroke-width:3;stroke-linecap:round;stroke-linejoin:round;stroke-miterlimit:10;}
	.st7{stroke:#000000;stroke-miterlimit:10;}
	.st8{fill:#333333;}
	.st9{fill-rule:evenodd;clip-rule:evenodd;}
</style>
<g id="Layer_1">
</g>
<g id="Layer_2">
	<g>
		<path d="M37.7,60.2c0.4-0.4,0.6-0.9,0.6-1.5c0-0.6-0.2-1-0.6-1.5L12.5,32L37.7,6.8c0.4-0.4,0.6-0.9,0.6-1.5c0-0.6-0.2-1-0.6-1.5
			l-3.2-3.2C34.1,0.2,33.6,0,33,0s-1,0.2-1.5,0.6L1.7,30.5C1.2,31,1,31.4,1,32s0.2,1,0.6,1.5l29.9,29.9C32,63.8,32.5,64,33,64
			s1-0.2,1.5-0.6L37.7,60.2z"/>
		<path d="M26.3,30.5c-0.4,0.4-0.6,0.9-0.6,1.5s0.2,1,0.6,1.5l29.9,29.9c0.4,0.4,0.9,0.6,1.5,0.6s1-0.2,1.5-0.6l3.2-3.2
			c0.4-0.4,0.6-0.9,0.6-1.5c0-0.6-0.2-1-0.6-1.5L37.1,32L62.3,6.8C62.8,6.4,63,5.9,63,5.3c0-0.6-0.2-1-0.6-1.5l-3.2-3.2
			C58.7,0.2,58.2,0,57.7,0s-1,0.2-1.5,0.6L26.3,30.5z"/>
	</g>
	<g>
		<g>
			<defs>
				<rect id="SVGID_1_" x="-2944" y="-1672" width="5760" height="3600"/>
			</defs>
			<clipPath id="SVGID_2_">
				<use xlink:href="#SVGID_1_"  style="overflow:visible;"/>
			</clipPath>
		</g>
	</g>
</g>
</svg>
