<?xml version="1.0" encoding="utf-8"?>
<!-- Generator: Adobe Illustrator 22.0.1, SVG Export Plug-In . SVG Version: 6.00 Build 0)  -->
<svg version="1.1" xmlns="http://www.w3.org/2000/svg" xmlns:xlink="http://www.w3.org/1999/xlink" x="0px" y="0px"
	 viewBox="0 0 64 64" style="enable-background:new 0 0 64 64;" xml:space="preserve">
<style type="text/css">
	.st0{fill:#231F20;}
	.st1{fill-rule:evenodd;clip-rule:evenodd;fill:#231F20;}
	.st2{fill:none;stroke:#000000;stroke-width:1.4;stroke-miterlimit:10;}
	.st3{fill:none;stroke:#231F20;stroke-width:2.2;stroke-miterlimit:10;}
	.st4{fill:none;stroke:#231F20;stroke-width:3;stroke-linecap:round;stroke-miterlimit:10;}
	.st5{fill:none;stroke:#231F20;stroke-width:2.2;stroke-linecap:round;stroke-linejoin:round;stroke-miterlimit:10;}
	.st6{fill:none;stroke:#000000;stroke-width:2.2;stroke-linecap:round;stroke-linejoin:round;stroke-miterlimit:10;}
	.st7{fill:none;stroke:#231F20;stroke-width:2.2;stroke-linecap:round;stroke-miterlimit:10;}
	.st8{fill:none;stroke:#000000;stroke-width:2.2;stroke-miterlimit:10;}
	.st9{fill:none;stroke:#000000;stroke-width:2;stroke-linecap:round;stroke-linejoin:round;stroke-miterlimit:10;}
	.st10{fill:none;stroke:#000000;stroke-width:1.8;stroke-linejoin:round;stroke-miterlimit:10;}
	
		.st11{fill-rule:evenodd;clip-rule:evenodd;fill:none;stroke:#000000;stroke-width:2.2;stroke-linecap:round;stroke-linejoin:round;stroke-miterlimit:10;}
	.st12{fill:#221F1F;}
	.st13{fill:none;stroke:#000000;stroke-width:1.8;stroke-miterlimit:10;}
	.st14{fill:none;stroke:#000000;stroke-width:1.7;stroke-linecap:round;stroke-linejoin:round;stroke-miterlimit:10;}
	.st15{fill:none;stroke:#000000;stroke-width:3;stroke-linecap:round;stroke-linejoin:round;stroke-miterlimit:10;}
	.st16{fill:none;stroke:#000000;stroke-width:1.8;stroke-linecap:round;stroke-linejoin:round;stroke-miterlimit:10;}
	.st17{fill:none;stroke:#000000;stroke-width:1.6;stroke-linecap:round;stroke-linejoin:round;stroke-miterlimit:10;}
	.st18{fill:none;stroke:#231F20;stroke-width:2;stroke-miterlimit:10;}
	.st19{fill:#0A1423;}
	.st20{fill:#F4831F;}
	.st21{fill:none;stroke:#000000;stroke-width:0.4736;stroke-miterlimit:10;}
	.st22{fill:none;stroke:#000000;stroke-width:0.431;stroke-miterlimit:10;}
	.st23{fill-rule:evenodd;clip-rule:evenodd;fill:none;stroke:#000000;stroke-width:0.6314;stroke-miterlimit:10;}
	.st24{fill-rule:evenodd;clip-rule:evenodd;fill:none;stroke:#231F20;stroke-width:0.4567;stroke-miterlimit:10;}
	.st25{fill-rule:evenodd;clip-rule:evenodd;fill:none;stroke:#231F20;stroke-width:0.2284;stroke-miterlimit:10;}
	.st26{fill:none;stroke:#000000;stroke-width:0.419;stroke-miterlimit:10;}
	.st27{fill:none;stroke:#000000;stroke-width:0.3813;stroke-miterlimit:10;}
	.st28{fill:#FFFFFF;stroke:#000000;stroke-width:0.419;stroke-miterlimit:10;}
	.st29{fill-rule:evenodd;clip-rule:evenodd;fill:none;stroke:#000000;stroke-width:0.5586;stroke-miterlimit:10;}
	.st30{fill-rule:evenodd;clip-rule:evenodd;fill:#FFFFFF;}
	.st31{fill-rule:evenodd;clip-rule:evenodd;fill:#FFFFFF;stroke:#231F20;stroke-width:0.2682;stroke-miterlimit:10;}
	.st32{fill-rule:evenodd;clip-rule:evenodd;}
	.st33{fill:none;stroke:#000000;stroke-width:2;stroke-miterlimit:10;}
	.st34{fill:#FFFFFF;}
	.st35{opacity:0.85;}
</style>
<g id="Layer_1">
	<path d="M61.5,14.3L56.6,1.4c-0.4-1.1-1.7-1.6-2.8-1.2l-19,7.1c-0.5,0.2-1,0.6-1.2,1.1c-0.2,0.5-0.3,1.1,0,1.6l0.1,0.2
		c0,0,0,0-0.1,0l-13.8,5.1c-0.5,0.2-1,0.6-1.2,1.1c-0.2,0.5-0.3,1.1,0,1.6l0.3,0.7l-7.8,3c-0.1,0-0.1,0.1-0.2,0.1L10.4,21
		c-0.4-1.1-1.7-1.6-2.8-1.2l-4,1.5c-0.5,0.2-1,0.6-1.2,1.1c-0.2,0.5-0.3,1.1,0,1.6L6,33.1c0.3,0.8,1.1,1.4,2,1.4
		c0.2,0,0.5,0,0.7-0.1l4-1.5h0c0.5-0.2,1-0.6,1.2-1.1c0.2-0.5,0.3-1.1,0-1.6l-0.2-0.5c0,0,0.1,0,0.1,0l7.9-3l0.3,0.8
		c0.3,0.8,1.1,1.4,2,1.4c0.2,0,0.5,0,0.7-0.1l6.4-2.4v6.7l-3.8,0.2c-0.5,0-0.8,0.4-0.8,0.9c0,0.5,0.4,0.8,0.8,0.8c0,0,0,0,0,0
		l2.9-0.1L16.8,62.8c-0.2,0.4,0,0.9,0.4,1.1c0.1,0.1,0.2,0.1,0.4,0.1c0.3,0,0.6-0.2,0.8-0.5l12.8-26.6v16.5c0,0.5,0.4,0.8,0.9,0.8
		s0.9-0.4,0.9-0.8V36.9l12.8,26.6c0.1,0.3,0.5,0.5,0.8,0.5c0.1,0,0.2,0,0.4-0.1c0.4-0.2,0.6-0.7,0.4-1.1L33.6,34.5l2.6-0.1
		c0.5,0,0.8-0.4,0.8-0.9s-0.4-0.8-0.9-0.8l-3.3,0.1v-7.3l5.8-2.1c0,0,0,0,0,0c0.1,0,0.1-0.1,0.2-0.1c0.4,0.5,1,0.9,1.7,0.9
		c0.2,0,0.5,0,0.7-0.1l19-7.1c0,0,0,0,0,0c0.5-0.2,1-0.6,1.2-1.1C61.7,15.4,61.8,14.8,61.5,14.3z M8,32.3l-3.5-9.1l3.8-1.5l3.5,9.1
		L8,32.3z M13.1,27.6l-1.4-3.8l7.8-3.1l1.4,3.7L13.1,27.6z M24.1,26.6l-3.5-9.2l13.7-5.2l3.6,9.2L24.1,26.6z M40.6,22.1L35.7,9.2
		l18.9-7.1L59.5,15L40.6,22.1z"/>
</g>
<g id="Layer_2">
</g>
</svg>
