<?xml version="1.0" encoding="utf-8"?>
<!-- Generator: Adobe Illustrator 22.0.1, SVG Export Plug-In . SVG Version: 6.00 Build 0)  -->
<svg version="1.1" id="Layer_1" xmlns="http://www.w3.org/2000/svg" xmlns:xlink="http://www.w3.org/1999/xlink" x="0px" y="0px"
	 viewBox="0 0 64 64" style="enable-background:new 0 0 64 64;" xml:space="preserve">
<style type="text/css">
	.st0{fill:#231F20;}
</style>
<g>
	<path class="st0" d="M32,0C14.4,0,0,14.4,0,32s14.4,32,32,32s32-14.4,32-32S49.6,0,32,0z M32,61.6C15.7,61.6,2.4,48.3,2.4,32
		S15.7,2.4,32,2.4S61.6,15.7,61.6,32S48.3,61.6,32,61.6z"/>
	<path class="st0" d="M23.2,25.7l-4.8-2.9c-0.5-0.3-1.2-0.1-1.5,0.4c-0.3,0.5-0.1,1.2,0.4,1.5l4.8,2.9c0.2,0.1,0.4,0.2,0.6,0.2
		c0.4,0,0.7-0.2,0.9-0.5C23.9,26.6,23.7,26,23.2,25.7z"/>
	<path class="st0" d="M25.6,23.1c0.2,0.4,0.6,0.6,1,0.6c0.2,0,0.3,0,0.5-0.1c0.5-0.3,0.7-0.9,0.5-1.5l-2.7-5.2
		c-0.3-0.5-0.9-0.8-1.5-0.5c-0.5,0.3-0.7,0.9-0.5,1.5L25.6,23.1z"/>
	<path class="st0" d="M45.6,22.8l-4.8,2.9c-0.5,0.3-0.7,1-0.4,1.5c0.2,0.3,0.6,0.5,0.9,0.5c0.2,0,0.4-0.1,0.6-0.2l4.8-2.9
		c0.5-0.3,0.7-1,0.4-1.5S46.2,22.4,45.6,22.8z"/>
	<path class="st0" d="M36.9,23.6c0.2,0.1,0.3,0.1,0.5,0.1c0.4,0,0.8-0.2,1-0.6l2.8-5.4c0.3-0.5,0.1-1.2-0.5-1.5
		c-0.5-0.3-1.2-0.1-1.5,0.5l-2.8,5.4C36.1,22.6,36.4,23.3,36.9,23.6z"/>
	<path class="st0" d="M32.1,22.4c0.6,0,1.1-0.5,1.1-1.1v-7.4c0-0.6-0.5-1.1-1.1-1.1S31,13.3,31,13.9v7.4
		C31,21.9,31.5,22.4,32.1,22.4z"/>
	<path class="st0" d="M32.1,23.3c-4.6,0-8.4,3.6-8.4,8.1c0,1.8,0.5,3.4,1.6,4.7l2.7,8.3c0.1,0.5,0.6,0.8,1,0.8h7
		c0.5,0,1-0.4,1.1-0.9c0.3-1.7,1.3-6.5,2-8.2c0.8-1.5,1.3-3.1,1.3-4.7C40.5,26.9,36.7,23.3,32.1,23.3z M37.2,35c0,0,0,0.1-0.1,0.1
		c-0.7,1.7-1.6,6-2,7.8h-5.3l-2.6-7.7c0-0.1-0.1-0.3-0.2-0.4c-0.8-1-1.2-2.1-1.2-3.5c0-3.3,2.8-5.9,6.2-5.9c3.4,0,6.2,2.6,6.2,5.9
		C38.3,32.6,37.9,33.9,37.2,35z"/>
	<path class="st0" d="M34.6,46h-5.1c-0.6,0-1.1,0.5-1.1,1.1s0.5,1.1,1.1,1.1h5.1c0.6,0,1.1-0.5,1.1-1.1S35.2,46,34.6,46z"/>
	<path class="st0" d="M33.8,49h-3.5c-0.6,0-1.1,0.5-1.1,1.1s0.5,1.1,1.1,1.1h3.5c0.6,0,1.1-0.5,1.1-1.1S34.4,49,33.8,49z"/>
</g>
<g id="Layer_2_1_">
</g>
</svg>
