<?xml version="1.0" encoding="utf-8"?>
<!-- Generator: Adobe Illustrator 22.0.1, SVG Export Plug-In . SVG Version: 6.00 Build 0)  -->
<svg version="1.1" xmlns="http://www.w3.org/2000/svg" xmlns:xlink="http://www.w3.org/1999/xlink" x="0px" y="0px"
	 viewBox="0 0 64 64" style="enable-background:new 0 0 64 64;" xml:space="preserve">
<style type="text/css">
	.st0{opacity:0.85;}
	.st1{fill:#231F20;}
	.st2{fill:none;stroke:#231F20;stroke-width:2.2;stroke-linecap:round;stroke-linejoin:round;stroke-miterlimit:10;}
	.st3{fill:#000F23;}
	.st4{clip-path:url(#SVGID_2_);enable-background:new    ;}
	.st5{fill-rule:evenodd;clip-rule:evenodd;fill:#000F23;}
	.st6{fill:none;stroke:#000000;stroke-width:3;stroke-linecap:round;stroke-linejoin:round;stroke-miterlimit:10;}
	.st7{stroke:#000000;stroke-miterlimit:10;}
	.st8{fill:#333333;}
	.st9{fill-rule:evenodd;clip-rule:evenodd;}
</style>
<g id="Layer_1">
</g>
<g id="Layer_2">
	<g>
		<g>
			<defs>
				<rect id="SVGID_1_" x="-3232" y="-1960" width="5760" height="3600"/>
			</defs>
			<clipPath id="SVGID_2_">
				<use xlink:href="#SVGID_1_"  style="overflow:visible;"/>
			</clipPath>
		</g>
	</g>
	<g>
		<path d="M16.7,60.4c-4.3,0-8.5-1.6-11.8-4.8C1.7,52.4,0,48.3,0,43.8c0-4.4,1.7-8.6,4.9-11.7L32.6,4.5c0.9-0.9,2.3-0.9,3.2,0
			c0.9,0.9,0.9,2.3,0,3.2L8.1,35.3c-2.3,2.3-3.5,5.3-3.5,8.5c0,3.2,1.3,6.2,3.5,8.5c4.7,4.7,12.4,4.7,17.2,0l32.1-31.9
			c1.4-1.4,2.1-3.2,2.1-5.1c0-1.9-0.8-3.7-2.1-5.1c-2.8-2.8-7.4-2.8-10.3,0L14.9,42.1c-0.5,0.5-0.7,1.1-0.7,1.7s0.3,1.3,0.7,1.7
			c1,1,2.6,1,3.5,0l28-27.8c0.9-0.9,2.3-0.9,3.2,0c0.9,0.9,0.9,2.3,0,3.2l-28,27.8c-2.7,2.7-7.2,2.7-9.9,0c-1.3-1.3-2.1-3.1-2.1-5
			s0.7-3.6,2.1-5L43.9,7c4.6-4.6,12.1-4.6,16.7,0c2.2,2.2,3.5,5.2,3.5,8.3c0,3.1-1.2,6.1-3.5,8.3L28.4,55.6
			C25.2,58.8,20.9,60.4,16.7,60.4z"/>
	</g>
</g>
</svg>
