<?xml version="1.0" encoding="utf-8"?>
<!-- Generator: Adobe Illustrator 22.0.1, SVG Export Plug-In . SVG Version: 6.00 Build 0)  -->
<svg version="1.1" xmlns="http://www.w3.org/2000/svg" xmlns:xlink="http://www.w3.org/1999/xlink" x="0px" y="0px"
	 viewBox="0 0 64 64" style="enable-background:new 0 0 64 64;" xml:space="preserve">
<style type="text/css">
	.st0{opacity:0.85;}
	.st1{fill:#231F20;}
	.st2{fill:none;stroke:#231F20;stroke-width:2.2;stroke-linecap:round;stroke-linejoin:round;stroke-miterlimit:10;}
	.st3{fill:#000F23;}
	.st4{clip-path:url(#SVGID_2_);enable-background:new    ;}
	.st5{fill-rule:evenodd;clip-rule:evenodd;fill:#000F23;}
	.st6{fill:none;stroke:#000000;stroke-width:3;stroke-linecap:round;stroke-linejoin:round;stroke-miterlimit:10;}
	.st7{stroke:#000000;stroke-miterlimit:10;}
	.st8{fill:#333333;}
	.st9{fill-rule:evenodd;clip-rule:evenodd;}
</style>
<g id="Layer_1">
</g>
<g id="Layer_2">
	<g>
		<path d="M26.3,3.8c-0.4,0.4-0.6,0.9-0.6,1.5c0,0.6,0.2,1,0.6,1.5L51.5,32L26.3,57.2c-0.4,0.4-0.6,0.9-0.6,1.5c0,0.6,0.2,1,0.6,1.5
			l3.2,3.2c0.4,0.4,0.9,0.6,1.5,0.6s1-0.2,1.5-0.6l29.9-29.9C62.8,33,63,32.6,63,32s-0.2-1-0.6-1.5L32.4,0.6C32,0.2,31.5,0,31,0
			s-1,0.2-1.5,0.6L26.3,3.8z"/>
		<path d="M37.7,33.5c0.4-0.4,0.6-0.9,0.6-1.5s-0.2-1-0.6-1.5L7.8,0.6C7.4,0.2,6.9,0,6.3,0s-1,0.2-1.5,0.6L1.7,3.8
			C1.2,4.3,1,4.8,1,5.3c0,0.6,0.2,1,0.6,1.5L26.9,32L1.7,57.2C1.2,57.6,1,58.1,1,58.7c0,0.6,0.2,1,0.6,1.5l3.2,3.2
			C5.3,63.8,5.8,64,6.3,64s1-0.2,1.5-0.6L37.7,33.5z"/>
	</g>
	<g>
		<g>
			<defs>
				<rect id="SVGID_1_" x="-3136" y="-1672" width="5760" height="3600"/>
			</defs>
			<clipPath id="SVGID_2_">
				<use xlink:href="#SVGID_1_"  style="overflow:visible;"/>
			</clipPath>
		</g>
	</g>
</g>
</svg>
