<?xml version="1.0" encoding="utf-8"?>
<!-- Generator: Adobe Illustrator 22.0.1, SVG Export Plug-In . SVG Version: 6.00 Build 0)  -->
<svg version="1.1" id="Layer_1" xmlns="http://www.w3.org/2000/svg" xmlns:xlink="http://www.w3.org/1999/xlink" x="0px" y="0px"
	 viewBox="0 0 64 64" style="enable-background:new 0 0 64 64;" xml:space="preserve">
<g>
	<path d="M32,0C14.4,0,0,14.4,0,32s14.4,32,32,32s32-14.4,32-32S49.6,0,32,0z M32,61.6C15.7,61.6,2.4,48.3,2.4,32S15.7,2.4,32,2.4
		S61.6,15.7,61.6,32S48.3,61.6,32,61.6z"/>
	<path d="M47,21.2c-0.4-0.4-1.1-0.4-1.6,0c-0.7,0.7-1.9,0.7-2.5,0.1c-0.7-0.7-0.7-1.8,0-2.4c0.4-0.4,0.4-1.1,0-1.6l-3.8-3.8
		c-0.5-0.5-1.4-0.5-2,0L21.4,29.2c-0.3,0.3-0.4,0.6-0.4,1c0,0.4,0.1,0.7,0.4,1l1,1L22,32.6l-1-1c-0.5-0.5-1.4-0.5-2,0l-5.6,5.6
		c-0.3,0.3-0.4,0.6-0.4,1c0,0.4,0.1,0.7,0.4,1l3.8,3.8c0.4,0.4,1.1,0.4,1.6,0c0.6-0.6,1.8-0.6,2.4,0c0.3,0.3,0.5,0.8,0.5,1.2
		s-0.2,0.9-0.5,1.2c-0.4,0.4-0.4,1.1,0,1.6l3.8,3.8c0.3,0.3,0.6,0.4,1,0.4c0.4,0,0.7-0.1,1-0.4l5.7-5.7c0.3-0.3,0.4-0.6,0.4-1
		c0-0.4-0.1-0.7-0.4-1l-1-1l0.4-0.4l1,1c0.5,0.5,1.4,0.5,2,0L50.8,27c0.5-0.5,0.5-1.4,0-2L47,21.2z M34.1,40.5l-1.2-1.2
		c-0.2-0.2-0.5-0.3-0.8-0.3c-0.3,0-0.6,0.1-0.8,0.3l-2,2c-0.4,0.4-0.4,1.1,0,1.6l1.2,1.2L26,48.6l-2.6-2.6c0.3-0.6,0.5-1.2,0.5-1.9
		c0-1.1-0.4-2-1.1-2.8c-1.2-1.2-3.2-1.5-4.7-0.7l-2.6-2.6l4.4-4.4l1.2,1.2c0.2,0.2,0.5,0.3,0.8,0.3c0.3,0,0.6-0.1,0.8-0.3l2-2
		c0.4-0.4,0.4-1.1,0-1.6l-1.2-1.2l14.5-14.5l2.6,2.6c-0.8,1.5-0.6,3.4,0.7,4.7c1.3,1.2,3.2,1.3,4.7,0.5l2.6,2.6L34.1,40.5z"/>
	<path d="M27.8,34.3c-0.4-0.4-1-0.4-1.4,0l-2.1,2c-0.2,0.2-0.3,0.4-0.3,0.7c0,0.3,0.1,0.5,0.3,0.7l2,2.1c0.2,0.2,0.5,0.3,0.7,0.3
		c0.3,0,0.5-0.1,0.7-0.3l2.1-2c0.2-0.2,0.3-0.4,0.3-0.7c0-0.3-0.1-0.5-0.3-0.7L27.8,34.3z M27.1,37.7l-0.6-0.6l0.6-0.6l0.6,0.6
		L27.1,37.7z"/>
</g>
<g id="Layer_2_1_">
</g>
</svg>
