<?xml version="1.0" encoding="utf-8"?>
<!-- Generator: Adobe Illustrator 22.0.1, SVG Export Plug-In . SVG Version: 6.00 Build 0)  -->
<svg version="1.1" xmlns="http://www.w3.org/2000/svg" xmlns:xlink="http://www.w3.org/1999/xlink" x="0px" y="0px"
	 viewBox="0 0 64 64" style="enable-background:new 0 0 64 64;" xml:space="preserve">
<style type="text/css">
	.st0{opacity:0.85;}
	.st1{fill:#231F20;}
	.st2{fill:none;stroke:#231F20;stroke-width:2.2;stroke-linecap:round;stroke-linejoin:round;stroke-miterlimit:10;}
	.st3{fill:#000F23;}
	.st4{clip-path:url(#SVGID_2_);enable-background:new    ;}
	.st5{fill-rule:evenodd;clip-rule:evenodd;fill:#000F23;}
	.st6{fill:none;stroke:#000000;stroke-width:3;stroke-linecap:round;stroke-linejoin:round;stroke-miterlimit:10;}
	.st7{stroke:#000000;stroke-miterlimit:10;}
	.st8{fill:#333333;}
	.st9{fill-rule:evenodd;clip-rule:evenodd;}
</style>
<g id="Layer_1">
</g>
<g id="Layer_2">
	<g id="Page-1">
		<path id="_xF107_" d="M64,18.7c0,0.6-0.2,1-0.6,1.5L33.5,50c-0.4,0.4-0.9,0.6-1.5,0.6c-0.6,0-1-0.2-1.5-0.6L0.6,20.1
			C0.2,19.7,0,19.2,0,18.7s0.2-1,0.6-1.5L3.8,14c0.4-0.4,0.9-0.6,1.5-0.6c0.6,0,1,0.2,1.5,0.6L32,39.2L57.2,14
			c0.4-0.4,0.9-0.6,1.5-0.6c0.6,0,1,0.2,1.5,0.6l3.2,3.2C63.8,17.6,64,18.1,64,18.7z"/>
	</g>
	<g>
		<g>
			<defs>
				<rect id="SVGID_1_" x="-2560" y="-1768" width="5760" height="3600"/>
			</defs>
			<clipPath id="SVGID_2_">
				<use xlink:href="#SVGID_1_"  style="overflow:visible;"/>
			</clipPath>
		</g>
	</g>
</g>
</svg>
