<?xml version="1.0" encoding="utf-8"?>
<!-- Generator: Adobe Illustrator 16.0.0, SVG Export Plug-In . SVG Version: 6.00 Build 0)  -->
<!DOCTYPE svg PUBLIC "-//W3C//DTD SVG 1.1//EN" "http://www.w3.org/Graphics/SVG/1.1/DTD/svg11.dtd">
<svg version="1.1" id="Layer_1" xmlns="http://www.w3.org/2000/svg" xmlns:xlink="http://www.w3.org/1999/xlink" x="0px" y="0px"
	 width="595.279px" height="841.891px" viewBox="0 0 595.279 841.891" enable-background="new 0 0 595.279 841.891"
	 xml:space="preserve">
<g id="Layer_1_1_">
</g>
<path d="M589.699,283.287l-29.765-29.764c-4.65-3.721-8.371-5.581-13.951-5.581c-5.581,0-10.231,1.86-13.952,5.581L297.64,487.914
	L63.248,253.522c-4.65-3.721-8.371-5.581-13.951-5.581c-5.581,0-10.231,1.86-13.952,5.581L5.58,283.287
	c-3.72,4.65-5.58,9.301-5.58,13.952c0,4.651,1.86,9.301,5.58,13.022l278.108,278.107c4.65,3.721,8.371,5.581,13.951,5.581
	c5.581,0,10.231-1.86,13.952-5.581L589.699,311.19c3.721-4.651,5.58-8.371,5.58-13.952
	C595.28,291.658,593.42,287.007,589.699,283.287z"/>
</svg>
