<?xml version="1.0" encoding="utf-8"?>
<!-- Generator: Adobe Illustrator 22.0.1, SVG Export Plug-In . SVG Version: 6.00 Build 0)  -->
<svg version="1.1" xmlns="http://www.w3.org/2000/svg" xmlns:xlink="http://www.w3.org/1999/xlink" x="0px" y="0px"
	 viewBox="0 0 64 64" style="enable-background:new 0 0 64 64;" xml:space="preserve">
<style type="text/css">
	.st0{fill:#231F20;}
	.st1{fill-rule:evenodd;clip-rule:evenodd;fill:#231F20;}
	.st2{fill:none;stroke:#000000;stroke-width:1.4;stroke-miterlimit:10;}
	.st3{fill:none;stroke:#231F20;stroke-width:2.2;stroke-miterlimit:10;}
	.st4{fill:none;stroke:#231F20;stroke-width:3;stroke-linecap:round;stroke-miterlimit:10;}
	.st5{fill:none;stroke:#231F20;stroke-width:2.2;stroke-linecap:round;stroke-linejoin:round;stroke-miterlimit:10;}
	.st6{fill:none;stroke:#000000;stroke-width:2.2;stroke-linecap:round;stroke-linejoin:round;stroke-miterlimit:10;}
	.st7{fill:none;stroke:#231F20;stroke-width:2.2;stroke-linecap:round;stroke-miterlimit:10;}
	.st8{fill:none;stroke:#000000;stroke-width:2.2;stroke-miterlimit:10;}
	.st9{fill:none;stroke:#000000;stroke-width:2;stroke-linecap:round;stroke-linejoin:round;stroke-miterlimit:10;}
	.st10{fill:none;stroke:#000000;stroke-width:1.8;stroke-linejoin:round;stroke-miterlimit:10;}
	
		.st11{fill-rule:evenodd;clip-rule:evenodd;fill:none;stroke:#000000;stroke-width:2.2;stroke-linecap:round;stroke-linejoin:round;stroke-miterlimit:10;}
	.st12{fill:#221F1F;}
	.st13{fill:none;stroke:#000000;stroke-width:1.8;stroke-miterlimit:10;}
	.st14{fill:none;stroke:#000000;stroke-width:1.7;stroke-linecap:round;stroke-linejoin:round;stroke-miterlimit:10;}
	.st15{fill:none;stroke:#000000;stroke-width:3;stroke-linecap:round;stroke-linejoin:round;stroke-miterlimit:10;}
	.st16{fill:none;stroke:#000000;stroke-width:1.8;stroke-linecap:round;stroke-linejoin:round;stroke-miterlimit:10;}
	.st17{fill:none;stroke:#000000;stroke-width:1.6;stroke-linecap:round;stroke-linejoin:round;stroke-miterlimit:10;}
	.st18{fill:none;stroke:#231F20;stroke-width:2;stroke-miterlimit:10;}
	.st19{fill:#0A1423;}
	.st20{fill:#F4831F;}
	.st21{fill:none;stroke:#000000;stroke-width:0.4736;stroke-miterlimit:10;}
	.st22{fill:none;stroke:#000000;stroke-width:0.431;stroke-miterlimit:10;}
	.st23{fill-rule:evenodd;clip-rule:evenodd;fill:none;stroke:#000000;stroke-width:0.6314;stroke-miterlimit:10;}
	.st24{fill-rule:evenodd;clip-rule:evenodd;fill:none;stroke:#231F20;stroke-width:0.4567;stroke-miterlimit:10;}
	.st25{fill-rule:evenodd;clip-rule:evenodd;fill:none;stroke:#231F20;stroke-width:0.2284;stroke-miterlimit:10;}
	.st26{fill:none;stroke:#000000;stroke-width:0.419;stroke-miterlimit:10;}
	.st27{fill:none;stroke:#000000;stroke-width:0.3813;stroke-miterlimit:10;}
	.st28{fill:#FFFFFF;stroke:#000000;stroke-width:0.419;stroke-miterlimit:10;}
	.st29{fill-rule:evenodd;clip-rule:evenodd;fill:none;stroke:#000000;stroke-width:0.5586;stroke-miterlimit:10;}
	.st30{fill-rule:evenodd;clip-rule:evenodd;fill:#FFFFFF;}
	.st31{fill-rule:evenodd;clip-rule:evenodd;fill:#FFFFFF;stroke:#231F20;stroke-width:0.2682;stroke-miterlimit:10;}
	.st32{fill-rule:evenodd;clip-rule:evenodd;}
	.st33{fill:none;stroke:#000000;stroke-width:2;stroke-miterlimit:10;}
	.st34{fill:#FFFFFF;}
	.st35{opacity:0.85;}
</style>
<g id="Layer_1">
	<path class="st0" d="M32,64C14.4,64,0,49.6,0,32S14.4,0,32,0s32,14.4,32,32S49.6,64,32,64z M32,2.4C15.7,2.4,2.4,15.7,2.4,32
		S15.7,61.6,32,61.6S61.6,48.3,61.6,32S48.3,2.4,32,2.4z"/>
	<g>
		<path d="M42.3,13.1H21.7c-1,0-1.8,0.8-1.8,1.8v34.3c0,1,0.8,1.8,1.8,1.8h20.5c1,0,1.8-0.8,1.8-1.8V14.9
			C44.1,13.9,43.3,13.1,42.3,13.1z M22.1,18h19.7v26.4H22.1V18z M41.9,15.3v0.9H22.1v-0.9H41.9z M22.1,48.7v-2.6h19.7v2.6H22.1z"/>
		<path d="M32.7,46.6h-1.4c-0.5,0-0.9,0.4-0.9,0.9s0.4,0.9,0.9,0.9h1.4c0.5,0,0.9-0.4,0.9-0.9S33.2,46.6,32.7,46.6z"/>
	</g>
	<g>
		<path class="st12" d="M38.1,39.2l-2-4.3c-0.1-0.2-0.2-0.3-0.5-0.4l-0.3-0.1c-0.1-0.1-0.3-0.1-0.4-0.2c0.5-0.8,0.9-1.6,1.4-2.3
			l0.1-0.2c0.7-1.1,0.9-2.3,0.6-3.6c-0.5-2.4-2.6-4.2-5-4.2c0,0,0,0-0.1,0l-0.1,0c-0.1,0-0.2,0-0.3,0c-0.1,0-0.3,0-0.4,0.1
			c-1.3,0.2-2.4,0.9-3.3,1.9c-0.8,1-1.2,2.2-1.1,3.5c0.1,0.8,0.3,1.6,0.7,2.2c0.5,0.9,1,1.7,1.5,2.6c-0.1,0-0.2,0.1-0.3,0.1
			c-0.1,0.1-0.2,0.1-0.4,0.2c-0.2,0.1-0.4,0.3-0.5,0.5c-0.3,0.7-0.7,1.5-1,2.2l-0.6,1.2c-0.1,0.3-0.3,0.6-0.4,0.8
			c-0.1,0.2-0.1,0.4,0,0.6c0.1,0.2,0.2,0.3,0.4,0.3c0.1,0,0.1,0,0.2,0c0.1,0,0.3,0,0.4-0.1l0.8-0.3c0.5-0.2,1-0.5,1.6-0.7
			c0.1,0,0.1,0,0.2,0c0.4,0.2,0.8,0.4,1.2,0.6l1.1,0.5c0.2,0.1,0.5,0.1,0.7,0l0.9-0.4c0.5-0.2,0.9-0.4,1.4-0.6c0.1,0,0.2,0,0.3,0
			c0.6,0.3,1.2,0.5,1.8,0.8l0.5,0.2c0.3,0.1,0.6,0.1,0.8-0.1C38.1,39.9,38.3,39.6,38.1,39.2z M35.6,27.5c0.5,1.2,0.4,2.3-0.2,3.4
			c-0.7,1.3-1.5,2.5-2.3,3.8l-0.9,1.6C32,36.5,32,36.4,32,36.4c0,0,0,0-0.1-0.1l-0.9-1.6c-0.8-1.3-1.6-2.7-2.4-4
			c-0.3-0.4-0.4-0.9-0.4-1.6c0-0.7,0.1-1.4,0.4-2c0.6-1.2,1.6-1.9,2.9-2.1c0.1,0,0.2,0,0.4,0l0.2,0C33.7,25.2,34.9,26,35.6,27.5z
			 M29.1,35.6c0.1-0.1,0.3-0.1,0.4-0.2l0.3-0.1c0,0,0,0,0,0c0,0,0,0,0,0l1,1.7c0.2,0.4,0.6,0.6,1,0.7c0.6,0.1,1.2-0.1,1.5-0.7
			c0.3-0.4,0.5-0.8,0.7-1.2l0.3-0.5c0,0,0,0,0,0c0,0,0,0,0,0l0.7,0.3l1.2,2.6c-0.3-0.1-0.7-0.3-1-0.5c-0.3-0.1-0.5-0.1-0.8,0
			c-0.4,0.2-0.9,0.4-1.3,0.6c-0.3,0.1-0.7,0.3-1,0.4c-0.1,0-0.1,0-0.1,0c-0.4-0.2-0.8-0.3-1.2-0.5c-0.4-0.2-0.8-0.3-1.2-0.5
			c-0.1-0.1-0.3-0.1-0.4-0.1c-0.1,0-0.2,0-0.4,0.1c-0.3,0.2-0.7,0.3-1.1,0.5L29.1,35.6z"/>
		<path class="st12" d="M29.9,29c0,0.5,0.2,1.1,0.6,1.4s0.9,0.6,1.4,0.6h0c0,0,0,0,0,0c1.1,0,2.1-0.9,2.1-2c0-0.5-0.2-1.1-0.6-1.5
			c-0.4-0.4-0.9-0.6-1.4-0.6c0,0,0,0,0,0C30.9,26.9,29.9,27.9,29.9,29z M31.3,29c0-0.2,0.1-0.4,0.2-0.5c0.1-0.1,0.3-0.2,0.5-0.2
			c0,0,0,0,0,0c0.5,0,0.7,0.4,0.7,0.7c0,0.2-0.1,0.4-0.2,0.5c-0.1,0.1-0.3,0.2-0.5,0.2c0,0,0,0,0,0C31.6,29.7,31.3,29.4,31.3,29z"/>
	</g>
</g>
<g id="Layer_2">
</g>
</svg>
