<?xml version="1.0" encoding="utf-8"?>
<!-- Generator: Adobe Illustrator 22.0.1, SVG Export Plug-In . SVG Version: 6.00 Build 0)  -->
<svg version="1.1" id="Layer_1" xmlns="http://www.w3.org/2000/svg" xmlns:xlink="http://www.w3.org/1999/xlink" x="0px" y="0px"
	 viewBox="0 0 64 64" style="enable-background:new 0 0 64 64;" xml:space="preserve">
<g id="Layer_1_1_">
</g>
<g>
	<path d="M12.5,32L37.7,6.8c0.4-0.4,0.6-0.9,0.6-1.5c0-0.6-0.2-1-0.6-1.5l-3.2-3.2C34.1,0.2,33.6,0,33,0s-1,0.2-1.5,0.6L1.7,30.5
		C1.2,31,1,31.4,1,32s0.2,1,0.6,1.5l29.9,29.9c0.5,0.4,1,0.6,1.5,0.6s1-0.2,1.5-0.6l3.2-3.2c0.4-0.4,0.6-0.9,0.6-1.5
		c0-0.6-0.2-1-0.6-1.5L12.5,32z"/>
	<path d="M37.1,32L62.3,6.8C62.8,6.4,63,5.9,63,5.3c0-0.6-0.2-1-0.6-1.5l-3.2-3.2c-0.5-0.4-1-0.6-1.5-0.6s-1,0.2-1.5,0.6L26.3,30.5
		c-0.4,0.4-0.6,0.9-0.6,1.5s0.2,1,0.6,1.5l29.9,29.9c0.4,0.4,0.9,0.6,1.5,0.6c0.6,0,1-0.2,1.5-0.6l3.2-3.2c0.4-0.4,0.6-0.9,0.6-1.5
		c0-0.6-0.2-1-0.6-1.5L37.1,32z"/>
</g>
</svg>
