<?xml version="1.0" encoding="utf-8"?>
<!-- Generator: Adobe Illustrator 22.0.1, SVG Export Plug-In . SVG Version: 6.00 Build 0)  -->
<svg version="1.1" id="Layer_1" xmlns="http://www.w3.org/2000/svg" xmlns:xlink="http://www.w3.org/1999/xlink" x="0px" y="0px"
	 viewBox="0 0 64 64" style="enable-background:new 0 0 64 64;" xml:space="preserve">
<g id="Layer_1_1_">
</g>
<g>
	<path d="M43.9,19H20.1c-0.7,0-1.1,0.4-1.1,1.1V44c0,0.7,0.4,1.1,1.1,1.1H44c0.7,0,1.1-0.4,1.1-1.1V20.1C45,19.5,44.5,19,43.9,19z
		 M42.8,42.7L42.8,42.7l-21.6,0.1V21.2h21.6V42.7z"/>
	<path d="M57.4,29.6v-0.3h0.1c0.7,0,1.1-0.4,1.1-1.1s-0.4-1.1-1.1-1.1h-5v-5.2h5c0.7,0,1.1-0.4,1.1-1.1s-0.4-1.1-1.1-1.1h-5v-3.8
		c0-2.4-2-4.4-4.4-4.4h-3.7v-5c0-0.7-0.4-1.1-1.1-1.1s-1.1,0.4-1.1,1.1v5H37v-5c0-0.7-0.4-1.1-1.1-1.1c-0.7,0-1.1,0.4-1.1,1.1v5
		h-5.2v-5c0-0.7-0.4-1.1-1.1-1.1s-1.1,0.4-1.1,1.1v5h-5.2v-5c0-0.7-0.4-1.1-1.1-1.1c-0.7,0-1.1,0.4-1.1,1.1v5h-4
		c-2.4,0-4.4,2-4.4,4.4v3.7h-5c-0.7,0-1.1,0.4-1.1,1.1s0.4,1.1,1.1,1.1h5V27h-5c-0.7,0-1.1,0.4-1.1,1.1c0,0.7,0.4,1.1,1.1,1.1h5v5.2
		h-5c-0.7,0-1.1,0.4-1.1,1.1s0.4,1.1,1.1,1.1h5v5.2h-5c-0.7,0-1.1,0.4-1.1,1.1c0,0.7,0.4,1.1,1.1,1.1h5v3.7c0,2.4,2,4.4,4.4,4.4h3.7
		v5.3c0,0.7,0.4,1.1,1.1,1.1s1.1-0.4,1.1-1.1v-5H27v5c0,0.7,0.4,1.1,1.1,1.1c0.7,0,1.1-0.4,1.1-1.1v-5h5.2v5c0,0.7,0.4,1.1,1.1,1.1
		s1.1-0.4,1.1-1.1v-5h5.2v5c0,0.7,0.4,1.1,1.1,1.1c0.7,0,1.1-0.4,1.1-1.1v-5h3.7c2.4,0,4.4-2,4.4-4.4v-3.7h5.3
		c0.7,0,1.1-0.4,1.1-1.1c0-0.7-0.4-1.1-1.1-1.1h-5V37h5c0.7,0,1.1-0.4,1.1-1.1c0-0.7-0.4-1.1-1.1-1.1h-5v-5.2H57.4z M48.1,50.3H15.9
		c-1.2,0-2.2-1-2.2-2.2V15.9c0-1.2,1-2.2,2.2-2.2h32c1.2,0,2.2,1,2.2,2.2v32.2h0.2C50.3,49.3,49.3,50.3,48.1,50.3z"/>
</g>
</svg>
