<?xml version="1.0" encoding="utf-8"?>
<!-- Generator: Adobe Illustrator 22.0.1, SVG Export Plug-In . SVG Version: 6.00 Build 0)  -->
<svg version="1.1" xmlns="http://www.w3.org/2000/svg" xmlns:xlink="http://www.w3.org/1999/xlink" x="0px" y="0px"
	 viewBox="0 0 64 64" style="enable-background:new 0 0 64 64;" xml:space="preserve">
<style type="text/css">
	.st0{fill:#231F20;}
	.st1{fill-rule:evenodd;clip-rule:evenodd;fill:#231F20;}
	.st2{fill:none;stroke:#000000;stroke-width:1.4;stroke-miterlimit:10;}
	.st3{fill:none;stroke:#231F20;stroke-width:2.2;stroke-miterlimit:10;}
	.st4{fill:none;stroke:#231F20;stroke-width:3;stroke-linecap:round;stroke-miterlimit:10;}
	.st5{fill:none;stroke:#231F20;stroke-width:2.2;stroke-linecap:round;stroke-linejoin:round;stroke-miterlimit:10;}
	.st6{fill:none;stroke:#000000;stroke-width:2.2;stroke-linecap:round;stroke-linejoin:round;stroke-miterlimit:10;}
	.st7{fill:none;stroke:#231F20;stroke-width:2.2;stroke-linecap:round;stroke-miterlimit:10;}
	.st8{fill:none;stroke:#000000;stroke-width:2.2;stroke-miterlimit:10;}
	.st9{fill:none;stroke:#000000;stroke-width:2;stroke-linecap:round;stroke-linejoin:round;stroke-miterlimit:10;}
	.st10{fill:none;stroke:#000000;stroke-width:1.8;stroke-linejoin:round;stroke-miterlimit:10;}
	
		.st11{fill-rule:evenodd;clip-rule:evenodd;fill:none;stroke:#000000;stroke-width:2.2;stroke-linecap:round;stroke-linejoin:round;stroke-miterlimit:10;}
	.st12{fill:#221F1F;}
	.st13{fill:none;stroke:#000000;stroke-width:1.8;stroke-miterlimit:10;}
	.st14{fill:none;stroke:#000000;stroke-width:1.7;stroke-linecap:round;stroke-linejoin:round;stroke-miterlimit:10;}
	.st15{fill:none;stroke:#000000;stroke-width:3;stroke-linecap:round;stroke-linejoin:round;stroke-miterlimit:10;}
	.st16{fill:none;stroke:#000000;stroke-width:1.8;stroke-linecap:round;stroke-linejoin:round;stroke-miterlimit:10;}
	.st17{fill:none;stroke:#000000;stroke-width:1.6;stroke-linecap:round;stroke-linejoin:round;stroke-miterlimit:10;}
	.st18{fill:none;stroke:#231F20;stroke-width:2;stroke-miterlimit:10;}
	.st19{fill:#0A1423;}
	.st20{fill:#F4831F;}
	.st21{fill:none;stroke:#000000;stroke-width:0.4736;stroke-miterlimit:10;}
	.st22{fill:none;stroke:#000000;stroke-width:0.431;stroke-miterlimit:10;}
	.st23{fill-rule:evenodd;clip-rule:evenodd;fill:none;stroke:#000000;stroke-width:0.6314;stroke-miterlimit:10;}
	.st24{fill-rule:evenodd;clip-rule:evenodd;fill:none;stroke:#231F20;stroke-width:0.4567;stroke-miterlimit:10;}
	.st25{fill-rule:evenodd;clip-rule:evenodd;fill:none;stroke:#231F20;stroke-width:0.2284;stroke-miterlimit:10;}
	.st26{fill:none;stroke:#000000;stroke-width:0.419;stroke-miterlimit:10;}
	.st27{fill:none;stroke:#000000;stroke-width:0.3813;stroke-miterlimit:10;}
	.st28{fill:#FFFFFF;stroke:#000000;stroke-width:0.419;stroke-miterlimit:10;}
	.st29{fill-rule:evenodd;clip-rule:evenodd;fill:none;stroke:#000000;stroke-width:0.5586;stroke-miterlimit:10;}
	.st30{fill-rule:evenodd;clip-rule:evenodd;fill:#FFFFFF;}
	.st31{fill-rule:evenodd;clip-rule:evenodd;fill:#FFFFFF;stroke:#231F20;stroke-width:0.2682;stroke-miterlimit:10;}
	.st32{fill-rule:evenodd;clip-rule:evenodd;}
	.st33{fill:none;stroke:#000000;stroke-width:2;stroke-miterlimit:10;}
	.st34{fill:#FFFFFF;}
	.st35{opacity:0.85;}
</style>
<g id="Layer_1">
	<path class="st0" d="M32,64C14.4,64,0,49.6,0,32S14.4,0,32,0s32,14.4,32,32S49.6,64,32,64z M32,2.4C15.7,2.4,2.4,15.7,2.4,32
		S15.7,61.6,32,61.6S61.6,48.3,61.6,32S48.3,2.4,32,2.4z"/>
	<g>
		<path class="st0" d="M48.4,22.5h-1.7v-9.6c0-0.6-0.5-1.2-1.2-1.2c-0.6,0-1.2,0.5-1.2,1.2v9.6H27.8v-1.2c0-1.7-1.5-3.1-3.3-3.1
			h-6.1c-1.8,0-3.3,1.4-3.3,3.1v1.3c-0.1,0-0.2,0-0.3,0c-1.9,0-3.4,1.4-3.4,3.2v21.9c0,1.7,1.5,3.2,3.4,3.2h33.5
			c1.9,0,3.4-1.4,3.4-3.2V25.6C51.8,23.9,50.2,22.5,48.4,22.5z M18.4,47.3h6.1c1.8,0,3.3-1.4,3.3-3.1V24.8h20.6c0.5,0,1,0.4,1,0.8
			v21.9c0,0.4-0.4,0.8-1,0.8H14.9c-0.5,0-1-0.4-1-0.8V25.6c0-0.4,0.4-0.8,1-0.8c0.1,0,0.2,0,0.3,0v19.4
			C15.2,45.9,16.6,47.3,18.4,47.3z M25.4,44.2c0,0.4-0.4,0.8-0.9,0.8h-6.1c-0.5,0-0.9-0.4-0.9-0.8v-23c0-0.4,0.4-0.8,0.9-0.8h6.1
			c0.5,0,0.9,0.4,0.9,0.8V44.2z"/>
		<path class="st0" d="M29.7,34H47c0.6,0,1.2-0.5,1.2-1.1v-5.8c0-0.6-0.5-1.1-1.2-1.1H29.7c-0.6,0-1.2,0.5-1.2,1.1v5.8
			C28.6,33.5,29.1,34,29.7,34z M30.9,31.8v-3.6h14.9v3.6H30.9z"/>
		<path class="st0" d="M36.3,35.5h-2.7c-0.6,0-1.2,0.5-1.2,1.2s0.5,1.2,1.2,1.2h2.7c0.6,0,1.2-0.5,1.2-1.2S37,35.5,36.3,35.5z"/>
		<path class="st0" d="M43.7,35.5h-2.7c-0.6,0-1.2,0.5-1.2,1.2s0.5,1.2,1.2,1.2h2.7c0.6,0,1.2-0.5,1.2-1.2S44.4,35.5,43.7,35.5z"/>
		<path class="st0" d="M36.3,40.2h-2.7c-0.6,0-1.2,0.5-1.2,1.2s0.5,1.2,1.2,1.2h2.7c0.6,0,1.2-0.5,1.2-1.2S37,40.2,36.3,40.2z"/>
		<path class="st0" d="M43.7,40.2h-2.7c-0.6,0-1.2,0.5-1.2,1.2s0.5,1.2,1.2,1.2h2.7c0.6,0,1.2-0.5,1.2-1.2S44.4,40.2,43.7,40.2z"/>
		<path class="st0" d="M36.3,44.8h-2.7c-0.6,0-1.2,0.5-1.2,1.2c0,0.6,0.5,1.2,1.2,1.2h2.7c0.6,0,1.2-0.5,1.2-1.2
			C37.5,45.4,37,44.8,36.3,44.8z"/>
		<path class="st0" d="M43.7,44.8h-2.7c-0.6,0-1.2,0.5-1.2,1.2c0,0.6,0.5,1.2,1.2,1.2h2.7c0.6,0,1.2-0.5,1.2-1.2
			C44.9,45.4,44.4,44.8,43.7,44.8z"/>
	</g>
</g>
<g id="Layer_2">
</g>
</svg>
