<?xml version="1.0" encoding="utf-8"?>
<!-- Generator: Adobe Illustrator 22.0.1, SVG Export Plug-In . SVG Version: 6.00 Build 0)  -->
<svg version="1.1" id="Layer_1" xmlns="http://www.w3.org/2000/svg" xmlns:xlink="http://www.w3.org/1999/xlink" x="0px" y="0px"
	 viewBox="0 0 64 64" style="enable-background:new 0 0 64 64;" xml:space="preserve">
<g>
	<path d="M32,0C14.4,0,0,14.4,0,32s14.4,32,32,32s32-14.4,32-32S49.6,0,32,0z M32,61.6C15.7,61.6,2.4,48.3,2.4,32S15.7,2.4,32,2.4
		S61.6,15.7,61.6,32S48.3,61.6,32,61.6z"/>
	<path d="M50.9,39.8c-0.1-1.1-0.6-3.2-2.4-4.5c-1.8-1.2-4.1-1.4-6.1-0.4c-1.9-2.5-5.2-3.6-8.1-2.5c-3,1-5,3.9-4.9,7
		c-1.5,0.7-2.6,2.1-3,3.6h-7.2v-7h0.1c0.7,0,1.2-0.5,1.2-1.2c0-0.2-0.1-0.4-0.2-0.6l-1.2-2c-0.1-0.1-0.2-0.2-0.3-0.3
		C23.5,32,28.1,32,33,32c0,0,0.1,0,0.1,0c2.2-0.3,4-1.9,4.6-4h9.9v2.7h-0.1c-0.7,0-1.2,0.5-1.2,1.2c0,0.2,0.1,0.4,0.2,0.6l1.2,2
		c0.2,0.3,0.7,0.5,1,0.5s0.7-0.2,0.9-0.5l1.1-1.8c0.1-0.1,0.2-0.2,0.2-0.3c0.2-0.4,0-1-0.3-1.3c-0.2-0.2-0.5-0.3-0.8-0.3h-0.1v-3.4
		c0-0.8-0.7-1.5-1.5-1.5H37.9c-0.3-1.7-1.4-3.3-3-4.1c-0.1-1.1-0.6-3.2-2.4-4.5c-1.8-1.2-4.1-1.4-6.1-0.4c-1.9-2.5-5.2-3.6-8.1-2.5
		c-3,1-5,3.9-4.9,7c-2.1,1-3.5,3.3-3.2,5.6c0.3,2.5,2.2,4.6,4.7,5c0,0,0.1,0,0.1,0c0.8,0,1.5,0,2.3,0c-0.1,0.1-0.2,0.2-0.3,0.3
		l-1.1,1.9c-0.2,0.2-0.3,0.5-0.3,0.8c0,0.6,0.6,1.1,1.2,1.1h0.1v7.8c0,0.8,0.6,1.4,1.4,1.4h7.8c0.3,2.4,2.3,4.4,4.7,4.8
		c0.1,0,0.1,0,0.2,0c5.8,0,11.9,0,17.9,0.1c0,0,0,0,0,0c0,0,0.1,0,0.1,0c2.7-0.4,4.7-2.6,4.9-5.3C53.9,42.7,52.7,40.8,50.9,39.8z
		 M12.4,26.7c-0.2-1.6,0.9-3.2,2.5-3.6c0.5-0.2,0.9-0.7,0.8-1.2c-0.3-2.4,1.1-4.8,3.4-5.5c2.3-0.8,4.9,0.2,6.1,2.5
		c0.1,0.3,0.4,0.5,0.7,0.6c0.3,0.1,0.6,0,0.9-0.2c1.3-1,3.2-1.1,4.5-0.2c1.5,1.1,1.5,3,1.5,3.4c0,0.5,0.3,0.9,0.7,1
		c1.3,0.5,2.2,1.7,2.3,3c-0.1,0.1-0.1,0.3-0.1,0.4c0,0.1,0,0.1,0,0.2c-0.3,1.4-1.4,2.5-2.8,2.7c-6.1,0-11.8,0-17.7-0.1
		C13.7,29.5,12.5,28.2,12.4,26.7z M48.8,47.9c-5.9-0.1-11.9-0.1-17.7-0.1c-1.5-0.3-2.6-1.5-2.8-3c-0.2-1.6,0.9-3.2,2.5-3.6
		c0.5-0.2,0.9-0.7,0.8-1.2c-0.3-2.4,1.1-4.8,3.4-5.5c2.3-0.8,4.9,0.2,6.1,2.5c0.1,0.3,0.4,0.5,0.7,0.6c0.3,0.1,0.6,0,0.9-0.2
		c1.3-1,3.2-1.1,4.5-0.2c1.5,1.1,1.5,3,1.5,3.4c0,0.5,0.3,0.9,0.7,1c1.4,0.5,2.3,1.8,2.3,3.2C51.6,46.3,50.4,47.6,48.8,47.9z"/>
</g>
<g id="Layer_2_1_">
</g>
</svg>
