<?xml version="1.0" encoding="utf-8"?>
<!-- Generator: Adobe Illustrator 22.0.1, SVG Export Plug-In . SVG Version: 6.00 Build 0)  -->
<svg version="1.1" id="Layer_1" xmlns="http://www.w3.org/2000/svg" xmlns:xlink="http://www.w3.org/1999/xlink" x="0px" y="0px"
	 viewBox="0 0 64 64" style="enable-background:new 0 0 64 64;" xml:space="preserve">
<style type="text/css">
	.st0{fill:#333333;}
</style>
<g id="Layer_1_1_">
</g>
<path class="st0" d="M63.9,1.9c0-0.2-0.1-0.4-0.2-0.6c0,0,0-0.1-0.1-0.1c-0.1-0.2-0.2-0.3-0.3-0.4c-0.1-0.1-0.3-0.2-0.5-0.3
	c0,0-0.1,0-0.1-0.1c-0.1-0.1-0.3-0.1-0.4-0.2h-0.1c-0.2,0-0.4,0-0.6,0h-0.1c-0.2,0-0.3,0.1-0.5,0.1h-0.1L1.5,22.6
	C0.6,22.9,0,23.8,0,24.8s0.6,1.9,1.6,2.2l27.2,9.7l8.7,25.7c0.3,0.9,1.2,1.6,2.2,1.6s1.9-0.6,2.2-1.5l22-59.1C63.9,3,64,2.9,64,2.7
	V2.6C64,2.3,64,2.1,63.9,1.9z M9.1,24.7L52.8,8.3L29.9,32.1L9.1,24.7z M39.8,54.6l-6.5-19.2l22.3-23.2L39.8,54.6z"/>
</svg>
