<?xml version="1.0" encoding="utf-8"?>
<!-- Generator: Adobe Illustrator 22.0.1, SVG Export Plug-In . SVG Version: 6.00 Build 0)  -->
<svg version="1.1" id="Layer_1" xmlns="http://www.w3.org/2000/svg" xmlns:xlink="http://www.w3.org/1999/xlink" x="0px" y="0px"
	 viewBox="0 0 64 64" style="enable-background:new 0 0 64 64;" xml:space="preserve">
<g id="Layer_1_1_">
</g>
<g>
	<path d="M32,0C14.4,0,0,14.4,0,32s14.4,32,32,32s32-14.4,32-32S49.6,0,32,0z M32,61.6C15.7,61.6,2.4,48.3,2.4,32S15.7,2.4,32,2.4
		S61.6,15.7,61.6,32S48.3,61.6,32,61.6z"/>
	<path d="M49.3,20.7H39v-5.8c0-1.9-1.6-3.5-3.5-3.5H23.3c-1.9,0-3.5,1.6-3.5,3.5V49c0,1.9,1.6,3.5,3.5,3.5h12.2
		c1.9,0,3.5-1.6,3.5-3.5V26.5h10.3c1.6,0,2.9-1.3,2.9-2.9C52.2,22,50.9,20.7,49.3,20.7z M35.6,50.8H23.3c-1,0-1.7-0.8-1.7-1.7V14.9
		c0-1,0.8-1.7,1.7-1.7h12.2c1,0,1.7,0.8,1.7,1.7v5.8H29c-1.6,0-2.9,1.3-2.9,2.9c0,1.6,1.3,2.9,2.9,2.9h8.2v22.6h0.1
		C37.3,50.1,36.5,50.8,35.6,50.8z M49.3,24.8H29c-0.6,0-1.2-0.5-1.2-1.2c0-0.6,0.5-1.2,1.2-1.2h20.2c0.6,0,1.2,0.5,1.2,1.2
		C50.4,24.3,49.9,24.8,49.3,24.8z"/>
	<path d="M29.4,35.6c-1.3,0-2.4,1.1-2.4,2.5c0,0.8,0.4,1.6,1.1,2v3.7c0,0.7,0.6,1.3,1.3,1.3c0.7,0,1.3-0.6,1.3-1.3V40
		c0.6-0.4,1.1-1.2,1.1-2C31.8,36.7,30.7,35.6,29.4,35.6z"/>
</g>
</svg>
