<?xml version="1.0" encoding="utf-8"?>
<!-- Generator: Adobe Illustrator 22.0.1, SVG Export Plug-In . SVG Version: 6.00 Build 0)  -->
<svg version="1.1" id="Layer_1" xmlns="http://www.w3.org/2000/svg" xmlns:xlink="http://www.w3.org/1999/xlink" x="0px" y="0px"
	 viewBox="0 0 64 64" style="enable-background:new 0 0 64 64;" xml:space="preserve">
<g>
	<path d="M32,0C14.4,0,0,14.4,0,32s14.4,32,32,32s32-14.4,32-32S49.6,0,32,0z M32,61.6C15.7,61.6,2.4,48.3,2.4,32S15.7,2.4,32,2.4
		S61.6,15.7,61.6,32S48.3,61.6,32,61.6z"/>
	<path d="M35.4,42.6l-6.1-2.3c-0.4-0.1-0.7-0.1-1,0.1l-2.6,1.9L20.1,35l2.6-1.9c0.3-0.2,0.5-0.6,0.4-0.9l-0.3-6.4c0-0.5-0.4-1-1-1
		l-7.5-1c-0.6-0.1-1.1,0.3-1.2,0.9c-1.2,8,0.2,14.4,4.2,19c6.2,7.3,16.5,7.5,16.9,7.5c0,0,0,0,0,0c0.6,0,1-0.4,1.1-1l0.7-6.4
		C36.1,43.2,35.9,42.7,35.4,42.6z M33.3,48.8c-2.6-0.2-9.7-1.3-14.3-6.6c-3.4-3.9-4.6-9.4-3.8-16.2l5.5,0.7l0.2,4.9l-3,2.3
		c-0.2,0.2-0.4,0.4-0.4,0.7c0,0.3,0,0.6,0.2,0.8l6.8,9.1c0.4,0.5,1,0.6,1.5,0.2l3-2.2l4.7,1.8L33.3,48.8z"/>
	<path d="M39.4,12.9c-6.5,0-11.8,5.3-11.8,11.8c0,1.9,0.5,3.8,1.5,5.7c-0.2,0.6-1,2-1.8,3.2c-0.2,0.4-0.3,0.8,0,1.2
		c0.2,0.4,0.7,0.6,1.1,0.5c2.4-0.3,4.9-0.4,5.4-0.2c1.8,0.9,3.7,1.4,5.7,1.4c6.5,0,11.8-5.3,11.8-11.8S46,12.9,39.4,12.9z
		 M39.5,34.3c-1.6,0-3.2-0.4-4.7-1.2c-0.5-0.3-1.4-0.4-2.5-0.4c-0.6,0-1.3,0-2,0.1c1.4-2.4,1-3,0.8-3.3c-0.9-1.6-1.4-3.2-1.4-4.9
		c0-5.3,4.3-9.6,9.6-9.6c5.3,0,9.7,4.3,9.7,9.6S44.8,34.3,39.5,34.3z"/>
	<path d="M36.7,21.6h5.4c0.6,0,1.1-0.5,1.1-1.1s-0.5-1.1-1.1-1.1h-5.4c-0.6,0-1.1,0.5-1.1,1.1S36.1,21.6,36.7,21.6z"/>
	<path d="M42.1,28.3h-5.4c-0.6,0-1.1,0.5-1.1,1.1s0.5,1.1,1.1,1.1h5.4c0.6,0,1.1-0.5,1.1-1.1S42.7,28.3,42.1,28.3z"/>
	<path d="M45.1,23.9H33.7c-0.6,0-1.1,0.5-1.1,1.1s0.5,1.1,1.1,1.1h11.4c0.6,0,1.1-0.5,1.1-1.1S45.7,23.9,45.1,23.9z"/>
</g>
<g id="Layer_2_1_">
</g>
</svg>
