<?xml version="1.0" encoding="utf-8"?>
<!-- Generator: Adobe Illustrator 22.0.1, SVG Export Plug-In . SVG Version: 6.00 Build 0)  -->
<svg version="1.1" xmlns="http://www.w3.org/2000/svg" xmlns:xlink="http://www.w3.org/1999/xlink" x="0px" y="0px"
	 viewBox="0 0 64 64" style="enable-background:new 0 0 64 64;" xml:space="preserve">
<style type="text/css">
	.st0{fill:#231F20;}
	.st1{fill-rule:evenodd;clip-rule:evenodd;fill:#231F20;}
	.st2{fill:none;stroke:#000000;stroke-width:1.4;stroke-miterlimit:10;}
	.st3{fill:none;stroke:#231F20;stroke-width:2.2;stroke-miterlimit:10;}
	.st4{fill:none;stroke:#231F20;stroke-width:3;stroke-linecap:round;stroke-miterlimit:10;}
	.st5{fill:none;stroke:#231F20;stroke-width:2.2;stroke-linecap:round;stroke-linejoin:round;stroke-miterlimit:10;}
	.st6{fill:none;stroke:#000000;stroke-width:2.2;stroke-linecap:round;stroke-linejoin:round;stroke-miterlimit:10;}
	.st7{fill:none;stroke:#231F20;stroke-width:2.2;stroke-linecap:round;stroke-miterlimit:10;}
	.st8{fill:none;stroke:#000000;stroke-width:2.2;stroke-miterlimit:10;}
	.st9{fill:none;stroke:#000000;stroke-width:2;stroke-linecap:round;stroke-linejoin:round;stroke-miterlimit:10;}
	.st10{fill:none;stroke:#000000;stroke-width:1.8;stroke-linejoin:round;stroke-miterlimit:10;}
	
		.st11{fill-rule:evenodd;clip-rule:evenodd;fill:none;stroke:#000000;stroke-width:2.2;stroke-linecap:round;stroke-linejoin:round;stroke-miterlimit:10;}
	.st12{fill:#221F1F;}
	.st13{fill:none;stroke:#000000;stroke-width:1.8;stroke-miterlimit:10;}
	.st14{fill:none;stroke:#000000;stroke-width:1.7;stroke-linecap:round;stroke-linejoin:round;stroke-miterlimit:10;}
	.st15{fill:none;stroke:#000000;stroke-width:3;stroke-linecap:round;stroke-linejoin:round;stroke-miterlimit:10;}
	.st16{fill:none;stroke:#000000;stroke-width:1.8;stroke-linecap:round;stroke-linejoin:round;stroke-miterlimit:10;}
	.st17{fill:none;stroke:#000000;stroke-width:1.6;stroke-linecap:round;stroke-linejoin:round;stroke-miterlimit:10;}
	.st18{fill:none;stroke:#231F20;stroke-width:2;stroke-miterlimit:10;}
	.st19{fill:#0A1423;}
	.st20{fill:#F4831F;}
	.st21{fill:none;stroke:#000000;stroke-width:0.4736;stroke-miterlimit:10;}
	.st22{fill:none;stroke:#000000;stroke-width:0.431;stroke-miterlimit:10;}
	.st23{fill-rule:evenodd;clip-rule:evenodd;fill:none;stroke:#000000;stroke-width:0.6314;stroke-miterlimit:10;}
	.st24{fill-rule:evenodd;clip-rule:evenodd;fill:none;stroke:#231F20;stroke-width:0.4567;stroke-miterlimit:10;}
	.st25{fill-rule:evenodd;clip-rule:evenodd;fill:none;stroke:#231F20;stroke-width:0.2284;stroke-miterlimit:10;}
	.st26{fill:none;stroke:#000000;stroke-width:0.419;stroke-miterlimit:10;}
	.st27{fill:none;stroke:#000000;stroke-width:0.3813;stroke-miterlimit:10;}
	.st28{fill:#FFFFFF;stroke:#000000;stroke-width:0.419;stroke-miterlimit:10;}
	.st29{fill-rule:evenodd;clip-rule:evenodd;fill:none;stroke:#000000;stroke-width:0.5586;stroke-miterlimit:10;}
	.st30{fill-rule:evenodd;clip-rule:evenodd;fill:#FFFFFF;}
	.st31{fill-rule:evenodd;clip-rule:evenodd;fill:#FFFFFF;stroke:#231F20;stroke-width:0.2682;stroke-miterlimit:10;}
	.st32{fill-rule:evenodd;clip-rule:evenodd;}
	.st33{fill:none;stroke:#000000;stroke-width:2;stroke-miterlimit:10;}
	.st34{fill:#FFFFFF;}
	.st35{opacity:0.85;}
</style>
<g id="Layer_1">
	<path d="M63.6,27.9C61.8,13.8,50.3,2.4,36.1,0.6c-10-1.2-19.7,2.1-26.7,9.1c-7,7-10.2,16.6-9,26.5c0.7,5,2.5,9.8,5.5,14l-2.4,7.6
		c-0.3,0.9,0,1.8,0.7,2.5c0.7,0.6,1.7,0.8,2.6,0.5l7.2-2.6c4.2,3,8.9,4.8,14,5.4c1.4,0.2,2.7,0.3,4.1,0.3c8.5,0,16.5-3.3,22.6-9.3
		C61.5,47.4,64.8,37.7,63.6,27.9z M52.9,52.7c-6.5,6.5-15.5,9.6-24.8,8.4c-4.8-0.6-9.3-2.4-13.4-5.3l-0.5-0.4l-8.3,3
		c-0.1,0-0.2,0-0.2,0c-0.1,0,0-0.1,0-0.1l2.7-8.7l-0.3-0.5c-2.9-3.9-4.7-8.6-5.4-13.4c-1.2-9.1,1.9-18.1,8.4-24.5
		c6.5-6.5,15.5-9.6,24.8-8.4C49,4.5,59.7,15.2,61.3,28.2C62.4,37.3,59.4,46.3,52.9,52.7z"/>
	<g>
		<path class="st19" d="M43.9,45.9c-0.3-0.4-1.2-0.6-1.6-0.7c-1.1-0.4-1.5-1.8-2.8-2c-2.3-0.4-3.7,0.6-5.6,1.6
			c-0.4,0.2-1.1,0.4-1.5,0.5c-0.9,0.2-1.2-0.1-1.2-0.8c0-0.5,0.4-2.7,0-4.4c-0.2-1.2-1.1-1.6-1.3-1.6c-1.3-0.3-3,1.3-3,1.3
			c-0.5,0.5-1,1.2-0.9,0.6c0,0,0.4-1.7,1-4c0.9-0.1,1.6-0.2,2.2-0.4c3.4-0.7,8.5-2.5,11.2-6.9c2.5-4.1,2.3-8.8,1.3-11.1
			c-1.1-2.6-3-4.8-6-4.1c-3.1,0.7-5.4,4.3-6.7,8.1c-0.5,1.3-2.4,9-3.6,13.5c-3.5,0.3-8,0.3-11.8-0.8c-0.9-0.3-1.1-0.6-1.6-1.1
			c-0.5-0.5-1.3-0.3-1.7,0.1c-0.4,0.4,1.2,1.3,2.7,1.8c3.6,1.2,8.4,1.3,12.1,0.9c-0.4,1.4-0.6,2.4-0.6,2.4s-1.3,4.8-1.5,5.5
			c-0.2,0.9,0,2.1,0.6,2.1c0.8,0.1,0.8-0.3,1.3-2.1c0.2-0.9,0.5-1.7,1.2-2.5c1-1.2,2.7-1.5,3-1.5c0.7,0.1,0.7,1.1,0.7,2.3
			c0,0-0.1,1.2,0,1.7c0.3,2,2.4,2.2,4,1.7c1-0.3,1.9-0.9,2.9-1.4c1.1-0.6,1.6-0.8,2.8-0.3c1.4,0.6,1.8,2.4,4,2
			C43.7,46.5,44.1,46.2,43.9,45.9z M30.8,22.5c0.8-1.9,2.5-5.3,4.9-6.2c1.4-0.5,3-0.2,3.8,2c0.6,1.5,1.5,6.5-0.9,9.9
			c-2.5,3.6-6.4,5.9-9.6,6.6c-0.5,0.1-1.2,0.2-1.9,0.4C28.5,30.6,30.2,24.1,30.8,22.5z"/>
		<path class="st20" d="M46.7,46.6c1.3-0.2,1.7,0,1.9-0.6c0.1-0.6-0.1-1.2-0.3-1.4c-0.1-0.1,0.1-0.3-1.6-0.4
			C45.1,44.2,45.4,46.8,46.7,46.6"/>
	</g>
</g>
<g id="Layer_2">
</g>
</svg>
