<?xml version="1.0" encoding="utf-8"?>
<!-- Generator: Adobe Illustrator 22.0.1, SVG Export Plug-In . SVG Version: 6.00 Build 0)  -->
<svg version="1.1" xmlns="http://www.w3.org/2000/svg" xmlns:xlink="http://www.w3.org/1999/xlink" x="0px" y="0px"
	 viewBox="0 0 64 64" style="enable-background:new 0 0 64 64;" xml:space="preserve">
<style type="text/css">
	.st0{fill:#231F20;}
	.st1{fill-rule:evenodd;clip-rule:evenodd;fill:#231F20;}
	.st2{fill:none;stroke:#000000;stroke-width:1.4;stroke-miterlimit:10;}
	.st3{fill:none;stroke:#231F20;stroke-width:2.2;stroke-miterlimit:10;}
	.st4{fill:none;stroke:#231F20;stroke-width:3;stroke-linecap:round;stroke-miterlimit:10;}
	.st5{fill:none;stroke:#231F20;stroke-width:2.2;stroke-linecap:round;stroke-linejoin:round;stroke-miterlimit:10;}
	.st6{fill:none;stroke:#000000;stroke-width:2.2;stroke-linecap:round;stroke-linejoin:round;stroke-miterlimit:10;}
	.st7{fill:none;stroke:#231F20;stroke-width:2.2;stroke-linecap:round;stroke-miterlimit:10;}
	.st8{fill:none;stroke:#000000;stroke-width:2.2;stroke-miterlimit:10;}
	.st9{fill:none;stroke:#000000;stroke-width:2;stroke-linecap:round;stroke-linejoin:round;stroke-miterlimit:10;}
	.st10{fill:none;stroke:#000000;stroke-width:1.8;stroke-linejoin:round;stroke-miterlimit:10;}
	
		.st11{fill-rule:evenodd;clip-rule:evenodd;fill:none;stroke:#000000;stroke-width:2.2;stroke-linecap:round;stroke-linejoin:round;stroke-miterlimit:10;}
	.st12{fill:#221F1F;}
	.st13{fill:none;stroke:#000000;stroke-width:1.8;stroke-miterlimit:10;}
	.st14{fill:none;stroke:#000000;stroke-width:1.7;stroke-linecap:round;stroke-linejoin:round;stroke-miterlimit:10;}
	.st15{fill:none;stroke:#000000;stroke-width:3;stroke-linecap:round;stroke-linejoin:round;stroke-miterlimit:10;}
	.st16{fill:none;stroke:#000000;stroke-width:1.8;stroke-linecap:round;stroke-linejoin:round;stroke-miterlimit:10;}
	.st17{fill:none;stroke:#000000;stroke-width:1.6;stroke-linecap:round;stroke-linejoin:round;stroke-miterlimit:10;}
	.st18{fill:none;stroke:#231F20;stroke-width:2;stroke-miterlimit:10;}
	.st19{fill:#0A1423;}
	.st20{fill:#F4831F;}
	.st21{fill:none;stroke:#000000;stroke-width:0.4736;stroke-miterlimit:10;}
	.st22{fill:none;stroke:#000000;stroke-width:0.431;stroke-miterlimit:10;}
	.st23{fill-rule:evenodd;clip-rule:evenodd;fill:none;stroke:#000000;stroke-width:0.6314;stroke-miterlimit:10;}
	.st24{fill-rule:evenodd;clip-rule:evenodd;fill:none;stroke:#231F20;stroke-width:0.4567;stroke-miterlimit:10;}
	.st25{fill-rule:evenodd;clip-rule:evenodd;fill:none;stroke:#231F20;stroke-width:0.2284;stroke-miterlimit:10;}
	.st26{fill:none;stroke:#000000;stroke-width:0.419;stroke-miterlimit:10;}
	.st27{fill:none;stroke:#000000;stroke-width:0.3813;stroke-miterlimit:10;}
	.st28{fill:#FFFFFF;stroke:#000000;stroke-width:0.419;stroke-miterlimit:10;}
	.st29{fill-rule:evenodd;clip-rule:evenodd;fill:none;stroke:#000000;stroke-width:0.5586;stroke-miterlimit:10;}
	.st30{fill-rule:evenodd;clip-rule:evenodd;fill:#FFFFFF;}
	.st31{fill-rule:evenodd;clip-rule:evenodd;fill:#FFFFFF;stroke:#231F20;stroke-width:0.2682;stroke-miterlimit:10;}
	.st32{fill-rule:evenodd;clip-rule:evenodd;}
	.st33{fill:none;stroke:#000000;stroke-width:2;stroke-miterlimit:10;}
	.st34{fill:#FFFFFF;}
	.st35{opacity:0.85;}
</style>
<g id="Layer_1">
	<path class="st0" d="M32,64C14.4,64,0,49.6,0,32S14.4,0,32,0s32,14.4,32,32S49.6,64,32,64z M32,2.4C15.7,2.4,2.4,15.7,2.4,32
		S15.7,61.6,32,61.6S61.6,48.3,61.6,32S48.3,2.4,32,2.4z"/>
	<g>
		<path class="st0" d="M53.5,37.6c0-0.2,0.1-0.3,0.1-0.5c0.3-7.7-7.7-9.9-14-10.9V11c0-0.8-0.8-1.5-1.7-1.5H26.7
			c-0.9,0-1.7,0.7-1.7,1.5v15.4c-9,1.5-13.6,5.2-13.5,10.7c0,0.2,0,0.4,0.1,0.5l-0.1,0c0.1,0.5,3.1,12.9,7.6,15.3l0.2,0.1h13.2h0.3
			h13.2l0.2-0.1c4.6-2.3,7.5-14.7,7.6-15.3L53.5,37.6z M32.7,51.5h-0.3H19.5c-2.1-1.2-3.9-5.3-5.2-9c3.6,3.1,10.3,5.2,18.2,5.2
			c7.8,0,14.6-2.1,18.2-5.4c-1.3,3.7-3.1,8-5.2,9.2H32.7z M24.3,35.1c0.2-0.1,0.4-0.2,0.7-0.2v0.4C24.7,35.2,24.5,35.2,24.3,35.1z
			 M25,31.8c-2.5,0.2-6,0.6-8.6,1.5c1.8-1.5,4.9-2.8,8.6-3.5V31.8z M39.6,29.7c4,0.7,7.2,2,9.1,3.6c-2.7-0.9-6.5-1.3-9.1-1.5V29.7z
			 M14.8,37.8c3.7,1.9,12.5,2.4,17.7,2.4c5.2,0,14-0.5,17.7-2.4c-1.5,3.4-9,6.1-17.7,6.1C23.8,43.9,16.3,41.2,14.8,37.8z M39.6,34.8
			c0.3,0.1,0.5,0.2,0.7,0.2c-0.2,0.1-0.4,0.1-0.7,0.2V34.8z M38.7,36.8c2.2-0.5,3.2-0.8,3.2-1.7c0-0.7-0.7-1.3-2.3-1.7v-0.4
			c6.5,0.5,9.8,1.6,10.7,2.4c0.1,0.2,0.1,0.4,0.2,0.6c-0.9,1.1-7.1,2.8-18,2.8c-10.8,0-17.1-1.7-18-2.8c0-0.2,0.1-0.4,0.2-0.6
			c0.9-0.7,4.1-1.8,10.3-2.3v0.4c-1.6,0.4-2.3,0.9-2.3,1.7c0,1,1.2,1.2,3.1,1.6l0,0c0.3,0.1,0.6,0.2,0.9,0.2h11.2
			C38.2,37,38.4,36.9,38.7,36.8z M26.7,10.7h11.2c0.2,0,0.4,0.1,0.4,0.2v24.5c0,0.1-0.2,0.2-0.4,0.2H26.7c-0.2,0-0.4-0.1-0.4-0.2v-6
			l0,0l0-0.2V11C26.3,10.9,26.4,10.7,26.7,10.7z M25,27.6l0,0.6c-7.3,1.4-12,4.5-12,8.2c0,5,8.6,8.9,19.5,8.9
			c10.9,0,19.5-3.9,19.5-8.9c0-3.8-4.8-7-12.4-8.3v-0.7c8.8,1.5,12.8,4.5,12.6,9.5c0,0.1,0,0.2,0,0.3l0,0c-0.1,0.5-0.3,1-0.4,1.7
			c-2,4.2-10,7.4-19.2,7.4c-9.3,0-17.1-3-19.2-7.1c-0.2-0.7-0.4-1.4-0.5-1.9l-0.1,0c0-0.1,0-0.2,0-0.3C12.7,32.2,16.8,29.1,25,27.6z
			"/>
		<path class="st0" d="M37.8,12H26.7v22.1h11.1V12z M36.5,32.8H28V13.3h8.5V32.8z"/>
		<path class="st0" d="M29.4,34.8c-0.1-0.2-0.2-0.3-0.5-0.3h-0.3c0,0,0,0,0,0c0-0.1,0-0.1-0.1-0.1l0,0h-0.1l0,0
			c-0.1,0.1-0.1,0.1-0.2,0.2c0,0-0.1,0.1-0.1,0.1c0,0,0,0,0,0L28,34.7h0.1c0,0,0,0,0,0c0.1,0,0.1,0.1,0.2,0.1c0,0,0,0,0.1,0
			c0,0,0.1,0,0.2,0c0,0,0-0.1,0-0.1c0.1,0,0.2,0,0.4,0c0,0,0.1,0,0.1,0c0.1,0,0.1,0.1,0.1,0.2c0,0.1-0.1,0.1-0.2,0.1h-0.7
			c-0.1,0-0.2,0.1-0.2,0.1l0,0.1l0,0c0,0.1,0.1,0.1,0.2,0.1c0.2,0,0.4,0,0.7,0c0.3,0,0.5-0.2,0.5-0.4l0,0L29.4,34.8
			C29.4,34.8,29.4,34.8,29.4,34.8z"/>
		<path class="st0" d="M37.2,34.7C37.2,34.7,37.2,34.6,37.2,34.7c-0.1-0.1-0.1-0.1-0.1-0.2l0,0l0,0c0,0-0.1,0-0.1,0
			c0,0-0.1,0.1-0.1,0.1l0,0.1c0,0-0.1-0.1-0.1,0c0,0,0,0-0.1,0.1c-0.1-0.1-0.2-0.1-0.3-0.1h-1c-0.2,0-0.3,0.2-0.3,0.4
			c0,0.2,0.1,0.4,0.3,0.4h1c0.1,0,0.2,0,0.3-0.1l0,0l0.1,0c0,0,0,0,0.1,0c0,0,0.1,0,0.1,0c0,0,0,0,0,0l0,0.1l0.1,0c0,0,0,0,0.1,0
			c0,0,0.1,0,0.1,0l0,0c0,0,0,0,0.1-0.1c0,0,0-0.1,0.1-0.1c0,0,0-0.1,0-0.1c0,0,0-0.1,0-0.1l-0.1,0c0,0,0,0,0,0l0.1,0l0,0
			C37.3,34.8,37.3,34.8,37.2,34.7L37.2,34.7z M36.3,34.9C36.3,34.9,36.4,34.9,36.3,34.9C36.4,35,36.3,35,36.3,34.9
			C36.3,34.9,36.3,34.9,36.3,34.9z M35.2,34.9c0-0.2,0.1-0.2,0.1-0.2h0.8c0,0-0.1,0.1-0.1,0.2c0,0.1,0,0.1,0.1,0.1h-0.7
			C35.3,35.1,35.2,35.1,35.2,34.9z M37,35C37,35,37,35.1,37,35C37,35.1,37,35.1,37,35L37,35L37,35L37,35l0-0.2c0,0,0,0,0,0l0,0
			c0,0,0,0,0,0.1C37,34.9,37,34.9,37,35C37,35,37,35,37,35z"/>
	</g>
</g>
<g id="Layer_2">
</g>
</svg>
