<?xml version="1.0" encoding="utf-8"?>
<!-- Generator: Adobe Illustrator 22.0.1, SVG Export Plug-In . SVG Version: 6.00 Build 0)  -->
<svg version="1.1" xmlns="http://www.w3.org/2000/svg" xmlns:xlink="http://www.w3.org/1999/xlink" x="0px" y="0px"
	 viewBox="0 0 64 64" style="enable-background:new 0 0 64 64;" xml:space="preserve">
<style type="text/css">
	.st0{fill:#231F20;}
	.st1{fill-rule:evenodd;clip-rule:evenodd;fill:#231F20;}
	.st2{fill:none;stroke:#000000;stroke-width:1.4;stroke-miterlimit:10;}
	.st3{fill:none;stroke:#231F20;stroke-width:2.2;stroke-miterlimit:10;}
	.st4{fill:none;stroke:#231F20;stroke-width:3;stroke-linecap:round;stroke-miterlimit:10;}
	.st5{fill:none;stroke:#231F20;stroke-width:2.2;stroke-linecap:round;stroke-linejoin:round;stroke-miterlimit:10;}
	.st6{fill:none;stroke:#000000;stroke-width:2.2;stroke-linecap:round;stroke-linejoin:round;stroke-miterlimit:10;}
	.st7{fill:none;stroke:#231F20;stroke-width:2.2;stroke-linecap:round;stroke-miterlimit:10;}
	.st8{fill:none;stroke:#000000;stroke-width:2.2;stroke-miterlimit:10;}
	.st9{fill:none;stroke:#000000;stroke-width:2;stroke-linecap:round;stroke-linejoin:round;stroke-miterlimit:10;}
	.st10{fill:none;stroke:#000000;stroke-width:1.8;stroke-linejoin:round;stroke-miterlimit:10;}
	
		.st11{fill-rule:evenodd;clip-rule:evenodd;fill:none;stroke:#000000;stroke-width:2.2;stroke-linecap:round;stroke-linejoin:round;stroke-miterlimit:10;}
	.st12{fill:#221F1F;}
	.st13{fill:none;stroke:#000000;stroke-width:1.8;stroke-miterlimit:10;}
	.st14{fill:none;stroke:#000000;stroke-width:1.7;stroke-linecap:round;stroke-linejoin:round;stroke-miterlimit:10;}
	.st15{fill:none;stroke:#000000;stroke-width:3;stroke-linecap:round;stroke-linejoin:round;stroke-miterlimit:10;}
	.st16{fill:none;stroke:#000000;stroke-width:1.8;stroke-linecap:round;stroke-linejoin:round;stroke-miterlimit:10;}
	.st17{fill:none;stroke:#000000;stroke-width:1.6;stroke-linecap:round;stroke-linejoin:round;stroke-miterlimit:10;}
	.st18{fill:none;stroke:#231F20;stroke-width:2;stroke-miterlimit:10;}
	.st19{fill:#0A1423;}
	.st20{fill:#F4831F;}
	.st21{fill:none;stroke:#000000;stroke-width:0.4736;stroke-miterlimit:10;}
	.st22{fill:none;stroke:#000000;stroke-width:0.431;stroke-miterlimit:10;}
	.st23{fill-rule:evenodd;clip-rule:evenodd;fill:none;stroke:#000000;stroke-width:0.6314;stroke-miterlimit:10;}
	.st24{fill-rule:evenodd;clip-rule:evenodd;fill:none;stroke:#231F20;stroke-width:0.4567;stroke-miterlimit:10;}
	.st25{fill-rule:evenodd;clip-rule:evenodd;fill:none;stroke:#231F20;stroke-width:0.2284;stroke-miterlimit:10;}
	.st26{fill:none;stroke:#000000;stroke-width:0.419;stroke-miterlimit:10;}
	.st27{fill:none;stroke:#000000;stroke-width:0.3813;stroke-miterlimit:10;}
	.st28{fill:#FFFFFF;stroke:#000000;stroke-width:0.419;stroke-miterlimit:10;}
	.st29{fill-rule:evenodd;clip-rule:evenodd;fill:none;stroke:#000000;stroke-width:0.5586;stroke-miterlimit:10;}
	.st30{fill-rule:evenodd;clip-rule:evenodd;fill:#FFFFFF;}
	.st31{fill-rule:evenodd;clip-rule:evenodd;fill:#FFFFFF;stroke:#231F20;stroke-width:0.2682;stroke-miterlimit:10;}
	.st32{fill-rule:evenodd;clip-rule:evenodd;}
	.st33{fill:none;stroke:#000000;stroke-width:2;stroke-miterlimit:10;}
	.st34{fill:#FFFFFF;}
	.st35{opacity:0.85;}
</style>
<g id="Layer_1">
	<path class="st0" d="M32,64C14.4,64,0,49.6,0,32S14.4,0,32,0s32,14.4,32,32S49.6,64,32,64z M32,2.4C15.7,2.4,2.4,15.7,2.4,32
		S15.7,61.6,32,61.6S61.6,48.3,61.6,32S48.3,2.4,32,2.4z"/>
	<g>
		<path class="st0" d="M53,32.9c-0.3-1.3-1.3-2.1-2.7-2.1c-0.3,0-0.5,0-0.8,0.1c0,0-0.4,0.1-0.9,0.1c-1.3,0-3.2-0.4-5.1-2.2
			c-0.7-0.7-1.6-1.4-2.4-1.9v-6.6c0-1.7-1.4-3.2-3.2-3.2H27.4c-1.7,0-3.2,1.4-3.2,3.2v33.5c0,1.7,1.4,3.2,3.2,3.2H38
			c1.7,0,3.2-1.4,3.2-3.2V33.9c1.5,1.1,3.1,1.8,4.8,2.2c0.9,0.2,1.8,0.3,2.7,0.3c1.1,0,1.8-0.1,2.2-0.2c0.8-0.2,1.5-0.6,1.9-1.3
			C53.1,34.3,53.2,33.6,53,32.9z M26.1,20.3c0-0.7,0.6-1.3,1.3-1.3H38c0.7,0,1.3,0.6,1.3,1.3V26c-3.7-1.6-6.9-1.1-7.2-1
			c-1.6,0.3-2.7,1.6-2.5,3.1c0.1,1.4,1.3,2.3,2.7,2.3c0.2,0,0.4,0,0.7-0.1c0.1,0,0.3,0,0.7,0c1.2,0,3.5,0.3,5.6,2c0,0,0,0,0,0v21.5
			c0,0.7-0.6,1.3-1.3,1.3H27.4c-0.7,0-1.3-0.6-1.3-1.3V20.3z M50.4,34.4c-0.5,0.1-1.2,0.2-1.8,0.2c-0.8,0-1.5-0.1-2.3-0.3
			c-2-0.4-3.7-1.4-5.3-2.9c-2.6-2.6-5.7-3-7.4-3c-0.6,0-1,0.1-1,0.1c-0.1,0-0.2,0-0.3,0c-0.4,0-0.9-0.2-0.9-0.7
			c-0.1-0.5,0.3-1,1-1.1c0,0,5.5-0.9,9.9,3.4c2.3,2.2,4.7,2.7,6.4,2.7c0.7,0,1.2-0.1,1.4-0.1c0.6-0.2,1.1,0.1,1.2,0.6
			c0.1,0.2,0,0.5-0.1,0.6C51,34.2,50.8,34.3,50.4,34.4l0.1,0.2h0L50.4,34.4z"/>
		<path class="st0" d="M29.4,10.6c0.5,0.1,1-0.3,1.1-0.9c0-0.3,0-0.5-0.2-0.7c-0.2-0.2-0.4-0.3-0.7-0.4c-11.5-1.3-14.1,8.6-14.1,8.7
			c-0.1,0.3,0,0.5,0.1,0.7c0.1,0.2,0.4,0.4,0.6,0.4c0.1,0,0.1,0,0.2,0c0.2,0,0.3,0,0.5-0.1c0.2-0.1,0.4-0.4,0.5-0.6
			C17.5,17.4,19.5,9.5,29.4,10.6z"/>
		<path class="st0" d="M28.7,14.6c0.2,0,0.5,0,0.6-0.1c0.3-0.2,0.4-0.4,0.5-0.7c0-0.3,0-0.5-0.2-0.7c-0.2-0.2-0.4-0.4-0.6-0.4
			c-6.4-1-9.2,3.3-9.7,5.7c-0.1,0.5,0.2,1.1,0.7,1.2c0.1,0,0.1,0,0.2,0c0.4,0,0.9-0.3,1-0.8C21.2,18.5,22.5,13.6,28.7,14.6z"/>
	</g>
	<path class="st33" d="M30.2,43.4c0,0.7,0.3,1.3,0.8,1.8v2.5c0,0.9,0.7,1.6,1.6,1.6c0.9,0,1.6-0.7,1.6-1.6v-2.5
		c0.5-0.4,0.8-1.1,0.8-1.8c0-1.3-1.1-2.4-2.4-2.4C31.2,41.1,30.2,42.1,30.2,43.4z"/>
</g>
<g id="Layer_2">
</g>
</svg>
