<?xml version="1.0" encoding="utf-8"?>
<!-- Generator: Adobe Illustrator 22.0.1, SVG Export Plug-In . SVG Version: 6.00 Build 0)  -->
<svg version="1.1" id="Layer_1" xmlns="http://www.w3.org/2000/svg" xmlns:xlink="http://www.w3.org/1999/xlink" x="0px" y="0px"
	 viewBox="0 0 64 64" style="enable-background:new 0 0 64 64;" xml:space="preserve">
<g id="Layer_1_1_">
</g>
<path d="M59.7,15.9C56.8,11,53,7.2,48.1,4.3C43.2,1.4,37.8,0,32,0S20.8,1.4,15.9,4.3C11,7.2,7.2,11,4.3,15.9C1.4,20.8,0,26.2,0,32
	s1.4,11.2,4.3,16.1C7.2,53,11,56.8,15.9,59.7C20.8,62.6,26.2,64,32,64s11.2-1.4,16.1-4.3c4.9-2.9,8.8-6.7,11.6-11.6
	C62.6,43.2,64,37.8,64,32S62.6,20.8,59.7,15.9z M48,34.3L25.3,47.6C24.9,47.9,24.5,48,24,48c-0.4,0-0.9-0.1-1.3-0.3
	c-0.9-0.5-1.3-1.3-1.3-2.3V18.7c0-1,0.4-1.8,1.3-2.3c0.9-0.5,1.8-0.5,2.7,0L48,29.7c0.9,0.5,1.3,1.3,1.3,2.3S48.9,33.8,48,34.3z"/>
</svg>
