<?xml version="1.0" encoding="utf-8"?>
<!-- Generator: Adobe Illustrator 22.0.1, SVG Export Plug-In . SVG Version: 6.00 Build 0)  -->
<svg version="1.1" xmlns="http://www.w3.org/2000/svg" xmlns:xlink="http://www.w3.org/1999/xlink" x="0px" y="0px"
	 viewBox="0 0 64 64" style="enable-background:new 0 0 64 64;" xml:space="preserve">
<style type="text/css">
	.st0{fill:#231F20;}
	.st1{fill-rule:evenodd;clip-rule:evenodd;fill:#231F20;}
	.st2{fill:none;stroke:#000000;stroke-width:1.4;stroke-miterlimit:10;}
	.st3{fill:none;stroke:#231F20;stroke-width:2.2;stroke-miterlimit:10;}
	.st4{fill:none;stroke:#231F20;stroke-width:3;stroke-linecap:round;stroke-miterlimit:10;}
	.st5{fill:none;stroke:#231F20;stroke-width:2.2;stroke-linecap:round;stroke-linejoin:round;stroke-miterlimit:10;}
	.st6{fill:none;stroke:#000000;stroke-width:2.2;stroke-linecap:round;stroke-linejoin:round;stroke-miterlimit:10;}
	.st7{fill:none;stroke:#231F20;stroke-width:2.2;stroke-linecap:round;stroke-miterlimit:10;}
	.st8{fill:none;stroke:#000000;stroke-width:2.2;stroke-miterlimit:10;}
	.st9{fill:none;stroke:#000000;stroke-width:2;stroke-linecap:round;stroke-linejoin:round;stroke-miterlimit:10;}
	.st10{fill:none;stroke:#000000;stroke-width:1.8;stroke-linejoin:round;stroke-miterlimit:10;}
	
		.st11{fill-rule:evenodd;clip-rule:evenodd;fill:none;stroke:#000000;stroke-width:2.2;stroke-linecap:round;stroke-linejoin:round;stroke-miterlimit:10;}
	.st12{fill:#221F1F;}
	.st13{fill:none;stroke:#000000;stroke-width:1.8;stroke-miterlimit:10;}
	.st14{fill:none;stroke:#000000;stroke-width:1.7;stroke-linecap:round;stroke-linejoin:round;stroke-miterlimit:10;}
	.st15{fill:none;stroke:#000000;stroke-width:3;stroke-linecap:round;stroke-linejoin:round;stroke-miterlimit:10;}
	.st16{fill:none;stroke:#000000;stroke-width:1.8;stroke-linecap:round;stroke-linejoin:round;stroke-miterlimit:10;}
	.st17{fill:none;stroke:#000000;stroke-width:1.6;stroke-linecap:round;stroke-linejoin:round;stroke-miterlimit:10;}
	.st18{fill:none;stroke:#231F20;stroke-width:2;stroke-miterlimit:10;}
	.st19{fill:#0A1423;}
	.st20{fill:#F4831F;}
	.st21{fill:none;stroke:#000000;stroke-width:0.4736;stroke-miterlimit:10;}
	.st22{fill:none;stroke:#000000;stroke-width:0.431;stroke-miterlimit:10;}
	.st23{fill-rule:evenodd;clip-rule:evenodd;fill:none;stroke:#000000;stroke-width:0.6314;stroke-miterlimit:10;}
	.st24{fill-rule:evenodd;clip-rule:evenodd;fill:none;stroke:#231F20;stroke-width:0.4567;stroke-miterlimit:10;}
	.st25{fill-rule:evenodd;clip-rule:evenodd;fill:none;stroke:#231F20;stroke-width:0.2284;stroke-miterlimit:10;}
	.st26{fill:none;stroke:#000000;stroke-width:0.419;stroke-miterlimit:10;}
	.st27{fill:none;stroke:#000000;stroke-width:0.3813;stroke-miterlimit:10;}
	.st28{fill:#FFFFFF;stroke:#000000;stroke-width:0.419;stroke-miterlimit:10;}
	.st29{fill-rule:evenodd;clip-rule:evenodd;fill:none;stroke:#000000;stroke-width:0.5586;stroke-miterlimit:10;}
	.st30{fill-rule:evenodd;clip-rule:evenodd;fill:#FFFFFF;}
	.st31{fill-rule:evenodd;clip-rule:evenodd;fill:#FFFFFF;stroke:#231F20;stroke-width:0.2682;stroke-miterlimit:10;}
	.st32{fill-rule:evenodd;clip-rule:evenodd;}
	.st33{fill:none;stroke:#000000;stroke-width:2;stroke-miterlimit:10;}
	.st34{fill:#FFFFFF;}
	.st35{opacity:0.85;}
</style>
<g id="Layer_1">
	<g>
		<path class="st0" d="M34.1,10.9c-7.5,0-14.3,4.2-17.6,10.9c-0.1,0.2-0.1,0.5,0,0.8c0.1,0.2,0.3,0.5,0.5,0.6c0.5,0.2,1.1,0,1.3-0.4
			c0.7-1.4,1.5-2.6,2.5-3.7l1.3,1.3c0.4,0.4,1,0.4,1.4,0c0.2-0.2,0.3-0.4,0.3-0.7c0-0.3-0.1-0.5-0.3-0.7l-1.3-1.3
			c2.9-2.7,6.6-4.3,10.5-4.6v5.6c0,0.5,0.4,1,1,1c0.5,0,1-0.4,1-1v-5.6c4.1,0.1,8,1.6,11.1,4.3L44,18.9c-0.2,0.2-0.3,0.4-0.3,0.7
			s0.1,0.5,0.3,0.7c0.4,0.4,1,0.4,1.4,0l1.7-1.7c2.8,3.1,4.5,7,4.7,11.2h-5.2c-0.5,0-1,0.4-1,1s0.4,1,1,1h5.2
			c-0.3,4-1.9,7.8-4.6,10.7c0,0,0,0,0,0l-1.7-1.7c-0.4-0.4-1-0.4-1.4,0c-0.2,0.2-0.3,0.4-0.3,0.7s0.1,0.5,0.3,0.7l1.7,1.7
			c-1.2,1-2.4,1.9-3.8,2.5c-0.2,0.1-0.4,0.3-0.5,0.6c-0.1,0.2-0.1,0.5,0,0.8c0.2,0.3,0.5,0.6,0.9,0.6c0.2,0,0.3,0,0.4-0.1
			c6.7-3.3,11-10.2,11-17.7C53.7,19.8,44.9,10.9,34.1,10.9z"/>
		<path class="st0" d="M40.8,49L35,43.3c-0.4-0.4-0.9-0.6-1.5-0.7l-1.3,0c-0.6,0-1.2,0.2-1.6,0.7l-2.1,2.1c-0.1,0.1-0.1,0.1-0.2,0.1
			l-1-0.1c-0.1,0-0.1,0-0.2-0.1l-7.5-7.5c0,0-0.1-0.1-0.1-0.2l-0.1-1c0-0.1,0-0.2,0.1-0.2l2.1-2.1c0.5-0.5,0.7-1,0.7-1.7l0-1.2
			c0-0.6-0.2-1.1-0.7-1.5l-5.7-5.7c-0.4-0.4-0.9-0.6-1.5-0.7l-1.3,0c-0.6,0-1.2,0.2-1.6,0.7L9,26.4c-1.7,1.7-1.4,5.2,0.8,9.9
			c1.8,3.8,4.8,8,7.6,10.9l0.2,0.2c4.6,4.6,12.8,9.6,17.6,9.6c1.4,0,2.4-0.4,3.2-1.1l2.4-2.4c0.5-0.4,0.7-1,0.7-1.7l0-1.2
			C41.4,49.9,41.2,49.4,40.8,49z M18.1,34.9c-0.5,0.5-0.7,1.2-0.6,1.9l0.1,1c0.1,0.5,0.3,0.9,0.6,1.3l3.3,3.3l0,0l4.2,4.2
			c0.3,0.4,0.8,0.6,1.3,0.6l1,0.1c0.7,0.1,1.4-0.1,1.9-0.6l0.3-0.3l7.4,7.4L37,54.4l0,0c-0.4,0.4-1,0.5-1.8,0.5
			c-4.3,0-12-4.7-16.2-9l-0.2-0.2c-2.7-2.7-5.5-6.7-7.2-10.3c-1.8-3.7-2.2-6.6-1.2-7.6l0.6-0.6l7.4,7.4L18.1,34.9z M12.4,25.8
			l0.4-0.4c0.1-0.1,0.1-0.1,0.2-0.1l1.2,0c0.1,0,0.1,0,0.2,0.1l5.7,5.7c0.1,0.1,0.1,0.1,0.1,0.2l0,1.2c0,0.1,0,0.1-0.1,0.2l-0.4,0.4
			L12.4,25.8z M39.5,51.8c0,0.1,0,0.1-0.1,0.2L39,52.4L31.7,45l0.4-0.4c0.1-0.1,0.1-0.1,0.2-0.1l1.2,0c0.1,0,0.1,0,0.2,0.1l5.7,5.7
			c0.1,0.1,0.1,0.1,0.1,0.2L39.5,51.8z"/>
		<path class="st0" d="M43.6,21.8c-0.4-0.4-1-0.4-1.4,0l-7.3,7.3c-0.7-0.4-1.6-0.4-2.4,0.1l-4.9-4.5c-0.2-0.2-0.5-0.3-0.7-0.3
			c-0.3,0-0.5,0.1-0.7,0.3c-0.2,0.2-0.3,0.4-0.3,0.7s0.1,0.5,0.3,0.7l5,4.6c-0.1,0.2-0.1,0.4-0.1,0.6c0,1.4,1.1,2.5,2.5,2.5
			c1.4,0,2.5-1.1,2.5-2.5c0-0.2,0-0.5-0.1-0.7l7.5-7.5C44,22.8,44,22.2,43.6,21.8z M34.2,31.4c0,0.3-0.2,0.5-0.5,0.5
			c-0.3,0-0.5-0.2-0.5-0.5s0.2-0.5,0.5-0.5C34,30.9,34.2,31.1,34.2,31.4z"/>
	</g>
	<path class="st0" d="M32,64C14.4,64,0,49.6,0,32S14.4,0,32,0s32,14.4,32,32S49.6,64,32,64z M32,2.4C15.7,2.4,2.4,15.7,2.4,32
		S15.7,61.6,32,61.6S61.6,48.3,61.6,32S48.3,2.4,32,2.4z"/>
</g>
<g id="Layer_2">
</g>
</svg>
