<?xml version="1.0" encoding="utf-8"?>
<!-- Generator: Adobe Illustrator 22.0.1, SVG Export Plug-In . SVG Version: 6.00 Build 0)  -->
<svg version="1.1" id="Layer_1" xmlns="http://www.w3.org/2000/svg" xmlns:xlink="http://www.w3.org/1999/xlink" x="0px" y="0px"
	 viewBox="0 0 64 64" style="enable-background:new 0 0 64 64;" xml:space="preserve">
<g id="Layer_1_1_">
</g>
<g>
	<path d="M19.8,39.1v-6.7c0-0.6-0.5-1.1-1.1-1.1h-4.9c-0.6,0-1.1,0.5-1.1,1.1v6.8c0,0.6,0.5,1.1,1.1,1.1h4.9
		C19.4,40.2,19.8,39.7,19.8,39.1z M17.7,38H15v-4.6h2.7V38z"/>
	<path d="M23.3,40.2h4.9c0.6,0,1.1-0.5,1.1-1.1v-6.7c0-0.6-0.5-1.1-1.1-1.1h-4.9c-0.6,0-1.1,0.5-1.1,1.1v6.8
		C22.2,39.7,22.7,40.2,23.3,40.2z M24.3,33.5H27V38h-2.7V33.5z"/>
	<path d="M41.8,39.1v-6.7c0-0.6-0.5-1.1-1.1-1.1h-4.9c-0.6,0-1.1,0.5-1.1,1.1v6.8c0,0.6,0.5,1.1,1.1,1.1h4.9
		C41.3,40.2,41.8,39.7,41.8,39.1z M39.7,38H37v-4.6h2.7V38z"/>
	<path d="M45.2,40.2h4.9c0.6,0,1.1-0.5,1.1-1.1v-6.7c0-0.6-0.5-1.1-1.1-1.1h-4.9c-0.6,0-1.1,0.5-1.1,1.1v6.8
		C44.2,39.7,44.6,40.2,45.2,40.2z M46.3,33.5H49V38h-2.7V33.5z"/>
	<path d="M13.9,29.9h4.9c0.6,0,1.1-0.5,1.1-1.1V22c0-0.6-0.5-1.1-1.1-1.1h-4.9c-0.6,0-1.1,0.5-1.1,1.1v6.8
		C12.8,29.5,13.3,29.9,13.9,29.9z M15,23.2h2.7v4.6H15V23.2z"/>
	<path d="M23.3,29.9h4.9c0.6,0,1.1-0.5,1.1-1.1V22c0-0.6-0.5-1.1-1.1-1.1h-4.9c-0.6,0-1.1,0.5-1.1,1.1v6.8
		C22.2,29.5,22.7,29.9,23.3,29.9z M24.3,23.2H27v4.6h-2.7V23.2z"/>
	<path d="M13.9,19.7h4.9c0.6,0,1.1-0.5,1.1-1.1v-6.7c0-0.6-0.5-1.1-1.1-1.1h-4.9c-0.6,0-1.1,0.5-1.1,1.1v6.8
		C12.8,19.2,13.3,19.7,13.9,19.7z M15,13h2.7v4.6H15V13z"/>
	<path d="M23.3,19.7h4.9c0.6,0,1.1-0.5,1.1-1.1v-6.7c0-0.6-0.5-1.1-1.1-1.1h-4.9c-0.6,0-1.1,0.5-1.1,1.1v6.8
		C22.2,19.2,22.7,19.7,23.3,19.7z M24.3,13H27v4.6h-2.7V13z"/>
	<path d="M56.9,52.3H55V28.9c0-0.6-0.5-1.1-1.1-1.1H33.1V6.6c0-0.6-0.5-1.1-1.1-1.1H10C9.4,5.5,8.9,6,8.9,6.6v45.7H7.1
		c-0.6,0-1.1,0.5-1.1,1.1v4c0,0.6,0.5,1.1,1.1,1.1H57c0.6,0,1.1-0.5,1.1-1.1v-4C58,52.8,57.5,52.3,56.9,52.3z M33,29.9L33,29.9h19.9
		v22.4H48v-8.8c0-0.6-0.5-1.1-1.1-1.1H39c-0.6,0-1.1,0.5-1.1,1.1v8.8H33V29.9z M45.8,44.6v7.7h-5.7v-7.7H45.8z M11.1,7.7h19.8v21.2
		v23.4H26v-8.7c0-0.6-0.5-1.1-1.1-1.1H17c-0.6,0-1.1,0.5-1.1,1.1v8.7H11L11.1,7.7z M23.9,44.6v7.7h-5.7v-7.7H23.9z M8.1,56.3v-1.8h9
		H25h7h7h7.9h7h1.9l0.1,1.8H8.1z"/>
</g>
</svg>
