<?xml version="1.0" encoding="utf-8"?>
<!-- Generator: Adobe Illustrator 22.0.1, SVG Export Plug-In . SVG Version: 6.00 Build 0)  -->
<svg version="1.1" xmlns="http://www.w3.org/2000/svg" xmlns:xlink="http://www.w3.org/1999/xlink" x="0px" y="0px"
	 viewBox="0 0 64 64" style="enable-background:new 0 0 64 64;" xml:space="preserve">
<style type="text/css">
	.st0{fill:#231F20;}
	.st1{fill-rule:evenodd;clip-rule:evenodd;fill:#231F20;}
	.st2{fill:none;stroke:#000000;stroke-width:1.4;stroke-miterlimit:10;}
	.st3{fill:none;stroke:#231F20;stroke-width:2.2;stroke-miterlimit:10;}
	.st4{fill:none;stroke:#231F20;stroke-width:3;stroke-linecap:round;stroke-miterlimit:10;}
	.st5{fill:none;stroke:#231F20;stroke-width:2.2;stroke-linecap:round;stroke-linejoin:round;stroke-miterlimit:10;}
	.st6{fill:none;stroke:#000000;stroke-width:2.2;stroke-linecap:round;stroke-linejoin:round;stroke-miterlimit:10;}
	.st7{fill:none;stroke:#231F20;stroke-width:2.2;stroke-linecap:round;stroke-miterlimit:10;}
	.st8{fill:none;stroke:#000000;stroke-width:2.2;stroke-miterlimit:10;}
	.st9{fill:none;stroke:#000000;stroke-width:2;stroke-linecap:round;stroke-linejoin:round;stroke-miterlimit:10;}
	.st10{fill:none;stroke:#000000;stroke-width:1.8;stroke-linejoin:round;stroke-miterlimit:10;}
	
		.st11{fill-rule:evenodd;clip-rule:evenodd;fill:none;stroke:#000000;stroke-width:2.2;stroke-linecap:round;stroke-linejoin:round;stroke-miterlimit:10;}
	.st12{fill:#221F1F;}
	.st13{fill:none;stroke:#000000;stroke-width:1.8;stroke-miterlimit:10;}
	.st14{fill:none;stroke:#000000;stroke-width:1.7;stroke-linecap:round;stroke-linejoin:round;stroke-miterlimit:10;}
	.st15{fill:none;stroke:#000000;stroke-width:3;stroke-linecap:round;stroke-linejoin:round;stroke-miterlimit:10;}
	.st16{fill:none;stroke:#000000;stroke-width:1.8;stroke-linecap:round;stroke-linejoin:round;stroke-miterlimit:10;}
	.st17{fill:none;stroke:#000000;stroke-width:1.6;stroke-linecap:round;stroke-linejoin:round;stroke-miterlimit:10;}
	.st18{fill:none;stroke:#231F20;stroke-width:2;stroke-miterlimit:10;}
	.st19{fill:#0A1423;}
	.st20{fill:#F4831F;}
	.st21{fill:none;stroke:#000000;stroke-width:0.4736;stroke-miterlimit:10;}
	.st22{fill:none;stroke:#000000;stroke-width:0.431;stroke-miterlimit:10;}
	.st23{fill-rule:evenodd;clip-rule:evenodd;fill:none;stroke:#000000;stroke-width:0.6314;stroke-miterlimit:10;}
	.st24{fill-rule:evenodd;clip-rule:evenodd;fill:none;stroke:#231F20;stroke-width:0.4567;stroke-miterlimit:10;}
	.st25{fill-rule:evenodd;clip-rule:evenodd;fill:none;stroke:#231F20;stroke-width:0.2284;stroke-miterlimit:10;}
	.st26{fill:none;stroke:#000000;stroke-width:0.419;stroke-miterlimit:10;}
	.st27{fill:none;stroke:#000000;stroke-width:0.3813;stroke-miterlimit:10;}
	.st28{fill:#FFFFFF;stroke:#000000;stroke-width:0.419;stroke-miterlimit:10;}
	.st29{fill-rule:evenodd;clip-rule:evenodd;fill:none;stroke:#000000;stroke-width:0.5586;stroke-miterlimit:10;}
	.st30{fill-rule:evenodd;clip-rule:evenodd;fill:#FFFFFF;}
	.st31{fill-rule:evenodd;clip-rule:evenodd;fill:#FFFFFF;stroke:#231F20;stroke-width:0.2682;stroke-miterlimit:10;}
	.st32{fill-rule:evenodd;clip-rule:evenodd;}
	.st33{fill:none;stroke:#000000;stroke-width:2;stroke-miterlimit:10;}
	.st34{fill:#FFFFFF;}
	.st35{opacity:0.85;}
</style>
<g id="Layer_1">
	<path d="M55,32.5L55,32.5c0-0.2,0-0.4,0-0.6c0.3-6.5-5-10.5-16-12.3v-4c0-1.7-1.5-3.1-3.2-3.1H27c-1.8,0-3.2,1.4-3.2,3.1v4.2
		C13.4,21.7,8,25.8,8,31.9c0,0.2,0,0.4,0,0.6l0,0c0,0,0,0.1,0,0.2c0.1,0.5,0.2,1,0.4,1.5c1.1,3.9,4,13.2,8,15.2l0.2,0.1h14.7h0.3
		h14.7l0.2-0.1c4.4-2.2,7.4-13,8.2-16.1c0-0.1,0.1-0.2,0.1-0.3C54.9,32.8,55,32.6,55,32.5z M40.8,23.9c0.2,0.1,0.5,0.1,0.7,0.2
		c0.2,0,0.4,0.1,0.6,0.1c0.2,0.1,0.4,0.1,0.6,0.2c0.2,0.1,0.5,0.1,0.7,0.2c0.1,0,0.3,0.1,0.4,0.1c0.3,0.1,0.5,0.2,0.8,0.3
		c0.1,0,0.2,0.1,0.3,0.1c0.3,0.1,0.6,0.2,0.9,0.4c0,0,0.1,0,0.1,0.1c1.5,0.6,2.7,1.4,3.7,2.2c-3.2-1.1-7.8-1.5-10.6-1.8v-2.4
		c0.5,0.1,0.9,0.2,1.4,0.3C40.5,23.8,40.7,23.8,40.8,23.9z M19.2,24.7c0.3-0.1,0.7-0.2,1.1-0.3c0.1,0,0.2,0,0.2-0.1
		c0.3-0.1,0.6-0.2,0.9-0.2c0.1,0,0.2-0.1,0.4-0.1c0.3-0.1,0.6-0.1,0.9-0.2c0.2,0,0.3-0.1,0.5-0.1c0.2,0,0.3-0.1,0.5-0.1v2.4
		c-2.8,0.2-7.2,0.7-10.3,1.7C14.7,26.5,16.7,25.5,19.2,24.7C19.2,24.7,19.2,24.7,19.2,24.7z M24.2,30.7h14.6c1,0,3.5-0.1,3.5-1.5
		c0-1.2-1.9-1.5-3.3-1.6v-0.2c8.4,0.6,11.8,2.1,12.5,2.8c0,0.1,0.1,0.2,0.1,0.4c-0.4,1.2-7.5,3.3-20.1,3.3
		c-12.7,0-19.7-2.1-20.1-3.3c0-0.1,0.1-0.2,0.1-0.4c0.7-0.7,4-2.1,12.2-2.8v0.2c-1.1,0.1-3,0.4-3,1.5C20.7,30.5,23.2,30.7,24.2,30.7
		z M31.5,35.4c5.9,0,15.8-0.6,19.8-2.7c-1.7,3.9-10.1,6.9-19.8,6.9c-9.8,0-18.2-3-19.8-6.9C15.7,34.8,25.7,35.4,31.5,35.4z M27,14.1
		h8.8c1,0,1.7,0.7,1.7,1.6v6.9l0,0.7l0,0v5.8h0.8c0.5,0,1,0,1.3,0.1c-0.2,0-0.5,0-0.8,0H24.2c-0.1,0-0.3,0-0.4,0c0.2,0,0.4,0,0.6,0
		h0.8v-6.5l0-3l0,0v-4C25.2,14.8,26,14.1,27,14.1z M23.7,21.4v0.6c-0.2,0-0.3,0.1-0.5,0.1c-0.3,0-0.5,0.1-0.8,0.1
		c-0.1,0-0.3,0.1-0.4,0.1c-4.7,1-8.3,2.7-10.3,4.8c0,0,0,0,0,0c-0.2,0.2-0.3,0.4-0.5,0.6c0,0-0.1,0.1-0.1,0.1
		c-0.1,0.2-0.3,0.3-0.4,0.5c0,0.1-0.1,0.1-0.1,0.2c-0.1,0.2-0.2,0.3-0.3,0.5c0,0,0,0.1,0,0.1c-0.1,0.2-0.2,0.4-0.2,0.6
		c0,0,0,0,0,0.1c0,0.1-0.1,0.2-0.1,0.3c0,0,0,0.1,0,0.1c0,0.1-0.1,0.3-0.1,0.4c0,0.1,0,0.1,0,0.2c0,0.2,0,0.4,0,0.5
		c0,5.5,9.5,9.8,21.7,9.8c12.2,0,21.7-4.3,21.7-9.8c0-0.2,0-0.4,0-0.5c0-0.1,0-0.1,0-0.2c0-0.1,0-0.3-0.1-0.4c0,0,0-0.1,0-0.1
		c0-0.1-0.1-0.2-0.1-0.3c0,0,0,0,0,0c-1.1-3.3-5.7-6.1-12.4-7.4c-0.1,0-0.1,0-0.2,0c-0.3-0.1-0.7-0.1-1-0.2c-0.1,0-0.2,0-0.3-0.1
		l0-0.8c10.1,1.7,14.7,5.1,14.5,10.7c0,0.3-0.1,0.7-0.1,1c0,0,0,0.1,0,0.1c-1.4,5.2-10.7,9.3-21.8,9.3c-10.7,0-19.7-3.7-21.6-8.5
		c-0.1-0.5-0.3-1-0.4-1.4c0-0.2,0-0.3,0-0.5C9.5,25.4,17,22.6,23.7,21.4z M46,48.1H31.7h-0.3H17c-2.3-1.3-4.4-6-5.9-10.2
		c4,3.5,11.6,5.9,20.4,5.9c8.8,0,16.4-2.4,20.4-6C50.5,41.9,48.4,46.7,46,48.1z"/>
	<path class="st0" d="M32,64C14.4,64,0,49.6,0,32S14.4,0,32,0s32,14.4,32,32S49.6,64,32,64z M32,2.4C15.7,2.4,2.4,15.7,2.4,32
		S15.7,61.6,32,61.6S61.6,48.3,61.6,32S48.3,2.4,32,2.4z"/>
</g>
<g id="Layer_2">
</g>
</svg>
