<?xml version="1.0" encoding="utf-8"?>
<!-- Generator: Adobe Illustrator 22.0.1, SVG Export Plug-In . SVG Version: 6.00 Build 0)  -->
<svg version="1.1" xmlns="http://www.w3.org/2000/svg" xmlns:xlink="http://www.w3.org/1999/xlink" x="0px" y="0px"
	 viewBox="0 0 64 64" style="enable-background:new 0 0 64 64;" xml:space="preserve">
<style type="text/css">
	.st0{fill:#231F20;}
	.st1{fill-rule:evenodd;clip-rule:evenodd;fill:#231F20;}
	.st2{fill:none;stroke:#000000;stroke-width:1.4;stroke-miterlimit:10;}
	.st3{fill:none;stroke:#231F20;stroke-width:2.2;stroke-miterlimit:10;}
	.st4{fill:none;stroke:#231F20;stroke-width:3;stroke-linecap:round;stroke-miterlimit:10;}
	.st5{fill:none;stroke:#231F20;stroke-width:2.2;stroke-linecap:round;stroke-linejoin:round;stroke-miterlimit:10;}
	.st6{fill:none;stroke:#000000;stroke-width:2.2;stroke-linecap:round;stroke-linejoin:round;stroke-miterlimit:10;}
	.st7{fill:none;stroke:#231F20;stroke-width:2.2;stroke-linecap:round;stroke-miterlimit:10;}
	.st8{fill:none;stroke:#000000;stroke-width:2.2;stroke-miterlimit:10;}
	.st9{fill:none;stroke:#000000;stroke-width:2;stroke-linecap:round;stroke-linejoin:round;stroke-miterlimit:10;}
	.st10{fill:none;stroke:#000000;stroke-width:1.8;stroke-linejoin:round;stroke-miterlimit:10;}
	
		.st11{fill-rule:evenodd;clip-rule:evenodd;fill:none;stroke:#000000;stroke-width:2.2;stroke-linecap:round;stroke-linejoin:round;stroke-miterlimit:10;}
	.st12{fill:#221F1F;}
	.st13{fill:none;stroke:#000000;stroke-width:1.8;stroke-miterlimit:10;}
	.st14{fill:none;stroke:#000000;stroke-width:1.7;stroke-linecap:round;stroke-linejoin:round;stroke-miterlimit:10;}
	.st15{fill:none;stroke:#000000;stroke-width:3;stroke-linecap:round;stroke-linejoin:round;stroke-miterlimit:10;}
	.st16{fill:none;stroke:#000000;stroke-width:1.8;stroke-linecap:round;stroke-linejoin:round;stroke-miterlimit:10;}
	.st17{fill:none;stroke:#000000;stroke-width:1.6;stroke-linecap:round;stroke-linejoin:round;stroke-miterlimit:10;}
	.st18{fill:none;stroke:#231F20;stroke-width:2;stroke-miterlimit:10;}
	.st19{fill:#0A1423;}
	.st20{fill:#F4831F;}
	.st21{fill:none;stroke:#000000;stroke-width:0.4736;stroke-miterlimit:10;}
	.st22{fill:none;stroke:#000000;stroke-width:0.431;stroke-miterlimit:10;}
	.st23{fill-rule:evenodd;clip-rule:evenodd;fill:none;stroke:#000000;stroke-width:0.6314;stroke-miterlimit:10;}
	.st24{fill-rule:evenodd;clip-rule:evenodd;fill:none;stroke:#231F20;stroke-width:0.4567;stroke-miterlimit:10;}
	.st25{fill-rule:evenodd;clip-rule:evenodd;fill:none;stroke:#231F20;stroke-width:0.2284;stroke-miterlimit:10;}
	.st26{fill:none;stroke:#000000;stroke-width:0.419;stroke-miterlimit:10;}
	.st27{fill:none;stroke:#000000;stroke-width:0.3813;stroke-miterlimit:10;}
	.st28{fill:#FFFFFF;stroke:#000000;stroke-width:0.419;stroke-miterlimit:10;}
	.st29{fill-rule:evenodd;clip-rule:evenodd;fill:none;stroke:#000000;stroke-width:0.5586;stroke-miterlimit:10;}
	.st30{fill-rule:evenodd;clip-rule:evenodd;fill:#FFFFFF;}
	.st31{fill-rule:evenodd;clip-rule:evenodd;fill:#FFFFFF;stroke:#231F20;stroke-width:0.2682;stroke-miterlimit:10;}
	.st32{fill-rule:evenodd;clip-rule:evenodd;}
	.st33{fill:none;stroke:#000000;stroke-width:2;stroke-miterlimit:10;}
	.st34{fill:#FFFFFF;}
	.st35{opacity:0.85;}
</style>
<g id="Layer_1">
	<path class="st0" d="M32,64C14.4,64,0,49.6,0,32S14.4,0,32,0s32,14.4,32,32S49.6,64,32,64z M32,2.4C15.7,2.4,2.4,15.7,2.4,32
		S15.7,61.6,32,61.6S61.6,48.3,61.6,32S48.3,2.4,32,2.4z"/>
	<g>
		<path class="st0" d="M42.2,8.9H22.6c-1.5,0-2.6,1-2.6,2.3v43c0,1.3,1.2,2.3,2.6,2.3h19.6c1.5,0,2.6-1,2.6-2.3v-43
			C44.8,9.9,43.6,8.9,42.2,8.9z M43.3,54.2c0,0.4-0.5,0.8-1.1,0.8H22.6c-0.6,0-1.1-0.3-1.1-0.8v-43c0-0.4,0.5-0.8,1.1-0.8h19.6
			c0.6,0,1.1,0.3,1.1,0.8V54.2z"/>
		<path class="st0" d="M22.3,51.4h20.3V13.3H22.3V51.4z M23.9,14.9H41v35H23.9V14.9z"/>
		<path class="st0" d="M27.3,53c-0.1-0.3-0.4-0.5-0.8-0.5c-0.2,0-0.4,0-0.6,0h-0.1c0,0,0.1-0.1,0.1-0.1c0-0.1,0-0.1-0.1-0.2l0,0
			h-0.1l0,0c-0.1,0.1-0.3,0.2-0.4,0.3c0,0-0.1,0.1-0.1,0.1c0,0,0,0,0,0.1l0,0h0c0,0,0.1,0.1,0.1,0.1l0.1,0.1
			c0.1,0.1,0.1,0.1,0.2,0.2c0,0,0.1,0.1,0.1,0.1c0.1,0,0.2,0,0.2,0c0,0,0.1-0.1,0-0.2c0,0,0,0,0-0.1h0c0.2,0,0.5,0,0.7,0
			c0.1,0,0.1,0,0.2,0.1c0.2,0.1,0.2,0.2,0.2,0.4c-0.1,0.2-0.2,0.3-0.4,0.3h-1.2c0,0-0.2,0-0.2,0.1l0,0.1l0,0
			c0.1,0.1,0.2,0.1,0.2,0.1c0.4,0,0.8,0,1.2,0c0.4,0,0.8-0.3,0.8-0.6l0,0L27.3,53C27.3,53.1,27.3,53,27.3,53z M25.6,52.9L25.6,52.9
			C25.6,53,25.6,53,25.6,52.9L25.6,52.9L25.6,52.9z"/>
		<path class="st0" d="M39.6,52.6h-1.8c-0.3,0-0.5,0.2-0.5,0.6c0,0.4,0.3,0.6,0.5,0.6h1.8c0.3,0,0.5-0.2,0.5-0.6
			C40.1,52.9,39.9,52.6,39.6,52.6z M39.3,53.3c0-0.1,0.1-0.1,0.1-0.1c0.1,0,0.1,0.1,0.1,0.1c0,0.1-0.1,0.1-0.1,0.1
			C39.4,53.4,39.3,53.3,39.3,53.3z M39.7,53.5c0.1-0.1,0.1-0.2,0.1-0.3c0-0.2-0.2-0.4-0.4-0.4c-0.2,0-0.4,0.2-0.4,0.4
			c0,0.1,0.1,0.3,0.2,0.3h-1.5c-0.2,0-0.3-0.1-0.3-0.4c0-0.2,0.1-0.4,0.3-0.4h1.8c0.2,0,0.3,0.1,0.3,0.4
			C39.9,53.4,39.8,53.5,39.7,53.5z"/>
		<path class="st0" d="M41,52.9c0,0,0-0.1-0.1-0.1c0,0-0.1-0.1-0.1-0.2c0,0-0.1,0-0.1-0.1c0,0-0.1,0-0.1,0l-0.1,0l0,0.1
			c0,0,0,0.1,0,0.1l0,0.1c0,0,0.1,0.1,0.1,0.1c0,0,0.1,0.1,0.1,0.2c0,0.1,0,0.1,0,0.2c0,0.1,0,0.1,0,0.1c0,0.1-0.1,0.1-0.1,0.2
			c0,0-0.1,0.1-0.1,0.1c-0.1,0.1-0.1,0.1-0.1,0.1c0,0.1,0,0.1,0.1,0.1c0,0,0,0,0.1,0c0,0,0.1,0,0.1,0c0,0,0.1-0.1,0.1-0.1
			c0-0.1,0.1-0.1,0.1-0.1c0-0.1,0.1-0.1,0.1-0.2c0-0.1,0-0.1,0-0.1l0-0.1C41.1,53.1,41.1,53,41,52.9L41,52.9z"/>
		<path class="st0" d="M40.6,53.4C40.6,53.4,40.6,53.4,40.6,53.4l0-0.1l0,0c0,0,0-0.1,0-0.1l0-0.2c0-0.1-0.1-0.2-0.2-0.2
			c-0.1-0.1-0.1-0.1-0.2-0.1c-0.1,0-0.1,0.1-0.1,0.1c0,0,0,0.1,0,0.2l0.1-0.1l0,0.1c0,0,0.1,0.1,0.1,0.2c0,0,0,0,0,0.1l0,0
			c0,0,0,0.1-0.1,0.2l-0.1,0.1l0,0.1c0,0.1,0,0.1,0.1,0.1c0,0,0,0,0.1,0c0,0,0.1,0,0.1-0.1l0,0c0,0,0.1-0.1,0.1-0.1
			C40.5,53.5,40.6,53.5,40.6,53.4z"/>
	</g>
	<path class="st0" d="M37.7,29.5h-2.9v-2.9c0-0.6-0.5-1.1-1.1-1.1h-7.4c-0.3,0-0.6,0.1-0.8,0.3c-0.2,0.2-0.3,0.5-0.3,0.8V32
		c0,0.6,0.5,1.1,1.1,1.1h0.3v1c0,0.1,0.1,0.3,0.2,0.3c0.1,0.1,0.3,0,0.4-0.1l1.5-1.3h0.4v2.9c0,0.6,0.5,1.1,1.1,1.1h4.9l1.5,1.3
		c0.1,0.1,0.2,0.1,0.2,0.1c0.1,0,0.1,0,0.2,0c0.1-0.1,0.2-0.2,0.2-0.3v-1h0.3c0.6,0,1.1-0.5,1.1-1.1v-5.3
		C38.8,30,38.3,29.5,37.7,29.5z M27.1,32.3h-0.7c-0.2,0-0.4-0.2-0.4-0.4v-5.3c0-0.2,0.2-0.4,0.4-0.4h7.4c0.2,0,0.4,0.2,0.4,0.4V32
		c0,0.2-0.2,0.4-0.4,0.4h-5.1c-0.1,0-0.2,0-0.2,0.1l-1,0.8v-0.6C27.5,32.5,27.3,32.3,27.1,32.3z M30,33.1h3.7c0.6,0,1.1-0.5,1.1-1.1
		v-1.7h2.9c0.2,0,0.4,0.2,0.4,0.4v5.3c0,0.2-0.2,0.4-0.4,0.4H37c-0.2,0-0.4,0.2-0.4,0.4v0.6l-1-0.8c-0.1-0.1-0.2-0.1-0.2-0.1h-5.1
		c-0.2,0-0.4-0.2-0.4-0.4V33.1z"/>
</g>
<g id="Layer_2">
</g>
</svg>
