<?xml version="1.0" encoding="utf-8"?>
<!-- Generator: Adobe Illustrator 22.0.1, SVG Export Plug-In . SVG Version: 6.00 Build 0)  -->
<svg version="1.1" id="Layer_1" xmlns="http://www.w3.org/2000/svg" xmlns:xlink="http://www.w3.org/1999/xlink" x="0px" y="0px"
	 viewBox="0 0 64 64" style="enable-background:new 0 0 64 64;" xml:space="preserve">
<g id="Layer_1_1_">
</g>
<g>
	<path d="M32,0C14.4,0,0,14.4,0,32s14.4,32,32,32s32-14.4,32-32S49.6,0,32,0z M32,61.6C15.7,61.6,2.4,48.3,2.4,32S15.7,2.4,32,2.4
		S61.6,15.7,61.6,32S48.3,61.6,32,61.6z"/>
	<path d="M39.1,10.3H24.9c-3.2,0-5.7,2.5-5.7,5.7v32c0,3.2,2.5,5.7,5.7,5.7h14.2c3.2,0,5.7-2.5,5.7-5.7V16
		C44.8,12.9,42.2,10.3,39.1,10.3z M21.3,45.1V18.2h21.3v26.9H21.3z M42.6,47.2v0.7c0,1-0.3,1.8-0.9,2.5c-0.7,0.7-1.6,1.1-2.6,1.1
		H24.9c-2,0-3.6-1.6-3.6-3.6v-0.7H42.6z M42.7,16H21.3c0-2,1.6-3.6,3.6-3.6h14.2C41.1,12.4,42.7,14,42.7,16z"/>
	<path d="M30.6,50.3h2.8c0.6,0,1.1-0.5,1.1-1.1c0-0.6-0.5-1.1-1.1-1.1h-2.8c-0.6,0-1.1,0.5-1.1,1.1C29.5,49.8,30,50.3,30.6,50.3z"/>
</g>
</svg>
