<?xml version="1.0" encoding="utf-8"?>
<!-- Generator: Adobe Illustrator 22.0.1, SVG Export Plug-In . SVG Version: 6.00 Build 0)  -->
<svg version="1.1" id="Layer_1" xmlns="http://www.w3.org/2000/svg" xmlns:xlink="http://www.w3.org/1999/xlink" x="0px" y="0px"
	 viewBox="0 0 64 64" style="enable-background:new 0 0 64 64;" xml:space="preserve">
<style type="text/css">
	.st0{fill:#231F20;}
</style>
<g id="Layer_1_1_">
</g>
<g>
	<path class="st0" d="M32-0.1C14.4-0.1,0,14.3,0,32c0,6.4,1.9,12.6,5.4,17.9L3.1,62.5C3,63,3.2,63.4,3.5,63.8c0.3,0.3,0.6,0.4,1,0.4
		c0.1,0,0.2,0,0.3,0l13.9-2.9c4.2,2,8.7,3,13.4,3c17.6,0,32-14.4,32-32.1C64.1,14.5,49.6-0.1,32-0.1z M32,61.3
		c-4.4,0-8.6-1-12.6-2.9c-0.2-0.1-0.4-0.1-0.6-0.1c-0.1,0-0.2,0-0.3,0L6.2,60.9l2-10.9c0.1-0.4,0.1-0.9-0.2-1.2
		C4.6,43.9,2.8,38,2.8,32C2.8,15.8,15.9,2.7,32,2.7S61.2,15.9,61.2,32S48.1,61.3,32,61.3z"/>
	<path class="st0" d="M16.4,28.4c-2,0-3.6,1.6-3.6,3.6s1.6,3.6,3.6,3.6S20,34,20,32S18.4,28.4,16.4,28.4z"/>
	<circle class="st0" cx="32" cy="32" r="3.6"/>
	<path class="st0" d="M47.6,28.4c-2,0-3.6,1.6-3.6,3.6s1.6,3.6,3.6,3.6s3.6-1.6,3.6-3.6S49.6,28.4,47.6,28.4z"/>
</g>
</svg>
