<?xml version="1.0" encoding="utf-8"?>
<!-- Generator: Adobe Illustrator 22.0.1, SVG Export Plug-In . SVG Version: 6.00 Build 0)  -->
<svg version="1.1" id="Layer_1" xmlns="http://www.w3.org/2000/svg" xmlns:xlink="http://www.w3.org/1999/xlink" x="0px" y="0px"
	 viewBox="0 0 64 64" style="enable-background:new 0 0 64 64;" xml:space="preserve">
<g id="Layer_1_1_">
</g>
<g>
	<path d="M32,0C14.4,0,0,14.4,0,32s14.4,32,32,32s32-14.4,32-32S49.6,0,32,0z M32,61.6C15.7,61.6,2.4,48.3,2.4,32S15.7,2.4,32,2.4
		S61.6,15.7,61.6,32S48.3,61.6,32,61.6z"/>
	<path d="M39,22.1h-3.7c-0.5-1.4-1.8-2.3-3.3-2.3s-2.8,1-3.3,2.3H25c-1.9,0-3.5,1.6-3.5,3.5v23.5C21.4,51,23,52.6,25,52.6h14
		c1.9,0,3.5-1.6,3.5-3.5V25.6C42.5,23.7,40.9,22.1,39,22.1z M32,22.1c0.6,0,1.2,0.5,1.2,1.2s-0.5,1.2-1.2,1.2
		c-0.6,0-1.2-0.5-1.2-1.2S31.4,22.1,32,22.1z M40.2,49.1c0,0.6-0.5,1.2-1.2,1.2H25c-0.6,0-1.2-0.5-1.2-1.2V25.6
		c0-0.6,0.5-1.2,1.2-1.2h3.7c0.5,1.4,1.8,2.3,3.3,2.3s2.8-1,3.3-2.3H39c0.6,0,1.2,0.5,1.2,1.2V49.1z"/>
	<path d="M26.2,17.4c-0.5,0.5-0.5,1.2,0,1.7s1.2,0.5,1.7,0c1.1-1.1,2.6-1.7,4.2-1.7c1.6,0,3,0.6,4.2,1.7c0.2,0.2,0.5,0.3,0.8,0.3
		c0.3,0,0.6-0.1,0.8-0.3c0.5-0.5,0.5-1.2,0-1.7C36.3,15.9,34.2,15,32,15S27.7,15.9,26.2,17.4z"/>
	<path d="M24.5,15.8c2-2,4.7-3.1,7.5-3.1s5.5,1.1,7.5,3.1c0.2,0.2,0.5,0.3,0.8,0.3s0.6-0.1,0.8-0.3c0.5-0.5,0.5-1.2,0-1.7
		c-2.4-2.4-5.7-3.8-9.1-3.8s-6.7,1.3-9.1,3.8c-0.5,0.5-0.5,1.2,0,1.7C23.3,16.2,24.1,16.2,24.5,15.8z"/>
	<circle cx="27.3" cy="37.3" r="1.2"/>
	<circle cx="36.7" cy="37.3" r="1.2"/>
	<circle cx="32" cy="37.3" r="1.2"/>
	<circle cx="27.3" cy="42" r="1.2"/>
	<circle cx="36.7" cy="42" r="1.2"/>
	<circle cx="32" cy="42" r="1.2"/>
	<circle cx="27.3" cy="46.7" r="1.2"/>
	<circle cx="36.7" cy="46.7" r="1.2"/>
	<circle cx="32" cy="46.7" r="1.2"/>
	<path d="M27.3,27.9c-0.7,0-1.2,0.5-1.2,1.2c0,0.7,0.5,1.2,1.2,1.2c0.7,0,1.2-0.5,1.2-1.2C28.5,28.4,28,27.9,27.3,27.9z"/>
</g>
</svg>
