<?xml version="1.0" encoding="utf-8"?>
<!-- Generator: Adobe Illustrator 22.0.1, SVG Export Plug-In . SVG Version: 6.00 Build 0)  -->
<svg version="1.1" id="Layer_1" xmlns="http://www.w3.org/2000/svg" xmlns:xlink="http://www.w3.org/1999/xlink" x="0px" y="0px"
	 viewBox="0 0 64 64" style="enable-background:new 0 0 64 64;" xml:space="preserve">
<g id="Layer_1_1_">
</g>
<g>
	<path d="M32,0C14.4,0,0,14.4,0,32s14.4,32,32,32s32-14.4,32-32S49.6,0,32,0z M32,61.6C15.7,61.6,2.4,48.3,2.4,32S15.7,2.4,32,2.4
		S61.6,15.7,61.6,32S48.3,61.6,32,61.6z"/>
	<path d="M34.4,21c-2.4,0-4.2,2-4.2,4.3s1.9,4.2,4.2,4.2c2.3,0,4.2-2,4.2-4.3S36.7,21,34.4,21z M34.4,27.4c-1.2,0-2.1-0.9-2.1-2.1
		s0.9-2.1,2.1-2.1c1.1,0,2.1,0.9,2.1,2.1S35.6,27.4,34.4,27.4z"/>
	<path d="M45,17.9H19c-1.5,0-2.7,1.2-2.7,2.7v22.8c0,1.5,1.2,2.7,2.7,2.7v0.1h26c1.5,0,2.7-1.2,2.7-2.7V20.6
		C47.7,19.1,46.5,17.9,45,17.9z M45.5,43.4c0,0.3-0.2,0.5-0.5,0.5H19c-0.3,0-0.5-0.2-0.5-0.5h-0.1v-4.7l8-7.3L34,39
		c0.2,0.2,0.5,0.3,0.8,0.3s0.6-0.1,0.8-0.3l4.7-5l5.2,5.1V43.4z M45.7,36.1l-4.5-4.5c-0.2-0.2-0.5-0.3-0.8-0.3
		c-0.3,0-0.6,0.1-0.8,0.3l-4.8,5.1l-7.5-7.5c-0.2-0.2-0.5-0.3-0.8-0.3L26.4,29c-0.2,0.1-0.4,0.1-0.6,0.3l-7.3,6.6V20.6
		c0-0.3,0.2-0.5,0.5-0.5h26.2c0.3,0,0.5,0.2,0.5,0.5V36.1z"/>
</g>
</svg>
