<?xml version="1.0" encoding="utf-8"?>
<!-- Generator: Adobe Illustrator 23.0.1, SVG Export Plug-In . SVG Version: 6.00 Build 0)  -->
<svg version="1.1" id="Capa_1" xmlns="http://www.w3.org/2000/svg" xmlns:xlink="http://www.w3.org/1999/xlink" x="0px" y="0px"
	 viewBox="0 0 64 64" style="enable-background:new 0 0 64 64;" xml:space="preserve">
<path d="M62.6,50.7l-9.9-9.9c-2-2-5.2-1.9-7.3,0.1l-5,5c-0.3-0.2-0.6-0.4-1-0.5c-3.1-1.7-7.4-4.1-12-8.7c-4.5-4.5-6.9-8.9-8.7-12
	c-0.2-0.3-0.4-0.7-0.5-1l3.3-3.3l1.6-1.6c2-2,2.1-5.3,0.1-7.3l-9.9-9.9c-2-2-5.2-1.9-7.3,0.1L3.5,4.6l0,0c-0.9,1.2-1.7,2.6-2.3,4
	c-0.5,1.4-0.9,2.8-1,4.1c-1.3,10.8,3.6,20.7,17.1,34.1C35.8,65.4,50.8,64,51.4,64c1.4-0.2,2.8-0.5,4.1-1c1.5-0.6,2.8-1.4,4-2.3l0,0
	l2.9-2.7C64.5,55.9,64.5,52.6,62.6,50.7z"/>
</svg>
