<?xml version="1.0" encoding="utf-8"?>
<!-- Generator: Adobe Illustrator 23.0.1, SVG Export Plug-In . SVG Version: 6.00 Build 0)  -->
<svg version="1.1" id="レイヤー_1" xmlns="http://www.w3.org/2000/svg" xmlns:xlink="http://www.w3.org/1999/xlink" x="0px"
	 y="0px" viewBox="0 0 64 64" style="enable-background:new 0 0 64 64;" xml:space="preserve">
<g>
			<rect x="5.5" y="25.6" width="4.8" height="4.8"/>
	<rect x="5.5" y="33.9" width="4.8" height="4.8"/>
	<rect x="5.5" y="42.2" width="4.8" height="4.8"/>
	<rect x="20.9" y="13.9" width="4.8" height="4.8"/>
	<rect x="20.8" y="22.5" width="4.8" height="4.8"/>
	<rect x="20.8" y="31.5" width="4.8" height="4.8"/>
	<rect x="20.8" y="40.3" width="4.8" height="4.8"/>
	<path class="st1" d="M63.2,24.3c0-0.1,0-0.2,0-0.2c-0.1-1.6-1.4-2.8-3-2.8h-7.9c-0.9,0-1.6,0.2-2.1,0.4v-9c0-1.6-1.1-2.9-2.6-3.3
		L32,4.1L16.5,9.3c-1.5,0.4-2.6,1.7-2.7,3.3v9c-0.6-0.3-1.3-0.4-2.1-0.4l-7.9,0c-0.1,0-0.2,0-0.2,0c-0.8,0-1.5,0.4-2,0.9
		c-0.5,0.6-0.8,1.3-0.8,2v32.1c0,0.1,0,0.3,0,0.5c0.3,1.4,1.2,2.9,3.1,3.1l10.8,0l45.5,0c1.8-0.2,2.7-1.7,3-3.1c0-0.1,0-0.3,0-0.4
		L63.2,24.3z M13.8,58.1l-9.8,0c-1-0.1-1.4-1.3-1.4-1.6l0-0.1l0-32.3c0-0.3,0.1-0.6,0.3-0.8C3.1,23.2,3.4,23,3.6,23l8,0
		c1.9,0,2.1,0.9,2.1,1.1V58.1z M28.3,58.1l-12.7,0l0-34c0,0,0,0,0-0.1V12.7c0-0.8,0.6-1.5,1.4-1.7l15-5.1l15.1,5.1
		c0.8,0.2,1.3,0.9,1.3,1.6V24c0,0.1,0,0.1,0,0.2l0,34l-12.7,0 M60.1,58.1h-9.9v-34c0.1-0.3,0.4-1.1,2.1-1.1l7.9,0
		c0.3,0,0.6,0.1,0.8,0.3c0.2,0.2,0.3,0.5,0.4,0.8l0,0.1l0,32.2C61.4,56.8,61.1,58,60.1,58.1z"/>
	<rect x="53.7" y="25.6" width="4.8" height="4.8"/>
	<rect x="53.7" y="33.9" width="4.8" height="4.8"/>
	<rect x="53.7" y="42.3" width="4.8" height="4.8"/>
	<rect x="38.2" y="13.9" width="4.8" height="4.8"/>
	<rect x="38.4" y="22.5" width="4.8" height="4.8"/>
	<rect x="38.4" y="31.5" width="4.8" height="4.8"/>
	<rect x="38.4" y="40.3" width="4.8" height="4.8"/>
	<rect x="29.6" y="13.9" width="4.8" height="4.8"/>
	<rect x="29.6" y="22.5" width="4.8" height="4.8"/>
	<rect x="29.6" y="31.5" width="4.8" height="4.8"/>
	<rect x="29.6" y="40.3" width="4.8" height="4.8"/>
	<rect x="28.3" y="49" width="7.4" height="9.1"/>
</g>
</svg>
