<?xml version="1.0" encoding="utf-8"?>
<!-- Generator: Adobe Illustrator 22.0.1, SVG Export Plug-In . SVG Version: 6.00 Build 0)  -->
<svg version="1.1" id="Layer_1" xmlns="http://www.w3.org/2000/svg" xmlns:xlink="http://www.w3.org/1999/xlink" x="0px" y="0px"
	 viewBox="0 0 64 64" style="enable-background:new 0 0 64 64;" xml:space="preserve">
<style type="text/css">
	.st0{fill:#231F20;}
</style>
<g id="Layer_1_1_">
</g>
<g>
	<path class="st0" d="M57.8,21.5h-0.6L46.5,8.3c-0.3-0.3-0.7-0.5-1.1-0.5h-5.2c-0.6-1.9-2.4-3.3-4.6-3.3H28c-2.1,0-3.9,1.4-4.6,3.3
		h-5.2c-0.4,0-0.9,0.2-1.1,0.5L6.4,21.5H6.2c-3.4,0-6.2,2.8-6.2,6.2c0,3.4,2.7,6.1,6,6.2l5.9,24.6c0.2,0.7,0.7,1.1,1.4,1.1h37.5
		c0.7,0,1.3-0.5,1.4-1.1L57.6,34h0.1c3.4,0,6.2-2.8,6.2-6.3C64,24.3,61.2,21.5,57.8,21.5z M28,7.3h7.7c1,0,1.9,0.8,1.9,1.9
		c0,1.1-0.8,1.9-1.9,1.9H28c-1,0-1.9-0.8-1.9-1.9C26.1,8.1,26.9,7.3,28,7.3z M18.9,10.6h4.5c0.6,2,2.4,3.4,4.6,3.4h7.7
		c2.1,0,3.9-1.4,4.6-3.3h4.5l8.7,10.8H10.2L18.9,10.6z M49.7,56.7H14.5L9,34h45.6L49.7,56.7z M57.8,31.1H6.2c-1.8,0-3.3-1.5-3.3-3.3
		s1.5-3.3,3.3-3.3h51.5c1.8,0,3.3,1.5,3.3,3.3C61.1,29.6,59.6,31.1,57.8,31.1z"/>
	<path class="st0" d="M19.2,53.8c0.8,0,1.5-0.7,1.5-1.5V38.7c0-0.8-0.7-1.5-1.5-1.5s-1.5,0.7-1.5,1.5v13.7
		C17.8,53.2,18.4,53.8,19.2,53.8z"/>
	<path class="st0" d="M32,53.8c0.8,0,1.5-0.7,1.5-1.5V38.7c0-0.8-0.7-1.5-1.5-1.5s-1.5,0.7-1.5,1.5v13.7
		C30.5,53.2,31.2,53.8,32,53.8z"/>
	<path class="st0" d="M43.9,53.8c0.8,0,1.5-0.7,1.5-1.5V38.7c0-0.8-0.7-1.5-1.5-1.5c-0.8,0-1.5,0.7-1.5,1.5v13.7
		C42.5,53.2,43.1,53.8,43.9,53.8z"/>
</g>
</svg>
