<?xml version="1.0" encoding="utf-8"?>
<!-- Generator: Adobe Illustrator 22.0.1, SVG Export Plug-In . SVG Version: 6.00 Build 0)  -->
<svg version="1.1" id="Layer_1" xmlns="http://www.w3.org/2000/svg" xmlns:xlink="http://www.w3.org/1999/xlink" x="0px" y="0px"
	 viewBox="0 0 64 64" style="enable-background:new 0 0 64 64;" xml:space="preserve">
<g id="Layer_1_1_">
</g>
<g>
	<path d="M32,0C14.4,0,0,14.4,0,32s14.4,32,32,32s32-14.4,32-32S49.6,0,32,0z M32,61.6C15.7,61.6,2.4,48.3,2.4,32S15.7,2.4,32,2.4
		S61.6,15.7,61.6,32S48.3,61.6,32,61.6z"/>
	<path d="M40,34.1H24c-0.3,0-0.6,0.1-0.8,0.4s-0.3,0.5-0.3,0.8c0,0.6,0.5,1.1,1.1,1.1h16c0.6,0,1.1-0.5,1.1-1.1
		c0-0.3-0.1-0.6-0.3-0.8S40.3,34.1,40,34.1z"/>
	<path d="M40,40.7H24c-0.3,0-0.6,0.1-0.8,0.4c-0.2,0.3-0.3,0.5-0.3,0.8c0,0.6,0.5,1.1,1.1,1.1h16c0.6,0,1.1-0.5,1.1-1.1
		c0-0.3-0.1-0.6-0.3-0.8C40.6,40.8,40.3,40.7,40,40.7z"/>
	<path d="M23.2,28c-0.2,0.2-0.3,0.5-0.3,0.8c0,0.6,0.5,1.1,1.1,1.1h16c0.6,0,1.1-0.5,1.1-1.1c0-0.3-0.1-0.6-0.3-0.8
		s-0.5-0.3-0.8-0.3H24C23.6,27.6,23.4,27.8,23.2,28z"/>
	<path d="M43.6,18.2h-4.3c0-1.4-1.2-2.5-2.6-2.5h-9.4c-1.4,0-2.6,1.1-2.6,2.5h-4.4c-0.6,0.1-1,0.5-1,1.1v27.9c0,0.6,0.5,1.1,1.1,1.1
		h23.2c0.6,0,1.1-0.5,1.1-1.1V19.3C44.7,18.7,44.2,18.2,43.6,18.2z M27,18.2c0-0.2,0.1-0.3,0.3-0.3h9.4c0.2,0,0.3,0.1,0.3,0.3v2.2
		c0,0.2-0.1,0.3-0.3,0.3h-9.4c-0.2,0-0.3-0.1-0.3-0.3V18.2z M42.5,46.2h-21V20.4h3.2c0,1.4,1.2,2.5,2.6,2.5h9.4V23
		c1.4,0,2.6-1.1,2.6-2.5h3.2V46.2z"/>
</g>
</svg>
