<?xml version="1.0" encoding="utf-8"?>
<!-- Generator: Adobe Illustrator 23.0.1, SVG Export Plug-In . SVG Version: 6.00 Build 0)  -->
<svg version="1.1" id="Layer_1" xmlns="http://www.w3.org/2000/svg" xmlns:xlink="http://www.w3.org/1999/xlink" x="0px" y="0px"
	 viewBox="0 0 37 37" style="enable-background:new 0 0 37 37;" xml:space="preserve">
<style type="text/css">
	.st0{fill-rule:evenodd;clip-rule:evenodd;}
</style>
<g>
	<path class="st0" d="M22.7,14.8v-2.1h2.1v2.1L22.7,14.8L22.7,14.8z M18.2,10.3V8.2h2.1v2.1H18.2z M22.7,10.3V8.2h2.1v2.1H22.7z
		 M13.7,8.2h2.1v2.1h-1.5l3.6,2.1h2.7V14l7.8,4.5L10.6,28.8V8.2l3,1.8L13.7,8.2L13.7,8.2z M18.2,14.8h2.1v-2.1h-2.1
		C18.2,12.7,18.2,14.8,18.2,14.8z M13.7,14.8h2.1v-2.1h-2.1C13.7,12.7,13.7,14.8,13.7,14.8z M22.7,19.3h2.1v-2.1h-2.1V19.3z
		 M18.2,19.3h2.1v-2.1h-2.1V19.3z M13.7,19.3h2.1v-2.1h-2.1V19.3z"/>
</g>
</svg>
