<svg xmlns="http://www.w3.org/2000/svg" width="37" height="37" viewBox="0 0 37 37">
    <path fill="#FFF" fill-rule="evenodd" d="M19.91 14.744l1.456 2.17-1.549 1.062-1.486-2.144-1.952 1.881-.81-7.606.021-.015 6.803 3.5-2.483 1.152zm1.474 9.726c-.562.452-1.431.677-2.609.677h-2.789v-5.26h2.65c2.394 0 3.59.837 3.59 2.513 0 .93-.28 1.62-.842 2.07zm4.44-4.895c-.566-.782-1.49-1.316-2.769-1.602v-.138a3.39 3.39 0 0 0 2.258-1.395c.566-.773.849-1.762.849-2.968 0-1.776-.647-3.072-1.94-3.886-1.294-.815-3.371-1.223-6.234-1.223h-5.866V28.55h7.136c2.283 0 4.09-.515 5.42-1.546 1.33-1.03 1.994-2.467 1.994-4.308 0-1.298-.282-2.338-.848-3.12z"/>
</svg>
