<svg xmlns="http://www.w3.org/2000/svg" xmlns:xlink="http://www.w3.org/1999/xlink" width="37" height="37" viewBox="0 0 37 37">
    <defs>
        <path id="a" d="M24.769 21.52c1.267 0 3.004-1.14 4.467-2.658a13.393 13.393 0 0 0 1.945-2.553c.122.712.187 1.444.187 2.191 0 7.107-5.761 12.868-12.868 12.868a12.866 12.866 0 0 1-11.437-6.966c1.5-.57 2.68-1.406 3.147-1.712.116-.077.283-.199.327-.197.044 0-.024.309-.089.668-.041.23-.229 1.214-.178 1.976.024.367.145.73.511.847.403.128.783-.095.977-.347.631-.815 3.832-4.536 4.876-5.38.067-.055.116-.079.147-.066.031.012.045.062.042.155-.014.398-.095.933-.104 1.33-.014 1.13.76 1.922 1.879 1.917 1.252-.005 3.166-2.492 3.676-3.104.213-.256.338-.359.432-.359.348 0 .658 1.39 2.063 1.39zm-11.215-3.475c-.28.272-.377.385-.404.377-.026-.009.09-.295.169-.516.51-1.44 1.818-4.458 3.078-5.824.728-.79 1.212-1.027 1.425-1.008.332.03-.114.988-.265 1.34-.916 2.134-3.21 4.861-4.003 5.631zm11.4-4.354c-.517.15-.988.453-.906 1.028.082.575.199.861.553.853.417.257.686-.483.77-.87.082-.387.128-1.169-.416-1.011zM11.2 20.13a.58.58 0 0 1-.198.29c-.508.365-2.42 1.838-4.505 2.722a12.835 12.835 0 0 1-.864-4.643c0-7.107 5.761-12.868 12.868-12.868 5.805 0 10.711 3.844 12.314 9.125a19.245 19.245 0 0 1-2.716 3.267c-1.523 1.452-2.892 2.2-3.514 2.192-.345-.005-.61-.58-.014-2.405.162-.497-.265-.922-.723-.998-.345-.057-.667.089-1 .526-1.193 1.57-2.41 3.125-3.738 4.358-.152.142-.392.365-.472.367-.1.001-.128-.151-.128-.335.001-.372.126-1.754.151-2.296.023-.49-.196-.834-.558-1.005-.507-.24-.998-.195-1.556.109-1.304.712-3.538 3.484-4.245 4.299-.055.062-.154.186-.215.162-.065-.025-.04-.158-.027-.224.107-.562.193-.96.298-1.503.012-.063.034-.172.047-.206a.296.296 0 0 1 .073-.092c.695-.649 2.705-2.501 4.395-4.616 1.19-1.488 2.221-3.106 2.526-4.526.134-.622.028-1.877-1.154-2.04-1.472-.202-3.218 1.6-4.668 4.168-1.347 2.384-2.028 4.982-2.377 6.171z"/>
    </defs>
    <g fill="none" fill-rule="evenodd">
        <mask id="b" fill="#fff">
            <use xlink:href="#a"/>
        </mask>
        <use fill="#FFF" xlink:href="#a"/>
        <g fill="#FFF" mask="url(#b)">
            <path d="M0 0h37v37H0z"/>
        </g>
    </g>
</svg>
