<svg xmlns="http://www.w3.org/2000/svg" width="37" height="37" viewBox="0 0 37 37">
    <g fill="none" fill-rule="evenodd">
        <path fill-rule="nonzero" d="M.675.675h35.65v35.65H.675z"/>
        <path fill="#FFF" d="M22.692 14.794V12.7h2.093v2.093h-2.093zm-4.513-4.513V8.188h2.093v2.093h-2.093zm4.513 0V8.188h2.093v2.093h-2.093zm-9.026-2.094h2.093v2.094h-1.52l3.64 2.12h2.694v1.568l7.781 4.531-17.708 10.313V8.188l3.02 1.76v-1.76zm4.513 6.607h2.093V12.7h-2.093v2.094zm-4.513 0h2.093V12.7h-2.093v2.094zm9.025 4.511h2.093v-2.091h-2.093v2.091zm-4.512 0h2.093v-2.091h-2.093v2.091zm-4.513 0h2.093v-2.091h-2.093v2.091z"/>
    </g>
</svg>
