<?xml version="1.0" encoding="utf-8"?>
<!-- Generator: Adobe Illustrator 23.0.1, SVG Export Plug-In . SVG Version: 6.00 Build 0)  -->
<svg version="1.1" id="Layer_1" xmlns="http://www.w3.org/2000/svg" xmlns:xlink="http://www.w3.org/1999/xlink" x="0px" y="0px"
	 viewBox="0 0 37 37" style="enable-background:new 0 0 37 37;" xml:space="preserve">
<style type="text/css">
	.st0{fill-rule:evenodd;clip-rule:evenodd;}
</style>
<g>
	<g>
		<path class="st0" d="M24.8,21.5c1.3,0,3-1.1,4.5-2.7c0.7-0.8,1.4-1.6,1.9-2.6c0.1,0.7,0.2,1.4,0.2,2.2c0,7.1-5.8,12.9-12.9,12.9
			c-4.8,0-9.2-2.7-11.4-7c1.5-0.6,2.7-1.4,3.1-1.7c0.1-0.1,0.3-0.2,0.3-0.2c0,0,0,0.3-0.1,0.7c0,0.2-0.2,1.2-0.2,2
			c0,0.4,0.1,0.7,0.5,0.8c0.4,0.1,0.8-0.1,1-0.3c0.6-0.8,3.8-4.5,4.9-5.4c0.1-0.1,0.1-0.1,0.1-0.1c0,0,0,0.1,0,0.2
			c0,0.4-0.1,0.9-0.1,1.3c0,1.1,0.8,1.9,1.9,1.9c1.3,0,3.2-2.5,3.7-3.1c0.2-0.3,0.3-0.4,0.4-0.4C23.1,20.1,23.4,21.5,24.8,21.5z
			 M13.6,18c-0.3,0.3-0.4,0.4-0.4,0.4c0,0,0.1-0.3,0.2-0.5c0.5-1.4,1.8-4.5,3.1-5.8c0.7-0.8,1.2-1,1.4-1c0.3,0-0.1,1-0.3,1.3
			C16.6,14.5,14.3,17.3,13.6,18z M25,13.7c-0.5,0.1-1,0.5-0.9,1s0.2,0.9,0.6,0.9c0.4,0.3,0.7-0.5,0.8-0.9
			C25.5,14.3,25.5,13.5,25,13.7L25,13.7z M11.2,20.1c0,0.1-0.1,0.2-0.2,0.3c-0.5,0.4-2.4,1.8-4.5,2.7c-0.6-1.5-0.9-3.1-0.9-4.6
			c0-7.1,5.8-12.9,12.9-12.9c5.8,0,10.7,3.8,12.3,9.1C30,15.9,29.1,17,28.1,18c-1.5,1.5-2.9,2.2-3.5,2.2c-0.3,0-0.6-0.6,0-2.4
			c0.2-0.5-0.3-0.9-0.7-1c-0.3-0.1-0.7,0.1-1,0.5c-1.2,1.6-2.4,3.1-3.7,4.4c-0.2,0.1-0.4,0.4-0.5,0.4c-0.1,0-0.1-0.2-0.1-0.3
			c0-0.4,0.1-1.8,0.2-2.3c0-0.5-0.2-0.8-0.6-1c-0.5-0.2-1-0.2-1.6,0.1c-1.3,0.7-3.5,3.5-4.2,4.3c-0.1,0.1-0.2,0.2-0.2,0.2
			c-0.1,0,0-0.2,0-0.2c0.1-0.6,0.2-1,0.3-1.5c0-0.1,0-0.2,0-0.2c0,0,0-0.1,0.1-0.1c0.7-0.6,2.7-2.5,4.4-4.6c1.2-1.5,2.2-3.1,2.5-4.5
			c0.1-0.6,0-1.9-1.2-2c-1.5-0.2-3.2,1.6-4.7,4.2C12.2,16.3,11.5,18.9,11.2,20.1L11.2,20.1z"/>
	</g>
</g>
</svg>
