<?xml version="1.0" standalone="no"?>
<!DOCTYPE svg PUBLIC "-//W3C//DTD SVG 1.1//EN" "http://www.w3.org/Graphics/SVG/1.1/DTD/svg11.dtd">
<svg xmlns="http://www.w3.org/2000/svg">
<metadata>Generated by Fontastic.me</metadata>
<defs>
<font id="handy" horiz-adv-x="512">
<font-face font-family="handy" units-per-em="512" ascent="480" descent="-32"/>
<missing-glyph horiz-adv-x="512" />

<glyph glyph-name="handy-icon-alert" unicode="&#97;" d="M256 0c-141 0-256 115-256 256 0 141 115 256 256 256 141 0 256-115 256-256 0-141-115-256-256-256z m0 493c-130 0-237-107-237-237 0-130 107-237 237-237 130 0 237 107 237 237 0 130-107 237-237 237z m17-263l-35 0c-13 0-24 12-24 25l0 119c0 13 11 24 24 24l35 0c13 0 25-11 25-24l0-119c0-13-12-25-25-25z m-35 151c-4 0-7-3-7-7l0-119c0-4 3-7 7-7l35 0c4 0 7 3 7 7l0 119c0 4-3 7-7 7z m18-267c-27 0-50 22-50 49 0 27 23 50 50 50 27 0 50-23 50-50 0-27-23-49-50-49z m0 81c-18 0-32-14-32-32 0-17 14-32 32-32 18 0 32 15 32 32 0 18-14 32-32 32z"/>
<glyph glyph-name="handy-icon-arrow-left-long" unicode="&#99;" d="M178 242l2 3 134 267 19-10-5-9-126-251 132-232-19-10-135 238"/>
<glyph glyph-name="handy-icon-arrow-right-long" unicode="&#100;" d="M332 238l-135-238-19 10 132 232-127 251-5 9 20 10 134-267 2-3"/>
<glyph glyph-name="handy-icon-awareness" unicode="&#101;" d="M256 0c-141 0-256 115-256 256 0 141 115 256 256 256 141 0 256-115 256-256 0-141-115-256-256-256z m0 493c-130 0-237-107-237-237 0-130 107-237 237-237 130 0 237 107 237 237 0 130-107 237-237 237z m-75-203c-2 0-3 1-5 2l-39 24c-4 2-6 8-3 12 2 4 8 6 12 3l39-24c4-2 5-8 3-12-1-3-4-5-7-5z m32 32c-3 0-7 2-8 5l-21 42c-2 4-1 9 4 12 4 2 10 1 12-4l21-42c2-4 1-9-4-12-2 0-3-1-4-1z m118-32c-3 0-5 2-7 4-2 4-1 10 3 12l39 24c4 3 10 2 12-3 3-4 1-9-3-12l-39-24c-2-1-3-1-5-1z m-32 32c-1 0-2 0-4 1-4 3-6 7-4 12l23 43c2 4 7 7 12 4 4-2 6-7 4-12l-23-43c-1-3-5-5-8-5z m-42 11c-5 0-9 4-9 9l0 59c0 5 4 9 9 9 5 0 9-4 9-9l0-59c0-6-4-9-9-9z m30-183l-56 0c-4 0-7 3-8 7l-21 66c-8 11-13 24-13 38 0 36 30 65 67 65 37 0 68-29 68-65 0-14-4-27-13-38-5-13-13-52-16-65 0-4-4-8-8-8z m-49 18l42 0c3 15 10 49 16 62 0 1 1 2 2 3 6 8 9 17 9 28 0 26-22 47-50 47-28 0-50-21-50-47 0-11 3-20 10-28 1-1 1-2 1-3z m39-42l-40 0c-5 0-9 4-9 9 0 5 4 9 9 9l40 0c5 0 9-4 9-9 0-5-4-9-9-9z m-7-24l-28 0c-4 0-8 4-8 9 0 5 4 9 8 9l28 0c5 0 9-4 9-9 0-5-4-9-9-9z"/>
<glyph glyph-name="handy-icon-barchart" unicode="&#102;" d="M256 0c-141 0-256 115-256 256 0 141 115 256 256 256 141 0 256-115 256-256 0-141-115-256-256-256z m0 493c-130 0-237-107-237-237 0-130 107-237 237-237 130 0 237 107 237 237 0 130-107 237-237 237z m-93-380l-31 0c-6 0-11 5-11 11l0 66c0 7 5 12 11 12l31 0c7 0 11-5 11-12l0-66c0-6-4-11-11-11z m-25 17l19 0 0 54-19 0z m25 54z m71-71l-31 0c-6 0-11 5-11 11l0 138c0 6 5 11 11 11l31 0c7 0 12-5 12-11l0-139c0-5-5-10-12-10z m-24 17l18 0 0 125-18 0z m24 125z m72-144l-32 0c-6 0-11 5-11 11l0 104c0 6 5 11 11 11l32 0c6 0 11-5 11-11l0-104c0-5-5-11-11-11z m-24 18l18 0 0 90-18 0z m24 90z m71-107l-31 0c-7 0-12 5-12 11l0 186c0 6 5 11 12 11l31 0c6 0 11-5 11-11l0-186c0-6-5-11-11-11z m-24 18l18 0 0 172-18 0z m24 172z m-235-38c-2 0-4 1-6 2-3 4-3 9 0 13l71 68c3 3 7 3 10 2l69-32 76 70c3 3 8 3 12-1 4-3 4-8 0-12l-81-75c-3-2-7-3-10-1l-67 32-67-64c-2-1-4-2-7-2z m234 98c-2 0-5 0-7 3l-15 16c-2 2-3 6-2 9 1 4 4 6 7 7l20 5c3 0 7-1 9-3 2-2 3-5 2-9l-5-22c-1-3-4-6-7-6 0 0-1 0-2 0z m7 21z"/>
<glyph glyph-name="handy-icon-battery" unicode="&#103;" d="M256 0c-141 0-256 115-256 256 0 141 115 256 256 256 141 0 256-115 256-256 0-141-115-256-256-256z m0 493c-130 0-237-107-237-237 0-130 107-237 237-237 130 0 237 107 237 237 0 130-107 237-237 237z m60-394l-120 0c-11 0-21 10-21 21l0 239c0 11 10 21 21 21l121 0c11 0 21-10 21-21l0-239c-1-11-10-21-22-21z m-120 263c-2 0-3-2-3-4l0-238c0-2 1-3 3-3l121 0c1 0 3 1 3 3l0 239c0 2-2 3-3 3l-121 0z m92 0l-60 0c-5 0-9 4-9 8l0 33c0 5 4 9 9 9l60 0c5 0 9-4 9-9l0-33c0-4-4-8-9-8z m-52 17l42 0 0 15-42 0z m10-221c-1 0-1 0-2 0-3 0-6 4-6 7l0 61-22 0c-2 0-5 1-6 4-2 2-2 4 0 7l52 85c1 2 4 4 8 3 3-1 5-4 5-7l0-58 17 0c2 0 5-2 6-3 2-2 2-5 0-7l-46-88c-1-3-3-4-6-4z m-17 82l17 0c4 0 8-3 8-7l0-39 27 52-13 0c-4 0-7 3-7 7l0 39z"/>
<glyph glyph-name="handy-icon-bell" unicode="&#105;" d="M256 0c-141 0-256 115-256 256 0 141 115 256 256 256 141 0 256-115 256-256 0-141-115-256-256-256z m0 493c-130 0-237-107-237-237 0-130 107-237 237-237 130 0 237 107 237 237 0 130-107 237-237 237z m113-375l-226 0c-16 0-28 13-28 28 0 16 13 28 28 28l227 0c16 0 28-12 28-28 0-15-13-28-29-28z m-226 40c-5 0-10-5-10-11 0-5 5-10 10-10l227 0c5 0 10 5 10 10 0 6-5 11-10 11z m222 0l-218 0 0 136c0 54 45 99 99 99l20 0c54 0 99-45 99-99z m-200 17l183 0 0 119c0 44-37 81-82 81l-19 0c-45 0-81-37-81-81l0-119z m118 216l-17 2c0 0 0 4-2 5-2 2-4 3-7 3-10 0-11-7-11-10l-17 0c0 11 7 27 28 27 10 0 17-4 20-8 7-8 7-17 6-19z m-27-297c-9 0-18 4-24 11-6 7-8 15-6 24l17-3c-1-4 1-8 3-10 6-6 16-6 22 0 2 2 3 6 3 10l18 3c1-9-1-17-7-24-8-7-17-11-26-11z"/>
<glyph glyph-name="handy-icon-cart" unicode="&#106;" d="M256 0c-141 0-256 115-256 256 0 141 115 256 256 256 141 0 256-115 256-256 0-141-115-256-256-256z m0 493c-130 0-237-107-237-237 0-130 107-237 237-237 130 0 237 107 237 237 0 130-107 237-237 237z m-56-294c-4 0-7 3-9 7-1 5-41 137-46 159-4 15-27 15-27 15-5 0-9 4-9 9 0 5 4 9 9 9 1 0 36 0 44-29 5-22 46-157 46-159 2-4-2-9-6-11 0 0-1 0-2 0z m172-44l-164 0c-17 0-31 14-31 31 0 16 11 28 26 31l182 29-3 83-224 16c-5 0-9 5-8 9 0 5 4 9 9 8l231-16c6 0 10-4 10-10l3-96c0-6-4-10-9-11l-188-29c-6-1-11-6-11-13 0-7 6-13 14-13l164 0c5 0 9-4 9-9 0-5-4-10-10-10z m14 85z m3 88z m-6 6z m-169-220c-14 0-26 12-26 26 0 14 11 26 26 26 13 0 25-12 25-26 0-14-12-26-25-26z m0 33c-4 0-8-3-8-8 0-5 3-8 8-8 4 0 8 3 8 8 0 5-4 8-8 8z m142-33c-14 0-26 12-26 26 0 14 12 26 26 26 14 0 26-12 26-26 0-14-12-26-26-26z m0 33c-4 0-8-3-8-8 0-5 3-8 8-8 5 0 8 3 8 8 0 5-4 8-8 8z"/>
<glyph glyph-name="handy-icon-cloud" unicode="&#108;" d="M256 0c-141 0-256 115-256 256 0 141 115 256 256 256 141 0 256-115 256-256 0-141-115-256-256-256z m0 493c-130 0-237-107-237-237 0-130 107-237 237-237 130 0 237 107 237 237 0 130-107 237-237 237z m8-237l-142 1c-1 0-1 0-2 0-20 3-36 19-38 40-2 19 8 37 25 45-1 24 15 48 40 56 24 8 50-1 65-20 16 8 34 7 49-4 15-10 18-27 19-36 15-8 25-23 24-40-1-21-18-40-39-43 0 1-1 1-1 1z m-142 18l140 0c13 2 23 12 24 25 0 11-8 22-19 26-4 1-6 5-5 9 0 0 0 17-12 26-11 7-25 6-36-2-3-1-5-2-8-1-2 1-4 2-5 5-10 17-31 25-49 19-18-7-30-25-27-44 1-4-3-9-7-10-12-4-21-16-20-29 3-12 12-22 24-24z m268-163l-142 1c-1 0-1 0-2 0-20 3-36 19-38 40-2 19 9 37 26 45-1 25 15 48 40 56 24 8 49-1 64-20 16 8 35 7 49-3 15-11 19-28 19-36 16-8 25-24 24-41 0-21-17-39-39-43 0 1 0 1-1 1z m-141 19l141-1c12 2 22 13 23 25 0 12-7 22-18 26-4 2-6 5-5 9 0 0 0 17-12 26-11 7-25 7-36-1-3-2-5-3-8-2-2 1-4 2-5 5-10 17-31 25-49 19-18-6-30-25-27-44 1-4-3-9-7-10-12-4-21-16-20-28 1-12 11-22 23-24z m-32 20l-71 0c-6 0-11 5-11 12l0 71c0 5 4 9 9 9 5 0 9-4 9-9l0-65 65 0c4 0 8-4 8-9 0-5-4-9-9-9z m173 99c-4 0-8 4-8 9l0 30-88 0c-4 0-8 4-8 9 0 5 4 9 8 9l92 0c7 0 12-6 12-12l0-36c1-5-3-9-8-9z m-236-25l-20 0c-3 0-6 2-8 5-1 2-1 6 0 9l10 16c2 3 5 5 8 5 3 0 6-1 8-5l10-16c1-2 1-6 0-9-2-3-5-5-8-5z m236 8c-3 0-6 2-8 5l-9 16c-2 2-2 6 0 9 1 4 5 5 8 5l19 0c3 0 6-1 8-5 2-3 2-6 0-9l-10-16c-1-3-4-5-8-5z m10 17z"/>
<glyph glyph-name="handy-icon-dinning" unicode="&#109;" d="M256 0c-141 0-256 115-256 256 0 141 115 256 256 256 141 0 256-115 256-256 0-141-115-256-256-256z m0 493c-130 0-237-107-237-237 0-130 107-237 237-237 130 0 237 107 237 237 0 130-107 237-237 237z m149-275l-296 0c-3 0-5 1-7 3l-2 2c-2 2-2 4-2 7 0 87 72 157 159 157 87 0 158-70 159-157 0-3-1-5-2-7l-3-2c-2-2-4-3-6-3z m-290 18l283 0c-4 74-67 134-142 134-75 0-137-60-141-134z m142 134c-13 0-23 10-23 22 0 12 11 22 23 22 12 0 22-10 22-22 0-12-10-22-22-22z m0 27c-3 0-5-3-5-5 0-2 2-5 5-5 2 0 5 3 5 5 0 2-3 5-5 5z m81-299c-1 0-4 0-5 1l-17 14c0 0-1 1-6 1l-75-2c-3 0-9 2-12 5l-61 44c-3 1-5 5-5 9-1 3 1 7 2 9 3 4 9 6 14 4l57-22c4-2 8-3 12-2l8 1-10 5c-6 2-9 8-8 14 1 7 7 12 14 11l52-2c1 0 2 0 3 0 2 0 5-2 8-3l44-23c3-2 5-6 4-9l-11-48c-1-3-3-5-6-7 0 0-1 0-2 0z m-6 9z m10 3z m-32 18c7 0 11-1 15-4l9-8 8 34-40 22c-1 1-2 1-3 2 0 0-1 0-1 0l-47 2 19-8c4-2 6-6 5-10-1-5-4-8-8-9l-23-3c-6-1-14 0-20 2l-42 16 49-35c2-1 3-2 4-3z m36 21z m-3 6z m-78 8z m156 32l-330 0c-4 0-7 3-7 7 0 3 3 6 7 6l330 0c4 0 7-3 7-6 0-4-3-7-7-7z"/>
<glyph glyph-name="handy-icon-globe" unicode="&#111;" d="M256 0c-141 0-256 115-256 256 0 141 115 256 256 256 141 0 256-115 256-256 0-141-115-256-256-256z m0 493c-130 0-237-107-237-237 0-130 107-237 237-237 130 0 237 107 237 237 0 130-107 237-237 237z m-18-331c-65 0-119 54-119 120 0 65 54 119 119 119 66 0 120-54 120-119 0-67-54-120-120-120z m0 220c-56 0-101-45-101-101 0-56 45-102 101-102 56 0 102 46 102 102 0 56-46 101-102 101z m11-245c-27 0-57 1-79 13-4 3-5 8-3 12 3 4 8 6 12 4 18-11 47-12 70-12 69 0 126 56 126 124 0 51-31 98-77 117-4 2-6 7-4 11 1 5 7 7 11 5 53-21 88-75 88-133 0-77-65-141-144-141z m1-38c-5 0-9 4-9 9l0 34c0 5 4 9 9 9 4 0 8-4 8-9l0-34c0-5-4-9-8-9z m40 0l-80 0c-5 0-9 4-9 9 0 5 4 9 9 9l80 0c4 0 8-4 8-9 0-5-4-9-8-9z"/>
<glyph glyph-name="handy-icon-graph" unicode="&#112;" d="M256 0c-141 0-256 115-256 256 0 141 115 256 256 256 141 0 256-115 256-256 0-141-115-256-256-256z m0 493c-130 0-237-107-237-237 0-130 107-237 237-237 130 0 237 107 237 237 0 130-107 237-237 237z m-140-341c-18 0-34 15-34 34 0 18 16 33 34 33 18 0 34-15 34-33 0-19-15-34-34-34z m0 50c-9 0-16-7-16-16 0-8 7-16 16-16 9 0 16 8 16 16 0 9-7 16-16 16z m86 33c-18 0-33 15-33 34 0 18 15 33 33 33 19 0 34-15 34-33 0-19-14-34-34-34z m0 51c-8 0-16-8-16-16 0-9 8-16 16-16 9 0 16 7 16 16 0 8-6 16-16 16z m114-107c-18 0-34 15-34 34 0 18 16 33 34 33 18 0 34-15 34-33 0-19-16-34-34-34z m0 50c-9 0-16-7-16-16 0-9 7-16 16-16 9 0 16 7 16 16 0 9-7 16-16 16z m80 63c-18 0-34 15-34 34 0 18 16 33 34 33 18 0 34-15 34-33 0-19-16-34-34-34z m0 50c-9 0-16-7-16-16 0-8 7-16 16-16 9 0 16 8 16 16 0 9-7 16-16 16z m-269-132l49 51 13-13-50-50z m93 37l8 15 67-33-8-16z m107-13l46 75 15-9-46-75z"/>
<glyph glyph-name="handy-icon-heart" unicode="&#113;" d="M256 0c-141 0-256 115-256 256 0 141 115 256 256 256 141 0 256-115 256-256 0-141-115-256-256-256z m0 493c-130 0-237-107-237-237 0-130 107-237 237-237 130 0 237 107 237 237 0 130-107 237-237 237z m0-406c-2 0-5 1-6 3-1 0-53 52-72 72l-58 60c-7 6-25 25-27 55-3 39 22 65 28 69 18 17 44 24 71 21 33-4 54-25 65-38 10 13 32 34 65 38 27 3 52-4 71-21 5-4 31-30 28-69-3-30-20-49-28-55-21-22-43-44-65-66-22-22-43-44-65-66-2-2-5-3-7-3z m-78 263c-17 0-34-5-46-16-2-3-25-24-22-55 2-23 16-38 22-44l58-60c16-16 52-51 66-65 19 20 39 40 58 60 22 22 44 44 65 66 7 6 20 21 23 44 2 31-20 53-22 54-14 14-35 20-57 16-37-4-56-35-59-40-3-6-12-6-15 0-3 6-23 36-59 40-4 0-8 0-12 0z"/>
<glyph glyph-name="handy-icon-idea" unicode="&#114;" d="M256 0c-141 0-256 115-256 256 0 141 115 256 256 256 141 0 256-115 256-256 0-141-115-256-256-256z m0 493c-130 0-237-107-237-237 0-130 107-237 237-237 130 0 237 107 237 237 0 130-107 237-237 237z m54-348l-105 0c-6 0-11 5-11 10 0 8-4 50-23 73-19 22-29 50-27 80 3 56 48 102 104 106 31 2 62-9 85-30 22-21 36-51 36-82 0-12-2-22-5-32-2-8-6-16-10-23-2-5-5-9-8-12-1-1-3-4-4-6l-1-1c-3-5-7-10-9-14-2-5-4-11-6-16-2-10-4-20-5-31 0-4-1-8-1-11 0-6-5-11-10-11z m-99 11z m-1 6l92 0c0 3 0 4 1 7 1 12 3 23 6 33 1 7 4 13 7 20 3 6 6 11 10 16l0 1c2 3 4 5 5 7 3 4 5 7 7 10 3 6 6 13 8 19 2 9 4 18 4 27 0 26-11 51-31 68-19 19-45 28-71 26-47-3-86-42-88-89-2-25 7-49 23-67 21-24 27-61 27-78z m124 72z m-35-113l-89 0c-5 0-9 4-9 9 0 4 4 8 9 8l90 0c5 0 9-4 9-8 0-5-5-9-10-9z m-19-23l-50 0c-5 0-9 4-9 9 0 5 4 9 9 9l50 0c5 0 9-4 9-9 0-5-4-9-9-9z m45 208c-4 0-7 3-9 7-2 7-6 17-15 27-12 14-27 18-35 20-5 1-8 6-7 10 2 5 6 8 11 7 9-3 28-8 44-26 8-9 15-21 19-35 1-5-2-10-7-10 0 0 0 0-1 0z"/>
<glyph glyph-name="handy-icon-indicator" unicode="&#115;" d="M9 93c-3 0-5 1-7 2-3 3-3 9 0 13l166 155c2 2 4 3 6 3 3 0 5-2 7-4l77-88 188 184c3 4 8 4 12 0 4-3 4-8 0-12l-196-191c-1-1-4-2-6-2-2 0-5 1-6 3l-77 89-158-150c-2-1-4-2-6-2z m493 312l-69-11c-7-1-9-9-5-14l47-55c4-5 12-3 14 2l22 67c3 6-2 12-9 11z"/>
<glyph glyph-name="handy-icon-info" unicode="&#116;" d="M256 0c-141 0-256 115-256 256 0 141 115 256 256 256 141 0 256-115 256-256 0-141-115-256-256-256z m0 493c-130 0-237-107-237-237 0-130 107-237 237-237 130 0 237 107 237 237 0 130-107 237-237 237z m18-379l-35 0c-13 0-25 12-25 25l0 119c0 13 12 24 25 24l35 0c13 0 24-11 24-24l0-119c0-13-11-25-24-25z m-35 151c-4 0-7-3-7-7l0-119c0-4 3-7 7-7l35 0c4 0 7 3 7 7l0 119c0 4-3 7-7 7z m17 33c-27 0-50 22-50 49 0 27 23 50 50 50 27 0 50-23 50-50 0-27-23-49-50-49z m0 82c-18 0-32-14-32-32 0-18 14-32 32-32 18 0 32 14 32 32 0 18-14 32-32 32z"/>
<glyph glyph-name="handy-icon-innovative" unicode="&#118;" d="M244 275c-5 0-8 3-8 8 0 10-12 29-26 37-5 2-12 4-18 2 1-9 1-23-2-31l-1-1-1 0c-2-2-3-4-6-4l-2 0-2 1c-5 3-5 7-4 11 3 5 2 21 0 28-2 8-6 20-12 26 0 1-2 3-2 6 0 2 1 4 2 5 4 3 8 3 12 0 7-6 11-17 13-24 10 3 19 1 29-5 19-11 34-35 35-49 1-7-3-10-7-10z m-59 18z m-19 61z m4 5c0 0 1 0 0 0 1 0 1 0 0 0z m-21-169c-3 0-4 0-6 2-31 35-5 70-4 70 3 4 9 4 11 1 2-1 3-3 3-5 0-2-1-4-3-6 0-2-17-24 4-49 1-1 2-3 2-5 0-3-1-4-2-6-1-2-3-2-5-2z m-3 5c0 0 0 0 0 0 0 0 0 0 0 0z m176-17c-4 0-8 3-8 8 0 4 4 8 8 8 16 0 28 5 33 12 9 12 3 31 3 31l0 1c0 2 0 6 4 8l1 1 2 0c1 0 5 0 7-3 1-1 1-2 1-5 3-9 5-27-5-42-8-11-23-19-46-19z m0 4z m44 57l1-2z m0 0z m-1 3l1-2z m64-210c-51 0-85 59-95 79-16-2-29-1-40 2-29 8-52 33-64 67-30-31-60-47-87-47-6 0-13 1-19 2-25 7-47 28-62 57l-1 1c-38 24-59 52-61 82-3 43 30 79 39 88-6 32 19 62 35 74 12 9 40 13 66 5 4-1 8-3 12-4 2 4 5 8 9 12 20 19 63 31 82 30l7 0c24-2 63-4 82-49 29 10 58 8 82-3 27-13 44-37 44-63 0-9 0-17-3-23 47-50 64-92 53-128-6-20-23-36-49-50 5-14 6-28 3-40 6-6 10-14 12-24 2-12 0-32-20-62-1-2-3-4-6-4-6-1-13-2-19-2z m-81 85c4-9 13-24 24-38 22-26 46-36 70-30 16 25 18 41 17 49 0 4-1 8-4 11-13-17-33-22-35-22-3 0-6 3-7 6-1 1-1 4 0 5 1 3 3 4 6 5 3 0 19 4 26 17 5 10 6 22 2 38-15-7-34-12-57-18l-1 0c-13-10-27-18-41-23z m-107 77c9-34 29-58 56-66 27-8 60 3 90 32 13 12 23 24 32 45 3 5 7 5 11 4 5-3 5-7 4-11-7-16-15-28-23-36 48 13 76 32 83 57 12 39-26 85-45 107-10-16-25-31-45-43l-2-1-2 0c-1 0-4 0-6 3-4 3-3 8 0 11l1 1c31 18 48 42 47 67-1 21-14 39-35 50-29 13-66 9-101-12 10-6 16-16 20-28 0-2 0-4-1-7-3-5-14-4-15 3-4 10-8 16-16 21-16 9-38 4-41 3-3 0-4 0-5 0-3 1-4 4-5 5-1 3-1 6 0 8 2 2 3 3 6 3 7 3 25 4 40 1 9 6 18 11 27 15-16 36-46 37-70 39l-5 0c-16 1-55-10-71-25-4-3-5-6-6-9 10-9 17-20 21-32l0-1c0-7-3-8-6-9-2-1-5-1-6 1-2 0-3 3-3 5-5 17-17 29-36 35-23 7-45 2-51-3-17-13-42-45-22-73 9-12 21-17 23-19 0 0 0 0 1 0 1 1 3 2 5 3l0 0 23 3c5 0 9-3 9-8 0-4-4-8-8-8l-21-3c-3-1-7-8-8-12l-3-24c0-4-4-7-8-7-5 0-8 3-8 8l3 23c0 4 1 8 3 12-6 4-18 11-26 22 0 2-1 3-2 5-10-11-33-39-30-71 1-20 13-40 36-58-3 9-4 16-5 22 0 4 3 8 8 8 4 0 8-3 8-8 2-27 26-81 65-92 33-8 72 15 114 69-8 2-16 5-23 10l-1 1c-1 0-2 2-2 4-1 2 0 5 1 7 3 2 7 4 11 1 42-24 71 7 71 8 3 3 8 3 11 0 2-2 2-4 2-6 0-2 0-4-2-6-6-8-26-20-49-21-6-7-13-15-18-23z m182 9z m-373 39z m20 46c0-1 0-1 0 0z m43 48z"/>
<glyph glyph-name="handy-icon-left-arrow" unicode="&#120;" d="M121 257l255 255 13-13-243-242 245-244-13-13-244 244z"/>
<glyph glyph-name="handy-icon-left-bracket" unicode="&#121;" d="M289 483l0 15-66 0 0-484 66 0 0 15-51 0 0 454z"/>
<glyph glyph-name="handy-icon-like" unicode="&#122;" d="M256 0c-141 0-256 115-256 256 0 141 115 256 256 256 141 0 256-115 256-256 0-141-115-256-256-256z m0 493c-130 0-237-107-237-237 0-130 107-237 237-237 130 0 237 107 237 237 0 130-107 237-237 237z m82-376c-4 0-8 0-12 0-4 0-8 0-12 0l-36 0c-4 0-7 0-11 0-23 0-47-1-69 14-10 7-18 15-25 25-1 2-2 3-2 5l2 93c1 8 9 14 17 18 1 1 2 2 3 2 7 6 13 12 17 19 11 18 10 36 8 60 0 1-1 3-1 5-2 10-4 28 13 35 10 4 22 1 32-7 13-11 20-27 22-36 6-16 4-32 1-44l66 0c10 0 19-4 27-12 7-7 10-16 10-24 0-8-3-16-9-23 1 0 2-1 3-1 6-4 11-12 12-20 2-8 0-17-4-23-3-3-6-5-8-7 3-4 5-8 6-14 2-11-3-17-7-21-3-3-6-5-9-6 2-3 3-6 4-10 1-7-1-13-5-18-5-5-13-9-21-10-3 0-7 0-12 0z m-59 18l36 0c4 0 8 0 12 0 7 0 15-1 22 0 4 0 7 2 9 4 0 2 1 3 1 5-1 4-5 10-10 10-5 0-8 5-7 10 0 5 5 8 10 7 7-1 15 0 18 3 1 1 3 4 2 8-1 8-12 11-20 11-5 0-9 4-9 9 0 4 4 8 9 8l2 0c8 0 20 0 23 5 1 3 2 6 1 9 0 3-2 6-4 8-5 3-11 3-17 3-3 0-6 0-9 1-5 1-8 5-8 10 0 4 5 8 10 8 5-1 11 1 16 4 4 4 5 8 6 13 0 5-2 9-6 12-4 4-8 7-14 7l-79 0c-3 0-6 1-7 4-2 2-2 5-1 8 4 8 9 25 3 44-4 12-10 21-18 28-3 3-8 4-13 3-3-2-4-4-3-16 0-2 1-3 1-6 3-22 6-47-10-72-6-9-13-16-21-22-2-1-3-3-5-3-2-1-6-4-8-6l-1-89c4-7 11-13 18-17 18-12 37-12 59-12 4 1 8 1 12 1z m-103-9l-46 0c-8 0-15 7-15 15l0 129c0 8 7 14 15 14l46 0c8 0 14-6 14-14l0-129c0-8-6-15-14-15z m-43 18l40 0 0 122-40 0z m43 122z"/>
<glyph glyph-name="handy-icon-live-chat" unicode="&#65;" d="M330 222c-5-4-11-8-17-10-19-9-38-12-57-12-9 0-18 1-27 2-11 3-22 6-32 11-5 2-10 5-15 9-2 1-5 2-8 0-3-1-4-4-4-7 0-2 2-5 4-6 8-6 15-10 24-13 19-8 39-12 60-12 0 0 0 0 1 0 7 0 15 1 23 2 14 2 28 5 40 12 7 3 13 7 20 11 3 2 4 7 0 11-4 4-9 4-12 2z m-74 290c-142 0-256-114-256-256 0-142 114-256 256-256 142 0 256 114 256 256 0 142-114 256-256 256z m120-328l0-62-78 31-136 0c-15 0-27 12-27 27l0 186c0 16 12 28 27 28l186 0c15 0 27-12 27-28l0-182z"/>
<glyph glyph-name="handy-icon-luxos" unicode="&#66;" d="M0 205l0 102 16 0 0-99 60 0 0-2-76 0z m130-3c-29 0-44 12-44 36l0 69 17 0 0-71c0-21 10-30 28-30 23 0 35 11 35 33l0 69 3 0 0-70c0-23-15-36-39-36z m134 3l-34 47-38-47-4 0 41 49-38 53 19 0 29-40 33 40 4 0-34-42 43-60z m86-3c-35 0-58 21-58 54 0 30 25 54 58 54 34 0 57-21 57-54 0-30-25-54-57-54z m0 106c-25 0-39-18-39-51 0-35 14-53 39-53 24 0 38 18 38 51 0 35-14 53-38 53z m117-106c-22 0-36 12-41 36l4 0c3-21 18-34 39-34 17 0 29 10 29 24 0 30-66 16-66 52 0 18 16 30 39 30 19 0 31-10 36-28l-3 0c-6 17-16 26-34 26-16 0-26-8-26-20 0-30 68-15 68-52 0-19-19-34-45-34z"/>
<glyph glyph-name="handy-icon-map" unicode="&#67;" d="M256 0c-141 0-256 115-256 256 0 141 115 256 256 256 141 0 256-115 256-256 0-141-115-256-256-256z m0 493c-130 0-237-107-237-237 0-130 107-237 237-237 130 0 237 107 237 237 0 130-107 237-237 237z m-123-371c-3 0-4 0-7 1-3 3-5 6-5 10l0 214c0 5 2 9 7 11l82 34c2 1 6 1 8-1 3-1 4-5 4-8l0-215c0-3-1-6-4-8l-80-38c-2 0-4 0-5 0z m5 220l0-200 67 32 0 196z m76-174z m-79 173z m81 34z m82-255c-1 0-3 1-4 2-3 1-4 4-4 8l0 219c0 3 2 6 5 8l81 33c3 2 7 1 10 0 4-3 5-6 5-10l0-210c0-4-2-8-6-10l-83-39c-1-1-3-1-4-1z m9 222l0-200 67 32 0 196z m74-174z m-83-48c-2 0-3 0-4 1l-84 39c-3 2-4 5-4 8l0 214c0 4 2 7 4 8 1 0 4 2 8 0l84-33c3-2 5-5 5-8l0-219c0-3-1-6-5-8-1-1-3-2-4-2z m-76 54l67-32 0 200-67 28z m-10 200z"/>
<glyph glyph-name="handy-icon-network" unicode="&#70;" d="M256 0c-141 0-256 115-256 256 0 141 115 256 256 256 141 0 256-115 256-256 0-141-115-256-256-256z m0 493c-130 0-237-107-237-237 0-130 107-237 237-237 130 0 237 107 237 237 0 130-107 237-237 237z m-94-351c-4 0-8 4-8 8l0 70c0 5 4 9 8 9 5 0 9-4 9-9l0-70c0-4-4-8-9-8z m63 0c-5 0-9 4-9 8l0 118c0 5 4 9 9 9 5 0 9-4 9-9l0-118c0-4-4-8-9-8z m62 0c-5 0-9 4-9 8l0 164c0 5 4 9 9 9 5 0 9-4 9-9l0-164c0-4-4-8-9-8z m63 0c-5 0-9 4-9 8l0 212c0 4 4 8 9 8 4 0 8-4 8-8l0-212c0-4-4-8-8-8z"/>
<glyph glyph-name="handy-icon-passionate" unicode="&#72;" d="M161 370c0 0 0 0-1 1-2-5-3-10-6-16-4 10-8 19-16 26-2-19-6-39-18-55-2 6-4 12-6 17 0-1-1-1-1-1-3-10-7-20-8-30-3-14 0-27 9-38 9-11 20-16 33-12 13 2 21 11 27 23 4 11 4 22 1 33-5 17-9 34-14 52z m95-332c-2 0-5 0-6 2-1 1-85 84-116 115l-92 96c-11 11-38 39-41 84-6 60 34 99 42 107 29 25 67 36 109 32 55-8 90-44 104-65 14 21 49 58 104 65 42 5 81-7 109-32 8-8 47-47 42-106-4-46-31-74-42-85-34-35-69-71-103-105-35-35-70-71-104-106-1-2-4-2-6-2z m-124 419c-30 0-57-10-78-29-4-4-40-38-36-91 3-39 26-64 36-73l93-96c26-26 89-89 109-109 32 33 66 67 98 99 34 35 69 71 103 106 10 10 33 34 37 74 4 52-33 88-37 91-25 22-59 32-95 27-60-8-92-58-98-68-3-6-12-6-15 0-6 10-38 60-99 68-6 0-12 1-18 1z"/>
<glyph glyph-name="handy-icon-pbx" unicode="&#73;" d="M256 0c-141 0-256 115-256 256 0 141 115 256 256 256 141 0 256-115 256-256 0-141-115-256-256-256z m0 493c-130 0-237-107-237-237 0-130 107-237 237-237 130 0 237 107 237 237 0 130-107 237-237 237z m0-152c-10 0-20 4-27 11-7 7-11 17-11 27 0 11 4 20 11 27 7 8 17 12 27 12 10 0 20-4 27-12 7-7 11-16 11-27 0-10-4-20-11-27-7-7-17-11-27-11z m0 59c-11 0-21-10-21-21 0-5 3-11 7-14 4-4 8-7 14-7 6 0 11 3 14 7 4 4 7 9 7 14 0 12-10 21-21 21z m0-306c-10 0-20 4-27 12-7 7-11 16-11 27 0 10 4 20 11 27 7 7 17 11 27 11 10 0 20-4 27-11 7-7 11-17 11-27 0-11-4-20-11-27-7-8-17-12-27-12z m0 60c-6 0-11-3-15-7-4-4-7-9-7-14 0-6 3-11 7-15 4-4 9-6 14-6 11 0 21 10 21 21 0 5-2 11-6 14-3 4-8 7-14 7z m123 59c-10 0-20 4-27 11-7 7-11 17-11 27 0 11 4 20 11 27 7 8 17 12 27 12 11 0 20-4 27-12 8-7 12-16 12-27 0-10-4-20-12-27-7-7-16-11-27-11z m0 17l0-8 0 8c6 0 11 3 15 7 4 4 6 9 6 14 0 6-2 11-6 15-4 4-9 6-15 6-5 0-11-2-14-6-3-4-7-10-7-15 0-11 10-21 21-21z m-246-14c-11 0-20 4-27 11-8 7-12 17-12 27 0 11 4 20 12 28 7 7 16 11 27 11 10 0 20-4 27-11 7-8 11-17 11-28 0-10-4-20-11-27-7-7-17-11-27-11l0 9z m0 59c-6 0-11-2-15-6-4-4-7-10-7-15 0-5 3-11 7-14 4-4 9-6 14-6 6 0 11 2 14 6 4 4 7 10 7 14 1 12-9 21-20 21z m123-69c-13 0-26 5-35 15-10 9-15 21-15 35 0 14 5 26 15 35 9 10 21 15 35 15 13 0 26-5 35-15 10-9 15-21 15-35 0-27-23-50-50-50z m0 18l0-9 0 9c18 0 32 14 32 32 0 9-3 17-10 22-5 7-13 10-22 10-9 0-17-3-22-10-7-5-10-13-10-22 0-9 3-17 10-22 5-7 13-10 22-10z m-9 126l18 0 0-53-18 0z m0-135l18 0 0-53-18 0z m51 48l53 0 0-17-53 0z m-137 0l53 0 0-17-53 0z m-18 22l84 81 13-13-85-81z m130-129l83 78 12-12-83-79z m-128 67l13 11 76-85-13-11z m129 130l13 12 80-85-12-12z"/>
<glyph glyph-name="handy-icon-phone" unicode="&#74;" d="M256 0c-141 0-256 115-256 256 0 141 115 256 256 256 141 0 256-115 256-256 0-141-115-256-256-256z m0 493c-130 0-237-107-237-237 0-130 107-237 237-237 130 0 237 107 237 237 0 130-107 237-237 237z m116-377c-141 0-256 115-256 256 0 13 10 23 23 23l51 0c13 0 24-10 24-23 0-17 2-34 8-49 2-9 0-17-7-24l-26-27c19-35 48-64 83-83l27 27c7 6 15 8 24 6 16-6 32-8 49-8 13 0 23-11 23-24l0-51c1-13-9-23-23-23z m-232 262c-3 0-6-2-6-5 0-131 108-239 239-239 3 0 5 3 5 6l0 51c0 3-2 6-5 6-19 0-37 3-55 9-2 0-4 0-6-2l-32-32c-2-2-7-3-10-2-43 22-79 57-100 100-2 4-1 8 1 11l32 32c2 1 2 4 2 5-6 18-9 36-9 55 0 3-2 5-6 5z"/>
<glyph glyph-name="handy-icon-pos" unicode="&#75;" d="M256 0c-141 0-256 115-256 256 0 141 115 256 256 256 141 0 256-115 256-256 0-141-115-256-256-256z m0 493c-130 0-237-107-237-237 0-130 107-237 237-237 130 0 237 107 237 237 0 130-107 237-237 237z m140-382l-280 0c-8 0-14 7-14 15l0 47c0 8 6 14 14 14l281 0c8 0 14-6 14-14l0-47c-1-8-7-15-15-15z m-277 18l274 0 0 41-274 0z m280 41l-286 0c-3 0-7 1-8 4-3 2-3 5-3 8l22 154c1 6 6 10 11 10l243 0c5 0 10-4 11-10l22-154c1-4-1-7-2-9-3-2-7-3-10-3z m-278 17l271 0-21 141-230 0z m224 76l-178 0c-10 0-19 9-19 19l0 12c0 11 9 20 19 20l177 0c10 0 19-9 19-20l0-12c0-10-8-19-18-19z m-178 33c-1 0-1-1-1-2l0-12c0 0 0-1 1-1l177 0c1 0 2 1 2 1l0 12c0 1-1 2-2 2z m51 55l-71 0c-8 0-14 7-14 15l0 21c0 8 6 15 14 15l71 0c8 0 14-7 14-15l0-21c0-8-6-15-14-15z m-67 18l63 0 0 14-63 0z m23-9l17 0 0-22-17 0z m126-220l-77 0c-5 0-9 4-9 9 0 5 4 9 9 9l77 0c5 0 9-4 9-9 0-5-4-9-9-9z"/>
<glyph glyph-name="handy-icon-remote" unicode="&#76;" d="M256 0c-141 0-256 115-256 256 0 141 115 256 256 256 141 0 256-115 256-256 0-141-115-256-256-256z m0 493c-130 0-237-107-237-237 0-130 107-237 237-237 130 0 237 107 237 237 0 130-107 237-237 237z m53-407l-106 0c-8 0-14 7-14 15l0 224c0 8 6 14 14 14l105 0c8 0 14-6 14-14l0-224c1-7-5-15-13-15z m-103 18l100 0 0 218-100 0z m103 218z m-35-36c0-9-8-17-18-17-10 0-18 8-18 17 0 10 8 18 18 18 10 0 18-8 18-18z m-80 96c-2 0-4 1-6 4-3 3-3 8 1 12 1 1 65 60 134 2 4-3 4-9 1-13-3-4-9-4-12-1-57 48-109 1-111-1-2-2-4-3-7-3z m95-27c-3 0-4 1-6 3-28 24-49 1-50 0-3-4-9-4-13 0-3 3-4 8-1 12 12 13 43 30 75 1 4-3 4-9 1-13-1-1-4-3-6-3z"/>
<glyph glyph-name="handy-icon-right-arrow" unicode="&#77;" d="M391 257l-255 255-13-13 243-242-245-244 13-13 244 244z"/>
<glyph glyph-name="handy-icon-right-bracket" unicode="&#78;" d="M223 483l0 15 66 0 0-484-66 0 0 15 51 0 0 454z"/>
<glyph glyph-name="handy-icon-service" unicode="&#79;" d="M256 0c-141 0-256 115-256 256 0 141 115 256 256 256 141 0 256-115 256-256 0-141-115-256-256-256z m0 493c-130 0-237-107-237-237 0-130 107-237 237-237 130 0 237 107 237 237 0 130-107 237-237 237z m158-297l-316 0c-3 0-6 1-8 3-1 2-3 5-3 7 2 94 77 170 169 170 92 0 167-76 169-170 0-2-1-5-3-7-2-2-5-3-8-3z m-7 10z m-302 8l301 0c-4 80-70 144-150 144-80 0-146-64-151-144z m265-44l-228 0c-4 0-8 4-8 8l0 27c0 5 4 9 8 9l228 0c4 0 8-4 8-9l0-27c0-4-4-8-8-8z m-219 17l210 0 0 9-210 0z m259-53l-308 0c-8 0-15 6-15 14l0 20c0 8 7 14 15 14l308 0c8 0 14-6 14-14l0-20c1-8-6-14-14-14z m-305 17l302 0 0 14-302 0z m22 83c-1 0-1 0-1 0-5 0-8 5-7 10 11 45 47 83 93 97 5 1 10-2 11-6 2-5-1-9-5-11-40-11-72-45-80-83-3-5-7-7-11-7z m129 126c-5 0-9 4-9 9l0 16c0 5 4 9 9 9 5 0 9-4 9-9l0-16c0-5-4-9-9-9z m30 20l-60 0c-5 0-9 4-9 9 0 5 4 9 9 9l60 0c5 0 9-4 9-9 0-5-4-9-9-9z"/>
<glyph glyph-name="handy-icon-simcard" unicode="&#80;" d="M256 0c-141 0-256 115-256 256 0 141 115 256 256 256 141 0 256-115 256-256 0-141-115-256-256-256z m0 493c-130 0-237-107-237-237 0-130 107-237 237-237 130 0 237 107 237 237 0 130-107 237-237 237z m90-384l-180 0c-4 0-8 4-8 9l0 224c0 2 0 4 2 5l46 53c2 2 4 3 7 3l133 0c4 0 8-4 8-9l0-276c0-5-4-9-8-9z m-171 17l163 0 0 260-120 0-42-48 0-212z m141 9l-120 0c-5 0-9 4-9 9l0 102c0 4 4 8 9 8l121 0c5 0 9-4 9-8l0-102c-1-5-5-9-10-9z m-111 18l103 0 0 84-103 0z"/>
<glyph glyph-name="handy-icon-social-bh" unicode="&#81;" d="M235 257c7 4 13 8 17 12 6 8 10 18 10 31 0 13-3 24-9 33-11 15-30 22-56 23l-107 0 0-214 98 0c11 0 22 0 30 3 10 1 18 5 25 10 7 5 11 11 15 17 7 10 10 22 10 34 0 12-3 24-9 32-5 8-13 15-24 19z m-101 62l47 0c10 0 19-1 25-3 8-3 12-10 12-20 0-9-3-15-8-19-6-3-14-6-24-6l-52 0z m74-136c-6-2-13-4-22-4l-53 0 0 57 53 0c10 0 17-2 22-4 10-4 14-12 14-23 0-12-4-21-14-26z m107 163l93 0 0-26-93 0z m112-72c-7 10-17 18-28 23-11 5-24 7-37 7-24 0-43-7-58-22-14-14-22-36-22-63 0-29 8-50 24-63 16-13 36-19 57-19 26 0 47 8 61 23 10 10 14 19 15 29l-43 0c-2-5-6-8-9-11-5-5-13-8-23-8-9 0-17 2-23 6-11 6-16 18-17 34l117 0c0 13 0 24-2 31-1 13-5 24-12 33z m-101-37c1 10 5 18 11 25 5 6 14 8 25 8 9 0 18-3 24-8 7-6 11-15 12-25z"/>
<glyph glyph-name="handy-icon-social-bh-circle" unicode="&#82;" d="M204 270l-39 0 0 34 35 0c7 0 14 1 18-1 6-2 8-6 8-13 0-7-2-12-6-15-4-2-10-5-16-5z m25-40c0-10-3-16-11-19-4-1-8-2-15-2l-39 0 0 41 39 0c7 0 12-2 15-4 8-2 11-8 11-16z m27 282c-142 0-256-114-256-256 0-142 114-256 256-256 142 0 256 114 256 256 0 142-114 256-256 256z m37-188l67 0 0-20-67 0z m-39-121c-3-5-6-9-10-12-5-4-10-6-18-7-6-2-13-2-21-2l-67 0 0 149 72 0c18 0 32-5 39-15 5-6 7-14 7-22 0-9-2-16-7-22-3-3-7-6-11-9 8-3 13-7 17-13 4-7 6-14 6-22 1-10-2-18-7-25z m129 27l-82 0c1-14 4-20 12-24 5-3 9-4 16-4 6 0 12 3 16 6 2 2 4 2 6 9l31 0c-1-7-5-15-12-21-10-10-24-17-42-17-15 0-28 5-40 14-11 9-18 24-18 45 0 19 5 34 16 44 10 10 24 15 40 15 9 0 18-2 26-5 8-3 14-9 19-17 5-6 8-14 9-23 3-6 3-15 3-22z m-56 43c-7 0-13-2-17-7-4-4-8-9-8-16l51 0c-1 6-3 12-8 16-5 5-11 7-18 7z"/>
<glyph glyph-name="handy-icon-social-bh-circle-s" unicode="&#83;" d="M238 262c5 3 9 6 12 8 4 6 6 13 6 22 0 9-2 16-6 22-8 11-20 16-39 16l-71 0 0-145 66 0c8 0 15 1 21 1 7 2 12 4 17 8 4 3 8 7 10 11 4 7 7 14 7 23 0 8-2 15-6 22-3 6-9 10-17 12z m-68 43l32 0c7 0 12-1 17-3 6-2 8-6 8-13 0-7-1-11-5-13-4-2-9-3-16-3l-36 0 0 32z m51-92c-3-2-9-3-15-3l-36 0 0 39 36 0c6 0 11-1 14-3 6-3 10-8 10-15 0-9-3-15-9-18z m72 110l63 0 0-18-63 0z m76-49c-5 8-11 13-19 16-7 4-16 5-25 5-16 0-29-5-39-15-10-10-16-24-16-42 0-20 6-35 17-44 11-8 24-12 39-12 17 0 31 5 40 16 7 6 10 12 11 19l-29 0c-2-3-4-6-6-7-4-4-9-5-16-5-6 0-11 1-16 4-7 4-11 12-11 22l79 0c0 10 0 16 0 22-2 7-5 15-9 21z m-69-25c1 7 3 13 7 17 4 4 10 6 17 6 6 0 12-2 17-6 5-4 7-9 7-16l-48 0z m-44-249c-141 0-256 115-256 256 0 141 115 256 256 256 141 0 256-115 256-256 0-141-115-256-256-256z m0 493c-130 0-237-107-237-237 0-130 107-237 237-237 130 0 237 107 237 237 0 130-107 237-237 237z"/>
<glyph glyph-name="handy-icon-social-dr" unicode="&#84;" d="M418 315c-4 11-9 21-16 30-6 9-13 18-21 26-8 8-17 15-27 22-9 6-19 12-29 16-11 5-22 8-33 10-11 3-23 4-35 4-12 0-24-1-35-4-12-2-23-5-33-10-11-5-21-10-30-16-9-7-18-14-26-22-8-8-15-17-22-26-6-10-12-19-16-30-5-10-8-21-10-33-3-11-3-23-3-35 0-12 1-24 3-35 2-11 5-22 10-33 4-10 10-21 16-29 7-10 14-19 22-27 8-8 17-15 26-21 10-7 19-12 30-16 10-5 21-8 33-11 11-2 23-4 35-4 12 0 24 2 35 4 11 3 22 6 33 11 10 4 21 9 29 16 10 6 19 13 27 21 8 8 15 17 21 27 7 9 12 19 16 29 5 11 8 22 11 33 2 11 3 23 3 35 0 12-2 24-3 35-3 12-7 22-11 33z m-162 82c38 0 73-15 99-38 0-1-21-33-78-54-26 47-54 85-56 88 11 2 23 4 35 4z m-36-4c0 0 0-1 0 0 0-1 0 0 0 0z m-28-11c2-2 30-40 56-86-72-19-135-18-139-18 9 46 41 84 83 104z m-48-236c-24 27-38 62-38 101 0 2 0 3 0 5 2 0 76-2 154 22 4-9 9-17 12-26-2-1-4-1-6-2-80-27-122-100-122-100z m112-50c-35 0-68 12-94 33 0 1 0 1-1 1 1 0 1 0 1-1 1-1 2-1 2-1 0 0 29 63 118 94 0 0 0 0 0 0 21-56 30-101 32-115-17-6-37-11-58-11z m84 26c-2 8-10 52-30 107 49 8 91-6 94-7-6-41-30-77-64-100z m-38 131c-1 2-3 5-4 8-3 7-6 14-9 21 59 24 83 60 84 60 21-26 33-59 34-94-3 1-53 11-105 5z"/>
<glyph glyph-name="handy-icon-social-dr-circle" unicode="&#85;" d="M153 278c7 33 29 60 58 74 2-2 21-28 39-61-51-13-95-13-97-13z m25-92c-17 19-28 44-28 71 0 1 0 2 0 3 2 0 55-2 109 15 3-5 6-12 9-17-2-1-2-1-4-2-58-18-86-70-86-70z m96 54c16-38 21-71 23-80-13-6-27-9-41-9-25 0-47 8-65 23 0 0 20 44 83 66 0-1 0-1 0 0z m-4 58c-18 32-37 59-39 61 8 2 16 3 25 3 26 0 51-9 70-26 0-1-16-23-56-38z m90-58c-5-30-22-55-46-71 0 6-6 37-20 75 35 6 64-3 66-4z m-22 84c15-18 24-41 24-66-2 0-38 8-74 3-1 1-2 3-2 5-3 5-5 11-8 16 43 17 60 41 60 42z m-82 188c-142 0-256-114-256-256 0-142 114-256 256-256 142 0 256 114 256 256 0 142-114 256-256 256z m121-280c-2-8-4-16-7-23-4-7-8-15-12-21-4-6-9-13-15-18-5-6-12-11-18-16-7-4-14-8-21-11-7-3-15-5-23-7-8-2-17-2-25-2-9 0-17 0-25 2-8 2-16 4-23 7-7 3-14 7-21 11-6 5-13 10-18 16-6 5-11 12-15 18-5 6-8 14-12 21-3 7-5 15-7 23-1 8-2 17-2 25 0 8 1 17 2 25 2 8 4 16 7 23 4 7 8 14 12 21 4 6 9 12 15 18 5 6 12 10 18 15 7 5 14 8 21 11 7 4 15 6 23 8 8 1 17 2 25 2 8 0 17-1 25-2 8-2 16-4 23-8 7-3 14-7 21-11 6-5 13-9 18-15 6-6 11-12 15-18 5-7 8-14 12-21 3-7 5-15 7-23 1-8 2-17 2-25 1-9 0-17-2-25z"/>
<glyph glyph-name="handy-icon-social-dr-circle-s" unicode="&#86;" d="M366 303c-4 7-7 14-12 20-4 7-8 12-14 18-6 5-11 10-18 14-6 4-12 8-20 11-7 4-14 6-22 8-8 1-16 2-24 2-8 0-16-1-24-2-8-2-15-4-22-8-8-3-14-6-20-11-7-4-12-9-18-14-6-6-10-11-14-18-4-6-8-13-12-20-3-7-5-14-7-22-1-8-2-16-2-24 0-8 1-16 2-24 2-8 4-15 7-23 4-7 7-13 12-20 4-6 8-12 14-17 6-6 11-11 18-15 6-4 12-8 20-11 7-3 14-5 22-7 8-2 16-2 24-2 8 0 16 0 24 2 8 2 15 4 22 7 8 3 14 7 20 11 7 4 12 9 18 15 6 5 10 11 14 17 4 7 8 13 12 20 3 8 5 15 7 23 1 8 2 16 2 24 0 8-1 16-2 24-2 7-4 15-7 22z m-110 55c26 0 49-9 67-25 0 0-14-23-53-37-17 32-36 58-37 59 7 3 15 3 23 3z m-24-3c0 0-1 0 0 0-1 0-1 0 0 0z m-19-6c1-2 20-27 37-59-48-12-91-12-93-12 6 31 27 57 56 71z m-32-160c-16 18-27 41-27 68 0 1 0 2 0 3 2 0 52-1 104 14 4-5 6-11 8-17-1 0-2-1-4-2-54-17-81-66-81-66z m75-34c-24 0-46 8-63 23 0 0-1 0-2 0 1 0 1 0 2 0 1-1 1-1 1-1 0 0 19 42 80 63 0 0 0 0 0 0 15-37 20-68 22-77-13-5-26-8-40-8z m57 18c-1 6-7 36-20 73 33 5 61-4 63-5-4-29-21-53-43-68z m-26 88c-1 1-1 3-2 5-3 5-4 10-7 15 40 16 56 40 57 40 15-18 23-39 23-63-2 0-36 8-71 3z m-31-261c-141 0-256 115-256 256 0 141 115 256 256 256 141 0 256-115 256-256 0-141-115-256-256-256z m0 493c-130 0-237-107-237-237 0-130 107-237 237-237 130 0 237 107 237 237 0 130-107 237-237 237z"/>
<glyph glyph-name="handy-icon-social-fb" unicode="&#87;" d="M432 90c0-11-9-20-19-20l-90 0 0 136 46 0 7 53-53 0 0 34c0 15 4 25 27 25l28 0 0 48c-5 0-22 2-41 2-41 0-69-25-69-70l0-40-46 0 0-52 46 0 0-137-169 0c-10 0-19 9-19 19l0 315c0 11 9 19 19 19l314 0c10 0 19-8 19-19z"/>
<glyph glyph-name="handy-icon-social-fb-circle" unicode="&#88;" d="M256 512c-142 0-256-114-256-256 0-142 114-256 256-256 142 0 256 114 256 256 0 142-114 256-256 256z m125-364c0-7-4-15-11-15l-64 0 0 93 32 0 5 41-37 0 0 24c0 11 4 16 19 16l22 0 0 35c-6 1-17 2-31 2-29 0-50-18-50-50l0-28-34 0 0-40 34 0 0-95-117 0c-7 0-11 8-11 15l0 222c0 7 4 14 11 14l220 0c7 0 11-7 11-14l0-220z"/>
<glyph glyph-name="handy-icon-social-fb-circle-s" unicode="&#89;" d="M256 0c-141 0-256 115-256 256 0 141 115 256 256 256 141 0 256-115 256-256 0-141-115-256-256-256z m0 493c-130 0-237-107-237-237 0-130 107-237 237-237 130 0 237 107 237 237 0 130-107 237-237 237z m117-339c0-7-6-12-13-12l-61 0 0 92 31 0 5 36-35 0 0 23c0 10 3 17 18 17l19 0 0 32c-3 1-15 2-28 2-27 0-47-17-47-47l0-27-31 0 0-36 31 0 0-92-114 0c-7 0-13 6-13 13l0 211c0 8 6 13 13 13l212 0c7 0 13-5 13-13z"/>
<glyph glyph-name="handy-icon-social-gp" unicode="&#90;" d="M186 281l0-49c0 0 47 0 66 0-10-32-26-49-66-49-40 0-72 33-72 74 0 41 31 73 72 73 21 0 35-7 48-17 10 10 9 11 35 36-22 20-51 32-83 32-68 0-123-55-123-123 0-68 55-124 123-124 102 0 127 89 119 148l-119 0z m221-3l0 43-30 0 0-43-44 0 0-31 44 0 0-44 30 0 0 44 43 0 0 31z"/>
<glyph glyph-name="handy-icon-social-gp-circle" unicode="&#48;" d="M256 512c-142 0-256-114-256-256 0-142 114-256 256-256 142 0 256 114 256 256 0 142-114 256-256 256z m-50-346c-48 0-86 40-86 88 0 48 38 87 86 87 23 0 44-8 59-23-19-16-18-17-25-24-9 7-18 12-34 12-28 0-50-23-50-51 0-28 22-53 50-53 28 0 40 12 47 32-14 0-46 0-46 0l0 34 82 0c6-41-11-102-83-102z m184 81l-28 0 0-33-20 0 0 33-33 0 0 20 33 0 0 27 20 0 0-27 28 0z"/>
<glyph glyph-name="handy-icon-social-gp-circle-s" unicode="&#49;" d="M256 0c-141 0-256 115-256 256 0 141 115 256 256 256 141 0 256-115 256-256 0-141-115-256-256-256z m0 493c-130 0-237-107-237-237 0-130 107-237 237-237 130 0 237 107 237 237 0 130-107 237-237 237z m-50-219l0-32c0 0 32 0 45 0-7-22-17-33-45-33-27 0-48 22-48 49 0 28 21 50 48 50 15 0 24-5 32-12 8 7 7 8 24 24-14 14-34 22-56 22-45 0-83-38-83-84 0-45 38-83 83-83 69 0 86 60 80 100l-80 0z m150-1l0 29-21 0 0-29-29 0 0-21 29 0 0-30 21 0 0 30 29 0 0 21z"/>
<glyph glyph-name="handy-icon-social-ig-circle" unicode="&#51;" d="M215 256c0 26 22 47 47 47 27 0 48-21 48-47 0-26-21-47-48-47-25 0-47 21-47 47z m139 62c0-4-4-8-8-8l-25 0c-4 0-8 4-8 8l0 25c0 4 3 8 8 8l25 0c4 0 8-3 8-8z m-22-41l28 0 0-113c0-4-1-9-5-9l-185 0c-4 0-5 4-5 9l0 113 28 0c-4 0-6-15-6-22 0-41 34-74 75-74 42 0 76 33 76 73 0 8-1 23-6 23z m-76 235c-142 0-256-114-256-256 0-142 114-256 256-256 142 0 256 114 256 256 0 142-114 256-256 256z m131-350c0-16-14-27-30-27l-189 0c-16 0-30 11-30 27l0 189c0 16 14 27 30 27l189 0c16 0 30-11 30-27z"/>
<glyph glyph-name="handy-icon-social-ig-circle-s" unicode="&#52;" d="M353 375l-182 0c-16 0-28-13-28-28l0-181c0-16 13-28 28-28l182 0c16 0 28 12 28 28l0 181c0 16-12 28-28 28z m-39-37c0 4 4 8 8 8l22 0c4 0 7-4 7-8l0-22c0-4-3-7-7-7l-22 0c-4 0-8 3-8 7z m-52-36c26 0 46-21 46-46 0-26-21-46-46-46-25 0-45 21-45 46 0 26 21 46 45 46z m97-135c0-4-3-7-7-7l-179 0c-4 0-7 3-7 7l0 112 29 0c-4-5-5-16-5-22 0-40 33-72 72-72 40 0 72 32 72 72 0 6 0 17-5 22l29 0 0-112z m-103-167c-141 0-256 115-256 256 0 141 115 256 256 256 141 0 256-115 256-256 0-141-115-256-256-256z m0 493c-130 0-237-107-237-237 0-130 107-237 237-237 130 0 237 107 237 237 0 130-107 237-237 237z"/>
<glyph glyph-name="handy-icon-social-in" unicode="&#53;" d="M88 304l69 0 0-218-69 0z m258 2c-40 0-64-21-69-36l0 34-78 0c1-18 0-218 0-218l78 0 0 118c0 6 0 13 1 18 6 12 17 26 38 26 27 0 39-20 39-50l0-112 79 0 0 121c-1 68-40 99-88 99z m-225 101c-26 0-43-16-43-37 0-21 16-38 41-38l1 0c26 0 42 17 42 38 0 21-16 37-41 37z"/>
<glyph glyph-name="handy-icon-social-in-circle" unicode="&#54;" d="M256 512c-142 0-256-114-256-256 0-142 114-256 256-256 142 0 256 114 256 256 0 142-114 256-256 256z m-64-370l-47 0 0 155 47 0z m-26 168c-18 0-30 14-30 28 0 16 12 28 30 28 17 0 28-13 29-28 0-15-11-28-29-28z m221-168l-61 0 0 79c0 21-7 35-25 35-15 0-23-10-27-19-1-3-1-8-1-13l0-82-52 0c0 0 1 141 0 155l52 0 0-27c6 11 23 26 50 26 35 0 64-22 64-70z"/>
<glyph glyph-name="handy-icon-social-in-circle-s" unicode="&#55;" d="M146 294l47 0 0-148-47 0z m175 0c-27 0-43-14-47-24l0 23-52 0c1-12 0-148 0-148l52 0 0 80c0 5 0 9 1 12 4 9 11 18 26 18 18 0 26-13 26-33l0-77 53 0 0 83c0 46-26 66-59 66z m-152 69c-18 0-29-11-29-25 0-15 11-26 28-26 18 0 29 11 29 26 0 14-11 25-28 25z m87-363c-141 0-256 115-256 256 0 141 115 256 256 256 141 0 256-115 256-256 0-141-115-256-256-256z m0 493c-130 0-237-107-237-237 0-130 107-237 237-237 130 0 237 107 237 237 0 130-107 237-237 237z"/>
<glyph glyph-name="handy-icon-social-ta" unicode="&#56;" d="M164 238c0-10-8-17-17-17-9 0-17 7-17 17 0 9 8 16 17 16 9 0 17-7 17-16z m211 0c0-10-7-17-17-17-9 0-16 7-16 17 0 9 7 16 16 16 10 0 17-7 17-16z m-225 50c-28 0-52-22-52-51 0-28 23-51 52-51 28 0 51 22 51 51 0 29-23 51-51 51z m0-86c-20 0-36 16-36 36 0 19 16 35 36 35 19 0 35-16 35-35 0-20-15-36-35-36z m316 139l-70 0c-36 24-85 39-141 39-56 0-108-15-144-39l-65 0c10-13 18-31 20-43-12-17-20-38-20-61 0-58 48-105 105-105 33 0 63 15 82 39 8-9 21-28 23-33 0 0 15 23 23 33 19-24 49-38 82-38 57 0 105 47 105 105 0 23-8 44-20 61 2 11 10 29 20 42z m-315-188c-46 0-85 37-85 85 0 46 38 84 85 84 47 0 85-37 85-84-1-48-38-85-85-85z m0 189c31 13 67 20 105 20 38 0 71-7 102-20-57-1-102-48-102-104 0 57-47 104-105 104z m210-189c-47 0-85 37-85 85 0 46 38 84 85 84 46 0 85-37 85-84 0-48-39-85-85-85z m0 136c-28 0-51-23-51-51 0-28 22-52 51-52 28 0 51 23 51 52 0 28-23 51-51 51z m0-87c-19 0-35 16-35 36 0 19 16 35 35 35 19 0 35-16 35-35 0-20-16-36-35-36z"/>
<glyph glyph-name="handy-icon-social-ta-circle" unicode="&#57;" d="M335 269c-14 0-26-12-26-27 0-14 12-26 26-26 15 0 27 12 27 26 0 15-12 27-27 27z m-2-39c-7 0-13 5-13 12 0 8 6 13 13 13 7 0 13-5 13-13 0-7-6-12-13-12z m0 91c-23 9-48 15-77 15-28 0-56-6-79-15 44 0 79-35 79-79 0 43 34 77 77 79z m-156-15c-35 0-64-29-64-64 0-36 29-64 64-64 35 0 64 28 64 64 0 35-29 64-64 64z m-1-102c-22 0-38 17-38 38 0 22 16 39 38 39 22 0 38-17 38-39 0-21-17-38-38-38z m0 65c-14 0-26-12-26-27 0-14 12-26 26-26 14 0 26 12 26 26 0 15-12 27-26 27z m-2-40c-7 0-12 5-12 13 0 7 5 12 12 12 8 0 13-5 13-12 0-7-6-13-13-13z m161 77c-35 0-64-29-64-64 0-36 29-64 64-64 35 0 64 28 64 64-1 35-29 64-64 64z m0-102c-21 0-38 17-38 38 0 22 17 39 38 39 21 0 39-17 39-39 0-21-18-38-39-38z m-79 308c-142 0-256-114-256-256 0-142 114-256 256-256 142 0 256 114 256 256 0 142-114 256-256 256z m158-270c0-44-35-80-79-80-25 0-47 12-61 29-7-8-18-25-18-25-2 4-12 18-18 25-14-17-36-29-61-29-44 0-79 35-79 79 0 17 5 33 15 46-2 9-7 22-16 31l50 0c27 19 67 30 109 30 42 0 79-11 106-30l53 0c-8-9-14-22-16-31 10-12 15-28 15-45z"/>
<glyph glyph-name="handy-icon-social-ta-circle-s" unicode="&#33;" d="M256 0c-141 0-256 115-256 256 0 141 115 256 256 256 141 0 256-115 256-256 0-141-115-256-256-256z m0 493c-130 0-237-107-237-237 0-130 107-237 237-237 130 0 237 107 237 237 0 130-107 237-237 237z m-69-251c0-7-6-12-13-12-7 0-12 5-12 12 0 7 5 13 12 13 7 0 13-6 13-13z m159 0c0-7-6-12-13-12-7 0-13 5-13 12 0 7 6 13 13 13 7 0 13-6 13-13z m-170 39c-22 0-38-17-38-39 0-21 16-38 38-38 22 0 38 17 38 38 0 21-17 39-38 39z m0-66c-14 0-26 12-26 27 0 14 12 26 26 26 14 0 26-12 26-26 0-15-12-27-26-27z m239 105l-53 0c-27 18-64 30-106 30-42 0-82-12-109-30l-50 0c8-10 14-22 16-31-10-13-15-29-15-47 0-44 35-79 79-79 25 0 47 11 61 30 6-7 16-21 18-25 0 0 11 17 18 25 14-18 36-29 61-29 44 0 79 35 79 79 0 18-5 34-15 47 2 7 7 20 16 30z m-238-142c-35 0-64 29-64 64 0 36 29 64 64 64 35 0 64-28 64-64 0-36-29-64-64-64z m0 143c23 9 51 15 79 15 28 0 54-6 77-15-43-2-77-36-77-79 0 44-35 79-79 79z m158-143c-35 0-64 29-64 64 0 36 29 64 64 64 35 0 64-28 64-64-1-36-29-64-64-64z m0 103c-21 0-38-17-38-39 0-20 17-38 38-38 21 0 39 17 39 38 0 21-18 39-39 39z m0-66c-14 0-26 12-26 27 0 14 12 26 26 26 15 0 27-12 27-26 0-15-12-27-27-27z"/>
<glyph glyph-name="handy-icon-social-tw" unicode="&#34;" d="M426 390c-15-8-31-15-48-18-13 14-32 24-53 24-41 0-74-34-74-76 0-6 1-12 2-18-62 4-116 34-152 80-7-12-10-24-10-39 0-26 13-49 33-63-12 0-23 4-34 10l0-1c0-37 26-67 60-75-7-1-13-2-20-2-4 0-9 1-13 2 9-31 37-52 69-53-26-20-57-32-92-32-6 0-12 0-18 1 33-22 71-34 113-34 136 0 209 115 209 215 0 3 0 7 0 10 15 10 28 24 37 39-13-6-27-10-42-12 16 10 27 25 33 42z"/>
<glyph glyph-name="handy-icon-social-tw-circle" unicode="&#35;" d="M256 512c-142 0-256-114-256-256 0-142 114-256 256-256 142 0 256 114 256 256 0 142-114 256-256 256z m98-202c0-2 0-4 0-7 0-70-52-151-148-151-29 0-56 9-79 24 4-1 8-1 12-1 24 0 47 9 64 23-22 0-41 16-49 36 4 0 7 0 10 0 5 0 10 0 14 1-24 5-40 27-40 52l0 1c6-4 14-6 23-6-14 9-23 25-23 44 0 9 2 19 7 26 25-32 64-54 106-55-1 4-1 8-1 12 0 29 23 53 52 53 15 0 28-7 37-17 12 2 23 6 33 13-4-12-12-22-22-28 10 1 20 4 29 8-7-11-16-20-25-28z"/>
<glyph glyph-name="handy-icon-social-tw-circle-s" unicode="&#36;" d="M368 355c-10-5-20-10-32-12-9 10-22 16-36 16-27 0-50-23-50-51 0-4 1-8 2-12-42 2-78 22-102 54-4-8-7-16-7-26 0-18 9-34 23-42-8 0-16 2-23 6l0-1c0-25 17-45 40-50-4-1-9-2-13-2-3 0-6 0-9 1 6-20 25-35 46-35-17-14-38-22-61-22-4 0-8 0-12 1 22-14 48-23 76-23 92 0 142 77 142 145 0 3 0 5 0 7 10 7 18 16 25 26-9-4-19-7-29-8 8 6 16 16 20 28z m-112-355c-141 0-256 115-256 256 0 141 115 256 256 256 141 0 256-115 256-256 0-141-115-256-256-256z m0 493c-130 0-237-107-237-237 0-130 107-237 237-237 130 0 237 107 237 237 0 130-107 237-237 237z"/>
<glyph glyph-name="handy-icon-social-vi" unicode="&#37;" d="M381 397c-49 1-83-26-99-81 8 4 17 6 26 6 18 0 26-10 24-30-1-12-9-30-24-52-14-23-26-34-33-34-9 0-18 17-26 52-3 11-7 37-15 80-6 40-23 59-50 56-11-1-29-12-52-32-17-15-34-30-51-45l17-21c16 11 24 17 28 17 12 0 23-19 33-56 10-35 19-69 29-103 14-38 31-56 52-56 32-2 72 29 120 90 46 58 70 105 72 139 2 46-15 69-51 70z"/>
<glyph glyph-name="handy-icon-social-vi-circle" unicode="&#38;" d="M256 512c-142 0-256-114-256-256 0-142 114-256 256-256 142 0 256 114 256 256 0 142-114 256-256 256z m74-298c-34-43-63-64-86-64-14 0-26 12-37 39-6 24-13 48-20 72-7 26-15 39-24 39-1 0-8-4-19-11l-11 15c12 10 24 21 36 32 16 14 28 21 37 22 19 1 31-12 35-40 5-30 8-48 9-56 6-24 12-37 19-37 5 0 13 8 23 24 10 16 16 28 17 37 1 13-4 20-17 20-6 0-12-1-18-4 12 40 35 59 69 57 26-1 38-17 36-49-1-22-17-55-49-96z"/>
<glyph glyph-name="handy-icon-social-vi-circle-s" unicode="&#39;" d="M340 357c-33 1-55-18-67-55 6 2 12 4 17 4 12 0 18-7 16-20 0-8-6-20-16-36-9-15-17-23-22-23-6 0-12 12-18 36-1 7-4 25-9 54-4 26-16 39-35 37-8 0-19-8-35-20-11-11-23-20-34-31l11-14c10 7 17 11 18 11 8 0 16-13 24-38 6-23 12-46 19-69 9-26 21-38 35-38 22 0 50 21 82 63 32 40 48 71 49 93 1 29-10 45-35 46z m-84-357c-141 0-256 115-256 256 0 141 115 256 256 256 141 0 256-115 256-256 0-141-115-256-256-256z m0 493c-130 0-237-107-237-237 0-130 107-237 237-237 130 0 237 107 237 237 0 130-107 237-237 237z"/>
<glyph glyph-name="handy-icon-social-yt" unicode="&#40;" d="M76 229c0 18 0 37 0 54 0 1 0 3 1 3 1 8 1 16 1 24 1 12 3 25 7 37 5 16 17 27 33 30 11 2 22 3 32 3 21 1 43 2 64 2 32 0 65 0 99 0 26 0 53-1 80-4 19-3 33-16 38-36 3-13 5-26 6-40 0-5 1-11 1-16 0-19 0-37 0-55 0-1 0-3-1-4-1-7-1-15-2-22-1-13-2-25-6-37-6-15-17-26-33-29-8-1-17-2-25-2-22-1-45-3-68-3-32 0-64 0-96 0-22 0-45 2-68 4-9 0-18 0-27 4-15 6-24 17-28 32-3 15-5 29-6 44-1 1-2 6-2 11z m134-29c38 20 76 39 114 59-38 20-77 40-114 60 0-40 0-79 0-119z"/>
<glyph glyph-name="handy-icon-social-yt-circle" unicode="&#41;" d="M256 512c-142 0-256-114-256-256 0-142 114-256 256-256 142 0 256 114 256 256 0 142-114 256-256 256z m-139-278c0 15 0 28 0 43 0 1 0 1 0 2 0 6 1 12 1 18 0 9 1 19 4 29 4 12 13 20 26 22 8 2 17 2 25 2 16 1 33 2 49 2 25 0 51 0 76 0 21 0 41-1 62-3 14-2 26-12 30-27 2-11 3-21 4-32 0-4 0-8 0-13 0-15 0-28 0-43 0 0 0-2 0-3 0-5 0-12 0-17-1-10-2-20-5-29-5-12-13-20-26-23-6-1-13-1-19-2-18-1-35-2-53-2-25 0-49 0-74 0-18 0-35 1-53 2-7 1-14 1-21 3-12 5-18 14-21 26-3 11-4 22-4 33 0 5-1 9-1 12z m103-21c30 15 58 30 89 45-30 16-59 32-89 47 0-31 0-61 0-92z"/>
<glyph glyph-name="handy-icon-social-yt-circle-s" unicode="&#42;" d="M117 234c0 15 0 28 0 43 0 1 0 1 0 2 0 6 1 12 1 18 0 9 1 19 4 29 4 12 13 20 26 22 8 2 17 2 25 2 16 1 33 2 49 2 25 0 51 0 76 0 21 0 41-1 62-3 14-2 26-12 30-27 2-11 3-21 4-32 0-4 0-8 0-13 0-15 0-28 0-43 0 0 0-2 0-3 0-5 0-12 0-17-1-10-2-20-5-29-5-12-13-20-26-23-6-1-13-1-19-2-18-1-35-2-53-2-25 0-49 0-74 0-18 0-35 1-53 2-7 1-14 1-21 3-12 5-18 14-21 26-3 11-4 22-4 33 0 5-1 9-1 12z m103-21c30 15 58 30 89 45-30 16-59 32-89 47 0-31 0-61 0-92z m36-213c-141 0-256 115-256 256 0 141 115 256 256 256 141 0 256-115 256-256 0-141-115-256-256-256z m0 493c-130 0-237-107-237-237 0-130 107-237 237-237 130 0 237 107 237 237 0 130-107 237-237 237z"/>
<glyph glyph-name="handy-icon-support" unicode="&#43;" d="M256 0c-141 0-256 115-256 256 0 141 115 256 256 256 141 0 256-115 256-256 0-141-115-256-256-256z m0 493c-130 0-237-107-237-237 0-130 107-237 237-237 130 0 237 107 237 237 0 130-107 237-237 237z m18-390c0 0 0 0 0 0-3 0-85 2-135 60-32 37-43 88-33 152 0 5 4 8 9 7l60-8c4 0 7-4 8-8l3-52c0-3 0-5-3-8l-21-16 44-59 21 16c3 2 6 3 8 2l49-19c4-1 6-5 6-9l-7-51c-1-4-5-7-9-7z m-152 201c-7-54 4-98 30-130 36-42 94-51 114-53l4 36-37 13-24-18c-4-3-10-2-12 2l-55 72c-1 2-1 4-1 7 0 2 1 4 3 5l24 19-2 40z m193-85c-16 0-32 4-46 12-4 2-24 1-43-1-4-1-8 0-9 4-2 3-2 6 0 9 6 11 13 21 14 26-7 13-11 29-11 45 0 52 42 95 94 95 52 0 95-43 95-95 1-52-41-95-94-95z m-57 31c8 0 16-1 20-4 11-6 24-9 37-9 43 0 77 34 77 77 0 42-34 76-77 76-42 0-77-34-77-76 0-14 4-28 11-40 1-3 4-7-7-26 5 2 11 2 16 2z m-24 16z m103 73l-43 0c-5 0-9 4-9 9 0 5 4 9 9 9l43 0c5 0 9-4 9-9 0-5-4-9-9-9z m0-71l-43 0c-5 0-9 4-9 9 0 5 4 9 9 9l43 0c5 0 9-4 9-9 0-5-4-9-9-9z m24 35l-91 0c-5 0-9 4-9 9 0 5 4 9 9 9l91 0c5 0 9-4 9-9 0-5-4-9-9-9z"/>
<glyph glyph-name="handy-icon-ticket" unicode="&#45;" d="M256 0c-141 0-256 115-256 256 0 141 115 256 256 256 141 0 256-115 256-256 0-141-115-256-256-256z m0 493c-130 0-237-107-237-237 0-130 107-237 237-237 130 0 237 107 237 237 0 130-107 237-237 237z m-48-391c-3 0-6 1-8 4l-30 30c-2 2-3 4-3 6 0 3 1 5 3 7 2 2 4 6 4 9 0 4-2 8-4 10-3 2-7 4-10 4-4 0-7-2-10-4-1-2-4-2-6-2-2 0-5 0-6 2l-31 30c-4 4-4 12 0 16l45 45c4 4 11 4 16 0l8-8 4 4-8 8c-4 4-4 11 0 16l126 126c4 4 12 4 16 0l30-31c3-3 3-8 0-12-6-6-6-15 0-20 2-3 6-4 10-4 4 0 7 1 9 4 2 1 4 2 7 2 2 0 4-1 6-2l30-31c4-4 4-11 0-16l-125-125c-3-2-5-3-8-3-3 0-6 1-8 3l-8 8-4-4 8-8c2-2 3-4 3-8 0-3-1-5-3-8l-45-44c-2-3-6-4-8-4z m-21 41l21-21 36 36-10 10c-1 2-2 4-2 6 0 3 1 5 2 7l16 16c2 1 4 2 7 2 2 0 5-1 6-2l10-10 117 117-21 21c-5-3-10-4-15-4-9 0-17 3-23 9-10 11-12 26-5 38l-21 21-117-117 10-10c3-3 3-8 0-12l-16-16c-2-2-4-3-7-3-2 0-5 1-6 3l-10 9-36-36 21-21c5 3 10 4 15 4 9 0 17-3 23-9 5-6 9-14 9-23 0-5-1-10-4-15z m29 48c-2 0-4 1-6 3l-16 16c-3 3-3 8 0 11l16 16c2 1 4 2 6 2 2 0 4-1 6-2l16-16c1-2 2-3 2-6 0-2-1-4-2-5l-16-16c-2-2-4-3-6-3z m-5 24l5-5 5 5-5 5z"/>
<glyph glyph-name="handy-icon-trip-advisor-rating" unicode="&#46;" d="M256 488c128 0 232-104 232-232 0-128-104-232-232-232-128 0-232 104-232 232 0 128 104 232 232 232m0 24c-142 0-256-114-256-256 0-142 114-256 256-256 142 0 256 114 256 256 0 142-114 256-256 256z"/>
<glyph glyph-name="handy-icon-trip-advisor-rating-fill" unicode="&#47;" d="M256 489c128 0 232-104 232-232 0-128-104-232-232-232-128 0-232 104-232 232 0 128 104 232 232 232m0 24c-142 0-256-115-256-256 0-142 114-256 256-256 142 0 256 114 256 256 0 141-114 256-256 256z m180-257c0-99-81-180-180-180-99 0-180 81-180 180 0 99 81 180 180 180 99 0 180-81 180-180z"/>
<glyph glyph-name="handy-icon-user" unicode="&#58;" d="M256 0c-141 0-256 115-256 256 0 141 115 256 256 256 141 0 256-115 256-256 0-141-115-256-256-256z m0 493c-130 0-237-107-237-237 0-130 107-237 237-237 130 0 237 107 237 237 0 130-107 237-237 237z m112-375l-224 0c-2 0-5 1-6 3-2 1-3 4-3 6 1 67 55 120 121 120 66 0 120-53 121-120 0-2-1-5-3-6-1-2-4-3-6-3z m-214 18l205 0c-5 52-49 94-102 94-53 0-99-42-103-94z m102 94c-46 0-82 36-82 82 0 46 36 82 82 82 46 0 82-37 82-83 0-45-36-81-82-81z m0 146c-35 0-65-29-65-65 0-36 29-65 65-65 36 0 65 29 65 65 0 36-30 65-65 65z"/>
<glyph glyph-name="handy-icon-wifi" unicode="&#59;" d="M256 0c-141 0-256 115-256 256 0 141 115 256 256 256 141 0 256-115 256-256 0-141-115-256-256-256z m0 493c-130 0-237-107-237-237 0-130 107-237 237-237 130 0 237 107 237 237 0 130-107 237-237 237z m-133-186c-3 0-6 2-9 4-4 5-4 13 1 17 2 1 135 118 281 4 6-4 6-12 2-17-4-5-12-6-16-2-131 102-246 1-251-3-2-2-5-3-8-3z m46-54c-3 0-7 1-9 4-5 5-5 12 0 17 30 30 110 69 190 3 5-4 6-12 2-17-4-5-12-6-17-2-84 69-155 1-158-1-3-3-5-4-8-4z m34-58c-3 0-6 1-9 3-4 5-4 12 0 17 20 19 70 46 122 4 6-4 6-12 2-17-4-5-12-6-16-2-49 38-88-1-90-2-2-1-6-3-9-3z m79-40c0-14-12-25-26-25-14 0-26 11-26 25 0 14 12 26 26 26 14 0 26-12 26-26z"/>
<glyph glyph-name="handy-icon-wow" unicode="&#60;" d="M106 158c-4 0-8 3-8 7l-27 83-26-84c-1-4-5-6-9-6-4 0-7 3-8 6l-28 112c-1 5 2 10 6 10 5 2 10-1 12-6l20-81 25 81c1 4 5 6 8 6 4 0 7-2 8-6l25-79 18 79c1 5 6 8 11 6 5 0 8-5 6-10l-25-110c0-5-4-8-8-8z m276 0c-4 0-8 3-8 7l-27 83-26-83c-1-4-5-7-9-7-4 0-7 4-8 7l-28 111c-1 5 2 10 6 10 5 1 10-1 11-6l20-81 26 81c1 4 5 6 8 6 4 0 7-2 8-6l25-79 18 79c1 5 6 8 11 6 5 0 8-5 6-10l-25-110c0-5-4-8-8-8 0 0 0 0 0 0z m-174 0c-31 0-57 28-57 60 0 34 26 60 57 60 31 0 57-27 57-60 0-32-26-60-57-60z m0 103c-22 0-39-19-39-43 0-23 17-42 39-42 22 0 39 19 39 42 0 24-17 43-39 43z m254 17c-1 0-3 1-4 2-3 2-4 6-1 10l42 61c3 3 7 4 11 2 3-3 4-7 1-11l-42-60c-2-2-4-4-7-4z m-5-11c0-4-3-7-7-7-4 0-8 3-8 7 0 4 4 7 8 7 4 0 7-3 7-7z"/>
<glyph glyph-name="handy-icon-wow-1" unicode="&#61;" d="M256 0c-141 0-256 115-256 256 0 141 115 256 256 256 141 0 256-115 256-256 0-141-115-256-256-256z m0 493c-130 0-237-107-237-237 0-130 107-237 237-237 130 0 237 107 237 237 0 130-107 237-237 237z m-87-293c-4 0-7 2-8 6l-21 68-21-68c-1-4-5-6-9-6-4 0-7 3-8 6l-24 95c0 5 2 9 7 10 5 1 9-1 10-6l16-64 20 64c1 4 5 6 8 6 4 0 7-2 8-6l20-63 15 63c0 5 5 8 10 6 5-1 8-5 6-10l-21-94c0-4-3-7-8-7z m234 0c-4 0-7 2-8 6l-21 68-20-68c-2-4-5-6-9-6-4 0-7 3-8 6l-24 95c-1 5 1 9 6 10 5 1 10-1 11-6l16-64 20 64c0 4 4 6 8 6 4 0 7-2 8-6l20-63 14 63c1 5 6 8 10 6 5-1 8-5 7-10l-22-94c0-4-3-7-8-7 1 0 0 0 0 0z m-147 0c-27 0-50 23-50 53 0 29 23 53 50 53 27 0 50-24 50-53 0-30-23-53-50-53z m0 87c-18 0-32-16-32-35 0-19 14-35 32-35 18 0 32 16 32 35 0 19-14 35-32 35z"/>
<glyph glyph-name="handy-icon-ambitious" unicode="&#98;" d="M492 398l-39 103c-3 9-14 13-23 9l-152-56c-4-2-8-5-9-9-2-4-3-9 0-13l1-2c0 0 0 0-1 0l-111-40c-4-2-8-5-9-9-2-4-3-9 0-13l2-6-62-24c-1 0-1 0-2 0l-4 6c-3 9-13 13-22 10l-32-12c-4-2-8-5-10-9-1-4-2-9 0-13l29-73c2-6 9-11 16-11 2 0 4 0 6 1l32 12c4 1 8 5 9 9 2 4 3 8 0 12l-1 4c0 0 0 0 0 0l64 24 2-6c2-6 9-11 16-11 2 0 4 0 6 1l51 19 0-54-31-1c-4 0-6-4-6-8 0-4 3-6 6-6l24 1-108-223c-1-4 0-8 4-9 0-1 1-1 3-1 2 0 5 2 6 4l103 213 0-132c0-4 3-7 7-7 4 0 7 4 7 7l0 132 102-213c1-2 4-4 7-4 1 0 1 0 3 1 3 1 5 5 3 9l-110 226 21 1c4 0 6 3 6 7 0 4-3 6-7 6l-27 0 0 58 47 17c1 0 1 1 1 1 4-4 8-8 14-8 2 0 4 0 6 1l152 57c4 2 8 5 9 9 3 4 3 9 1 13z m-428-144l-28 72 30 12 28-72z m41 37l-11 31 62 24 11-29z m88 8l-28 74 109 41 29-73z m132 36l-39 103 151 57 39-103z"/>
<glyph glyph-name="handy-icon-bed" unicode="&#104;" d="M256 0c-141 0-256 115-256 256 0 141 115 256 256 256 141 0 256-115 256-256 0-141-115-256-256-256z m0 493c-130 0-237-107-237-237 0-130 107-237 237-237 130 0 237 107 237 237 0 130-107 237-237 237z m164-295c0 1 0 3-1 4l-38 93c0 10-1 19-1 28 0 10-1 19-1 28 0 4-2 8-6 10-30 15-78 32-137 28-38-3-74-12-107-30-4-1-7-5-7-9l0-55-32-94c0-1 0-2 0-3 0 0 0 0 0 0l-1-65c0-7 5-11 11-11l308 0c6 0 11 4 11 11z m-307 8l26 79 114 0c23 0 46 0 69 0 16 0 30 0 45 0l32-79z m119 97l-60 0 0 20 60 0z m41 0l0 20 60 0 0-20z m-131 43c30 15 63 24 96 26 53 3 96-11 124-25 0-8 1-16 1-25 0-6 1-13 1-20l-14 0 0 24c0 8-6 14-14 14l-66 0c-8 0-14-6-14-14l0-24-2 0c-1 0-2 0-3 0l0 24c0 8-6 14-14 14l-66 0c-8 0-14-6-14-14l0-24c-5 0-9 0-14 0l0 44z m-33-207l1 50 293-1 1-48-295 0z"/>
<glyph glyph-name="handy-icon-cityguide" unicode="&#107;" d="M256 0c-141 0-256 115-256 256 0 141 115 256 256 256 141 0 256-115 256-256 0-141-115-256-256-256z m0 493c-130 0-237-107-237-237 0-130 107-237 237-237 130 0 237 107 237 237 0 130-107 237-237 237z m82-86l-164 0c-8 0-15-6-15-14l0-275c0-8 7-14 15-14l164 0c8 0 14 6 14 14l0 275c1 8-6 14-14 14z m-161-39l157 0 0-211-157 0z m158 22l0-8-158 0 0 8z m-158-268l0 21 157 0 0-21z m85 17l-12 0c-4 0-7-3-7-7 0-4 3-7 7-7l12 0c4 0 7 3 7 7 0 4-3 7-7 7z m43 59l-16 35c-1 1-2 2-4 3l-3 1c0 1-2 1-3 1 4 7 7 13 11 19l1 1c6 9 7 19 5 29-4 19-21 34-40 34 0 0 0 0-1 0l-1 0c0 0-1 0-2 0-1 0-2 0-3-1-11-2-19-7-27-15-6-8-9-18-8-28 0-7 2-13 5-18 4-7 8-13 12-21-1 0-1 0-2 0-1-1-2-1-3-2-2-1-4-2-4-4-3-6-6-12-8-18l-5-9c-1-3-3-5-3-7-1-1-1-3 0-4 0-2 1-3 3-3 1 0 1 0 1 0 1 0 3 0 4 1l6 2c4 2 8 4 13 6 1 0 1 0 1 0 4-2 7-3 10-5l9-4c1-1 4-1 5 0l8 3c4 2 7 4 11 5 1 0 1 0 2 0 5-2 10-4 15-6l4-2c2-1 4-1 6 1 1 1 2 3 1 6z m-20 94c4-10 3-18-2-27-5-11-12-20-18-31l-7-12c-2-2-2-1-2-1 0 0 0 0-1 1l-7 12c-6 11-13 22-19 32-3 4-3 8-3 13 0 6 0 11 3 16 5 10 13 15 23 17 1 0 2 0 3 0l2 0c13-2 22-8 28-20z m-52-65c1 1 2 1 3 2l2 1 8-14c2-3 5-5 8-6 5 0 10 1 12 6 3 3 4 6 6 10l2 4 6-3 10-21c-3 1-6 3-8 4-3 1-4 1-7 0-3-1-7-3-10-4-3-1-6-3-8-4-1 0-1 0-1 0-3 2-6 3-10 4-3 2-6 3-9 4-1 1-3 1-3 1-1 0-2 0-4-1-2-1-5-2-8-4z m6 53c0-4 2-9 5-11 3-3 7-5 11-5 9 0 17 7 17 16 0 4-2 9-5 12-3 3-7 5-11 5-9 0-17-8-17-17z m11 0c0 2 1 3 2 4 1 1 2 2 4 2 4 0 6-4 6-6 0-2-1-3-2-4-1-1-2-2-4-2-3 0-6 3-6 6z"/>
<glyph glyph-name="handy-icon-form" unicode="&#110;" d="M256 0c-141 0-256 115-256 256 0 141 115 256 256 256 141 0 256-115 256-256 0-141-115-256-256-256z m0 493c-130 0-237-107-237-237 0-130 107-237 237-237 130 0 237 107 237 237 0 130-107 237-237 237z m110-142l-35 31c-1 1-4 2-5 2l-148 0c-7 0-12-5-12-11l0-233c0-6 5-11 12-11l180 0c7 0 12 5 12 11l0 204c0 3-1 6-4 7z m-16-9l-28 0 0 24z m-165-196l0 220 120 0 0-31c0-6 5-11 11-11l36 0 0-178z m-163 346l-3 0c0 0 0 0 0 0l0-26c0 0 0 0 0 0l3 0c0 0 0 0 0 0m4 19l15 0m-15-5l15 0m-15-4l15 0m-15-5l15 0"/>
<glyph glyph-name="handy-icon-infrared" unicode="&#117;" d="M256 0c-141 0-256 115-256 256 0 141 115 256 256 256 141 0 256-115 256-256 0-141-115-256-256-256z m0 493c-130 0-237-107-237-237 0-130 107-237 237-237 130 0 237 107 237 237 0 130-107 237-237 237z m-110-191l0 87c0 5-4 9-9 9-5 0-9-4-9-9l0-266c0-5 4-9 9-9 5 0 9 4 9 9l0 87c15 2 26 22 26 46 1 24-11 44-26 46z m128 70c4 4 3 10-1 12-4 3-10 2-12-2-99-124-1-252 0-252 1-3 4-4 7-4 2 0 4 1 6 2 4 3 4 9 1 12-4 5-90 118-1 232z m56-11c-4 3-9 3-13-1-92-102-1-207 0-208 1-2 4-3 6-3 3 0 4 1 6 2 4 3 4 9 1 13-4 4-81 94 0 185 4 3 4 9 0 12z m52-35c4 4 3 9-1 12-4 3-10 2-12-2-62-79-1-160 0-161 1-2 4-3 7-3 2 0 4 1 6 2 4 3 4 8 1 12-1 1-54 71-1 140z"/>
<glyph glyph-name="handy-icon-invitation" unicode="&#119;" d="M256 0c-141 0-256 115-256 256 0 141 115 256 256 256 141 0 256-115 256-256 0-141-115-256-256-256z m0 493c-130 0-237-107-237-237 0-130 107-237 237-237 130 0 237 107 237 237 0 130-107 237-237 237z m158-198c0 2-1 3-1 3-1 1-1 2-2 3 0 0-1 0-1 1 0 0 0 0 0 0l-149 84c-3 2-6 2-9 0-35-19-148-83-150-84 0 0 0 0 0 0 0 0 0 0-1-1-1-1-2-2-2-3-1 0-1-1-1-2 0 0 0-1 0-1 0 0 0 0 0-1l0-161c0-5 4-9 9-9l299 0c4 0 8 4 8 9l0 162c0-1 0 0 0 0z m-158 74l130-75-36-20 0 20c0 5-4 9-9 9l-171 0c-4 0-8-4-8-9l0-19-36 19c27 16 90 52 130 75z m77-103l-77-42-77 42 0 20 154 0z m-217-124l0 138 136-74c2 0 2 0 4 0 2 0 3 0 4 0l136 74 0-138z"/>
<glyph glyph-name="handy-icon-message" unicode="&#68;" d="M256 0c-141 0-256 115-256 256 0 141 115 256 256 256 141 0 256-115 256-256 0-141-115-256-256-256z m0 493c-130 0-237-107-237-237 0-130 107-237 237-237 130 0 237 107 237 237 0 130-107 237-237 237z m155-122l-310 0c-8 0-15-6-15-14l0-201c0-8 7-14 15-14l311 0c8 0 14 6 14 14l0 201c0 8-7 14-15 14z m-209-125l54-27 54 27 86-87-280 0z m-99-75l0 123 83-40z m223 83l83 40 0-123z m83 100l0-40-153-76-153 76 0 39 306 0z"/>
<glyph glyph-name="handy-icon-mobile-1" unicode="&#62;" d="M256 0c-141 0-256 115-256 256 0 141 115 256 256 256 141 0 256-115 256-256 0-141-115-256-256-256z m0 493c-130 0-237-107-237-237 0-130 107-237 237-237 130 0 237 107 237 237 0 130-107 237-237 237z m82-86l-164 0c-8 0-15-6-15-14l0-275c0-8 7-14 15-14l164 0c8 0 14 6 14 14l0 275c1 8-6 14-14 14z m-161-39l157 0 0-211-157 0z m158 22l0-8-158 0 0 8z m-158-268l0 21 157 0 0-21z m8 210c1 0 2 0 3 1l14 14c2 2 2 4 0 6-1 1-4 1-5 0l-15-15c-1-1-1-4 0-5 1-1 2-1 3-1z m40 25c-2 1-4 1-6 0l-37-37c-1-2-1-4 0-6 1 0 2 0 4 0 1 0 2 0 3 0l37 37c0 2 0 4-1 6z m37-218l-12 0c-4 0-7-3-7-7 0-4 3-7 7-7l12 0c4 0 7 3 7 7 0 4-3 7-7 7z"/>
<glyph glyph-name="handy-icon-nfc" unicode="&#69;" d="M256 0c-141 0-256 115-256 256 0 141 115 256 256 256 141 0 256-115 256-256 0-141-115-256-256-256z m0 493c-130 0-237-107-237-237 0-130 107-237 237-237 130 0 237 107 237 237 0 130-107 237-237 237z m6-235c-2 0-4 1-6 1-2 0-4 0-6-1-13-2-24-15-24-29 0-17 14-31 31-31 17 0 30 14 30 31-1 14-11 26-25 29z m-36-117l-16 29-9 0 0-42 9 0 0 28 16-28 9 0 0 42-9 0z m19-13l9 0 0 17 17 0 0 6-17 0 0 12 20 0 0 7-29 0z m49 42c-4 0-8-1-12-4-3-4-4-8-4-13l0-8c0-5 1-10 4-13 4-3 8-5 12-5 5 0 9 2 12 4 4 3 4 7 4 11l-8 0c0-3 0-5-1-7-2-1-3-2-6-2-2 0-5 1-6 3-2 2-3 5-3 8l0 8c0 3 1 6 3 8 1 2 3 3 5 3 4 0 5-1 7-2 1-2 1-3 1-7l8 0c0 5-1 8-4 12-2 3-6 4-12 4z m104 164c-163 120-284-7-285-8-3-4-3-9 1-13 1-2 4-3 6-3 2 0 5 1 6 3 5 5 112 117 262 5 4-3 10-2 12 2 2 5 2 10-2 14z m-236-57c-3-3-3-9 1-13 3-3 9-3 13 1 3 3 72 74 166-1 1-2 3-2 5-2 3 0 5 1 7 4 4 4 3 9-1 12-86 68-162 29-191-1z"/>
<glyph glyph-name="handy-icon-telescope" unicode="&#71;" d="M256 0c-141 0-256 115-256 256 0 141 115 256 256 256 141 0 256-115 256-256 0-141-115-256-256-256z m0 493c-130 0-237-107-237-237 0-130 107-237 237-237 130 0 237 107 237 237 0 130-107 237-237 237z m138-152l-21 57c-3 8-11 12-19 9l-85-32c-4-1-7-4-8-8-1-2-2-5-1-7l-60-22c-7-3-11-11-9-18l-30-11c-3 6-11 10-19 7l-16-6c-7-4-11-12-8-20l15-40c1-4 4-7 8-8 1-1 4-2 6-2 2 0 3 0 5 1l16 6c4 2 6 4 8 8 2 3 2 7 1 10l30 11c3-6 8-9 14-9 1 0 3 0 5 1l24 9 0-23-15-1c-4 0-6-3-6-7 0-4 3-7 6-7l8 0-59-125c-2-4 0-8 3-9 1-1 2-1 3-1 3 0 5 2 7 4l53 112 0-64c0-4 4-6 8-6 4 0 7 3 7 6l0 64 53-112c1-2 4-4 7-4 1 0 1 0 3 1 3 1 5 5 3 9l-61 127 8 0c4 0 7 3 7 7 0 4-3 6-7 6l-12 0 0 28 24 8c0 0 1-1 3-1 1-1 4-2 6-2 2 0 3 0 5 1l85 32c4 2 6 4 8 8 1 4-1 9-3 13z m-246-82l-13 35 11 4 2-6c0-1 0-2 1-3l5-16c1-1 1-3 2-3l2-7z m22 23l-4 10 30 11 4-10z m52 4l-13 36 56 21 13-36z m76 21l-20 53 79 30 20-53z"/>
<glyph glyph-name="handy-icon-technical" unicode="&#44;" d="M256 512c-141 0-256-115-256-256 0-141 115-256 256-256 141 0 256 115 256 256 0 141-115 256-256 256z m0-493c-130 0-237 107-237 237 0 130 107 237 237 237 130 0 237-107 237-237 0-130-107-237-237-237z m110 258l0 20c0 63-51 114-114 114-63 0-114-51-114-114l0-25c-7-6-11-14-11-24l0-41c0-2 0-4 1-6 0-7 2-41 29-67 18-18 44-27 77-27 1 0 2 0 4 0 0 0 0 0 1 0 3-4 7-6 11-6l11 0c6 0 12 5 12 12l0 5c0 6-6 12-12 12l-11 0c-4 0-8-4-11-8-1 0-1 0-1 0-30 0-53 8-69 23-10 9-15 21-19 30 4-1 7-2 12-2 18 0 33 15 33 33l0 41c0 19-15 34-33 34-3 0-5 0-7-1l0 17c0 54 44 98 99 98 54 0 98-44 98-98l0-16c-18-1-33-15-33-33l0-41c0-18 15-33 34-33 18 0 33 15 33 33l0 41c-1 13-8 23-20 29z m-205-12c9 0 17-8 17-18l0-41c0-9-8-17-17-17-10 0-18 8-18 17l0 41c0 10 8 18 18 18z m208-58c0-9-8-17-18-17-9 0-17 8-17 17l0 41c0 10 8 18 17 18 10 0 18-8 18-18z"/>
<glyph glyph-name="handy-icon-press" unicode="&#63;" d="M256 512c-141 0-256-115-256-256 0-141 115-256 256-256 141 0 256 115 256 256 0 141-115 256-256 256z m0-493c-130 0-237 107-237 237 0 130 107 237 237 237 130 0 237-107 237-237 0-130-107-237-237-237z m135 360c-2 2-5 3-8 2l-127-42-127 41c-3 1-6 0-8-2-3-1-4-4-4-7l-1-190c0-4 2-7 6-9l131-41c1 0 1-1 3-1 1 0 2 0 3 1l131 41c4 1 6 5 6 9l-1 190c-1 4-1 7-4 8z m-144-227l-113 36 1 172 112-36z m18 0l0 172 112 36 1-172z m-30 61l-83 25c-2 1-6 0-7-1-3-2-3-4-3-7l0-28c0-4 2-8 5-8l83-26c1 0 2 0 3 0 1 0 3 1 5 2 2 1 3 4 3 6l0 29c0 4-3 7-6 8z m-4-35l-81 24 0 26 81-25z m43 97c2-1 4-1 5-1 1 0 2 0 3 0l83 25c3 1 5 4 5 8l0 29c0 2-1 5-3 6-2 2-5 3-7 2l-83-26c-3 0-6-4-6-8l0-28c0-2 2-5 3-7z m7 35l81 25 0-25-81-25z m-138 27l93-30c1 0 1 0 2 0 2 0 4 2 4 3 1 3 0 6-3 7l-93 29c-2 1-5 0-6-3-1-2 1-5 3-6z m95-42l-92 30c-2 1-5-1-6-3-1-3 1-6 3-7l92-29c1 0 1 0 2 0 2 0 4 1 5 3 0 3-1 5-4 6z m0-22l-92 29c-2 0-5-1-6-4-1-2 1-5 3-6l91-29c1 0 1 0 2 0 2 0 4 2 5 3 1 3-1 6-3 7z m0-33l-50 16c-2 1-6-1-6-3-1-3 0-6 3-7l49-16c1 0 1 0 2 0 2 0 4 2 5 4 1 2-1 5-3 6z m87 30l-50-16c-2-1-4-4-3-7 1-2 2-3 5-3 1 0 1 0 1 0l50 16c2 1 4 3 3 6-1 3-4 4-6 4z m41-20l-92-30c-3-1-4-3-4-6 1-3 3-4 5-4 1 0 1 0 2 0l93 30c2 1 4 3 3 6-1 3-3 4-7 4z m1-22l-92-30c-2 0-4-3-3-6 1-2 2-3 5-3 1 0 1 0 1 0l92 29c3 1 4 4 4 7-2 2-4 4-7 3z m0-23l-92-29c-2-1-4-3-3-6 1-3 2-4 5-4 1 0 1 0 1 0l92 29c2 1 4 3 3 7-1 2-3 4-6 3z"/>
<glyph glyph-name="handy-icon-partnership" unicode="&#64;" d="M256 0c-141 0-256 115-256 256 0 141 115 256 256 256 141 0 256-115 256-256 0-141-115-256-256-256z m0 493c-130 0-237-107-237-237 0-130 107-237 237-237 130 0 237 107 237 237 0 130-107 237-237 237z m179-215l-53 84c-1 2-3 4-5 4-3 1-5 0-7 0l-35-23c-1-1-3-3-4-5-1-3 0-5 1-7l-8-2c-8 2-33 8-50 9-20 0-52-7-63-16 0 0 0 0-1 0-18-3-29 8-30 8 0 0-1 0-2 0l1 1c2 2 2 4 1 7-1 2-2 4-4 5l-33 21c-4 2-9 2-12-3l-54-88c-2-2-2-4-1-7 1-2 2-4 4-5l33-21c1-1 3-2 5-2 3 0 5 2 7 4l1 3 19-25c0-1 1-1 1-2l-4-7c-6-8-4-19 4-24 4-2 7-3 10-3 0 0 0 0 1 0 0-6 2-11 8-15l3-3c3-1 6-3 10-3 0 0 2 0 3 0 1 0 1 0 1 0 2-3 4-5 7-7l3-2c3-3 6-4 10-4 2 0 5 1 8 2 1-2 3-4 5-6 3-2 7-3 10-3 5 0 9 2 12 5 1 0 1-1 1-1l38-4c1 0 1 0 2 0 4 0 10 2 18 11l3 0c1 0 12 0 19 8 2 4 4 8 4 12 4 0 9 1 14 4 3 3 7 8 8 16 4 0 12 2 17 8 2 4 5 8 5 15l22 25c1-1 2-1 2-1 1 0 2 0 2 0 2 0 3 1 5 1l35 23c5 4 6 9 3 13z m-321-19l-18 11 46 74 19-11z m39-61c-3 1-3 4-2 6l13 19c2 3 4 3 6 2 3-2 3-4 2-7l-13-19c-1-2-4-2-6-1z m21-20l-3 2c-2 2-2 4-1 6l24 36c0 1 1 2 3 2 0 0 1 0 1 0 0 0 1 0 2-1l3-2c3-2 3-4 2-7l-24-36c-1 0-2-1-3-1-2 0-3 0-4 1z m24-12l-4 2c-2 2-2 4-1 6l19 28c2 3 4 3 6 2l4-2c0-1 1-2 1-4 0-1 0-2-1-3l-19-28c0-1-3-2-5-1z m23-7c-3 2-3 4-2 7l9 12c1 1 2 2 3 2 2 0 3 0 3-1 1-1 2-1 2-3 0-2 0-2-1-3l-8-13c-1-2-4-2-6-1z m129 55c-1-2-4-3-7-3l-54 31c-3 2-8 1-10-2-1-3-1-8 3-10l49-28c0 0-1-1-1-2 0-3-1-6-2-6-2-2-5-2-6-2l-45 22c-3 2-8 0-10-3-1-3 0-8 3-9l39-20c0-3-1-5-2-7-1-2-5-3-6-3l-35 16c-3 2-8 0-9-3-2-4 0-8 3-10l22-10c-3-3-4-3-4-3l-32 3 2 2c2 4 3 9 2 13 0 4-3 9-7 11-1 1-4 2-5 3 0 3 1 6 0 8 0 5-3 9-7 12l-3 2c-2 2-5 2-7 2 0 6-3 12-8 15l-3 2c-4 3-9 3-13 3-5-1-9-4-11-8-2 3-4 4-5 6-7 5-15 4-22-2l-19 26c-1 1-1 1-2 2l35 55c3-3 13-10 27-11-6-8-12-16-13-18-1-2-1-4-1-6 0-4 2-13 6-19 7-8 20-3 26 1l39 20 96-62c-2-4-2-6-3-8z m8 23l-97 63c-3 2-7 2-9 1l-44-23c-2-1-4-2-6-3 0 1-1 3-1 4 6 9 17 24 22 29 4 4 31 12 51 11 19-1 48-9 49-9 2 0 3 0 5 0l12 4c1 0 2 1 2 1l35-57z m37 27l-43 69 20 13 43-69z"/>
<glyph glyph-name="handy-icon-hospitality" unicode="&#91;" d="M256 512c-141 0-256-115-256-256 0-141 115-256 256-256 141 0 256 115 256 256 0 141-115 256-256 256z m0-493c-130 0-237 107-237 237 0 130 107 237 237 237 130 0 237-107 237-237 0-130-107-237-237-237z m104 286l-6 0 0 13c0 4-4 8-9 8-5 0-9-4-9-8l0-13-6 0c-7 0-13-2-18-6l0 34c0 15-10 28-24 32l0 17c0 4-4 8-9 8-5 0-9-4-9-8l0-16-30 0 0 16c0 4-4 8-9 8-5 0-9-4-9-8l0-17c-13-4-24-17-24-32l0-33c-4 2-9 4-15 4l-7 0 0 13c0 5-4 9-9 9-5 0-9-4-9-9l0-13-6 0c-18 0-33-15-33-33l0-117c0-18 15-32 33-32l31 0c10 0 19 4 24 11 7-7 15-11 24-11l47 0c10 0 19 4 25 12 7-8 15-12 26-12l31 0c18 0 33 15 33 32l0 118c1 18-15 33-33 33z m-162-151c0-8-7-15-15-15l-31 0c-9 0-15 7-15 15l0 118c0 9 7 15 15 15l31 0c9 0 15-7 15-15z m96 0c0-8-8-15-16-15l-12 0 0 30c0 5-5 11-12 11-5 0-11-5-11-11l0-30-13 0c-8 0-15 7-15 15l0 180c0 8 7 15 15 15l47 0c9 0 15-7 15-15l0-180z m82 0c0-8-7-15-15-15l-31 0c-9 0-16 7-16 15l0 118c0 9 8 15 16 15l30 0c9 0 15-7 15-15l0-118z m-198 92c0-6-5-11-11-11-6 0-11 5-11 11 0 7 5 12 11 12 6 0 11-5 11-12z m0-44c0-6-5-11-11-11-6 0-11 5-11 11 0 7 5 12 11 12 6 0 11-5 11-12z m178 44c0-6-5-11-11-11-6 0-11 5-11 11 0 7 5 12 11 12 6 0 11-5 11-12z m0-44c0-6-5-11-11-11-6 0-11 5-11 11 0 7 5 12 11 12 6 0 11-5 11-12z m-90 103c0-6-5-11-11-11-6 0-11 5-11 11 0 6 5 11 11 11 6 0 11-5 11-11z m0-44c0-6-5-11-11-11-6 0-11 5-11 11 0 6 5 11 11 11 6 0 11-5 11-11z m0-43c0-7-5-12-11-12-6 0-11 5-11 12 0 6 5 11 11 11 6 0 11-5 11-11z"/>
<glyph glyph-name="handy-icon-inquiries" unicode="&#93;" d="M256 512c-141 0-256-115-256-256 0-141 115-256 256-256 141 0 256 115 256 256 0 141-115 256-256 256z m0-493c-130 0-237 107-237 237 0 130 107 237 237 237 130 0 237-107 237-237 0-130-107-237-237-237z m-16 366c-16-3-29-11-39-23-12-14-18-30-18-48 0-3 1-4 3-6 2-3 6-4 9-2 4 1 7 4 7 9 0 15 5 28 16 39 25 24 65 20 84-8 8-12 12-25 9-40-1-8-6-16-12-22-8-10-17-19-25-29-9-11-16-24-21-38-4-12-6-24-6-37 0-5 4-10 9-10 5 0 9 4 10 9 0 2 0 3 0 5 0 11 2 22 6 32 5 13 13 23 22 34 7 8 15 16 21 25 9 11 15 24 15 39 0 20-7 36-20 50-20 19-43 26-70 21z m28-245c0-7-5-12-12-12-7 0-12 5-12 12 0 7 5 12 12 12 7 0 12-5 12-12z"/>
<glyph glyph-name="handy-icon-career" unicode="&#94;" d="M256 512c-141 0-256-115-256-256 0-141 115-256 256-256 141 0 256 115 256 256 0 141-115 256-256 256z m0-493c-130 0-237 107-237 237 0 130 107 237 237 237 130 0 237-107 237-237 0-130-107-237-237-237z m98 318l-48 0c-1 20-18 36-39 36l-27 0c-21 0-38-16-39-36l-43 0c-16 0-30-14-30-30l0-138c0-16 14-30 30-30l196 0c16 0 30 14 30 30l0 138c0 16-14 30-30 30z m-114 18l27 0c11 0 20-8 22-18l-71 0c2 10 11 18 22 18z m-82-36l196 0c5 0 9-3 11-7-7-30-40-53-84-59l0 10c0 7-6 13-13 13l-26 0c-7 0-12-6-12-13l0-10c-44 6-76 29-84 58 0 0 0-1 0-1 2 5 6 9 12 9z m106-61l0-33-16 0 0 33z m102-89c0-7-5-12-12-12l-196 0c-7 0-12 5-12 12l0 108c17-22 48-37 84-43l0-14c0-7 6-13 13-13l26 0c7 0 13 6 13 13l0 14c36 5 67 21 84 43z"/>
<glyph glyph-name="handy-icon-advertising" unicode="&#95;" d="M256 512c-141 0-256-115-256-256 0-141 115-256 256-256 141 0 256 115 256 256 0 141-115 256-256 256z m0-493c-130 0-237 107-237 237 0 130 107 237 237 237 130 0 237-107 237-237 0-130-107-237-237-237z m58 337c-2 0-4 0-5-1-2 0-3 0-4 0l-147-51c-2 1-4 1-6 1l-18 0c-12 0-22-10-22-22l0-38c0-12 10-22 22-22l8 0-11-52c-1-5 3-9 7-10l23-5c1 0 1 0 1 0 2 0 4 1 5 2 2 1 3 3 4 5l11 53 122-43c1 0 2-1 3-1 1 0 1 0 2 0 1-1 3-1 5-1 25 0 32 58 32 92 0 35-8 93-32 93z m-181-115c-3 0-4 1-4 4l0 38c0 3 1 4 4 4l18 0c3 0 4-1 4-4l0-38c0-3-1-4-4-4z m21-66l-4 1 8 45 5-1z m17 63c1 2 2 4 2 7l0 38c0 3-1 4-1 7l118 41c-6-20-8-47-8-67 0-20 2-48 8-67z m143-48c-4 3-11 20-14 48 9 1 14 12 14 27 0 15-5 25-14 26 2 28 10 44 13 47 5-4 14-28 14-74 1-46-9-70-13-74z m45 118l34 23c4 3 5 8 2 12-2 4-8 5-12 3l-33-24c-4-2-5-8-3-12 2-2 5-4 7-4 2 0 4 1 5 2z m32-34l-29 0c-4 0-8-4-8-9 0-5 4-9 8-9l29 0c5 0 9 4 9 9 0 5-4 9-9 9z m-26-56c-4 4-10 3-13 0-3-4-2-10 1-12l25-21c1-2 4-3 5-3 3 0 5 1 7 4 3 4 2 9-1 12z"/>
<glyph glyph-name="handy-icon-handychat-avatar" unicode="&#96;" d="M486 94c-23 68-66 117-130 148-10 5-22 9-34 14 77 45 91 142 40 205-50 61-143 68-200 13-28-28-44-61-43-100 1-52 26-92 70-119-1-1-2-1-3-1-104-33-175-131-174-240 0-9 5-15 13-15 8 0 13 5 13 15 2 15 2 30 5 45 11 51 35 95 75 128 52 45 113 62 180 47 78-16 130-64 160-136 11-27 15-55 16-84 0-9 4-14 13-14 8 0 13 6 12 15 0 27-4 54-13 79z m-230 172c-62 0-110 48-110 110 0 61 49 110 110 110 61 0 110-49 110-110 0-62-49-110-110-110z"/>
<glyph glyph-name="handy-icon-handychat-conversation" unicode="&#123;" d="M512 428c0 21-15 36-36 36-98 0-194 0-292 0-13 0-24-6-30-17-4-5-5-13-5-18-1-19 0-39 0-59l-110 0c-23 0-39-14-39-35 0-61 0-124 0-185 0-16 10-28 26-32 6-2 13-2 20-3 0-14 0-29 0-44 0-12 4-19 13-22 10-3 18 0 25 6 18 19 37 37 55 55 3 3 7 4 11 4 20 0 41 0 62 0 38 0 75 0 113 0 25 0 38 15 38 39 0 19 0 37 0 57 1 0 2 0 3 1 2-1 4-3 7-5 17-18 35-36 53-53 2-2 4-4 6-6 6-5 14-6 22-3 8 3 11 10 12 18 0 6 0 12 0 16 0 11 0 21 0 32 4 0 8 0 11 0 21 0 35 15 35 36 0 61 0 122 0 182z m-190-281c-39 0-78 0-117 0-23 0-46 0-69 0-4 0-9-2-11-5-15-15-31-30-46-45l-1 1 0 49c-11 0-21 0-31 0-19 0-16-1-16 16 0 55 0 110 0 165 0 10 0 10 11 10 33 0 241 0 280 0 10 0 11 0 11-9 0-27 0-52 0-79 0-2 0-39 0-39l0-33c0-8 0-15 0-22 0-7-3-9-11-9z m150 96c-12 1-25 0-38 0l0-53c-11 11-20 20-28 28-4 4-8 8-12 12-8 8-16 17-31 12l0 9c0 27 0 53 0 80 0 25-14 39-39 39-46 0-90 0-136 0l-9 0 0 42c0 22 0 22 22 22 89 0 180 0 269 0 11 0 11 0 11-11 0-57 0-113 0-170 0-7-2-11-9-10z m-215 20l-28 0c-3 0-6-2-6-5l0-28c0-3 3-5 6-5l28 0c3 0 5 2 5 5l0 28c0 3-2 5-5 5z m-121 0l-28 0c-3 0-6-2-6-5l0-28c0-3 3-5 6-5l28 0c3 0 6 2 6 5l0 28c-1 3-4 5-6 5z m60 0l-28 0c-3 0-6-2-6-5l0-28c0-3 3-5 6-5l28 0c3 0 6 2 6 5l0 28c0 3-3 5-6 5z"/>
<glyph glyph-name="handy-icon-handychat-history" unicode="&#124;" d="M509 399c0 2 0 3-1 4 0 0 0 1-1 1 0 1-1 2-1 2 0 0 0 1 0 1 0 1-1 1-2 2 0 0-1 1-1 1 0 0 0 0-1 0 0 0 0 1-1 1 0 0-1 0-1 1l-239 99c-3 2-7 2-11 0l-238-100c0 0-1 0-1-1-1 0-1 0-1 0 0 0 0 0-1-1 0 0-1-1-1-1-1-1-1-1-2-2 0 0 0 0 0 0-1-1-1-2-1-3 0 0 0-1-1-1 0 0-1-2-1-4l0-288c0-6 3-11 9-13l238-96c0 0 1 0 1 0 0 0 1 0 1 0 1 0 2-1 3-1 1 0 3 0 3 1 0 0 1 0 1 0 0 0 1 0 1 0l239 95c5 2 9 7 9 13z m-253 84l203-85-77-32-198 88z m-107-44l197-85-90-39-203 83z m-119-61l212-87 0-257-212 84z m240-344l0 257 98 41 0-52c0-7 6-14 14-14 7 0 13 7 13 14l0 63 86 35-1-260z"/>
<glyph glyph-name="handy-icon-handychat-template" unicode="&#125;" d="M452 510c-130 0-262 0-392 0-38 0-60-22-60-59 0-129 0-260 0-389 0-38 22-60 60-60 66 0 130 0 196 0 66 0 131 0 197 0 37 0 59 22 59 59 0 130 0 261 0 390 0 37-22 59-60 59z m23-449c0-17-6-23-23-23-66 0-131 0-197 0-65 0-131 0-197 0-16 0-23 6-23 23 0 130 0 261 0 390 0 16 7 23 23 23 131 0 262 0 393 0 16 0 23-7 23-23 1-129 1-260 1-390z m-123 297c-34 0-66 0-100 0-33 0-66 0-99 0-12 0-20-8-20-19 0-10 8-17 19-17 66 0 133 0 198 0 4 0 9 1 12 4 7 4 9 12 7 19-1 8-7 13-17 13z m-256 20c60 0 120 0 180 0 4 0 9 2 12 4 6 4 9 12 6 20-2 8-8 12-18 12-30 0-60 0-90 0-30 0-60 0-90 0-12 0-20-8-20-18 0-10 9-17 20-18z m-19-119c2-8 9-13 18-13 31 0 60 0 91 0 29 0 60 0 89 0 12 0 20 8 20 18 0 10-8 18-20 18-60 0-119 0-179 0-4 0-8 0-11-3-7-4-10-13-8-20z m200-130c-47 0-95 0-142 0-13 0-21-7-21-19 0-11 9-18 22-18 23 0 46 0 70 0 24 0 48 0 71 0 4 0 9 2 13 3 7 4 9 13 7 20-3 10-10 14-20 14z m-111 40c12 0 20 8 20 18 0 11-8 18-20 18-23 0-46 0-68 0-12 0-20-8-20-19 0-10 8-18 20-18 12 0 23 0 35 0 9 1 21 1 33 1z"/>
<glyph glyph-name="handy-icon-rating-heart-fill" unicode="&#92;" d="M470 458c-27 28-65 40-106 34-65-10-99-64-107-79-12 20-47 70-108 79-42 6-79-6-107-34-11-8-47-51-42-112 2-32 16-63 41-89l95-109c32-35 118-128 119-129 1-1 1-1 2-1 1 0 1 0 1 1 35 39 72 79 106 119 35 39 71 79 106 118l1 1c24 26 39 57 41 89 5 61-32 104-42 112z"/>
<glyph glyph-name="handy-icon-search-btn" unicode="&#57344;" d="M508 21l-121 121c35 39 57 91 57 148 0 123-99 222-222 222-123 0-222-99-222-222 0-123 99-223 222-223 57 0 109 22 148 57l121-121c5-5 13-5 18 0 5 6 5 13-1 18z m-286 72c-108 0-197 88-197 197 0 110 88 198 197 198 110 0 198-88 198-198 0-109-89-197-198-197z"/>
<glyph glyph-name="handy-icon-minus" unicode="&#57345;" d="M0 262l512 0 0-12-512 0z"/>
<glyph glyph-name="handy-icon-plus" unicode="&#57346;" d="M277 264l0 253-16 0 0-253-261 0 0-16 261 0 0-253 16 0 0 253 235 0 0 16z"/>
<glyph glyph-name="handy-icon-add" unicode="&#126;" d="M512 288l-225 0 0 224-63 0 0-224-224 0 0-63 224 0 0-225 63 0 0 225 225 0z"/>
<glyph glyph-name="handy-icon-case" unicode="&#57347;" d="M378 447l-30 0 0 15c0 28-22 50-50 50l-84 0c-28 0-50-22-50-50l0-15-30 0c-27 0-48-21-48-47l0-324c0-23 17-42 39-46 4-17 18-29 36-29 17 0 32 12 36 28l119 0c4-16 18-28 36-28 18 0 32 12 36 29 22 4 38 23 38 46l0 324c0 26-21 47-48 47z m-196 15c0 18 14 32 31 32l85 0c18 0 32-15 32-32l0-15-148 0z m-21-444c-7 0-14 4-17 10l33 0c-3-6-9-10-16-10z m190 0c-7 0-13 4-17 10l34 0c-3-6-10-10-17-10z m57 57c0-16-13-29-30-29l-244 0c-16 0-30 12-30 29l0 325c0 16 13 30 30 30l245 0c16 0 30-13 30-30l0-325z m-72 346l-18 0c0-32 26-59 58-59 5 0 10 1 15 2l-5 18c-26-7-50 13-50 39z m-142 0l-18 0c0-26-24-47-50-39l-5-18c5-2 10-2 15-2 32 0 58 27 58 59z m124-367l18 0c0 26 24 47 50 40l5 17c-37 10-73-20-73-57z m-197 56l5-17c26 7 50-13 50-39l18 0c0 37-36 67-73 56z m72 140c1-3 1-6 1-8 0-14-11-26-25-26-14 0-26 11-26 26 0 13 11 25 26 25 3 0 6-1 9-1 4-2 8 0 8 3 2 3 0 7-3 8-5 1-9 2-14 2-21 0-39-17-39-38 0-21 17-39 39-39 21 0 38 17 38 39 0 4-1 8-2 12-1 3-5 5-8 4-3 0-5-4-4-7z m71-60c-2 3-5 4-8 3l-12-5c-3-2-5-5-3-8 1-3 5-5 8-3l5 2 15-35-59-24-14 35 30 12c3 2 4 5 3 8-2 3-5 5-8 3l-35-14c-2-1-4-2-4-3 0-2 0-3 0-5l20-47c0-3 3-4 5-4 1 0 2 0 3 1l70 28c3 2 5 5 3 8z m44 88l18 33c0 2 0 3 0 5 0 2-1 3-3 4l-89 47c-1 1-2 1-3 1-1 0-1 0-2 0-2-1-3-2-4-3l-18-34c-1-1-1-3-1-5 1-1 2-3 4-4l11-5c3-2 7-1 9 2 1 3 0 7-3 9l-5 3 12 23 78-42-12-22-50 26c-4 2-8 1-9-2-2-4-1-8 2-9l56-30c2-1 3-1 5-1 2 1 3 2 4 4z m24-118c4-2 8-2 13-2 3 0 6 4 6 7 0 3-3 6-6 6-3 0-6 0-8 1-14 4-21 18-17 32 4 14 18 21 32 17 14-4 21-19 17-32-1-3-3-7-5-9-2-2-2-6 1-9 2-2 6-1 9 1 3 4 5 8 7 13 6 20-5 41-25 48-20 6-42-5-48-25-7-21 4-42 24-48z"/>
<glyph glyph-name="handy-icon-clock" unicode="&#57348;" d="M256 512c-141 0-256-115-256-256 0-141 115-256 256-256 141 0 256 115 256 256 0 141-115 256-256 256z m0-493c-130 0-237 107-237 237 0 130 107 237 237 237 130 0 237-107 237-237 0-130-107-237-237-237z m121 277l-112-82 0 204c0 5-4 9-9 9-5 0-9-4-9-9l0-239 140 103c4 4 5 8 2 12-3 4-9 5-12 2z"/>
<glyph glyph-name="handy-icon-suprise" unicode="&#57349;" d="M138 165c-3-1-5-1-8 0-2 1-4 3-4 5 0 1 0 1-1 2l-17-3c0-2 1-3 2-5 2-6 7-12 13-14 3-2 7-3 11-3 3 0 6 1 9 2 7 2 12 7 15 13 3 7 3 14 0 20-2 7-7 12-13 15-7 3-14 3-20 1l6-16c3 0 5 0 7 0 3-1 4-4 5-6 2-4-1-10-5-11z m-57-59c-2-15 9-28 23-29 1 0 2 0 3 0 1 0 2 0 3 0l-2 17c-1 0-1 0-2 0-4 0-8 5-8 10 1 5 6 9 11 8 2 0 5-2 6-3 2-2 3-5 2-7l17-2c0 7-1 14-6 19-4 6-10 9-18 10-15 1-28-9-29-23z m125 209c2 0 4 1 5 2 30 18 79 55 73 103-1 8-5 15-8 22-3 6-6 12-6 17 1 15 20 27 54 32 5 1 9 6 8 11-1 4-6 8-10 8-17-3-67-12-69-49-1-11 4-20 8-27 2-5 5-11 5-16 5-39-43-72-64-85-4-3-5-9-3-13 1-3 4-5 7-5z m72 3c-4-3-6-8-4-13 2-3 5-5 8-5 2 0 4 0 4 1 40 20 55 71 34 113-2 5-8 7-13 4-5-2-6-8-4-12 17-32 6-72-25-88z m181 84c-5 0-9-4-9-9 2-40-5-63-21-66-7-1-13 2-20 4-7 3-15 6-24 6-53 0-82-61-95-97-1-5 1-10 6-12 1 0 2-1 3-1 4 0 7 3 9 7 9 25 34 84 77 84 5 0 11-3 17-5 9-3 20-7 31-5 40 8 37 66 37 85-1 5-5 9-11 9z m-90 2c-7 1-12-4-12-10 0-6 5-12 11-12 6 0 11 5 11 11 1 6-4 11-10 11z m-35 71c-6 0-11-5-12-11 0-6 5-12 11-12 6 0 12 5 12 11 0 6-5 11-11 12z m85-29c-6 2-12-2-14-8-2-5 1-12 7-14 6-2 12 2 14 7 2 6-1 13-7 15z m8-56c-7 1-12-4-12-10 0-7 5-12 11-12 6 0 11 5 11 11 1 6-4 11-10 11z m-40 122c-6 0-11-5-11-11-1-6 4-11 10-11 7-1 12 4 12 10 0 7-5 12-11 12z m-160-102c-6 0-11-5-11-11-1-6 4-11 10-12 6 0 12 5 12 11 0 6-5 11-11 12z m245 53c-6 0-12-5-12-11 0-6 5-11 11-12 6 0 11 5 11 11 1 6-4 12-10 12z m-261 19c-6 0-11-5-11-11-1-6 4-12 10-12 7 0 12 5 12 11 0 6-5 11-11 12z m77-252c-10 20-27 39-49 56-21 16-45 28-65 32-24 4-42 0-52-12-19-25 3-72 51-108 21-16 45-28 65-32 1 0 2 0 3 0l-187-134 45 182c2 5-1 11-7 12-5 1-10-2-11-8l-51-207c-1-4 0-8 4-9 0-1 3-2 4-2 2 0 4 1 6 2l232 165c6 3 10 6 14 11 0 0 0 0 0 0 9 13 8 32-2 52z m-46-46c-18 4-39 14-58 29-41 31-58 68-47 81 3 4 9 7 18 7 4 0 9-1 15-2 18-4 39-14 58-29 19-14 34-32 43-48 7-14 9-25 4-32l-8-6c-6-2-14-2-25 0z"/>
<glyph glyph-name="handy-icon-suitcase" unicode="&#57350;" d="M457 414l-63 0 0 12c0 25-32 46-72 46l-132 0c-40 0-72-20-72-46l0-12-64 0c-30 0-55-24-55-55l0-264c0-30 25-55 55-55l403 0c30 0 55 25 55 55l0 264c0 31-25 55-55 55z m-318 12c0 12 23 24 51 24l131 0c29 0 51-13 51-24l0-12-233 0z m-84-32l403 0c6 0 11-2 16-5-8-115-102-205-218-205-116 0-210 90-218 205 5 3 11 5 17 5z m252-225c-2-11-12-19-24-19l-53 0c-12 0-22 8-24 19 16-3 33-6 51-6 17 0 33 3 50 6z m184-73c0-18-15-34-34-34l-402 0c-18 0-34 15-34 34l0 264c0 0 0 1 0 1 16-90 80-161 165-187l-2 0c0-24 20-45 46-45l53 0c25 0 46 20 46 45l-3 0c85 25 149 97 165 186 0 0 0-1 0-1z"/>
<glyph glyph-name="handy-icon-rating-heart-empty" unicode="&#57351;" d="M257 26c-4 0-8 2-11 5 0 0-82 85-113 118l-90 98c-32 34-41 67-42 91-6 60 31 103 44 112 28 27 67 39 111 33 50-7 82-38 101-61 17 22 49 54 100 61 43 6 83-6 112-34 12-10 48-53 43-113-2-22-10-57-42-90-33-36-68-72-101-108-34-36-68-72-101-108-3-1-7-3-11-4z m-122 428c-27 0-51-9-70-27-2-1-39-33-34-88 3-25 14-49 34-70l90-99c24-24 78-80 101-104 30 32 60 64 90 96 33 36 67 71 100 107 20 21 32 45 34 71 5 54-32 86-33 87-22 21-53 31-87 26-61-9-90-65-90-66-2-5-8-9-13-9-6 0-11 4-15 8-8 14-37 60-91 67-5 1-10 1-16 1z"/>
<glyph glyph-name="handy-icon-magic" unicode="&#57352;" d="M354 388c-12 10-29 8-39-4l-48-59-224-279c-5-5-6-12-5-20 0-8 4-15 10-19 4-5 10-7 17-7 8 0 16 3 21 10l272 339c5 5 7 13 6 21 0 7-4 13-10 18z m-280-367c-4-5-12-6-17-2-3 2-4 5-4 8 0 3 1 7 2 9l209 258c0 0 0 0 0 0 1-1 2-3 2-4 0 0 1 0 1-1 2-2 3-3 4-4 2-2 3-3 5-3 1 0 1-1 2-1 1-1 2-1 4-2 0 0 0 0 0 0z m224 278c-4-5-12-5-16-1-3 1-4 4-4 8 0 3 0 6 2 8l48 60c2 3 6 4 10 4 2 0 5 0 7-2 2-2 4-5 4-8 0-3-1-6-3-9z m-67 170l12 12 54-54-12-11z m-41-84l77 0 0-16-77 0z m142-100l16 0 0-76-16 0z m37 28l12 11 53-54-11-11z m30 58l77 0 0-16-77 0z m-20 46l54 54 11-11-53-54z m-47 95l16 0 0-76-16 0z"/>
<glyph glyph-name="handy-icon-close" unicode="&#57353;" d="M512 480l-32 32-224-224-224 224-32-32 224-224-224-224 32-32 224 224 224-224 32 32-224 224z"/>
<glyph glyph-name="handy-icon-social-ig" unicode="&#50;" d="M390 422l-268 0c-24 0-42-18-42-41l0-269c0-23 18-42 42-42l268 0c23 0 41 19 41 42l0 269c1 23-17 41-41 41z m-57-55c0 7 5 11 11 11l33 0c6 0 11-4 11-11l0-33c0-6-5-11-11-11l-33 0c-6 0-11 5-11 11z m-76-53c37 0 68-31 68-68 0-37-31-67-68-67-38 0-68 31-68 67 0 37 30 68 68 68z m142-200c0-6-5-11-11-11l-264 0c-6 0-11 5-11 11l0 165 44 0c-6-8-8-24-8-33 0-60 48-108 107-108 59 0 107 48 107 108 0 9-1 24-9 33l44 0 0-165z"/>
<glyph glyph-name="handy-icon-create-own" unicode="&#57354;" d="M415 70c0-20-17-37-37-37l-324 0c-20 0-36 17-36 37l0 340c0 10 8 19 18 19l238 0 0 17-238 0c-20 0-36-16-36-36l0-340c0-30 25-54 54-54l324 0c30 0 55 24 55 54l0 188-18 0z m79 352l-56 56c-10 10-28 10-38 0l-220-221c-6-6-10-16-11-24l-6-59c-1-8 3-16 8-22 5-5 12-8 19-8 0 0 2 0 3 0l63 7c4 1 10 3 13 7l224 225c10 11 10 28 1 39z m-13-26l-224-226c-1 0-3-1-3-1l-62-7c-2 0-6 1-7 3-2 1-3 5-3 7l6 59c0 4 3 11 6 13l218 221c2 1 4 2 6 2 3 0 5-1 7-2l55-56c4-3 4-9 1-13z"/>
<glyph glyph-name="handy-icon-guest-experience" unicode="&#57355;" d="M322 338c-9 6-19 7-29 8-8 0-15-2-19-9-6-8-12-15-19-23-8 9-15 17-21 26-4 4-7 6-12 6-3 0-5 0-8 0-24 0-45-21-41-47 3-25 6-49 9-74 2-15 7-28 21-36 2-1 3-4 3-6 5-39 11-78 17-117 2-12 8-18 21-18 7 0 15 0 22 0 13 0 20 6 22 19 6 38 11 76 17 114 1 3 3 7 6 9 9 5 15 13 16 24 4 29 8 59 11 88 2 15-4 27-16 36z m-66 20c26 0 47 22 47 48 0 26-21 48-47 48-26 0-47-21-47-47 0-27 21-49 47-49z m-109 60c-1 8-9 10-15 5-2-1-3-3-6-5-14 14-28 28-41 42-8 6-13 6-20-1-5-4-9-9-14-13-5-7-6-12 0-19 7-6 13-13 19-19 8-8 16-15 24-23-2-2-3-3-4-4-1-4-4-8-4-11 1-4 7-6 10-7 16-3 32-5 48-8 7-1 12 4 11 11-2 17-5 34-8 52z m-3-232c-3 0-6 0-10-1-12-3-26-4-39-7-10-1-13-8-6-16 1-2 2-4 4-5-2-2-3-4-5-6-12-12-24-24-36-37-7-7-7-12 0-20 4-4 9-8 13-12 6-6 12-6 18 0 3 2 5 4 7 6 12 12 24 24 36 36 2-2 4-3 4-4 4-2 8-4 12-3 2 1 4 5 6 9 1 1 1 4 1 6 2 14 5 28 6 42 1 9-3 13-11 12z m223 169c18 3 35 6 52 9 7 2 9 8 5 14-2 2-4 4-6 7 2 1 4 3 5 5 12 12 25 24 37 36 7 8 6 13 0 20-4 5-9 10-14 14-5 5-10 5-16 1-2-3-4-4-7-7-12-12-25-24-37-36-1 1-3 3-4 4-8 7-15 4-17-4-1-3-1-6-2-8-2-14-5-28-6-42-1-9 3-14 10-13z m51-198c2 1 3 2 3 3 1 4 5 9 4 11-2 3-7 7-11 7-15 4-30 6-46 8-8 2-13-3-12-11 2-16 5-32 8-48 1-3 3-8 6-9 3 0 7 2 11 4 1 0 2 2 5 4 12-13 24-25 36-37 14-15 16-15 30 0 16 16 16 17 0 33-10 11-22 23-34 35z m76 136c-18 0-36 0-54 0 0 3-1 5-1 9-1 8-7 11-13 7-15-10-29-20-43-31-5-4-5-10-1-13 15-11 29-22 44-32 6-4 12 0 13 7 1 3 1 6 1 9 20 0 39 0 58 0 11 0 15 4 15 14 0 4 0 8 0 12-1 15-3 18-19 18z m-420-51c0-11 7-14 16-8 12 9 25 19 38 28 8 5 8 12 0 17-11 8-22 16-33 24-16 11-19 11-22-10l-8 0c-17 0-34 0-50 0-11 0-14-4-14-15 0-4 0-10 0-15-1-11 3-15 14-15 17 0 35 0 51 0 5 0 7-1 8-6z"/>
<glyph glyph-name="handy-icon-loyalty" unicode="&#57356;" d="M510 288l-76 123c-1 3-3 3-5 4-3 1-5 0-7-1l-50-32c-4-3-6-8-2-12l3-5c-1 0-2 0-3 0l-14-5c-10 2-46 12-74 13-28 1-75-10-88-23-1 0-1 0-2 0-28-4-46 12-46 13-2 2-4 3-6 3l4 5c2 4 2 10-2 12l-48 31c-2 1-5 1-7 0-2 0-4-1-5-4l-80-131c-3-4-2-9 2-12l48-30c2-1 3-2 5-2 1 0 1 0 1 0 3 1 4 2 6 4l5 8 29-41c1-1 3-2 4-2l-10-14c-7-11-4-25 6-32 4-2 8-4 13-4 2 0 3 0 4 0-1-8 2-17 10-22l5-3c4-3 8-4 12-4 2 0 4 0 4 1 2 0 3 0 4 1 2-5 4-9 9-12l5-3c4-2 8-4 13-4 1 0 3 0 4 1 3 1 5 1 8 3 1-4 4-8 8-10 4-3 8-4 13-4 1 0 3 0 4 0 4 1 9 4 12 8 1 0 2 0 4 0l53-6c1 0 2 0 3 0 4 0 13 2 25 15l7 0c0 0 15 1 24 12 4 5 7 11 8 19 0 0 2 0 3 0 5 0 12 1 17 6 7 5 11 12 12 22 0 0 0 1 0 1 4 0 16 3 24 12 4 6 6 13 5 22l35 40c2-2 4-3 5-3 1 0 2 0 2 0 1 0 3 0 5 1l50 33c4-2 6 4 2 8z m-456-32l-33 21 70 116 33-21z m52-87c-4 3-5 9-2 13l18 28c2 3 4 4 7 4 1 0 1 0 1 0 2 0 4 0 6-1 5-3 6-10 2-14l-18-28c-2-2-4-4-6-4-4-1-6 0-8 2z m38-31c-2-1-5 0-7 1l-5 3c-5 4-6 10-2 14l35 53c1 2 4 4 6 4 3 1 5 0 7-2l5-3c5-3 6-10 3-14l-36-52c-2-3-4-4-6-4z m34-18c-3-1-5 0-8 2l-4 3c-5 3-6 9-3 13l27 42c2 2 4 4 7 4 2 1 5 0 7-2l5-3c5-3 5-9 2-13l-27-41c-2-3-4-4-6-5z m33-10c-2-1-5 0-7 1-5 3-6 10-2 14l12 18c1 3 4 4 6 4 2 1 5 0 7-1 5-4 6-10 3-14l-12-18c-3-2-4-4-7-4z m183 83c-4-5-10-6-13-7l-79 47c-4 1-8 1-10-3-2-3-1-8 2-9l75-43c-2-1-3-3-3-5 0-6-2-10-5-12-4-3-11-3-12-3l-65 34c-3 2-8 1-10-3-1-3 0-8 4-10l56-29c1-7 0-12-3-16-4-5-9-6-12-7l-50 24c-4 2-8 0-10-3-1-3 0-8 3-10l37-17c-8-8-13-9-13-9l-50 5 5 8c7 10 4 25-7 31-3 2-7 3-11 4 6 10 3 23-7 30l-5 3c-4 2-8 4-12 4 1 8-2 17-9 21l-5 4c-5 3-11 4-17 3-6-1-11-5-14-10l-3-4c-1 5-4 9-9 11-4 4-11 5-16 4-6-1-11-4-14-9l-30 40c-1 1-3 2-4 3l54 89c0-1 1-2 2-2 0-1 18-17 45-18-10-15-22-31-23-31-2-2-2-4-2-7 0-3 3-17 9-25 9-10 27-2 34 2l57 30 142-93c1-4 0-9-2-12z m8 30l-142 95c-2 1-6 1-9 0l-62-32c-5-3-11-4-13-5-2 2-2 7-3 11 6 9 26 36 33 44 8 7 46 18 76 18 28-1 71-13 72-13 1-1 3-1 5 0l18 5c2 1 4 3 5 4l56-91c-1-1-3-1-4-2z m53 40l-66 108 36 23 66-108z"/>
<glyph glyph-name="handy-icon-satisfaction" unicode="&#57357;" d="M202 310c0-21-18-38-39-38-21 0-38 17-38 38 0 22 17 39 38 39 21 0 39-17 39-39z m185 0c0-21-17-38-38-38-21 0-39 17-39 38 0 22 18 39 39 39 21 0 38-17 38-39z m-17-129c0-1-36-60-112-60-76 0-111 57-112 60l-6 9-20-11 6-10c1-3 43-72 132-72 88 0 130 69 132 72l5 10-20 12z m-114 331c-141 0-256-115-256-256 0-141 115-256 256-256 141 0 256 115 256 256 0 141-115 256-256 256z m0-495c-132 0-239 107-239 239 0 132 107 239 239 239 132 0 239-107 239-239 0-132-107-239-239-239z"/>
<glyph glyph-name="handy-icon-spending" unicode="&#57358;" d="M486 346l-78 0c-3 0-6 0-9-1l0 75c0 8-6 16-13 18l-120 42c-8 2-21 2-29 0l-116-41c-7-2-14-11-14-19l0-75c-2 1-5 1-9 1l-72 0c-15 0-26-11-26-25l0-265c0-14 11-26 26-26l73 0c5 0 9 2 13 4 2-3 6-4 9-4l265 0c4 0 7 2 9 4 4-3 8-4 13-4l78 0c15 0 26 12 26 26l0 265c0 13-11 25-26 25z m-379-290c0-4-3-8-8-8l-73 0c-4 0-8 3-8 8l0 265c0 4 3 8 8 8l73 0c4 0 8-3 8-8z m275-8l-256 0 0 372c0 1 0 2 1 2l116 41c4 2 14 2 18 0l119-41c1 0 2-1 2-2z m112 8c0-4-3-8-8-8l-78 0c-4 0-8 3-8 8l0 265c0 4 3 8 8 8l78 0c4 0 8-3 8-8z m-188 211c-9 7-20 11-29 15-11 4-22 8-32 12-5 3-11 9-11 15 0 8 8 12 14 12 14 0 28 0 42-3 20-4 20-5 29 15 1 1 1 2 2 4 2 6 1 11-6 13-9 4-18 8-27 8-9 1-11 4-11 13 1 15-2 17-16 17-23 0-23 0-23-22 0-6-1-9-7-11-7-1-13-5-20-9-31-18-33-60-3-80 13-8 28-13 42-20 9-4 19-8 27-13 9-7 8-18-2-24-3-3-7-3-10-5-17-5-33-1-49 4-20 7-20 7-29-13-5-12-4-16 8-21 13-4 27-8 41-12 2-28-4-27 28-27 9 0 13 4 13 13 0 3 0 6 0 10-1 5 1 8 7 10 8 2 16 6 23 11 31 24 31 66-1 88z"/>
<glyph glyph-name="handy-icon-triangle" unicode="&#57359;" d="M512 0l-512 0 512 512z"/>
</font>
</defs>
</svg>
